<?xml version="1.0" ?>

<!DOCTYPE svg  PUBLIC '-//W3C//DTD SVG 1.1//EN'  'http://www.w3.org/Graphics/SVG/1.1/DTD/svg11.dtd'>

<!-- Uploaded to: SVG Repo, www.svgrepo.com, Generator: SVG Repo Mixer Tools -->
<svg width="800px" height="800px" viewBox="0 0 512 512" enable-background="new 0 0 512 512" id="Layer_1" version="1.1" xml:space="preserve"
    xmlns="http://www.w3.org/2000/svg"
    xmlns:xlink="http://www.w3.org/1999/xlink">

    <g>

        <g>

            <path d="M494.342,331.828l-95.012,0.474c-21.365-58.469-77.477-100.2-143.34-100.2    c-65.466,0-121.297,41.236-142.943,99.156l-95.389,0.474c9.892-44.982,32.399-86.283,65.756-119.629    c46.09-46.102,107.38-71.493,172.576-71.493c65.186,0,126.473,25.392,172.575,71.493    C461.943,245.471,484.461,286.803,494.342,331.828z" fill="#D9DCE1"/>

            <path d="M399.33,342.302c-4.197,0-7.951-2.622-9.393-6.568c-20.465-56.004-74.294-93.632-133.948-93.632    c-59.184,0-112.864,37.236-133.576,92.657c-1.454,3.891-5.163,6.479-9.317,6.499l-95.389,0.474    c-3.012,0.003-5.918-1.352-7.828-3.715c-1.91-2.363-2.641-5.466-1.989-8.433c10.35-47.063,34.02-90.132,68.453-124.553    c47.979-47.99,111.779-74.421,179.646-74.421c67.855,0,131.654,26.43,179.646,74.422c34.459,34.449,58.138,77.553,68.474,124.653    c0.647,2.95-0.073,6.034-1.96,8.392s-4.738,3.737-7.758,3.752l-95.012,0.474C399.363,342.302,399.347,342.302,399.33,342.302z     M255.99,222.102c33.993,0,66.55,10.383,94.155,30.027c25.059,17.832,44.311,41.978,56.003,70.139l75.433-0.376    c-10.693-38.644-31.307-73.947-60.086-102.717c-44.215-44.215-102.992-68.565-165.504-68.565    c-62.524,0-121.301,24.35-165.504,68.563c-28.723,28.713-49.313,63.937-60.024,102.495l75.792-0.376    c11.812-27.933,31.086-51.858,56.063-69.5C189.817,232.368,222.209,222.102,255.99,222.102z" fill="#000"/>

        </g>

        <g>

            <path d="M238.48,179.67c-2.63,0-5.21-1.07-7.07-2.93c-1.86-1.86-2.93-4.44-2.93-7.07c0-2.64,1.07-5.21,2.93-7.07    c1.86-1.87,4.44-2.93,7.07-2.93c2.63,0,5.21,1.06,7.07,2.93c1.87,1.86,2.93,4.44,2.93,7.07s-1.06,5.21-2.93,7.07    C243.69,178.6,241.12,179.67,238.48,179.67z" fill="#000"/>

        </g>

        <g>

            <path d="M272.979,179.67c-2.63,0-5.21-1.07-7.069-2.93c-1.86-1.86-2.931-4.44-2.931-7.07    c0-2.64,1.07-5.21,2.931-7.08c1.859-1.86,4.439-2.92,7.069-2.92c2.641,0,5.21,1.06,7.07,2.92c1.87,1.87,2.93,4.45,2.93,7.08    s-1.06,5.2-2.93,7.07C278.189,178.6,275.609,179.67,272.979,179.67z" fill="#000"/>

        </g>

        <g>

            <path d="M397.649,259.83c-2.63,0-5.21-1.06-7.069-2.93c-1.86-1.86-2.931-4.43-2.931-7.07    c0-2.63,1.07-5.21,2.931-7.07c1.859-1.86,4.439-2.93,7.069-2.93c2.631,0,5.21,1.07,7.07,2.93s2.93,4.44,2.93,7.07    c0,2.63-1.069,5.21-2.93,7.07C402.859,258.77,400.28,259.83,397.649,259.83z" fill="#000"/>

        </g>

        <g>

            <path d="M426.149,259.83c-2.63,0-5.21-1.06-7.069-2.93c-1.86-1.86-2.931-4.43-2.931-7.07    c0-2.63,1.07-5.21,2.931-7.07c1.859-1.86,4.439-2.93,7.069-2.93c2.631,0,5.21,1.07,7.07,2.93c1.86,1.87,2.93,4.44,2.93,7.07    c0,2.63-1.069,5.21-2.93,7.07C431.359,258.77,428.78,259.83,426.149,259.83z" fill="#000"/>

        </g>

        <g>

            <path d="M79.32,259.83c-2.63,0-5.21-1.06-7.07-2.93c-1.87-1.86-2.93-4.44-2.93-7.07c0-2.63,1.06-5.21,2.93-7.07    c1.86-1.86,4.43-2.93,7.07-2.93c2.63,0,5.21,1.07,7.07,2.93c1.86,1.86,2.93,4.44,2.93,7.07c0,2.64-1.07,5.21-2.93,7.07    C84.53,258.77,81.95,259.83,79.32,259.83z" fill="#000"/>

        </g>

        <g>

            <path d="M107.82,259.83c-2.64,0-5.21-1.07-7.07-2.93c-1.87-1.86-2.93-4.43-2.93-7.07c0-2.63,1.06-5.21,2.93-7.07    c1.86-1.86,4.43-2.93,7.07-2.93c2.63,0,5.21,1.07,7.07,2.93c1.86,1.86,2.93,4.44,2.93,7.07c0,2.64-1.07,5.21-2.93,7.07    C113.03,258.76,110.45,259.83,107.82,259.83z" fill="#000"/>

        </g>

        <g>

            <path d="M413.764,301.182c-13.156,0-23.859-10.702-23.859-23.855c0-5.523,4.478-10,10-10h27.713    c5.522,0,10,4.477,10,10C437.617,290.48,426.917,301.182,413.764,301.182z" fill="#000"/>

        </g>

        <g>

            <path d="M108.618,297.76H79.316c-5.523,0-10-4.477-10-10c0-13.593,11.058-24.651,24.649-24.651    c13.593,0,24.652,11.059,24.652,24.651C118.618,293.283,114.141,297.76,108.618,297.76z" fill="#000"/>

        </g>

        <g>

            <path d="M399.33,342.302c-4.197,0-7.951-2.622-9.393-6.568c-20.465-56.004-74.294-93.632-133.948-93.632    c-59.184,0-112.864,37.236-133.576,92.657c-1.454,3.891-5.163,6.479-9.317,6.499l-95.389,0.474    c-3.012,0.003-5.918-1.352-7.828-3.715c-1.91-2.363-2.641-5.466-1.989-8.433c10.35-47.063,34.02-90.132,68.453-124.553    c47.979-47.99,111.779-74.421,179.646-74.421c67.855,0,131.654,26.43,179.646,74.422c34.459,34.449,58.138,77.553,68.474,124.653    c0.647,2.95-0.073,6.034-1.96,8.392s-4.738,3.737-7.758,3.752l-95.012,0.474C399.363,342.302,399.347,342.302,399.33,342.302z     M255.99,222.102c33.993,0,66.55,10.383,94.155,30.027c25.059,17.832,44.311,41.978,56.003,70.139l75.433-0.376    c-10.693-38.644-31.307-73.947-60.086-102.717c-44.215-44.215-102.992-68.565-165.504-68.565    c-62.524,0-121.301,24.35-165.504,68.563c-28.723,28.713-49.313,63.937-60.024,102.495l75.792-0.376    c11.812-27.933,31.086-51.858,56.063-69.5C189.817,232.368,222.209,222.102,255.99,222.102z" fill="#000"/>

        </g>

        <g>

            <path d="M177.771,254.412c-2.25,0-4.511-0.755-6.378-2.303l-63.044-52.278c-4.251-3.525-4.84-9.83-1.314-14.081    c3.525-4.252,9.83-4.839,14.081-1.314l63.044,52.278c4.251,3.525,4.84,9.83,1.314,14.081    C183.496,253.179,180.644,254.412,177.771,254.412z" fill="#000"/>

        </g>

        <g>

            <path d="M336.742,262.876c-2.56,0-5.118-0.976-7.07-2.928c-3.905-3.905-3.906-10.237-0.001-14.142l57.881-57.89    c3.904-3.906,10.237-3.906,14.142-0.001c3.905,3.905,3.906,10.237,0.001,14.142l-57.881,57.89    C341.861,261.899,339.302,262.876,336.742,262.876z" fill="#000"/>

        </g>

        <g>

            <path d="M277.816,209.376h-43.333c-5.523,0-10-4.477-10-10v-7.05c0-5.523,4.477-10,10-10h43.333    c5.522,0,10,4.477,10,10v7.05C287.816,204.899,283.339,209.376,277.816,209.376z" fill="#000"/>

        </g>

        <g>

            <path d="M256,381.391c-16.291,0-29.545-13.254-29.545-29.545c0-16.291,13.254-29.544,29.545-29.544    c16.291,0,29.544,13.253,29.544,29.544C285.545,368.137,272.291,381.391,256,381.391z M256,342.302    c-5.263,0-9.545,4.281-9.545,9.544c0,5.263,4.282,9.545,9.545,9.545s9.544-4.282,9.544-9.545    C265.545,346.583,261.264,342.302,256,342.302z" fill="#000"/>

        </g>

        <g>

            <path d="M271.672,350.159c-3.667,0-7.197-2.024-8.95-5.526c-2.472-4.939-0.473-10.947,4.466-13.419l65.078-32.577    c4.939-2.47,10.948-0.472,13.419,4.466c2.472,4.939,0.473,10.947-4.466,13.419l-65.078,32.577    C274.704,349.817,273.176,350.159,271.672,350.159z" fill="#000"/>

        </g>

        <g>

            <path d="M238.48,179.67c-2.63,0-5.21-1.07-7.07-2.93c-1.86-1.86-2.93-4.44-2.93-7.07c0-2.64,1.07-5.21,2.93-7.07    c1.86-1.87,4.44-2.93,7.07-2.93c2.63,0,5.21,1.06,7.07,2.93c1.87,1.86,2.93,4.44,2.93,7.07s-1.06,5.21-2.93,7.07    C243.69,178.6,241.12,179.67,238.48,179.67z" fill="#000"/>

        </g>

        <g>

            <path d="M272.979,179.67c-2.63,0-5.21-1.07-7.069-2.93c-1.86-1.86-2.931-4.44-2.931-7.07    c0-2.64,1.07-5.21,2.931-7.08c1.859-1.86,4.439-2.92,7.069-2.92c2.641,0,5.21,1.06,7.07,2.92c1.87,1.87,2.93,4.45,2.93,7.08    s-1.06,5.2-2.93,7.07C278.189,178.6,275.609,179.67,272.979,179.67z" fill="#000"/>

        </g>

        <g>

            <path d="M397.649,259.83c-2.63,0-5.21-1.06-7.069-2.93c-1.86-1.86-2.931-4.43-2.931-7.07    c0-2.63,1.07-5.21,2.931-7.07c1.859-1.86,4.439-2.93,7.069-2.93c2.631,0,5.21,1.07,7.07,2.93s2.93,4.44,2.93,7.07    c0,2.63-1.069,5.21-2.93,7.07C402.859,258.77,400.28,259.83,397.649,259.83z" fill="#000"/>

        </g>

        <g>

            <path d="M426.149,259.83c-2.63,0-5.21-1.06-7.069-2.93c-1.86-1.86-2.931-4.43-2.931-7.07    c0-2.63,1.07-5.21,2.931-7.07c1.859-1.86,4.439-2.93,7.069-2.93c2.631,0,5.21,1.07,7.07,2.93c1.86,1.87,2.93,4.44,2.93,7.07    c0,2.63-1.069,5.21-2.93,7.07C431.359,258.77,428.78,259.83,426.149,259.83z" fill="#000"/>

        </g>

        <g>

            <path d="M79.32,259.83c-2.63,0-5.21-1.06-7.07-2.93c-1.87-1.86-2.93-4.44-2.93-7.07c0-2.63,1.06-5.21,2.93-7.07    c1.86-1.86,4.43-2.93,7.07-2.93c2.63,0,5.21,1.07,7.07,2.93c1.86,1.86,2.93,4.44,2.93,7.07c0,2.64-1.07,5.21-2.93,7.07    C84.53,258.77,81.95,259.83,79.32,259.83z" fill="#000"/>

        </g>

        <g>

            <path d="M107.82,259.83c-2.64,0-5.21-1.07-7.07-2.93c-1.87-1.86-2.93-4.43-2.93-7.07c0-2.63,1.06-5.21,2.93-7.07    c1.86-1.86,4.43-2.93,7.07-2.93c2.63,0,5.21,1.07,7.07,2.93c1.86,1.86,2.93,4.44,2.93,7.07c0,2.64-1.07,5.21-2.93,7.07    C113.03,258.76,110.45,259.83,107.82,259.83z" fill="#000"/>

        </g>

        <g>

            <path d="M413.764,301.182c-13.156,0-23.859-10.702-23.859-23.855c0-5.523,4.478-10,10-10h27.713    c5.522,0,10,4.477,10,10C437.617,290.48,426.917,301.182,413.764,301.182z" fill="#000"/>

        </g>

        <g>

            <path d="M108.618,297.76H79.316c-5.523,0-10-4.477-10-10c0-13.593,11.058-24.651,24.649-24.651    c13.593,0,24.652,11.059,24.652,24.651C118.618,293.283,114.141,297.76,108.618,297.76z" fill="#000"/>

        </g>

        <g>

            <path d="M177.771,254.412c-2.25,0-4.511-0.755-6.378-2.303l-63.044-52.278c-4.251-3.525-4.84-9.83-1.314-14.081    c3.525-4.252,9.83-4.839,14.081-1.314l63.044,52.278c4.251,3.525,4.84,9.83,1.314,14.081    C183.496,253.179,180.644,254.412,177.771,254.412z" fill="#000"/>

        </g>

        <g>

            <path d="M336.742,262.876c-2.56,0-5.118-0.976-7.07-2.928c-3.905-3.905-3.906-10.237-0.001-14.142l57.881-57.89    c3.904-3.906,10.237-3.906,14.142-0.001c3.905,3.905,3.906,10.237,0.001,14.142l-57.881,57.89    C341.861,261.899,339.302,262.876,336.742,262.876z" fill="#000"/>

        </g>

        <g>

            <path d="M277.816,209.376h-43.333c-5.523,0-10-4.477-10-10v-7.05c0-5.523,4.477-10,10-10h43.333    c5.522,0,10,4.477,10,10v7.05C287.816,204.899,283.339,209.376,277.816,209.376z" fill="#000"/>

        </g>

        <g>

            <path d="M256,381.391c-16.291,0-29.545-13.254-29.545-29.545c0-16.291,13.254-29.544,29.545-29.544    c16.291,0,29.544,13.253,29.544,29.544C285.545,368.137,272.291,381.391,256,381.391z M256,342.302    c-5.263,0-9.545,4.281-9.545,9.544c0,5.263,4.282,9.545,9.545,9.545s9.544-4.282,9.544-9.545    C265.545,346.583,261.264,342.302,256,342.302z" fill="#000"/>

        </g>

        <g>

            <path d="M271.672,350.159c-3.667,0-7.197-2.024-8.95-5.526c-2.472-4.939-0.473-10.947,4.466-13.419l65.078-32.577    c4.939-2.47,10.948-0.472,13.419,4.466c2.472,4.939,0.473,10.947-4.466,13.419l-65.078,32.577    C274.704,349.817,273.176,350.159,271.672,350.159z" fill="#000"/>

        </g>

    </g>

</svg>