<?xml version="1.0" encoding="iso-8859-1"?>
<!-- Uploaded to: SVG Repo, www.svgrepo.com, Generator: SVG Repo Mixer Tools -->
<svg height="800px" width="800px" version="1.1" id="Layer_1" xmlns="http://www.w3.org/2000/svg" xmlns:xlink="http://www.w3.org/1999/xlink" 
	 viewBox="0 0 512.003 512.003" xml:space="preserve">
<circle style="fill:#FC4C59;" cx="256.001" cy="256.001" r="256.001"/>
<path style="fill:#BC3B4A;" d="M310.859,474.208c-141.385,0-256-114.615-256-256c0-75.537,32.722-143.422,84.757-190.281
	C56.738,70.303,0,156.525,0,256c0,141.385,114.615,256,256,256c65.849,0,125.883-24.87,171.243-65.718
	C392.325,464.135,352.77,474.208,310.859,474.208z"/>
<path style="fill:#7C152E;" d="M407.48,412.22c-3.656,0.001-7.203-1.927-9.108-5.349c-12.728-22.847-36.862-37.041-62.983-37.041
	c-25.446,0-49.83,14.304-63.634,37.328c-2.959,4.932-9.358,6.531-14.287,3.577c-4.934-2.958-6.535-9.354-3.577-14.287
	c17.548-29.266,48.776-47.447,81.498-47.447c33.672,0,64.778,18.291,81.179,47.734c2.799,5.024,0.996,11.367-4.03,14.165
	C410.934,411.795,409.194,412.22,407.48,412.22z"/>
<g>
	<circle style="fill:none;" cx="255.46" cy="250.35" r="28.406"/>
	<circle style="fill:none;" cx="407.469" cy="242.671" r="28.406"/>
</g>
<g>
	<path style="fill:#7C152E;" d="M255.963,289.19c-4.734,0-9.48-0.847-14.05-2.549c-10.062-3.748-18.061-11.189-22.526-20.953
		c-4.503-9.848-4.587-21.634-0.23-32.339c2.369-5.82,5.943-10.998,10.391-15.201c-1.863-0.957-3.755-1.933-5.671-2.927
		c-7.112-3.692-12.829-7.068-18.357-10.331c-6.536-3.858-13.296-7.847-22.901-12.713c-5.131-2.598-7.185-8.865-4.585-13.996
		c2.599-5.132,8.865-7.186,13.997-4.585c10.203,5.167,17.256,9.331,24.077,13.357c5.532,3.266,10.759,6.35,17.369,9.783
		c4.445,2.308,8.754,4.509,12.897,6.625c17.723,9.054,33.029,16.873,43.217,25.139c1.246,1.012,2.241,2.297,2.909,3.756
		c4.466,9.765,4.86,20.685,1.114,30.746c-3.748,10.06-11.191,18.061-20.954,22.526C267.328,287.967,261.654,289.19,255.963,289.19z
		 M250.593,228.965c-5.504,2.17-9.813,6.51-12.143,12.236c-2.201,5.41-2.245,11.178-0.119,15.824
		c2.151,4.705,6.006,8.29,10.853,10.096c4.843,1.802,10.105,1.615,14.812-0.536c4.706-2.152,8.291-6.007,10.096-10.855
		c1.534-4.121,1.627-8.54,0.299-12.664C268.425,238.638,260.18,233.996,250.593,228.965z"/>
	<path style="fill:#7C152E;" d="M408.833,282.103c-5.692,0-11.366-1.225-16.695-3.663c-9.763-4.464-17.206-12.465-20.954-22.526
		c-3.746-10.062-3.352-20.98,1.114-30.746c0.733-1.604,1.864-2.997,3.283-4.045c10.946-8.086,25.403-16.492,42.966-24.984
		c26.358-12.745,28.111-13.772,49.545-26.346l3.256-1.909c4.961-2.91,11.342-1.246,14.253,3.716
		c2.91,4.961,1.246,11.343-3.716,14.253l-3.253,1.908c-19.008,11.15-23.069,13.532-42.145,22.827
		c3.801,3.621,6.867,7.95,9.044,12.847c4.927,11.08,4.881,24.225-0.121,35.163c-4.464,9.763-12.465,17.206-22.526,20.954
		C418.313,281.256,413.567,282.103,408.833,282.103z M390.352,236.146c-1.273,4.077-1.164,8.432,0.351,12.497
		c1.807,4.848,5.392,8.704,10.096,10.855c4.705,2.15,9.967,2.338,14.812,0.536c4.848-1.807,8.704-5.392,10.855-10.096
		c2.518-5.506,2.529-12.418,0.029-18.041c-1.55-3.485-4.773-8.026-11.411-10.673C405.457,226.329,397.178,231.322,390.352,236.146z"
		/>
</g>
<ellipse transform="matrix(0.2723 -0.9622 0.9622 0.2723 143.727 351.8643)" style="fill:#F76B6B;" cx="304.493" cy="80.909" rx="29.854" ry="53.46"/>
</svg>