<?xml version="1.0" encoding="utf-8"?>

<!DOCTYPE svg PUBLIC "-//W3C//DTD SVG 1.1//EN" "http://www.w3.org/Graphics/SVG/1.1/DTD/svg11.dtd">
<!-- Uploaded to: SVG Repo, www.svgrepo.com, Generator: SVG Repo Mixer Tools -->
<svg height="800px" width="800px" version="1.1" id="_x32_" xmlns="http://www.w3.org/2000/svg" xmlns:xlink="http://www.w3.org/1999/xlink" 
	 viewBox="0 0 512 512"  xml:space="preserve">
<style type="text/css">
	.st0{fill:#fff;}
</style>
<g>
	<path class="st0" d="M408.776,93.734c-5.712,0-11.462,2.428-11.462,2.428c-11.768,6.67-34.605,20.825-47.229,18.72
		c-16.434-2.734-54.276-3.04-86.138,3.905c-2.039-1.352-4.085-2.742-6.104-3.984c-6.16-3.77-12.2-6.96-18.198-9.364
		c-5.814-2.318-11.607-3.912-17.664-4.226v-0.032c-9.113-0.754-17.947-1.068-26.046-1.068c-12.263,0.023-22.716,0.714-30.481,1.98
		v-0.008l-0.126,0.008c-0.609,0.055-3.649-0.456-7.247-1.775c-5.491-1.933-12.506-5.311-18.98-8.752
		c-6.52-3.457-12.49-6.897-16.803-9.223c-2.109-1.139-4.447-1.665-6.843-1.524c-36.128,1.948-65.011,16.042-84.693,34.793
		C11.12,134.427,0.13,157.618,0,179.488c0,6.67,1.08,13.229,3.469,19.388c2.224,5.743,5.676,11.077,10.208,15.539
		c0.813,1.037,1.556,1.854,2.353,2.686c1.925,1.956,4.218,4.038,6.921,6.505c8.02,7.267,19.541,17.676,27.023,27.072
		c7.424,9.277,12.208,17.738,16.176,25.279c1.988,3.755,3.759,7.306,5.641,10.692c0.785,1.407,1.614,2.774,2.482,4.14l-1.327,1.32
		c-4.709,4.603-7.341,10.762-7.416,17.353c-0.067,6.576,2.424,12.813,7.035,17.526c4.682,4.776,10.943,7.416,17.632,7.416
		c4.69,0,9.172-1.352,13.076-3.818c-2.612,3.927-4.062,8.516-4.116,13.339c-0.071,6.567,2.432,12.797,7.035,17.502
		c4.674,4.793,10.943,7.416,17.632,7.416c5.263,0,10.244-1.712,14.443-4.776c-7.644,9.592-7.223,23.575,1.56,32.57
		c4.678,4.777,10.932,7.4,17.616,7.4h0.008c6.484,0,12.617-2.498,17.282-7.07l4.56-4.525c-1.909,3.504-3.048,7.385-3.095,11.47
		c-0.067,6.591,2.423,12.813,7.035,17.518c4.678,4.777,10.939,7.416,17.632,7.416c6.48,0,12.608-2.498,17.314-7.094l2.868-2.907
		c1.409,1.155,2.702,2.208,3.751,3.041l2.058,1.563c0.688,0.48,1.088,0.825,2.384,1.579c5.216,2.86,10.205,4.101,14.172,4.965
		c1.98,0.416,3.673,0.699,4.93,0.872l1.532,0.196l0.474,0.048l0.185,0.015l0.113,0.023l0.122,0.008l0.165,0.008
		c0.149,0,0.079,0.024,0.868,0.04l0.935-0.04c8.689-0.636,16.913-3.621,23.666-8.782c2.687-2.059,5.04-4.548,7.145-7.267
		c4.156,1.351,8.562,2.153,13.147,2.153c18.807-0.016,34.624-12.114,40.524-28.91c2.922,0.628,5.907,1.045,9.002,1.045
		c18.477-0.023,34.11-11.682,40.253-28.006l1.532,0.141c23.835,0,43.121-19.301,43.129-43.12c0.016-6.607-0.903-13.929-3.425-21.533
		c16.364-14.455,40.324-36.773,44.652-48.894c2.097-5.829,7.117-18.98,10.527-23.749c5.153-5.632,18.649-18.327,18.649-18.327
		C531.734,177.87,495.284,98.495,408.776,93.734z M388.005,335.661c-2.349,0-4.556-0.471-6.614-1.319
		c-0.636-0.283-1.312-0.394-1.972-0.566l-18.344-21.822c-4.045-4.683-11.132-5.209-15.813-1.155
		c-4.698,4.053-5.217,11.132-1.17,15.83l19.066,22.656c-1.438,8.068-8.445,14.226-16.937,14.234
		c-4.352-0.008-8.217-1.571-11.312-4.266c-0.59-0.518-1.297-0.824-1.96-1.233l-16.752-19.969
		c-4.045-4.698-11.132-5.216-15.818-1.162c-4.69,4.061-5.208,11.124-1.159,15.829l14.404,17.275
		c0.038,0.424-0.044,0.849,0.027,1.272c0.192,1.045,0.282,1.996,0.282,2.867c-0.015,9.529-7.726,17.228-17.239,17.244
		c-2.985,0-5.72-0.754-8.155-2.066l-21.148-21.824c-4.513-4.25-11.615-4.03-15.857,0.464c-4.246,4.525-4.03,11.618,0.475,15.869
		l12.29,13.473c-0.876,1.704-1.988,3.252-3.637,4.532c-2.282,1.76-5.421,2.954-8.991,3.363c-1.045-0.157-2.459-0.393-4.148-0.801
		c-2.058-0.456-4.207-1.226-5.374-1.823c-0.318-0.236-1.131-0.864-2.305-1.799c-0.943-0.747-2.122-1.721-3.402-2.758
		c1.831-7.934-0.232-16.607-6.336-22.829c-4.674-4.792-10.943-7.415-17.632-7.415c-3.338,0-6.568,0.668-9.568,1.948l-0.456-0.384
		c4.254-4.533,6.69-10.346,6.76-16.6c0.067-6.591-2.432-12.813-7.043-17.518c-4.675-4.769-10.944-7.416-17.628-7.416
		c-5.232,0-10.189,1.696-14.369,4.729c3.382-4.274,5.346-9.442,5.405-14.973c0.075-6.584-2.427-12.805-7.03-17.511
		c-4.679-4.792-10.944-7.423-17.636-7.423c-6.482,0-12.609,2.498-17.271,7.07l-4.16,4.131c5.13-9.293,3.944-21.194-3.845-29.152
		c-4.682-4.784-10.947-7.416-17.64-7.416c-5.334,0-10.369,1.768-14.612,4.918c-4.485-8.382-10.884-22.303-23.198-37.661
		c-7.258-9.057-16.116-17.487-23.485-24.275c-3.676-3.385-6.983-6.339-9.407-8.586c-1.206-1.124-2.192-2.074-2.816-2.687
		l-0.597-0.644l-0.008-0.008l-0.028,0.024l-1.626-1.902c-2.022-1.885-3.528-4.124-4.615-6.912
		c-1.084-2.789-1.716-6.152-1.716-10.024c-0.122-12.727,7.337-30.606,22.719-45.116c14.742-13.992,36.38-25.036,64.826-27.362
		c5.272,2.922,12.817,7.212,20.822,11.147c4.969,2.443,10.095,4.754,15.194,6.56c5.145,1.775,10.106,3.205,15.884,3.268
		c1.426,0,2.765-0.118,3.995-0.298l0.192-0.032c5.479-0.935,15.177-1.665,26.419-1.65c7.435-0.015,15.59,0.283,23.912,0.974
		l0.594,0.031c2.043,0.056,5.456,0.786,9.6,2.459l0.939,0.432c-34.919,15.774-84.41,46.105-100.672,51.534
		c-18.571,6.191-20.127,30.968,21.658,35.602c41.797,4.651,78.942-21.682,88.224-26.301c6.666-3.338,49.004,0.738,72.458,3.3
		c10.342,10.212,19.408,19.686,26.014,26.85l51.511,62.973l0.228,0.259c6.607,7.644,10.189,13.85,12.208,19.168
		c2.011,5.318,2.624,9.907,2.64,15.131C405.233,327.939,397.534,335.646,388.005,335.661z"/>
</g>
</svg>