<?xml version="1.0" encoding="iso-8859-1"?>
<!-- Uploaded to: SVG Repo, www.svgrepo.com, Generator: SVG Repo Mixer Tools -->
<svg height="800px" width="800px" version="1.1" id="Layer_1" xmlns="http://www.w3.org/2000/svg" xmlns:xlink="http://www.w3.org/1999/xlink" 
	 viewBox="0 0 460.805 460.805" xml:space="preserve">
<g transform="translate(0 -952.36)">
	<path style="fill:#27BEC4;" d="M460.805,1182.763c0,127.248-103.155,230.403-230.403,230.403l0,0
		C103.155,1413.165,0,1310.01,0,1182.763S103.155,952.36,230.403,952.36S460.805,1055.515,460.805,1182.763
		C460.805,1182.763,460.805,1182.763,460.805,1182.763z"/>
	<path shape-rendering="auto" image-rendering="auto" color-rendering="auto" color-interpolation="sRGB" style="fill:#FFFFFF;" d="
		M174.33,1029.407c-7.287,0-13.919,2.007-18.9,5.46c-4.981,3.453-8.39,8.552-8.39,14.38v267.01c0,5.828,3.409,10.927,8.39,14.38
		c4.981,3.453,11.613,5.46,18.9,5.46h112.2c7.287,0,13.919-2.007,18.9-5.46c4.981-3.453,8.39-8.552,8.39-14.38v-267.01
		c0-5.828-3.409-10.927-8.39-14.38c-4.981-3.453-11.613-5.46-18.9-5.46H174.33z"/>
	<g>
		<path style="fill:#FF642F;" d="M238.96,1314.184c0,4.711-3.819,8.529-8.53,8.529s-8.53-3.819-8.53-8.529
			c0-4.711,3.819-8.53,8.53-8.53c0,0,0,0,0,0C235.141,1305.654,238.96,1309.473,238.96,1314.184L238.96,1314.184z"/>
		<path style="fill:#FF642F;" d="M203.099,1059.434c0,3.389-2.747,6.136-6.136,6.136c0,0,0,0,0,0c-3.389,0-6.136-2.747-6.136-6.136
			l0,0c0-3.389,2.747-6.136,6.136-6.136c0,0,0,0,0,0C200.351,1053.298,203.099,1056.045,203.099,1059.434L203.099,1059.434z"/>
		<path style="fill:#FF642F;" d="M214.782,1056.311h31.295c1.87,0,3.375,1.505,3.375,3.375c0,1.87-1.505,3.375-3.375,3.375h-31.295
			c-1.87,0-3.375-1.505-3.375-3.375C211.407,1057.816,212.913,1056.311,214.782,1056.311z"/>
	</g>
	<path style="fill:#F2EBD9;" d="M162.479,1079.281H298.38v216.438H162.479V1079.281z"/>
</g>
</svg>