<?xml version="1.0" encoding="utf-8"?><!-- Uploaded to: SVG Repo, www.svgrepo.com, Generator: SVG Repo Mixer Tools -->
<svg width="800px" height="800px" viewBox="0 0 24 24" fill="none" xmlns="http://www.w3.org/2000/svg">
<path d="M15.1299 3V5M15.1299 5V9.98468M15.1299 5L14.1299 4M15.1299 5L16.1299 4M15.1299 9.98468V10.0153M15.1299 9.98468L13.5 9.04366M15.1299 9.98468L15.1564 10M15.1299 10.0153V15M15.1299 10.0153L15.1564 10M15.1299 10.0153L13.5 10.9562M15.1299 15V17M15.1299 15L14.1299 16M15.1299 15L16.1299 16M15.1564 10L19.3998 12.4499M15.1564 10L19.3997 7.55001M19.3998 12.4499L21.2186 13.5M19.3998 12.4499L19.9121 14.3624M19.3998 12.4499L21.3119 11.9376M21.2183 6.5L19.3997 7.55001M19.3997 7.55001L19.9121 5.63757M19.3997 7.55001L21.3123 8.06241M7 15.9998C6.44772 15.9998 6 16.4475 6 16.9998C6 17.5521 6.44772 17.9998 7 17.9998C7.55228 17.9998 8 17.5521 8 16.9998C8 16.4475 7.55228 15.9998 7 15.9998ZM7 15.9998L7.00707 14M7 16.9998L7.00707 17.0069M11 16.9998C11 19.209 9.20914 20.9998 7 20.9998C4.79086 20.9998 3 19.209 3 16.9998C3 15.9854 3.37764 15.0591 4 14.354L4 6C4 4.34315 5.34315 3 7 3C8.65685 3 10 4.34315 10 6V14.354C10.6224 15.0591 11 15.9854 11 16.9998Z" stroke="#fff" stroke-width="2" stroke-linecap="round" stroke-linejoin="round"/>
</svg>