<svg xmlns="http://www.w3.org/2000/svg" viewBox="0 0 103 160"><path fill="#fff" d="M0 0h103v160H0z"/><path d="m15.604 4.627 10.673 22.887h-2.47l-3.6-7.53h-9.86l-3.565 7.53H4.231L15.044 4.627zm-.289 4.863-3.922 8.285h7.825zM9.14 38.345a6.88 6.88 0 0 1 5.797 3.992 6.88 6.88 0 0 1-5.796 3.99 3.997 3.997 0 1 1 0-7.982zm12.227 0a6.88 6.88 0 0 0-5.796 3.992 6.88 6.88 0 0 0 5.796 3.99 3.997 3.997 0 1 0 0-7.982zm-9.995 12.414h7.763l-3.881-4.043-3.882 4.043zm-.109-16.085a6.88 6.88 0 0 0 3.99 5.796 6.88 6.88 0 0 0 3.992-5.796 4.089 4.089 0 0 0-3.991-4.208 4.089 4.089 0 0 0-3.991 4.208zm76.133 120.699-10.673-22.887h2.47l3.6 7.53h9.86l3.565-7.53h2.552l-10.814 22.887zm.289-4.863 3.922-8.284h-7.825zm6.175-28.855a6.88 6.88 0 0 1-5.797-3.992 6.88 6.88 0 0 1 5.796-3.99 3.997 3.997 0 1 1 0 7.982zm-12.227 0a6.88 6.88 0 0 0 5.796-3.992 6.88 6.88 0 0 0-5.796-3.99 3.997 3.997 0 1 0 0 7.982zm9.995-12.414h-7.763l3.881 4.043 3.882-4.043zm.109 16.085a6.88 6.88 0 0 0-3.99-5.796 6.88 6.88 0 0 0-3.992 5.796 3.997 3.997 0 1 0 7.982 0zM39.62 75.594a13.37 13.37 0 0 1 11.264 7.756 13.37 13.37 0 0 1-11.264 7.756 7.767 7.767 0 1 1 0-15.512zm23.76 0a13.37 13.37 0 0 0-11.264 7.756 13.37 13.37 0 0 0 11.264 7.756 7.767 7.767 0 1 0 0-15.512zm-19.636-7.136A13.37 13.37 0 0 0 51.5 79.722a13.369 13.369 0 0 0 7.756-11.264 7.767 7.767 0 1 0-15.512 0zm.529 31.26h14.454L51.5 92.19l-7.227 7.528z"/></svg>