<svg xmlns="http://www.w3.org/2000/svg" viewBox="0 0 103 160"><defs><style>.cls-1{fill:#fff}.cls-2{fill:#d1780f}.cls-3{fill:#ffc614}.cls-4{fill:#663f2e}.cls-5{fill:#f9c19b}.cls-6{fill:#cd222b}.cls-7{fill:#1e4262}.cls-8{fill:#383838}.cls-9{fill:#53aa1b}.cls-10{fill:#3f8214}</style></defs><g id="Layer_2" data-name="Layer 2"><g id="CLUBS"><path class="cls-1" d="M0 0h103v160H0z"/><path d="m22.594 23.757 3.075 3.887h-2.551l-2.112-2.68a10.672 10.672 0 0 1-5.722 1.567 10.584 10.584 0 0 1-7.77-3.157 10.388 10.388 0 0 1-3.168-7.638 11.048 11.048 0 0 1 1.451-5.546 10.463 10.463 0 0 1 3.951-3.995 10.806 10.806 0 0 1 5.485-1.438A10.583 10.583 0 0 1 23 7.907a10.51 10.51 0 0 1 3.162 7.744 10.846 10.846 0 0 1-.867 4.383 11.494 11.494 0 0 1-2.701 3.723zm-1.283-1.62a8.72 8.72 0 0 0 2.709-6.505 8.792 8.792 0 0 0-1.149-4.465 8.57 8.57 0 0 0-3.234-3.194 8.658 8.658 0 0 0-8.78-.01 8.568 8.568 0 0 0-3.213 3.23 9.036 9.036 0 0 0-1.156 4.536 8.475 8.475 0 0 0 2.55 6.24 8.396 8.396 0 0 0 6.16 2.547 8.748 8.748 0 0 0 4.512-1.2l-4.618-5.86h2.515zM9.14 38.345a6.88 6.88 0 0 1 5.797 3.992 6.88 6.88 0 0 1-5.796 3.99 3.997 3.997 0 1 1 0-7.982zm12.227 0a6.88 6.88 0 0 0-5.796 3.992 6.88 6.88 0 0 0 5.796 3.99 3.997 3.997 0 1 0 0-7.982zm-9.995 12.414h7.763l-3.881-4.043-3.882 4.043zm-.109-16.085a6.88 6.88 0 0 0 3.99 5.796 6.88 6.88 0 0 0 3.992-5.796 4.089 4.089 0 0 0-3.991-4.208 4.089 4.089 0 0 0-3.991 4.208zm69.143 101.569-3.075-3.887h2.551l2.112 2.68a11.177 11.177 0 0 1 13.492 1.59 10.388 10.388 0 0 1 3.168 7.638 11.048 11.048 0 0 1-1.451 5.546 10.463 10.463 0 0 1-3.951 3.995 10.806 10.806 0 0 1-5.485 1.438 10.777 10.777 0 0 1-10.929-10.894 10.846 10.846 0 0 1 .867-4.383 11.494 11.494 0 0 1 2.701-3.723zm1.283 1.62a9.198 9.198 0 0 0-1.56 10.97 8.57 8.57 0 0 0 3.234 3.194 8.658 8.658 0 0 0 8.78.01 8.568 8.568 0 0 0 3.213-3.23 9.036 9.036 0 0 0 1.156-4.536 8.702 8.702 0 0 0-8.71-8.787 8.748 8.748 0 0 0-4.512 1.2l4.618 5.86h-2.515zm12.171-16.208a6.88 6.88 0 0 1-5.797-3.992 6.88 6.88 0 0 1 5.796-3.99 3.997 3.997 0 1 1 0 7.982zm-12.227 0a6.88 6.88 0 0 0 5.796-3.992 6.88 6.88 0 0 0-5.796-3.99 3.997 3.997 0 1 0 0 7.982zm9.995-12.414h-7.763l3.881 4.043 3.882-4.043zm.109 16.085a6.88 6.88 0 0 0-3.99-5.796 6.88 6.88 0 0 0-3.992 5.796 3.997 3.997 0 1 0 7.982 0zM77.38 77.322a.148.148 0 0 0-.15-.15l-6.383.015a10.806 10.806 0 0 0 .387-1.697 10.442 10.442 0 0 0-2.229-8.314 9.233 9.233 0 0 0-2.267-1.758 26.01 26.01 0 0 0-2.568-1.25l-.13-.056c-.753-.33-1.624-.718-2.413-1.156l-.41-.225c-.353-.195-.696-.385-1.028-.554a4.548 4.548 0 0 0-.142-.077c-.017-.011-.034-.02-.051-.032a19.065 19.065 0 0 1 1.78-1.172c.12-.069.25-.136.374-.204q.5-.276 1.034-.536.428-.209.88-.408.499-.221 1.022-.43c.165-.065.326-.133.495-.197a24.662 24.662 0 0 1 3.288-1.015.168.168 0 0 0 .11-.12.158.158 0 0 0-.06-.15 24.604 24.604 0 0 0-8.468-4.305c-.45-.132-.871-.23-1.273-.315-.14-.031-.284-.066-.416-.095a4.606 4.606 0 0 0 2.841-3.383c.008-.026.011-.08-.055-.233l-.001-.005.13.019a3.022 3.022 0 0 0 .415.037 4.78 4.78 0 0 0 2.137-.49 3.765 3.765 0 0 0 1.95-2.344 5.886 5.886 0 0 0-.04-3.247 2.858 2.858 0 0 0 .613-1.64 8.452 8.452 0 0 0-1.203-4.337 3.718 3.718 0 0 0 .517-1.187c.433-1.806.252-5.205-5.822-7.668a12.11 12.11 0 0 0-.915-.342l-.056-.022.77-2.03a.144.144 0 0 0-.03-.15c-.02-.032-.063-.05-.14-.05l-1.55.381-.724-1.982a.167.167 0 0 0-.104-.09l-.125.02-1.25.969-.015.01-.864-1.671a.135.135 0 0 0-.094-.08l-.106.01-1.726 1-.798-1.588a.137.137 0 0 0-.105-.08l-.106.02-1.455 1.073-.026.02-.865-1.062c-.022-.033-.065-.05-.15-.05a.167.167 0 0 0-.111.11l-1.042 4.756a3.652 3.652 0 0 0-.753-.066 5.1 5.1 0 0 0-4.029 1.995 2.774 2.774 0 0 0-.241.308l-.094-.056-.105.029a8.131 8.131 0 0 0-1.195 1.233 4.99 4.99 0 0 0-.996 3.42 8.048 8.048 0 0 0-1.974 5.23c.003.056.02.098.024.152a3.588 3.588 0 0 0 .087.54c.019.076.04.149.065.22a1.993 1.993 0 0 0 .233.493c.011.015.015.038.026.053l-.053.066-.016.016-.002.007-.016.02a7.332 7.332 0 0 0 5.564 8.736 5.76 5.76 0 0 0 .761.875 3.34 3.34 0 0 0 1.29.678 2.694 2.694 0 0 0 .07.46v.001a25.48 25.48 0 0 0-.996-.019c-1.445 0-6.392.157-9.436 2.175 0 0-.158-.207-.205-.283a25.072 25.072 0 0 0-1.763-2.344 6.753 6.753 0 0 0-.155-.178 2.605 2.605 0 0 0 2.595-2.602 2.547 2.547 0 0 0-1.766-2.384l-.02-.008a2.597 2.597 0 0 0-2.367-3.678 2.384 2.384 0 0 0-1.99 1.019 1.301 1.301 0 0 0-.116.188c-.01.015-.022.029-.03.045a2.606 2.606 0 0 0-4.713 1.53 2.405 2.405 0 0 0 .726 1.726 1.011 1.011 0 0 1 .08.074.265.265 0 0 0 .06.044l.02.019a2.567 2.567 0 0 0-1.487 2.318 2.605 2.605 0 0 0 2.602 2.602 1.593 1.593 0 0 0 .82-.195c.014-.008.032-.01.046-.018a2.556 2.556 0 0 0 2.47 1.979 2.453 2.453 0 0 0 2.15-1.226l.056-.104a.659.659 0 0 0 .057-.134l.015-.03.164.182c.151.171.357.405.586.633a3.695 3.695 0 0 1 .518.742c.048.082.09.155.129.216l.008-.006.014.034.02.06a1.514 1.514 0 0 0-.279-.018 2.682 2.682 0 0 0-1.546.5 8.933 8.933 0 0 0-.94.798c-.085.078-.173.157-.261.235-.1.09-.202.176-.307.262-.088.074-.176.15-.267.217a3.48 3.48 0 0 1-.78.432l-.016.006a2.33 2.33 0 0 1-.36.104c-.015.003-.032.003-.048.006a1.886 1.886 0 0 1-.323.033 1.374 1.374 0 0 1-.137-.014 2.143 2.143 0 0 1-.294-.049l-.133-.03a.161.161 0 0 0-.101.032l-.035.097-.004.01v.004l-.01.027c.21 1.287 1.678 1.82 2.3 1.99a6.6 6.6 0 0 0 1.655.234 4.784 4.784 0 0 0 1.055-.113 3.434 3.434 0 0 0 2.205-1.574 3.023 3.023 0 0 0 .301-.79.322.322 0 0 0 .023-.227c-.003-.01.001-.02-.003-.03v-.008l.37.24.026.017a5.73 5.73 0 0 0-1.045 2.682 4.528 4.528 0 0 0 .15 1.761 6.601 6.601 0 0 0 .571 1.422c.044.085.076.174.125.257a.08.08 0 0 1 .013.02c-.707.207-6.77 2.347-5.709 14.037H25.77a.148.148 0 0 0-.15.15v5.356a.148.148 0 0 0 .15.15l6.383-.015a10.806 10.806 0 0 0-.387 1.697 10.442 10.442 0 0 0 2.229 8.314 9.233 9.233 0 0 0 2.267 1.758 26.01 26.01 0 0 0 2.568 1.25l.13.056c.753.33 1.624.718 2.413 1.156l.41.225c.352.195.696.385 1.028.554.048.028.095.053.142.077.017.011.034.02.051.032a19.065 19.065 0 0 1-1.78 1.172c-.12.069-.25.136-.374.204q-.5.276-1.034.536-.428.209-.88.408-.499.221-1.022.43c-.165.065-.326.133-.495.197a24.662 24.662 0 0 1-3.288 1.015.168.168 0 0 0-.11.12.158.158 0 0 0 .06.15 24.604 24.604 0 0 0 8.468 4.305c.45.132.871.23 1.273.315.14.031.284.066.416.095a4.606 4.606 0 0 0-2.841 3.383c-.008.026-.011.08.055.233l.001.005-.13-.019a3.022 3.022 0 0 0-.415-.037 4.78 4.78 0 0 0-2.137.49 3.765 3.765 0 0 0-1.95 2.344 5.886 5.886 0 0 0 .04 3.247 2.858 2.858 0 0 0-.613 1.64 8.452 8.452 0 0 0 1.203 4.337 3.718 3.718 0 0 0-.517 1.187c-.433 1.806-.252 5.205 5.822 7.668.292.125.602.238.915.342l.056.022-.77 2.03a.144.144 0 0 0 .03.15c.02.032.063.05.14.05l1.55-.381.724 1.982a.167.167 0 0 0 .104.09l.125-.02 1.25-.969.015-.01.864 1.671a.135.135 0 0 0 .094.08l.106-.01 1.726-1 .798 1.588a.137.137 0 0 0 .105.08l.107-.02 1.454-1.073.027-.02.864 1.062c.022.033.065.05.15.05a.167.167 0 0 0 .111-.11l1.042-4.756a3.652 3.652 0 0 0 .753.066 5.1 5.1 0 0 0 4.029-1.995 2.774 2.774 0 0 0 .241-.308l.094.056.105-.028a8.131 8.131 0 0 0 1.195-1.234 4.99 4.99 0 0 0 .996-3.42 8.048 8.048 0 0 0 1.974-5.23c-.003-.056-.02-.098-.024-.152a3.588 3.588 0 0 0-.087-.54 2.694 2.694 0 0 0-.065-.22 1.993 1.993 0 0 0-.233-.493c-.011-.015-.015-.038-.026-.053l.053-.066.016-.016.002-.007.016-.02a7.332 7.332 0 0 0-5.564-8.736 5.76 5.76 0 0 0-.761-.875 3.34 3.34 0 0 0-1.29-.678 2.694 2.694 0 0 0-.07-.46v-.001c.254.01.602.019.996.019 1.445 0 6.392-.157 9.436-2.175 0 0 .158.207.205.283a25.072 25.072 0 0 0 1.763 2.344c.064.076.119.139.155.178a2.605 2.605 0 0 0-2.595 2.602 2.547 2.547 0 0 0 1.766 2.384l.02.008a2.597 2.597 0 0 0 2.367 3.678 2.384 2.384 0 0 0 1.99-1.019 1.301 1.301 0 0 0 .116-.188c.01-.015.022-.029.03-.045a2.606 2.606 0 0 0 4.713-1.53 2.405 2.405 0 0 0-.726-1.726 1.011 1.011 0 0 1-.08-.074.265.265 0 0 0-.06-.044l-.02-.019a2.567 2.567 0 0 0 1.487-2.318 2.605 2.605 0 0 0-2.602-2.602 1.593 1.593 0 0 0-.82.195c-.014.008-.032.01-.046.018a2.556 2.556 0 0 0-2.47-1.979 2.453 2.453 0 0 0-2.15 1.226l-.056.104a.659.659 0 0 0-.057.134c-.004.01-.011.02-.016.03l-.163-.182a13.737 13.737 0 0 0-.586-.633 3.695 3.695 0 0 1-.518-.742c-.048-.082-.09-.155-.129-.216l-.008.006-.014-.034-.02-.06a1.514 1.514 0 0 0 .279.018 2.682 2.682 0 0 0 1.546-.5 8.933 8.933 0 0 0 .94-.798c.085-.078.173-.157.261-.235.1-.09.202-.176.307-.262.088-.074.176-.15.267-.217a3.48 3.48 0 0 1 .78-.432l.016-.006a2.33 2.33 0 0 1 .36-.104c.015-.003.032-.003.048-.006a1.886 1.886 0 0 1 .323-.033 1.374 1.374 0 0 1 .137.014 2.143 2.143 0 0 1 .294.049l.133.03a.161.161 0 0 0 .101-.032l.035-.097.004-.01v-.004l.01-.027c-.21-1.287-1.678-1.82-2.3-1.99a6.6 6.6 0 0 0-1.655-.234 4.784 4.784 0 0 0-1.055.113 3.434 3.434 0 0 0-2.205 1.574 3.023 3.023 0 0 0-.301.79.322.322 0 0 0-.023.227c.003.01-.001.02.003.03v.008l-.37-.24-.026-.017a5.73 5.73 0 0 0 1.045-2.682 4.528 4.528 0 0 0-.15-1.761 6.601 6.601 0 0 0-.571-1.422c-.044-.085-.076-.174-.125-.257a.08.08 0 0 1-.013-.02c.707-.207 6.77-2.347 5.709-14.037h5.821a.148.148 0 0 0 .15-.15v-.075zM66.036 105.39l-.002-.004.003.004zm-8.056 4.747c.01.013.017.026.024.038-.008-.013-.014-.025-.024-.038zM36.965 54.61l.002.003-.003-.003zm8.056-4.747c-.01-.013-.016-.025-.024-.037.008.012.014.024.024.037zm7.766 80.864-.078-.049.078.049zM50.213 29.273l.078.049a4.231 4.231 0 0 1-.078-.049zm7.918 93.563a.897.897 0 0 1 .258-.062 1.231 1.231 0 0 0-.216.052c-.013.005-.03.005-.042.01a.095.095 0 0 0-.035.007.1.1 0 0 1 .035-.007zM43.425 97.99l.09.06c-.03-.02-.06-.042-.09-.06zm1.186-60.764a1.238 1.238 0 0 0 .215-.052.946.946 0 0 1-.215.052zM59.575 62.01c-.024-.015-.048-.033-.073-.048l.073.048zm-11.946.164a1.016 1.016 0 0 1 .457-.618 1.089 1.089 0 0 0-.253.217.987.987 0 0 0-.086.12.966.966 0 0 0-.118.28zm.512-.666a5.366 5.366 0 0 1-.775-.397 5.37 5.37 0 0 0 .775.397zm-2.016-20.82-.003-.01zm-.661-1.897c-.004-.007-.018-.013-.023-.02.005.007.019.013.023.02zm1.914 1.717.01-.028-.01.028zM54.88 52.64c-.015-.009-.03-.015-.045-.022.015.007.03.013.045.022zm-.087.042zM51.44 62.75a.957.957 0 0 0-.012-.214.981.981 0 0 1 .012.214zm-.043-.341a1.01 1.01 0 0 0-.158-.309 1.04 1.04 0 0 1 .158.309zm-1.85-2.285c-.019.004-.038.005-.057.01.019-.005.038-.006.058-.01zm1.081 3.593c.019-.004.037-.005.056-.01a1.011 1.011 0 0 0 .338-.16h.002a1.02 1.02 0 0 1-.396.17zm5.897-4.01a3.53 3.53 0 0 0 .202-.2l.02-.02a2.707 2.707 0 0 1-.222.22zm-1.742-6.73-.006-.021-.002-.019h.002zm.342-.542h-.003l.15.06h-.001l-.146-.06zm-5.247-12.028a.05.05 0 0 0 .02.007.05.05 0 0 1-.02-.007zm.016 6.445v.008zm.826-5.865c.1.033.194.07.296.1a9.4 9.4 0 0 1-.771-.265c.152.057.307.113.475.165zm4.323.558a.125.125 0 0 1 .06.092.133.133 0 0 0-.06-.092zm-.097-.035.034.003zm-.718 9.09.01-.006zm-4.86 12.5a1.052 1.052 0 0 1-.3.238 1.008 1.008 0 0 0 .3-.238zm-.387.279a.982.982 0 0 1-.286.067.946.946 0 0 0 .286-.067zm.169-3.084.004-.003zm-9.476 8.146c.016-.056.04-.112.054-.169-.015.057-.038.113-.054.17zm1.768-6.043.003-.007-.003.007zm2.778 4.252zm.01-.06c.01-.062.015-.125.02-.189.008-.07.015-.14.018-.212v-.014a3.532 3.532 0 0 1-.047.472l.01-.057zm.028-.78c.008.087.008.172.008.258 0-.086 0-.171-.008-.258zm-.436-5.415.029-.02-.03.02zm.274-.302a.34.34 0 0 1-.043.108.33.33 0 0 0 .043-.108zm-3.283 8.598-.055-.028c.017.01.037.018.055.028zm.685.269-.076-.024c.025.009.05.016.076.024zm.853.157c-.11-.01-.22-.018-.323-.034.102.017.214.024.323.034zm-1.26 5.999.125-.211v.001l-.124.21zm-1.51-4.42.009-.019zm.001.374-.012.013zm1.427 4.576.047-.017.009-.014-.01.014-.046.017zm1.9-3.548.017-.039-.018.04zm1.032.919.003-.025-.003.025zm.386-1.753.098.214-.098-.214zm.219.462zm.263.492zm.136-6.818.076-.04zm-.421-3.123a.742.742 0 0 0 .05-.12.744.744 0 0 1-.05.12zm.071-.246.005-.026a.907.907 0 0 0-.005-.154 1.193 1.193 0 0 0-.05-.244 1.606 1.606 0 0 0-.054-.146 2.172 2.172 0 0 0-.134-.265 3.027 3.027 0 0 0-.12-.187 1.645 1.645 0 0 1 .358 1.022zm-1.146-3.258-.003.01zM40.474 56.7a1.76 1.76 0 0 0-.284.045 1.76 1.76 0 0 1 .284-.045zm-.284.045a1.907 1.907 0 0 0-.306.105 1.884 1.884 0 0 1 .306-.105zm-.828.425a2.36 2.36 0 0 1 .521-.32 2.12 2.12 0 0 0-.199.097 2.551 2.551 0 0 0-.322.223zm-2 15.142-.019.005zm20.492-12.019zm.862.788c.1.08.199.16.297.235a11.135 11.135 0 0 1-.297-.235zm-1.693-1.789q.234.334.487.627-.252-.293-.487-.627zm-.625-1.065q.174.352.369.667-.195-.315-.369-.667zm-11.445-20.19.008-.03zm-.286.905-.01.028zm.495 1.6c-.015-.004-.027-.011-.042-.015.014.005.027.012.042.015zm1.782 7.369a.136.136 0 0 0 .069.038.135.135 0 0 1-.113-.124.134.134 0 0 0 .044.086zm.25 13.085.072.048a5.672 5.672 0 0 1-1.31-1.173 5.968 5.968 0 0 0 .439.474c.083.082.167.162.255.238a5.47 5.47 0 0 0 .544.413zm-1.934-2.085.017-.018zm-5.983-1.671a3.345 3.345 0 0 0-.215.203q.104-.107.215-.203zm-.704.806.021-.03zm.189-.26zm.242 2.675-.006.012zm1.237 7.146a3.205 3.205 0 0 0-.014-.253c-.003-.037-.01-.072-.014-.108a1.793 1.793 0 0 0-.073-.308 1.31 1.31 0 0 0-.105-.236 1.912 1.912 0 0 1 .206.905zm-.247.345c-.006.035-.008.059-.011.085l.01-.085zm-.598.569c.024-.07.041-.14.06-.21-.019.07-.036.14-.06.21zm-1.14 3.605.034-.02-.035.02zm17.116 25.7a.97.97 0 0 1-.118.28.97.97 0 0 0 .118-.28zm-.118.28a1 1 0 0 1-.086.12 1.003 1.003 0 0 0 .086-.12zm1.624 21.212.001.004zm.66 1.89c.003.007.016.013.022.02-.006-.007-.019-.013-.023-.02zm.002-.101.525-.904v.001zm-1.917-1.616-.01.028.01-.028zM51.56 97.249a.957.957 0 0 0 .012.214.981.981 0 0 1-.012-.214zm.043.341a1.011 1.011 0 0 0 .158.309 1.042 1.042 0 0 1-.158-.309zm1.85 2.285c.019-.004.038-.005.057-.01-.019.005-.038.006-.058.01zm-1.081-3.593c-.019.004-.037.005-.056.01a1.011 1.011 0 0 0-.338.16h-.002l-.001.002a1.02 1.02 0 0 1 .397-.172zm-5.897 4.01a3.51 3.51 0 0 0-.202.2l-.02.02a2.707 2.707 0 0 1 .222-.22zm1.742 6.73.006.021.002.019h-.002zm-.342.542h.003l-.15-.06h.001l.146.06zm5.247 12.028a.05.05 0 0 0-.02-.007.05.05 0 0 1 .02.007zm-.016-6.445v-.008zm-.826 5.865c-.1-.033-.194-.07-.296-.1.268.08.526.169.772.266a8.769 8.769 0 0 0-.476-.166zm-4.323-.559a.125.125 0 0 1-.06-.091.133.133 0 0 0 .06.091zm.063.033.02.002-.02-.002c-.012-.001-.02-.012-.03-.016a.083.083 0 0 0 .03.016zm.752-9.086-.01.005zm4.86-12.501a1.06 1.06 0 0 0-.075.081 1.063 1.063 0 0 1 .375-.319 1.008 1.008 0 0 0-.3.238zm.386-.279a.98.98 0 0 1 .287-.067.947.947 0 0 0-.287.067zm-.168 3.084-.004.003zm9.476-8.146c-.016.056-.04.112-.054.169.015-.057.038-.113.054-.17zm-4.563 7.431zm2.054-.807zm.741-.58-.003.006.003-.007zm-2.779-4.25-.01.057c-.009.062-.014.125-.02.189-.007.07-.014.14-.017.212l.002.12c0 .086 0 .172.008.259.001.016.006.033.008.049a3.458 3.458 0 0 1 .1-1.218 4.095 4.095 0 0 0-.07.331zm-.27 5.186a2.191 2.191 0 0 0 .134.264 1.98 1.98 0 0 1-.188-.41c.016.05.033.098.054.146zm-.033-.815a.742.742 0 0 0-.05.12.747.747 0 0 1 .05-.121zm3.32-12.65-.012.02zm1.623 4.23-.009.019zm-.001-.374.013-.013zm-1.427-4.576-.047.017-.009.014.01-.014.046-.017zm-1.9 3.548-.02.044.02-.044zm-1.032-.92-.003.028.003-.027zm-.386 1.754a11.97 11.97 0 0 0-.098-.214l.098.214zm-.219-.462zm-.263-.492zm-.136 6.818-.076.04-.009.02.01-.02zm.356 3.33c-.003.021-.01.042-.01.065a.907.907 0 0 0 .004.154 1.193 1.193 0 0 0 .05.244 1.017 1.017 0 0 1-.044-.464zm1.14 3.296v-.002zm2.975 2.074a1.76 1.76 0 0 0 .284-.045 1.76 1.76 0 0 1-.284.045zm.284-.045a1.907 1.907 0 0 0 .306-.105 1.884 1.884 0 0 1-.306.105zm.828-.425a2.36 2.36 0 0 1-.521.32 2.12 2.12 0 0 0 .199-.097 2.551 2.551 0 0 0 .322-.223zm-.814-4.293-.034.012-.004.008.004-.008.035-.012zm-.065-6.145c.001.084.005.169.014.254.003.037.01.072.014.108a1.793 1.793 0 0 0 .073.308 2.245 2.245 0 0 1-.101-.67zm-17.613 7.315zm-.862-.788c-.1-.08-.199-.16-.297-.235.098.075.197.154.297.235zm1.693 1.789q-.234-.334-.487-.627.252.293.487.627zm.625 1.065q-.174-.352-.369-.667.195.315.369.667zm11.669 19.482a12.54 12.54 0 0 0-.224.707l-.008.032-.003.012c.067-.245.15-.497.235-.751zm.062-.196.01-.029zm-2.277-8.97a.136.136 0 0 0-.069-.038.134.134 0 0 1 .113.124.134.134 0 0 0-.044-.086zm-.89-13.86a1.088 1.088 0 0 1-.252.216 1.09 1.09 0 0 0 .252-.217zm.467.661a5.375 5.375 0 0 0-.775-.397 5.375 5.375 0 0 1 .775.397zm8.09 3.87c.074-.064.146-.132.215-.203q-.104.107-.215.203zm.703-.806-.02.03zm-.188.26zm-.19-2.708-.046.02-.006.013.006-.012.046-.021zM62.86 93.06a1.309 1.309 0 0 0 .105.236 1.315 1.315 0 0 1-.105-.236zm.146-1.014c.006-.035.008-.059.011-.085l-.01.085zm.598-.569c-.024.07-.041.14-.06.21.019-.07.036-.14.06-.21zm1.707-53.76c.013-.017.03-.032.043-.05-.013.019-.03.033-.043.05zm-.138.17a2.978 2.978 0 0 1-.445.44 3.305 3.305 0 0 0 .358-.351c.028-.031.06-.058.087-.09l.004-.007zm-.833.718a3.361 3.361 0 0 0 .304-.217 3.326 3.326 0 0 1-.304.217zm-20.88 2.548.045-.06c-.014.021-.03.04-.045.06zm2.297 18.455q-.16-.216-.312-.46c.086.138.174.272.264.397l.048.063zm-6.642 9.593zm-1.428 53.08c-.013.017-.03.032-.043.05.013-.019.03-.033.043-.05zm.138-.17a2.978 2.978 0 0 1 .445-.44 3.305 3.305 0 0 0-.358.351c-.028.031-.06.058-.087.09l-.004.007zm.833-.718a3.361 3.361 0 0 0-.304.217 3.326 3.326 0 0 1 .304-.217zm5.209 10.086.175-.489-.002.006-.173.483-.007.029zm7.393-1.509.076.033-.076-.033zm8.278-11.125c-.015.02-.031.039-.045.06.014-.021.03-.04.045-.06zm-1.651.628c-.017-.004-.032-.013-.049-.017.018.004.034.014.052.018zm-.843-19.346a5.972 5.972 0 0 0-.439-.474 5.578 5.578 0 0 0-.255-.238 5.47 5.47 0 0 0-.544-.413l-.081-.054a5.974 5.974 0 0 1 1.829 1.903 7.03 7.03 0 0 0-.265-.398c-.08-.11-.16-.222-.245-.326zm.71.945-.031.033.03-.033zm6.129-10.275zm.862-2.925-.09.05c.029-.018.06-.033.09-.05zM57.019 72.42l.013-.015-.013.015zm8.896-28.792v-.001c0-.006.007-.008.012-.011-.005.003-.011.005-.011.01zm-14.657-18.96-.3-.35zm-6.856 7.812a1.555 1.555 0 0 1-.485-.416 1.642 1.642 0 0 0 .15.164 1.501 1.501 0 0 0 .335.252zm-.679-.725a1.975 1.975 0 0 0 .194.31 1.972 1.972 0 0 1-.194-.31zm-6.036 25.073v.001l-.008.01zm-.97-1.065-.003-.009.004.009zm-.514 20.894c-.108.173-.214.348-.323.514.11-.162.216-.342.323-.514zm.882 39.713v.001c0 .006-.007.008-.012.011.005-.003.011-.005.011-.01zm14.655 18.96.001.001.3.35zm6.857-7.81a1.555 1.555 0 0 1 .485.415 1.642 1.642 0 0 0-.15-.164 1.501 1.501 0 0 0-.335-.252zm.679.724a1.975 1.975 0 0 0-.194-.31 1.972 1.972 0 0 1 .194.31zm13.762-17.672a1.913 1.913 0 0 1 .346.666 1.915 1.915 0 0 0-.346-.666zm-3.36 1.356a1.885 1.885 0 0 0 1.878 1.738 1.02 1.02 0 0 0 .17-.01 1.838 1.838 0 0 0 1.022-.405 1.838 1.838 0 0 1-1.023.406 1.021 1.021 0 0 1-.169.01 1.874 1.874 0 0 1-1.879-1.74zm1.888-2.058a1.915 1.915 0 0 1 .65.115 1.917 1.917 0 0 0-.65-.115zm-5.285-5.634.007.015-.007-.015zm.515-20.894c.108-.173.214-.348.323-.514-.11.162-.216.342-.323.514zm-3.145-19.141-.033-.016zm4.904-6.336a29.978 29.978 0 0 0-1.477-1.017l.002.002c.49.32.978.647 1.475 1.015zm-10.052-4.963a3.537 3.537 0 0 0 .411-.125 3.526 3.526 0 0 1-.411.125zm.73-.271zm.904-.673c.009-.01.02-.018.029-.027a.216.216 0 0 0-.027.025zM43.515 31.207c.018.067.04.135.064.203a2.476 2.476 0 0 0 .144.346 3.327 3.327 0 0 1-.316-1.168 4.313 4.313 0 0 0 .108.619zm3.731 21.263v.002c-.022.005-.053.006-.078.01.019-.004.045-.004.062-.01zm-13.298 6.667c.13-.013.266-.02.391-.045-.126.026-.26.032-.391.045zm-.279 7.343-.036.06v-.002l.036-.058zm-.483.86-.044.09.044-.09zm-.818 2.162-.02.075zm-.262 1.094c-.013.067-.023.142-.036.211.013-.07.023-.144.036-.211zm-.22 1.431-.005.054.004-.054zm-.122 2.128zm.056 2.117c-.012-.19-.027-.387-.035-.572.008.185.023.381.035.572zM36.605 94.5c-.035-.018-.07-.043-.105-.061.035.019.07.043.105.06v.001zm2.743 1.3.033.016zm-4.904 6.336c.498.369.987.697 1.477 1.017l-.002-.002a30.04 30.04 0 0 1-1.475-1.015zm10.05 4.964a3.547 3.547 0 0 0-.409.124 3.52 3.52 0 0 1 .41-.124zm-.728.27zm-.905.674-.017.016.016-.015zm-.415.51-.004.006.004-.005zm.87 25.114.05-.011-.05.011zm1.63-.091.002.006zm14.539-4.783a2.786 2.786 0 0 0-.064-.203 2.476 2.476 0 0 0-.144-.346 3.327 3.327 0 0 1 .316 1.168 4.313 4.313 0 0 0-.108-.619zm-3.731-21.263v-.002c.022-.006.054-.007.08-.01-.02.004-.047.004-.064.01zM69.33 93.52l.036-.06v.002l-.036.058zm.483-.86.044-.09-.044.09zm.818-2.162.02-.075zm.262-1.094c.013-.067.023-.142.036-.211-.013.07-.023.144-.036.211zm.22-1.431.005-.054-.004.054zm.122-2.126zm-.056-2.12c.012.192.027.388.035.573-.008-.185-.023-.381-.035-.572z"/><path class="cls-2" d="m51.122 134.609-1.203.696.751 1.39 1.41-.977-.038-.038-.92-1.071zm-6.183-1.052.085.244.582 1.475 1.222-.873-.639-1.156-1.25.31z"/><path class="cls-3" d="m44.78 129.705-1.476 3.965 1.09-.245 1.86-.45h.02a.123.123 0 0 1 .13.075l1.57 3.044.178-.094 1.56-.902 1.4-.761h.075c.057 0 .085.01.104.037l1.794 2.218 1.043-4.557a9.892 9.892 0 0 0-6.962-2.565 11.607 11.607 0 0 0-2.387.235z"/><path class="cls-4" d="M58.394 127.722a1.493 1.493 0 0 0-.602-.122c-1.165 0-2.865 1.043-5.092 3.072.047.029.103.066.15.094a5.873 5.873 0 0 1 1.504 1.137 6.21 6.21 0 0 0 .751.057 5.12 5.12 0 0 0 4.228-2.35c-.028-.422-.15-1.521-.94-1.888zm-20.596-5.562a.052.052 0 0 1 .028-.047 3.42 3.42 0 0 1 1.833-1.137 6.363 6.363 0 0 1 1.484-.188 5.187 5.187 0 0 1 2.81.827c3.307 2.095 4.434 7.592 4.444 7.648a10.608 10.608 0 0 1 2.64.573 10.118 10.118 0 0 0-.066-1.353 13.387 13.387 0 0 0-.404-2.227 14.345 14.345 0 0 0-9.706-10.128 6.197 6.197 0 0 0-1.644-.235 3.013 3.013 0 0 0-1.757.47 2.326 2.326 0 0 0-.92 1.822 8.703 8.703 0 0 0 1.099 4.153.95.95 0 0 1 .16-.178z"/><path class="cls-4" d="m43.868 131.48.705-1.973.094-.065a11.56 11.56 0 0 1 2.499-.254c.3 0 .61.019.94.047-.142-.639-1.307-5.478-4.304-7.385a4.903 4.903 0 0 0-2.659-.78 6.243 6.243 0 0 0-1.419.178 3.41 3.41 0 0 0-2.508 2.5c-.432 1.85-.15 5.327 6.643 7.77zm16.32-8.09a3.186 3.186 0 0 0-1.56-.356 5.788 5.788 0 0 0-3.589 1.372 12.692 12.692 0 0 0-2.264 2.734c-.291.46-.582.958-.864 1.494a3.64 3.64 0 0 1-.17.31 2.71 2.71 0 0 0-.422.92.116.116 0 0 1-.066.104l.197.084a4.353 4.353 0 0 1 1.062.451c2.246-2.114 4.04-3.185 5.271-3.185a1.821 1.821 0 0 1 .733.15 2.404 2.404 0 0 1 1.09 2.086 7.368 7.368 0 0 0 .92-.986 4.597 4.597 0 0 0 .893-3.542 2.299 2.299 0 0 0-1.23-1.635z"/><path class="cls-5" d="M54.363 98.606a.95.95 0 0 1-.115.005 1.051 1.051 0 0 1 .016.415 1.028 1.028 0 1 1-1.897-.68c-.07-.002-.144-.014-.212-.014a9.071 9.071 0 0 0-5.797 2.396 10.957 10.957 0 0 1 .639 1.156 20.504 20.504 0 0 1 1.494 5.308l.056.405c.085.6.15 1.193.207 1.813.16-.085.31-.17.47-.244a.699.699 0 0 1 .112-.066 9.367 9.367 0 0 1 4.322-1.071 10.091 10.091 0 0 1 1.87.188v-.029a1.396 1.396 0 0 1-.066-.573 10.276 10.276 0 0 1 2.067-6.36 5.583 5.583 0 0 0-3.166-2.649z"/><path class="cls-5" d="M53.668 108.31a9.858 9.858 0 0 0-4.942 1.382l-.085.047a12.178 12.178 0 0 0-3.289 2.771l-.018.02-.038.018a6.393 6.393 0 0 1 .968 1.381 10.8 10.8 0 0 1 .874 5.6v.028l-.066.066c.207.216.413.442.61.667a.514.514 0 0 1 .066.085 14.599 14.599 0 0 1 3.092 5.806 15.043 15.043 0 0 1 .413 2.274c.028.244.047.46.056.667a3.552 3.552 0 0 1 .188-.32c.066-.112.122-.215.17-.3.281-.536.573-1.052.873-1.522a12.941 12.941 0 0 1 2.312-2.79 6.253 6.253 0 0 1 2.978-1.363 11.307 11.307 0 0 1 1.381-3.599.12.12 0 0 1 .01-.056c.413-4.632-.395-6.896-1.043-8.202a6.1 6.1 0 0 0-1.325-1.842 2.607 2.607 0 0 0-1.25-.61 9.757 9.757 0 0 0-1.935-.207zm-.245 11.341c-.028.047-.488.79-1.108 1.663l-.019.02-.094.046c-.15-.075-.16-.16-.122-.225.507-.715.911-1.344 1.052-1.56-.01 0-.019-.01-.028-.01a9.212 9.212 0 0 0-1.39-.488 16.12 16.12 0 0 0-.968-.226 27.443 27.443 0 0 0-2.725-.385.144.144 0 0 1-.132-.15.143.143 0 0 1 .141-.132h.01a23.802 23.802 0 0 1 2.546.357.55.55 0 0 1-.038-.216.827.827 0 1 1 1.429.564 7.524 7.524 0 0 1 1.39.545l.019.01.056.075a.146.146 0 0 1-.019.112zm4.632-.686a.62.62 0 0 1-.225.489 2.906 2.906 0 0 1 .695.244l.01.01.056.075a.115.115 0 0 1-.019.113l-.79 1.353a.16.16 0 0 1-.121.065c-.132-.056-.16-.15-.122-.206l.733-1.26a.472.472 0 0 0-.122-.046 5.577 5.577 0 0 0-1.532-.198 5.318 5.318 0 0 0-.836.057h-.01a.139.139 0 0 1-.15-.123l-.01-.018.029-.085a.194.194 0 0 1 .094-.056 6.797 6.797 0 0 1 .892-.057 2.288 2.288 0 0 1 .254.01.627.627 0 0 1-.113-.367.644.644 0 0 1 1.288 0zm-.873-4.585a.39.39 0 0 1-.066.432 41.182 41.182 0 0 0-1.86 4.294.137.137 0 0 1-.132.085c-.085-.019-.113-.047-.122-.085l-.01-.019v-.084a44.403 44.403 0 0 1 1.908-4.36c.056-.084.037-.122.028-.14a2.249 2.249 0 0 0-1.616-.48.141.141 0 1 1 0-.282c.77 0 1.682.235 1.87.64zm-1.071-2.17a.142.142 0 0 1-.141.122c-.141-.01-.264-.019-.376-.019a3.046 3.046 0 0 0-2.236.912l-.02.009-.093.037a.131.131 0 0 1-.085-.028.14.14 0 0 1-.019-.206 3.229 3.229 0 0 1 2.425-1.006c.14 0 .272.01.422.019a.14.14 0 0 1 .123.16z"/><path class="cls-6" d="m55.53 112.207-.303.455-.404-.101-.455.404-.656-.152a1.05 1.05 0 0 1 1.01-1.06 1.534 1.534 0 0 1 .808.454z"/><path class="cls-4" d="M58.431 110.838c.658 1.315 1.457 3.58 1.053 8.08a1.827 1.827 0 0 1 .122-.16.05.05 0 0 1 .028-.037 2.796 2.796 0 0 1 .686-.723 2.298 2.298 0 0 1 1.353-.49 1.677 1.677 0 0 1 .61.114 2.045 2.045 0 0 1 .837.648 7.015 7.015 0 0 0-5.149-8.146.63.63 0 0 1 .066.103 2.526 2.526 0 0 1 .394.611z"/><path class="cls-4" d="M62.171 117.885a1.423 1.423 0 0 0-.498-.094 2.048 2.048 0 0 0-1.184.432c-1.325 1.005-1.935 2.81-2.405 4.623a.085.085 0 0 1 .047-.01 1.327 1.327 0 0 1 .517-.075 3.487 3.487 0 0 1 1.672.376 2.609 2.609 0 0 1 1.362 1.795 7.702 7.702 0 0 0 1.767-4.82 2.38 2.38 0 0 0-1.278-2.227zm-25.087-1.513a.54.54 0 0 1 .216-.244 3.334 3.334 0 0 1 1.926-.517 6.362 6.362 0 0 1 1.71.244 13.695 13.695 0 0 1 5.93 3.496 10.446 10.446 0 0 0-.856-5.29 6.097 6.097 0 0 0-3.363-3.016 4.949 4.949 0 0 0-1.739-.31 4.445 4.445 0 0 0-2 .46 3.447 3.447 0 0 0-1.805 2.161 6.016 6.016 0 0 0-.038 3.035c.01-.01.02-.01.02-.019z"/><path class="cls-7" d="M39.518 95.88a14.38 14.38 0 0 1 2.001.902c.714.395 1.25.714 1.729 1.024.272-.254.554-.554.855-.892.197-.217.394-.442.61-.64a11.267 11.267 0 0 1 7.724-2.884 13.399 13.399 0 0 1 1.494.085 13.772 13.772 0 0 1 4.021 1.23.16.16 0 0 1 .019-.046l.01-.02.103-.056h.16a4.678 4.678 0 0 1 .563.038c0-.028-.01-.047-.01-.075a3.684 3.684 0 0 1 .414-2.443 2.09 2.09 0 0 0-.094-1.25 11.663 11.663 0 0 0-1.648-3.686 9.383 9.383 0 0 1-11.46.377l-6.67 8.251c.057.029.122.057.179.085zm19.562-9.067a12.643 12.643 0 0 1 .211-1.698 9.14 9.14 0 0 1-1.23 1.517 6.405 6.405 0 0 1 .99.425 1.082 1.082 0 0 1 .029-.244z"/><path class="cls-6" d="M36.605 94.499c.79.385 1.635.76 2.462 1.118l6.715-8.246a9.286 9.286 0 0 1-2.121-2.307l-7.169 9.369c.038.019.076.047.113.066z"/><path class="cls-7" d="M64.642 87.931c.075-.047.16-.094.235-.131a3.11 3.11 0 0 1 1.155-.46h.01a.142.142 0 0 1 .122.234c-.103.103-2.368 2.537-2.715 4.444a.141.141 0 0 1-.113.104h-.019a.148.148 0 0 1-.122-.047 1.24 1.24 0 0 0-.17-.17c-.009.038-.009.085-.018.142a2.36 2.36 0 0 0 .244 1.183 4.41 4.41 0 0 0 .31.376 15.388 15.388 0 0 1 2.068 3.016.602.602 0 0 1 .065-.019c.908-.318 6.497-2.492 5.424-13.86h-3.944a22.465 22.465 0 0 0-2.532 5.188z"/><path class="cls-1" d="M60.282 90.553a4.22 4.22 0 0 1 2.988 1.183 4.355 4.355 0 0 1 .179-.563.035.035 0 0 1 .009-.028 11.755 11.755 0 0 1 2.246-3.477 1.03 1.03 0 0 0-.16.047 7.716 7.716 0 0 0-1.062.564 4.402 4.402 0 0 0-1.062 1.024l-.009.019-.113.047a.149.149 0 0 1-.131-.132 19.889 19.889 0 0 0-1.165-4.51c-.188.31-.376.62-.545.921l-.17.31c-.648 1.25-1.108 2.311-1.108 2.33a.16.16 0 0 1-.132.085.133.133 0 0 1-.131-.094 1.98 1.98 0 0 0-.874-.902 5.635 5.635 0 0 0-1.203-.536c-.053.05-.104.1-.158.149a11.75 11.75 0 0 1 1.68 3.694 2.912 2.912 0 0 1 .921-.131z"/><path class="cls-7" d="M59.672 84.633a22.902 22.902 0 0 0-.414 2.584 2.08 2.08 0 0 1 .808.742c.028-.056.056-.122.094-.206.019-.047.047-.104.075-.16a20.611 20.611 0 0 1 1.692-3.195l.018-.028.104-.037a.137.137 0 0 1 .131.084 19.753 19.753 0 0 1 1.231 4.52.16.16 0 0 1 .056-.057c.01-.01.01-.028.02-.037a3.125 3.125 0 0 1 .817-.78 22.859 22.859 0 0 1 2.534-5.32h-6.442a9.208 9.208 0 0 1-.752 1.783.119.119 0 0 1 .028.107z"/><path class="cls-4" d="M42.75 110.782a6.367 6.367 0 0 1 2.368 1.569l.009-.01a12.325 12.325 0 0 1 3.373-2.847c-.075-.592-.14-1.183-.225-1.766-.32-.141-.64-.282-.959-.395a5.662 5.662 0 0 0-1.898-.375 3.934 3.934 0 0 0-.676.065c-2.35.423-2.96 2.828-3.063 3.308a1.908 1.908 0 0 0 .01.206 4.734 4.734 0 0 1 1.06.245z"/><path class="cls-1" d="m48.237 107.418-.019-.103c-.01.028-.047.037-.113.037a.854.854 0 0 0 .132.066z"/><path class="cls-8" d="M55.742 107.529c0-.16.01-.348.019-.564a10.009 10.009 0 0 1 2.076-5.722c.066-.066.122-.14.197-.207a1.546 1.546 0 0 1 .245-.253 4.522 4.522 0 0 1 .45-.395 1.64 1.64 0 0 0 .63.64 1.181 1.181 0 0 0-.056.967 1.238 1.238 0 0 0 .752.582.507.507 0 0 0-.123.668c.48 1.061 2.227 1.25 2.753 1.277.066 0 .122.01.188.01a2.297 2.297 0 0 0 .94-.188c.01 0 .019-.01.028-.01a5.35 5.35 0 0 0 .714-.404 9.136 9.136 0 0 1 1.466 1.438c0 .01.01.019.019.028-3.054 1.954-8.024 2.105-9.471 2.105h-.348a2.286 2.286 0 0 0-.48.028z"/><path class="cls-3" d="M55.742 107.529c0-.16.01-.348.019-.564l.009-.01s5.346-.027 8.964-1.822l-.921-.79c.01 0 .019-.009.028-.009a5.35 5.35 0 0 0 .714-.404 9.136 9.136 0 0 1 1.466 1.438c0 .01.01.019.019.028-3.054 1.954-8.024 2.105-9.471 2.105h-.348a2.286 2.286 0 0 0-.48.028z"/><path class="cls-8" d="M34.432 102.126a27.044 27.044 0 0 0 3.092-.977 25.97 25.97 0 0 0 3.842-1.794 13.602 13.602 0 0 0 1.833-1.24c.187.122.385.263.591.413a8.617 8.617 0 0 1 2.941 3.476 20.409 20.409 0 0 1 1.372 4.407c.028.131.056.272.085.404.01.085.028.17.037.254l-.272.009c-.16 0-.348-.01-.564-.019a5.86 5.86 0 0 0-1.973-.385 3.863 3.863 0 0 0-.686.066 25.067 25.067 0 0 1-8.456-3.345 29.454 29.454 0 0 1-1.842-1.269z"/><path class="cls-3" d="M34.432 102.126a27.044 27.044 0 0 0 3.092-.977 25.97 25.97 0 0 0 3.842-1.794 13.602 13.602 0 0 0 1.833-1.24c.187.122.385.263.591.413-2.461 2.433-7.3 3.74-7.3 3.74 4.895 4.274 11.613 4.143 11.613 4.143.028.131.056.272.085.404.01.085.028.17.037.254l-.272.009c-.16 0-.348-.01-.564-.019a5.86 5.86 0 0 0-1.973-.385 3.863 3.863 0 0 0-.686.066 25.067 25.067 0 0 1-8.456-3.345 29.454 29.454 0 0 1-1.842-1.269z"/><path class="cls-9" d="M60.8 98.182h.018a.929.929 0 0 0 .573-.385 7.086 7.086 0 0 1-1.607-2.312c-.14-.545-1.08-.62-1.503-.62.038.066.094.16.17.273a28.41 28.41 0 0 0 2.348 3.044z"/><path class="cls-5" d="M43.85 98.276a8.448 8.448 0 0 1 2.367 2.274c.01 0 .019-.02.038-.028v-.01a8.86 8.86 0 0 1 5.658-2.445 1.026 1.026 0 1 1 1.638-1.079 1.02 1.02 0 0 1 .994-.432 1.03 1.03 0 0 1 .304 1.932 5.797 5.797 0 0 1 2.868 2.625.808.808 0 0 1 .122-.131 3.622 3.622 0 0 1 .77-.79c0-.056-.008-.13-.008-.197-.01-.14.037-.488.554-.657l-.01-.01-.065.01a2.543 2.543 0 0 1-.226-.226c-.216-.282-.695-.977-.32-1.503a.486.486 0 0 1 .339-.207h.01a1.032 1.032 0 0 1 .704.338 1.795 1.795 0 0 0 .836.451 22.383 22.383 0 0 1-2.236-3.034 12.975 12.975 0 0 0-4.294-1.4 12.74 12.74 0 0 0-1.456-.085 11.002 11.002 0 0 0-7.526 2.8c-.207.197-.404.423-.601.63a7.955 7.955 0 0 1-.893.883c.122.075.244.16.366.244a.394.394 0 0 1 .066.047z"/><path class="cls-7" d="M34.21 92.63a8.936 8.936 0 0 0 2.113 1.653l7.172-9.473a9.474 9.474 0 0 1-.939-2.1l-10.08.02a10.015 10.015 0 0 0-.419 1.819 10.16 10.16 0 0 0 2.152 8.08z"/><path class="cls-10" d="M66.906 104.12a1.22 1.22 0 0 0 .48-.103 3.78 3.78 0 0 0 .864-.583l.103-.094a2.66 2.66 0 0 1 1.1-.63h.009a.143.143 0 0 1 .16.104.14.14 0 0 1-.104.17 2.482 2.482 0 0 0-.986.572l-.104.085a3.561 3.561 0 0 1-.93.639 1.676 1.676 0 0 1-.601.122 1.069 1.069 0 0 1-.62-.179.456.456 0 0 0 .028.066 5.064 5.064 0 0 0 .366.404 1.836 1.836 0 0 0 1.222.442 2.404 2.404 0 0 0 1.372-.46 8.197 8.197 0 0 0 .911-.771 8.615 8.615 0 0 1 .864-.733 2.887 2.887 0 0 1 1.692-.63 2.436 2.436 0 0 1 .375.029c-.319-.996-1.634-1.419-2.038-1.532a6.036 6.036 0 0 0-1.579-.225 4.174 4.174 0 0 0-.986.113 3.097 3.097 0 0 0-2.02 1.428 2.533 2.533 0 0 0-.264.667 1.995 1.995 0 0 0-.056.601.683.683 0 0 0 .207.329.908.908 0 0 0 .535.169z"/><path class="cls-9" d="M64.736 103.772v.01a.03.03 0 0 1 .019.01 6.494 6.494 0 0 1 1.823 1.954 35.53 35.53 0 0 0 2.029 2.706l.122.037v-.113a2.427 2.427 0 0 1 .16-.873c-.028 0-.376-.433-.799-.855a4.192 4.192 0 0 1-.77-1.335 1.639 1.639 0 0 1-.837-.413 1.883 1.883 0 0 1-.6-1.24h-.01l-.047-.094-.498-.414a2.598 2.598 0 0 1-.592.62z"/><path class="cls-3" d="M71.557 113.666a1.02 1.02 0 0 0 .17-.01 1.9 1.9 0 0 0 1.728-2.048 1.885 1.885 0 0 0-1.888-1.738.86.86 0 0 0-.16.01 1.882 1.882 0 0 0-1.729 2.048 1.85 1.85 0 0 0 .667 1.297 1.87 1.87 0 0 0 1.212.441z"/><path class="cls-5" d="M63.016 93.39a2.54 2.54 0 0 1-.197-1.7 4.176 4.176 0 0 0-2.537-.846 5.04 5.04 0 0 0-.902.084v.01a1.735 1.735 0 0 1 .075 1.315 3.796 3.796 0 0 0-.413 2.387c.564.131.92.394 1.015.78a8.381 8.381 0 0 0 1.494 2.198c.01-.01.01-.01.01-.019a.865.865 0 0 1 .065-.281.141.141 0 0 1 .131-.104c.076.019.104.038.123.075l.009.02.01.093a1.427 1.427 0 0 1-.93 1.043 1.413 1.413 0 0 1-.348.047 1.86 1.86 0 0 1-1.222-.545.879.879 0 0 0-.48-.263.22.22 0 0 0-.159.094c-.254.366.132.93.31 1.156a2.947 2.947 0 0 0 1.053.808 1.358 1.358 0 0 0 .545.122c1.09 0 2.104-1.287 2.114-1.297l.009-.019.103-.037c.141.075.16.169.113.225a3.65 3.65 0 0 1-2.33 1.41 1.545 1.545 0 0 1-.677-.15 3.122 3.122 0 0 1-.704-.461.035.035 0 0 1-.028.01c-.273.13-.395.262-.395.441.028.507.893 1.221 2.02 1.437a1.167 1.167 0 0 0 .31.038c1.447 0 2.734-1.841 2.79-1.917l.01-.018.103-.047c.141.075.16.16.113.225-.056.085-1.381 2.039-3.006 2.039a2.422 2.422 0 0 1-.367-.038 3.824 3.824 0 0 1-1.287-.498.648.648 0 0 0-.038.094 1.03 1.03 0 0 0 .038.574c.216.45 1.09.723 2.405 1.09a1.521 1.521 0 0 0 .414.065c1.616 0 2.555-2.696 2.565-2.725a.141.141 0 0 1 .131-.094.184.184 0 0 1 .132.076l.01.018v.094c-.114.301-1.072 2.913-2.829 2.913a1.894 1.894 0 0 1-.507-.075 16.32 16.32 0 0 1-1.626-.517c-.094.15-.16.207-.066.404.33.733 1.513 1.062 2.518 1.118a1.023 1.023 0 0 0 .17.01 1.998 1.998 0 0 0 .845-.17 4.657 4.657 0 0 0 2.546-3.786 4.312 4.312 0 0 0-.131-1.654 12.946 12.946 0 0 0-2.79-4.848c-.142-.169-.254-.31-.33-.404z"/><path class="cls-6" d="M68.88 108.79c-.226-.028-.461-.075-.62-.075a2.31 2.31 0 0 0-2.312 2.31 2.425 2.425 0 0 0 1.682 2.218c.122.047.15.132.113.198a2.41 2.41 0 0 0-.254 1.052 2.314 2.314 0 0 0 4.36 1.09.146.146 0 0 1 .122-.075c.103.028.122.056.131.094a2.39 2.39 0 0 0 1.945 1.024 2.318 2.318 0 0 0 2.32-2.312 2.283 2.283 0 0 0-.882-1.813.146.146 0 0 1-.038-.15l.075-.104a2.3 2.3 0 0 0-.864-4.434 2.234 2.234 0 0 0-.93.197l-.057.01a.133.133 0 0 1-.131-.085 2.266 2.266 0 0 0-2.218-1.88 2.318 2.318 0 0 0-2.311 2.321l-.01.104a.911.911 0 0 0 .01.16.138.138 0 0 1-.132.15zm1.014 1.578a2.14 2.14 0 0 1 1.485-.77 1.323 1.323 0 0 1 .188-.01 2.173 2.173 0 0 1 1.4.508 2.14 2.14 0 0 1 .77 1.484 2.162 2.162 0 0 1-.507 1.588 2.138 2.138 0 0 1-1.475.77 1.386 1.386 0 0 1-.198.01 2.177 2.177 0 0 1-2.16-1.992 2.115 2.115 0 0 1 .497-1.588z"/><path class="cls-1" d="M51.499 89.034a9.074 9.074 0 1 0-9.075-9.074 9.085 9.085 0 0 0 9.075 9.074zm2.174-15.3L51.499 76l-2.174-2.265zm-4.817 2.243a2.961 2.961 0 0 1 2.643 1.656 2.961 2.961 0 0 1 2.642-1.656 3.013 3.013 0 0 1 .101 6.022 3.041 3.041 0 0 1 .233 1.17 2.976 2.976 0 1 1-5.952 0 3.041 3.041 0 0 1 .232-1.17 3.013 3.013 0 0 1 .101-6.022z"/><path d="M57.839 119.457a.626.626 0 0 0 .225-.491.652.652 0 0 0-1.305 0 .53.53 0 0 0 .115.345l.004.012a2.396 2.396 0 0 0-.25-.01 6.908 6.908 0 0 0-.895.057.205.205 0 0 0-.099.06l-.012.062-.01.028.003.005-.002.013c0 .073.071.132.17.132a5.436 5.436 0 0 1 .835-.056 5.672 5.672 0 0 1 1.53.197c.037.007.069.02.1.029l.015.005-.199.36-.525.903c-.01.014 0 .034-.001.051l-.019.034c.002.006.015.01.018.016.003.008.017.013.023.021a.22.22 0 0 0 .1.094.17.17 0 0 0 .132-.07l.787-1.352a.126.126 0 0 0 .021-.121l-.07-.091a2.344 2.344 0 0 0-.642-.216c-.017-.004-.032-.013-.049-.017zm13.728-9.869a1.323 1.323 0 0 0-.188.01 2.14 2.14 0 0 0-1.485.77 2.115 2.115 0 0 0-.498 1.588 2.177 2.177 0 0 0 2.161 1.992 1.387 1.387 0 0 0 .198-.01 2.138 2.138 0 0 0 1.475-.77 2.162 2.162 0 0 0 .507-1.588 2.14 2.14 0 0 0-.77-1.484 2.173 2.173 0 0 0-1.4-.508zm1.447 3.402a1.847 1.847 0 0 1-1.288.667 1.021 1.021 0 0 1-.169.01 1.87 1.87 0 0 1-1.212-.442 1.85 1.85 0 0 1-.667-1.297 1.882 1.882 0 0 1 1.729-2.048.861.861 0 0 1 .16-.01 1.885 1.885 0 0 1 1.888 1.738 1.86 1.86 0 0 1-.441 1.382zM48.755 82a3.04 3.04 0 0 0-.232 1.17 2.976 2.976 0 1 0 5.952 0 3.04 3.04 0 0 0-.233-1.17 3.013 3.013 0 0 0-.1-6.023 2.961 2.961 0 0 0-2.643 1.656 2.961 2.961 0 0 0-2.643-1.656 3.013 3.013 0 0 0-.1 6.022z"/><path d="M53.673 73.734h-4.348l2.174 2.265 2.174-2.265zm2.297 38.607a.152.152 0 0 0 .15-.13.133.133 0 0 0-.063-.123.136.136 0 0 0-.069-.038l-.04-.002c-.013-.002-.016-.01-.032-.012a5.08 5.08 0 0 0-.35-.014 3.207 3.207 0 0 0-2.432 1.008.155.155 0 0 0-.028.11v.007a.158.158 0 0 0 .048.102l.088.033.125-.055a3.042 3.042 0 0 1 2.227-.904c.098 0 .205.007.375.018zm1.22 2.035c-.186-.404-1.102-.644-1.878-.644a.15.15 0 0 0 0 .3 2.244 2.244 0 0 1 1.608.475c.008.017.025.05-.027.13a27.565 27.565 0 0 0-1.846 4.201l-.063.16.008.11c.013.048.052.074.132.092a.148.148 0 0 0 .14-.09 42.106 42.106 0 0 1 1.859-4.293.396.396 0 0 0 .067-.44zm-4.91 4.636c-.099-.033-.193-.07-.295-.1a.827.827 0 0 0 .226-.566.837.837 0 0 0-.836-.836.827.827 0 0 0-.836.836.367.367 0 0 0 .035.146.444.444 0 0 0 .01.06 23.359 23.359 0 0 0-2.554-.357.15.15 0 0 0-.15.14c-.005.046.026.086.078.119a.155.155 0 0 0 .063.032l.034.003c.013.003.017.01.033.012 1.184.113 2.098.268 2.656.38.328.065.648.14.966.225a11.377 11.377 0 0 1 1.18.394c.07.03.148.055.214.085a.05.05 0 0 1 .019.007l-.064.099a42.7 42.7 0 0 1-.987 1.459.13.13 0 0 0-.015.104.244.244 0 0 0 .15.134l.115-.068c.6-.846 1.068-1.594 1.109-1.663a.152.152 0 0 0 .019-.124l-.078-.087a6.397 6.397 0 0 0-1.091-.434z"/><path d="m25.77 82.752 6.403-.013a10.827 10.827 0 0 0-.407 1.77 10.442 10.442 0 0 0 2.229 8.315 9.232 9.232 0 0 0 2.267 1.758 26.01 26.01 0 0 0 2.567 1.25l.13.056c.754.33 1.625.718 2.414 1.156l.41.225c.352.195.696.385 1.028.554.047.028.094.053.142.077.017.011.034.02.051.032a19.065 19.065 0 0 1-1.78 1.172c-.12.069-.25.136-.374.204q-.5.276-1.034.536-.428.209-.88.408-.499.221-1.022.43c-.165.065-.326.133-.495.197a24.661 24.661 0 0 1-3.288 1.015.168.168 0 0 0-.11.12.158.158 0 0 0 .06.15 24.605 24.605 0 0 0 8.468 4.305c.45.132.871.23 1.273.315.14.031.284.066.416.095a4.606 4.606 0 0 0-2.841 3.383c-.008.026-.011.08.055.233l.001.005-.13-.019a3.022 3.022 0 0 0-.415-.037 4.78 4.78 0 0 0-2.137.49 3.765 3.765 0 0 0-1.95 2.344 5.886 5.886 0 0 0 .04 3.247 2.857 2.857 0 0 0-.613 1.64 8.452 8.452 0 0 0 1.203 4.337 3.718 3.718 0 0 0-.517 1.187c-.433 1.806-.252 5.205 5.822 7.668.292.125.602.238.915.342l.056.022-.77 2.03a.144.144 0 0 0 .029.15c.021.032.064.05.14.05l1.55-.381.725 1.982a.167.167 0 0 0 .104.09l.125-.02 1.25-.969.015-.01.864 1.671a.135.135 0 0 0 .094.08l.106-.01 1.726-1 .798 1.588a.137.137 0 0 0 .105.08l.106-.02 1.455-1.073.026-.02.865 1.062c.022.033.065.05.15.05a.167.167 0 0 0 .111-.11l1.042-4.756a3.652 3.652 0 0 0 .753.066 5.1 5.1 0 0 0 4.029-1.995 2.772 2.772 0 0 0 .241-.308l.094.056.105-.028a8.132 8.132 0 0 0 1.195-1.234 4.99 4.99 0 0 0 .996-3.42 8.048 8.048 0 0 0 1.974-5.23c-.003-.056-.02-.098-.024-.152a3.59 3.59 0 0 0-.087-.54 2.694 2.694 0 0 0-.065-.22 1.993 1.993 0 0 0-.233-.493c-.011-.015-.015-.038-.026-.053l.053-.066.016-.016.002-.007.016-.02a7.332 7.332 0 0 0-5.564-8.736 5.76 5.76 0 0 0-.761-.875 3.34 3.34 0 0 0-1.29-.678 2.694 2.694 0 0 0-.07-.46v-.001c.254.01.602.019.996.019 1.445 0 6.392-.157 9.436-2.175 0 0 .158.207.205.283a25.075 25.075 0 0 0 1.763 2.344c.064.076.119.139.155.178a2.605 2.605 0 0 0-2.595 2.602 2.547 2.547 0 0 0 1.766 2.384l.02.008a2.596 2.596 0 0 0 2.367 3.678 2.384 2.384 0 0 0 1.99-1.019 1.3 1.3 0 0 0 .116-.188c.01-.015.022-.029.03-.045a2.606 2.606 0 0 0 4.713-1.53 2.405 2.405 0 0 0-.726-1.726 1.009 1.009 0 0 1-.08-.074.264.264 0 0 0-.06-.044l-.02-.019a2.567 2.567 0 0 0 1.487-2.318 2.605 2.605 0 0 0-2.602-2.602 1.593 1.593 0 0 0-.82.195c-.014.008-.032.01-.046.018a2.556 2.556 0 0 0-2.47-1.979 2.453 2.453 0 0 0-2.15 1.226l-.056.104a.659.659 0 0 0-.057.134c-.004.01-.011.02-.016.03l-.163-.182a13.737 13.737 0 0 0-.586-.633 3.695 3.695 0 0 1-.518-.742c-.048-.082-.09-.155-.129-.216l-.008.006-.014-.034-.02-.06a1.515 1.515 0 0 0 .279.018 2.682 2.682 0 0 0 1.546-.5 8.935 8.935 0 0 0 .94-.798c.085-.078.173-.157.261-.235.1-.09.202-.176.307-.262.088-.074.176-.15.267-.217a3.48 3.48 0 0 1 .78-.432l.016-.006a2.33 2.33 0 0 1 .36-.104c.015-.003.032-.003.048-.006a1.885 1.885 0 0 1 .323-.033 1.374 1.374 0 0 1 .137.014 2.143 2.143 0 0 1 .294.049l.133.03a.161.161 0 0 0 .101-.032l.035-.097.004-.01v-.004l.01-.027c-.21-1.287-1.678-1.82-2.3-1.99a6.6 6.6 0 0 0-1.655-.234 4.784 4.784 0 0 0-1.055.113 3.434 3.434 0 0 0-2.205 1.574 3.023 3.023 0 0 0-.301.79.322.322 0 0 0-.023.227c.003.01-.001.02.003.03v.008l-.37-.24-.026-.017a5.73 5.73 0 0 0 1.045-2.682 4.528 4.528 0 0 0-.15-1.761 6.601 6.601 0 0 0-.571-1.422c-.044-.085-.076-.174-.125-.257a.08.08 0 0 1-.013-.02c.708-.208 6.8-2.353 5.704-14.113h5.826a.148.148 0 0 0 .15-.15v-5.28a.148.148 0 0 0-.15-.15l-16.78.04a9.439 9.439 0 0 0-8.952-6.616 9.31 9.31 0 0 0-8.896 6.576H25.77a.148.148 0 0 0-.15.15v5.28a.148.148 0 0 0 .15.15zm45.344 5.22c-.048.43-.113.832-.184 1.221-.013.07-.023.144-.036.211a13.9 13.9 0 0 1-.243 1.02c-.022.08-.04.165-.063.243-.092.313-.193.606-.298.889-.026.07-.05.142-.077.21-.112.284-.231.55-.356.804-.023.047-.045.097-.069.143q-.203.4-.421.749l-.036.058a7.356 7.356 0 0 1-3.694 3.098 15.332 15.332 0 0 0-2.068-3.018 4.513 4.513 0 0 1-.31-.375 2.016 2.016 0 0 1-.235-1.04l-.008-.14-.009.002c.009-.052.01-.094.017-.13a1.326 1.326 0 0 1 .165.164.176.176 0 0 0 .148.05h.001a.148.148 0 0 0 .12-.111c.01-.062.03-.126.045-.19q.042-.174.102-.352.079-.234.183-.472c.031-.07.062-.138.096-.208a15.126 15.126 0 0 1 2.288-3.218.152.152 0 0 0 .019-.17.159.159 0 0 0-.16-.08 3.122 3.122 0 0 0-1.158.461 1.359 1.359 0 0 0-.127.082l-.09.05a24.377 24.377 0 0 1 2.141-4.581c.125-.201.248-.412.377-.6h3.944v.001h-.009a25.59 25.59 0 0 1 .01 5.169c-.002.02-.002.041-.005.06zM59.421 128.59a2.477 2.477 0 0 0-.144-.346 1.974 1.974 0 0 0-.194-.31 1.641 1.641 0 0 0-.15-.163 1.5 1.5 0 0 0-.335-.252c-.03-.016-.047-.044-.079-.059a1.81 1.81 0 0 0-.736-.151c-1.237 0-3.062 1.102-5.266 3.186a4.364 4.364 0 0 0-1.063-.45l-.117-.041-.076-.033a.122.122 0 0 0 .067-.107 2.721 2.721 0 0 1 .422-.916 3.531 3.531 0 0 0 .17-.31c.267-.509.558-1.012.864-1.493a12.622 12.622 0 0 1 2.262-2.733 5.775 5.775 0 0 1 3.583-1.37 3.175 3.175 0 0 1 1.555.357 2.281 2.281 0 0 1 1.226 1.628 4.598 4.598 0 0 1-.89 3.535 7.268 7.268 0 0 1-.906.972 4.2 4.2 0 0 0-.13-.74 2.651 2.651 0 0 0-.063-.204zm-7.923-57.695a9.076 9.076 0 0 1 9.066 9.066 9.278 9.278 0 0 1-1.094 4.33 9.12 9.12 0 0 1-1.812 2.313q-.303.282-.628.533l-.032.024q-.324.248-.667.466l-.03.019c-.232.145-.47.28-.712.403l-.013.006a9.065 9.065 0 1 1-4.078-17.16zm11.51 22.5c.076.095.189.235.346.423a12.923 12.923 0 0 1 2.773 4.827 4.293 4.293 0 0 1 .13 1.65 4.64 4.64 0 0 1-2.54 3.779 1.996 1.996 0 0 1-.841.169.95.95 0 0 1-.169-.01c-.997-.056-2.18-.377-2.51-1.112-.081-.171-.043-.23.054-.392a16.249 16.249 0 0 0 1.626.517 1.915 1.915 0 0 0 .51.076c.049 0 .092-.019.14-.023a1.763 1.763 0 0 0 .284-.045 1.888 1.888 0 0 0 .306-.105 2.113 2.113 0 0 0 .2-.097 5.337 5.337 0 0 0 1.908-2.65l-.011-.121a.2.2 0 0 0-.14-.08.15.15 0 0 0-.141.102c-.008.026-.948 2.718-2.555 2.718a1.485 1.485 0 0 1-.412-.066c-1.31-.366-2.185-.638-2.399-1.084a1.012 1.012 0 0 1-.036-.57.713.713 0 0 0 .02-.076l.004-.009a3.854 3.854 0 0 0 1.306.502 2.397 2.397 0 0 0 .351.034c1.62 0 2.958-1.958 3.014-2.042l.022-.098c-.011-.052-.058-.1-.145-.141l-.055.034-.045.02-.006.013-.02.012c-.23.318-1.444 1.902-2.774 1.902a1.135 1.135 0 0 1-.308-.038c-1.119-.214-1.985-.93-2.012-1.428a.513.513 0 0 1 .065-.188.519.519 0 0 1 .101-.105.962.962 0 0 1 .13-.089c.036-.02.067-.04.11-.062a3.149 3.149 0 0 0 .708.462 1.538 1.538 0 0 0 .68.151 3.617 3.617 0 0 0 2.337-1.412l.023-.092c-.007-.038-.037-.095-.146-.15l-.066.035-.034.012-.004.008-.017.009a3.385 3.385 0 0 1-2.103 1.29 1.359 1.359 0 0 1-.541-.122 2.935 2.935 0 0 1-1.049-.805c-.176-.224-.56-.783-.31-1.144a.212.212 0 0 1 .153-.09.863.863 0 0 1 .473.26 1.87 1.87 0 0 0 1.228.548 1.397 1.397 0 0 0 .35-.048 1.439 1.439 0 0 0 .937-1.053l-.02-.115c-.02-.042-.053-.063-.13-.08a.15.15 0 0 0-.14.108.759.759 0 0 0-.059.287l-.003.007a8.102 8.102 0 0 1-1.49-2.19c-.093-.38-.446-.653-1.014-.78a3.8 3.8 0 0 1 .412-2.38 1.694 1.694 0 0 0-.082-1.32 5.086 5.086 0 0 1 .9-.085c.125 0 .246.019.369.03.124.01.25.017.366.037a4.203 4.203 0 0 1 .486.119c.061.019.123.036.18.056a4.2 4.2 0 0 1 .505.213c.026.014.054.026.079.04a4.285 4.285 0 0 1 .543.34 3.743 3.743 0 0 0-.036.957c.003.036.01.072.014.108a1.792 1.792 0 0 0 .073.308 1.31 1.31 0 0 0 .105.236c.017.031.023.07.043.098zm2.313 9.765.497.41.055.091a1.9 1.9 0 0 0 .604 1.246 2.082 2.082 0 0 0 .852.453 3.661 3.661 0 0 0 .755 1.294c.238.239.452.48.599.645.138.155.18.203.194.203l.002-.003a2.462 2.462 0 0 0-.16.877v.1l-.106-.031a35.523 35.523 0 0 1-2.028-2.705 6.228 6.228 0 0 0-1.844-1.96 2.237 2.237 0 0 0 .573-.61zm8.35 4.869.06-.01a2.227 2.227 0 0 1 .927-.197 2.29 2.29 0 0 1 .857 4.42l-.077.106a.154.154 0 0 0 .041.16 2.283 2.283 0 0 1 .88 1.807 2.31 2.31 0 0 1-2.312 2.302 2.394 2.394 0 0 1-1.936-1.017c-.01-.045-.036-.073-.14-.102a.157.157 0 0 0-.13.08 2.305 2.305 0 0 1-4.342-1.085 2.396 2.396 0 0 1 .252-1.048l.01-.1a.204.204 0 0 0-.129-.111 2.417 2.417 0 0 1-1.675-2.208 2.305 2.305 0 0 1 2.302-2.302 3.123 3.123 0 0 1 .4.044l.221.031a.164.164 0 0 0 .113-.06.136.136 0 0 0 .027-.101.908.908 0 0 1-.01-.157l.01-.105a2.31 2.31 0 0 1 2.303-2.311 2.265 2.265 0 0 1 2.207 1.873.142.142 0 0 0 .142.09zm-17.9-.501-.017.002a10.33 10.33 0 0 1 2.092-6.279l.075-.08a1.445 1.445 0 0 1 .123-.127 1.56 1.56 0 0 1 .243-.253c.116-.115.239-.221.36-.326.027-.022.05-.048.078-.069a1.559 1.559 0 0 0 .628.629 1.184 1.184 0 0 0-.056.976 1.249 1.249 0 0 0 .744.582.51.51 0 0 0-.115.667c.5 1.106 2.387 1.263 2.854 1.288l.096.005a2.27 2.27 0 0 0 .97-.198 6.775 6.775 0 0 0 .72-.395 9.649 9.649 0 0 1 1.47 1.44c-3.05 1.951-8.015 2.104-9.465 2.104h-.347a1.756 1.756 0 0 0-.454.034zm1.519-7.074c-.08-.11-.16-.222-.245-.326a5.972 5.972 0 0 0-.439-.474 5.589 5.589 0 0 0-.255-.238 5.473 5.473 0 0 0-.544-.413c-.057-.038-.114-.078-.173-.114a5.365 5.365 0 0 0-.775-.397c.022-.012.034-.035.056-.048a1.089 1.089 0 0 0 .252-.217.988.988 0 0 0 .086-.12.967.967 0 0 0 .118-.28c.007-.028.028-.05.032-.078a1.045 1.045 0 0 0-.857-1.202.955.955 0 0 0-.16-.013.98.98 0 0 0-.752.365 1.059 1.059 0 0 0-.076.081 1.028 1.028 0 0 0-.813-.723.732.732 0 0 0-.372.025c-.019.004-.037.005-.056.01a1.01 1.01 0 0 0-.338.16h-.002a1.042 1.042 0 0 0-.423.678.985.985 0 0 0 .208.769 1.13 1.13 0 0 0 .144.16 8.766 8.766 0 0 0-5.632 2.433l-.02.02c-.007.009-.024.025-.03.032a8.653 8.653 0 0 0-2.436-2.323 4.04 4.04 0 0 0-.274-.172l-.089-.059a8.029 8.029 0 0 0 .891-.882l.188-.2c.135-.146.272-.295.413-.43a10.993 10.993 0 0 1 7.52-2.797 12.438 12.438 0 0 1 1.458.086 12.697 12.697 0 0 1 4.284 1.394 22.362 22.362 0 0 0 2.218 3.015 1.801 1.801 0 0 1-.803-.443 1.043 1.043 0 0 0-.722-.34.489.489 0 0 0-.345.21.73.73 0 0 0-.05.12.744.744 0 0 0-.05.12.775.775 0 0 0-.026.15.906.906 0 0 0 .005.155 1.194 1.194 0 0 0 .05.244c.015.05.033.098.054.146a2.176 2.176 0 0 0 .134.265c.04.068.081.132.12.187.03.043.049.084.083.128a.78.78 0 0 0 .133.12c.034.033.062.066.1.1l.065-.01.003.003c-.544.18-.565.555-.557.664l.014.19a3.593 3.593 0 0 0-.771.79.362.362 0 0 0-.08.099c-.01.011-.021.02-.03.032-.052-.091-.115-.167-.17-.254a6.96 6.96 0 0 0-.264-.398zm5.824 17.793a2.059 2.059 0 0 0-.827-.635 1.692 1.692 0 0 0-.614-.113 2.297 2.297 0 0 0-1.359.491 2.974 2.974 0 0 0-.716.762.853.853 0 0 0-.06.094c-.014.02-.03.039-.044.06.404-4.535-.407-6.778-1.055-8.073a2.53 2.53 0 0 0-.394-.61.228.228 0 0 0-.042-.049c-.008-.012-.014-.024-.024-.037a7.003 7.003 0 0 1 5.135 8.11zm-10.405 12.431c2.265-2.065 3.929-3.069 5.084-3.069a1.484 1.484 0 0 1 .597.121 2.137 2.137 0 0 1 .936 1.875 5.104 5.104 0 0 1-4.22 2.345 5.003 5.003 0 0 1-.658-.046.898.898 0 0 0-.088-.007 5.826 5.826 0 0 0-1.505-1.139l-.004.008-.012-.006c-.041-.026-.088-.057-.13-.082zm-.667 5.002.031.031-1.399.97-.75-1.368 1.19-.697.628.715zm-.91-1.352h-.025l-1.399.762-1.726 1-1.569-3.044c-.022-.055-.066-.081-.16-.081l-1.86.451-.673.16-.404.091 1.466-3.953a11.622 11.622 0 0 1 2.384-.235 9.875 9.875 0 0 1 6.953 2.554l-1.038 4.538-1.783-2.202c-.022-.032-.055-.04-.166-.04zm-6.19-.762 1.239-.315.641 1.144-1.212.867-.662-1.68zm-1.074-2.086-.007.029c-6.781-2.438-7.068-5.908-6.636-7.76a3.402 3.402 0 0 1 2.501-2.491 6.243 6.243 0 0 1 1.417-.18 4.893 4.893 0 0 1 2.653.78c3.004 1.911 4.162 6.757 4.297 7.367-.324-.029-.63-.046-.927-.046a11.578 11.578 0 0 0-2.505.255l-.098.07-.522 1.493zm-2.96-20.736a4.946 4.946 0 0 1 1.735.31 6.084 6.084 0 0 1 3.36 3.011 10.427 10.427 0 0 1 .854 5.264 13.708 13.708 0 0 0-5.918-3.483 6.33 6.33 0 0 0-1.712-.244 3.341 3.341 0 0 0-1.932.518.538.538 0 0 0-.21.252c0 .006-.007.008-.012.011a6.007 6.007 0 0 1 .039-3.024 3.437 3.437 0 0 1 1.8-2.156 4.407 4.407 0 0 1 1.996-.46zm-6.464-8.61a26.68 26.68 0 0 0 3.085-.974 25.952 25.952 0 0 0 3.844-1.795 12.809 12.809 0 0 0 1.822-1.24 9.151 9.151 0 0 1 3.53 3.884 21.453 21.453 0 0 1 1.455 4.808l.02.128.024.098.002.019-.271.009c-.152 0-.327-.009-.561-.02a5.91 5.91 0 0 0-1.975-.384 3.816 3.816 0 0 0-.685.065 25.068 25.068 0 0 1-8.453-3.343c-.12-.076-.242-.16-.362-.239a30.04 30.04 0 0 1-1.475-1.015zm31.194-14.447.048-.014a11.805 11.805 0 0 0-2.247 3.496 2.833 2.833 0 0 0-.112.389c-.016.056-.04.112-.054.169a4.23 4.23 0 0 0-2.99-1.183 2.609 2.609 0 0 0-.912.137 12.23 12.23 0 0 0-1.493-3.404c-.065-.096-.127-.196-.197-.287l.006.006.153-.144a5.612 5.612 0 0 1 1.198.533 1.974 1.974 0 0 1 .869.897.143.143 0 0 0 .141.1.168.168 0 0 0 .14-.093c.007-.03.455-1.068 1.108-2.327l.17-.31c.102-.182.211-.372.32-.56.07-.118.137-.234.21-.354a19.673 19.673 0 0 1 1.162 4.5.158.158 0 0 0 .144.14l.048-.03.061-.026.01-.019.023-.015a4.382 4.382 0 0 1 1.044-1 7.425 7.425 0 0 1 1.096-.577c.02-.006.036-.016.054-.024zm-4.82 10.495-.011-.006a25.686 25.686 0 0 1-2.148-2.758l-.2-.286c-.056-.083-.1-.15-.139-.203-.009-.016-.026-.04-.033-.054.32 0 1.341.046 1.488.612a6.98 6.98 0 0 0 1.609 2.304.921.921 0 0 1-.568.382l.002.009zm-2.975-11.34-.003.004-.004-.003.003-.002zm1.228-.031a.626.626 0 0 0-.01.17c-.002.022-.008.044-.008.066a5.952 5.952 0 0 0-.98-.415 9.046 9.046 0 0 0 1.202-1.48 12.888 12.888 0 0 0-.204 1.659zm4.409 2.025-.049.08-.012.013a19.89 19.89 0 0 0-1.23-4.516.15.15 0 0 0-.143-.09l-.054.03-.047.017-.009.014-.017.01a21.124 21.124 0 0 0-1.71 3.233l-.089.191-.027.083-.023.05a2.01 2.01 0 0 0-.803-.733 22.991 22.991 0 0 1 .414-2.583c.005-.022-.016-.041-.025-.062-.005-.016-.001-.033-.012-.047l.008.004a8.784 8.784 0 0 0 .745-1.778l6.426-.004a22.789 22.789 0 0 0-2.525 5.307 3.15 3.15 0 0 0-.818.781zm-24.132 6.963 6.61-8.191.05-.062-.004.005a9.39 9.39 0 0 0 11.463-.37 11.601 11.601 0 0 1 1.641 3.675 2.075 2.075 0 0 1 .095 1.242 3.693 3.693 0 0 0-.423 1.253l-.01.058c-.009.062-.014.125-.02.189-.007.07-.014.14-.017.212l.002.12c0 .086 0 .172.008.259a2.863 2.863 0 0 0 .056.364c.001.02.005.038.007.059a4.64 4.64 0 0 0-.563-.038l-.164.001-.024.024-.075.04-.01.02a.203.203 0 0 0-.014.038 13.72 13.72 0 0 0-4.024-1.232 13.467 13.467 0 0 0-1.495-.084 11.286 11.286 0 0 0-7.73 2.886c-.18.165-.346.349-.51.53l-.102.11c-.3.338-.581.64-.842.89a28.628 28.628 0 0 0-1.73-1.023 14.414 14.414 0 0 0-2-.902l-.142-.057zm-1.522 26.314-.004.007c-.009.011-.021.02-.03.032a.621.621 0 0 0-.104.13c-.013.017-.03.032-.043.05a8.658 8.658 0 0 1-1.096-4.145 2.325 2.325 0 0 1 .916-1.817 3.009 3.009 0 0 1 1.752-.468 6.223 6.223 0 0 1 1.641.235 14.329 14.329 0 0 1 9.7 10.122 13.46 13.46 0 0 1 .404 2.225 9.998 9.998 0 0 1 .066 1.34 10.285 10.285 0 0 0-2.622-.562c-.008-.054-1.136-5.556-4.45-7.656a5.202 5.202 0 0 0-2.813-.827 6.409 6.409 0 0 0-1.487.188 3.436 3.436 0 0 0-1.743 1.056c-.028.031-.06.058-.087.09zm10.295-14.753c.048-.001.089-.009.087-.042h.001l.016.085c-.02-.008-.04-.014-.06-.02-.014-.008-.029-.014-.044-.023zm13.566 17.55a2.616 2.616 0 0 0-1.363-1.781 3.5 3.5 0 0 0-1.676-.377 1.422 1.422 0 0 0-.475.074c-.013.005-.03.005-.042.01a.097.097 0 0 0-.037.008c.468-1.806 1.083-3.613 2.4-4.613a2.033 2.033 0 0 1 1.179-.43 1.397 1.397 0 0 1 .495.092 2.378 2.378 0 0 1 1.271 2.219 7.691 7.691 0 0 1-1.752 4.798zm-2.484-5.687a8.563 8.563 0 0 0-.86 1.806l-.01.03a13.35 13.35 0 0 0-.285.902l-.008.032c-.074.267-.147.535-.212.825a6.294 6.294 0 0 0-2.983 1.364 12.937 12.937 0 0 0-2.313 2.792 21.77 21.77 0 0 0-.906 1.582l-.137.241c-.06.094-.12.188-.173.29a9.293 9.293 0 0 0-.054-.633 15.154 15.154 0 0 0-.414-2.275 14.636 14.636 0 0 0-3.092-5.81.597.597 0 0 0-.066-.086c-.198-.224-.404-.45-.612-.666l.06-.06v-.015l.01-.012a10.806 10.806 0 0 0-.876-5.605 10.483 10.483 0 0 0-.912-1.409 12.05 12.05 0 0 1 3.286-2.769l.084-.047a9.837 9.837 0 0 1 4.937-1.38 9.74 9.74 0 0 1 1.934.207 2.59 2.59 0 0 1 1.246.608 6.078 6.078 0 0 1 1.323 1.839c.645 1.301 1.455 3.566 1.033 8.249zm-3.675-11.016a10.046 10.046 0 0 0-1.87-.188 9.325 9.325 0 0 0-4.325 1.073.564.564 0 0 0-.113.065 7.32 7.32 0 0 0-.348.18l-.085.056-.024.012a36.486 36.486 0 0 0-.207-1.81l-.056-.404a20.46 20.46 0 0 0-1.495-5.311 9.608 9.608 0 0 0-.64-1.145 9.08 9.08 0 0 1 5.79-2.394c.037 0 .074.004.113.007l.06-.004.03.001a1.032 1.032 0 0 0 .054 1.14 1.02 1.02 0 0 0 .67.415.728.728 0 0 0 .371-.025c.02-.004.04-.005.058-.01a1.012 1.012 0 0 0 .336-.158l.004-.003a1.042 1.042 0 0 0 .423-.677 1.062 1.062 0 0 0-.016-.416l.103.004a5.61 5.61 0 0 1 3.161 2.633 10.29 10.29 0 0 0-2.07 6.368 1.313 1.313 0 0 0 .076.585zm-12.04-23.403-7.16 9.47a8.898 8.898 0 0 1-2.111-1.651 10.734 10.734 0 0 1-1.734-9.885l10.064-.026a8.129 8.129 0 0 0 .428 1.104 9.463 9.463 0 0 0 .52.994l-.001.002zM36.605 94.5c-.035-.018-.07-.043-.105-.061l7.157-9.363a9.041 9.041 0 0 0 1.985 2.168c.048.039.088.088.137.125l-.005-.003-6.703 8.244a59.444 59.444 0 0 1-2.462-1.118l-.004.008zm8.138 12.533a4.015 4.015 0 0 1 .675-.065 5.66 5.66 0 0 1 1.895.375c.138.049.276.104.417.162l.146.06.39.164c.057.392.104.788.152 1.184l.077.574a12.363 12.363 0 0 0-3.376 2.849l-.001.002a6.375 6.375 0 0 0-2.364-1.565 4.372 4.372 0 0 0-1.057-.236 1.926 1.926 0 0 1-.01-.204 5.237 5.237 0 0 1 .732-1.744l.027-.034a4.007 4.007 0 0 1 .372-.47c.012-.015.029-.026.042-.04a3.383 3.383 0 0 1 1.883-1.012zm21.54-2.796a1.07 1.07 0 0 0 .614.176 1.677 1.677 0 0 0 .605-.124 3.624 3.624 0 0 0 .933-.64l.103-.084a2.47 2.47 0 0 1 .982-.572.15.15 0 0 0 .11-.18c-.02-.075-.074-.11-.178-.11h-.001a2.66 2.66 0 0 0-1.104.63l-.103.095-.099.079a3.31 3.31 0 0 1-.763.503 1.24 1.24 0 0 1-.475.102.898.898 0 0 1-.53-.167.525.525 0 0 1-.037-.042.673.673 0 0 1-.14-.223c-.008-.02-.019-.035-.026-.058a1.998 1.998 0 0 1 .056-.599 2.533 2.533 0 0 1 .262-.664 3.083 3.083 0 0 1 2.014-1.423c.05-.012.104-.017.155-.028a4.168 4.168 0 0 1 .669-.076c.054-.002.106-.009.16-.009a6.046 6.046 0 0 1 1.576.226c.507.14 1.715.568 2.028 1.51a2.427 2.427 0 0 0-.362-.026 2.884 2.884 0 0 0-1.697.632 8.22 8.22 0 0 0-.829.7l-.07.064a7.983 7.983 0 0 1-.877.739 2.404 2.404 0 0 1-1.366.458 1.815 1.815 0 0 1-1.215-.44 3.452 3.452 0 0 1-.287-.31l-.101-.122z"/><path class="cls-1" d="M75.95 78.85v2.22H60.87l-.03.25H76.2V78.6H60.84l.03.25zm-33.8 2.47-.03-.25H27.05v-2.22h15.07l.03-.25H26.8v2.72z"/><path class="cls-2" d="m51.878 25.391 1.203-.696-.751-1.39-1.41.977.038.038.92 1.071zm6.183 1.052-.085-.244-.582-1.475-1.222.873.639 1.156 1.25-.31z"/><path class="cls-3" d="m58.22 30.295 1.476-3.965-1.09.245-1.86.45h-.02a.123.123 0 0 1-.13-.075l-1.57-3.044-.178.094-1.56.902-1.4.761h-.075c-.057 0-.085-.01-.104-.037l-1.794-2.218-1.043 4.557a9.892 9.892 0 0 0 6.962 2.565 11.606 11.606 0 0 0 2.387-.235z"/><path class="cls-4" d="M44.606 32.278a1.493 1.493 0 0 0 .602.122c1.165 0 2.865-1.043 5.092-3.072-.047-.029-.103-.066-.15-.094a5.873 5.873 0 0 1-1.504-1.137 6.21 6.21 0 0 0-.751-.057 5.12 5.12 0 0 0-4.228 2.35c.028.422.15 1.521.94 1.888zm20.596 5.562a.052.052 0 0 1-.028.047 3.42 3.42 0 0 1-1.833 1.137 6.363 6.363 0 0 1-1.484.188 5.187 5.187 0 0 1-2.81-.827c-3.307-2.095-4.434-7.592-4.444-7.648a10.608 10.608 0 0 1-2.64-.573 10.116 10.116 0 0 0 .066 1.353 13.386 13.386 0 0 0 .404 2.227 14.345 14.345 0 0 0 9.706 10.128 6.197 6.197 0 0 0 1.644.235 3.013 3.013 0 0 0 1.757-.47 2.326 2.326 0 0 0 .92-1.822 8.703 8.703 0 0 0-1.099-4.153.95.95 0 0 1-.16.178z"/><path class="cls-4" d="m59.132 28.52-.705 1.973-.094.065a11.559 11.559 0 0 1-2.499.254c-.3 0-.61-.019-.94-.047.142.639 1.307 5.478 4.304 7.385a4.903 4.903 0 0 0 2.659.78 6.242 6.242 0 0 0 1.419-.179 3.41 3.41 0 0 0 2.508-2.499c.432-1.85.15-5.327-6.643-7.77zm-16.32 8.09a3.186 3.186 0 0 0 1.56.356 5.788 5.788 0 0 0 3.588-1.371 12.692 12.692 0 0 0 2.265-2.735c.291-.46.582-.958.864-1.494.038-.084.104-.197.17-.31a2.71 2.71 0 0 0 .422-.92.116.116 0 0 1 .066-.104l-.197-.084a4.354 4.354 0 0 1-1.062-.451c-2.246 2.114-4.04 3.185-5.271 3.185a1.821 1.821 0 0 1-.733-.15 2.404 2.404 0 0 1-1.09-2.086 7.369 7.369 0 0 0-.92.986 4.597 4.597 0 0 0-.893 3.542 2.299 2.299 0 0 0 1.23 1.635z"/><path class="cls-5" d="M48.637 61.394a.953.953 0 0 1 .115-.005 1.052 1.052 0 0 1-.016-.415 1.028 1.028 0 1 1 1.897.68c.07.002.144.014.212.014a9.071 9.071 0 0 0 5.797-2.396 10.958 10.958 0 0 1-.639-1.156 20.504 20.504 0 0 1-1.494-5.308l-.056-.404a37.098 37.098 0 0 1-.207-1.814c-.16.085-.31.17-.47.244a.7.7 0 0 1-.112.066 9.367 9.367 0 0 1-4.322 1.071 10.091 10.091 0 0 1-1.87-.188v.029a1.396 1.396 0 0 1 .066.573 10.276 10.276 0 0 1-2.067 6.36 5.583 5.583 0 0 0 3.166 2.649z"/><path class="cls-5" d="M49.332 51.69a9.858 9.858 0 0 0 4.942-1.382l.085-.047a12.178 12.178 0 0 0 3.289-2.771l.018-.02.038-.018a6.392 6.392 0 0 1-.968-1.381 10.8 10.8 0 0 1-.874-5.6v-.028l.066-.066a20.595 20.595 0 0 1-.61-.667.514.514 0 0 1-.066-.085 14.599 14.599 0 0 1-3.092-5.806 15.046 15.046 0 0 1-.413-2.274 9.594 9.594 0 0 1-.056-.667 3.55 3.55 0 0 1-.188.32c-.066.112-.122.215-.17.3a20.918 20.918 0 0 1-.873 1.522 12.941 12.941 0 0 1-2.312 2.79 6.253 6.253 0 0 1-2.978 1.363 11.306 11.306 0 0 1-1.381 3.599.119.119 0 0 1-.01.056c-.413 4.632.395 6.896 1.043 8.202a6.1 6.1 0 0 0 1.325 1.842 2.607 2.607 0 0 0 1.25.61 9.757 9.757 0 0 0 1.935.207zm.245-11.341c.028-.047.488-.79 1.108-1.663l.019-.02.094-.046c.15.075.16.16.122.225-.507.715-.911 1.344-1.052 1.56.01 0 .019.01.028.01a9.21 9.21 0 0 0 1.39.488c.32.085.64.16.968.226a27.45 27.45 0 0 0 2.725.385.144.144 0 0 1 .132.15.143.143 0 0 1-.141.132h-.01a23.799 23.799 0 0 1-2.546-.357.55.55 0 0 1 .038.216.827.827 0 1 1-1.429-.564 7.523 7.523 0 0 1-1.39-.545l-.019-.01-.056-.075a.146.146 0 0 1 .019-.112zm-4.632.686a.62.62 0 0 1 .225-.489 2.906 2.906 0 0 1-.695-.244l-.01-.01-.056-.075a.115.115 0 0 1 .019-.113l.79-1.353a.16.16 0 0 1 .121-.065c.132.056.16.15.122.206l-.733 1.26a.473.473 0 0 0 .122.046 5.577 5.577 0 0 0 1.532.198 5.32 5.32 0 0 0 .836-.057h.01a.139.139 0 0 1 .15.123l.01.018-.029.085a.194.194 0 0 1-.094.056 6.8 6.8 0 0 1-.892.057 2.286 2.286 0 0 1-.254-.01.627.627 0 0 1 .113.367.644.644 0 0 1-1.288 0zm.873 4.585a.39.39 0 0 1 .066-.432 41.182 41.182 0 0 0 1.86-4.294.137.137 0 0 1 .132-.085c.085.019.113.047.122.085l.01.019v.084a44.403 44.403 0 0 1-1.908 4.36c-.056.084-.037.122-.028.14a2.249 2.249 0 0 0 1.616.48.141.141 0 0 1 0 .282c-.77 0-1.682-.235-1.87-.64zm1.071 2.17a.142.142 0 0 1 .141-.122c.141.01.264.019.376.019a3.046 3.046 0 0 0 2.236-.912l.02-.009.093-.037a.131.131 0 0 1 .085.028.14.14 0 0 1 .019.206 3.229 3.229 0 0 1-2.425 1.006c-.14 0-.272-.01-.422-.02a.14.14 0 0 1-.123-.159z"/><path class="cls-6" d="m47.47 47.793.303-.455.404.101.455-.404.656.152a1.05 1.05 0 0 1-1.01 1.06 1.534 1.534 0 0 1-.808-.454z"/><path class="cls-4" d="M44.569 49.162c-.658-1.315-1.457-3.58-1.053-8.08a1.827 1.827 0 0 1-.122.16.05.05 0 0 1-.028.037 2.796 2.796 0 0 1-.686.723 2.298 2.298 0 0 1-1.353.489 1.677 1.677 0 0 1-.61-.113 2.045 2.045 0 0 1-.837-.648 7.015 7.015 0 0 0 5.149 8.146.631.631 0 0 1-.066-.103 2.527 2.527 0 0 1-.394-.611z"/><path class="cls-4" d="M40.829 42.115a1.424 1.424 0 0 0 .498.094 2.048 2.048 0 0 0 1.184-.432c1.325-1.005 1.935-2.81 2.405-4.623a.085.085 0 0 1-.047.01 1.326 1.326 0 0 1-.517.075 3.488 3.488 0 0 1-1.672-.376 2.609 2.609 0 0 1-1.362-1.795 7.702 7.702 0 0 0-1.767 4.82 2.38 2.38 0 0 0 1.278 2.227zm25.087 1.513a.54.54 0 0 1-.216.244 3.334 3.334 0 0 1-1.926.517 6.362 6.362 0 0 1-1.71-.244 13.695 13.695 0 0 1-5.93-3.496 10.446 10.446 0 0 0 .856 5.29 6.096 6.096 0 0 0 3.363 3.016 4.949 4.949 0 0 0 1.739.31 4.445 4.445 0 0 0 2-.46 3.447 3.447 0 0 0 1.805-2.161 6.016 6.016 0 0 0 .038-3.035c-.01.01-.02.01-.02.019z"/><path class="cls-7" d="M63.482 64.12a14.378 14.378 0 0 1-2.001-.902 28.438 28.438 0 0 1-1.729-1.024 13.3 13.3 0 0 0-.855.892c-.197.217-.394.442-.61.64a11.267 11.267 0 0 1-7.724 2.884 13.396 13.396 0 0 1-1.494-.085 13.772 13.772 0 0 1-4.021-1.23.159.159 0 0 1-.019.046l-.01.02-.103.056h-.16a4.676 4.676 0 0 1-.563-.038c0 .028.01.047.01.075a3.684 3.684 0 0 1-.414 2.443 2.09 2.09 0 0 0 .094 1.25 11.662 11.662 0 0 0 1.648 3.686 9.383 9.383 0 0 1 11.46-.377l6.67-8.251c-.057-.029-.122-.057-.179-.085zM43.92 73.187a12.64 12.64 0 0 1-.211 1.698 9.14 9.14 0 0 1 1.23-1.517 6.404 6.404 0 0 1-.99-.425 1.082 1.082 0 0 1-.029.244z"/><path class="cls-6" d="M66.395 65.501a59.153 59.153 0 0 0-2.462-1.118l-6.715 8.246a9.285 9.285 0 0 1 2.121 2.307l7.169-9.369c-.038-.019-.076-.047-.113-.066z"/><path class="cls-7" d="M38.358 72.069c-.075.047-.16.094-.235.131a3.11 3.11 0 0 1-1.155.46h-.01a.142.142 0 0 1-.122-.234c.103-.103 2.368-2.537 2.715-4.444a.141.141 0 0 1 .113-.104h.019a.148.148 0 0 1 .122.047 1.24 1.24 0 0 0 .17.17c.009-.038.009-.085.018-.142a2.36 2.36 0 0 0-.244-1.183 4.41 4.41 0 0 0-.31-.376 15.388 15.388 0 0 1-2.068-3.016.597.597 0 0 1-.065.018c-.908.318-6.497 2.493-5.424 13.861h3.944a22.466 22.466 0 0 0 2.532-5.188z"/><path class="cls-1" d="M42.718 69.447a4.22 4.22 0 0 1-2.988-1.183 4.354 4.354 0 0 1-.179.563.035.035 0 0 1-.01.028 11.755 11.755 0 0 1-2.245 3.477 1.03 1.03 0 0 0 .16-.047 7.715 7.715 0 0 0 1.062-.564 4.402 4.402 0 0 0 1.062-1.024l.009-.019.113-.047a.149.149 0 0 1 .131.132 19.888 19.888 0 0 0 1.165 4.51c.188-.31.376-.62.545-.921l.17-.31c.648-1.25 1.108-2.311 1.108-2.33a.16.16 0 0 1 .131-.085.133.133 0 0 1 .132.094 1.98 1.98 0 0 0 .874.902 5.635 5.635 0 0 0 1.203.536c.053-.05.104-.1.158-.149a11.75 11.75 0 0 1-1.68-3.694 2.912 2.912 0 0 1-.921.131z"/><path class="cls-7" d="M43.328 75.367a22.9 22.9 0 0 0 .414-2.584 2.08 2.08 0 0 1-.808-.742c-.028.056-.057.122-.094.206a2.284 2.284 0 0 1-.075.16 20.611 20.611 0 0 1-1.692 3.195l-.018.028-.104.037a.137.137 0 0 1-.131-.084 19.752 19.752 0 0 1-1.231-4.52.16.16 0 0 1-.056.057c-.01.01-.01.028-.02.037a3.125 3.125 0 0 1-.817.78 22.858 22.858 0 0 1-2.534 5.32h6.442a9.208 9.208 0 0 1 .752-1.783.119.119 0 0 1-.028-.107z"/><path class="cls-4" d="M60.25 49.218a6.367 6.367 0 0 1-2.368-1.569l-.009.01a12.325 12.325 0 0 1-3.373 2.847c.075.592.14 1.183.225 1.766.32.141.64.282.959.395a5.661 5.661 0 0 0 1.898.375 3.934 3.934 0 0 0 .676-.065c2.35-.423 2.96-2.828 3.063-3.308a1.91 1.91 0 0 0-.01-.206 4.734 4.734 0 0 1-1.06-.245z"/><path class="cls-1" d="m54.763 52.582.019.103c.01-.028.047-.037.113-.037a.853.853 0 0 0-.132-.066z"/><path class="cls-8" d="M47.258 52.471c0 .16-.01.348-.019.564a10.009 10.009 0 0 1-2.076 5.722c-.066.066-.122.14-.197.207a1.547 1.547 0 0 1-.245.253 4.522 4.522 0 0 1-.45.395 1.64 1.64 0 0 0-.63-.64 1.181 1.181 0 0 0 .056-.967 1.238 1.238 0 0 0-.752-.582.507.507 0 0 0 .123-.668c-.48-1.061-2.227-1.25-2.753-1.277-.066 0-.122-.01-.188-.01a2.297 2.297 0 0 0-.94.188c-.01 0-.019.01-.028.01a5.349 5.349 0 0 0-.714.404 9.137 9.137 0 0 1-1.466-1.438c0-.01-.01-.019-.019-.028 3.054-1.954 8.024-2.105 9.471-2.105h.348a2.286 2.286 0 0 0 .48-.028z"/><path class="cls-3" d="M47.258 52.471c0 .16-.01.348-.019.564l-.01.01s-5.345.027-8.963 1.822l.921.79c-.01 0-.019.009-.028.009a5.349 5.349 0 0 0-.714.404 9.137 9.137 0 0 1-1.466-1.438c0-.01-.01-.019-.019-.028 3.054-1.954 8.024-2.105 9.471-2.105h.348a2.286 2.286 0 0 0 .48-.028z"/><path class="cls-8" d="M68.568 57.874a27.042 27.042 0 0 0-3.092.977 25.969 25.969 0 0 0-3.842 1.794 13.602 13.602 0 0 0-1.833 1.24 14.095 14.095 0 0 1-.591-.413 8.617 8.617 0 0 1-2.941-3.476 20.408 20.408 0 0 1-1.372-4.407c-.028-.131-.056-.272-.085-.404-.01-.085-.028-.17-.037-.254l.272-.01c.16 0 .348.01.564.02a5.86 5.86 0 0 0 1.973.385 3.864 3.864 0 0 0 .686-.066 25.066 25.066 0 0 1 8.456 3.345c.61.385 1.222.808 1.842 1.269z"/><path class="cls-3" d="M68.568 57.874a27.042 27.042 0 0 0-3.092.977 25.969 25.969 0 0 0-3.842 1.794 13.602 13.602 0 0 0-1.833 1.24 14.095 14.095 0 0 1-.591-.413c2.461-2.433 7.3-3.74 7.3-3.74-4.895-4.274-11.613-4.143-11.613-4.143-.028-.131-.056-.272-.085-.404-.01-.085-.028-.17-.037-.254l.272-.01c.16 0 .348.01.564.02a5.86 5.86 0 0 0 1.973.385 3.864 3.864 0 0 0 .686-.066 25.066 25.066 0 0 1 8.456 3.345c.61.385 1.222.808 1.842 1.269z"/><path class="cls-9" d="M42.2 61.818h-.018a.929.929 0 0 0-.573.385 7.086 7.086 0 0 1 1.607 2.312c.14.545 1.08.62 1.503.62a4.712 4.712 0 0 0-.17-.273 28.41 28.41 0 0 0-2.348-3.044z"/><path class="cls-5" d="M59.15 61.724a8.448 8.448 0 0 1-2.367-2.274c-.01 0-.019.02-.038.028v.01a8.86 8.86 0 0 1-5.658 2.445 1.026 1.026 0 1 1-1.638 1.079 1.02 1.02 0 0 1-.994.432 1.03 1.03 0 0 1-.304-1.932 5.797 5.797 0 0 1-2.868-2.625.809.809 0 0 1-.122.131 3.622 3.622 0 0 1-.77.79c0 .056.008.13.008.197.01.14-.037.488-.554.657l.01.01.065-.01a2.54 2.54 0 0 1 .226.226c.216.282.695.977.32 1.503a.486.486 0 0 1-.339.207h-.01a1.032 1.032 0 0 1-.704-.338 1.795 1.795 0 0 0-.836-.451 22.382 22.382 0 0 1 2.236 3.034 12.975 12.975 0 0 0 4.294 1.4 12.74 12.74 0 0 0 1.456.085 11.002 11.002 0 0 0 7.526-2.8c.207-.197.404-.423.601-.63a7.956 7.956 0 0 1 .893-.883 8.253 8.253 0 0 1-.366-.244.395.395 0 0 1-.066-.047z"/><path class="cls-7" d="M68.79 67.37a8.935 8.935 0 0 0-2.113-1.653l-7.172 9.473a9.474 9.474 0 0 1 .939 2.1l10.08-.02a10.015 10.015 0 0 0 .418-1.819 10.16 10.16 0 0 0-2.151-8.08z"/><path class="cls-10" d="M36.094 55.88a1.22 1.22 0 0 0-.48.103 3.778 3.778 0 0 0-.864.583l-.103.094a2.66 2.66 0 0 1-1.1.63h-.009a.143.143 0 0 1-.16-.104.14.14 0 0 1 .104-.17 2.482 2.482 0 0 0 .986-.572l.104-.085a3.56 3.56 0 0 1 .93-.639 1.676 1.676 0 0 1 .601-.122 1.069 1.069 0 0 1 .62.179.456.456 0 0 0-.028-.066 5.064 5.064 0 0 0-.366-.404 1.836 1.836 0 0 0-1.222-.442 2.404 2.404 0 0 0-1.372.46 8.197 8.197 0 0 0-.911.771 8.616 8.616 0 0 1-.864.733 2.887 2.887 0 0 1-1.692.63 2.436 2.436 0 0 1-.376-.029c.32.996 1.635 1.419 2.04 1.532a6.036 6.036 0 0 0 1.578.225 4.173 4.173 0 0 0 .986-.113 3.097 3.097 0 0 0 2.02-1.428 2.533 2.533 0 0 0 .264-.667 1.995 1.995 0 0 0 .056-.601.683.683 0 0 0-.207-.329.909.909 0 0 0-.535-.169z"/><path class="cls-9" d="M38.264 56.228v-.01a.03.03 0 0 1-.019-.01 6.494 6.494 0 0 1-1.823-1.954 35.53 35.53 0 0 0-2.029-2.706l-.122-.037v.113a2.427 2.427 0 0 1-.16.873c.028 0 .376.433.799.855a4.192 4.192 0 0 1 .77 1.335 1.639 1.639 0 0 1 .837.413 1.883 1.883 0 0 1 .6 1.24h.01l.047.094.498.414a2.598 2.598 0 0 1 .592-.62z"/><path class="cls-3" d="M31.443 46.334a1.02 1.02 0 0 0-.17.01 1.9 1.9 0 0 0-1.728 2.048 1.885 1.885 0 0 0 1.888 1.738.861.861 0 0 0 .16-.01 1.882 1.882 0 0 0 1.729-2.048 1.85 1.85 0 0 0-.667-1.297 1.87 1.87 0 0 0-1.212-.441z"/><path class="cls-5" d="M39.984 66.61a2.541 2.541 0 0 1 .197 1.7 4.176 4.176 0 0 0 2.537.846 5.04 5.04 0 0 0 .902-.084v-.01a1.735 1.735 0 0 1-.075-1.315 3.797 3.797 0 0 0 .413-2.387c-.564-.131-.92-.394-1.015-.78a8.381 8.381 0 0 0-1.494-2.198c-.01.01-.01.01-.01.019a.865.865 0 0 1-.065.281.141.141 0 0 1-.131.104c-.076-.019-.104-.038-.123-.075l-.009-.02-.01-.093a1.427 1.427 0 0 1 .93-1.043 1.413 1.413 0 0 1 .348-.047 1.86 1.86 0 0 1 1.222.545.879.879 0 0 0 .479.263.22.22 0 0 0 .16-.094c.254-.366-.132-.93-.31-1.156a2.947 2.947 0 0 0-1.053-.808 1.358 1.358 0 0 0-.545-.122c-1.09 0-2.104 1.287-2.114 1.297l-.009.019-.103.037c-.141-.075-.16-.169-.113-.225a3.65 3.65 0 0 1 2.33-1.41 1.545 1.545 0 0 1 .676.15 3.122 3.122 0 0 1 .705.461.035.035 0 0 1 .028-.01c.273-.13.395-.262.395-.44-.028-.508-.893-1.222-2.02-1.438a1.167 1.167 0 0 0-.31-.038c-1.447 0-2.734 1.841-2.79 1.917l-.01.018-.103.047c-.141-.075-.16-.16-.113-.225.056-.085 1.38-2.039 3.006-2.039a2.422 2.422 0 0 1 .367.038 3.824 3.824 0 0 1 1.287.498.647.647 0 0 0 .038-.094 1.03 1.03 0 0 0-.038-.574c-.216-.45-1.09-.723-2.405-1.09a1.521 1.521 0 0 0-.414-.065c-1.616 0-2.555 2.696-2.565 2.725a.141.141 0 0 1-.131.094.184.184 0 0 1-.132-.076l-.01-.018V59.6c.114-.301 1.072-2.913 2.829-2.913a1.893 1.893 0 0 1 .507.075 16.32 16.32 0 0 1 1.626.517c.094-.15.16-.207.066-.404-.33-.733-1.513-1.062-2.518-1.118a1.022 1.022 0 0 0-.17-.01 1.998 1.998 0 0 0-.845.17 4.657 4.657 0 0 0-2.546 3.786 4.313 4.313 0 0 0 .131 1.654 12.946 12.946 0 0 0 2.79 4.848c.142.169.254.31.33.404z"/><path class="cls-6" d="M34.12 51.21c.226.028.461.075.62.075a2.31 2.31 0 0 0 2.312-2.31 2.425 2.425 0 0 0-1.682-2.218c-.122-.047-.15-.132-.113-.198a2.41 2.41 0 0 0 .254-1.052 2.314 2.314 0 0 0-4.36-1.09.147.147 0 0 1-.122.075c-.103-.028-.122-.056-.131-.094a2.39 2.39 0 0 0-1.945-1.024 2.318 2.318 0 0 0-2.32 2.312 2.283 2.283 0 0 0 .882 1.813.146.146 0 0 1 .038.15l-.075.104a2.3 2.3 0 0 0 .864 4.434 2.233 2.233 0 0 0 .93-.197l.057-.01a.133.133 0 0 1 .131.085 2.266 2.266 0 0 0 2.218 1.88 2.318 2.318 0 0 0 2.311-2.321l.01-.104a.91.91 0 0 0-.01-.16.138.138 0 0 1 .132-.15zm-1.014-1.578a2.14 2.14 0 0 1-1.485.77 1.322 1.322 0 0 1-.188.01 2.173 2.173 0 0 1-1.4-.508 2.14 2.14 0 0 1-.77-1.484 2.162 2.162 0 0 1 .507-1.588 2.138 2.138 0 0 1 1.475-.77 1.387 1.387 0 0 1 .198-.01 2.177 2.177 0 0 1 2.16 1.992 2.115 2.115 0 0 1-.497 1.588z"/><path class="cls-1" d="M51.501 70.966a9.074 9.074 0 1 0 9.075 9.074 9.085 9.085 0 0 0-9.075-9.074zm-2.174 15.3L51.501 84l2.174 2.265zm4.817-2.243a2.961 2.961 0 0 1-2.643-1.656 2.961 2.961 0 0 1-2.642 1.656 3.013 3.013 0 0 1-.101-6.022 3.041 3.041 0 0 1-.233-1.17 2.976 2.976 0 1 1 5.952 0 3.041 3.041 0 0 1-.232 1.17 3.013 3.013 0 0 1-.101 6.022z"/><path d="M45.161 40.543a.626.626 0 0 0-.225.491.652.652 0 0 0 1.305 0 .53.53 0 0 0-.116-.345l-.003-.012a2.394 2.394 0 0 0 .25.01 6.908 6.908 0 0 0 .895-.057.205.205 0 0 0 .098-.06l.013-.062.01-.028-.003-.005.002-.013c0-.073-.071-.132-.17-.132a5.436 5.436 0 0 1-.835.056 5.672 5.672 0 0 1-1.53-.197c-.037-.007-.069-.02-.1-.029l-.015-.005.199-.36.525-.903c.01-.014 0-.034.001-.051l.019-.034c-.002-.006-.015-.01-.018-.016-.003-.008-.017-.013-.023-.021a.22.22 0 0 0-.1-.094.17.17 0 0 0-.132.07l-.787 1.352a.126.126 0 0 0-.021.121l.07.091a2.344 2.344 0 0 0 .642.216c.017.004.032.013.049.017zm-13.728 9.869a1.323 1.323 0 0 0 .188-.01 2.14 2.14 0 0 0 1.485-.77 2.115 2.115 0 0 0 .498-1.588 2.177 2.177 0 0 0-2.161-1.992 1.387 1.387 0 0 0-.198.01 2.138 2.138 0 0 0-1.475.77 2.162 2.162 0 0 0-.507 1.588 2.14 2.14 0 0 0 .77 1.484 2.173 2.173 0 0 0 1.4.508zm-1.447-3.402a1.847 1.847 0 0 1 1.288-.667 1.021 1.021 0 0 1 .169-.01 1.87 1.87 0 0 1 1.212.442 1.85 1.85 0 0 1 .667 1.297 1.882 1.882 0 0 1-1.729 2.048.861.861 0 0 1-.16.01 1.885 1.885 0 0 1-1.888-1.738 1.86 1.86 0 0 1 .441-1.382zM54.245 78a3.04 3.04 0 0 0 .232-1.17 2.976 2.976 0 1 0-5.952 0 3.04 3.04 0 0 0 .233 1.17 3.013 3.013 0 0 0 .1 6.023 2.961 2.961 0 0 0 2.643-1.656 2.961 2.961 0 0 0 2.643 1.656 3.013 3.013 0 0 0 .1-6.022z"/><path d="M49.327 86.266h4.348l-2.174-2.265-2.174 2.265zM47.03 47.659a.152.152 0 0 0-.15.13.133.133 0 0 0 .063.123.136.136 0 0 0 .069.038l.04.002c.013.002.016.01.032.012.12.008.233.014.35.014a3.207 3.207 0 0 0 2.432-1.008.155.155 0 0 0 .028-.11v-.007a.158.158 0 0 0-.048-.102l-.088-.033-.125.055a3.042 3.042 0 0 1-2.227.904c-.098 0-.205-.007-.375-.018zm-1.22-2.035c.186.404 1.102.644 1.878.644a.15.15 0 0 0 0-.3 2.243 2.243 0 0 1-1.608-.475c-.008-.017-.025-.05.028-.13a27.564 27.564 0 0 0 1.845-4.201l.063-.16-.008-.11c-.013-.048-.052-.074-.132-.092a.148.148 0 0 0-.14.09 42.108 42.108 0 0 1-1.859 4.293.396.396 0 0 0-.067.44zm4.91-4.636c.099.033.193.07.295.1a.827.827 0 0 0-.226.566.837.837 0 0 0 .836.836.827.827 0 0 0 .836-.836.367.367 0 0 0-.035-.146.442.442 0 0 0-.01-.06 23.357 23.357 0 0 0 2.554.357.15.15 0 0 0 .15-.14c.005-.046-.026-.086-.078-.119a.155.155 0 0 0-.063-.032l-.034-.003c-.013-.003-.017-.01-.033-.012a26.855 26.855 0 0 1-2.656-.38 16.223 16.223 0 0 1-.966-.225 11.373 11.373 0 0 1-1.18-.394c-.07-.03-.148-.055-.214-.085a.05.05 0 0 1-.019-.007l.064-.099a42.7 42.7 0 0 1 .987-1.459.13.13 0 0 0 .015-.104.244.244 0 0 0-.15-.134l-.115.068a32.88 32.88 0 0 0-1.109 1.663.152.152 0 0 0-.019.124l.078.087a6.397 6.397 0 0 0 1.091.434z"/><path d="m77.23 77.248-6.403.013a10.826 10.826 0 0 0 .407-1.77 10.442 10.442 0 0 0-2.229-8.315 9.233 9.233 0 0 0-2.267-1.758 26.01 26.01 0 0 0-2.568-1.25l-.13-.056c-.753-.33-1.624-.718-2.413-1.156l-.41-.225a33.913 33.913 0 0 0-1.028-.554 4.548 4.548 0 0 0-.142-.077c-.017-.011-.034-.02-.051-.032a19.065 19.065 0 0 1 1.78-1.172c.12-.069.25-.136.374-.204q.5-.276 1.034-.536.428-.209.88-.408.499-.221 1.022-.43c.165-.065.326-.133.495-.197a24.662 24.662 0 0 1 3.288-1.015.168.168 0 0 0 .11-.12.158.158 0 0 0-.06-.15 24.604 24.604 0 0 0-8.468-4.305c-.45-.132-.871-.23-1.273-.315-.14-.031-.284-.066-.416-.095a4.606 4.606 0 0 0 2.841-3.383c.008-.026.011-.08-.055-.233l-.001-.005.13.019a3.022 3.022 0 0 0 .415.037 4.78 4.78 0 0 0 2.137-.49 3.765 3.765 0 0 0 1.95-2.344 5.886 5.886 0 0 0-.04-3.247 2.858 2.858 0 0 0 .613-1.64 8.452 8.452 0 0 0-1.203-4.337 3.718 3.718 0 0 0 .517-1.187c.433-1.806.252-5.205-5.822-7.668a12.11 12.11 0 0 0-.915-.342l-.056-.022.77-2.03a.144.144 0 0 0-.03-.15c-.02-.032-.063-.05-.14-.05l-1.55.381-.724-1.982a.167.167 0 0 0-.104-.09l-.125.02-1.25.969-.015.01-.864-1.671a.135.135 0 0 0-.094-.08l-.106.01-1.726 1-.798-1.588a.137.137 0 0 0-.105-.08l-.106.02-1.455 1.073-.026.02-.865-1.062c-.022-.033-.065-.05-.15-.05a.167.167 0 0 0-.111.11l-1.042 4.756a3.652 3.652 0 0 0-.753-.066 5.1 5.1 0 0 0-4.029 1.995 2.774 2.774 0 0 0-.241.308l-.094-.056-.105.029a8.131 8.131 0 0 0-1.195 1.233 4.99 4.99 0 0 0-.996 3.42 8.048 8.048 0 0 0-1.974 5.23c.003.056.02.098.024.152a3.588 3.588 0 0 0 .087.54c.019.076.04.149.065.22a1.993 1.993 0 0 0 .233.493c.011.015.015.038.026.053l-.053.066-.016.016-.002.007-.016.02a7.332 7.332 0 0 0 5.564 8.736 5.76 5.76 0 0 0 .761.875 3.34 3.34 0 0 0 1.29.678 2.694 2.694 0 0 0 .07.46v.001a25.48 25.48 0 0 0-.996-.019c-1.445 0-6.392.157-9.436 2.175 0 0-.158-.207-.205-.283a25.072 25.072 0 0 0-1.763-2.344 6.753 6.753 0 0 0-.155-.178 2.605 2.605 0 0 0 2.595-2.602 2.547 2.547 0 0 0-1.766-2.384l-.02-.008a2.597 2.597 0 0 0-2.367-3.678 2.384 2.384 0 0 0-1.99 1.019 1.301 1.301 0 0 0-.116.188c-.01.015-.022.029-.03.045a2.606 2.606 0 0 0-4.713 1.53 2.405 2.405 0 0 0 .726 1.726 1.011 1.011 0 0 1 .08.074.265.265 0 0 0 .06.044l.02.019a2.567 2.567 0 0 0-1.487 2.318 2.605 2.605 0 0 0 2.602 2.602 1.593 1.593 0 0 0 .82-.195c.014-.008.032-.01.046-.018a2.556 2.556 0 0 0 2.47 1.979 2.453 2.453 0 0 0 2.15-1.226l.056-.104a.659.659 0 0 0 .057-.134l.015-.03.164.182c.151.171.357.405.586.633a3.695 3.695 0 0 1 .518.742c.048.082.09.155.129.216l.008-.006.014.034.02.06a1.514 1.514 0 0 0-.279-.018 2.682 2.682 0 0 0-1.546.5 8.933 8.933 0 0 0-.94.798c-.085.078-.173.157-.261.235-.1.09-.202.176-.307.262-.088.074-.176.15-.267.217a3.48 3.48 0 0 1-.78.432l-.016.006a2.33 2.33 0 0 1-.36.104c-.015.003-.032.003-.048.006a1.886 1.886 0 0 1-.323.033 1.374 1.374 0 0 1-.137-.014 2.143 2.143 0 0 1-.294-.049l-.133-.03a.161.161 0 0 0-.101.032l-.035.097-.004.01v.004l-.01.027c.21 1.287 1.678 1.82 2.3 1.99a6.6 6.6 0 0 0 1.655.234 4.784 4.784 0 0 0 1.055-.113 3.434 3.434 0 0 0 2.205-1.574 3.023 3.023 0 0 0 .301-.79.322.322 0 0 0 .023-.227c-.003-.01.001-.02-.003-.03v-.008l.37.24.026.017a5.73 5.73 0 0 0-1.045 2.682 4.528 4.528 0 0 0 .15 1.761 6.601 6.601 0 0 0 .571 1.422c.044.085.076.174.125.257a.08.08 0 0 1 .013.02c-.708.208-6.8 2.353-5.704 14.113H25.77a.148.148 0 0 0-.15.15v5.28a.148.148 0 0 0 .15.15l16.78-.04a9.439 9.439 0 0 0 8.952 6.616 9.31 9.31 0 0 0 8.896-6.576H77.23a.148.148 0 0 0 .15-.15v-5.28a.148.148 0 0 0-.15-.15zm-45.345-5.22c.049-.43.114-.832.185-1.221.013-.07.023-.144.036-.211.07-.36.154-.694.243-1.02.022-.08.04-.165.063-.243.092-.313.192-.606.298-.889.026-.07.05-.142.077-.21.112-.284.231-.55.356-.804.023-.047.045-.097.069-.143q.203-.4.421-.749l.036-.058a7.356 7.356 0 0 1 3.694-3.098 15.331 15.331 0 0 0 2.068 3.018 4.516 4.516 0 0 1 .31.375 2.016 2.016 0 0 1 .235 1.04l.008.14.009-.002c-.009.052-.01.094-.017.13a1.326 1.326 0 0 1-.165-.164.176.176 0 0 0-.148-.05h-.001a.147.147 0 0 0-.12.111c-.01.062-.03.126-.045.19q-.042.174-.102.352-.079.235-.183.472c-.031.07-.062.138-.096.208a15.127 15.127 0 0 1-2.288 3.218.152.152 0 0 0-.019.17.159.159 0 0 0 .16.08 3.122 3.122 0 0 0 1.158-.46 1.359 1.359 0 0 0 .127-.083l.09-.05a24.375 24.375 0 0 1-2.141 4.581c-.125.201-.248.412-.377.6h-3.944v-.001h.009a25.591 25.591 0 0 1-.01-5.169c.002-.02.002-.041.005-.06zM43.58 31.41a2.477 2.477 0 0 0 .144.346 1.975 1.975 0 0 0 .194.31 1.642 1.642 0 0 0 .15.163 1.501 1.501 0 0 0 .335.252c.03.016.047.044.079.059a1.81 1.81 0 0 0 .736.151c1.237 0 3.062-1.102 5.266-3.186a4.365 4.365 0 0 0 1.063.45l.117.041.076.033a.122.122 0 0 0-.067.107 2.721 2.721 0 0 1-.422.916 3.53 3.53 0 0 0-.17.31 21.633 21.633 0 0 1-.864 1.493 12.622 12.622 0 0 1-2.262 2.733 5.775 5.775 0 0 1-3.583 1.37 3.175 3.175 0 0 1-1.555-.357 2.281 2.281 0 0 1-1.226-1.628 4.598 4.598 0 0 1 .89-3.535 7.268 7.268 0 0 1 .906-.972 4.2 4.2 0 0 0 .129.74c.018.068.04.136.064.204zm7.923 57.695a9.076 9.076 0 0 1-9.066-9.066 9.278 9.278 0 0 1 1.094-4.33 9.12 9.12 0 0 1 1.812-2.313q.303-.282.628-.533l.031-.024q.325-.248.668-.466l.03-.019a9.03 9.03 0 0 1 .712-.403l.013-.006a9.065 9.065 0 1 1 4.078 17.16zm-11.51-22.5a23.31 23.31 0 0 0-.346-.423 12.923 12.923 0 0 1-2.773-4.827 4.293 4.293 0 0 1-.131-1.65 4.64 4.64 0 0 1 2.54-3.779 1.996 1.996 0 0 1 .842-.169.949.949 0 0 1 .169.01c.997.056 2.18.377 2.51 1.112.081.171.043.23-.054.392a16.249 16.249 0 0 0-1.626-.517 1.916 1.916 0 0 0-.51-.075c-.049 0-.092.018-.14.022a1.763 1.763 0 0 0-.284.045 1.89 1.89 0 0 0-.306.105 2.117 2.117 0 0 0-.2.097 5.337 5.337 0 0 0-1.908 2.65l.011.121a.2.2 0 0 0 .14.08.15.15 0 0 0 .141-.102c.008-.026.948-2.718 2.555-2.718a1.485 1.485 0 0 1 .412.066c1.31.366 2.185.638 2.399 1.084a1.012 1.012 0 0 1 .036.57.713.713 0 0 0-.02.076l-.004.009a3.854 3.854 0 0 0-1.306-.502 2.397 2.397 0 0 0-.351-.034c-1.62 0-2.958 1.958-3.014 2.042l-.022.098c.011.052.058.1.145.141l.055-.034.045-.02.006-.013.02-.012c.23-.318 1.444-1.902 2.774-1.902a1.134 1.134 0 0 1 .308.038c1.119.214 1.985.93 2.012 1.428a.514.514 0 0 1-.065.188.52.52 0 0 1-.101.105.963.963 0 0 1-.13.089c-.036.02-.067.04-.11.062a3.15 3.15 0 0 0-.708-.462 1.538 1.538 0 0 0-.68-.151 3.617 3.617 0 0 0-2.337 1.412l-.023.092c.007.038.037.095.146.15l.066-.035.034-.012.004-.008.017-.009a3.386 3.386 0 0 1 2.103-1.29 1.359 1.359 0 0 1 .54.122 2.935 2.935 0 0 1 1.05.805c.176.224.56.783.31 1.144a.212.212 0 0 1-.153.09.863.863 0 0 1-.473-.26 1.87 1.87 0 0 0-1.228-.548 1.397 1.397 0 0 0-.35.048 1.439 1.439 0 0 0-.937 1.053l.02.115c.02.042.053.063.13.08a.15.15 0 0 0 .14-.108.759.759 0 0 0 .059-.287l.003-.007a8.102 8.102 0 0 1 1.49 2.19c.093.38.446.653 1.014.78a3.8 3.8 0 0 1-.412 2.38 1.694 1.694 0 0 0 .082 1.32 5.086 5.086 0 0 1-.901.085c-.124 0-.245-.019-.368-.03-.124-.01-.25-.017-.366-.037a4.205 4.205 0 0 1-.487-.119c-.06-.019-.123-.036-.18-.056a4.2 4.2 0 0 1-.504-.213c-.026-.014-.054-.026-.079-.04a4.283 4.283 0 0 1-.543-.34 3.743 3.743 0 0 0 .036-.957c-.003-.037-.01-.072-.015-.108a1.793 1.793 0 0 0-.073-.308 1.31 1.31 0 0 0-.104-.236c-.017-.031-.023-.07-.043-.098zM37.68 56.84l-.497-.41-.055-.091a1.9 1.9 0 0 0-.604-1.246 2.082 2.082 0 0 0-.852-.453 3.661 3.661 0 0 0-.755-1.294c-.238-.239-.452-.48-.599-.645-.138-.155-.18-.203-.194-.203l-.002.003a2.462 2.462 0 0 0 .16-.877v-.1l.106.031c.008.01 1.126 1.349 2.028 2.705a6.227 6.227 0 0 0 1.844 1.96 2.237 2.237 0 0 0-.573.61zm-8.35-4.869-.06.01a2.227 2.227 0 0 1-.927.197 2.29 2.29 0 0 1-.857-4.42l.077-.106a.154.154 0 0 0-.041-.16 2.283 2.283 0 0 1-.88-1.807 2.31 2.31 0 0 1 2.312-2.302A2.394 2.394 0 0 1 30.89 44.4c.01.045.036.073.14.102a.157.157 0 0 0 .13-.08 2.305 2.305 0 0 1 4.342 1.085 2.396 2.396 0 0 1-.252 1.048l-.01.1a.204.204 0 0 0 .129.111 2.417 2.417 0 0 1 1.675 2.208 2.305 2.305 0 0 1-2.302 2.302 3.12 3.12 0 0 1-.4-.044l-.221-.031a.165.165 0 0 0-.113.06.136.136 0 0 0-.027.101.907.907 0 0 1 .01.157l-.01.105a2.31 2.31 0 0 1-2.303 2.311 2.265 2.265 0 0 1-2.207-1.873.142.142 0 0 0-.142-.09zm17.9.501.017-.002a10.33 10.33 0 0 1-2.092 6.279l-.075.08a1.442 1.442 0 0 1-.123.127 1.56 1.56 0 0 1-.243.253 7.642 7.642 0 0 1-.36.326c-.027.022-.05.048-.078.069a1.559 1.559 0 0 0-.628-.629 1.184 1.184 0 0 0 .056-.976 1.249 1.249 0 0 0-.744-.582.51.51 0 0 0 .115-.667c-.5-1.107-2.387-1.263-2.854-1.288l-.096-.005a2.27 2.27 0 0 0-.97.198 6.774 6.774 0 0 0-.72.395 9.648 9.648 0 0 1-1.47-1.44c3.05-1.951 8.015-2.104 9.465-2.104h.347a1.756 1.756 0 0 0 .454-.034zm-1.519 7.074c.08.11.16.222.245.326a5.972 5.972 0 0 0 .439.474c.083.082.167.163.255.238a5.47 5.47 0 0 0 .544.413c.057.038.114.078.173.114a5.367 5.367 0 0 0 .775.397c-.022.012-.034.035-.056.048a1.089 1.089 0 0 0-.252.217.987.987 0 0 0-.086.12.967.967 0 0 0-.118.28c-.007.028-.028.05-.032.078a1.045 1.045 0 0 0 .857 1.202.954.954 0 0 0 .16.013.98.98 0 0 0 .752-.365 1.06 1.06 0 0 0 .076-.081 1.028 1.028 0 0 0 .813.723.732.732 0 0 0 .372-.025c.019-.004.037-.005.056-.01a1.011 1.011 0 0 0 .338-.16h.002a1.042 1.042 0 0 0 .423-.678.985.985 0 0 0-.208-.769 1.128 1.128 0 0 0-.144-.16 8.766 8.766 0 0 0 5.632-2.433l.02-.02c.007-.009.024-.025.03-.032a8.653 8.653 0 0 0 2.436 2.323c.092.063.183.119.274.172l.089.059a8.028 8.028 0 0 0-.891.882l-.188.2c-.135.146-.272.295-.413.43a10.993 10.993 0 0 1-7.52 2.797 12.438 12.438 0 0 1-1.458-.086 12.697 12.697 0 0 1-4.284-1.394 22.362 22.362 0 0 0-2.218-3.015 1.801 1.801 0 0 1 .803.443 1.043 1.043 0 0 0 .722.34.489.489 0 0 0 .345-.21.731.731 0 0 0 .05-.12.743.743 0 0 0 .05-.12.776.776 0 0 0 .026-.15.907.907 0 0 0-.005-.155 1.193 1.193 0 0 0-.05-.244 1.606 1.606 0 0 0-.054-.146 2.172 2.172 0 0 0-.134-.265 3.027 3.027 0 0 0-.12-.187c-.03-.043-.049-.084-.083-.128a.78.78 0 0 0-.133-.12c-.034-.033-.062-.066-.1-.1l-.065.01-.003-.003c.544-.18.565-.555.557-.664l-.014-.19a3.594 3.594 0 0 0 .771-.79.362.362 0 0 0 .08-.099c.01-.011.021-.02.03-.032.052.091.115.167.17.254.086.14.174.273.264.398zm-5.824-17.793a2.059 2.059 0 0 0 .827.635 1.692 1.692 0 0 0 .614.112 2.297 2.297 0 0 0 1.359-.49 2.974 2.974 0 0 0 .716-.762.851.851 0 0 0 .06-.094l.044-.06c-.404 4.535.407 6.778 1.055 8.072a2.53 2.53 0 0 0 .394.61.227.227 0 0 0 .042.05c.008.012.014.024.024.037a7.003 7.003 0 0 1-5.135-8.11zm10.405-12.431c-2.265 2.065-3.929 3.069-5.084 3.069a1.484 1.484 0 0 1-.597-.121 2.137 2.137 0 0 1-.936-1.875 5.104 5.104 0 0 1 4.22-2.345 5.002 5.002 0 0 1 .658.046.9.9 0 0 0 .088.007 5.825 5.825 0 0 0 1.505 1.139l.004-.008.012.006c.041.026.088.057.13.082zm.667-5.002-.031-.031 1.399-.97.75 1.368-1.19.697-.628-.715zm.91 1.352h.025l1.399-.762 1.726-1 1.569 3.044c.022.055.066.081.16.081l1.86-.451.673-.16.404-.091-1.466 3.953a11.621 11.621 0 0 1-2.384.235 9.875 9.875 0 0 1-6.953-2.554l1.038-4.538 1.783 2.202c.022.032.055.04.166.04zm6.19.762-1.239.315-.641-1.144 1.212-.867.662 1.68zm1.074 2.086.007-.029c6.781 2.438 7.068 5.908 6.636 7.76a3.402 3.402 0 0 1-2.501 2.491 6.244 6.244 0 0 1-1.417.18 4.893 4.893 0 0 1-2.653-.78c-3.004-1.911-4.162-6.757-4.297-7.367.324.029.63.046.927.046a11.58 11.58 0 0 0 2.505-.255l.098-.07.522-1.493zm2.96 20.736a4.945 4.945 0 0 1-1.735-.31 6.084 6.084 0 0 1-3.36-3.011 10.427 10.427 0 0 1-.854-5.264 13.708 13.708 0 0 0 5.918 3.483 6.33 6.33 0 0 0 1.712.244 3.341 3.341 0 0 0 1.933-.518.538.538 0 0 0 .21-.252c0-.006.006-.008.01-.011a6.007 6.007 0 0 1-.038 3.024 3.437 3.437 0 0 1-1.8 2.156 4.407 4.407 0 0 1-1.996.46zm6.464 8.61a26.68 26.68 0 0 0-3.085.974 25.952 25.952 0 0 0-3.844 1.795 12.808 12.808 0 0 0-1.822 1.24 9.151 9.151 0 0 1-3.53-3.884 21.454 21.454 0 0 1-1.455-4.808l-.02-.128-.024-.098-.002-.019.271-.009c.152 0 .327.009.561.02a5.91 5.91 0 0 0 1.975.384 3.816 3.816 0 0 0 .685-.065 25.068 25.068 0 0 1 8.453 3.343c.12.076.242.16.362.239.49.32.978.647 1.475 1.015zM37.362 72.312l-.048.014a11.805 11.805 0 0 0 2.247-3.496 2.833 2.833 0 0 0 .112-.389c.016-.056.04-.112.054-.169a4.23 4.23 0 0 0 2.99 1.183 2.609 2.609 0 0 0 .912-.137 12.23 12.23 0 0 0 1.493 3.404c.065.096.127.196.197.287l-.006-.006-.153.144a5.612 5.612 0 0 1-1.198-.534 1.974 1.974 0 0 1-.869-.896.143.143 0 0 0-.141-.1.168.168 0 0 0-.14.093 33.26 33.26 0 0 1-1.108 2.327l-.17.31c-.102.182-.211.372-.32.56-.07.118-.137.234-.21.354a19.674 19.674 0 0 1-1.162-4.5.158.158 0 0 0-.144-.14l-.048.03-.061.026-.01.019-.023.015a4.382 4.382 0 0 1-1.044 1 7.426 7.426 0 0 1-1.096.577c-.02.006-.036.016-.054.024zm4.82-10.495.011.006a25.685 25.685 0 0 1 2.148 2.758l.2.286c.056.083.1.15.139.203l.033.054c-.32 0-1.341-.046-1.488-.612a6.98 6.98 0 0 0-1.609-2.304.921.921 0 0 1 .568-.382l-.002-.009zm2.975 11.34.003-.004.004.003-.003.002zm-1.228.031a.626.626 0 0 0 .01-.17c.002-.022.008-.044.008-.066a5.952 5.952 0 0 0 .98.415 9.046 9.046 0 0 0-1.202 1.48 12.886 12.886 0 0 0 .204-1.659zm-4.409-2.025.049-.08.012-.013a19.89 19.89 0 0 0 1.23 4.516.15.15 0 0 0 .143.09l.054-.03.047-.017.009-.014.017-.01a21.123 21.123 0 0 0 1.71-3.233l.089-.191.027-.083.023-.05a2.01 2.01 0 0 0 .803.733 22.993 22.993 0 0 1-.414 2.583c-.005.022.016.041.025.062.005.016 0 .033.012.047l-.008-.004a8.785 8.785 0 0 0-.745 1.778l-6.426.004a22.789 22.789 0 0 0 2.525-5.307 3.15 3.15 0 0 0 .818-.781zM63.652 64.2l-6.61 8.191-.05.062.004-.005a9.39 9.39 0 0 0-11.463.37 11.602 11.602 0 0 1-1.641-3.675 2.075 2.075 0 0 1-.095-1.242 3.693 3.693 0 0 0 .423-1.253l.01-.058c.009-.062.014-.125.02-.189.007-.07.014-.14.017-.212l-.002-.12c0-.086 0-.172-.008-.259a2.86 2.86 0 0 0-.056-.364c-.001-.02-.005-.038-.007-.059a4.64 4.64 0 0 0 .563.038l.164-.001.024-.024.075-.04.01-.02a.202.202 0 0 0 .014-.038 13.72 13.72 0 0 0 4.024 1.232 13.467 13.467 0 0 0 1.495.084 11.286 11.286 0 0 0 7.73-2.886c.18-.165.346-.349.51-.53l.102-.11c.3-.338.581-.64.842-.89.494.319 1.043.644 1.73 1.023a14.416 14.416 0 0 0 2 .902l.142.057zm1.522-26.314.004-.007.03-.032a.621.621 0 0 0 .104-.13c.013-.017.03-.031.043-.05a8.658 8.658 0 0 1 1.096 4.145 2.325 2.325 0 0 1-.916 1.817 3.009 3.009 0 0 1-1.752.468 6.224 6.224 0 0 1-1.641-.235 14.329 14.329 0 0 1-9.7-10.122 13.46 13.46 0 0 1-.404-2.225 9.998 9.998 0 0 1-.066-1.34 10.284 10.284 0 0 0 2.622.562c.008.054 1.136 5.556 4.45 7.656a5.202 5.202 0 0 0 2.813.827 6.408 6.408 0 0 0 1.487-.188 3.436 3.436 0 0 0 1.743-1.056c.028-.031.06-.058.087-.09zM54.879 52.64c-.048.001-.089.009-.087.042h-.001l-.016-.085c.02.008.04.014.06.02.014.008.029.014.044.023zM41.313 35.09a2.616 2.616 0 0 0 1.363 1.781 3.5 3.5 0 0 0 1.676.377 1.422 1.422 0 0 0 .475-.074c.013-.005.03-.005.042-.01a.097.097 0 0 0 .037-.008c-.468 1.806-1.083 3.613-2.4 4.613a2.033 2.033 0 0 1-1.179.43 1.397 1.397 0 0 1-.495-.092 2.378 2.378 0 0 1-1.271-2.219 7.691 7.691 0 0 1 1.752-4.798zm2.484 5.687a8.563 8.563 0 0 0 .86-1.806l.01-.03c.1-.285.197-.584.285-.902l.008-.032c.074-.267.147-.535.212-.825a6.294 6.294 0 0 0 2.983-1.364 12.937 12.937 0 0 0 2.313-2.792c.278-.435.564-.933.906-1.582l.137-.241c.06-.094.12-.188.172-.29a9.3 9.3 0 0 0 .055.633 15.153 15.153 0 0 0 .413 2.275 14.636 14.636 0 0 0 3.093 5.81.597.597 0 0 0 .066.086c.198.224.404.45.611.666l-.059.06v.015l-.01.012a10.806 10.806 0 0 0 .876 5.605 10.48 10.48 0 0 0 .912 1.409 12.05 12.05 0 0 1-3.286 2.769l-.084.047a9.408 9.408 0 0 1-6.872 1.173 2.59 2.59 0 0 1-1.245-.608 6.078 6.078 0 0 1-1.323-1.839c-.645-1.301-1.455-3.566-1.033-8.249zm3.675 11.016a10.047 10.047 0 0 0 1.87.188 9.325 9.325 0 0 0 4.325-1.073.564.564 0 0 0 .113-.065 7.32 7.32 0 0 0 .348-.18l.085-.056.024-.012c.056.618.122 1.21.206 1.81l.057.404a20.46 20.46 0 0 0 1.495 5.311 9.608 9.608 0 0 0 .64 1.145 9.08 9.08 0 0 1-5.79 2.394c-.037 0-.074-.004-.113-.007l-.06.004-.03-.001a1.032 1.032 0 0 0-.054-1.14 1.02 1.02 0 0 0-.67-.415.728.728 0 0 0-.371.025c-.02.004-.04.005-.058.01a1.012 1.012 0 0 0-.336.158l-.004.003a1.042 1.042 0 0 0-.423.677 1.062 1.062 0 0 0 .016.416l-.103-.004a5.61 5.61 0 0 1-3.16-2.633 10.29 10.29 0 0 0 2.068-6.368 1.313 1.313 0 0 0-.075-.585zm12.04 23.403 7.16-9.47a8.897 8.897 0 0 1 2.111 1.651 10.734 10.734 0 0 1 1.734 9.885l-10.064.026a8.129 8.129 0 0 0-.428-1.104 9.463 9.463 0 0 0-.52-.994l.001-.002zm6.883-9.695c.035.018.07.043.105.061l-7.157 9.363a9.041 9.041 0 0 0-1.985-2.168c-.048-.039-.088-.088-.137-.125l.005.003 6.703-8.244a59.45 59.45 0 0 1 2.462 1.118l.004-.008zm-8.138-12.533a4.015 4.015 0 0 1-.676.065 5.661 5.661 0 0 1-1.894-.375 8.872 8.872 0 0 1-.417-.162l-.146-.06-.39-.164a48.842 48.842 0 0 1-.152-1.184l-.077-.574a12.364 12.364 0 0 0 3.376-2.849l.001-.002a6.376 6.376 0 0 0 2.364 1.565 4.373 4.373 0 0 0 1.057.236 1.926 1.926 0 0 1 .01.204 5.237 5.237 0 0 1-.732 1.744l-.027.034a4.005 4.005 0 0 1-.372.47c-.012.014-.029.026-.042.04a3.383 3.383 0 0 1-1.883 1.012zm-21.54 2.796a1.07 1.07 0 0 0-.614-.176 1.677 1.677 0 0 0-.605.124 3.624 3.624 0 0 0-.933.64l-.103.084a2.47 2.47 0 0 1-.982.572.15.15 0 0 0-.11.18c.02.075.074.11.178.11h.001a2.66 2.66 0 0 0 1.104-.63l.103-.095.099-.079a3.312 3.312 0 0 1 .763-.503 1.24 1.24 0 0 1 .475-.102.898.898 0 0 1 .53.167.525.525 0 0 1 .037.042.672.672 0 0 1 .14.223c.008.02.019.035.026.058a1.998 1.998 0 0 1-.056.599 2.533 2.533 0 0 1-.262.664 3.083 3.083 0 0 1-2.014 1.423c-.05.012-.104.017-.155.028a4.168 4.168 0 0 1-.669.076c-.054.002-.106.009-.16.009a6.046 6.046 0 0 1-1.576-.226c-.507-.14-1.715-.568-2.028-1.51a2.426 2.426 0 0 0 .362.026 2.884 2.884 0 0 0 1.697-.632 8.22 8.22 0 0 0 .829-.7l.07-.064a7.984 7.984 0 0 1 .877-.739 2.405 2.405 0 0 1 1.366-.458 1.815 1.815 0 0 1 1.215.44 3.45 3.45 0 0 1 .287.31l.101.122z"/><path class="cls-1" d="M27.05 81.455v-2.97h15.08l.03-.335H26.8v3.64h15.36l-.03-.335zm33.8-3.305.03.335h15.07v2.97H60.88l-.03.335H76.2v-3.64z"/><circle class="cls-1" cx="51.585" cy="80.03" r="8.298"/><path d="M48.026 78.71a4.005 4.005 0 0 1 3.374 2.324 4.005 4.005 0 0 1-3.374 2.323 2.327 2.327 0 1 1 0-4.647zm7.118 0a4.005 4.005 0 0 0-3.375 2.324 4.005 4.005 0 0 0 3.375 2.323 2.327 2.327 0 1 0 0-4.647zm-5.819 7.227h4.52l-2.26-2.354-2.26 2.354zm-.064-9.365a4.005 4.005 0 0 0 2.324 3.375 4.005 4.005 0 0 0 2.323-3.375 2.327 2.327 0 1 0-4.647 0z"/></g></g></svg>