<svg xmlns="http://www.w3.org/2000/svg" viewBox="0 0 103 160"><path fill="#fff" d="M0 0h103v160H0z"/><path d="M9.14 38.345a6.88 6.88 0 0 1 5.797 3.992 6.88 6.88 0 0 1-5.796 3.99 3.997 3.997 0 1 1 0-7.982zm12.227 0a6.88 6.88 0 0 0-5.796 3.992 6.88 6.88 0 0 0 5.796 3.99 3.997 3.997 0 1 0 0-7.982zm-9.995 12.414h7.763l-3.881-4.043-3.882 4.043zm-.109-16.085a6.88 6.88 0 0 0 3.99 5.796 6.88 6.88 0 0 0 3.992-5.796 4.089 4.089 0 0 0-3.991-4.208 4.089 4.089 0 0 0-3.991 4.208zM8.174 4.757h14.16L10.39 27.644l-1.85-.947L18.849 6.882H8.174zM93.86 121.655a6.88 6.88 0 0 1-5.797-3.992 6.88 6.88 0 0 1 5.796-3.99 3.997 3.997 0 1 1 0 7.982zm-12.227 0a6.88 6.88 0 0 0 5.796-3.992 6.88 6.88 0 0 0-5.796-3.99 3.997 3.997 0 1 0 0 7.982zm9.995-12.414h-7.763l3.881 4.043 3.882-4.043zm.109 16.085a6.88 6.88 0 0 0-3.99-5.796 6.88 6.88 0 0 0-3.992 5.796 3.997 3.997 0 1 0 7.982 0zm3.089 29.917h-14.16l11.944-22.887 1.85.947-10.308 19.815h10.674z"/><path d="M93.86 121.655a6.88 6.88 0 0 1-5.797-3.992 6.88 6.88 0 0 1 5.796-3.99 3.997 3.997 0 1 1 0 7.982zm-12.227 0a6.88 6.88 0 0 0 5.796-3.992 6.88 6.88 0 0 0-5.796-3.99 3.997 3.997 0 1 0 0 7.982zm9.995-12.414h-7.763l3.881 4.043 3.882-4.043zm.109 16.085a6.88 6.88 0 0 0-3.99-5.796 6.88 6.88 0 0 0-3.992 5.796 3.997 3.997 0 1 0 7.982 0zm-51.683-4.256a5.106 5.106 0 0 1-4.302-2.962 5.106 5.106 0 0 1 4.302-2.963 2.966 2.966 0 1 1 0 5.925zm-9.074 0a5.106 5.106 0 0 0 4.301-2.962 5.106 5.106 0 0 0-4.302-2.963 2.966 2.966 0 1 0 0 5.925zm7.418-9.214h-5.762l2.881 3.001 2.881-3.001zm.081 11.939a5.106 5.106 0 0 0-2.962-4.302 5.106 5.106 0 0 0-2.963 4.302 2.966 2.966 0 1 0 5.925 0zM62.946 38.93a5.106 5.106 0 0 1 4.302 2.962 5.106 5.106 0 0 1-4.302 2.963 2.966 2.966 0 1 1 0-5.925zm9.074 0a5.106 5.106 0 0 0-4.301 2.962 5.106 5.106 0 0 0 4.302 2.963 2.966 2.966 0 1 0 0-5.925zm-7.418 9.214h5.762l-2.881-3.001-2.881 3.001zm-.081-11.939a5.106 5.106 0 0 0 2.962 4.302 5.106 5.106 0 0 0 2.963-4.302 2.966 2.966 0 1 0-5.925 0zm7.499 84.865a5.106 5.106 0 0 1-4.301-2.962 5.106 5.106 0 0 1 4.302-2.963 2.966 2.966 0 1 1 0 5.925zm-9.074 0a5.106 5.106 0 0 0 4.302-2.962 5.106 5.106 0 0 0-4.302-2.963 2.966 2.966 0 1 0 0 5.925zm7.418-9.214h-5.762l2.881 3.001 2.881-3.001zm.082 11.939a5.106 5.106 0 0 0-2.963-4.302 5.106 5.106 0 0 0-2.962 4.302 2.966 2.966 0 1 0 5.925 0zM30.98 38.93a5.106 5.106 0 0 1 4.301 2.962 5.106 5.106 0 0 1-4.302 2.963 2.966 2.966 0 1 1 0-5.925zm9.074 0a5.106 5.106 0 0 0-4.302 2.962 5.106 5.106 0 0 0 4.302 2.963 2.966 2.966 0 1 0 0-5.925zm-7.418 9.214h5.762l-2.881-3.001-2.881 3.001zm-.082-11.939a5.106 5.106 0 0 0 2.963 4.302 5.106 5.106 0 0 0 2.962-4.302 2.966 2.966 0 1 0-5.925 0zM30.98 78.317a5.106 5.106 0 0 1 4.302 2.963 5.106 5.106 0 0 1-4.303 2.962 2.966 2.966 0 1 1 0-5.924zm9.074 0a5.106 5.106 0 0 0-4.302 2.963 5.106 5.106 0 0 0 4.302 2.962 2.966 2.966 0 1 0 0-5.924zm-7.418 9.214h5.762l-2.881-3.001-2.881 3.001zm-.082-11.939a5.106 5.106 0 0 0 2.963 4.302 5.106 5.106 0 0 0 2.962-4.302 2.966 2.966 0 1 0-5.925 0zm30.392 2.725a5.106 5.106 0 0 1 4.302 2.963 5.106 5.106 0 0 1-4.302 2.962 2.966 2.966 0 1 1 0-5.924zm9.074 0a5.106 5.106 0 0 0-4.301 2.963 5.106 5.106 0 0 0 4.302 2.962 2.966 2.966 0 1 0 0-5.924zm-7.418 9.214h5.762l-2.881-3.001-2.881 3.001zm-.081-11.939a5.106 5.106 0 0 0 2.962 4.302 5.106 5.106 0 0 0 2.963-4.302 2.966 2.966 0 1 0-5.925 0zM46.963 58.623a5.106 5.106 0 0 1 4.302 2.963 5.106 5.106 0 0 1-4.302 2.962 2.966 2.966 0 1 1 0-5.925zm9.074 0a5.106 5.106 0 0 0-4.302 2.963 5.106 5.106 0 0 0 4.302 2.962 2.966 2.966 0 1 0 0-5.925zm-7.418 9.214h5.762l-2.881-3-2.881 3zm-.081-11.939A5.106 5.106 0 0 0 51.5 60.2a5.106 5.106 0 0 0 2.962-4.302 2.966 2.966 0 1 0-5.924 0z"/></svg>