<svg xmlns="http://www.w3.org/2000/svg" viewBox="0 0 103 160"><path fill="#fff" d="M0 0h103v160H0z"/><path d="M9.14 38.345a6.88 6.88 0 0 1 5.797 3.992 6.88 6.88 0 0 1-5.796 3.99 3.997 3.997 0 1 1 0-7.982zm12.227 0a6.88 6.88 0 0 0-5.796 3.992 6.88 6.88 0 0 0 5.796 3.99 3.997 3.997 0 1 0 0-7.982zm-9.995 12.414h7.763l-3.881-4.043-3.882 4.043zm-.109-16.085a6.88 6.88 0 0 0 3.99 5.796 6.88 6.88 0 0 0 3.992-5.796 4.089 4.089 0 0 0-3.991-4.208 4.089 4.089 0 0 0-3.991 4.208zm6.368-29.917 1.793 1.17-5.893 8.917a6.999 6.999 0 0 1 2.224-.399 5.898 5.898 0 0 1 4.407 1.874 6.384 6.384 0 0 1 1.81 4.615 6.69 6.69 0 0 1-.874 3.4 6.402 6.402 0 0 1-2.484 2.414 7.014 7.014 0 0 1-3.464.896 6.663 6.663 0 0 1-3.33-.866 6.23 6.23 0 0 1-2.41-2.437 6.805 6.805 0 0 1-.874-3.363 8.151 8.151 0 0 1 .54-2.807 17.588 17.588 0 0 1 1.939-3.548zm-2.392 11.6a4.581 4.581 0 0 0-4.585 4.592 4.581 4.581 0 0 0 4.585 4.577 4.581 4.581 0 0 0 4.585-4.577 4.581 4.581 0 0 0-4.585-4.593zM93.86 121.655a6.88 6.88 0 0 1-5.797-3.992 6.88 6.88 0 0 1 5.796-3.99 3.997 3.997 0 1 1 0 7.982zm-12.227 0a6.88 6.88 0 0 0 5.796-3.992 6.88 6.88 0 0 0-5.796-3.99 3.997 3.997 0 1 0 0 7.982zm9.995-12.414h-7.763l3.881 4.043 3.882-4.043zm.109 16.085a6.88 6.88 0 0 0-3.99-5.796 6.88 6.88 0 0 0-3.992 5.796 3.997 3.997 0 1 0 7.982 0zm-6.368 29.917-1.793-1.17 5.894-8.917a6.999 6.999 0 0 1-2.225.399 5.898 5.898 0 0 1-4.407-1.874 6.384 6.384 0 0 1-1.81-4.614 6.69 6.69 0 0 1 .874-3.4 6.402 6.402 0 0 1 2.484-2.415 7.014 7.014 0 0 1 3.464-.896 6.663 6.663 0 0 1 3.33.866 6.23 6.23 0 0 1 2.41 2.437 6.805 6.805 0 0 1 .874 3.363 8.151 8.151 0 0 1-.54 2.807 17.588 17.588 0 0 1-1.939 3.548zm2.392-11.6a4.581 4.581 0 1 0-3.242-1.34 4.418 4.418 0 0 0 3.242 1.34z"/><path d="M93.86 121.655a6.88 6.88 0 0 1-5.797-3.992 6.88 6.88 0 0 1 5.796-3.99 3.997 3.997 0 1 1 0 7.982zm-12.227 0a6.88 6.88 0 0 0 5.796-3.992 6.88 6.88 0 0 0-5.796-3.99 3.997 3.997 0 1 0 0 7.982zm9.995-12.414h-7.763l3.881 4.043 3.882-4.043zm.109 16.085a6.88 6.88 0 0 0-3.99-5.796 6.88 6.88 0 0 0-3.992 5.796 3.997 3.997 0 1 0 7.982 0zM30.98 38.93a5.106 5.106 0 0 1 4.301 2.962 5.106 5.106 0 0 1-4.302 2.963 2.966 2.966 0 1 1 0-5.925zm9.074 0a5.106 5.106 0 0 0-4.302 2.962 5.106 5.106 0 0 0 4.302 2.963 2.966 2.966 0 1 0 0-5.925zm-7.418 9.214h5.762l-2.881-3.001-2.881 3.001zm-.082-11.939a5.106 5.106 0 0 0 2.963 4.302 5.106 5.106 0 0 0 2.962-4.302 2.966 2.966 0 1 0-5.925 0zm7.5 84.865a5.106 5.106 0 0 1-4.302-2.962 5.106 5.106 0 0 1 4.302-2.963 2.966 2.966 0 1 1 0 5.925zm-9.074 0a5.106 5.106 0 0 0 4.301-2.962 5.106 5.106 0 0 0-4.302-2.963 2.966 2.966 0 1 0 0 5.925zm7.418-9.214h-5.762l2.881 3.001 2.881-3.001zm.081 11.939a5.106 5.106 0 0 0-2.962-4.302 5.106 5.106 0 0 0-2.963 4.302 2.966 2.966 0 1 0 5.925 0zM62.946 38.93a5.106 5.106 0 0 1 4.302 2.962 5.106 5.106 0 0 1-4.302 2.963 2.966 2.966 0 1 1 0-5.925zm9.074 0a5.106 5.106 0 0 0-4.301 2.962 5.106 5.106 0 0 0 4.302 2.963 2.966 2.966 0 1 0 0-5.925zm-7.418 9.214h5.762l-2.881-3.001-2.881 3.001zm-.081-11.939a5.106 5.106 0 0 0 2.962 4.302 5.106 5.106 0 0 0 2.963-4.302 2.966 2.966 0 1 0-5.925 0zm7.499 84.865a5.106 5.106 0 0 1-4.301-2.962 5.106 5.106 0 0 1 4.302-2.963 2.966 2.966 0 1 1 0 5.925zm-9.074 0a5.106 5.106 0 0 0 4.302-2.962 5.106 5.106 0 0 0-4.302-2.963 2.966 2.966 0 1 0 0 5.925zm7.418-9.214h-5.762l2.881 3.001 2.881-3.001zm.082 11.939a5.106 5.106 0 0 0-2.963-4.302 5.106 5.106 0 0 0-2.962 4.302 2.966 2.966 0 1 0 5.925 0zM30.98 78.317a5.106 5.106 0 0 1 4.302 2.963 5.106 5.106 0 0 1-4.303 2.962 2.966 2.966 0 1 1 0-5.924zm9.074 0a5.106 5.106 0 0 0-4.302 2.963 5.106 5.106 0 0 0 4.302 2.962 2.966 2.966 0 1 0 0-5.924zm-7.418 9.214h5.762l-2.881-3.001-2.881 3.001zm-.082-11.939a5.106 5.106 0 0 0 2.963 4.302 5.106 5.106 0 0 0 2.962-4.302 2.966 2.966 0 1 0-5.925 0zm30.392 2.725a5.106 5.106 0 0 1 4.302 2.963 5.106 5.106 0 0 1-4.302 2.962 2.966 2.966 0 1 1 0-5.924zm9.074 0a5.106 5.106 0 0 0-4.301 2.963 5.106 5.106 0 0 0 4.302 2.962 2.966 2.966 0 1 0 0-5.924zm-7.418 9.214h5.762l-2.881-3.001-2.881 3.001zm-.081-11.939a5.106 5.106 0 0 0 2.962 4.302 5.106 5.106 0 0 0 2.963-4.302 2.966 2.966 0 1 0-5.925 0z"/></svg>