<svg xmlns="http://www.w3.org/2000/svg" viewBox="0 0 103 160"><defs><style>.cls-1{fill:#fff}.cls-2{fill:#663f2e}.cls-3{fill:#ffc614}.cls-4{fill:#1e4262}.cls-5{fill:#bcbbbb}.cls-6{fill:#999898}.cls-7{fill:#f9c19b}.cls-8{fill:#b21424}.cls-9{fill:#cd222b}</style></defs><g id="CLUBS"><path class="cls-1" d="M0 0h103v160H0z"/><path d="M18.502 4.757h2.23v15.071a14.787 14.787 0 0 1-.538 4.834 4.508 4.508 0 0 1-1.798 2.17 5.512 5.512 0 0 1-3.051.812 7.134 7.134 0 0 1-2.664-.524 11.298 11.298 0 0 1-2.906-1.844l1.184-1.775a17.535 17.535 0 0 0 2.904 1.73 3.697 3.697 0 0 0 1.49.334 2.873 2.873 0 0 0 1.742-.577 3.016 3.016 0 0 0 1.096-1.533 14.238 14.238 0 0 0 .31-3.703zM9.14 38.345a6.88 6.88 0 0 1 5.797 3.992 6.88 6.88 0 0 1-5.796 3.99 3.997 3.997 0 1 1 0-7.982zm12.227 0a6.88 6.88 0 0 0-5.796 3.992 6.88 6.88 0 0 0 5.796 3.99 3.997 3.997 0 1 0 0-7.982zm-9.995 12.414h7.763l-3.881-4.043-3.882 4.043zm-.109-16.085a6.88 6.88 0 0 0 3.99 5.796 6.88 6.88 0 0 0 3.992-5.796 4.09 4.09 0 0 0-3.991-4.208 4.089 4.089 0 0 0-3.991 4.208zm73.235 120.569h-2.23v-15.071a14.787 14.787 0 0 1 .538-4.834 4.508 4.508 0 0 1 1.799-2.17 5.512 5.512 0 0 1 3.05-.812 7.134 7.134 0 0 1 2.664.524 11.298 11.298 0 0 1 2.906 1.844l-1.184 1.775a17.535 17.535 0 0 0-2.904-1.73 3.697 3.697 0 0 0-1.49-.334 2.873 2.873 0 0 0-1.742.577 3.016 3.016 0 0 0-1.096 1.533 14.238 14.238 0 0 0-.31 3.703zm9.362-33.588a6.88 6.88 0 0 1-5.797-3.992 6.88 6.88 0 0 1 5.796-3.99 3.997 3.997 0 1 1 0 7.982zm-12.227 0a6.88 6.88 0 0 0 5.796-3.992 6.88 6.88 0 0 0-5.796-3.99 3.997 3.997 0 1 0 0 7.982zm9.995-12.414h-7.763l3.881 4.043 3.882-4.043zm.109 16.085a6.88 6.88 0 0 0-3.99-5.796 6.88 6.88 0 0 0-3.992 5.796 3.997 3.997 0 1 0 7.982 0zM77.409 77.33a.178.178 0 0 0-.179-.178l-3.18.02a1.548 1.548 0 0 0 .574-1.216 1.458 1.458 0 0 0-.824-1.31 1.533 1.533 0 0 0 .824-1.38 1.458 1.458 0 0 0-.825-1.31 1.533 1.533 0 0 0 .825-1.381 1.46 1.46 0 0 0-.824-1.31 1.532 1.532 0 0 0 .824-1.38 1.497 1.497 0 0 0-1.495-1.495h-1.207V51.462h.917a.178.178 0 0 0 .179-.178v-7.085a.178.178 0 0 0-.179-.178l-.664.014 1.586-3.075a.367.367 0 0 0 .012-.132l-3.501-11.815a.181.181 0 0 0-.342-.001l-3.501 11.816a.358.358 0 0 0 .012.132l1.595 3.061h-.673a.178.178 0 0 0-.179.178v7.085a.178.178 0 0 0 .179.178h.917l.028 7.672v6.202a17.718 17.718 0 0 0-2.078-.439l-.097-.016c-4.247-.724-6.161-2.453-6.76-3.065a2.938 2.938 0 0 1-.15-.178c.005-.005.012-.008.012-.015a3.921 3.921 0 0 0-.688-2.768 3.231 3.231 0 0 0-2.297-1.13c-.313-2.21-.395-4.905-.4-5.076a12.36 12.36 0 0 0 1.832-3.877 11.665 11.665 0 0 0 .372-2.764 2.838 2.838 0 0 1 .329.992.179.179 0 0 0 .169.167h.008a.178.178 0 0 0 .172-.132c.062-.233.107-.463.152-.694l.033-.166a9.224 9.224 0 0 0 1.293-9.326c-.07-.18-.14-.356-.214-.523l.006-.002a.178.178 0 0 0 .067-.095 26.86 26.86 0 0 0 1.049-6.172c.063-2.575-.59-4.058-1.999-4.537a3.389 3.389 0 0 0-1.092-.18c-1.61 0-3.135 1.11-4.368 2.008l-.339.243a6.6 6.6 0 0 0-5.695-3.183c-3.537 0-7.35 2.317-10.133 4.01a51.81 51.81 0 0 1-1.497.887c-3.435 1.918-3.59 7.49-3.585 8.63-2.43 1.078-3.64 2.391-3.803 4.133a4.93 4.93 0 0 0 2.577 4.303c1.531 7.176 7.517 7.588 7.58 7.591h.004a.174.174 0 0 0 .134-.06.35.35 0 0 0 .042-.149l-.062-.292a13.478 13.478 0 0 0 2.7.96l.044.005a.179.179 0 0 0 .162-.102.182.182 0 0 0-.048-.215 6.616 6.616 0 0 1-.678-.657 23.522 23.522 0 0 0 3.77 1.667c.026.245.125 1.23.198 2.384.01.236.016.476.02.719a5.38 5.38 0 0 0-.8-.075 2.975 2.975 0 0 0-2.019.681 4.579 4.579 0 0 0-1.166 3.546 2.286 2.286 0 0 0 .29 1.082 5.067 5.067 0 0 0 .708.928c-.146.3-1.038 1.659-5.506 2.545a8.36 8.36 0 0 0-1.422.425c-.155.054-.313.102-.465.162a.233.233 0 0 0-.047-.013l-.012.005c0-.006.005-.015 0-.016a.262.262 0 0 0-.127.072c-4.154 1.717-6.865 5.732-6.444 9.589h-2.27a.178.178 0 0 0-.178.177v5.34a.178.178 0 0 0 .178.178l3.18-.02a1.548 1.548 0 0 0-.574 1.216 1.458 1.458 0 0 0 .825 1.31 1.533 1.533 0 0 0-.825 1.38 1.458 1.458 0 0 0 .825 1.31 1.533 1.533 0 0 0-.825 1.381 1.46 1.46 0 0 0 .825 1.31 1.532 1.532 0 0 0-.825 1.38 1.497 1.497 0 0 0 1.495 1.495h1.207v14.929h-.917a.178.178 0 0 0-.179.178v7.084a.178.178 0 0 0 .179.178l.664-.014-1.586 3.075a.367.367 0 0 0-.012.132l3.501 11.816a.181.181 0 0 0 .342 0l3.501-11.816a.358.358 0 0 0-.012-.132l-1.595-3.06h.674a.178.178 0 0 0 .178-.179v-7.084a.178.178 0 0 0-.178-.178h-.918l-.028-7.673v-6.202a17.718 17.718 0 0 0 2.078.439l.097.016c4.247.725 6.161 2.453 6.76 3.065.072.08.12.138.15.178-.005.005-.012.008-.013.015a3.921 3.921 0 0 0 .689 2.768 3.231 3.231 0 0 0 2.296 1.13c.313 2.21.396 4.905.4 5.076a12.36 12.36 0 0 0-1.832 3.877 11.665 11.665 0 0 0-.372 2.764 2.838 2.838 0 0 1-.327-.992.179.179 0 0 0-.17-.166h-.008a.178.178 0 0 0-.172.132c-.062.232-.107.463-.152.694l-.033.165a9.224 9.224 0 0 0-1.293 9.327c.07.18.14.355.215.523l-.006.002a.178.178 0 0 0-.068.095 26.86 26.86 0 0 0-1.048 6.171c-.064 2.575.59 4.059 1.998 4.538a3.389 3.389 0 0 0 1.092.18c1.61 0 3.136-1.111 4.368-2.009l.34-.242a6.6 6.6 0 0 0 5.694 3.183c3.538 0 7.35-2.318 10.133-4.01a51.81 51.81 0 0 1 1.498-.887c3.435-1.918 3.59-7.49 3.584-8.63 2.431-1.078 3.64-2.392 3.803-4.134a4.93 4.93 0 0 0-2.577-4.302c-1.53-7.177-7.517-7.588-7.579-7.592h-.005a.174.174 0 0 0-.133.06.35.35 0 0 0-.043.15l.062.291a13.478 13.478 0 0 0-2.7-.959l-.043-.005a.179.179 0 0 0-.162.102.182.182 0 0 0 .048.215 6.616 6.616 0 0 1 .678.656 23.522 23.522 0 0 0-3.77-1.667 61.13 61.13 0 0 1-.198-2.384 30.74 30.74 0 0 1-.02-.718 5.38 5.38 0 0 0 .8.074 2.975 2.975 0 0 0 2.019-.68 4.579 4.579 0 0 0 1.166-3.547 2.286 2.286 0 0 0-.29-1.082 5.067 5.067 0 0 0-.708-.928c.145-.3 1.038-1.658 5.506-2.545a8.36 8.36 0 0 0 1.422-.425c.155-.053.313-.102.465-.162a.233.233 0 0 0 .047.014l.012-.006c-.001.006-.005.015 0 .016a.262.262 0 0 0 .127-.072c4.154-1.717 6.865-5.732 6.444-9.588h2.269a.178.178 0 0 0 .178-.178v-.059zM61.96 106.092a4.97 4.97 0 0 1 .522.648c-.055-.076-.1-.148-.166-.23a5.023 5.023 0 0 0-.356-.418zm-30.892 9.585-.003.002zm2.106-.001-.255.003zm7.866-61.768a4.967 4.967 0 0 1-.522-.648c.055.077.1.148.166.23a5.023 5.023 0 0 0 .356.418zm29.355-2.748-.2.002.2-.002zm-.569-6.835.255-.003zm-1.58.017h-.084.083zM44.43 126.23l.113.056-.113-.056zm14.153-92.452-.129-.064.129.064zm4.364 73.896v-.004.004zM48.413 118.87c-.015-.012-.022-.03-.035-.044a.346.346 0 0 0 .035.044zm-.113-.143a.774.774 0 0 1-.093-.14.859.859 0 0 0 .093.14zM60.772 107.2zm3.099 4.294c.022.056.046.112.067.169-.021-.057-.045-.113-.067-.17zm-1.05-2.064a9.44 9.44 0 0 0-.74-.987 9.609 9.609 0 0 1 1.088 1.573c-.112-.198-.224-.396-.348-.586zm.545.948zm-1.602-2.289zm-4.369 8.552-.475-.541.476.542zm-7.672 10.174a2.9 2.9 0 0 0-.14.014c.046-.003.094-.011.14-.014zm-3.817-39.299c.149.11.3.216.455.317a9.427 9.427 0 0 1-1.616-1.337q.12.124.243.244c.119.114.254.212.38.32l.114.098c.142.119.274.247.424.358zm-5.854-35.19v.005-.005zM54.587 41.13c.015.012.022.03.035.044a.346.346 0 0 0-.035-.044zm.113.143a.774.774 0 0 1 .093.14.859.859 0 0 0-.093-.14zM42.228 52.8zm-3.099-4.294c-.022-.057-.046-.112-.067-.169.021.057.045.113.067.17zm1.05 2.064a9.44 9.44 0 0 0 .74.987 9.609 9.609 0 0 1-1.088-1.573c.112.198.224.396.348.586zm-.545-.948zm1.602 2.289zm4.369-8.552.24.274-.24-.275zm7.672-10.174a2.9 2.9 0 0 0 .14-.014c-.046.003-.094.011-.14.014zm3.817 39.299a9.48 9.48 0 0 0-.455-.317 9.427 9.427 0 0 1 1.616 1.337q-.12-.124-.243-.244c-.119-.114-.254-.212-.38-.32a10.569 10.569 0 0 0-.114-.098c-.142-.119-.274-.247-.424-.358zm-20.396 19.38h-.006zm29.604-23.728h.005zm-20.26 11.868zm10.915-.008zm-5.536-17.021.013.059zm-.163-.328h.001zm.316 34.355-.008-.035zm.168.35-.001.001zM73.51 77.105a.788.788 0 0 1-.116.023 1.174 1.174 0 0 0 .116-.023zm-5.03-2.281.024-.005zm-1.097-2.645a1.165 1.165 0 0 1 .246-.05 1.165 1.165 0 0 0-.246.05zM56.518 33.074l.004.001zm-11.54 27.944-.009-.006.01.005zm-.035-.697c-.012.084-.023.169-.037.247.014-.078.025-.163.037-.247zm.427 12.614c-.117.107-.247.197-.359.312a9.418 9.418 0 0 1 .79-.688c-.119.095-.231.2-.346.301l-.085.075zm-2.667 3.862-.008.018a9.478 9.478 0 0 1 .008-.018zm-8.183 8.38-.024.005zm1.097 2.645a1.165 1.165 0 0 1-.246.05 1.17 1.17 0 0 0 .246-.05zm10.865 39.103h-.004zm11.54-27.943.008.005h.004a.387.387 0 0 1 .093.068.39.39 0 0 0-.093-.068h-.004l-.008-.005zm.034.696c.012-.083.023-.168.038-.247-.015.079-.026.164-.038.247zm-.426-12.613c.117-.107.247-.197.359-.312a9.418 9.418 0 0 1-.79.688c.119-.095.231-.2.346-.301l.085-.075zm2.667-3.862.007-.017c-.07.194-.14.389-.221.577.075-.184.15-.37.214-.56zm13.075-8.762a1.193 1.193 0 0 0 .138-.027 1.02 1.02 0 0 1-.138.028zm0-2.69a1.193 1.193 0 0 0 .138-.027 1.036 1.036 0 0 1-.138.027zm-.039-2.683a1.173 1.173 0 0 0 .178-.036 1.058 1.058 0 0 1-.178.036zM58.916 42.753v.03-.038zm-25.77-5.087c-.118.047-.235.089-.352.136.118-.049.235-.09.353-.136zm-1.371 9.699c-.065-.208-.117-.436-.172-.658.055.223.108.449.171.657zM46.47 72.086l.023-.014zM29.628 85.558a1.193 1.193 0 0 0-.138.028 1.02 1.02 0 0 1 .138-.028zm0 2.69a1.193 1.193 0 0 0-.138.028 1.036 1.036 0 0 1 .138-.027zm14.457 28.999-.002-.03.002.037zm27.14-4.612c.064.205.116.43.17.65-.054-.22-.107-.443-.17-.65zM56.53 87.914l-.023.014zm15.275-43.876h-.003l.604-1.17-.102.204zM70.086 29.64l.001.003-1.664 5.62.157-.539zm-3.91 35.582h-.002zm-7.603-18.947c.008-.037.012-.073.02-.11-.007.037-.012.074-.02.11zm.262-1.779.017-.164-.017.164zm.081-1.612zm-26.481-4.932-.003.001zM31.3 45.096c.018.14.045.266.066.4-.021-.134-.048-.26-.066-.4zm.806 3.2v.001zm5.3 18.784.01.007-.01-.007-.153.033c.05-.012.103-.022.152-.034zm-6.21 48.883h.003l-.604 1.17.103-.204zm1.718 14.397-.001-.004 1.665-5.622-.158.541zm1.84-14.7.334-.004zm2.07-20.882h.002zm7.603 18.947c-.008.037-.012.073-.02.11.007-.037.012-.074.02-.11zm-.262 1.778-.017.165.017-.165zm-.081 1.612zm26.482 4.933.002-.002v.001zm1.134-7.144c-.007-.056-.019-.106-.026-.16.007.054.019.104.026.16zM65.595 92.92l-.01-.008.01.008c.049-.012.103-.022.152-.033-.05.01-.103.021-.152.033z"/><path class="cls-2" d="M43.977 114.546c-3.776 5.709.482 11.116.825 11.535a8.42 8.42 0 0 0 1.368.473 20.591 20.591 0 0 1-2.193-12.008z"/><path class="cls-3" d="M34.542 108.866a.15.15 0 0 1-.107-.045l-3.152.034c-.01.002-.016.01-.027.01s-.016-.008-.025-.01l-.976.01.056 6.842.72-.008c.026-.02.046-.048.08-.048.03.01.038.031.058.047l3.478-.038.042-.01c.007 0 .01.009.015.01l.784-.009v-6.841l-.837.009a.148.148 0 0 1-.109.047z"/><path class="cls-4" d="M68.402 92.13c3.972-1.645 6.693-5.52 6.255-9.31H60.439a9.354 9.354 0 0 1-1.735 3.184 30.706 30.706 0 0 1 9.698 6.126z"/><path class="cls-5" d="m29.551 119.155 1.654-3.204h3.392l1.644 3.167-3.345 11.293-3.345-11.256z"/><path class="cls-6" d="m29.551 119.155 1.654-3.204h1.691v14.46l-3.345-11.256z"/><path class="cls-7" d="M28.705 92.058a1.182 1.182 0 0 0 1.166 1.224h5.36a1.169 1.169 0 0 0 1.167-1.168 1.182 1.182 0 0 0-1.166-1.223H29.87a1.168 1.168 0 0 0-1.166 1.167z"/><path class="cls-2" d="M31.407 93.581h2.985v14.986h-2.985zm29.316 13.578c4.906 3.566 4.424 12.242 4.346 13.285a24.659 24.659 0 0 1 2.426-.957 7.529 7.529 0 0 0 .74-.313c-.39-9.595-5.547-11.602-7.512-12.015zm10.425 9.481a4.444 4.444 0 0 0 .572-1.615c-.894-7.488-6.256-8.514-7.363-8.645l.016.09.095.267a11.681 11.681 0 0 1 6.68 9.903z"/><path class="cls-7" d="M61.28 122.33c1.314-.682 2.43-1.258 3.5-1.753-.007-.019-.02-.035-.018-.056.01-.1.938-10.082-4.764-13.48a.15.15 0 0 1 .077-.28h.004a7.133 7.133 0 0 1 2.477.715 3.763 3.763 0 0 0-.18-.341 24.655 24.655 0 0 0-7.523-2.831l-.253-.05a11.475 11.475 0 0 0-2.226-.303 3.42 3.42 0 0 0-2.203.698 13.57 13.57 0 0 0-1.576 1.422 12.308 12.308 0 0 0-2.959 5.242 14.958 14.958 0 0 0 .58 8.716 29.388 29.388 0 0 0 3.234 6.77.23.23 0 0 1 .012.043 15.54 15.54 0 0 0 5.852-1.535 154.936 154.936 0 0 0 5.966-2.977zm-4.642-6.425a6.733 6.733 0 0 1 .647-.467.767.767 0 0 1-.397-.675.768.768 0 1 1 1.535 0 .602.602 0 0 1-.015.083 10.443 10.443 0 0 1 2.721-.77h.02a.15.15 0 0 1 .15.134.17.17 0 0 1-.134.166 10.007 10.007 0 0 0-2.727.783 6.845 6.845 0 0 0-1.536.92l.006.007.98 1.116a.4.4 0 0 1 .033.112.149.149 0 0 1-.056.1.38.38 0 0 1-.093.034.155.155 0 0 1-.117-.054l-1.037-1.278a.151.151 0 0 1 .02-.21zm-5.205 1.81a4.915 4.915 0 0 0-1.698.596 5.154 5.154 0 0 0-1.085.775 6.163 6.163 0 0 0-.462.481l1.192 1.257a.17.17 0 0 1-.011.212.386.386 0 0 1-.1.04.153.153 0 0 1-.113-.052l-1.247-1.39a.15.15 0 0 1-.006-.196 6.06 6.06 0 0 1 .523-.551.795.795 0 0 1-.29-.611.783.783 0 0 1 .767-.797.756.756 0 0 1 .716.554 5.141 5.141 0 0 1 1.782-.617h.017a.15.15 0 0 1 .15.135.151.151 0 0 1-.136.163zm2.012.31a.414.414 0 0 1-.104.04.147.147 0 0 1-.11-.049c-.136-.144-3.342-3.58-2.627-5.673a2.414 2.414 0 0 1 2.149-1.411l.023-.001a.15.15 0 0 1 .148.126.151.151 0 0 1-.124.172c-1.05.167-1.694.574-1.911 1.212-.65 1.901 2.53 5.336 2.562 5.37a.394.394 0 0 1 .041.108.15.15 0 0 1-.048.106zm1.403-9.443a11.135 11.135 0 0 0-1.715-.142 4.032 4.032 0 0 0-2.566.683.362.362 0 0 1-.1.039.149.149 0 0 1-.113-.05.4.4 0 0 1-.04-.108.151.151 0 0 1 .05-.105 4.08 4.08 0 0 1 2.77-.764 10.656 10.656 0 0 1 1.741.148.15.15 0 0 1-.027.299z"/><path class="cls-2" d="M49.138 126.862a29.814 29.814 0 0 1-3.205-6.734 17.14 17.14 0 0 1-.998-5.564 2.907 2.907 0 0 1-.499-.89c-1.389 6.4 1.726 12.256 2.122 12.963a10.794 10.794 0 0 0 2.293.243c.095 0 .192-.016.287-.018z"/><path class="cls-1" d="M51.499 89.093a9.065 9.065 0 1 0-9.065-9.065 9.075 9.075 0 0 0 9.065 9.065zm2.174-15.29L51.5 76.066l-2.174-2.265zm-4.817 2.242A2.962 2.962 0 0 1 51.5 77.7a2.961 2.961 0 0 1 2.643-1.656 3.013 3.013 0 0 1 .1 6.022 3.041 3.041 0 0 1 .233 1.17 2.976 2.976 0 1 1-5.952 0 3.043 3.043 0 0 1 .232-1.17 3.013 3.013 0 0 1 .101-6.022z"/><path class="cls-8" d="M67.379 123.216a68.937 68.937 0 0 0-17.447 8.982 6.3 6.3 0 0 0 5.455 3.056c3.445 0 7.183-2.27 9.912-3.928a54.845 54.845 0 0 1 1.546-.918c3.193-1.782 3.41-7.043 3.416-8.231-.78.327-1.578.598-2.301.841z"/><path class="cls-9" d="M72.048 114.493a4.394 4.394 0 0 1-.642 2.304 6.752 6.752 0 0 1-3.816 2.975 41.679 41.679 0 0 0-6.154 2.817 160.73 160.73 0 0 1-5.994 2.99 15.54 15.54 0 0 1-6.589 1.6 11.106 11.106 0 0 1-2.375-.254h-.01a.16.16 0 0 1-.088-.02 7.768 7.768 0 0 1-2.174-.796.15.15 0 0 1-.043-.206.31.31 0 0 1 .083-.05 12.066 12.066 0 0 1-1.054-1.772 25.848 25.848 0 0 0-.98 5.872c-.061 2.41.52 3.79 1.775 4.216a3.052 3.052 0 0 0 .988.163c1.504 0 2.98-1.077 4.166-1.943l.198-.144c.097-.07.2-.138.299-.208v-.002h.002a69.272 69.272 0 0 1 17.64-9.103l.584-.198c.762-.257 1.61-.543 2.428-.896a.141.141 0 0 1 .112-.067h.006c.007 0 .012.006.019.007 1.818-.804 3.457-1.954 3.637-3.878a4.526 4.526 0 0 0-2.208-3.86c.019.103.036.208.053.314a.148.148 0 0 1 .137.139z"/><path class="cls-2" d="M68.53 119.048a6.245 6.245 0 0 0 2.377-2.068.139.139 0 0 1-.027-.058c-.43-7.803-7.12-10.326-8.957-10.871a4.278 4.278 0 0 1 1.027 1.598l-.001.027c2.324 1.261 5.262 4.261 5.581 11.372z"/><path class="cls-3" d="M46.323 101.501c-.12-.03-.165-.114-.14-.193 1.043-3.42 4.686-4.123 5.408-4.23l-.002-.008c-.128-.484-.56-3.175-1.32-4.117-.547.17-5.86 1.599-6.17 5.4a3.734 3.734 0 0 0 .613 2.588 2.892 2.892 0 0 0 2.016 1.002 16.172 16.172 0 0 0-.15-.831c-.036.095-.077.184-.108.284a.152.152 0 0 1-.147.105z"/><path class="cls-7" d="M35.524 84.043a1.182 1.182 0 0 0-1.167-1.224h-4.486a1.168 1.168 0 0 0-1.166 1.167 1.182 1.182 0 0 0 1.166 1.224h4.486a1.169 1.169 0 0 0 1.167-1.167zm1.082 7.517c.026.002.055.005.08.005a1.371 1.371 0 0 0 1.398-1.361v-5.05a1.363 1.363 0 0 0-1.36-1.361 1.383 1.383 0 0 0-.912.327 1.51 1.51 0 0 1-.58 1.09 1.469 1.469 0 0 1 1.468 1.467 1.515 1.515 0 0 1-.684 1.289 1.465 1.465 0 0 1 1.058 1.402 1.492 1.492 0 0 1-1.055 1.456 1.467 1.467 0 0 1 .587.736z"/><path class="cls-4" d="M35.801 83.754a1.652 1.652 0 0 1 .884-.26h.039a1.663 1.663 0 0 1 1.661 1.66v3.985a22.68 22.68 0 0 1 5.754-3.338 9.342 9.342 0 0 1-1.58-2.982h-7.323a1.46 1.46 0 0 1 .565.935z"/><path class="cls-7" d="M51.763 97.341c-.015.007-.025.021-.042.023-.038.004-3.576.429-4.958 3.298a.14.14 0 0 1 .034.054 38.804 38.804 0 0 1 .669 6.237 13.024 13.024 0 0 1 .91-1.089 13.877 13.877 0 0 1 1.611-1.454 3.746 3.746 0 0 1 2.38-.76 11.76 11.76 0 0 1 2.292.309l.253.051a25.281 25.281 0 0 1 2.917.786 22.876 22.876 0 0 1 0-5.581 15.897 15.897 0 0 0-5.987-1.837.15.15 0 0 1-.08-.037zM36.398 86.733a1.182 1.182 0 0 0-1.166-1.224H29.87a1.168 1.168 0 0 0-1.166 1.168A1.181 1.181 0 0 0 29.87 87.9h5.36a1.169 1.169 0 0 0 1.167-1.167zm.375 2.691a1.182 1.182 0 0 0-1.167-1.224h-5.735a1.168 1.168 0 0 0-1.166 1.168 1.182 1.182 0 0 0 1.166 1.224h5.735a1.168 1.168 0 0 0 1.167-1.168z"/><path class="cls-4" d="M55.434 88.538c-.004-.007 0-.015-.003-.022a9.299 9.299 0 0 1-8.356-.238.15.15 0 0 1-.093.086 17.116 17.116 0 0 0-9.807 6.48c4.243.779 6.1 2.47 6.684 3.138.634-3.946 6.396-5.302 6.456-5.315l.033-.003a.372.372 0 0 1 .114.051 8.525 8.525 0 0 1 1.197 3.325 10.383 10.383 0 0 1 .724-3.616.149.149 0 0 1 .14-.094h.007c.064.004 5.436.442 8.156 3.056.26-.455 1.218-1.542 4.522-2.371a30.759 30.759 0 0 0-9.68-4.41.39.39 0 0 1-.094-.067z"/><path class="cls-3" d="M58.127 99.056a4.233 4.233 0 0 1 .992.932.152.152 0 0 1-.031.21.394.394 0 0 1-.09.03.15.15 0 0 1-.121-.062 3.77 3.77 0 0 0-.779-.768 11.658 11.658 0 0 0-.149 2.054 5.269 5.269 0 0 0 .8.071 2.666 2.666 0 0 0 1.805-.598 4.274 4.274 0 0 0 1.053-3.288 1.976 1.976 0 0 0-.245-.93c-1.939-3.362-8.088-4.01-8.784-4.073a10.255 10.255 0 0 0-.583 4.502 14.757 14.757 0 0 1 6.034 1.851h.004a.39.39 0 0 1 .094.07z"/><path class="cls-9" d="M46.784 88.106a9.422 9.422 0 0 1-2.47-2.082c-.015.018-.028.04-.05.049a22.501 22.501 0 0 0-5.834 3.406.237.237 0 0 1-.044.02v.705a1.663 1.663 0 0 1-1.662 1.66h-.044a1.451 1.451 0 0 1 .02.194 1.482 1.482 0 0 1-1.468 1.523h-.539v.744h.004a16.872 16.872 0 0 0 2.13.452l.011.002a17.484 17.484 0 0 1 9.946-6.673zm11.721-1.885a9.409 9.409 0 0 1-2.746 2.136 31.114 31.114 0 0 1 9.836 4.564c.252-.059.508-.116.786-.171a10.732 10.732 0 0 0 1.715-.497 30.614 30.614 0 0 0-9.536-5.984.287.287 0 0 1-.055-.048z"/><path d="M50.915 112.45c.214-.626.849-1.028 1.889-1.193a.18.18 0 0 0 .148-.205.178.178 0 0 0-.176-.15l-.028.002a2.439 2.439 0 0 0-2.17 1.43c-.722 2.11 2.495 5.556 2.632 5.701a.176.176 0 0 0 .131.058.386.386 0 0 0 .123-.048.176.176 0 0 0 .056-.125.373.373 0 0 0-.048-.129c-.132-.14-3.191-3.486-2.557-5.34zm-.571-3.571a.18.18 0 0 0-.058.124.375.375 0 0 0 .047.128.177.177 0 0 0 .133.06.362.362 0 0 0 .119-.047 4.003 4.003 0 0 1 2.547-.675 11.171 11.171 0 0 1 1.715.142.178.178 0 0 0 .033-.354 10.674 10.674 0 0 0-1.747-.15 4.107 4.107 0 0 0-2.789.772zm7.289 8.533a.184.184 0 0 0 .138.064.35.35 0 0 0 .11-.04.176.176 0 0 0 .067-.12.363.363 0 0 0-.04-.132l-.513-.542-.475-.542a6.795 6.795 0 0 1 1.529-.915 9.974 9.974 0 0 1 2.718-.781.179.179 0 0 0-.03-.356h-.012a10.318 10.318 0 0 0-2.687.77.693.693 0 0 0 .013-.055.796.796 0 1 0-1.592 0 .788.788 0 0 0 .377.674 6.833 6.833 0 0 0-.617.446.18.18 0 0 0-.024.25zm-6.225-.025h-.01a5.135 5.135 0 0 0-1.766.607.779.779 0 0 0-.729-.543.811.811 0 0 0-.795.824.679.679 0 0 0 .192.452.813.813 0 0 0 .113.143l-.007-.004a5.829 5.829 0 0 0-.525.555.18.18 0 0 0 .006.232l1.248 1.39a.182.182 0 0 0 .134.061.366.366 0 0 0 .118-.047.197.197 0 0 0 .013-.252l-1.191-1.22a6.088 6.088 0 0 1 .46-.477 5.114 5.114 0 0 1 1.079-.772 4.9 4.9 0 0 1 1.687-.593.179.179 0 0 0-.027-.356z"/><path d="m25.77 82.848 3.18-.02a1.548 1.548 0 0 0-.574 1.216 1.458 1.458 0 0 0 .825 1.31 1.533 1.533 0 0 0-.825 1.38 1.458 1.458 0 0 0 .825 1.31 1.533 1.533 0 0 0-.825 1.381 1.46 1.46 0 0 0 .825 1.31 1.532 1.532 0 0 0-.825 1.38 1.497 1.497 0 0 0 1.495 1.495h1.207v14.929h-.917a.178.178 0 0 0-.179.178v7.084a.178.178 0 0 0 .179.178l.664-.014-1.586 3.075a.367.367 0 0 0-.012.132l3.501 11.816a.181.181 0 0 0 .342 0l3.501-11.816a.358.358 0 0 0-.012-.132l-1.595-3.06h.674a.178.178 0 0 0 .178-.179v-7.084a.178.178 0 0 0-.178-.178h-.918l-.028-7.673v-6.202a17.718 17.718 0 0 0 2.078.439l.097.016c4.247.725 6.161 2.453 6.76 3.065.072.08.12.138.15.178-.005.005-.012.008-.013.015a3.921 3.921 0 0 0 .689 2.768 3.231 3.231 0 0 0 2.296 1.13c.313 2.21.396 4.905.4 5.076a12.36 12.36 0 0 0-1.832 3.877 11.67 11.67 0 0 0-.372 2.764 2.838 2.838 0 0 1-.328-.993.178.178 0 0 0-.17-.166h-.007a.178.178 0 0 0-.172.132c-.062.233-.107.463-.152.694l-.033.166a9.224 9.224 0 0 0-1.293 9.326c.07.18.14.356.215.523l-.006.002a.178.178 0 0 0-.068.095 26.86 26.86 0 0 0-1.048 6.172c-.064 2.575.59 4.058 1.998 4.537a3.389 3.389 0 0 0 1.092.18c1.61 0 3.136-1.111 4.368-2.008l.34-.243a6.6 6.6 0 0 0 5.694 3.183c3.538 0 7.35-2.317 10.133-4.01a51.81 51.81 0 0 1 1.498-.887c3.435-1.918 3.59-7.49 3.584-8.63 2.431-1.078 3.64-2.391 3.803-4.133a4.93 4.93 0 0 0-2.577-4.303c-1.53-7.176-7.517-7.588-7.579-7.591h-.005a.174.174 0 0 0-.133.06.35.35 0 0 0-.043.149l.062.292a13.478 13.478 0 0 0-2.7-.96l-.043-.005a.18.18 0 0 0-.162.102.183.183 0 0 0 .048.215 6.616 6.616 0 0 1 .678.657 23.522 23.522 0 0 0-3.77-1.667 61.13 61.13 0 0 1-.198-2.384 30.74 30.74 0 0 1-.02-.719 5.38 5.38 0 0 0 .8.075 2.975 2.975 0 0 0 2.019-.681 4.579 4.579 0 0 0 1.166-3.546 2.286 2.286 0 0 0-.29-1.082 5.067 5.067 0 0 0-.708-.928c.145-.3 1.038-1.659 5.506-2.545a8.36 8.36 0 0 0 1.422-.425c.155-.054.313-.102.465-.162a.233.233 0 0 0 .047.013l.012-.005c-.001.006-.005.015 0 .015a.261.261 0 0 0 .127-.071c4.154-1.717 6.865-5.732 6.444-9.589h2.269a.178.178 0 0 0 .178-.178v-5.28a.178.178 0 0 0-.178-.178H60.46a9.438 9.438 0 0 0-7.62-6.468h-.004a9.323 9.323 0 0 0-1.337-.108 5.574 5.574 0 0 0-.92.087l-.18.02h-.241l-.005.001a9.435 9.435 0 0 0-7.615 6.468H25.77a.178.178 0 0 0-.178.178v5.281a.178.178 0 0 0 .178.178zm44.799 39.199h-.003l.003-.001zm-37.655 8.313-3.34-11.19 1.124-2.24.498-.966h.003l.003.016h3.378l1.638 3.128-1.798 6.166zm32.833-37.472-.152.033-.01-.007.027-.016a31.122 31.122 0 0 0-9.78-4.55 8.492 8.492 0 0 0 2.157-1.595c.17-.165.338-.334.496-.511l.014-.011a.584.584 0 0 0 .051.065 30.823 30.823 0 0 1 9.507 5.94 10.65 10.65 0 0 1-1.682.487 4.847 4.847 0 0 0-.628.165zm-3.787 13.204c2.033.613 8.453 3.154 8.92 10.877a6.463 6.463 0 0 1-2.324 2.048c-.325-7.06-3.22-10.078-5.594-11.366h-.002c-.004 0-.008.011-.012.023v-.017c.013-.005.027-.01.028-.015a3.156 3.156 0 0 0-.317-.654c-.002-.006-.007-.011-.01-.017a4.351 4.351 0 0 0-.333-.46 5.023 5.023 0 0 0-.356-.42zm-14.894-4.031c-.078-.5-.166-.98-.272-1.398 1.379-2.843 4.895-3.267 4.93-3.27a.203.203 0 0 0 .017-.04l.02-.01-.016.02c.004.004.089.043.094.044a16.009 16.009 0 0 1 5.96 1.823 21.75 21.75 0 0 0 .014 5.533 25.263 25.263 0 0 0-2.896-.78l-.252-.052a11.755 11.755 0 0 0-2.299-.31 3.775 3.775 0 0 0-2.396.767 13.858 13.858 0 0 0-1.614 1.457 11.709 11.709 0 0 0-.865 1.042 47.086 47.086 0 0 0-.412-4.748v-.002a.142.142 0 0 0-.013-.076zm10.976-3.093c.013.008.033.019.03.027-.003.01.046.03.067.04a.045.045 0 0 0-.01.023l-.002-.002a.39.39 0 0 0-.093-.068h-.004l-.008-.005zm-13.915-.614c.267-3.273 4.328-4.83 6.12-5.383a10.876 10.876 0 0 1 1.215 3.644 1.591 1.591 0 0 0 .105.352l.017.076.001.008c-.726.107-4.381.815-5.43 4.249a.163.163 0 0 0 .014.128.223.223 0 0 0 .154.102.181.181 0 0 0 .174-.126c.02-.061.042-.119.065-.176l.005-.013c.045.22.087.45.126.692a2.846 2.846 0 0 1-1.959-.983 3.675 3.675 0 0 1-.607-2.57zm13.93 1.325c.012-.084.023-.169.037-.247a3.72 3.72 0 0 1 .76.751.179.179 0 0 0 .145.073.373.373 0 0 0 .106-.034.18.18 0 0 0 .038-.25 4.198 4.198 0 0 0-1-.939h-.002a.36.36 0 0 0-.1-.072h-.001a14.32 14.32 0 0 0-5.992-1.828h-.024a10.374 10.374 0 0 1 .553-4.47c.693.063 6.833.715 8.762 4.059a1.958 1.958 0 0 1 .24.917 4.252 4.252 0 0 1-1.043 3.265 2.642 2.642 0 0 1-1.786.591 5.24 5.24 0 0 1-.772-.068c.002-.68.035-1.255.078-1.748zm9.33 23.564.582-.198a22.15 22.15 0 0 0 1.886-.712c.126-.05.252-.093.378-.146-.008 1.078-.208 6.414-3.401 8.196-.435.244-.926.542-1.548.919-2.726 1.656-6.46 3.924-9.897 3.924a6.267 6.267 0 0 1-5.414-3.022 68.982 68.982 0 0 1 17.415-8.961zm-23.01-9.217a.153.153 0 0 0 .02-.127c.011-.059.018-.117.03-.175a2.905 2.905 0 0 0 .48.85 17.153 17.153 0 0 0 .999 5.563 29.307 29.307 0 0 0 3.198 6.699c-.035.001-.07.004-.104.007-.05.004-.1.009-.15.009a10.733 10.733 0 0 1-2.275-.24 21.527 21.527 0 0 1-2.49-9.364c0-.018-.003-.035-.003-.053l.002-.08a16.09 16.09 0 0 1 .29-3.087zm16.395-6.826c2.15.469 7.046 2.568 7.433 11.958l-.121.053a5.744 5.744 0 0 1-.598.25 21.421 21.421 0 0 0-2.387.957c.064-.891.38-6.93-2.278-10.987a8.403 8.403 0 0 0-2.05-2.231zm-16.832 7.415a20.387 20.387 0 0 0 2.187 11.896 8.38 8.38 0 0 1-1.308-.453c-.489-.6-4.475-5.788-.879-11.443zm26.489 7.163c-.007-.002-.011-.008-.019-.008h-.002c.003-.012.01-.027.002-.028h-.006c-.04.001-.062.024-.053.06a.152.152 0 0 0-.036.022v-.004a.028.028 0 0 0-.022-.011l-.011.003c-.826.356-1.676.642-2.427.895l-.584.198a69.321 69.321 0 0 0-17.647 9.107h-.002l-.006.008v-.004l-.493.35c-1.182.863-2.653 1.936-4.148 1.936a3.03 3.03 0 0 1-.979-.16c-1.242-.421-1.816-1.792-1.756-4.189a27.359 27.359 0 0 1 .943-5.832 12.07 12.07 0 0 0 1.022 1.72.204.204 0 0 0-.065.045.178.178 0 0 0 .052.246 2.373 2.373 0 0 0 .224.09c.04.02.079.04.13.063l.028.035.013.007.001.008a.084.084 0 0 0 .057.028l.009-.005c.013.005.024.017.039.019l-.006.005a9.216 9.216 0 0 0 1.687.549h.002c.006 0 .004-.014.001-.029l.004.001a.158.158 0 0 0 .087.022l.01-.001h.004c-.005.013-.021.025-.01.028a11.114 11.114 0 0 0 2.381.254 15.563 15.563 0 0 0 6.6-1.601 159.774 159.774 0 0 0 5.995-2.992 41.653 41.653 0 0 1 6.15-2.816 6.78 6.78 0 0 0 3.832-2.986 4.417 4.417 0 0 0 .646-2.319.17.17 0 0 0-.14-.156l-.062-.25a4.468 4.468 0 0 1 2.164 3.812c-.15 1.603-1.3 2.827-3.62 3.854-.008.003.003.014.013.025zm1.075-8.073a.159.159 0 0 0 .02.119q.104.516.177 1.08a3.684 3.684 0 0 1-.006.115l-.003.003a4.386 4.386 0 0 1-.527 1.516 11.656 11.656 0 0 0-6.673-9.82l-.092-.257v-.002a.572.572 0 0 0-.017-.047 8.269 8.269 0 0 1 6.511 5.291 11.91 11.91 0 0 1 .61 2.002zm-9.149-6.55c.058.1.1.182.144.265a7.146 7.146 0 0 0-2.42-.686h-.004a.178.178 0 0 0-.091.33c5.575 3.324 4.794 12.963 4.77 13.494-1.09.504-2.255 1.108-3.487 1.747-1.632.848-3.482 1.81-5.965 2.976a16.35 16.35 0 0 1-5.579 1.534c-.077.005-.155.02-.232.023v-.003c-.001-.006-.015-.006-.025-.009a.13.13 0 0 0 .009-.043 29.358 29.358 0 0 1-3.232-6.763 14.936 14.936 0 0 1-.58-8.7 12.285 12.285 0 0 1 2.952-5.23 13.598 13.598 0 0 1 1.573-1.419 3.397 3.397 0 0 1 2.186-.691 11.432 11.432 0 0 1 2.22.301l.253.05a24.757 24.757 0 0 1 7.508 2.825zm-1.674-11.81c-2.757-2.623-8.097-3.04-8.151-3.043h-.007a.176.176 0 0 0-.166.112 10.278 10.278 0 0 0-.712 3.42 8 8 0 0 0-1.162-3.137.348.348 0 0 0-.135-.062l-.04.004c-.057.013-5.77 1.353-6.454 5.297-.619-.698-2.464-2.334-6.627-3.11a17.082 17.082 0 0 1 9.76-6.434.105.105 0 0 0 .075-.09 9.39 9.39 0 0 0 4.437 1.119 9.29 9.29 0 0 0 3.912-.867.363.363 0 0 0 .11.08A30.977 30.977 0 0 1 65.154 93c-3.243.824-4.204 1.892-4.473 2.343zm-25.194 20.278-.4.032-.332.004-.047-.027-.056.005-.006-.005-1.473.044-.254.003h-1.73l-.005-.005a.031.031 0 0 0-.016-.004l-.02.002.022-.01a.537.537 0 0 0-.05-.037l-.01-.002a.315.315 0 0 0-.043.054l-.002.002h-.022c-.004-.003-.007-.008-.012-.008l-.15.013-.542.021-.056-6.81.948-.011c.005 0 0-.007-.002-.012a.41.41 0 0 0 .056.01l-.001.002 1.321-.043.2-.002h1.623l-.012.003a.178.178 0 0 0 .126.053.174.174 0 0 0 .109-.047l.196-.015.612-.02zm7.363-38.216.004-.01a9.037 9.037 0 0 1 17.3.028l.004.015a9.039 9.039 0 0 1-8.659 11.625 9.104 9.104 0 0 1-8.649-6.416l-.016-.054a9.056 9.056 0 0 1 .002-5.139l.014-.05h-.004c-.008 0-.01.018-.01.034a.032.032 0 0 0-.01-.012c.003-.01.017-.015.018-.026zm-6.024 17.342a17.245 17.245 0 0 1-2.106-.446l-.026-.693h.537a1.483 1.483 0 0 0 1.439-1.144.404.404 0 0 0 .437.327.406.406 0 0 0 .167-.053l.002.007a.118.118 0 0 0 .02.126.414.414 0 0 0 .386.194.398.398 0 0 0 .183-.061.414.414 0 0 0 .126-.572.399.399 0 0 0-.11-.116c.008-.006.014-.015.022-.023a.353.353 0 0 0 .09-.497.41.41 0 0 0-.342-.186 1.688 1.688 0 0 0 .761-1.408v-.717a.1.1 0 0 0 .032.014h.002a22.461 22.461 0 0 1 5.827-3.401.351.351 0 0 0 .023-.053c.136.162.303.297.45.45q.119.124.243.243a9.204 9.204 0 0 0 .917.777c.148.11.3.215.455.317.127.082.238.18.37.258a17.523 17.523 0 0 0-9.905 6.657zm-5.391 13.79-.028-14.92v-.009h2.956v14.929zm5.292-21.861a1.494 1.494 0 0 0-1.432-1.49 1.524 1.524 0 0 0 .542-1.051 1.351 1.351 0 0 1 2.22 1.017v5.05a1.35 1.35 0 0 1-1.435 1.327 1.5 1.5 0 0 0-.555-.7 1.52 1.52 0 0 0 1.034-1.463 1.495 1.495 0 0 0-1.035-1.408 1.547 1.547 0 0 0 .661-1.282zm-.904-2.56h-.008l.007-.005zm6.716-1.27a9.333 9.333 0 0 0 1.557 2.94 22.405 22.405 0 0 0-5.683 3.31v-3.944a1.691 1.691 0 0 0-1.69-1.689h-.038a1.556 1.556 0 0 0-.862.269 1.457 1.457 0 0 0-.535-.886zm-5.851 9.015h.01l.026.03a1.673 1.673 0 0 0 .597-.115.405.405 0 0 0-.084.264c-.006-.003-.013-.003-.02-.006a.206.206 0 0 0-.189-.07.384.384 0 0 0-.311.204c.002-.038.01-.074.01-.112a.59.59 0 0 0-.04-.194zm31.72.233a30.607 30.607 0 0 0-9.66-6.105 8.747 8.747 0 0 0 1.562-2.821c.04-.11.085-.216.12-.328l.01.006h14.19c.414 3.69-2.198 7.574-6.223 9.248zm-25.562-9.451-.008.005c-.002-.013-.017-.021-.022-.033l-.006-.021.022.008c-.01.005.007.026.015.041zm-6.02 12.133h-.002l.002-.007.012.008zm-7.096-11.93h4.628a1.155 1.155 0 0 1 1.138 1.195 1.198 1.198 0 0 1-.752 1.089 1.167 1.167 0 0 1-.247.05H29.87a1.155 1.155 0 0 1-1.138-1.196 1.197 1.197 0 0 1 .757-1.09 1.168 1.168 0 0 1 .24-.048zm.045 2.68a.739.739 0 0 0 .096.01h5.36a1.155 1.155 0 0 1 1.139 1.196 1.198 1.198 0 0 1-.753 1.088 1.165 1.165 0 0 1-.246.05h-5.5a1.155 1.155 0 0 1-1.138-1.194 1.198 1.198 0 0 1 .758-1.091 1.155 1.155 0 0 1 .284-.058zm0 2.69a.757.757 0 0 0 .096.01h5.736a1.155 1.155 0 0 1 1.138 1.196 1.14 1.14 0 0 1-1.138 1.14l-.184.027a1.467 1.467 0 0 0-.191-.028H29.87a1.155 1.155 0 0 1-1.138-1.195 1.198 1.198 0 0 1 .758-1.091 1.155 1.155 0 0 1 .284-.058zm0 2.692a.755.755 0 0 0 .096.01h5.361a1.155 1.155 0 0 1 1.138 1.194 1.14 1.14 0 0 1-1.139 1.14h-5.36a1.155 1.155 0 0 1-1.138-1.195 1.197 1.197 0 0 1 .757-1.09 1.155 1.155 0 0 1 .285-.059z"/><path d="M65.108 90.487a.397.397 0 0 0-.185-.045.206.206 0 0 0-.182.085l-.02.007a.406.406 0 0 0-.216-.36.397.397 0 0 0-.188-.047.415.415 0 0 0-.37.226.353.353 0 0 0 .13.489c.009.006.016.015.025.02a.397.397 0 0 0-.1.125.415.415 0 0 0 .173.56.4.4 0 0 0 .187.045.414.414 0 0 0 .37-.226.118.118 0 0 0 .008-.127l.002-.007a.407.407 0 0 0 .17.04.417.417 0 0 0 .196-.785z"/><path d="m64.801 90.384.229-.108.145-.049-.019-.01.032-.015-.555-.287.018.063.15.406zM60.035 87.8a.397.397 0 0 0-.185-.044.206.206 0 0 0-.182.085l-.02.007a.406.406 0 0 0-.217-.36.396.396 0 0 0-.187-.047.416.416 0 0 0-.37.226.353.353 0 0 0 .13.489c.009.006.015.015.025.02a.4.4 0 0 0-.1.125.415.415 0 0 0 .172.56.398.398 0 0 0 .188.045.414.414 0 0 0 .369-.226.118.118 0 0 0 .009-.127l.002-.007a.407.407 0 0 0 .17.04.417.417 0 0 0 .195-.785z"/><path d="m59.728 87.698.229-.107.145-.05-.019-.01.032-.015-.555-.287.018.063.15.406zm-17.834 1.13a.407.407 0 0 0 .17-.039l.003.007a.117.117 0 0 0 .008.128.414.414 0 0 0 .37.225.399.399 0 0 0 .187-.046.414.414 0 0 0 .173-.559.399.399 0 0 0-.1-.124c.009-.006.016-.014.024-.021a.353.353 0 0 0 .13-.489.415.415 0 0 0-.37-.225.396.396 0 0 0-.187.046.406.406 0 0 0-.217.36l-.02-.007a.206.206 0 0 0-.182-.085.397.397 0 0 0-.185.045.417.417 0 0 0 .195.784z"/><path d="m41.632 87.784.145.05.229.107.15-.406.018-.063-.555.287.032.015-.019.01zm7.124-5.717a3.041 3.041 0 0 0-.233 1.17 2.976 2.976 0 1 0 5.952 0 3.041 3.041 0 0 0-.233-1.17 3.013 3.013 0 0 0-.1-6.022 2.961 2.961 0 0 0-2.643 1.656 2.962 2.962 0 0 0-2.643-1.656 3.013 3.013 0 0 0-.1 6.022z"/><path d="M53.673 73.802h-4.348l2.174 2.265 2.174-2.265z"/><path class="cls-1" d="M75.56 78.46v3.14H60.75a2.211 2.211 0 0 1-.05.25h15.11v-3.64H60.7a2.211 2.211 0 0 1 .05.25zM42.3 81.85a2.211 2.211 0 0 1-.05-.25H27.44v-3.14h14.81a2.211 2.211 0 0 1 .05-.25H27.19v3.64z"/><path class="cls-2" d="M59.023 45.455c3.776-5.71-.482-11.117-.825-11.536a8.42 8.42 0 0 0-1.368-.473 20.591 20.591 0 0 1 2.193 12.009z"/><path class="cls-3" d="M68.458 51.134a.15.15 0 0 1 .107.045l3.152-.034c.01-.002.016-.01.027-.01s.016.008.025.01l.976-.01-.056-6.842-.72.008c-.026.02-.046.048-.08.048-.03-.01-.038-.031-.058-.047l-3.478.038-.042.01c-.007 0-.01-.009-.015-.01l-.784.009v6.841l.837-.009a.148.148 0 0 1 .109-.047z"/><path class="cls-4" d="M34.598 67.87c-3.972 1.645-6.693 5.52-6.255 9.31h14.218a9.354 9.354 0 0 1 1.735-3.184 30.706 30.706 0 0 1-9.698-6.126z"/><path class="cls-5" d="m73.449 40.845-1.654 3.204h-3.392l-1.644-3.167 3.345-11.293 3.345 11.256z"/><path class="cls-6" d="m73.449 40.845-1.654 3.204h-1.691v-14.46l3.345 11.256z"/><path class="cls-7" d="M74.295 67.942a1.182 1.182 0 0 0-1.166-1.224h-5.36a1.169 1.169 0 0 0-1.167 1.168 1.182 1.182 0 0 0 1.166 1.223h5.361a1.168 1.168 0 0 0 1.166-1.167z"/><path class="cls-2" d="M68.608 51.434h2.985V66.42h-2.985zm-26.331 1.407c-4.906-3.566-4.424-12.242-4.346-13.285a24.634 24.634 0 0 1-2.426.957 7.529 7.529 0 0 0-.74.313c.39 9.595 5.547 11.602 7.512 12.015zM31.852 43.36a4.444 4.444 0 0 0-.572 1.615c.894 7.488 6.256 8.514 7.363 8.645l-.016-.09-.095-.267a11.681 11.681 0 0 1-6.68-9.903z"/><path class="cls-7" d="M41.72 37.67c-1.314.682-2.43 1.258-3.5 1.753.007.019.02.035.018.056-.01.1-.938 10.082 4.764 13.48a.15.15 0 0 1-.077.28h-.004a7.133 7.133 0 0 1-2.477-.715 3.763 3.763 0 0 0 .18.341 24.655 24.655 0 0 0 7.523 2.831l.253.05a11.475 11.475 0 0 0 2.226.303 3.42 3.42 0 0 0 2.203-.698 13.57 13.57 0 0 0 1.576-1.421 12.308 12.308 0 0 0 2.959-5.242 14.958 14.958 0 0 0-.58-8.717 29.388 29.388 0 0 0-3.234-6.77.23.23 0 0 1-.012-.043 15.54 15.54 0 0 0-5.852 1.535 154.223 154.223 0 0 0-5.966 2.977zm4.642 6.425a6.714 6.714 0 0 1-.647.467.768.768 0 0 1 .397.675.768.768 0 1 1-1.535 0 .602.602 0 0 1 .015-.083 10.443 10.443 0 0 1-2.721.77h-.02a.15.15 0 0 1-.15-.134.17.17 0 0 1 .134-.166 10.007 10.007 0 0 0 2.727-.783 6.85 6.85 0 0 0 1.536-.92l-.006-.007-.98-1.116a.404.404 0 0 1-.033-.112.149.149 0 0 1 .056-.1.38.38 0 0 1 .093-.034.154.154 0 0 1 .117.054l1.037 1.278a.151.151 0 0 1-.02.21zm5.205-1.81a4.915 4.915 0 0 0 1.698-.596 5.154 5.154 0 0 0 1.085-.775 6.163 6.163 0 0 0 .462-.481l-1.192-1.257a.17.17 0 0 1 .011-.212.386.386 0 0 1 .1-.04.153.153 0 0 1 .113.052l1.247 1.39a.15.15 0 0 1 .006.196 6.06 6.06 0 0 1-.522.552.795.795 0 0 1 .29.61.783.783 0 0 1-.768.797.756.756 0 0 1-.716-.554 5.141 5.141 0 0 1-1.782.618h-.016a.15.15 0 0 1-.15-.135.151.151 0 0 1 .135-.165zm-2.012-.31a.414.414 0 0 1 .104-.04.147.147 0 0 1 .11.049c.136.144 3.342 3.58 2.627 5.673a2.414 2.414 0 0 1-2.149 1.411l-.023.001a.15.15 0 0 1-.148-.125.151.151 0 0 1 .124-.173c1.05-.167 1.694-.574 1.911-1.212.65-1.901-2.53-5.336-2.562-5.37a.394.394 0 0 1-.041-.107.15.15 0 0 1 .048-.107zm-1.403 9.443a11.135 11.135 0 0 0 1.715.142 4.032 4.032 0 0 0 2.566-.683.362.362 0 0 1 .1-.039.149.149 0 0 1 .113.05.4.4 0 0 1 .04.108.151.151 0 0 1-.05.105 4.08 4.08 0 0 1-2.77.764 10.656 10.656 0 0 1-1.741-.148.15.15 0 0 1 .027-.299z"/><path class="cls-2" d="M53.862 33.138a29.814 29.814 0 0 1 3.205 6.734 17.14 17.14 0 0 1 .998 5.564 2.907 2.907 0 0 1 .499.89c1.389-6.4-1.726-12.256-2.122-12.964a10.794 10.794 0 0 0-2.293-.242c-.095 0-.192.016-.287.018z"/><path class="cls-1" d="M51.501 70.907a9.065 9.065 0 1 0 9.065 9.065 9.075 9.075 0 0 0-9.065-9.065zm-2.174 15.29 2.174-2.264 2.174 2.265zm4.817-2.242A2.962 2.962 0 0 1 51.5 82.3a2.962 2.962 0 0 1-2.643 1.656 3.013 3.013 0 0 1-.1-6.022 3.041 3.041 0 0 1-.233-1.17 2.976 2.976 0 1 1 5.952 0 3.043 3.043 0 0 1-.232 1.17 3.013 3.013 0 0 1-.101 6.022z"/><path class="cls-8" d="M35.621 36.784a68.937 68.937 0 0 0 17.447-8.982 6.3 6.3 0 0 0-5.455-3.057c-3.445 0-7.183 2.271-9.912 3.93-.622.377-1.112.674-1.546.917-3.193 1.782-3.41 7.043-3.416 8.232.78-.328 1.578-.599 2.301-.842z"/><path class="cls-9" d="M30.952 45.507a4.394 4.394 0 0 1 .642-2.304 6.752 6.752 0 0 1 3.816-2.975 41.679 41.679 0 0 0 6.154-2.817c1.68-.871 3.554-1.843 5.994-2.99a15.54 15.54 0 0 1 6.588-1.6 11.106 11.106 0 0 1 2.375.254h.01a.16.16 0 0 1 .088.02 7.768 7.768 0 0 1 2.174.796.15.15 0 0 1 .044.206.31.31 0 0 1-.084.05 12.066 12.066 0 0 1 1.054 1.773 25.848 25.848 0 0 0 .981-5.872c.06-2.41-.52-3.79-1.775-4.216a3.052 3.052 0 0 0-.988-.163c-1.504 0-2.98 1.077-4.166 1.942l-.198.145c-.098.07-.2.138-.3.208v.002h-.001a69.268 69.268 0 0 1-17.64 9.103l-.584.198c-.762.257-1.61.543-2.428.896a.141.141 0 0 1-.112.067h-.006c-.007 0-.012-.006-.019-.007-1.817.804-3.457 1.954-3.637 3.878a4.526 4.526 0 0 0 2.208 3.86 13.677 13.677 0 0 1-.053-.314.148.148 0 0 1-.137-.14z"/><path class="cls-2" d="M34.47 40.952a6.245 6.245 0 0 0-2.377 2.068.139.139 0 0 1 .028.058c.43 7.803 7.12 10.326 8.956 10.872a4.278 4.278 0 0 1-1.026-1.599v-.027c-2.324-1.261-5.262-4.261-5.58-11.372z"/><path class="cls-3" d="M56.677 58.499c.12.03.165.114.14.193-1.043 3.42-4.686 4.123-5.408 4.23l.002.008c.128.484.56 3.175 1.32 4.117.547-.17 5.86-1.599 6.17-5.4a3.734 3.734 0 0 0-.613-2.588 2.892 2.892 0 0 0-2.016-1.002c.046.293.096.571.15.831.036-.095.077-.184.108-.284a.153.153 0 0 1 .147-.105z"/><path class="cls-7" d="M67.476 75.957a1.182 1.182 0 0 0 1.167 1.224h4.486a1.168 1.168 0 0 0 1.166-1.167 1.182 1.182 0 0 0-1.166-1.224h-4.486a1.168 1.168 0 0 0-1.167 1.167zm-1.082-7.517c-.026-.002-.055-.005-.08-.005a1.371 1.371 0 0 0-1.398 1.361v5.05a1.363 1.363 0 0 0 1.36 1.361 1.383 1.383 0 0 0 .912-.327 1.51 1.51 0 0 1 .58-1.09 1.469 1.469 0 0 1-1.467-1.468 1.515 1.515 0 0 1 .683-1.288 1.465 1.465 0 0 1-1.058-1.402 1.492 1.492 0 0 1 1.056-1.457 1.467 1.467 0 0 1-.588-.735z"/><path class="cls-4" d="M67.199 76.246a1.652 1.652 0 0 1-.884.26h-.039a1.663 1.663 0 0 1-1.661-1.66V70.86a22.683 22.683 0 0 1-5.755 3.34 9.342 9.342 0 0 1 1.58 2.982h7.323a1.46 1.46 0 0 1-.565-.935z"/><path class="cls-7" d="M51.237 62.659c.015-.007.025-.021.042-.023.038-.004 3.576-.429 4.958-3.298a.14.14 0 0 1-.034-.054 38.804 38.804 0 0 1-.669-6.237 13.024 13.024 0 0 1-.91 1.089 13.877 13.877 0 0 1-1.611 1.454 3.746 3.746 0 0 1-2.38.76 11.76 11.76 0 0 1-2.292-.309l-.253-.051a25.277 25.277 0 0 1-2.917-.786 22.876 22.876 0 0 1 0 5.581 15.897 15.897 0 0 0 5.987 1.837.15.15 0 0 1 .08.037zm15.365 10.608a1.182 1.182 0 0 0 1.166 1.224h5.361a1.168 1.168 0 0 0 1.166-1.168A1.181 1.181 0 0 0 73.13 72.1h-5.36a1.169 1.169 0 0 0-1.167 1.167zm-.375-2.691a1.182 1.182 0 0 0 1.167 1.224h5.735a1.168 1.168 0 0 0 1.166-1.168 1.182 1.182 0 0 0-1.166-1.224h-5.735a1.168 1.168 0 0 0-1.167 1.168z"/><path class="cls-4" d="M47.566 71.462c.004.007 0 .015.003.022a9.299 9.299 0 0 1 8.356.238.151.151 0 0 1 .093-.086 17.115 17.115 0 0 0 9.807-6.48c-4.243-.779-6.1-2.47-6.684-3.138-.634 3.945-6.396 5.302-6.456 5.315l-.033.003a.372.372 0 0 1-.114-.051 8.525 8.525 0 0 1-1.197-3.325 10.383 10.383 0 0 1-.724 3.616.149.149 0 0 1-.14.094h-.007c-.064-.004-5.436-.442-8.156-3.056-.26.455-1.218 1.542-4.522 2.371a30.759 30.759 0 0 0 9.68 4.41.39.39 0 0 1 .094.067z"/><path class="cls-3" d="M44.873 60.944a4.233 4.233 0 0 1-.992-.932.152.152 0 0 1 .031-.21.394.394 0 0 1 .09-.03.15.15 0 0 1 .121.062 3.77 3.77 0 0 0 .779.768 11.658 11.658 0 0 0 .149-2.054 5.269 5.269 0 0 0-.8-.071 2.666 2.666 0 0 0-1.805.598 4.274 4.274 0 0 0-1.053 3.288 1.977 1.977 0 0 0 .245.93c1.939 3.361 8.088 4.01 8.784 4.072a10.255 10.255 0 0 0 .583-4.501 14.758 14.758 0 0 1-6.034-1.852h-.004a.39.39 0 0 1-.094-.068z"/><path class="cls-9" d="M56.216 71.894a9.423 9.423 0 0 1 2.47 2.082c.015-.018.028-.04.05-.049a22.501 22.501 0 0 0 5.834-3.406.237.237 0 0 1 .044-.02v-.705a1.663 1.663 0 0 1 1.662-1.66h.044a1.451 1.451 0 0 1-.02-.194 1.482 1.482 0 0 1 1.468-1.523h.539v-.744h-.004a16.854 16.854 0 0 0-2.13-.452l-.01-.002a17.484 17.484 0 0 1-9.947 6.673zm-11.721 1.885a9.41 9.41 0 0 1 2.746-2.136 31.11 31.11 0 0 1-9.836-4.564 24.38 24.38 0 0 1-.786.171 10.732 10.732 0 0 0-1.715.497 30.614 30.614 0 0 0 9.536 5.984.286.286 0 0 1 .055.048z"/><path d="M52.085 47.55c-.214.626-.849 1.028-1.889 1.193a.18.18 0 0 0-.148.205.178.178 0 0 0 .176.15l.028-.002a2.439 2.439 0 0 0 2.17-1.43c.722-2.11-2.495-5.556-2.632-5.702a.176.176 0 0 0-.131-.058.386.386 0 0 0-.123.049.176.176 0 0 0-.056.125.373.373 0 0 0 .048.128c.132.142 3.191 3.487 2.557 5.341zm.571 3.571a.18.18 0 0 0 .058-.125.375.375 0 0 0-.047-.127.177.177 0 0 0-.133-.06.362.362 0 0 0-.119.047 4.003 4.003 0 0 1-2.547.675 11.171 11.171 0 0 1-1.715-.142.178.178 0 0 0-.033.354 10.674 10.674 0 0 0 1.747.15 4.107 4.107 0 0 0 2.789-.772zm-7.289-8.533a.184.184 0 0 0-.138-.064.352.352 0 0 0-.11.04.177.177 0 0 0-.067.12.363.363 0 0 0 .04.132l.513.542.475.542a6.795 6.795 0 0 1-1.529.915 9.974 9.974 0 0 1-2.718.781.179.179 0 0 0 .03.356h.012a10.318 10.318 0 0 0 2.687-.77.693.693 0 0 0-.013.055.796.796 0 1 0 1.592 0 .788.788 0 0 0-.377-.674 6.82 6.82 0 0 0 .617-.446.18.18 0 0 0 .024-.25zm6.225.025h.01a5.135 5.135 0 0 0 1.766-.607.779.779 0 0 0 .729.543.811.811 0 0 0 .795-.824.68.68 0 0 0-.192-.452.818.818 0 0 0-.113-.143l.007.004a5.816 5.816 0 0 0 .525-.555.18.18 0 0 0-.006-.232l-1.248-1.39a.182.182 0 0 0-.134-.061.364.364 0 0 0-.118.047.197.197 0 0 0-.013.252l1.191 1.22a6.07 6.07 0 0 1-.46.478 5.114 5.114 0 0 1-1.079.772 4.9 4.9 0 0 1-1.687.592.179.179 0 0 0 .027.356z"/><path d="m77.23 77.152-3.18.02a1.548 1.548 0 0 0 .574-1.216 1.458 1.458 0 0 0-.825-1.31 1.533 1.533 0 0 0 .825-1.38 1.458 1.458 0 0 0-.825-1.31 1.533 1.533 0 0 0 .825-1.381 1.46 1.46 0 0 0-.825-1.31 1.532 1.532 0 0 0 .825-1.38 1.497 1.497 0 0 0-1.495-1.495h-1.207V51.462h.917a.178.178 0 0 0 .179-.178v-7.085a.178.178 0 0 0-.179-.178l-.664.014 1.586-3.075a.367.367 0 0 0 .012-.132l-3.501-11.815a.181.181 0 0 0-.342-.001l-3.501 11.816a.358.358 0 0 0 .012.132l1.595 3.061h-.673a.178.178 0 0 0-.179.178v7.085a.178.178 0 0 0 .179.178h.917l.028 7.672v6.202a17.718 17.718 0 0 0-2.078-.439l-.097-.016c-4.247-.724-6.161-2.453-6.76-3.065a2.938 2.938 0 0 1-.15-.178c.005-.005.012-.008.012-.015a3.921 3.921 0 0 0-.688-2.768 3.231 3.231 0 0 0-2.297-1.13c-.313-2.21-.395-4.905-.4-5.076a12.36 12.36 0 0 0 1.832-3.877 11.665 11.665 0 0 0 .372-2.764 2.838 2.838 0 0 1 .329.992.179.179 0 0 0 .169.167h.008a.178.178 0 0 0 .172-.132c.062-.233.107-.463.152-.694l.033-.166a9.224 9.224 0 0 0 1.293-9.326c-.07-.18-.14-.356-.214-.523l.006-.002a.178.178 0 0 0 .067-.095 26.86 26.86 0 0 0 1.049-6.172c.063-2.575-.59-4.058-1.999-4.537a3.389 3.389 0 0 0-1.092-.18c-1.61 0-3.135 1.11-4.368 2.008l-.339.243a6.6 6.6 0 0 0-5.695-3.183c-3.537 0-7.35 2.317-10.133 4.01a51.81 51.81 0 0 1-1.497.887c-3.435 1.918-3.59 7.49-3.585 8.63-2.43 1.078-3.64 2.391-3.803 4.133a4.93 4.93 0 0 0 2.577 4.303c1.531 7.176 7.517 7.588 7.58 7.591h.004a.174.174 0 0 0 .134-.06.35.35 0 0 0 .042-.149l-.062-.292a13.478 13.478 0 0 0 2.7.96l.044.005a.179.179 0 0 0 .162-.102.182.182 0 0 0-.048-.215 6.616 6.616 0 0 1-.678-.657 23.522 23.522 0 0 0 3.77 1.667c.026.245.125 1.23.198 2.384.01.236.016.476.02.719a5.38 5.38 0 0 0-.8-.075 2.975 2.975 0 0 0-2.019.681 4.579 4.579 0 0 0-1.166 3.546 2.286 2.286 0 0 0 .29 1.082 5.067 5.067 0 0 0 .708.928c-.146.3-1.038 1.659-5.506 2.545a8.36 8.36 0 0 0-1.422.425c-.155.054-.313.102-.465.162a.233.233 0 0 0-.047-.013l-.012.005c0-.006.005-.015 0-.016a.262.262 0 0 0-.127.072c-4.154 1.717-6.865 5.732-6.444 9.589h-2.27a.178.178 0 0 0-.178.177v5.281a.178.178 0 0 0 .178.178h16.77a9.438 9.438 0 0 0 7.62 6.468h.004a9.323 9.323 0 0 0 1.337.108 5.574 5.574 0 0 0 .92-.087l.18-.02h.241l.005-.001a9.435 9.435 0 0 0 7.615-6.468H77.23a.178.178 0 0 0 .178-.178V77.33a.178.178 0 0 0-.178-.178zM32.431 37.953h.004l-.003.001zm37.655-8.313 3.34 11.19-1.124 2.24-.498.967h-.003l-.003-.016H68.42l-1.638-3.128 1.798-6.168zM37.253 67.112c.05-.01.103-.021.152-.033l.01.008-.027.015a31.125 31.125 0 0 0 9.78 4.55 8.494 8.494 0 0 0-2.157 1.595c-.17.165-.338.334-.496.512l-.014.01a.584.584 0 0 0-.051-.064 30.823 30.823 0 0 1-9.507-5.94 10.65 10.65 0 0 1 1.682-.487 4.847 4.847 0 0 0 .628-.166zm3.787-13.204c-2.033-.613-8.453-3.154-8.92-10.877a6.463 6.463 0 0 1 2.324-2.048c.325 7.06 3.22 10.078 5.594 11.366h.002c.004 0 .008-.011.012-.023v.017c-.013.005-.027.01-.028.015a3.156 3.156 0 0 0 .317.654c.002.006.007.011.01.017a4.351 4.351 0 0 0 .333.46 5.023 5.023 0 0 0 .356.42zm14.894 4.031c.078.5.166.98.272 1.398-1.379 2.843-4.895 3.267-4.93 3.27a.203.203 0 0 0-.017.039l-.02.011.016-.02a1.175 1.175 0 0 0-.094-.044 16.009 16.009 0 0 1-5.96-1.823 21.75 21.75 0 0 0-.014-5.533 25.263 25.263 0 0 0 2.896.78l.252.051a11.755 11.755 0 0 0 2.299.31 3.775 3.775 0 0 0 2.396-.767 13.858 13.858 0 0 0 1.614-1.457 11.709 11.709 0 0 0 .865-1.041 47.086 47.086 0 0 0 .412 4.747v.003a.142.142 0 0 0 .013.076zm-10.976 3.093c-.013-.008-.033-.019-.03-.027.003-.01-.046-.03-.067-.04a.045.045 0 0 0 .01-.023l.002.002a.39.39 0 0 0 .093.068h.004l.008.005zm13.915.614c-.267 3.273-4.328 4.83-6.12 5.383a10.876 10.876 0 0 1-1.215-3.644 1.59 1.59 0 0 0-.105-.352l-.017-.076-.001-.008c.726-.107 4.381-.815 5.43-4.249a.163.163 0 0 0-.014-.128.223.223 0 0 0-.154-.102.181.181 0 0 0-.174.126c-.02.061-.042.119-.065.176l-.005.013a15.91 15.91 0 0 1-.126-.692 2.846 2.846 0 0 1 1.959.983 3.675 3.675 0 0 1 .607 2.57zm-13.93-1.325c-.011.084-.022.169-.037.247a3.72 3.72 0 0 1-.76-.751.179.179 0 0 0-.144-.074.373.373 0 0 0-.107.035.18.18 0 0 0-.037.25 4.196 4.196 0 0 0 .999.939h.002a.36.36 0 0 0 .1.072h.001a14.32 14.32 0 0 0 5.992 1.828h.024a10.374 10.374 0 0 1-.552 4.47c-.694-.063-6.833-.715-8.763-4.059a1.958 1.958 0 0 1-.24-.917 4.252 4.252 0 0 1 1.043-3.265 2.642 2.642 0 0 1 1.786-.591 5.24 5.24 0 0 1 .772.068c-.002.68-.035 1.255-.078 1.748zm-9.33-23.564-.582.198c-.55.186-1.212.413-1.886.712-.126.05-.252.093-.378.146.008-1.078.208-6.414 3.401-8.196.435-.244.926-.542 1.548-.919 2.726-1.656 6.46-3.924 9.898-3.924a6.267 6.267 0 0 1 5.414 3.022 68.982 68.982 0 0 1-17.416 8.961zm23.01 9.217a.153.153 0 0 0-.02.127c-.011.059-.018.116-.03.175a2.905 2.905 0 0 0-.48-.85 17.153 17.153 0 0 0-.999-5.563 29.305 29.305 0 0 0-3.198-6.699l.104-.007c.05-.004.1-.009.15-.009a10.733 10.733 0 0 1 2.275.24 21.527 21.527 0 0 1 2.491 9.365l.002.052-.002.08a16.09 16.09 0 0 1-.29 3.087zM42.229 52.8c-2.15-.469-7.046-2.568-7.433-11.958l.121-.053a5.744 5.744 0 0 1 .598-.25 21.421 21.421 0 0 0 2.387-.957c-.064.891-.38 6.93 2.278 10.987a8.403 8.403 0 0 0 2.05 2.231zm16.832-7.415a20.386 20.386 0 0 0-2.187-11.896 8.38 8.38 0 0 1 1.308.453c.489.6 4.475 5.788.879 11.443zm-26.489-7.163c.007.001.012.008.019.008h.003c-.004.012-.01.027-.003.028h.006c.04-.001.062-.024.053-.06a.152.152 0 0 0 .036-.022v.004a.028.028 0 0 0 .022.011l.011-.003c.826-.356 1.676-.642 2.427-.895l.584-.198a69.321 69.321 0 0 0 17.647-9.107h.002l.006-.008v.004l.493-.35c1.182-.863 2.654-1.936 4.148-1.936a3.03 3.03 0 0 1 .98.16c1.241.421 1.816 1.792 1.756 4.189a27.36 27.36 0 0 1-.943 5.832 12.07 12.07 0 0 0-1.023-1.72.204.204 0 0 0 .066-.045.178.178 0 0 0-.052-.246 2.388 2.388 0 0 0-.225-.09c-.04-.02-.078-.04-.129-.063l-.03-.035-.012-.006-.001-.009a.084.084 0 0 0-.056-.027l-.01.004c-.013-.005-.024-.017-.039-.018l.006-.006a9.216 9.216 0 0 0-1.687-.548h-.001c-.007 0-.004.013-.002.028l-.003-.001a.158.158 0 0 0-.088-.022l-.01.001h-.004c.005-.013.022-.025.01-.028a11.108 11.108 0 0 0-2.38-.254 15.563 15.563 0 0 0-6.6 1.601 159.774 159.774 0 0 0-5.996 2.993 41.653 41.653 0 0 1-6.15 2.815 6.78 6.78 0 0 0-3.832 2.986 4.417 4.417 0 0 0-.646 2.319.17.17 0 0 0 .14.156l.062.25a4.468 4.468 0 0 1-2.164-3.812c.15-1.602 1.3-2.826 3.62-3.854.008-.003-.002-.014-.013-.025zm-1.075 8.073a.159.159 0 0 0-.02-.119q-.104-.516-.176-1.08c0-.035.002-.071.005-.115l.003-.003a4.386 4.386 0 0 1 .527-1.516 11.656 11.656 0 0 0 6.674 9.82l.091.257v.002a.572.572 0 0 0 .017.047 8.269 8.269 0 0 1-6.511-5.291 11.91 11.91 0 0 1-.61-2.002zm9.15 6.55c-.06-.1-.1-.182-.145-.265a7.146 7.146 0 0 0 2.42.686h.004a.178.178 0 0 0 .091-.33c-5.575-3.324-4.793-12.963-4.77-13.494 1.09-.504 2.255-1.108 3.487-1.747 1.632-.848 3.482-1.81 5.965-2.976a16.35 16.35 0 0 1 5.579-1.534c.077-.005.155-.02.232-.023v.003c.002.006.015.006.025.009a.13.13 0 0 0-.009.043 29.358 29.358 0 0 1 3.232 6.763 14.936 14.936 0 0 1 .58 8.7 12.285 12.285 0 0 1-2.952 5.23 13.605 13.605 0 0 1-1.573 1.419 3.398 3.398 0 0 1-2.186.691 11.432 11.432 0 0 1-2.22-.302l-.253-.05a24.757 24.757 0 0 1-7.508-2.824zm1.673 11.81c2.757 2.623 8.097 3.04 8.151 3.043h.007a.177.177 0 0 0 .166-.112 10.278 10.278 0 0 0 .712-3.42 8 8 0 0 0 1.162 3.137.348.348 0 0 0 .135.062l.04-.004c.057-.013 5.77-1.353 6.455-5.297.618.698 2.463 2.334 6.626 3.11a17.082 17.082 0 0 1-9.76 6.434.104.104 0 0 0-.074.09 9.39 9.39 0 0 0-4.438-1.12 9.29 9.29 0 0 0-3.912.868.365.365 0 0 0-.11-.08 30.975 30.975 0 0 1-9.633-4.367c3.244-.824 4.204-1.892 4.473-2.343zm25.194-20.278.4-.032.332-.004.047.027.056-.005.006.005 1.473-.044.255-.003h1.729l.005.005a.031.031 0 0 0 .016.004l.02-.002-.022.01a.537.537 0 0 0 .05.037l.01.002a.315.315 0 0 0 .043-.054l.002-.002h.022c.004.003.007.008.012.008l.15-.013.542-.021.056 6.81-.948.011c-.005 0 0 .007.002.012a.424.424 0 0 0-.056-.01l.001-.002-1.321.043-.2.002h-1.623l.013-.003a.178.178 0 0 0-.127-.053.174.174 0 0 0-.108.047l-.197.016-.612.02zM60.15 82.593l-.003.01a9.037 9.037 0 0 1-17.3-.028l-.004-.015A9.039 9.039 0 0 1 51.5 70.935a9.104 9.104 0 0 1 8.65 6.416l.016.054a9.056 9.056 0 0 1-.002 5.139s-.012.038-.014.05h.004c.008 0 .009-.018.01-.034a.032.032 0 0 0 .01.011c-.004.01-.017.016-.018.027zm6.024-17.342a17.245 17.245 0 0 1 2.106.445l.026.694h-.537a1.483 1.483 0 0 0-1.439 1.144.404.404 0 0 0-.437-.327.407.407 0 0 0-.167.053l-.002-.007a.118.118 0 0 0-.02-.126.414.414 0 0 0-.386-.194.398.398 0 0 0-.183.061.414.414 0 0 0-.126.572.397.397 0 0 0 .11.116c-.008.006-.014.015-.022.023a.353.353 0 0 0-.09.497.41.41 0 0 0 .342.186 1.688 1.688 0 0 0-.761 1.408v.717a.099.099 0 0 0-.032-.014h-.002a22.461 22.461 0 0 1-5.826 3.402.351.351 0 0 0-.023.053c-.136-.163-.303-.298-.45-.45q-.12-.125-.243-.244a9.204 9.204 0 0 0-.918-.776c-.148-.11-.3-.216-.454-.317-.127-.083-.238-.181-.37-.259a17.523 17.523 0 0 0 9.904-6.657zm5.391-13.79.028 14.92v.009h-2.957V51.462zm-5.292 21.861a1.494 1.494 0 0 0 1.432 1.49 1.524 1.524 0 0 0-.542 1.051 1.351 1.351 0 0 1-2.22-1.018v-5.049a1.35 1.35 0 0 1 1.435-1.327 1.5 1.5 0 0 0 .555.7 1.52 1.52 0 0 0-1.034 1.463 1.495 1.495 0 0 0 1.035 1.408 1.547 1.547 0 0 0-.661 1.282zm.904 2.56h.008l-.007.004zm-6.716 1.27a9.333 9.333 0 0 0-1.557-2.94 22.405 22.405 0 0 0 5.683-3.31v3.944a1.691 1.691 0 0 0 1.69 1.689h.038a1.556 1.556 0 0 0 .862-.269 1.457 1.457 0 0 0 .534.886zm5.851-9.016h-.01l-.025-.029a1.673 1.673 0 0 0-.597.115.405.405 0 0 0 .083-.264c.006.003.014.003.02.006a.206.206 0 0 0 .19.07.384.384 0 0 0 .31-.204c-.002.038-.01.074-.01.112a.59.59 0 0 0 .04.194zm-31.72-.232a30.605 30.605 0 0 0 9.66 6.105 8.747 8.747 0 0 0-1.562 2.821c-.04.11-.085.216-.12.328l-.01-.006H28.37c-.414-3.69 2.198-7.574 6.223-9.248zm25.561 9.451.008-.005c.002.013.017.021.023.034l.005.02-.022-.008c.01-.005-.006-.026-.015-.04zm6.02-12.132h.002l-.001.006-.012-.008zm7.097 11.93h-4.627a1.155 1.155 0 0 1-1.139-1.196 1.198 1.198 0 0 1 .753-1.089 1.167 1.167 0 0 1 .247-.05h4.625a1.155 1.155 0 0 1 1.138 1.196 1.197 1.197 0 0 1-.757 1.09 1.168 1.168 0 0 1-.24.048zm-.045-2.681a.739.739 0 0 0-.096-.01h-5.36a1.155 1.155 0 0 1-1.139-1.196 1.198 1.198 0 0 1 .753-1.088 1.165 1.165 0 0 1 .246-.05h5.5a1.155 1.155 0 0 1 1.138 1.194 1.198 1.198 0 0 1-.758 1.091 1.155 1.155 0 0 1-.284.058zm0-2.69a.757.757 0 0 0-.096-.01h-5.735a1.155 1.155 0 0 1-1.139-1.195 1.14 1.14 0 0 1 1.139-1.14l.183-.028a1.467 1.467 0 0 0 .192.028h5.36a1.155 1.155 0 0 1 1.138 1.195 1.198 1.198 0 0 1-.758 1.092 1.155 1.155 0 0 1-.284.057zm0-2.692a.755.755 0 0 0-.096-.009h-5.36a1.155 1.155 0 0 1-1.139-1.195 1.14 1.14 0 0 1 1.139-1.14h5.36a1.155 1.155 0 0 1 1.139 1.195 1.197 1.197 0 0 1-.758 1.09 1.155 1.155 0 0 1-.285.059z"/><path d="M37.892 69.513a.397.397 0 0 0 .185.045.206.206 0 0 0 .182-.085l.02-.007a.406.406 0 0 0 .216.36.397.397 0 0 0 .188.047.416.416 0 0 0 .37-.226.353.353 0 0 0-.13-.489c-.009-.006-.016-.015-.025-.02a.397.397 0 0 0 .1-.125.415.415 0 0 0-.173-.56.4.4 0 0 0-.187-.045.415.415 0 0 0-.37.226.118.118 0 0 0-.008.127l-.002.007a.407.407 0 0 0-.17-.04.417.417 0 0 0-.196.785z"/><path d="m38.199 69.616-.229.108-.145.049.019.01-.032.015.555.287-.018-.063-.15-.406zm4.766 2.584a.398.398 0 0 0 .185.044.206.206 0 0 0 .182-.085l.02-.007a.406.406 0 0 0 .217.36.396.396 0 0 0 .187.047.416.416 0 0 0 .37-.226.353.353 0 0 0-.13-.489c-.009-.006-.015-.015-.025-.02a.4.4 0 0 0 .1-.125.415.415 0 0 0-.172-.56.398.398 0 0 0-.188-.045.414.414 0 0 0-.369.226.118.118 0 0 0-.009.127l-.002.007a.407.407 0 0 0-.17-.04.417.417 0 0 0-.195.785z"/><path d="m43.272 72.302-.229.107-.145.05.019.01-.032.015.555.287-.018-.063-.15-.406zm17.834-1.13a.407.407 0 0 0-.17.039l-.003-.007a.117.117 0 0 0-.008-.128.414.414 0 0 0-.37-.225.399.399 0 0 0-.187.046.414.414 0 0 0-.173.559.398.398 0 0 0 .1.124c-.009.006-.016.014-.024.021a.353.353 0 0 0-.13.489.415.415 0 0 0 .37.225.396.396 0 0 0 .187-.046.406.406 0 0 0 .217-.36l.02.007a.206.206 0 0 0 .182.085.397.397 0 0 0 .185-.045.417.417 0 0 0-.195-.784z"/><path d="m61.368 72.216-.145-.05-.229-.107-.15.406-.018.063.555-.287-.032-.015.019-.01zm-7.124 5.717a3.041 3.041 0 0 0 .233-1.17 2.976 2.976 0 1 0-5.952 0 3.041 3.041 0 0 0 .233 1.17 3.013 3.013 0 0 0 .1 6.022 2.961 2.961 0 0 0 2.643-1.656 2.962 2.962 0 0 0 2.643 1.656 3.013 3.013 0 0 0 .1-6.022z"/><path d="M49.327 86.198h4.348l-2.174-2.265-2.174 2.265z"/><circle class="cls-1" cx="51.585" cy="80.03" r="8.298"/><path d="M48.026 78.71a4.005 4.005 0 0 1 3.374 2.324 4.005 4.005 0 0 1-3.374 2.323 2.327 2.327 0 1 1 0-4.647zm7.118 0a4.005 4.005 0 0 0-3.375 2.324 4.005 4.005 0 0 0 3.375 2.323 2.327 2.327 0 1 0 0-4.647zm-5.819 7.227h4.52l-2.26-2.354-2.26 2.354zm-.064-9.365a4.005 4.005 0 0 0 2.324 3.375 4.005 4.005 0 0 0 2.323-3.375 2.327 2.327 0 1 0-4.647 0z"/><path class="cls-1" d="M27.44 81.54V78.4h14.81a2.211 2.211 0 0 1 .05-.25H27.19v3.64H42.3a2.211 2.211 0 0 1-.05-.25zm33.26-3.39a2.211 2.211 0 0 1 .05.25h14.81v3.14H60.75a2.211 2.211 0 0 1-.05.25h15.11v-3.64z"/></g></svg>