<svg xmlns="http://www.w3.org/2000/svg" viewBox="0 0 103 160"><path fill="#fff" d="M0 0h103v160H0z"/><path d="M9.14 38.345a6.88 6.88 0 0 1 5.797 3.992 6.88 6.88 0 0 1-5.796 3.99 3.997 3.997 0 1 1 0-7.982zm12.227 0a6.88 6.88 0 0 0-5.796 3.992 6.88 6.88 0 0 0 5.796 3.99 3.997 3.997 0 1 0 0-7.982zm-9.995 12.414h7.763l-3.881-4.043-3.882 4.043zm-.109-16.085a6.88 6.88 0 0 0 3.99 5.796 6.88 6.88 0 0 0 3.992-5.796 4.089 4.089 0 0 0-3.991-4.208 4.089 4.089 0 0 0-3.991 4.208zm7.25-19.532a8.023 8.023 0 0 1 3.163 2.503 5.563 5.563 0 0 1 .955 3.2 6.642 6.642 0 0 1-1.644 4.444 7.167 7.167 0 0 1-5.763 2.355 7.01 7.01 0 0 1-5.48-2.066 6.65 6.65 0 0 1-1.867-4.555 5.762 5.762 0 0 1 .977-3.282 8.24 8.24 0 0 1 3.26-2.6 6.15 6.15 0 0 1-2.4-2.058 4.748 4.748 0 0 1-.8-2.637 5.16 5.16 0 0 1 .851-2.778 5.939 5.939 0 0 1 2.356-2.133 6.973 6.973 0 0 1 3.251-.778 6.528 6.528 0 0 1 3.156.785 5.882 5.882 0 0 1 2.274 2.134 5.353 5.353 0 0 1 .822 2.829 4.612 4.612 0 0 1-.778 2.637 6.429 6.429 0 0 1-2.333 2zm-3.148 1.096a5.242 5.242 0 0 0-3.773 1.459 4.571 4.571 0 0 0-1.523 3.4 4.383 4.383 0 0 0 2.471 3.91 6.029 6.029 0 0 0 2.706.578 5.117 5.117 0 0 0 3.788-1.407 4.513 4.513 0 0 0 1.405-3.289 4.36 4.36 0 0 0-1.487-3.236 5.02 5.02 0 0 0-3.587-1.415zm-.104-9.362a4.283 4.283 0 0 0-2.975 1.059 3.28 3.28 0 0 0-1.18 2.526 3.524 3.524 0 0 0 1.269 2.629 4.21 4.21 0 0 0 2.96 1.178 4.158 4.158 0 0 0 2.047-.534 3.897 3.897 0 0 0 1.509-1.459 3.656 3.656 0 0 0 .54-1.859 3.44 3.44 0 0 0-1.069-2.43 4.102 4.102 0 0 0-3.1-1.11zM93.86 121.655a6.88 6.88 0 0 1-5.797-3.992 6.88 6.88 0 0 1 5.796-3.99 3.997 3.997 0 1 1 0 7.982zm-12.227 0a6.88 6.88 0 0 0 5.796-3.992 6.88 6.88 0 0 0-5.796-3.99 3.997 3.997 0 1 0 0 7.982zm9.995-12.414h-7.763l3.881 4.043 3.882-4.043zm.109 16.085a6.88 6.88 0 0 0-3.99-5.796 6.88 6.88 0 0 0-3.992 5.796 3.997 3.997 0 1 0 7.982 0zm-7.25 19.532a8.023 8.023 0 0 1-3.163-2.503 5.563 5.563 0 0 1-.955-3.2 6.642 6.642 0 0 1 1.644-4.444 7.167 7.167 0 0 1 5.763-2.355 7.01 7.01 0 0 1 5.48 2.066 6.65 6.65 0 0 1 1.867 4.555 5.762 5.762 0 0 1-.977 3.282 8.24 8.24 0 0 1-3.26 2.6 6.15 6.15 0 0 1 2.4 2.058 4.748 4.748 0 0 1 .8 2.637 5.16 5.16 0 0 1-.851 2.778 5.939 5.939 0 0 1-2.356 2.133 6.973 6.973 0 0 1-3.251.778 6.528 6.528 0 0 1-3.156-.785 5.882 5.882 0 0 1-2.274-2.134 5.353 5.353 0 0 1-.822-2.829 4.612 4.612 0 0 1 .778-2.637 6.429 6.429 0 0 1 2.333-2zm3.148-1.096a5.242 5.242 0 0 0 3.773-1.459 4.571 4.571 0 0 0 1.523-3.4 4.383 4.383 0 0 0-2.471-3.91 6.029 6.029 0 0 0-2.706-.578 5.117 5.117 0 0 0-3.788 1.407 4.513 4.513 0 0 0-1.405 3.289 4.36 4.36 0 0 0 1.487 3.236 5.02 5.02 0 0 0 3.587 1.415zm.104 9.362a4.283 4.283 0 0 0 2.975-1.059 3.28 3.28 0 0 0 1.18-2.526 3.524 3.524 0 0 0-1.269-2.629 4.21 4.21 0 0 0-2.96-1.178 4.158 4.158 0 0 0-2.047.534 3.897 3.897 0 0 0-1.509 1.459 3.656 3.656 0 0 0-.54 1.859 3.44 3.44 0 0 0 1.069 2.43 4.102 4.102 0 0 0 3.1 1.11z"/><path d="M93.86 121.655a6.88 6.88 0 0 1-5.797-3.992 6.88 6.88 0 0 1 5.796-3.99 3.997 3.997 0 1 1 0 7.982zm-12.227 0a6.88 6.88 0 0 0 5.796-3.992 6.88 6.88 0 0 0-5.796-3.99 3.997 3.997 0 1 0 0 7.982zm9.995-12.414h-7.763l3.881 4.043 3.882-4.043zm.109 16.085a6.88 6.88 0 0 0-3.99-5.796 6.88 6.88 0 0 0-3.992 5.796 3.997 3.997 0 1 0 7.982 0zm-51.683-4.256a5.106 5.106 0 0 1-4.302-2.962 5.106 5.106 0 0 1 4.302-2.963 2.966 2.966 0 1 1 0 5.925zm-9.074 0a5.106 5.106 0 0 0 4.301-2.962 5.106 5.106 0 0 0-4.302-2.963 2.966 2.966 0 1 0 0 5.925zm7.418-9.214h-5.762l2.881 3.001 2.881-3.001zm.081 11.939a5.106 5.106 0 0 0-2.962-4.302 5.106 5.106 0 0 0-2.963 4.302 2.966 2.966 0 1 0 5.925 0zM62.946 38.93a5.106 5.106 0 0 1 4.302 2.962 5.106 5.106 0 0 1-4.302 2.963 2.966 2.966 0 1 1 0-5.925zm9.074 0a5.106 5.106 0 0 0-4.302 2.962 5.106 5.106 0 0 0 4.303 2.963 2.966 2.966 0 1 0 0-5.925zm-7.418 9.214h5.762l-2.881-3.001-2.881 3.001zm-.081-11.939a5.106 5.106 0 0 0 2.962 4.302 5.106 5.106 0 0 0 2.963-4.302 2.966 2.966 0 1 0-5.925 0zM30.98 38.93a5.106 5.106 0 0 1 4.301 2.962 5.106 5.106 0 0 1-4.302 2.963 2.966 2.966 0 1 1 0-5.925zm9.074 0a5.106 5.106 0 0 0-4.302 2.962 5.106 5.106 0 0 0 4.302 2.963 2.966 2.966 0 1 0 0-5.925zm-7.418 9.214h5.762l-2.881-3.001-2.881 3.001zm-.082-11.939a5.106 5.106 0 0 0 2.963 4.302 5.106 5.106 0 0 0 2.962-4.302 2.966 2.966 0 1 0-5.925 0zM30.98 78.317a5.106 5.106 0 0 1 4.301 2.962 5.106 5.106 0 0 1-4.302 2.963 2.966 2.966 0 1 1 0-5.925zm9.074 0a5.106 5.106 0 0 0-4.302 2.962 5.106 5.106 0 0 0 4.302 2.963 2.966 2.966 0 1 0 0-5.925zm-7.418 9.214h5.762l-2.881-3.001-2.881 3.001zm-.082-11.939a5.106 5.106 0 0 0 2.963 4.302 5.106 5.106 0 0 0 2.962-4.302 2.966 2.966 0 1 0-5.925 0zM72.02 121.07a5.106 5.106 0 0 1-4.302-2.962 5.106 5.106 0 0 1 4.303-2.963 2.966 2.966 0 1 1 0 5.925zm-9.074 0a5.106 5.106 0 0 0 4.302-2.962 5.106 5.106 0 0 0-4.302-2.963 2.966 2.966 0 1 0 0 5.925zm7.418-9.214h-5.762l2.881 3.001 2.881-3.001zm.082 11.939a5.106 5.106 0 0 0-2.963-4.302 5.106 5.106 0 0 0-2.962 4.302 2.966 2.966 0 1 0 5.925 0zm-7.5-45.478a5.106 5.106 0 0 1 4.302 2.962 5.106 5.106 0 0 1-4.302 2.963 2.966 2.966 0 1 1 0-5.925zm9.074 0a5.106 5.106 0 0 0-4.302 2.962 5.106 5.106 0 0 0 4.303 2.963 2.966 2.966 0 1 0 0-5.925zm-7.418 9.214h5.762l-2.881-3.001-2.881 3.001zm-.081-11.939a5.106 5.106 0 0 0 2.962 4.302 5.106 5.106 0 0 0 2.963-4.302 2.966 2.966 0 1 0-5.925 0zM46.963 58.623a5.106 5.106 0 0 1 4.302 2.963 5.106 5.106 0 0 1-4.302 2.962 2.966 2.966 0 1 1 0-5.925zm9.074 0a5.106 5.106 0 0 0-4.302 2.963 5.106 5.106 0 0 0 4.302 2.962 2.966 2.966 0 1 0 0-5.925zm-7.418 9.214h5.762l-2.881-3-2.881 3zm-.081-11.939A5.106 5.106 0 0 0 51.5 60.2a5.106 5.106 0 0 0 2.962-4.302 2.966 2.966 0 1 0-5.924 0zm7.499 45.479a5.106 5.106 0 0 1-4.302-2.963 5.106 5.106 0 0 1 4.302-2.962 2.966 2.966 0 1 1 0 5.925zm-9.074 0a5.106 5.106 0 0 0 4.302-2.963 5.106 5.106 0 0 0-4.302-2.962 2.966 2.966 0 1 0 0 5.925zm7.418-9.214h-5.762l2.881 3 2.881-3zm.081 11.939A5.106 5.106 0 0 0 51.5 99.8a5.106 5.106 0 0 0-2.962 4.302 2.966 2.966 0 1 0 5.924 0z"/></svg>