<svg xmlns="http://www.w3.org/2000/svg" viewBox="0 0 103 160"><defs><style>.cls-1{fill:#fff}.cls-2{fill:#663f2e}.cls-3{fill:#383838}.cls-4{fill:#ffc614}.cls-5{fill:#f9c19b}.cls-6{fill:#1e4262}.cls-7{fill:#cd222b}.cls-8{fill:#bcbbbb}.cls-9{fill:#999898}</style></defs><g id="Layer_2" data-name="Layer 2"><g id="CLUBS"><path class="cls-1" d="M0 0h103v160H0z"/><path d="M8.548 4.757h2.334v8.589l9.149-8.589h3.073L12.11 15.027l11.85 12.616h-3.047l-10.03-10.66v10.66H8.548zm.592 33.588a6.88 6.88 0 0 1 5.797 3.992 6.88 6.88 0 0 1-5.796 3.99 3.997 3.997 0 1 1 0-7.982zm12.227 0a6.88 6.88 0 0 0-5.796 3.992 6.88 6.88 0 0 0 5.796 3.99 3.997 3.997 0 1 0 0-7.982zm-9.995 12.414h7.763l-3.881-4.043-3.882 4.043zm-.109-16.085a6.88 6.88 0 0 0 3.99 5.796 6.88 6.88 0 0 0 3.992-5.796 4.089 4.089 0 0 0-3.991-4.208 4.089 4.089 0 0 0-3.991 4.208zm83.189 120.569h-2.334v-8.589l-9.149 8.589h-3.073l10.993-10.27-11.848-12.617h3.047l10.03 10.66v-10.66h2.334zm-.592-33.588a6.88 6.88 0 0 1-5.797-3.992 6.88 6.88 0 0 1 5.796-3.99 3.997 3.997 0 1 1 0 7.982zm-12.227 0a6.88 6.88 0 0 0 5.796-3.992 6.88 6.88 0 0 0-5.796-3.99 3.997 3.997 0 1 0 0 7.982zm9.995-12.414h-7.763l3.881 4.043 3.882-4.043zm.109 16.085a6.88 6.88 0 0 0-3.99-5.796 6.88 6.88 0 0 0-3.992 5.796 3.997 3.997 0 1 0 7.982 0zM77.23 77.166h-.47c.693-8.729-1.195-12.561-7.458-15.166-2.905-1.209-5.296-4.067-6.446-5.441l-.046-.033c-.056-.47-.126-.938-.215-1.404a3.024 3.024 0 0 0 1.552-.708 7.834 7.834 0 0 0 2.57-4.77l.017-.097a.097.097 0 0 0 0-.056c.394-2.937-.612-6.373-2.98-10.15 0 0 1.679-7.055 1.69-7.111l.848-2.273a.178.178 0 0 0-.013-.154.358.358 0 0 0-.129-.086 1.527 1.527 0 0 0-.222-.02 1.118 1.118 0 0 0-1.118 1.118c0 .03.001.06.003.089a1.114 1.114 0 0 0-.933 1.095 1.085 1.085 0 0 0 .544.946c-.12.107-.244.21-.369.307a8.795 8.795 0 0 0-1.846-3.629 10.963 10.963 0 0 0-3.573-2.761 1.091 1.091 0 0 0-.912-.508.783.783 0 0 0-.217.038.215.215 0 0 0-.056-.051 13.32 13.32 0 0 0-9.595.248 1.106 1.106 0 0 0-.784-.323 1.045 1.045 0 0 0-1.056 1.151 11.059 11.059 0 0 0-4.739 5.066l-.003-.002a1.449 1.449 0 0 1-.147-.073 8.454 8.454 0 0 1-.972-.677 1.096 1.096 0 0 0 .51-.928 1.114 1.114 0 0 0-.933-1.094l.003-.09a1.118 1.118 0 0 0-1.118-1.117 1.428 1.428 0 0 0-.222.02.173.173 0 0 0-.128.086.361.361 0 0 0-.014.153l1.052 2.817 1.977 7.153a.18.18 0 0 0 .097.114c-.93 1.982-4.586 10.465-1.075 14.306a3.015 3.015 0 0 0 .686.51 17.425 17.425 0 0 0-1.936 5.686.193.193 0 0 0-.04.018 8.3 8.3 0 0 1-1.05.673l-5.351-24.495-3.408-4.126a.181.181 0 0 0-.153-.06h-.026a.181.181 0 0 0-.131.13l-1.344 5.446 5.462 25.09a5.497 5.497 0 0 0-1.205.76l-.382.296a1.658 1.658 0 0 0-.735-1.062 1.446 1.446 0 0 0-.756-.216 1.397 1.397 0 0 0-.359.046 1.672 1.672 0 0 0-1.13 1.994 1.646 1.646 0 0 0 .733 1.062 1.372 1.372 0 0 0 .258.126c-1.574 2.03-3.252 5.755-2.542 12.137H25.77a.178.178 0 0 0-.178.178v5.312a.178.178 0 0 0 .178.178h.47c-.693 8.729 1.195 12.561 7.458 15.166 2.905 1.209 5.296 4.067 6.446 5.441l.046.033c.056.47.126.938.215 1.404a3.024 3.024 0 0 0-1.552.708 7.834 7.834 0 0 0-2.57 4.77l-.017.097a.097.097 0 0 0 0 .056c-.394 2.937.612 6.373 2.98 10.15 0 0-1.679 7.055-1.69 7.111l-.848 2.273a.178.178 0 0 0 .013.154.358.358 0 0 0 .129.086 1.527 1.527 0 0 0 .222.02 1.118 1.118 0 0 0 1.117-1.118c0-.03 0-.06-.002-.089a1.114 1.114 0 0 0 .933-1.095 1.085 1.085 0 0 0-.544-.946c.12-.107.244-.21.369-.307a8.795 8.795 0 0 0 1.846 3.629 10.963 10.963 0 0 0 3.573 2.76 1.091 1.091 0 0 0 .912.51.783.783 0 0 0 .217-.04.215.215 0 0 0 .056.052 13.32 13.32 0 0 0 9.595-.249 1.106 1.106 0 0 0 .784.324 1.045 1.045 0 0 0 1.056-1.151 11.059 11.059 0 0 0 4.739-5.066l.003.002a1.451 1.451 0 0 1 .147.073 8.455 8.455 0 0 1 .972.676 1.096 1.096 0 0 0-.51.929 1.114 1.114 0 0 0 .933 1.094 1.646 1.646 0 0 0-.003.09 1.118 1.118 0 0 0 1.118 1.117 1.428 1.428 0 0 0 .222-.02.173.173 0 0 0 .128-.086.361.361 0 0 0 .014-.153l-1.052-2.817-1.977-7.153a.18.18 0 0 0-.097-.114c.93-1.982 4.586-10.465 1.075-14.306a3.015 3.015 0 0 0-.686-.511 17.425 17.425 0 0 0 1.936-5.685.193.193 0 0 0 .04-.019 8.3 8.3 0 0 1 1.05-.672l5.351 24.495 3.408 4.126a.181.181 0 0 0 .153.06h.026a.181.181 0 0 0 .131-.13l1.344-5.446-5.462-25.09a5.497 5.497 0 0 0 1.205-.76l.382-.296a1.658 1.658 0 0 0 .735 1.062 1.447 1.447 0 0 0 .756.215 1.397 1.397 0 0 0 .359-.045 1.672 1.672 0 0 0 1.13-1.994 1.646 1.646 0 0 0-.733-1.062 1.373 1.373 0 0 0-.258-.126c1.574-2.03 3.252-5.755 2.542-12.137h1.125a.178.178 0 0 0 .178-.178v-5.312a.178.178 0 0 0-.178-.178zM44.77 42.714a1.098 1.098 0 0 1 0 .809 1.099 1.099 0 0 0 0-.809zm-.194-.312-.024-.023zm0 1.432-.024.024.024-.024zm-1.333-1.455-.023.023zm-.217.335a1.099 1.099 0 0 0 0 .809 1.098 1.098 0 0 1 0-.809zm.217 1.144-.023-.024c.007.009.016.015.023.024zm16.808 73.024a1.098 1.098 0 0 1-.077.404 1.098 1.098 0 0 0 .077-.404zm-1.897 0a1.098 1.098 0 0 0 .077.404 1.098 1.098 0 0 1-.077-.404zm.27.716.024.023zm-.27-.719a1.098 1.098 0 0 1 .077-.401 1.097 1.097 0 0 0-.077.4zm.27-.713.024-.023c-.008.008-.016.014-.023.023zm1.333 1.455.023-.023zm0-1.478.023.023c-.007-.009-.015-.015-.023-.023zm.217.335a1.098 1.098 0 0 1 .076.401 1.097 1.097 0 0 0-.076-.402z"/><path class="cls-2" d="M56.435 105.442a4.27 4.27 0 0 1 2.057-.52 4.408 4.408 0 0 1 1.016.127c.083-.587.486-4.097-1.25-6.366a5.19 5.19 0 0 0-3.807-1.957 4.887 4.887 0 0 0-4.313 1.495c-2.02 2.216-2.084 6.245-1.868 7.746a3.296 3.296 0 0 1 .636-.52 4.695 4.695 0 0 1 2.51-.72 4.636 4.636 0 0 1 2.236.567 2.964 2.964 0 0 1 1.454 1.624 2.74 2.74 0 0 1 1.329-1.476z"/><path class="cls-1" d="M42.571 98.553a17.826 17.826 0 0 0 .201 6.854 5.152 5.152 0 0 1 1.982 1.612c.102.137.2.28.293.429 1.172-2.509 2.594-3.042 2.943-3.137.032-1.934.493-4.555 2.008-6.217a4.71 4.71 0 0 1 2.629-1.477 34.183 34.183 0 0 0-9.956 1.972.088.088 0 0 1-.1-.036z"/><path class="cls-2" d="M53.562 105.46a4.534 4.534 0 0 0-4.555.145 2.586 2.586 0 0 0-.937.947 1.645 1.645 0 0 1 1.078-.055 1.235 1.235 0 0 1 .318.192 3.425 3.425 0 0 1 .466.474 6.348 6.348 0 0 0 3.303 2.296 1.248 1.248 0 0 0 1.207-.428 2.24 2.24 0 0 0 .49-2.044 2.77 2.77 0 0 0-1.37-1.528z"/><path class="cls-3" d="M53.941 88.986a9.023 9.023 0 0 1-4.598.074.089.089 0 0 1-.066.042 30.066 30.066 0 0 0-4.096.68 36.131 36.131 0 0 0-2.594 8.65c.009-.007.013-.017.023-.02a33.478 33.478 0 0 1 10.738-1.996 15.584 15.584 0 0 1 7.496 1.615l.002.002c.032-.011.062-.028.095-.036a1.237 1.237 0 0 1 .834.064c.006-.01.006-.022.016-.03.043-.038.09-.07.134-.108a.08.08 0 0 1-.02-.038 28.307 28.307 0 0 0-1.51-7.813 27.368 27.368 0 0 0-6.405-1.063.089.089 0 0 1-.049-.023z"/><path class="cls-4" d="M54.41 88.85a27.894 27.894 0 0 1 5.911 1.003q-.312-.932-.688-1.903a24.075 24.075 0 0 0-2.47-.567 9.283 9.283 0 0 1-2.753 1.466z"/><path class="cls-5" d="M46.338 122.539c7.44 1.49 12.015.17 13.996-.694.167-.541 2.757-9.243-.446-14.452a5.913 5.913 0 0 1-3.027 2.058 1.318 1.318 0 0 1-1.282-.447 2.168 2.168 0 0 1-.464-.86 2.374 2.374 0 0 1-.534 1.014 1.424 1.424 0 0 1-1.387.484 6.508 6.508 0 0 1-3.392-2.342 3.61 3.61 0 0 0-.427-.442c-1.791.174-3.244 2.976-3.259 3.005-.003.007-.01.008-.015.013 1.42 4.833.406 11.625.237 12.663zm14.19-4.881a.094.094 0 0 1 .07.157c-.033.036-.832.874-3.563.43a.094.094 0 0 1-.077-.108.088.088 0 0 1 .108-.077c2.61.43 3.386-.363 3.392-.372a.095.095 0 0 1 .07-.03zm-1.426-1.806a1.033 1.033 0 1 1-.948 1.03.993.993 0 0 1 .948-1.03zm-5.98-5.673a7.296 7.296 0 0 1 2.576-.665 1.497 1.497 0 0 1 1.043.332c.738.669.3 2.137.01 3.109q-.046.15-.083.278a45.057 45.057 0 0 0-.811 4.53.102.102 0 0 1-.106.082.095.095 0 0 1-.081-.105 45.41 45.41 0 0 1 .818-4.559c.024-.086.052-.18.083-.28.26-.87.694-2.327.044-2.917-.523-.471-1.674-.348-3.422.37a.094.094 0 1 1-.071-.175zm-2.346 5.558a1.233 1.233 0 1 1-1.132 1.228 1.184 1.184 0 0 1 1.132-1.228zm-2.669 2.24a.104.104 0 0 1 .033.006 9.433 9.433 0 0 0 4.428.263.09.09 0 0 1 .11.074.092.092 0 0 1-.073.11 9.615 9.615 0 0 1-4.53-.271.094.094 0 0 1-.056-.121.093.093 0 0 1 .088-.06z"/><path class="cls-2" d="M60.574 106.547a1.494 1.494 0 0 1 .977.044 2.39 2.39 0 0 0-.848-.85h-.002a4.158 4.158 0 0 0-4.176-.134 2.53 2.53 0 0 0-1.255 1.4 2.049 2.049 0 0 0 .447 1.87 1.138 1.138 0 0 0 1.103.39 5.808 5.808 0 0 0 3.018-2.092 1.972 1.972 0 0 1 .736-.628zm-11.432.159c-.02-.01-.04-.025-.062-.033a1.69 1.69 0 0 0-1.153.126.09.09 0 0 1-.099-.024.093.093 0 0 1-.02-.098 2.054 2.054 0 0 1 .301-.517 9.547 9.547 0 0 1-.122-1.65c-.394.13-1.739.73-2.826 3.131a9.589 9.589 0 0 1 .868 1.988c.317-.573 1.545-2.605 3.113-2.923z"/><path class="cls-3" d="M57.365 87.233a24.32 24.32 0 0 1 2.186.503 53.607 53.607 0 0 0-.793-1.91 9.385 9.385 0 0 1-1.393 1.407z"/><path class="cls-6" d="M67.222 82.75h-.38a8.13 8.13 0 0 0-.013.71 7.85 7.85 0 0 0 .231-.412c.052-.1.107-.2.162-.298z"/><path class="cls-5" d="M66.824 83.811h-.001a4.51 4.51 0 0 1-.543.563 2.4 2.4 0 0 0-.75.97 2.885 2.885 0 0 0-.102.584 1.929 1.929 0 0 1-.232.874.826.826 0 0 1-.857.34.896.896 0 0 1-.733-.666 1.979 1.979 0 0 1-.036-.27 1.206 1.206 0 0 0-.063-.34.49.49 0 0 0-.301-.28.573.573 0 0 0-.467.04 1.074 1.074 0 0 0-.457.88 3.032 3.032 0 0 0 .191 1.088 3.656 3.656 0 0 0 1.109 1.844c.562.414 1.607-.028 2.182-.332a.094.094 0 0 1 .088.167c-.612.323-1.733.795-2.382.315a3.224 3.224 0 0 1-.992-1.426c-.567.301-.474 1.064-.273 1.505a3.49 3.49 0 0 0 .963 1.115l.706.611a3.93 3.93 0 0 0 .598.454 2.141 2.141 0 0 0 1.767-.11 7.125 7.125 0 0 1 .734-.217.087.087 0 0 1 .112.071.094.094 0 0 1-.072.112 7.094 7.094 0 0 0-.714.212 2.305 2.305 0 0 1-1.92.096 4.04 4.04 0 0 1-.628-.477l-.706-.61a4.66 4.66 0 0 1-.818-.846 1.704 1.704 0 0 0-.326 1.508 1.65 1.65 0 0 0 .459.552 16.325 16.325 0 0 0 1.652 1.29 2.186 2.186 0 0 0 1.004.448 2.316 2.316 0 0 0 .794-.134l1.595-.466a.094.094 0 0 1 .053.18l-1.595.466a1.825 1.825 0 0 1-1.957-.339 16.662 16.662 0 0 1-1.141-.862.812.812 0 0 0-.136.707 1.63 1.63 0 0 0 .519.51l.782.568a.085.085 0 0 1 .042.03l1.216.882a1.083 1.083 0 0 0 1.403.158 5.186 5.186 0 0 0 1.946-1.235 6.012 6.012 0 0 0 1.016-2.3l2.06-7.244c0-.005.007-.003.008-.007v-.005a2.505 2.505 0 0 0-.642-1.957l-.002-.006a.13.13 0 0 1-.023-.072h-3.522l-.002.01a7.693 7.693 0 0 0-.204.375 4.701 4.701 0 0 1-.4.674z"/><path class="cls-6" d="M64.683 82.75a2.156 2.156 0 0 1 1.21 1.732c.086-.084.173-.166.26-.247a4.623 4.623 0 0 0 .501-.515 7.615 7.615 0 0 1 0-.97z"/><path class="cls-7" d="M40.846 104.92a2.997 2.997 0 0 1 .314.017 5.172 5.172 0 0 1 1.402.376c-1.407-5.9 1.078-12.913 3.445-17.8a9.37 9.37 0 0 1-1.972-1.96c-1.777 3.863-4.387 10.946-3.58 17.834l.02.025a.092.092 0 0 1-.007.124q.088.7.224 1.398c.052-.003.102-.014.154-.014z"/><path class="cls-6" d="M42.601 82.75h-5.059a13.653 13.653 0 0 1 .126 4.157.095.095 0 0 1-.093.082h-.012a.095.095 0 0 1-.082-.106 13.346 13.346 0 0 0-.125-4.101c-.002-.012.005-.021.007-.032H26.521c-.792 9.727 1.949 12.78 7.28 14.998 2.882 1.2 5.243 3.958 6.442 5.388-.718-6.901 1.901-13.944 3.663-17.755a9.268 9.268 0 0 1-1.305-2.631z"/><path class="cls-1" d="M61.615 101.059a1.35 1.35 0 0 1-1.047-.16 1.573 1.573 0 0 1-.698-1.009 1.623 1.623 0 0 1 .753-1.762 14.214 14.214 0 0 0-5.255-1.425 5.122 5.122 0 0 1 3.039 1.866c1.79 2.341 1.367 5.945 1.286 6.519a4.225 4.225 0 0 1 1.022.448 12.045 12.045 0 0 0 1.191-4.592 1.366 1.366 0 0 1-.29.115z"/><path class="cls-6" d="M64.008 94.794c.053.555.092 1.106.11 1.642a11.796 11.796 0 0 1 1.346-.617 3.153 3.153 0 0 1-.386-.248zM73.4 82.75h-2.246a2.686 2.686 0 0 1 .652 2.07c-.002.009-.01.013-.014.02l.001.008-.275.967c.335-.078 1.565-.537 1.881-3.065z"/><path class="cls-2" d="M64.372 86.958a.645.645 0 0 0 .666-.258 1.552 1.552 0 0 0 .19-.688 1.998 1.998 0 0 1-1.365.551h-.022a.722.722 0 0 0 .53.395z"/><path class="cls-4" d="M63.808 82.75a1.815 1.815 0 0 0-1.761 1.81 1.548 1.548 0 0 0 .392 1.069.912.912 0 0 1 .207-.167.76.76 0 0 1 .621-.052.674.674 0 0 1 .415.386 1.377 1.377 0 0 1 .075.394c.006.066.015.127.025.188h.013c.012 0 .028-.002.068-.002a1.817 1.817 0 0 0 1.358-.611.087.087 0 0 1 .04-.018 2.35 2.35 0 0 1 .09-.461 1.797 1.797 0 0 1 .377-.626l-.004-.01a1.934 1.934 0 0 0-1.812-1.9z"/><path class="cls-7" d="M58.891 85.653a9.292 9.292 0 0 0 1.438-2.715 1.105 1.105 0 0 0 .065-.188h2.622a2.006 2.006 0 0 0-1.156 1.813 1.74 1.74 0 0 0 .46 1.222 1.562 1.562 0 0 0-.225.714.876.876 0 0 0 .019.216 32.457 32.457 0 0 0-1.626-3.75.099.099 0 0 0-.084-.046c-.01 0-.028.01-.038.01l-.028.027a.084.084 0 0 0-.01.104 33.925 33.925 0 0 1 2.04 4.951 1.328 1.328 0 0 0-.33 1.738c.029.057.066.113.095.17-.01.009-.029.009-.047.018a1.942 1.942 0 0 0-.357 1.72 1.801 1.801 0 0 0 .507.62c.122.113.254.216.385.329a.986.986 0 0 0-.16.911 1.958 1.958 0 0 0 .574.573l.78.564a32.6 32.6 0 0 1 .122 1.88 12.134 12.134 0 0 0-1.851 1.258 33.306 33.306 0 0 0-3.195-12.139z"/><path class="cls-1" d="m44.05 85.26.014.004a.09.09 0 0 1 .047.079 8.541 8.541 0 1 0-.061-.082zm9.623-11.472-2.174 2.265-2.175-2.265zm-4.817 2.243a2.961 2.961 0 0 1 2.643 1.656 2.961 2.961 0 0 1 2.642-1.656 3.013 3.013 0 0 1 .101 6.022 3.041 3.041 0 0 1 .233 1.17 2.976 2.976 0 1 1-5.953 0 3.041 3.041 0 0 1 .233-1.17 3.013 3.013 0 0 1 .101-6.022z"/><path class="cls-4" d="M72.775 95.19a1.4 1.4 0 0 0-.935 1.673 1.384 1.384 0 0 0 .61.888 1.15 1.15 0 0 0 .905.138 1.4 1.4 0 0 0 .934-1.672 1.381 1.381 0 0 0-.611-.889 1.164 1.164 0 0 0-.903-.137z"/><path class="cls-8" d="M64.839 97.792a10.239 10.239 0 0 1 2.104-.808 9.566 9.566 0 0 1 2.471-.347l.404 1.87v.009l.357 1.597 2.161 9.969.357 1.607 1.87 8.587.348 1.607.263 1.221-1.287 5.159-1.87-2.265-.799-.967-.61-.733L69 116.93l-.348-1.616-2.17-9.96-.348-1.606z"/><path class="cls-6" d="M69.849 97.74a5.32 5.32 0 0 0 1.178-.738c.08-.062.172-.131.264-.2a10.016 10.016 0 0 0-1.681-.16z"/><path class="cls-2" d="M61.816 106.716a.094.094 0 0 1-.119.122 1.551 1.551 0 0 0-1.055-.115 1.687 1.687 0 0 0-.617.524c3.099 4.97.939 13.108.536 14.496a8.73 8.73 0 0 0 .63-.32c.272-.553 4.996-10.351 1.303-14.39a2.871 2.871 0 0 0-.792-.545 1.807 1.807 0 0 1 .114.228z"/><path class="cls-6" d="M64.113 98.22a20.76 20.76 0 0 1-.203 2.136 8.901 8.901 0 0 1 1.143-.713l-.385-1.766c-.19.103-.37.227-.555.343z"/><path class="cls-7" d="M62.698 99.256a1.639 1.639 0 0 1-.588 1.556 11.986 11.986 0 0 1-1.234 4.824 2.782 2.782 0 0 1 .645.583c.005 0 .006-.007.011-.007a.094.094 0 0 1 .032.005c.067.025.118.056.18.084a.09.09 0 0 1 .006-.056 17.844 17.844 0 0 0 2.167-7.904 10.993 10.993 0 0 0-1.22.915z"/><path class="cls-6" d="M75.842 82.75H73.59c-.37 3.016-1.969 3.251-2.129 3.266l-1.726 6.077a6.181 6.181 0 0 1-1.054 2.371 3.625 3.625 0 0 1-.921.747 9.908 9.908 0 0 1 1.747-.173 11.367 11.367 0 0 1 2.589.318c.006.001.009.008.014.01a1.392 1.392 0 0 1 .617-.357 1.347 1.347 0 0 1 .34-.044 1.329 1.329 0 0 1 .14.02c1.613-1.987 3.367-5.71 2.625-12.202-.001-.013.006-.022.01-.033z"/><path class="cls-4" d="M62.503 99.204a1.383 1.383 0 0 0-.612-.888 1.158 1.158 0 0 0-.902-.138 1.398 1.398 0 0 0-.935 1.672 1.38 1.38 0 0 0 .612.888 1.147 1.147 0 0 0 .902.139 1.4 1.4 0 0 0 .935-1.673zm4.835-3.732a.074.074 0 0 1-.054-.008c-.209.102-.417.197-.617.285a1.651 1.651 0 0 1-.82.196.906.906 0 0 1-.138-.032c-.006.003-.008.01-.014.013a11.865 11.865 0 0 0-3.741 2.214c.011.006.024.009.035.015a1.558 1.558 0 0 1 .661.897 10.505 10.505 0 0 1 6.867-2.612 10.253 10.253 0 0 1 2.11.224 1.664 1.664 0 0 1 .34-1.14 10.096 10.096 0 0 0-4.629-.052z"/><path class="cls-2" d="M46.153 122.503c.209-1.283 1.667-11.07-1.55-15.371a4.853 4.853 0 0 0-3.464-2.008 2.717 2.717 0 0 0-2.108.667c-1.702 1.48-5.06 5.884.462 14.795a46.982 46.982 0 0 0 6.66 1.917z"/><path class="cls-4" d="M45.27 89.571a30.446 30.446 0 0 1 3.67-.615 9.267 9.267 0 0 1-2.78-1.328 51.832 51.832 0 0 0-.89 1.943z"/><path class="cls-7" d="M43.648 131.07a1.031 1.031 0 0 1 1.03-1.03.984.984 0 0 1 .49.13 6.383 6.383 0 0 0-2.6-3.748 3.413 3.413 0 0 0-2.676-.374 3.208 3.208 0 0 0-.768.458c.02.013.047.017.053.042a8.508 8.508 0 0 0 1.821 3.651 10.914 10.914 0 0 0 3.303 2.604.995.995 0 0 1-.055-.27.96.96 0 0 1 .14-.493 1.01 1.01 0 0 1-.738-.97zm16.209-3.98a4.51 4.51 0 0 0-3.473 2.38c-.077.163-.218.461-.338.781a.99.99 0 0 1 .48-.123 1.03 1.03 0 0 1 1.03 1.03 1.01 1.01 0 0 1-.738.97 1.031 1.031 0 0 1 .08.187 10.663 10.663 0 0 0 4.611-4.996 3.012 3.012 0 0 0-1.652-.23z"/><path class="cls-4" d="m37.003 130.025.808-2.17c.029-.095 1.475-6.202 1.682-7.066l.874.31c1.428.488 2.781.883 4.059 1.193.582.15 1.156.282 1.71.395a.113.113 0 0 0 .066.065.076.076 0 0 0 .084-.037 33.17 33.17 0 0 0 3.148.488 27.812 27.812 0 0 0 3.288.198c.33 0 .649-.01.959-.02a21.862 21.862 0 0 0 4.35-.572 16.18 16.18 0 0 0 1.654-.508c.272-.103.516-.197.733-.29a.072.072 0 0 0 .047-.02c.366-.16.638-.3.826-.404v-.01q.127-.07.198-.112l.394 1.41 1.55 5.628 1.015 2.724h-.065a.842.842 0 0 1-.846-.845.733.733 0 0 1 .028-.226.071.071 0 0 0-.01-.084.085.085 0 0 0-.074-.038h-.038a.836.836 0 0 1-.244-1.635.093.093 0 0 0 .065-.066.131.131 0 0 0-.028-.084 8.484 8.484 0 0 0-1.221-.893c-.094-.056-.197-.094-.291-.14a.113.113 0 0 0-.047-.048c-.02 0-.029-.01-.038-.01l-.01.01a3.287 3.287 0 0 0-1.794-.263 4.677 4.677 0 0 0-3.617 2.48 7.977 7.977 0 0 0-.451 1.11.079.079 0 0 0 .037.103.102.102 0 0 0 .122-.02.826.826 0 0 1 .602-.262.84.84 0 0 1 .836.846.819.819 0 0 1-.714.808.098.098 0 0 0-.075.056.103.103 0 0 0 .009.094.823.823 0 0 1 .188.498.846.846 0 1 1-1.691 0 .9.9 0 0 1 .056-.244.096.096 0 0 0-.019-.085.116.116 0 0 0-.075-.038c-.019 0-.037.01-.056.01a.84.84 0 0 1 0-1.682.771.771 0 0 1 .404.122.087.087 0 0 0 .112-.019.086.086 0 0 0 .02-.103 4.233 4.233 0 0 0-2.942-2.32 6.66 6.66 0 0 0-5.459.657 9.376 9.376 0 0 0-1.324 1.503.12.12 0 0 0 0 .113.123.123 0 0 0 .112.028.759.759 0 0 1 .301-.066.841.841 0 1 1 0 1.682c-.01 0-.037-.019-.056-.01a.116.116 0 0 0-.075.038.133.133 0 0 0-.01.085.75.75 0 0 1 .047.244.84.84 0 1 1-1.682 0 .81.81 0 0 1 .179-.498.087.087 0 0 0 .01-.094.1.1 0 0 0-.067-.056.829.829 0 0 1-.723-.817.848.848 0 0 1 .846-.846.828.828 0 0 1 .582.254.087.087 0 0 0 .113.018.094.094 0 0 0 .047-.103 6.727 6.727 0 0 0-2.753-4.134 3.637 3.637 0 0 0-2.828-.395 5.807 5.807 0 0 0-1.654 1.184.09.09 0 0 0-.019.085.082.082 0 0 0 .057.075.831.831 0 0 1-.216 1.635h-.038a.085.085 0 0 0-.075.037.092.092 0 0 0-.01.085.732.732 0 0 1 .029.225.84.84 0 0 1-.912.837z"/><path class="cls-7" d="M54.92 132.45a1.03 1.03 0 0 1 .07-2.057.87.87 0 0 1 .237.033 4.066 4.066 0 0 0-2.688-1.988 6.504 6.504 0 0 0-5.316.63 9.686 9.686 0 0 0-1.11 1.242.893.893 0 0 1 .099-.005 1.03 1.03 0 0 1 .072 2.058.722.722 0 0 1 .021.17 1.02 1.02 0 0 1-.56.902 13.461 13.461 0 0 0 9.348-.244 1 1 0 0 1-.196-.57.716.716 0 0 1 .022-.17z"/><path class="cls-9" d="M64.839 97.792a10.239 10.239 0 0 1 2.104-.808l6.944 31.279-3.28-3.965z"/><path class="cls-6" d="M60.329 82.938a1.105 1.105 0 0 0 .065-.188h2.622a2.006 2.006 0 0 0-1.156 1.813 1.74 1.74 0 0 0 .46 1.222 1.562 1.562 0 0 0-.225.714.876.876 0 0 0 .019.216 32.457 32.457 0 0 0-1.626-3.75.099.099 0 0 0-.084-.046c-.01 0-.028.01-.038.01l-.028.027c-.01-.009-.01-.009-.01-.018z"/><path class="cls-1" d="m71.218 125.031 3.345-4.755.348 1.607-2.894 4.115-.799-.967zm-2.565-9.716 3.683-5.233.357 1.607-3.692 5.242-.348-1.616zm-2.518-11.566 3.683-5.233.357 1.597-3.692 5.243-.348-1.607z"/><path class="cls-8" d="m72.701 122.923-1.483 2.108.799.967 1.039-1.477-.355-1.598zm-1.898-8.551-.356-1.605-1.794 2.548.06.279.291 1.334 1.799-2.556zm-2.557-11.519-.355-1.599-1.756 2.495.012.055.337 1.55 1.762-2.501z"/><path d="M59.227 124.826c-.189.035-.288.36-.222.729s.274.639.463.605.289-.36.222-.729-.274-.639-.463-.605zm.199-.854c-.066-.368-.274-.639-.463-.605s-.288.36-.221.729.273.639.462.604.289-.36.222-.728zm-1.286.605c-.368.066-.639.273-.605.463s.36.288.729.221.639-.274.605-.463-.36-.288-.729-.221zm2-.362c-.368.066-.639.274-.605.463s.36.288.729.221.639-.273.604-.462-.36-.289-.728-.222zm-9.134 1.365c-.192-.01-.364.285-.384.658s.12.685.31.695.365-.284.385-.657-.12-.685-.311-.695zm.007-.127c.192.01.364-.285.384-.658s-.12-.685-.311-.695-.364.284-.384.657.119.685.31.696zm-1.007-.367c-.374-.02-.685.12-.695.311s.284.364.657.384.685-.119.696-.31-.285-.364-.658-.385zm2.029.11c-.373-.02-.685.12-.695.31s.284.365.658.385.684-.12.695-.311-.284-.364-.658-.384zm-9.427-1.046c-.187-.046-.41.212-.499.575s-.01.695.177.74.41-.211.499-.574.01-.695-.177-.741z"/><ellipse cx="42.8" cy="123.367" rx=".677" ry=".348" transform="rotate(-76.249 42.8 123.367)"/><ellipse cx="41.634" cy="123.817" rx=".348" ry=".677" transform="rotate(-76.249 41.634 123.817)"/><path d="M43.69 123.962c-.363-.088-.694-.01-.74.177s.212.41.575.5.695.009.74-.178-.211-.41-.574-.499zm14.54-6.676a.913.913 0 0 0 1.744 0 1.099 1.099 0 0 0 0-.809.913.913 0 0 0-1.743 0 1.099 1.099 0 0 0 0 .81zm-7.454.936a1.263 1.263 0 1 0-1.14-1.257 1.204 1.204 0 0 0 1.14 1.257zm3.365-42.192a2.962 2.962 0 0 0-2.642 1.657 2.961 2.961 0 0 0-2.643-1.656 3.013 3.013 0 0 0-.1 6.022 3.04 3.04 0 0 0-.233 1.17 2.976 2.976 0 1 0 5.952 0 3.04 3.04 0 0 0-.233-1.17 3.013 3.013 0 0 0-.1-6.022z"/><path d="M53.673 73.788h-4.349l2.175 2.265 2.174-2.265zm-5.628 44.45a7.819 7.819 0 0 0 2.72.432 10.434 10.434 0 0 0 1.857-.158.176.176 0 0 0 .114-.077.37.37 0 0 0 .026-.13.18.18 0 0 0-.197-.142h-.013a10.467 10.467 0 0 1-1.787.15 7.485 7.485 0 0 1-2.598-.41.325.325 0 0 0-.06-.01.178.178 0 0 0-.062.345zm8.976.091a9.349 9.349 0 0 0 1.48.13 2.933 2.933 0 0 0 2.16-.587.18.18 0 0 0-.013-.253.374.374 0 0 0-.12-.045.392.392 0 0 0-.132.056 2.757 2.757 0 0 1-1.901.473 9.186 9.186 0 0 1-1.449-.13.172.172 0 0 0-.172.15.18.18 0 0 0 .147.206z"/><path d="M25.77 82.834h.47c-.693 8.729 1.195 12.561 7.458 15.166 2.905 1.209 5.296 4.067 6.446 5.441l.046.033c.056.47.126.938.215 1.404a3.024 3.024 0 0 0-1.552.708 7.834 7.834 0 0 0-2.57 4.77l-.017.097a.097.097 0 0 0 0 .056c-.394 2.937.612 6.373 2.98 10.15 0 0-1.679 7.055-1.69 7.111l-.848 2.273a.178.178 0 0 0 .013.154.358.358 0 0 0 .129.086 1.527 1.527 0 0 0 .222.02 1.118 1.118 0 0 0 1.117-1.118c0-.03 0-.06-.002-.089a1.114 1.114 0 0 0 .933-1.095 1.085 1.085 0 0 0-.544-.946c.12-.107.244-.21.369-.307a8.795 8.795 0 0 0 1.846 3.629 10.963 10.963 0 0 0 3.573 2.76 1.091 1.091 0 0 0 .912.51.783.783 0 0 0 .217-.04.215.215 0 0 0 .056.052 13.32 13.32 0 0 0 9.595-.249 1.106 1.106 0 0 0 .784.324 1.045 1.045 0 0 0 1.056-1.151 11.059 11.059 0 0 0 4.739-5.066l.003.002a1.451 1.451 0 0 1 .146.073 8.455 8.455 0 0 1 .973.676 1.096 1.096 0 0 0-.51.929 1.114 1.114 0 0 0 .933 1.094 1.646 1.646 0 0 0-.003.09 1.118 1.118 0 0 0 1.118 1.117 1.428 1.428 0 0 0 .222-.02.173.173 0 0 0 .128-.086.361.361 0 0 0 .014-.153l-1.052-2.817-1.977-7.153a.18.18 0 0 0-.097-.114c.93-1.982 4.586-10.465 1.075-14.306a3.015 3.015 0 0 0-.686-.511 17.425 17.425 0 0 0 1.936-5.685.193.193 0 0 0 .04-.018 8.3 8.3 0 0 1 1.05-.673l5.351 24.495 3.408 4.126a.181.181 0 0 0 .153.06h.026a.181.181 0 0 0 .131-.13l1.344-5.446-5.462-25.09a5.497 5.497 0 0 0 1.205-.76l.382-.296a1.658 1.658 0 0 0 .735 1.062 1.447 1.447 0 0 0 .756.215 1.397 1.397 0 0 0 .359-.045 1.672 1.672 0 0 0 1.13-1.994 1.646 1.646 0 0 0-.733-1.062 1.373 1.373 0 0 0-.258-.126c1.574-2.03 3.252-5.755 2.542-12.137h1.125a.178.178 0 0 0 .178-.178v-5.28a.178.178 0 0 0-.178-.178H60.46a9.392 9.392 0 0 0-17.92 0H25.77a.178.178 0 0 0-.177.178v5.28a.178.178 0 0 0 .178.178zm47.564 14.974a1.069 1.069 0 0 1-.839-.129 1.355 1.355 0 0 1 .301-2.407 1.112 1.112 0 0 1 .269-.034 1.09 1.09 0 0 1 .569.163 1.296 1.296 0 0 1 .572.834 1.314 1.314 0 0 1-.872 1.573zm-3.425-.188-.193-.89a9.744 9.744 0 0 1 1.368.122l-.108.083a5.494 5.494 0 0 1-1.067.685zm-.561-.899 5.748 26.362-1.25 5-3.151-3.8-5.757-26.446a9.965 9.965 0 0 1 4.41-1.116zm-5.19 1.571.166-.106c.095-.061.19-.122.286-.18l.346 1.592a9.132 9.132 0 0 0-.935.574 12.929 12.929 0 0 0 .137-1.88zm-.53 31.734a.202.202 0 0 0-.185-.077.748.748 0 0 1-.22-1.465.18.18 0 0 0 .097-.077l.035.125.975 2.609a.763.763 0 0 1-.709-.76.56.56 0 0 1 .027-.191.358.358 0 0 0-.02-.164zm-1.574-2.74a2.172 2.172 0 0 0-.206-.104l-.043.006a.178.178 0 0 0-.105-.1.262.262 0 0 0-.038.004 3.397 3.397 0 0 0-1.385-.303 3.214 3.214 0 0 0-.457.032 4.785 4.785 0 0 0-3.687 2.542 9.064 9.064 0 0 0-.45 1.102.176.176 0 0 0 .08.206.17.17 0 0 0 .09.025.373.373 0 0 0 .13-.055.744.744 0 0 1 .543-.24.76.76 0 0 1 .758.757.746.746 0 0 1-.647.732.18.18 0 0 0-.14.11.365.365 0 0 0 .023.175.736.736 0 0 1 .166.446.758.758 0 0 1-1.517 0 .818.818 0 0 1 .048-.22.358.358 0 0 0-.03-.164.169.169 0 0 0-.148-.059.472.472 0 0 0-.048.003.758.758 0 0 1 0-1.517 1.09 1.09 0 0 1 .447.133.37.37 0 0 0 .122-.05.177.177 0 0 0 .036-.21 4.352 4.352 0 0 0-2.994-2.365 9.72 9.72 0 0 0-2.216-.28 5.81 5.81 0 0 0-3.314.95 10.002 10.002 0 0 0-1.34 1.524.179.179 0 0 0 .004.216.172.172 0 0 0 .15.058.432.432 0 0 0 .058-.004.712.712 0 0 1 .268-.06.753.753 0 1 1-.035 1.506h-.019a.356.356 0 0 0-.14.072.188.188 0 0 0-.027.17.734.734 0 0 1 .043.209.758.758 0 0 1-1.516 0 .736.736 0 0 1 .167-.448.185.185 0 0 0 .021-.175.37.37 0 0 0-.139-.108.747.747 0 0 1-.647-.732.76.76 0 0 1 .758-.759.748.748 0 0 1 .526.226.141.141 0 0 0 .115.041.689.689 0 0 0 .102-.01.177.177 0 0 0 .083-.2 6.775 6.775 0 0 0-2.796-4.18 3.666 3.666 0 0 0-1.892-.534 3.95 3.95 0 0 0-.993.13 5.691 5.691 0 0 0-1.694 1.2.165.165 0 0 0-.03.039l1.459-6.123a41.178 41.178 0 0 0 6.5 1.81.17.17 0 0 0 .13.124l.034.004.051-.04a33.015 33.015 0 0 0 6.447.69 19.33 19.33 0 0 0 7.78-1.421c.364-.16.64-.303.838-.414l.1-.06 1.81 6.552a8.24 8.24 0 0 0-1.194-.86zm-5.005 4.84c-.036.023-.07.044-.107.065l-.005-.014a1.005 1.005 0 0 0 .112-.05zm.59-.968a1.116 1.116 0 0 0-1.113-1.114 1.063 1.063 0 0 0-.328.05c.095-.23.193-.44.262-.587a4.425 4.425 0 0 1 3.41-2.334 3.092 3.092 0 0 1 .418-.03 2.905 2.905 0 0 1 1.112.223 10.516 10.516 0 0 1-4.21 4.675 1.085 1.085 0 0 0 .45-.883zm-11.25 1.374a.68.68 0 0 0-.006-.096 1.115 1.115 0 0 0-.094-2.213 9.268 9.268 0 0 1 .98-1.084 5.474 5.474 0 0 1 3.122-.89 9.25 9.25 0 0 1 2.129.272 3.974 3.974 0 0 1 2.539 1.79.773.773 0 0 0-.068-.003 1.115 1.115 0 0 0-.172 2.216.691.691 0 0 0-.006.096 1.033 1.033 0 0 0 .153.53 13.835 13.835 0 0 1-4.94.922 12.692 12.692 0 0 1-4.088-.659 1.097 1.097 0 0 0 .452-.88zm-6.476-6.402a3.616 3.616 0 0 1 .899-.118 3.33 3.33 0 0 1 1.713.483 6.252 6.252 0 0 1 2.509 3.521 1.069 1.069 0 0 0-.356-.061 1.116 1.116 0 0 0-1.114 1.115 1.088 1.088 0 0 0 .702 1.017 1.023 1.023 0 0 0-.104.445.59.59 0 0 0 .01.107 10.792 10.792 0 0 1-3.11-2.495 8.423 8.423 0 0 1-1.803-3.613.031.031 0 0 0-.006-.014 2.901 2.901 0 0 1 .66-.387zm-1.94 2.624a.176.176 0 0 0-.145.076.35.35 0 0 0-.021.165.557.557 0 0 1 .027.19.767.767 0 0 1-.705.752l.769-2.063.179-.753a.162.162 0 0 0 .005.035.358.358 0 0 0 .124.128.743.743 0 0 1 .558.717.754.754 0 0 1-.79.753zm28.939-45.607c0-.095.003-.201.009-.313h.158l-.167.313zm6.155 11.734a1.425 1.425 0 0 0-.36.046 1.169 1.169 0 0 0-.592.346 11.489 11.489 0 0 0-2.608-.319 9.203 9.203 0 0 0-1.364.108 3.374 3.374 0 0 0 .602-.543 6.258 6.258 0 0 0 1.072-2.403l1.71-6.023c.345-.056 1.77-.454 2.137-3.259h2.09c.722 6.403-.997 10.089-2.584 12.062l-.103-.015zm-1.424-9.191.246-.855a2.72 2.72 0 0 0-.564-2h1.978c-.29 2.107-1.215 2.694-1.66 2.854zm-6.528.528a1.11 1.11 0 0 1-.148.436.535.535 0 0 1-.462.231.696.696 0 0 1-.118-.01.647.647 0 0 1-.397-.231 2.069 2.069 0 0 0 1.125-.426zm.842-1.914a2.268 2.268 0 0 0-.957-1.47h1.565a3.462 3.462 0 0 0 .02.837 4.538 4.538 0 0 1-.489.502l-.14.13zm-2.048-1.47a1.893 1.893 0 0 1 1.742 1.786 1.835 1.835 0 0 0-.379.64c-.05.148-.073.297-.115.449a1.733 1.733 0 0 1-1.294.582l-.009.001a1.794 1.794 0 0 1-.013-.114 1.408 1.408 0 0 0-.081-.414.755.755 0 0 0-.465-.434.865.865 0 0 0-.283-.048.814.814 0 0 0-.408.106.949.949 0 0 0-.157.115 1.446 1.446 0 0 1-.316-.943 1.72 1.72 0 0 1 1.678-1.726zm1.12 12.804c.076.056.156.113.24.167a11.76 11.76 0 0 0-1.071.493 27.927 27.927 0 0 0-.088-1.326zm6.502-10.864-2.06 7.245a5.94 5.94 0 0 1-.998 2.267 5.13 5.13 0 0 1-1.915 1.213 1.644 1.644 0 0 1-.62.178l-.062-.004a1.461 1.461 0 0 1-.638-.324l-2.04-1.48a1.565 1.565 0 0 1-.494-.48.703.703 0 0 1 .081-.543c.35.285.708.558 1.073.807a2.428 2.428 0 0 0 1.136.495c.04.002.08.004.118.004a2.75 2.75 0 0 0 .775-.15l1.595-.466a.176.176 0 0 0-.077-.342l-.024.001-1.595.466a2.514 2.514 0 0 1-.747.13h-.017a2.123 2.123 0 0 1-.962-.434 16.342 16.342 0 0 1-1.644-1.282 1.569 1.569 0 0 1-.437-.523 1.534 1.534 0 0 1 .252-1.324 5.118 5.118 0 0 0 .76.76l.704.61a4.161 4.161 0 0 0 .641.486 1.471 1.471 0 0 0 .745.19 4.03 4.03 0 0 0 1.244-.279 6.93 6.93 0 0 1 .707-.21.178.178 0 0 0 .136-.21.176.176 0 0 0-.197-.138h-.016a7.293 7.293 0 0 0-.742.22 3.734 3.734 0 0 1-1.13.26 1.124 1.124 0 0 1-.569-.143 3.854 3.854 0 0 1-.585-.445l-.706-.611a3.415 3.415 0 0 1-.94-1.086c-.178-.388-.27-1.043.154-1.346a3.17 3.17 0 0 0 .982 1.37 1.237 1.237 0 0 0 .752.221 4.039 4.039 0 0 0 1.721-.53.18.18 0 0 0 .073-.242.163.163 0 0 0-.164-.08.483.483 0 0 0-.077.007 3.813 3.813 0 0 1-1.551.49.892.892 0 0 1-.54-.152 3.581 3.581 0 0 1-1.079-1.801 2.967 2.967 0 0 1-.188-1.058.99.99 0 0 1 .415-.812.493.493 0 0 1 .397-.032.404.404 0 0 1 .25.23 1.113 1.113 0 0 1 .058.317 2.006 2.006 0 0 0 .037.28.982.982 0 0 0 .8.732 1.1 1.1 0 0 0 .188.018.894.894 0 0 0 .755-.396 2.042 2.042 0 0 0 .247-.922 2.74 2.74 0 0 1 .098-.555 2.33 2.33 0 0 1 .726-.935 4.593 4.593 0 0 0 .556-.576 4.783 4.783 0 0 0 .409-.686c.054-.106.109-.21.174-.34h3.42l.018.048a2.395 2.395 0 0 1 .617 1.892zm-9.756-.214a1.81 1.81 0 0 0 .445 1.233 1.505 1.505 0 0 0-.182.477 30.878 30.878 0 0 0-1.475-3.342.141.141 0 0 0-.113-.074l.007-.02h2.241a2.094 2.094 0 0 0-.923 1.726zm-1.454-1.326a34.479 34.479 0 0 1 1.944 4.742 1.442 1.442 0 0 0-.307 1.804.99.99 0 0 0 .063.114 1.993 1.993 0 0 0-.37 1.8 1.887 1.887 0 0 0 .528.649c.086.076.33.275.33.275a1.042 1.042 0 0 0-.12.939 1.878 1.878 0 0 0 .6.602l.737.5c.065.634.107 1.265.169 1.8a12.302 12.302 0 0 0-1.73 1.163 32.681 32.681 0 0 0-3.21-11.919 9.393 9.393 0 0 0 1.366-2.469zm-.19 24.022a1.466 1.466 0 0 1 .542-.454.69.69 0 0 1 .259-.045l.03.001c.029 0 .05-.001.048-.013 2.178 1.83 1.372 6.277.698 8.76.205-3.435-.325-6.207-1.578-8.25zm-7.51-2.454a4.77 4.77 0 0 0-3.76.574 3.497 3.497 0 0 0-.529.409c-.162-1.43-.128-5.317 1.868-7.508a5.385 5.385 0 0 1 1.422-1.095c2.008 1.521 1.138 6.846 1 7.62zm1.071.418a4.435 4.435 0 0 0-.745-.32c.13-.673 1.072-5.962-.938-7.828a5.304 5.304 0 0 1 1.784-.293c.209 0 .423.01.619.026 3.708 1.444 2.623 8.066 2.631 8.281a4.274 4.274 0 0 0-.648.281 2.918 2.918 0 0 0-1.288 1.311 3.16 3.16 0 0 0-1.414-1.458zm-5.438 1.19a2.71 2.71 0 0 1 .798-.733 4.414 4.414 0 0 1 2.366-.677 4.36 4.36 0 0 1 2.103.533 2.688 2.688 0 0 1 1.33 1.479 2.148 2.148 0 0 1-.471 1.961 1.206 1.206 0 0 1-.891.429 1.144 1.144 0 0 1-.236-.026 6.284 6.284 0 0 1-3.256-2.268 3.55 3.55 0 0 0-.478-.485 1.314 1.314 0 0 0-.34-.205 1.214 1.214 0 0 0-.436-.076 1.967 1.967 0 0 0-.489.069zm11.182-1.464a4.211 4.211 0 0 0-2.082.045c.184-1.272.674-6.041-1.913-7.985a4.811 4.811 0 0 1 2.75 1.728c1.636 2.14 1.353 5.374 1.245 6.212zm-7.558-8.211a4.783 4.783 0 0 0-1.942 1.302c-1.742 1.912-2.002 4.934-2.03 6.21-.463.145-1.764.741-2.87 3.027a6.763 6.763 0 0 0-.214-.306 4.808 4.808 0 0 0-1.969-1.581 17.663 17.663 0 0 1-.213-6.716c.006 0 .045 0 .058-.002a35.366 35.366 0 0 1 9.18-1.934zm-3.975 7.896a6.713 6.713 0 0 0 .14 1.477 2.125 2.125 0 0 0-.315.538.175.175 0 0 0 .039.187.343.343 0 0 0 .128.056l.06-.01a2.534 2.534 0 0 1 .785-.181.785.785 0 0 1 .093.004 6.202 6.202 0 0 0-2.783 2.72 7.345 7.345 0 0 0-.812-1.745 5.42 5.42 0 0 1 2.665-3.046zm1.418 2.293a3.461 3.461 0 0 1 .417.43 6.587 6.587 0 0 0 3.438 2.37 1.501 1.501 0 0 0 .317.036 1.552 1.552 0 0 0 1.15-.544 2.362 2.362 0 0 0 .476-.8 2.135 2.135 0 0 0 .398.644 1.533 1.533 0 0 0 .68.44 2.043 2.043 0 0 0-.499-.07 7.324 7.324 0 0 0-2.61.671.18.18 0 0 0-.095.235.178.178 0 0 0 .186.098.426.426 0 0 0 .046-.003 7.078 7.078 0 0 1 2.473-.643 1.253 1.253 0 0 1 .86.259c.611.554.186 1.977-.072 2.842l-.08.27a44.182 44.182 0 0 0-.82 4.57.182.182 0 0 0 .167.2.186.186 0 0 0 .188-.155 44.693 44.693 0 0 1 .809-4.518l.082-.278c.296-.992.743-2.49-.035-3.194a1.272 1.272 0 0 0-.428-.242 1.308 1.308 0 0 0 .216.024 1.404 1.404 0 0 0 .294-.032 5.919 5.919 0 0 0 2.997-2c3.12 5.234.493 13.916.425 14.234a18.923 18.923 0 0 1-7.57 1.361 32.584 32.584 0 0 1-6.296-.657c.23-1.454 1.132-7.909-.244-12.571.015-.028 1.457-2.79 3.13-2.977zm11.223-.456a2.052 2.052 0 0 0-.77.652 5.727 5.727 0 0 1-2.972 2.065 1.002 1.002 0 0 1-.214.024 1.1 1.1 0 0 1-.808-.389 1.96 1.96 0 0 1-.43-1.788 2.447 2.447 0 0 1 1.215-1.35 4.068 4.068 0 0 1 4.092.131 2.511 2.511 0 0 1 .706.638 1.8 1.8 0 0 0-.415-.054 1.112 1.112 0 0 0-.404.071zm-.758-1.441c.11-.834.428-4.233-1.312-6.51A4.987 4.987 0 0 0 56.3 96.9a13.533 13.533 0 0 1 4.151 1.235 1.715 1.715 0 0 0-.664 1.774 1.66 1.66 0 0 0 .736 1.062 1.43 1.43 0 0 0 1.113.17 1.335 1.335 0 0 0 .171-.058 12.178 12.178 0 0 1-1.126 4.336 4.347 4.347 0 0 0-.896-.392zm1.492-4.197a1.082 1.082 0 0 1-.568-.164 1.295 1.295 0 0 1-.574-.834 1.314 1.314 0 0 1 .874-1.572 1.077 1.077 0 0 1 .837.128 1.297 1.297 0 0 1 .573.834 1.315 1.315 0 0 1-.873 1.573 1.08 1.08 0 0 1-.27.035zm.478-2.867a1.36 1.36 0 0 0-.475-.095.87.87 0 0 0-.397.088 15.707 15.707 0 0 0-7.536-1.625 33.37 33.37 0 0 0-10.657 1.98 37.452 37.452 0 0 1 2.509-8.447 29.858 29.858 0 0 1 4.085-.678.3.3 0 0 0 .074-.036 9.407 9.407 0 0 0 2.14.256 8 8 0 0 0 2.392-.352.354.354 0 0 0 .094.04 30.772 30.772 0 0 1 6.33 1.005 27.624 27.624 0 0 1 1.491 7.81l-.05.054zm-6.94-9.168a8.49 8.49 0 0 0 2.333-1.328 41.14 41.14 0 0 1 2.405.514q.345.89.635 1.745a27.938 27.938 0 0 0-5.373-.93zm-9.403.656c.258-.588.52-1.155.78-1.697a9.329 9.329 0 0 0 2.336 1.163 30.475 30.475 0 0 0-3.116.534zm-.889 32.596c-.63-.157-1.324-.35-2.118-.59-.053-.758-.801-9.998-5.745-11.178a7.574 7.574 0 0 1 1.642-3.624c7.792 1.88 6.392 14.098 6.221 15.392zm13.033-34.865a9.557 9.557 0 0 0 1.18-1.195c.24.551.462 1.092.673 1.623a24.744 24.744 0 0 0-1.853-.428zm-13.504-1.465A9.454 9.454 0 0 0 45.9 87.54c-2.327 4.821-4.788 11.754-3.459 17.635a5.07 5.07 0 0 0-1.273-.322 3.177 3.177 0 0 0-.323-.018.978.978 0 0 0-.085.006c-.085-.437-.156-.872-.23-1.247a.151.151 0 0 0 .007-.217c-.804-6.87 1.827-13.962 3.515-17.66zm-3.224 19.474a2.56 2.56 0 0 1 .301.018 4.771 4.771 0 0 1 3.405 1.973c3.14 4.197 1.78 13.755 1.548 15.22q-.601-.126-1.228-.276a27.502 27.502 0 0 0-.036-7.066c-.702-4.786-2.867-7.786-6.263-8.687a6.685 6.685 0 0 1 .53-.518 2.63 2.63 0 0 1 1.743-.664zm-4.216 5.426c4.445 1.108 5.341 9.554 5.445 10.735a84.628 84.628 0 0 1-2.494-.811c-2.32-3.744-3.312-7.082-2.95-9.924zm24.536 10.732a6.783 6.783 0 0 1-.456.238 30.877 30.877 0 0 0 .868-4.45c.276-.759 2.559-7.34.057-10.241l.11.032a.364.364 0 0 0 .128-.055.179.179 0 0 0 .039-.187l-.001-.002a2.743 2.743 0 0 1 .538.406c3.672 4.017-1.112 13.878-1.283 14.26zm.54-15.169a1.373 1.373 0 0 0-.095-.043l-.028.003a2.9 2.9 0 0 0-.579-.53 11.98 11.98 0 0 0 1.174-4.73 1.588 1.588 0 0 0 .592-1.56 10.797 10.797 0 0 1 1.07-.815 17.722 17.722 0 0 1-2.133 7.675zm.406-8.05a11.823 11.823 0 0 1 3.625-2.126.832.832 0 0 0 .116.024.89.89 0 0 0 .11.008 1.958 1.958 0 0 0 .755-.21 3.176 3.176 0 0 0 .55-.285.806.806 0 0 0 .106.014 9.71 9.71 0 0 1 2.14-.242 10.9 10.9 0 0 1 2.326.266 1.739 1.739 0 0 0-.285.98 10.334 10.334 0 0 0-2.021-.204 10.636 10.636 0 0 0-6.826 2.55 1.622 1.622 0 0 0-.596-.774zm-10.596-9.08a9.09 9.09 0 0 1-7.303-3.715c-.007-.069-.041-.123-.077-.123a9.03 9.03 0 1 1 7.38 3.838zm-24.9-6.216H37.28a13.275 13.275 0 0 1 .118 4.04.2.2 0 0 0 .165.2h.012a.179.179 0 0 0 .177-.157 13.696 13.696 0 0 0-.11-4.083h4.897a8.065 8.065 0 0 0 1.29 2.511c-1.662 3.595-4.33 10.613-3.697 17.527-1.13-1.341-3.481-4.03-6.298-5.202-5.282-2.198-8.002-5.217-7.235-14.836z"/><path class="cls-1" d="M42.31 81.84a1.111 1.111 0 0 1-.05-.25H27.44v-3.15h14.81a2.222 2.222 0 0 1 .05-.25H27.19v3.65zm33.25-3.4v3.15H60.74a2.179 2.179 0 0 1-.04.25h15.11v-3.65H60.7a2.222 2.222 0 0 1 .05.25z"/><path class="cls-2" d="M46.565 54.558a4.27 4.27 0 0 1-2.057.52 4.408 4.408 0 0 1-1.016-.127c-.083.587-.486 4.097 1.25 6.366a5.19 5.19 0 0 0 3.807 1.957 4.887 4.887 0 0 0 4.313-1.495c2.02-2.216 2.084-6.245 1.868-7.746a3.296 3.296 0 0 1-.636.52 4.695 4.695 0 0 1-2.51.72 4.636 4.636 0 0 1-2.236-.567 2.964 2.964 0 0 1-1.453-1.624 2.74 2.74 0 0 1-1.33 1.476z"/><path class="cls-1" d="M60.429 61.447a17.826 17.826 0 0 0-.201-6.854 5.152 5.152 0 0 1-1.982-1.612 6.683 6.683 0 0 1-.293-.429c-1.172 2.509-2.594 3.042-2.943 3.137-.032 1.934-.493 4.555-2.008 6.217a4.71 4.71 0 0 1-2.629 1.477 34.183 34.183 0 0 0 9.956-1.972.088.088 0 0 1 .1.036z"/><path class="cls-2" d="M49.438 54.54a4.534 4.534 0 0 0 4.555-.145 2.586 2.586 0 0 0 .937-.947 1.645 1.645 0 0 1-1.078.055 1.235 1.235 0 0 1-.318-.192 3.425 3.425 0 0 1-.466-.474 6.348 6.348 0 0 0-3.303-2.296 1.248 1.248 0 0 0-1.207.428 2.24 2.24 0 0 0-.49 2.044 2.77 2.77 0 0 0 1.37 1.528z"/><path class="cls-3" d="M49.059 71.014a9.023 9.023 0 0 1 4.598-.074.089.089 0 0 1 .066-.042 30.063 30.063 0 0 0 4.096-.68 36.131 36.131 0 0 0 2.594-8.65c-.009.007-.013.017-.023.02a33.478 33.478 0 0 1-10.738 1.996 15.584 15.584 0 0 1-7.496-1.615l-.002-.002c-.032.011-.062.028-.095.036a1.237 1.237 0 0 1-.834-.064c-.006.01-.006.022-.016.03-.043.038-.09.07-.134.108a.08.08 0 0 1 .02.038 28.307 28.307 0 0 0 1.51 7.813 27.368 27.368 0 0 0 6.405 1.063.089.089 0 0 1 .049.023z"/><path class="cls-4" d="M48.59 71.15a27.894 27.894 0 0 1-5.911-1.003q.312.932.688 1.903a24.075 24.075 0 0 0 2.47.567 9.283 9.283 0 0 1 2.753-1.466z"/><path class="cls-5" d="M56.662 37.461c-7.44-1.49-12.015-.17-13.996.694-.167.541-2.757 9.243.446 14.452a5.913 5.913 0 0 1 3.027-2.058 1.318 1.318 0 0 1 1.282.447 2.169 2.169 0 0 1 .464.86 2.374 2.374 0 0 1 .534-1.014 1.424 1.424 0 0 1 1.387-.484 6.508 6.508 0 0 1 3.392 2.342 3.61 3.61 0 0 0 .427.442c1.791-.174 3.244-2.976 3.259-3.005.003-.007.01-.008.015-.013-1.42-4.833-.406-11.625-.237-12.663zm-14.19 4.881a.094.094 0 0 1-.07-.157c.033-.036.832-.874 3.563-.43a.094.094 0 0 1 .077.108.088.088 0 0 1-.108.077c-2.61-.43-3.386.363-3.392.372a.095.095 0 0 1-.07.03zm1.426 1.806a1.033 1.033 0 1 1 .948-1.03.993.993 0 0 1-.948 1.03zm5.98 5.673a7.296 7.296 0 0 1-2.576.665 1.497 1.497 0 0 1-1.043-.332c-.738-.669-.3-2.137-.01-3.109q.046-.15.083-.278a45.057 45.057 0 0 0 .811-4.53.102.102 0 0 1 .106-.082.095.095 0 0 1 .081.105 45.41 45.41 0 0 1-.818 4.559c-.024.086-.052.18-.083.28-.26.87-.694 2.327-.044 2.917.523.471 1.674.348 3.422-.37a.094.094 0 1 1 .071.175zm2.346-5.558a1.233 1.233 0 1 1 1.132-1.228 1.184 1.184 0 0 1-1.132 1.228zm2.669-2.24a.104.104 0 0 1-.033-.006 9.433 9.433 0 0 0-4.428-.263.09.09 0 0 1-.11-.074.092.092 0 0 1 .073-.11 9.615 9.615 0 0 1 4.53.271.094.094 0 0 1 .056.121.093.093 0 0 1-.088.06z"/><path class="cls-2" d="M42.426 53.453a1.494 1.494 0 0 1-.977-.044 2.39 2.39 0 0 0 .848.85h.002a4.158 4.158 0 0 0 4.176.134 2.53 2.53 0 0 0 1.255-1.4 2.049 2.049 0 0 0-.447-1.87 1.138 1.138 0 0 0-1.103-.39 5.808 5.808 0 0 0-3.018 2.092 1.972 1.972 0 0 1-.736.628zm11.432-.159c.02.01.04.025.062.033a1.69 1.69 0 0 0 1.153-.126.09.09 0 0 1 .099.024.093.093 0 0 1 .02.098 2.054 2.054 0 0 1-.301.517 9.547 9.547 0 0 1 .122 1.65c.394-.13 1.739-.73 2.826-3.131a9.589 9.589 0 0 1-.868-1.988c-.317.573-1.545 2.605-3.113 2.923z"/><path class="cls-3" d="M45.635 72.767a24.32 24.32 0 0 1-2.186-.503c.246.624.507 1.258.793 1.91a9.384 9.384 0 0 1 1.393-1.407z"/><path class="cls-6" d="M35.778 77.25h.38a8.13 8.13 0 0 0 .013-.71 7.85 7.85 0 0 0-.231.412c-.052.1-.107.2-.162.298z"/><path class="cls-5" d="m36.176 76.189.001-.001a4.51 4.51 0 0 1 .543-.562 2.4 2.4 0 0 0 .75-.97 2.885 2.885 0 0 0 .102-.584 1.929 1.929 0 0 1 .232-.875.826.826 0 0 1 .857-.34.896.896 0 0 1 .733.667 1.979 1.979 0 0 1 .036.27 1.206 1.206 0 0 0 .063.34.49.49 0 0 0 .301.28.573.573 0 0 0 .467-.04 1.074 1.074 0 0 0 .457-.88 3.032 3.032 0 0 0-.191-1.088 3.656 3.656 0 0 0-1.109-1.844c-.562-.414-1.607.028-2.182.332a.094.094 0 0 1-.088-.167c.612-.323 1.733-.795 2.382-.315a3.224 3.224 0 0 1 .992 1.426c.567-.301.474-1.064.273-1.505a3.49 3.49 0 0 0-.963-1.115l-.706-.611a3.929 3.929 0 0 0-.598-.454 2.141 2.141 0 0 0-1.767.11 7.125 7.125 0 0 1-.734.217.087.087 0 0 1-.112-.071.094.094 0 0 1 .072-.112 7.097 7.097 0 0 0 .714-.212 2.305 2.305 0 0 1 1.92-.096 4.04 4.04 0 0 1 .628.477l.706.61a4.66 4.66 0 0 1 .818.846 1.704 1.704 0 0 0 .326-1.508 1.65 1.65 0 0 0-.459-.552 16.325 16.325 0 0 0-1.652-1.29 2.186 2.186 0 0 0-1.004-.448 2.316 2.316 0 0 0-.794.134l-1.595.466a.094.094 0 1 1-.053-.18l1.595-.466a1.825 1.825 0 0 1 1.957.339c.39.265.768.558 1.141.862a.812.812 0 0 0 .136-.707 1.63 1.63 0 0 0-.519-.51l-.782-.568a.085.085 0 0 1-.042-.03l-1.216-.882a1.083 1.083 0 0 0-1.403-.158 5.186 5.186 0 0 0-1.946 1.235 6.012 6.012 0 0 0-1.016 2.3l-2.06 7.244c0 .005-.007.003-.008.007v.005a2.505 2.505 0 0 0 .642 1.957l.002.006a.13.13 0 0 1 .023.072h3.523l.001-.01c.072-.12.138-.248.204-.375a4.7 4.7 0 0 1 .4-.674z"/><path class="cls-6" d="M38.317 77.25a2.156 2.156 0 0 1-1.21-1.732 9.268 9.268 0 0 1-.26.247 4.623 4.623 0 0 0-.501.515 7.615 7.615 0 0 1 0 .97z"/><path class="cls-7" d="M62.154 55.08a2.997 2.997 0 0 1-.314-.017 5.172 5.172 0 0 1-1.402-.376c1.407 5.9-1.078 12.913-3.445 17.8a9.37 9.37 0 0 1 1.972 1.96c1.777-3.863 4.387-10.946 3.58-17.835l-.02-.024a.092.092 0 0 1 .007-.124q-.088-.7-.224-1.398c-.052.003-.102.014-.154.014z"/><path class="cls-6" d="M60.399 77.25h5.059a13.653 13.653 0 0 1-.126-4.157.095.095 0 0 1 .093-.082h.012a.095.095 0 0 1 .082.106 13.346 13.346 0 0 0 .125 4.101c.002.012-.005.021-.007.032h10.842c.792-9.727-1.949-12.78-7.28-14.998-2.882-1.2-5.243-3.958-6.442-5.388.719 6.901-1.901 13.944-3.663 17.755a9.269 9.269 0 0 1 1.305 2.631z"/><path class="cls-1" d="M41.385 58.941a1.35 1.35 0 0 1 1.047.16 1.573 1.573 0 0 1 .698 1.009 1.623 1.623 0 0 1-.753 1.762 14.214 14.214 0 0 0 5.255 1.425 5.122 5.122 0 0 1-3.039-1.866c-1.79-2.341-1.367-5.945-1.286-6.519a4.225 4.225 0 0 1-1.022-.448 12.045 12.045 0 0 0-1.191 4.592 1.366 1.366 0 0 1 .29-.115z"/><path class="cls-6" d="M38.992 65.205a26.04 26.04 0 0 1-.11-1.641 11.796 11.796 0 0 1-1.346.617 3.155 3.155 0 0 1 .386.248zM29.6 77.25h2.246a2.686 2.686 0 0 1-.652-2.07c.002-.009.01-.013.014-.02l-.001-.008.275-.967c-.335.078-1.565.537-1.881 3.065z"/><path class="cls-2" d="M38.628 73.042a.645.645 0 0 0-.666.258 1.552 1.552 0 0 0-.19.688 1.998 1.998 0 0 1 1.365-.551h.022a.722.722 0 0 0-.53-.395z"/><path class="cls-4" d="M39.192 77.25a1.815 1.815 0 0 0 1.761-1.81 1.548 1.548 0 0 0-.392-1.069.912.912 0 0 1-.207.167.76.76 0 0 1-.621.052.674.674 0 0 1-.415-.386 1.377 1.377 0 0 1-.075-.394 2.258 2.258 0 0 0-.025-.188h-.013c-.012 0-.028.002-.068.002a1.817 1.817 0 0 0-1.358.611.087.087 0 0 1-.04.018 2.35 2.35 0 0 1-.09.461 1.797 1.797 0 0 1-.377.626l.004.01a1.934 1.934 0 0 0 1.812 1.9z"/><path class="cls-7" d="M44.109 74.347a9.292 9.292 0 0 0-1.438 2.715 1.105 1.105 0 0 0-.065.188h-2.622a2.006 2.006 0 0 0 1.156-1.813 1.74 1.74 0 0 0-.46-1.222 1.562 1.562 0 0 0 .225-.714.876.876 0 0 0-.019-.216 32.457 32.457 0 0 0 1.626 3.75.099.099 0 0 0 .084.046c.01 0 .028-.01.038-.01l.028-.027a.084.084 0 0 0 .01-.104 33.925 33.925 0 0 1-2.04-4.951 1.328 1.328 0 0 0 .33-1.738c-.029-.057-.066-.113-.095-.17.01-.009.029-.009.047-.018a1.942 1.942 0 0 0 .357-1.72 1.801 1.801 0 0 0-.507-.62c-.122-.113-.254-.216-.385-.329a.986.986 0 0 0 .16-.911 1.958 1.958 0 0 0-.574-.573l-.78-.564a32.6 32.6 0 0 1-.122-1.88 12.134 12.134 0 0 0 1.851-1.258 33.306 33.306 0 0 0 3.195 12.139z"/><path class="cls-1" d="m58.95 74.74-.014-.004a.09.09 0 0 1-.047-.079 8.541 8.541 0 1 0 .061.082zm-9.623 11.47 2.174-2.264 2.175 2.265zm4.817-2.242a2.961 2.961 0 0 1-2.643-1.656 2.961 2.961 0 0 1-2.642 1.656 3.013 3.013 0 0 1-.101-6.022 3.041 3.041 0 0 1-.233-1.17 2.976 2.976 0 1 1 5.952 0 3.041 3.041 0 0 1-.232 1.17 3.013 3.013 0 0 1-.101 6.022z"/><path class="cls-4" d="M30.225 64.81a1.4 1.4 0 0 0 .935-1.673 1.384 1.384 0 0 0-.61-.888 1.15 1.15 0 0 0-.905-.138 1.4 1.4 0 0 0-.934 1.672 1.381 1.381 0 0 0 .611.889 1.164 1.164 0 0 0 .903.137z"/><path class="cls-8" d="M38.161 62.208a10.24 10.24 0 0 1-2.104.808 9.567 9.567 0 0 1-2.471.347l-.404-1.87v-.009l-.357-1.597-2.161-9.969-.357-1.607-1.87-8.587-.348-1.607-.263-1.221 1.287-5.159 1.87 2.265.799.967.61.733L34 43.07l.348 1.616 2.17 9.959.348 1.607z"/><path class="cls-6" d="M33.151 62.26a5.319 5.319 0 0 0-1.178.738c-.08.062-.172.131-.264.2a10.016 10.016 0 0 0 1.681.16z"/><path class="cls-2" d="M41.184 53.284a.094.094 0 0 1 .119-.122 1.551 1.551 0 0 0 1.055.115 1.687 1.687 0 0 0 .617-.524c-3.099-4.97-.939-13.108-.536-14.496a8.73 8.73 0 0 0-.63.32c-.272.553-4.996 10.351-1.303 14.39a2.871 2.871 0 0 0 .792.545 1.807 1.807 0 0 1-.114-.228z"/><path class="cls-6" d="M38.887 61.78a20.76 20.76 0 0 1 .203-2.136 8.9 8.9 0 0 1-1.143.713l.385 1.766c.19-.103.37-.227.555-.343z"/><path class="cls-7" d="M40.302 60.744a1.639 1.639 0 0 1 .588-1.556 11.987 11.987 0 0 1 1.234-4.824 2.782 2.782 0 0 1-.645-.583c-.005 0-.006.007-.011.007a.094.094 0 0 1-.032-.005c-.067-.025-.118-.056-.18-.084a.09.09 0 0 1-.006.055 17.844 17.844 0 0 0-2.167 7.904 10.993 10.993 0 0 0 1.22-.914z"/><path class="cls-6" d="M27.158 77.25h2.252c.37-3.016 1.969-3.251 2.129-3.266l1.726-6.077a6.181 6.181 0 0 1 1.054-2.371 3.625 3.625 0 0 1 .921-.747 9.907 9.907 0 0 1-1.747.172 11.367 11.367 0 0 1-2.589-.317c-.006-.001-.009-.008-.014-.01a1.392 1.392 0 0 1-.617.357 1.347 1.347 0 0 1-.34.044 1.329 1.329 0 0 1-.14-.02c-1.613 1.987-3.367 5.71-2.625 12.202.001.013-.006.022-.01.033z"/><path class="cls-4" d="M40.497 60.796a1.383 1.383 0 0 0 .612.888 1.158 1.158 0 0 0 .902.138 1.398 1.398 0 0 0 .935-1.672 1.38 1.38 0 0 0-.612-.888 1.146 1.146 0 0 0-.902-.139 1.4 1.4 0 0 0-.935 1.673zm-4.835 3.732a.074.074 0 0 1 .054.008c.209-.102.417-.197.617-.285a1.651 1.651 0 0 1 .82-.196.906.906 0 0 1 .138.032c.006-.003.008-.01.014-.013a11.865 11.865 0 0 0 3.741-2.214c-.011-.006-.024-.009-.035-.015a1.558 1.558 0 0 1-.661-.897 10.505 10.505 0 0 1-6.867 2.612 10.253 10.253 0 0 1-2.11-.224 1.664 1.664 0 0 1-.34 1.14 10.096 10.096 0 0 0 4.629.052z"/><path class="cls-2" d="M56.847 37.497c-.209 1.283-1.667 11.07 1.55 15.371a4.853 4.853 0 0 0 3.464 2.008 2.717 2.717 0 0 0 2.108-.667c1.702-1.48 5.06-5.884-.462-14.795a46.984 46.984 0 0 0-6.66-1.917z"/><path class="cls-4" d="M57.73 70.429a30.448 30.448 0 0 1-3.67.615 9.267 9.267 0 0 1 2.78 1.328 51.83 51.83 0 0 0 .89-1.943z"/><path class="cls-7" d="M59.352 28.93a1.031 1.031 0 0 1-1.03 1.03.984.984 0 0 1-.49-.13 6.383 6.383 0 0 0 2.6 3.748 3.413 3.413 0 0 0 2.677.374 3.208 3.208 0 0 0 .767-.458c-.02-.013-.047-.017-.053-.042a8.508 8.508 0 0 0-1.821-3.651 10.914 10.914 0 0 0-3.303-2.604.995.995 0 0 1 .055.27.96.96 0 0 1-.14.493 1.01 1.01 0 0 1 .738.97zm-16.209 3.98a4.51 4.51 0 0 0 3.473-2.38c.077-.163.218-.461.338-.781a.99.99 0 0 1-.48.123 1.03 1.03 0 0 1-1.03-1.03 1.01 1.01 0 0 1 .738-.97 1.031 1.031 0 0 1-.08-.187 10.663 10.663 0 0 0-4.611 4.996 3.012 3.012 0 0 0 1.652.23z"/><path class="cls-4" d="m65.997 29.975-.808 2.17c-.029.095-1.475 6.202-1.682 7.066l-.874-.31a46.263 46.263 0 0 0-4.059-1.193 33.87 33.87 0 0 0-1.71-.395.113.113 0 0 0-.066-.065.076.076 0 0 0-.084.037 33.17 33.17 0 0 0-3.148-.488 27.812 27.812 0 0 0-3.288-.198c-.33 0-.649.01-.959.02a21.863 21.863 0 0 0-4.35.572 16.185 16.185 0 0 0-1.654.508c-.272.103-.516.197-.733.29a.072.072 0 0 0-.047.02c-.366.16-.638.3-.826.404v.01q-.127.07-.198.112l-.394-1.41-1.55-5.628-1.015-2.724h.065a.842.842 0 0 1 .846.845.733.733 0 0 1-.028.226.071.071 0 0 0 .01.084.085.085 0 0 0 .074.038h.038a.836.836 0 0 1 .244 1.635.093.093 0 0 0-.065.066.131.131 0 0 0 .028.084 8.484 8.484 0 0 0 1.221.893c.094.056.197.094.291.14a.113.113 0 0 0 .047.048c.02 0 .029.01.038.01l.01-.01a3.287 3.287 0 0 0 1.794.263 4.677 4.677 0 0 0 3.617-2.48 7.978 7.978 0 0 0 .451-1.11.079.079 0 0 0-.037-.103.102.102 0 0 0-.122.019.826.826 0 0 1-.602.263.84.84 0 0 1-.836-.846.819.819 0 0 1 .714-.808.097.097 0 0 0 .075-.056.103.103 0 0 0-.009-.094.823.823 0 0 1-.188-.498.846.846 0 1 1 1.691 0 .9.9 0 0 1-.056.244.096.096 0 0 0 .019.085.116.116 0 0 0 .075.037c.019 0 .037-.009.056-.009a.84.84 0 0 1 0 1.682.771.771 0 0 1-.404-.122.087.087 0 0 0-.112.019.086.086 0 0 0-.02.103 4.233 4.233 0 0 0 2.942 2.32 6.66 6.66 0 0 0 5.459-.657 9.377 9.377 0 0 0 1.324-1.503.12.12 0 0 0 0-.113.123.123 0 0 0-.112-.028.759.759 0 0 1-.301.066.841.841 0 1 1 0-1.682c.01 0 .037.018.056.01a.116.116 0 0 0 .075-.038.133.133 0 0 0 .01-.085.75.75 0 0 1-.047-.244.84.84 0 1 1 1.682 0 .81.81 0 0 1-.179.498.087.087 0 0 0-.01.094.1.1 0 0 0 .067.056.829.829 0 0 1 .723.817.848.848 0 0 1-.846.846.828.828 0 0 1-.582-.254.087.087 0 0 0-.113-.018.094.094 0 0 0-.047.103 6.727 6.727 0 0 0 2.753 4.134 3.637 3.637 0 0 0 2.828.395 5.807 5.807 0 0 0 1.654-1.184.09.09 0 0 0 .019-.085.082.082 0 0 0-.057-.075.831.831 0 0 1 .216-1.635h.038a.085.085 0 0 0 .075-.037.092.092 0 0 0 .01-.085.732.732 0 0 1-.029-.226.84.84 0 0 1 .912-.836z"/><path class="cls-7" d="M48.08 27.55a1.03 1.03 0 0 1-.07 2.057.87.87 0 0 1-.237-.033 4.066 4.066 0 0 0 2.688 1.988 6.504 6.504 0 0 0 5.316-.63 9.686 9.686 0 0 0 1.11-1.242.893.893 0 0 1-.099.005 1.03 1.03 0 0 1-.072-2.058.722.722 0 0 1-.021-.17 1.02 1.02 0 0 1 .56-.902 13.461 13.461 0 0 0-9.348.244 1 1 0 0 1 .196.57.716.716 0 0 1-.022.17z"/><path class="cls-9" d="M38.161 62.208a10.24 10.24 0 0 1-2.104.808l-6.944-31.279 3.28 3.965z"/><path class="cls-6" d="M42.671 77.062a1.105 1.105 0 0 0-.065.188h-2.622a2.006 2.006 0 0 0 1.156-1.813 1.74 1.74 0 0 0-.46-1.222 1.562 1.562 0 0 0 .225-.714.876.876 0 0 0-.019-.216 32.457 32.457 0 0 0 1.626 3.75.099.099 0 0 0 .084.046c.01 0 .028-.01.038-.01l.028-.027c.01.009.01.009.01.018z"/><path class="cls-1" d="m31.782 34.969-3.345 4.755-.348-1.607 2.894-4.115.799.967zm2.565 9.716-3.683 5.233-.357-1.607 3.692-5.242.348 1.616zm2.518 11.566-3.683 5.233-.357-1.597 3.692-5.243.348 1.607z"/><path class="cls-8" d="m30.299 37.077 1.483-2.108-.799-.967-1.039 1.477.355 1.598zm1.898 8.551.356 1.605 1.794-2.548-.06-.279-.291-1.334-1.799 2.556zm2.557 11.519.355 1.599 1.756-2.495-.012-.055-.337-1.55-1.762 2.501z"/><path d="M43.773 35.174c.189-.035.288-.36.222-.729s-.274-.639-.463-.605-.289.36-.222.729.274.639.463.605zm-.199.854c.066.368.274.639.463.605s.288-.36.221-.729-.273-.639-.462-.604-.289.36-.222.728zm1.286-.605c.368-.066.639-.273.605-.463s-.36-.288-.729-.221-.639.274-.605.463.36.288.729.221zm-2 .362c.368-.066.639-.274.605-.463s-.36-.288-.729-.221-.639.273-.604.462.36.289.728.222zm9.134-1.365c.192.01.364-.285.384-.658s-.12-.685-.31-.695-.365.284-.385.657.12.685.311.695zm-.007.127c-.192-.01-.364.284-.384.658s.12.685.311.695.364-.284.384-.657-.119-.685-.31-.696zm1.007.367c.374.02.685-.12.695-.311s-.284-.364-.657-.384-.685.119-.696.31.285.364.658.385zm-2.029-.11c.373.02.685-.12.695-.311s-.284-.364-.658-.384-.684.12-.695.311.284.364.658.384zm9.427 1.046c.187.046.41-.212.499-.575s.01-.695-.177-.741-.41.212-.499.575-.01.695.177.741z"/><ellipse cx="60.2" cy="36.633" rx=".677" ry=".348" transform="rotate(-76.249 60.2 36.633)"/><ellipse cx="61.366" cy="36.183" rx=".348" ry=".677" transform="rotate(-76.249 61.366 36.183)"/><path d="M59.31 36.038c.363.088.694.01.74-.177s-.212-.41-.575-.5-.695-.009-.74.178.211.41.574.499zm-14.54 6.676a.913.913 0 0 0-1.744 0 1.099 1.099 0 0 0 0 .809.913.913 0 0 0 1.743 0 1.099 1.099 0 0 0 0-.81zm7.454-.936a1.263 1.263 0 1 0 1.14 1.257 1.204 1.204 0 0 0-1.14-1.257zM48.859 83.97a2.962 2.962 0 0 0 2.642-1.657 2.961 2.961 0 0 0 2.643 1.656 3.013 3.013 0 0 0 .1-6.022 3.04 3.04 0 0 0 .233-1.17 2.976 2.976 0 1 0-5.952 0 3.04 3.04 0 0 0 .233 1.17 3.013 3.013 0 0 0 .1 6.022z"/><path d="M49.327 86.211h4.349l-2.175-2.264-2.174 2.264zm5.628-44.449a7.819 7.819 0 0 0-2.72-.432 10.434 10.434 0 0 0-1.857.158.176.176 0 0 0-.114.077.37.37 0 0 0-.026.13.18.18 0 0 0 .197.142h.013a10.466 10.466 0 0 1 1.787-.15 7.485 7.485 0 0 1 2.598.41.325.325 0 0 0 .06.01.178.178 0 0 0 .062-.345zm-8.976-.091a9.349 9.349 0 0 0-1.48-.13 2.933 2.933 0 0 0-2.16.587.18.18 0 0 0 .013.253.374.374 0 0 0 .12.045.392.392 0 0 0 .132-.056 2.757 2.757 0 0 1 1.901-.473 9.186 9.186 0 0 1 1.449.13.172.172 0 0 0 .171-.15.18.18 0 0 0-.146-.206z"/><path d="M77.23 77.166h-.47c.693-8.729-1.195-12.561-7.458-15.166-2.905-1.209-5.296-4.067-6.446-5.441l-.046-.033c-.056-.47-.126-.938-.215-1.404a3.024 3.024 0 0 0 1.552-.708 7.834 7.834 0 0 0 2.57-4.77l.017-.097a.097.097 0 0 0 0-.056c.394-2.937-.612-6.373-2.98-10.15 0 0 1.679-7.055 1.69-7.111l.848-2.273a.178.178 0 0 0-.013-.154.358.358 0 0 0-.129-.086 1.527 1.527 0 0 0-.222-.02 1.118 1.118 0 0 0-1.118 1.118c0 .03.001.06.003.089a1.114 1.114 0 0 0-.933 1.095 1.085 1.085 0 0 0 .544.946c-.12.107-.244.21-.369.307a8.795 8.795 0 0 0-1.846-3.629 10.963 10.963 0 0 0-3.573-2.761 1.091 1.091 0 0 0-.912-.508.783.783 0 0 0-.217.038.215.215 0 0 0-.056-.051 13.32 13.32 0 0 0-9.595.248 1.106 1.106 0 0 0-.784-.323 1.045 1.045 0 0 0-1.056 1.151 11.059 11.059 0 0 0-4.739 5.066l-.003-.002a1.449 1.449 0 0 1-.147-.073 8.454 8.454 0 0 1-.972-.677 1.096 1.096 0 0 0 .51-.928 1.114 1.114 0 0 0-.933-1.094l.003-.09a1.118 1.118 0 0 0-1.118-1.117 1.428 1.428 0 0 0-.222.02.173.173 0 0 0-.128.086.361.361 0 0 0-.014.153l1.052 2.817 1.977 7.153a.18.18 0 0 0 .097.114c-.93 1.982-4.586 10.465-1.075 14.306a3.015 3.015 0 0 0 .686.51 17.425 17.425 0 0 0-1.936 5.686.193.193 0 0 0-.04.018 8.3 8.3 0 0 1-1.05.673l-5.351-24.495-3.408-4.126a.181.181 0 0 0-.153-.06h-.026a.181.181 0 0 0-.131.13l-1.344 5.446 5.462 25.09a5.497 5.497 0 0 0-1.205.76l-.382.296a1.658 1.658 0 0 0-.735-1.062 1.446 1.446 0 0 0-.756-.216 1.397 1.397 0 0 0-.359.046 1.672 1.672 0 0 0-1.13 1.994 1.646 1.646 0 0 0 .733 1.062 1.372 1.372 0 0 0 .258.126c-1.574 2.03-3.252 5.755-2.542 12.137H25.77a.178.178 0 0 0-.178.178v5.28a.178.178 0 0 0 .178.178h16.77a9.392 9.392 0 0 0 17.92 0h16.77a.178.178 0 0 0 .177-.178v-5.28a.178.178 0 0 0-.178-.178zM29.666 62.192a1.069 1.069 0 0 1 .839.129 1.355 1.355 0 0 1-.301 2.407 1.112 1.112 0 0 1-.269.034 1.09 1.09 0 0 1-.569-.163 1.296 1.296 0 0 1-.572-.834 1.314 1.314 0 0 1 .872-1.573zm3.425.188.193.89a9.744 9.744 0 0 1-1.368-.122l.108-.083a5.494 5.494 0 0 1 1.067-.685zm.561.899-5.748-26.362 1.25-5 3.151 3.8 5.757 26.446a9.965 9.965 0 0 1-4.41 1.116zm5.19-1.571-.166.106c-.095.06-.19.122-.286.18l-.346-1.592a9.132 9.132 0 0 0 .935-.574 12.929 12.929 0 0 0-.137 1.88zm.53-31.734a.202.202 0 0 0 .185.077.748.748 0 0 1 .22 1.465.18.18 0 0 0-.097.077l-.035-.125-.975-2.609a.763.763 0 0 1 .709.76.56.56 0 0 1-.027.191.358.358 0 0 0 .02.164zm1.574 2.74a2.172 2.172 0 0 0 .206.104l.043-.006a.178.178 0 0 0 .105.1.26.26 0 0 0 .038-.004 3.397 3.397 0 0 0 1.385.303 3.215 3.215 0 0 0 .457-.032 4.785 4.785 0 0 0 3.687-2.542 9.064 9.064 0 0 0 .45-1.102.176.176 0 0 0-.08-.206.17.17 0 0 0-.09-.025.373.373 0 0 0-.13.056.744.744 0 0 1-.543.24.76.76 0 0 1-.758-.758.746.746 0 0 1 .647-.732.18.18 0 0 0 .14-.11.365.365 0 0 0-.023-.175.736.736 0 0 1-.166-.446.758.758 0 0 1 1.517 0 .818.818 0 0 1-.048.22.358.358 0 0 0 .03.164.169.169 0 0 0 .148.059.472.472 0 0 0 .048-.003.758.758 0 0 1 0 1.517 1.09 1.09 0 0 1-.447-.133.37.37 0 0 0-.122.05.177.177 0 0 0-.036.21 4.352 4.352 0 0 0 2.994 2.365 9.72 9.72 0 0 0 2.216.28 5.81 5.81 0 0 0 3.314-.95 10.001 10.001 0 0 0 1.34-1.524.179.179 0 0 0-.004-.216.172.172 0 0 0-.15-.058.432.432 0 0 0-.058.004.712.712 0 0 1-.268.06.753.753 0 1 1 .035-1.506h.019a.357.357 0 0 0 .14-.072.188.188 0 0 0 .027-.17.734.734 0 0 1-.043-.208.758.758 0 0 1 1.516 0 .736.736 0 0 1-.167.447.185.185 0 0 0-.021.175.37.37 0 0 0 .139.108.747.747 0 0 1 .647.732.76.76 0 0 1-.758.759.748.748 0 0 1-.526-.226.141.141 0 0 0-.115-.041.689.689 0 0 0-.102.01.177.177 0 0 0-.083.2 6.775 6.775 0 0 0 2.796 4.18 3.666 3.666 0 0 0 1.892.534 3.95 3.95 0 0 0 .993-.13 5.691 5.691 0 0 0 1.694-1.2.165.165 0 0 0 .03-.039l-1.46 6.123a41.18 41.18 0 0 0-6.5-1.81.17.17 0 0 0-.13-.124.425.425 0 0 0-.034-.004l-.051.04a33.015 33.015 0 0 0-6.447-.69 19.33 19.33 0 0 0-7.78 1.421c-.364.16-.64.303-.838.414l-.1.06-1.81-6.552a8.24 8.24 0 0 0 1.194.86zm5.005-4.84c.036-.023.07-.044.107-.065l.005.014a1.005 1.005 0 0 0-.112.05zm-.59.968a1.116 1.116 0 0 0 1.113 1.114 1.063 1.063 0 0 0 .328-.05c-.095.23-.193.44-.262.587a4.425 4.425 0 0 1-3.41 2.334 3.093 3.093 0 0 1-.418.03 2.905 2.905 0 0 1-1.112-.223 10.516 10.516 0 0 1 4.21-4.675 1.085 1.085 0 0 0-.45.883zm11.25-1.374a.68.68 0 0 0 .006.096 1.115 1.115 0 0 0 .094 2.213 9.27 9.27 0 0 1-.98 1.084 5.474 5.474 0 0 1-3.122.89 9.25 9.25 0 0 1-2.129-.272 3.974 3.974 0 0 1-2.539-1.79.773.773 0 0 0 .068.003 1.115 1.115 0 0 0 .172-2.216.691.691 0 0 0 .006-.096 1.033 1.033 0 0 0-.153-.53 13.835 13.835 0 0 1 4.94-.922 12.692 12.692 0 0 1 4.088.659 1.097 1.097 0 0 0-.452.88zm6.476 6.402a3.616 3.616 0 0 1-.899.118 3.33 3.33 0 0 1-1.713-.483 6.252 6.252 0 0 1-2.509-3.521 1.07 1.07 0 0 0 .356.061 1.116 1.116 0 0 0 1.114-1.115 1.088 1.088 0 0 0-.702-1.017 1.023 1.023 0 0 0 .104-.445.59.59 0 0 0-.01-.107 10.792 10.792 0 0 1 3.11 2.495 8.423 8.423 0 0 1 1.803 3.613.031.031 0 0 0 .006.014 2.901 2.901 0 0 1-.66.387zm1.94-2.624a.175.175 0 0 0 .145-.076.35.35 0 0 0 .021-.165.557.557 0 0 1-.027-.19.767.767 0 0 1 .705-.752l-.769 2.063-.179.753a.162.162 0 0 0-.005-.035.358.358 0 0 0-.124-.128.743.743 0 0 1-.558-.718.754.754 0 0 1 .79-.752zm-28.94 45.607c0 .095-.003.201-.009.313h-.158l.167-.313zm-6.155-11.734a1.425 1.425 0 0 0 .36-.046 1.169 1.169 0 0 0 .592-.346 11.488 11.488 0 0 0 2.608.319 9.203 9.203 0 0 0 1.364-.108 3.374 3.374 0 0 0-.602.543 6.258 6.258 0 0 0-1.072 2.403l-1.71 6.023c-.345.056-1.77.454-2.137 3.259h-2.09c-.722-6.403.997-10.089 2.584-12.062l.103.015zm1.424 9.191-.246.855a2.72 2.72 0 0 0 .564 2h-1.978c.29-2.107 1.215-2.694 1.66-2.855zm6.528-.528a1.11 1.11 0 0 1 .148-.436.535.535 0 0 1 .462-.231.696.696 0 0 1 .118.01.647.647 0 0 1 .397.231 2.069 2.069 0 0 0-1.125.426zm-.841 1.914a2.268 2.268 0 0 0 .956 1.47h-1.565a3.462 3.462 0 0 0-.02-.837 4.538 4.538 0 0 1 .49-.502l.139-.131zm2.047 1.47a1.893 1.893 0 0 1-1.742-1.786 1.835 1.835 0 0 0 .379-.64c.05-.148.073-.297.115-.449a1.733 1.733 0 0 1 1.294-.582l.009-.001c.005.036.01.073.013.114a1.408 1.408 0 0 0 .081.414.755.755 0 0 0 .465.434.865.865 0 0 0 .283.048.814.814 0 0 0 .408-.106.949.949 0 0 0 .157-.115 1.446 1.446 0 0 1 .316.943 1.72 1.72 0 0 1-1.678 1.726zm-1.12-12.804a4.056 4.056 0 0 0-.24-.167 11.76 11.76 0 0 0 1.071-.493c.018.435.048.878.088 1.326zm-6.5 10.864 2.06-7.245a5.94 5.94 0 0 1 .998-2.267 5.13 5.13 0 0 1 1.916-1.213 1.644 1.644 0 0 1 .619-.178l.062.004a1.461 1.461 0 0 1 .638.324l2.04 1.48a1.565 1.565 0 0 1 .494.48.703.703 0 0 1-.081.543 16.01 16.01 0 0 0-1.073-.807 2.428 2.428 0 0 0-1.136-.495 1.747 1.747 0 0 0-.118-.004 2.75 2.75 0 0 0-.775.15l-1.595.466a.176.176 0 0 0 .077.342l.024-.001 1.595-.466a2.514 2.514 0 0 1 .747-.13h.017a2.123 2.123 0 0 1 .962.433 16.339 16.339 0 0 1 1.644 1.283 1.568 1.568 0 0 1 .437.523 1.534 1.534 0 0 1-.252 1.324 5.117 5.117 0 0 0-.759-.76l-.705-.61a4.16 4.16 0 0 0-.641-.486 1.471 1.471 0 0 0-.745-.19 4.03 4.03 0 0 0-1.244.279 6.928 6.928 0 0 1-.707.21.178.178 0 0 0-.136.21.176.176 0 0 0 .197.138h.016a7.29 7.29 0 0 0 .743-.22 3.734 3.734 0 0 1 1.128-.261 1.124 1.124 0 0 1 .57.144 3.853 3.853 0 0 1 .585.445l.706.611a3.415 3.415 0 0 1 .94 1.086c.178.388.27 1.043-.154 1.346a3.17 3.17 0 0 0-.982-1.37 1.237 1.237 0 0 0-.752-.221 4.039 4.039 0 0 0-1.721.53.18.18 0 0 0-.073.242.163.163 0 0 0 .164.08.483.483 0 0 0 .077-.007 3.813 3.813 0 0 1 1.551-.49.892.892 0 0 1 .54.152 3.581 3.581 0 0 1 1.079 1.801 2.967 2.967 0 0 1 .188 1.058.99.99 0 0 1-.415.812.493.493 0 0 1-.397.032.404.404 0 0 1-.25-.23 1.113 1.113 0 0 1-.057-.317 2.006 2.006 0 0 0-.038-.28.982.982 0 0 0-.8-.732 1.1 1.1 0 0 0-.188-.018.894.894 0 0 0-.755.396 2.042 2.042 0 0 0-.247.922 2.74 2.74 0 0 1-.098.555 2.33 2.33 0 0 1-.726.935 4.594 4.594 0 0 0-.556.576 4.783 4.783 0 0 0-.409.686c-.054.106-.109.21-.174.34h-3.42l-.018-.048a2.395 2.395 0 0 1-.617-1.892zm9.756.214a1.81 1.81 0 0 0-.445-1.233 1.505 1.505 0 0 0 .182-.477 30.878 30.878 0 0 0 1.475 3.342.141.141 0 0 0 .113.074l-.007.02h-2.241a2.094 2.094 0 0 0 .923-1.726zm1.454 1.326a34.479 34.479 0 0 1-1.944-4.742 1.442 1.442 0 0 0 .307-1.804.99.99 0 0 0-.063-.114 1.993 1.993 0 0 0 .37-1.8 1.887 1.887 0 0 0-.528-.649c-.086-.076-.33-.275-.33-.275a1.042 1.042 0 0 0 .12-.939 1.878 1.878 0 0 0-.6-.602l-.737-.5c-.065-.634-.107-1.265-.169-1.8a12.302 12.302 0 0 0 1.73-1.163 32.681 32.681 0 0 0 3.21 11.919 9.393 9.393 0 0 0-1.366 2.469zm.19-24.022a1.466 1.466 0 0 1-.542.454.69.69 0 0 1-.259.045l-.03-.001c-.029 0-.05.001-.048.013-2.178-1.83-1.372-6.277-.698-8.76-.205 3.435.325 6.207 1.578 8.25zm7.51 2.454a4.77 4.77 0 0 0 3.76-.574 3.498 3.498 0 0 0 .529-.409c.162 1.43.128 5.316-1.868 7.508a5.385 5.385 0 0 1-1.422 1.095c-2.008-1.521-1.138-6.846-1-7.62zm-1.072-.418a4.435 4.435 0 0 0 .745.32c-.129.673-1.071 5.962.94 7.828a5.303 5.303 0 0 1-1.785.293 7.74 7.74 0 0 1-.619-.026c-3.708-1.444-2.623-8.066-2.631-8.282a4.274 4.274 0 0 0 .648-.28 2.918 2.918 0 0 0 1.288-1.312 3.16 3.16 0 0 0 1.414 1.46zm5.439-1.19a2.71 2.71 0 0 1-.798.733 4.414 4.414 0 0 1-2.366.677 4.359 4.359 0 0 1-2.103-.533 2.688 2.688 0 0 1-1.33-1.479 2.148 2.148 0 0 1 .471-1.961 1.206 1.206 0 0 1 .891-.429 1.144 1.144 0 0 1 .236.026 6.283 6.283 0 0 1 3.256 2.268 3.55 3.55 0 0 0 .478.484 1.314 1.314 0 0 0 .34.206 1.214 1.214 0 0 0 .436.076 1.967 1.967 0 0 0 .489-.069zm-11.182 1.464a4.212 4.212 0 0 0 2.082-.045c-.184 1.272-.674 6.041 1.913 7.985a4.811 4.811 0 0 1-2.75-1.728c-1.636-2.14-1.353-5.374-1.245-6.212zm7.558 8.211a4.783 4.783 0 0 0 1.942-1.302c1.742-1.912 2.002-4.934 2.03-6.21.463-.145 1.764-.741 2.87-3.027.07.105.14.206.214.306a4.808 4.808 0 0 0 1.969 1.581 17.663 17.663 0 0 1 .213 6.716c-.006 0-.045 0-.058.002a35.366 35.366 0 0 1-9.18 1.934zm3.975-7.896a6.713 6.713 0 0 0-.14-1.477 2.125 2.125 0 0 0 .315-.538.175.175 0 0 0-.039-.187.343.343 0 0 0-.128-.056l-.06.01a2.534 2.534 0 0 1-.785.181.785.785 0 0 1-.093-.004 6.202 6.202 0 0 0 2.783-2.72 7.345 7.345 0 0 0 .812 1.745 5.42 5.42 0 0 1-2.665 3.046zm-1.418-2.293a3.46 3.46 0 0 1-.417-.43 6.587 6.587 0 0 0-3.438-2.37 1.501 1.501 0 0 0-.317-.036 1.552 1.552 0 0 0-1.15.544 2.363 2.363 0 0 0-.476.8 2.135 2.135 0 0 0-.398-.644 1.533 1.533 0 0 0-.68-.44 2.044 2.044 0 0 0 .499.07 7.324 7.324 0 0 0 2.61-.671.18.18 0 0 0 .095-.235.178.178 0 0 0-.186-.098.426.426 0 0 0-.046.003 7.078 7.078 0 0 1-2.473.643 1.253 1.253 0 0 1-.86-.259c-.611-.554-.186-1.977.072-2.842l.08-.27a44.182 44.182 0 0 0 .82-4.57.182.182 0 0 0-.167-.2.186.186 0 0 0-.188.156 44.693 44.693 0 0 1-.809 4.517l-.082.279c-.296.991-.743 2.49.035 3.194a1.272 1.272 0 0 0 .428.241 1.308 1.308 0 0 0-.216-.024 1.405 1.405 0 0 0-.294.032 5.919 5.919 0 0 0-2.997 2c-3.12-5.234-.493-13.916-.425-14.234a18.923 18.923 0 0 1 7.57-1.361 32.584 32.584 0 0 1 6.296.657c-.23 1.454-1.132 7.909.244 12.571-.015.028-1.457 2.79-3.13 2.977zm-11.223.456a2.052 2.052 0 0 0 .77-.652 5.727 5.727 0 0 1 2.972-2.065 1.002 1.002 0 0 1 .214-.024 1.1 1.1 0 0 1 .808.389 1.96 1.96 0 0 1 .43 1.788 2.447 2.447 0 0 1-1.215 1.35 4.068 4.068 0 0 1-4.092-.131 2.511 2.511 0 0 1-.706-.638 1.8 1.8 0 0 0 .415.054 1.112 1.112 0 0 0 .404-.071zm.758 1.441c-.11.834-.428 4.233 1.312 6.51A4.987 4.987 0 0 0 46.7 63.1a13.533 13.533 0 0 1-4.151-1.235 1.715 1.715 0 0 0 .664-1.774 1.66 1.66 0 0 0-.736-1.062 1.43 1.43 0 0 0-1.113-.17 1.335 1.335 0 0 0-.171.058 12.178 12.178 0 0 1 1.126-4.336 4.347 4.347 0 0 0 .896.392zm-1.492 4.197a1.082 1.082 0 0 1 .568.164 1.295 1.295 0 0 1 .574.834 1.314 1.314 0 0 1-.874 1.572 1.077 1.077 0 0 1-.837-.128 1.297 1.297 0 0 1-.573-.834 1.315 1.315 0 0 1 .873-1.573 1.08 1.08 0 0 1 .27-.035zm-.478 2.867a1.36 1.36 0 0 0 .475.095.87.87 0 0 0 .397-.088 15.707 15.707 0 0 0 7.536 1.625 33.37 33.37 0 0 0 10.657-1.98 37.453 37.453 0 0 1-2.509 8.447 29.858 29.858 0 0 1-4.085.678.3.3 0 0 0-.074.036 9.407 9.407 0 0 0-2.14-.256 8 8 0 0 0-2.392.352.354.354 0 0 0-.094-.04 30.772 30.772 0 0 1-6.33-1.005 27.624 27.624 0 0 1-1.491-7.81l.05-.054zm6.94 9.168a8.49 8.49 0 0 0-2.333 1.328 40.836 40.836 0 0 1-2.405-.514q-.345-.89-.635-1.745a27.938 27.938 0 0 0 5.373.93zm9.403-.656c-.258.588-.52 1.155-.78 1.697a9.329 9.329 0 0 0-2.336-1.163 30.475 30.475 0 0 0 3.116-.534zm.889-32.596c.63.157 1.324.35 2.118.59.053.758.801 9.998 5.745 11.178a7.574 7.574 0 0 1-1.642 3.624c-7.792-1.88-6.392-14.098-6.221-15.392zM45.443 72.818a9.558 9.558 0 0 0-1.18 1.195 53.148 53.148 0 0 1-.673-1.623 24.76 24.76 0 0 0 1.853.428zm13.504 1.465A9.454 9.454 0 0 0 57.1 72.46c2.327-4.821 4.788-11.754 3.459-17.635a5.07 5.07 0 0 0 1.273.322 3.177 3.177 0 0 0 .323.018.982.982 0 0 0 .085-.006c.085.437.156.872.23 1.247a.151.151 0 0 0-.007.217c.804 6.87-1.827 13.962-3.515 17.66zm3.224-19.474a2.561 2.561 0 0 1-.301-.018 4.771 4.771 0 0 1-3.405-1.973c-3.14-4.197-1.78-13.755-1.548-15.22q.601.126 1.228.276a27.502 27.502 0 0 0 .036 7.066c.702 4.786 2.867 7.786 6.263 8.687a6.683 6.683 0 0 1-.53.518 2.63 2.63 0 0 1-1.743.664zm4.216-5.426c-4.445-1.108-5.341-9.554-5.445-10.735.938.288 1.745.556 2.494.811 2.32 3.744 3.312 7.082 2.95 9.924zM41.85 38.651c.116-.067.268-.148.456-.238a30.877 30.877 0 0 0-.868 4.45c-.276.759-2.559 7.34-.057 10.241l-.11-.032a.364.364 0 0 0-.128.055.179.179 0 0 0-.039.187l.001.002a2.743 2.743 0 0 1-.538-.406c-3.672-4.017 1.112-13.878 1.283-14.26zm-.54 15.169c.03.014.06.03.095.043l.028-.003a2.9 2.9 0 0 0 .579.53 11.98 11.98 0 0 0-1.174 4.73 1.588 1.588 0 0 0-.592 1.56 10.797 10.797 0 0 1-1.07.815 17.722 17.722 0 0 1 2.133-7.675zm-.406 8.05a11.823 11.823 0 0 1-3.625 2.126.832.832 0 0 0-.116-.025.89.89 0 0 0-.11-.007 1.958 1.958 0 0 0-.755.21 3.176 3.176 0 0 0-.55.285.806.806 0 0 0-.106-.014 9.71 9.71 0 0 1-2.14.242 10.9 10.9 0 0 1-2.326-.266 1.739 1.739 0 0 0 .285-.98 10.334 10.334 0 0 0 2.021.204 10.636 10.636 0 0 0 6.826-2.55 1.622 1.622 0 0 0 .596.774zM51.5 70.95a9.09 9.09 0 0 1 7.303 3.715c.007.069.041.123.077.123a9.03 9.03 0 1 1-7.38-3.838zm24.9 6.216H65.72a13.275 13.275 0 0 1-.118-4.04.2.2 0 0 0-.165-.2h-.012a.179.179 0 0 0-.177.157 13.696 13.696 0 0 0 .11 4.083H60.46a8.065 8.065 0 0 0-1.29-2.511c1.662-3.595 4.33-10.613 3.697-17.527 1.13 1.341 3.481 4.03 6.298 5.202 5.282 2.198 8.002 5.217 7.235 14.836z"/><path class="cls-1" d="M60.69 78.16a1.111 1.111 0 0 1 .05.25h14.82v3.15H60.75a2.223 2.223 0 0 1-.05.25h15.11v-3.65zm-33.25 3.4v-3.15h14.82a2.179 2.179 0 0 1 .04-.25H27.19v3.65H42.3a2.223 2.223 0 0 1-.05-.25z"/><ellipse class="cls-1" cx="51.5" cy="80.014" rx="8.828" ry="9.121"/><path d="M48.026 78.71a4.005 4.005 0 0 1 3.374 2.324 4.005 4.005 0 0 1-3.374 2.323 2.327 2.327 0 1 1 0-4.647zm7.118 0a4.005 4.005 0 0 0-3.375 2.324 4.005 4.005 0 0 0 3.375 2.323 2.327 2.327 0 1 0 0-4.647zm-5.819 7.227h4.52l-2.26-2.354-2.26 2.354zm-.064-9.365a4.005 4.005 0 0 0 2.324 3.375 4.005 4.005 0 0 0 2.323-3.375 2.327 2.327 0 1 0-4.647 0z"/></g></g></svg>