<svg xmlns="http://www.w3.org/2000/svg" viewBox="0 0 103 160"><path fill="#fff" d="M0 0h103v160H0z"/><path d="M10.914 10.357H8.69a7.342 7.342 0 0 1 2.326-4.148 6.09 6.09 0 0 1 4.06-1.452 6.708 6.708 0 0 1 3.177.778 5.755 5.755 0 0 1 2.28 2.096 5.2 5.2 0 0 1 .808 2.755 4.996 4.996 0 0 1-2.8 4.46 6.35 6.35 0 0 1 2.578 1.866 5.964 5.964 0 0 1 1.422 3.881 6.925 6.925 0 0 1-.978 3.533 6.781 6.781 0 0 1-2.666 2.6 7.776 7.776 0 0 1-3.777.919 6.937 6.937 0 0 1-4.696-1.623 7.94 7.94 0 0 1-2.46-4.762H10.1a6.184 6.184 0 0 0 1.614 3.066 4.976 4.976 0 0 0 3.437 1.2 5.176 5.176 0 0 0 3.807-1.422 4.542 4.542 0 0 0 1.437-3.333 4.313 4.313 0 0 0-.718-2.385 4.525 4.525 0 0 0-1.926-1.674 10.687 10.687 0 0 0-3.74-.696v-2a6.862 6.862 0 0 0 2.726-.526 3.972 3.972 0 0 0 1.785-1.34 3.09 3.09 0 0 0 .555-1.778 3.227 3.227 0 0 0-1.133-2.46 4.083 4.083 0 0 0-2.866-1.036 3.848 3.848 0 0 0-2.43.792 5.98 5.98 0 0 0-1.733 2.689zM9.14 38.345a6.88 6.88 0 0 1 5.797 3.992 6.88 6.88 0 0 1-5.796 3.99 3.997 3.997 0 1 1 0-7.982zm12.227 0a6.88 6.88 0 0 0-5.796 3.992 6.88 6.88 0 0 0 5.796 3.99 3.997 3.997 0 1 0 0-7.982zm-9.995 12.414h7.763l-3.881-4.043-3.882 4.043zm-.109-16.085a6.88 6.88 0 0 0 3.99 5.796 6.88 6.88 0 0 0 3.992-5.796 4.089 4.089 0 0 0-3.991-4.208 4.089 4.089 0 0 0-3.991 4.208zm80.824 114.969h2.222a7.342 7.342 0 0 1-2.326 4.148 6.09 6.09 0 0 1-4.06 1.452 6.708 6.708 0 0 1-3.177-.778 5.755 5.755 0 0 1-2.28-2.096 5.2 5.2 0 0 1-.808-2.756 4.996 4.996 0 0 1 2.8-4.458 6.35 6.35 0 0 1-2.578-1.867 5.964 5.964 0 0 1-1.422-3.881 6.925 6.925 0 0 1 .978-3.533 6.781 6.781 0 0 1 2.666-2.6 7.776 7.776 0 0 1 3.778-.919 6.937 6.937 0 0 1 4.696 1.623 7.94 7.94 0 0 1 2.459 4.762H92.9a6.184 6.184 0 0 0-1.614-3.066 4.976 4.976 0 0 0-3.437-1.2 5.176 5.176 0 0 0-3.807 1.422 4.542 4.542 0 0 0-1.437 3.333 4.313 4.313 0 0 0 .718 2.385 4.525 4.525 0 0 0 1.926 1.674 10.687 10.687 0 0 0 3.74.696v2a6.862 6.862 0 0 0-2.726.526 3.972 3.972 0 0 0-1.785 1.34 3.09 3.09 0 0 0-.555 1.778 3.227 3.227 0 0 0 1.133 2.46 4.083 4.083 0 0 0 2.867 1.036 3.848 3.848 0 0 0 2.429-.792 5.98 5.98 0 0 0 1.734-2.689zm1.773-27.988a6.88 6.88 0 0 1-5.797-3.992 6.88 6.88 0 0 1 5.796-3.99 3.997 3.997 0 1 1 0 7.982zm-12.227 0a6.88 6.88 0 0 0 5.796-3.992 6.88 6.88 0 0 0-5.796-3.99 3.997 3.997 0 1 0 0 7.982zm9.995-12.414h-7.763l3.881 4.043 3.882-4.043zm.109 16.085a6.88 6.88 0 0 0-3.99-5.796 6.88 6.88 0 0 0-3.992 5.796 3.997 3.997 0 1 0 7.982 0z"/><path d="M93.86 121.655a6.88 6.88 0 0 1-5.797-3.992 6.88 6.88 0 0 1 5.796-3.99 3.997 3.997 0 1 1 0 7.982zm-12.227 0a6.88 6.88 0 0 0 5.796-3.992 6.88 6.88 0 0 0-5.796-3.99 3.997 3.997 0 1 0 0 7.982zm9.995-12.414h-7.763l3.881 4.043 3.882-4.043zm.109 16.085a6.88 6.88 0 0 0-3.99-5.796 6.88 6.88 0 0 0-3.992 5.796 3.997 3.997 0 1 0 7.982 0zM46.963 38.93a5.106 5.106 0 0 1 4.302 2.962 5.106 5.106 0 0 1-4.302 2.963 2.966 2.966 0 1 1 0-5.925zm9.074 0a5.106 5.106 0 0 0-4.302 2.962 5.106 5.106 0 0 0 4.302 2.963 2.966 2.966 0 1 0 0-5.925zm-7.418 9.214h5.762L51.5 45.143l-2.881 3.001zm-.081-11.939a5.106 5.106 0 0 0 2.962 4.302 5.106 5.106 0 0 0 2.962-4.302 2.966 2.966 0 1 0-5.924 0zm-1.575 42.112a5.106 5.106 0 0 1 4.302 2.963 5.106 5.106 0 0 1-4.302 2.962 2.966 2.966 0 1 1 0-5.924zm9.074 0a5.106 5.106 0 0 0-4.302 2.963 5.106 5.106 0 0 0 4.302 2.962 2.966 2.966 0 1 0 0-5.924zm-7.418 9.214h5.762L51.5 84.53l-2.881 3.001zm-.081-11.939a5.106 5.106 0 0 0 2.962 4.302 5.106 5.106 0 0 0 2.962-4.302 2.966 2.966 0 1 0-5.924 0zm7.499 45.478a5.106 5.106 0 0 1-4.302-2.962 5.106 5.106 0 0 1 4.302-2.963 2.966 2.966 0 1 1 0 5.925zm-9.074 0a5.106 5.106 0 0 0 4.302-2.962 5.106 5.106 0 0 0-4.302-2.963 2.966 2.966 0 1 0 0 5.925zm7.418-9.214h-5.762l2.881 3.001 2.881-3.001zm.081 11.939a5.106 5.106 0 0 0-2.962-4.302 5.106 5.106 0 0 0-2.962 4.302 2.966 2.966 0 1 0 5.924 0z"/></svg>