<svg xmlns="http://www.w3.org/2000/svg" viewBox="0 0 103 160"><path fill="#fff" d="M0 0h103v160H0z"/><path d="M10.344 12.3h-2.14a7.67 7.67 0 0 1 2.208-5.423 7.1 7.1 0 0 1 5.228-2.12 6.654 6.654 0 0 1 6.89 6.681 7.31 7.31 0 0 1-.908 3.561 25.603 25.603 0 0 1-3.526 4.501l-5.562 5.989h10.3v2.155H7.674l8.527-9.218a27.418 27.418 0 0 0 3.378-4.124 5.546 5.546 0 0 0 .782-2.833 4.36 4.36 0 0 0-1.404-3.242 4.755 4.755 0 0 0-3.438-1.36 4.815 4.815 0 0 0-3.559 1.427 6.13 6.13 0 0 0-1.616 4.006zM9.14 38.345a6.88 6.88 0 0 1 5.797 3.992 6.88 6.88 0 0 1-5.796 3.99 3.997 3.997 0 1 1 0-7.982zm12.227 0a6.88 6.88 0 0 0-5.796 3.992 6.88 6.88 0 0 0 5.796 3.99 3.997 3.997 0 1 0 0-7.982zm-9.995 12.414h7.763l-3.881-4.043-3.882 4.043zm-.109-16.085a6.88 6.88 0 0 0 3.99 5.796 6.88 6.88 0 0 0 3.992-5.796 4.089 4.089 0 0 0-3.991-4.208 4.089 4.089 0 0 0-3.991 4.208zM92.656 147.7h2.14a7.67 7.67 0 0 1-2.208 5.423 7.1 7.1 0 0 1-5.228 2.12 6.654 6.654 0 0 1-6.89-6.681 7.31 7.31 0 0 1 .908-3.561 25.603 25.603 0 0 1 3.526-4.501l5.562-5.989h-10.3v-2.155h15.16l-8.527 9.218a27.418 27.418 0 0 0-3.378 4.124 5.546 5.546 0 0 0-.782 2.833 4.36 4.36 0 0 0 1.404 3.243 4.755 4.755 0 0 0 3.438 1.36 4.815 4.815 0 0 0 3.56-1.427 6.13 6.13 0 0 0 1.615-4.007zm1.204-26.045a6.88 6.88 0 0 1-5.797-3.992 6.88 6.88 0 0 1 5.796-3.99 3.997 3.997 0 1 1 0 7.982zm-12.227 0a6.88 6.88 0 0 0 5.796-3.992 6.88 6.88 0 0 0-5.796-3.99 3.997 3.997 0 1 0 0 7.982zm9.995-12.414h-7.763l3.881 4.043 3.882-4.043zm.109 16.085a6.88 6.88 0 0 0-3.99-5.796 6.88 6.88 0 0 0-3.992 5.796 3.997 3.997 0 1 0 7.982 0zM46.963 38.93a5.106 5.106 0 0 1 4.302 2.962 5.106 5.106 0 0 1-4.302 2.963 2.966 2.966 0 1 1 0-5.925zm9.074 0a5.106 5.106 0 0 0-4.302 2.962 5.106 5.106 0 0 0 4.302 2.963 2.966 2.966 0 1 0 0-5.925zm-7.418 9.214h5.762L51.5 45.143l-2.881 3.001zm-.081-11.939a5.106 5.106 0 0 0 2.962 4.302 5.106 5.106 0 0 0 2.962-4.302 2.966 2.966 0 1 0-5.924 0zm7.499 84.865a5.106 5.106 0 0 1-4.302-2.962 5.106 5.106 0 0 1 4.302-2.963 2.966 2.966 0 1 1 0 5.925zm-9.074 0a5.106 5.106 0 0 0 4.302-2.962 5.106 5.106 0 0 0-4.302-2.963 2.966 2.966 0 1 0 0 5.925zm7.418-9.214h-5.762l2.881 3.001 2.881-3.001zm.081 11.939a5.106 5.106 0 0 0-2.962-4.302 5.106 5.106 0 0 0-2.962 4.302 2.966 2.966 0 1 0 5.924 0z"/></svg>