<svg xmlns="http://www.w3.org/2000/svg" viewBox="0 0 103 160"><path fill="#fff" d="M0 0h103v160H0z"/><path d="M9.14 38.345a6.88 6.88 0 0 1 5.797 3.992 6.88 6.88 0 0 1-5.796 3.99 3.997 3.997 0 1 1 0-7.982zm12.227 0a6.88 6.88 0 0 0-5.796 3.992 6.88 6.88 0 0 0 5.796 3.99 3.997 3.997 0 1 0 0-7.982zm-9.995 12.414h7.763l-3.881-4.043-3.882 4.043zm-.109-16.085a6.88 6.88 0 0 0 3.99 5.796 6.88 6.88 0 0 0 3.992-5.796 4.089 4.089 0 0 0-3.991-4.208 4.089 4.089 0 0 0-3.991 4.208zM21.977 4.757v2.125h-7.932l-1.118 6.089a9.38 9.38 0 0 1 2.623-.428 6.703 6.703 0 0 1 5.026 2.042 7.206 7.206 0 0 1 1.978 5.228 8.194 8.194 0 0 1-1.017 4.037 7.095 7.095 0 0 1-2.755 2.815 8.04 8.04 0 0 1-4.014.98 6.645 6.645 0 0 1-4.583-1.663 6.803 6.803 0 0 1-2.231-4.302h2.291a5.03 5.03 0 0 0 .873 2.095 4.444 4.444 0 0 0 1.64 1.297 4.89 4.89 0 0 0 2.147.493 5.022 5.022 0 0 0 3.779-1.667 5.826 5.826 0 0 0 1.578-4.168 4.93 4.93 0 0 0-1.426-3.668 5.188 5.188 0 0 0-3.81-1.409 12.617 12.617 0 0 0-4.78 1.2L12.31 4.756zM93.86 121.655a6.88 6.88 0 0 1-5.797-3.992 6.88 6.88 0 0 1 5.796-3.99 3.997 3.997 0 1 1 0 7.982zm-12.227 0a6.88 6.88 0 0 0 5.796-3.992 6.88 6.88 0 0 0-5.796-3.99 3.997 3.997 0 1 0 0 7.982zm9.995-12.414h-7.763l3.881 4.043 3.882-4.043zm.109 16.085a6.88 6.88 0 0 0-3.99-5.796 6.88 6.88 0 0 0-3.992 5.796 3.997 3.997 0 1 0 7.982 0zm-10.714 29.917v-2.125h7.932l1.118-6.089a9.38 9.38 0 0 1-2.623.428 6.703 6.703 0 0 1-5.026-2.041 7.206 7.206 0 0 1-1.978-5.229 8.194 8.194 0 0 1 1.017-4.037 7.095 7.095 0 0 1 2.755-2.815 8.04 8.04 0 0 1 4.014-.98 6.645 6.645 0 0 1 4.583 1.663 6.803 6.803 0 0 1 2.231 4.302h-2.291a5.03 5.03 0 0 0-.873-2.094 4.444 4.444 0 0 0-1.64-1.298 4.89 4.89 0 0 0-2.147-.493 5.022 5.022 0 0 0-3.779 1.667 5.826 5.826 0 0 0-1.578 4.168 4.93 4.93 0 0 0 1.426 3.668 5.188 5.188 0 0 0 3.81 1.41 12.617 12.617 0 0 0 4.78-1.2l-2.064 11.095z"/><path d="M93.86 121.655a6.88 6.88 0 0 1-5.797-3.992 6.88 6.88 0 0 1 5.796-3.99 3.997 3.997 0 1 1 0 7.982zm-12.227 0a6.88 6.88 0 0 0 5.796-3.992 6.88 6.88 0 0 0-5.796-3.99 3.997 3.997 0 1 0 0 7.982zm9.995-12.414h-7.763l3.881 4.043 3.882-4.043zm.109 16.085a6.88 6.88 0 0 0-3.99-5.796 6.88 6.88 0 0 0-3.992 5.796 3.997 3.997 0 1 0 7.982 0zM30.98 38.93a5.106 5.106 0 0 1 4.301 2.962 5.106 5.106 0 0 1-4.302 2.963 2.966 2.966 0 1 1 0-5.925zm9.074 0a5.106 5.106 0 0 0-4.302 2.962 5.106 5.106 0 0 0 4.302 2.963 2.966 2.966 0 1 0 0-5.925zm-7.418 9.214h5.762l-2.881-3.001-2.881 3.001zm-.082-11.939a5.106 5.106 0 0 0 2.963 4.302 5.106 5.106 0 0 0 2.962-4.302 2.966 2.966 0 1 0-5.925 0zm7.5 84.865a5.106 5.106 0 0 1-4.302-2.962 5.106 5.106 0 0 1 4.302-2.963 2.966 2.966 0 1 1 0 5.925zm-9.074 0a5.106 5.106 0 0 0 4.301-2.962 5.106 5.106 0 0 0-4.302-2.963 2.966 2.966 0 1 0 0 5.925zm7.418-9.214h-5.762l2.881 3.001 2.881-3.001zm.081 11.939a5.106 5.106 0 0 0-2.962-4.302 5.106 5.106 0 0 0-2.963 4.302 2.966 2.966 0 1 0 5.925 0zM62.946 38.93a5.106 5.106 0 0 1 4.302 2.962 5.106 5.106 0 0 1-4.302 2.963 2.966 2.966 0 1 1 0-5.925zm9.074 0a5.106 5.106 0 0 0-4.301 2.962 5.106 5.106 0 0 0 4.302 2.963 2.966 2.966 0 1 0 0-5.925zm-7.418 9.214h5.762l-2.881-3.001-2.881 3.001zm-.081-11.939a5.106 5.106 0 0 0 2.962 4.302 5.106 5.106 0 0 0 2.963-4.302 2.966 2.966 0 1 0-5.925 0zm7.499 84.865a5.106 5.106 0 0 1-4.301-2.962 5.106 5.106 0 0 1 4.302-2.963 2.966 2.966 0 1 1 0 5.925zm-9.074 0a5.106 5.106 0 0 0 4.302-2.962 5.106 5.106 0 0 0-4.302-2.963 2.966 2.966 0 1 0 0 5.925zm7.418-9.214h-5.762l2.881 3.001 2.881-3.001zm.082 11.939a5.106 5.106 0 0 0-2.963-4.302 5.106 5.106 0 0 0-2.962 4.302 2.966 2.966 0 1 0 5.925 0zM46.963 78.317a5.106 5.106 0 0 1 4.302 2.963 5.106 5.106 0 0 1-4.302 2.962 2.966 2.966 0 1 1 0-5.924zm9.074 0a5.106 5.106 0 0 0-4.302 2.963 5.106 5.106 0 0 0 4.302 2.962 2.966 2.966 0 1 0 0-5.924zm-7.418 9.214h5.762L51.5 84.53l-2.881 3.001zm-.081-11.939a5.106 5.106 0 0 0 2.962 4.302 5.106 5.106 0 0 0 2.962-4.302 2.966 2.966 0 1 0-5.924 0z"/></svg>