<svg xmlns="http://www.w3.org/2000/svg" viewBox="0 0 103 160"><path fill="#fff" d="M0 0h103v160H0z"/><path d="m15.254 50.76-.484-1.108a21.84 21.84 0 0 0-7.674-9.277l-.3-.206.3-.206a21.84 21.84 0 0 0 7.674-9.277l.484-1.108.483 1.108a21.84 21.84 0 0 0 7.674 9.277l.3.206-.3.206a21.84 21.84 0 0 0-7.674 9.277zm2.377-46.003 1.793 1.17-5.893 8.917a6.998 6.998 0 0 1 2.224-.399 5.898 5.898 0 0 1 4.407 1.874 6.384 6.384 0 0 1 1.81 4.615 6.692 6.692 0 0 1-.874 3.4 6.404 6.404 0 0 1-2.484 2.414 7.014 7.014 0 0 1-3.464.896 6.663 6.663 0 0 1-3.33-.866 6.232 6.232 0 0 1-2.41-2.437 6.806 6.806 0 0 1-.874-3.363 8.153 8.153 0 0 1 .54-2.807 17.595 17.595 0 0 1 1.939-3.548zm-2.392 11.6a4.581 4.581 0 0 0-4.585 4.592 4.581 4.581 0 0 0 4.585 4.577 4.581 4.581 0 0 0 4.585-4.577 4.581 4.581 0 0 0-4.585-4.593zm72.507 92.883.484 1.108a21.84 21.84 0 0 0 7.673 9.277l.3.206-.3.206a21.84 21.84 0 0 0-7.673 9.277l-.484 1.108-.483-1.108a21.84 21.84 0 0 0-7.674-9.277l-.3-.206.3-.206a21.84 21.84 0 0 0 7.674-9.277zm-2.377 46.003-1.793-1.17 5.894-8.917a6.998 6.998 0 0 1-2.225.399 5.898 5.898 0 0 1-4.407-1.874 6.384 6.384 0 0 1-1.81-4.614 6.692 6.692 0 0 1 .874-3.4 6.404 6.404 0 0 1 2.484-2.415 7.014 7.014 0 0 1 3.464-.896 6.663 6.663 0 0 1 3.33.866 6.232 6.232 0 0 1 2.41 2.437 6.806 6.806 0 0 1 .874 3.363 8.153 8.153 0 0 1-.54 2.807 17.595 17.595 0 0 1-1.939 3.548zm2.392-11.6a4.581 4.581 0 1 0-3.242-1.34 4.418 4.418 0 0 0 3.242 1.34zM35.517 32.638l.343.787a15.53 15.53 0 0 0 5.457 6.598l.214.146-.214.146a15.53 15.53 0 0 0-5.457 6.598l-.343.787-.344-.787a15.53 15.53 0 0 0-5.457-6.598l-.214-.146.214-.146a15.53 15.53 0 0 0 5.457-6.598zm0 79.662.343.787a15.53 15.53 0 0 0 5.457 6.598l.214.146-.214.146a15.53 15.53 0 0 0-5.457 6.598l-.343.787-.344-.787a15.53 15.53 0 0 0-5.457-6.598l-.214-.146.214-.146a15.53 15.53 0 0 0 5.457-6.598zm31.966-79.662.344.787a15.53 15.53 0 0 0 5.457 6.598l.214.146-.214.146a15.53 15.53 0 0 0-5.457 6.598l-.344.787-.344-.787a15.53 15.53 0 0 0-5.456-6.598l-.214-.146.214-.146a15.53 15.53 0 0 0 5.457-6.598zm0 79.662.344.787a15.53 15.53 0 0 0 5.457 6.598l.214.146-.214.146a15.53 15.53 0 0 0-5.457 6.598l-.344.787-.344-.787a15.53 15.53 0 0 0-5.456-6.598l-.214-.146.214-.146a15.53 15.53 0 0 0 5.457-6.598zM35.517 72.469l.343.787a15.53 15.53 0 0 0 5.457 6.598l.214.146-.214.146a15.53 15.53 0 0 0-5.457 6.598l-.343.787-.344-.787a15.53 15.53 0 0 0-5.457-6.598L29.502 80l.214-.146a15.53 15.53 0 0 0 5.457-6.598zm31.966 0 .344.787a15.53 15.53 0 0 0 5.457 6.598l.214.146-.214.146a15.53 15.53 0 0 0-5.457 6.598l-.344.787-.344-.787a15.53 15.53 0 0 0-5.456-6.598L61.469 80l.214-.146a15.53 15.53 0 0 0 5.457-6.598z" fill="#d90000"/></svg>