<svg xmlns="http://www.w3.org/2000/svg" viewBox="0 0 103 160"><path fill="#fff" d="M0 0h103v160H0z"/><path d="m51.5 55.226 1.131 2.59a51.09 51.09 0 0 0 17.951 21.703l.703.481-.703.481a51.09 51.09 0 0 0-17.95 21.703l-1.132 2.59-1.131-2.59a51.09 51.09 0 0 0-17.951-21.703L31.715 80l.703-.481a51.09 51.09 0 0 0 17.95-21.703zM15.604 4.627l10.673 22.887h-2.47l-3.6-7.53h-9.86l-3.565 7.53H4.231L15.044 4.627zm-.289 4.863-3.922 8.285h7.825zm-.061 20.088.483 1.107a21.84 21.84 0 0 0 7.674 9.278l.3.206-.3.206a21.84 21.84 0 0 0-7.674 9.277l-.483 1.107-.484-1.107a21.84 21.84 0 0 0-7.674-9.277l-.3-.206.3-.206a21.84 21.84 0 0 0 7.674-9.277zm72.142 125.795-10.673-22.887h2.47l3.6 7.53h9.86l3.565-7.53h2.552l-10.814 22.887zm.289-4.863 3.922-8.284h-7.825zm.061-20.088-.483-1.107a21.84 21.84 0 0 0-7.674-9.278l-.3-.206.3-.206a21.84 21.84 0 0 0 7.674-9.277l.483-1.107.484 1.107a21.84 21.84 0 0 0 7.673 9.277l.3.206-.3.206a21.84 21.84 0 0 0-7.673 9.278z" fill="#d90000"/></svg>