<svg xmlns="http://www.w3.org/2000/svg" viewBox="0 0 103 160"><defs><style>.cls-1{fill:#fff}.cls-12,.cls-2{fill:#d90000}.cls-3{fill:#f9c19b}.cls-4{fill:#999898}.cls-5{fill:#bcbbbb}.cls-6{fill:#e5e1e1}.cls-7{fill:#383838}.cls-8{fill:#663f2e}.cls-9{fill:#1e4262}.cls-10{fill:#f49908}.cls-11{fill:#ffc614}.cls-12{stroke:#000;stroke-linecap:round;stroke-linejoin:round;stroke-width:.3px}</style></defs><g id="DIAMONDS"><path class="cls-1" d="M0 0h103v160H0z"/><path class="cls-2" d="M8.548 4.757h2.334v8.588l9.149-8.588h3.073L12.11 15.026l11.85 12.618h-3.047l-10.03-10.66v10.66H8.548zm6.706 46.003-.484-1.108a21.84 21.84 0 0 0-7.674-9.277l-.3-.206.3-.206a21.84 21.84 0 0 0 7.674-9.277l.484-1.108.483 1.108a21.84 21.84 0 0 0 7.674 9.277l.3.206-.3.206a21.84 21.84 0 0 0-7.674 9.277zm79.198 104.483h-2.334v-8.588l-9.149 8.588h-3.073l10.993-10.269-11.848-12.618h3.047l10.03 10.66v-10.66h2.333zm-6.706-46.003.484 1.108a21.84 21.84 0 0 0 7.673 9.277l.3.206-.3.206a21.84 21.84 0 0 0-7.673 9.277l-.484 1.108-.483-1.108a21.84 21.84 0 0 0-7.674-9.277l-.3-.206.3-.206a21.84 21.84 0 0 0 7.674-9.277z"/><path d="M76.378 77.272h-1.863c-.051-8.146-3.518-12.968-3.99-13.588a1.03 1.03 0 0 0 .145-1.305c-.354-.539-2.218-3.23-4.032-3.273a3.922 3.922 0 0 0-2.72-2.376l3.675-5.548.24.162a.662.662 0 0 0 .505.102.661.661 0 0 0 .43-.29l5.636-8.532a.688.688 0 0 0-.185-.943l-.23-.157 1.323-2a.955.955 0 0 0-.256-1.314l-.586-.398a.935.935 0 0 0-1.303.261l-1.32 1.997-.224-.152a.673.673 0 0 0-.376-.114.707.707 0 0 0-.128.012.672.672 0 0 0-.432.29l-1.207 1.827c-.812-.797-3.909-4.176-2.754-8.28a.177.177 0 0 0-.057-.18.14.14 0 0 0-.098-.029.658.658 0 0 0-.09.008 18.095 18.095 0 0 0-6.33 5.687 12.684 12.684 0 0 0-.8 1.344c-.213-.935-.32-1.607-.326-1.608l1.562-6.328a1.395 1.395 0 0 0 .39.058 1.474 1.474 0 1 0-1.473-1.475 1.46 1.46 0 0 0 .453 1.053c-.06.032-.125.064-.196.098a9.245 9.245 0 0 0-3.68-3.99 1.468 1.468 0 0 0-1.369-.941.663.663 0 0 0-.26.04 15.152 15.152 0 0 0-6.234-1.302q-.577 0-1.16.04c-.278.02-.551.043-.786.073a1.485 1.485 0 0 0-.328-.04.951.951 0 0 0-.644.207.559.559 0 0 0-.121-.027c-4.167.675-6.048 2.416-6.511 2.914a9.9 9.9 0 0 1-.217-.27 1.48 1.48 0 1 0-.834.144v8.077a.172.172 0 0 0 .054.126.465.465 0 0 0 .13.046c-.636 1.454-4.16 9.844-2.286 12.846a2.236 2.236 0 0 0 1.66 1.04 2.635 2.635 0 0 0-.45.416 2.156 2.156 0 0 0-.395 1.923 2.08 2.08 0 0 0 .713 1.122 5.573 5.573 0 0 1-2.583 4.96.448.448 0 0 0-.202.476.467.467 0 0 0 .38.373c.135.023.286.047.45.07a7.142 7.142 0 0 0-.976 1.838l-.034.001a8.792 8.792 0 0 0-4.327 4.629 10.08 10.08 0 0 0-.56 5.013 8.862 8.862 0 0 0-.763 5.187h-1.806a.172.172 0 0 0-.172.172v5.112a.172.172 0 0 0 .172.172h1.863c.051 8.146 3.518 12.968 3.99 13.588a1.03 1.03 0 0 0-.145 1.305c.355.539 2.218 3.23 4.032 3.273a3.922 3.922 0 0 0 2.719 2.376l-3.674 5.548-.24-.162a.672.672 0 0 0-.374-.115.673.673 0 0 0-.56.303l-5.637 8.532a.688.688 0 0 0 .184.943l.231.157-1.324 2a.955.955 0 0 0 .257 1.314l.585.397a.935.935 0 0 0 1.304-.26l1.32-1.996.224.151a.672.672 0 0 0 .376.115.707.707 0 0 0 .128-.013.672.672 0 0 0 .432-.29l1.207-1.826c.812.796 3.909 4.176 2.754 8.279a.177.177 0 0 0 .057.18.14.14 0 0 0 .098.03.661.661 0 0 0 .09-.009 18.095 18.095 0 0 0 6.33-5.687 12.674 12.674 0 0 0 .8-1.344c.213.935.32 1.607.326 1.608l-1.562 6.328a1.395 1.395 0 0 0-.391-.058 1.474 1.474 0 1 0 1.474 1.475 1.46 1.46 0 0 0-.452-1.053 5.03 5.03 0 0 1 .195-.098 9.245 9.245 0 0 0 3.68 3.989 1.469 1.469 0 0 0 1.369.942.665.665 0 0 0 .26-.04 15.154 15.154 0 0 0 6.235 1.302q.576 0 1.159-.04c.278-.02.552-.043.787-.073a1.485 1.485 0 0 0 .328.04.951.951 0 0 0 .643-.207.559.559 0 0 0 .122.027c4.167-.675 6.048-2.416 6.51-2.914a9.9 9.9 0 0 1 .217.27 1.48 1.48 0 1 0 .835-.144v-8.077a.172.172 0 0 0-.054-.126.461.461 0 0 0-.13-.046c.635-1.454 4.16-9.844 2.285-12.846a2.236 2.236 0 0 0-1.66-1.04 2.635 2.635 0 0 0 .45-.416 2.156 2.156 0 0 0 .396-1.923 2.079 2.079 0 0 0-.713-1.123 5.573 5.573 0 0 1 2.582-4.958.448.448 0 0 0 .202-.477.467.467 0 0 0-.38-.373 15.401 15.401 0 0 0-.45-.07 7.143 7.143 0 0 0 .976-1.838l.034-.001a8.791 8.791 0 0 0 4.327-4.629 10.08 10.08 0 0 0 .56-5.013 8.862 8.862 0 0 0 .763-5.187h1.806a.172.172 0 0 0 .172-.172v-5.112a.172.172 0 0 0-.172-.172zM61.425 55.804a14.845 14.845 0 0 0-2.828-.464 5.732 5.732 0 0 0 .694-1.526 5.697 5.697 0 0 0 2.721-3.608 6.077 6.077 0 0 0-.52-4.332c.208-.015.415-.022.618-.022a11.095 11.095 0 0 1 4.19.896l-1.249 1.89a.685.685 0 0 0 .185.944l.214.144zm-19.85 48.392a14.856 14.856 0 0 0 2.827.464 5.733 5.733 0 0 0-.693 1.526 5.697 5.697 0 0 0-2.721 3.608 6.077 6.077 0 0 0 .52 4.332 8.568 8.568 0 0 1-.618.022 11.092 11.092 0 0 1-4.19-.896l1.248-1.89a.685.685 0 0 0-.184-.944l-.214-.145z"/><path class="cls-1" d="M44.526 85.676a2.024 2.024 0 0 1 .039 1.048c-.002.007-.008.01-.011.016.064.078.125.16.187.24a4.045 4.045 0 0 0 .401.476 3.525 3.525 0 0 0 .509.382c.12.08.244.162.36.254a4.73 4.73 0 0 1 1.367 2.076l.074.192c.04.106.081.213.124.32l1.327-2.066a9.022 9.022 0 0 1-4.377-2.938z"/><path class="cls-3" d="M43.755 86.349a1.516 1.516 0 0 0-1.195.294 4.388 4.388 0 0 0-1.665 1.69 2.754 2.754 0 0 0-.145 2.308 4.672 4.672 0 0 0 .486.804 4.38 4.38 0 0 1 .89 2.236c.046.237.095.483.155.718a2.456 2.456 0 0 0 1.219 1.824 3.62 3.62 0 0 1 1.226.988 3.295 3.295 0 0 0 1.201.956 3.261 3.261 0 0 0 2.375-.387l.974-.425c.249-.107.535-.263.552-.515a.314.314 0 0 0-.044-.16l-.008-.004a.088.088 0 0 1-.024-.064.938.938 0 0 0-.64-.29l-.004-.001-.595.34a2.539 2.539 0 0 1-1.137.42.255.255 0 0 1-.039.002 2.607 2.607 0 0 1-.864-.2l-2.11-.754a.09.09 0 1 1 .06-.17l2.11.754a2.462 2.462 0 0 0 .803.188h.034a2.357 2.357 0 0 0 1.052-.398l.923-.528a1.973 1.973 0 0 0 .778-.645.644.644 0 0 0-.093-.795c-.137.081-.276.16-.41.227l-1.006.513a1.47 1.47 0 0 1-.652.208 1.441 1.441 0 0 1-.48-.11 38.087 38.087 0 0 1-1.998-.78.09.09 0 0 1-.048-.12.089.089 0 0 1 .119-.047c.65.275 1.32.537 1.988.778a1.285 1.285 0 0 0 .419.098 1.31 1.31 0 0 0 .568-.189l1.009-.513a2.704 2.704 0 0 0 .918-.644c.254-.316.294-.57.14-.817a2.4 2.4 0 0 1-1.09.635 4.303 4.303 0 0 1-2.828-.44.092.092 0 0 1-.046-.12.091.091 0 0 1 .12-.046 4.14 4.14 0 0 0 2.71.43 1.946 1.946 0 0 0 1.525-1.981c-.03-.2-.138-.452-.343-.5a.568.568 0 0 0-.52.271c-.051.067-.096.138-.141.209a1.74 1.74 0 0 1-.306.392 1.248 1.248 0 0 1-1.658-.21 3.75 3.75 0 0 1-.738-1.354l-.074-.192a4.566 4.566 0 0 0-1.308-1.998 5.247 5.247 0 0 0-.35-.246 3.82 3.82 0 0 1-.533-.402 4.268 4.268 0 0 1-.42-.497 1.796 1.796 0 0 0-.842-.741z"/><path class="cls-4" d="m33.609 117.783.309-.463.518-.79 2.044-3.09a10.934 10.934 0 0 0 5.36.918 6.99 6.99 0 0 0 3.461-1.345c-.027.209-.063.563-.145 1.017a18.28 18.28 0 0 1-.282 1.363 17.31 17.31 0 0 1-1.408 3.898 12.111 12.111 0 0 1-.845 1.435v.009a.009.009 0 0 0-.009.01.069.069 0 0 0-.018.026c-.018.019-.027.046-.045.064a17.694 17.694 0 0 1-5.969 5.378 7.132 7.132 0 0 0-.045-3.616 8.755 8.755 0 0 0-.41-1.162 11.395 11.395 0 0 0-1.843-2.935 11.04 11.04 0 0 0-.673-.717z"/><path class="cls-5" d="m36.125 121.435 7.34-2.144a12.111 12.111 0 0 1-.845 1.435v.01a.009.009 0 0 0-.009.009.069.069 0 0 0-.018.027c-.018.018-.027.045-.045.063l-6.014 1.763a8.755 8.755 0 0 0-.409-1.163zm-2.516-3.652.309-.463 11.238-3.29c-.064.382-.155.846-.282 1.363l-10.593 3.108a10.891 10.891 0 0 0-.672-.718z"/><path class="cls-5" d="m41.334 119.434-.006.01-.006.01a.303.303 0 0 0-.018.028 16.536 16.536 0 0 1-4.541 4.527 6.929 6.929 0 0 1-.182 2.207 17.68 17.68 0 0 0 6.013-5.445.297.297 0 0 1 .017-.027l.007-.01.006-.01a17.98 17.98 0 0 0 2.675-7.71 6.695 6.695 0 0 1-1.67.916 16.381 16.381 0 0 1-2.295 5.504z"/><path class="cls-6" d="m39.49 121.732 3.058-.897a.206.206 0 0 0 .028-.039l.018-.025a.297.297 0 0 1 .017-.028l.007-.01.003-.005v-.002c.153-.223.297-.45.433-.68l.048-.085c.128-.221.25-.444.364-.67l-2.543.743a14.336 14.336 0 0 1-1.434 1.698zm3.569-5.806 1.815-.533c.127-.517.218-.98.282-1.362l-1.671.489c-.117.444-.257.917-.426 1.406z"/><path class="cls-2" d="m57.055 89.23-1.457 2.001 1.454 1.997 1.431-2.083-1.428-1.915z"/><path class="cls-7" d="M60.794 82.64h-.69A9.014 9.014 0 0 1 51.52 89a.839.839 0 0 1-.066.13l-1.303 1.968a.608.608 0 0 1 .537-.157.738.738 0 0 1 .479.65 1.772 1.772 0 0 1-.445 1.42c.005.004.012.003.016.008a.825.825 0 0 1-.138 1.052 1.869 1.869 0 0 1-.418.366.835.835 0 0 1 .1.985 2.16 2.16 0 0 1-.846.713l-.09.051a.974.974 0 0 1 .519.294 14.7 14.7 0 0 1 6.294-2.959 6.98 6.98 0 0 1 .776-.144l-1.523-2.092a.09.09 0 0 1 0-.106l1.568-2.154a.089.089 0 0 1 .073-.037.09.09 0 0 1 .073.036l1.541 2.066a.09.09 0 0 1 .002.106l-1.483 2.157a7.08 7.08 0 0 1 .677-.041 6.878 6.878 0 0 1 5.212 2.343 6.703 6.703 0 0 1 .542.716c.356-3.835.402-10.395-2.823-13.73z"/><path class="cls-1" d="M43.657 96.51a1.808 1.808 0 0 0-.224-.118 2.615 2.615 0 0 1-1.327-1.946c-.062-.242-.111-.49-.158-.73a4.215 4.215 0 0 0-.86-2.167l-.103-.151c-.095.049-.611.239-1.354-.518a8.262 8.262 0 0 1-6.61 5.44.728.728 0 0 0-.536.44.763.763 0 0 0 .067.717c.21.32 2.076 3.077 3.856 3.18-.266-1.452.694-3.24 2.886-5.33a.092.092 0 0 1 .063-.024.09.09 0 0 1 .063.156c-2.248 2.142-3.191 3.947-2.804 5.366.424 1.553 2.35 2.142 2.701 2.238z"/><path class="cls-8" d="M27.906 120.621a.692.692 0 0 0 .187.95l.584.398a.669.669 0 0 0 .936-.188l1.368-2.067-1.707-1.159z"/><path class="cls-4" d="M37.73 111.216a.423.423 0 0 0-.114-.58l-2.596-1.76a.399.399 0 0 0-.307-.064.404.404 0 0 0-.26.177l-5.638 8.533a.422.422 0 0 0 .114.579l2.228 1.513.367.249a.412.412 0 0 0 .307.063.41.41 0 0 0 .263-.177l1.32-2 2.6-3.936z"/><path class="cls-8" d="M45.339 98.036a5.644 5.644 0 0 1-.746-.702 5.08 5.08 0 0 0-.783-.731l-.002.007-8.228 12.425 1.708 1.159zm2.353-7.203a.083.083 0 0 1-.038.026 2.59 2.59 0 0 0 .496.793 1.14 1.14 0 0 0 1.222.294l1.932-2.918c.008-.012.012-.025.019-.037a8.956 8.956 0 0 1-2.236-.33z"/><path class="cls-9" d="M55.718 102.245a14.38 14.38 0 0 1 6.989-2.806c-1.024-.673-5.899-3.223-14.356 2.414.058.41.114.71.146.86a4.9 4.9 0 0 1 3.09-2.039.533.533 0 0 1 .084-.007.445.445 0 0 1 .34.156.512.512 0 0 1 .1.489 23.29 23.29 0 0 0-.62 2.424 7.701 7.701 0 0 1 4.213-1.497c.006 0 .01.005.014.006z"/><path class="cls-1" d="M45.865 98.337a1.98 1.98 0 0 1-.38-.192l-3.839 5.796a13.618 13.618 0 0 0 3.01.466c.008 0 .012.007.02.008.03-.038.054-.082.086-.12a3.666 3.666 0 0 1 2.929-1.228c.179 0 .364.01.553.027.04-.064.077-.136.118-.197-.004-.007-.011-.01-.013-.017a17.62 17.62 0 0 1-.32-4.788 3.02 3.02 0 0 1-2.164.245z"/><path class="cls-10" d="M44.828 116.36a20.568 20.568 0 0 0 2.009 5.316c.005.008.003.018.006.026a50.31 50.31 0 0 0 3.766.616 24.938 24.938 0 0 1-3.753-13.328 11.648 11.648 0 0 1 1.278-5.713 3.67 3.67 0 0 0-3.235 1.137c-2.15 2.503-.887 8.289-.707 9.06a6.523 6.523 0 0 0 1.16-.73.09.09 0 0 1 .057-.02.086.086 0 0 1 .042.01.09.09 0 0 1 .048.087 19.098 19.098 0 0 1-.686 3.527c.003.006.014.005.015.012zm6.277-7.378a20.584 20.584 0 0 0 .416 3.201 13.367 13.367 0 0 1 .847-2.162l-.004-.007a15.346 15.346 0 0 1 .153-3.887 17.616 17.616 0 0 0-1.412 2.855zm11.047-4.092a2.969 2.969 0 0 1 .945.163 10.052 10.052 0 0 1 2.298-5.59 18.51 18.51 0 0 0-2.367.119.085.085 0 0 1-.091.01 16.504 16.504 0 0 0-1.795.318v.001a12.147 12.147 0 0 0-1.251 5.028 3.722 3.722 0 0 1 .672.261 4.55 4.55 0 0 1 1.59-.31z"/><path class="cls-3" d="M51.086 108.57a15.09 15.09 0 0 1 4.406-6.14 7.508 7.508 0 0 0-3.952 1.494.082.082 0 0 1-.085.009 21.22 21.22 0 0 0-.369 4.637z"/><path class="cls-10" d="M57.021 122.82a21.609 21.609 0 0 1-4.01-5.732 21.324 21.324 0 0 1-1.576-4.46.093.093 0 0 1-.007-.028 20.744 20.744 0 0 1-.501-3.558.087.087 0 0 1-.011-.078l.006-.015a21.916 21.916 0 0 1 1.016-7.692.327.327 0 0 0-.064-.314.259.259 0 0 0-.254-.09c-1.348.244-4.495 1.526-4.582 8.144a24.772 24.772 0 0 0 3.797 13.348c2.154.267 4.268.409 6.186.475zm-.374-17.068a3.9 3.9 0 0 1 1.972-.93 3.04 3.04 0 0 1 .391-.024 3.115 3.115 0 0 1 .703.088 12.495 12.495 0 0 1 1.198-4.921 13.905 13.905 0 0 0-4.241 1.833c-.001.011.002.023-.004.033a8.54 8.54 0 0 0-.67 4.208 6.12 6.12 0 0 1 .65-.287zm-12.621 7.808a17.515 17.515 0 0 1-.29-7.079 5.434 5.434 0 0 0-2.493 3.375 5.744 5.744 0 0 0 .594 4.313 7.01 7.01 0 0 0 2.19-.609z"/><path class="cls-9" d="M48.288 129.747a1.37 1.37 0 0 1 .29.032 4.441 4.441 0 0 0-2.537-2.45 3.895 3.895 0 0 0-2.594.211 9.033 9.033 0 0 0 3.472 3.868 1.427 1.427 0 0 1-.025-.25 1.404 1.404 0 0 1 1.394-1.411z"/><path class="cls-3" d="M65.394 108.933a4.013 4.013 0 0 1-3.239.293 9.42 9.42 0 0 1-2.021-1.089 4.423 4.423 0 0 0-4.753-.645.09.09 0 0 1-.1-.026.091.091 0 0 1-.01-.104 6.64 6.64 0 0 1 .96-1.23c-3.418 1.625-4.545 6.09-4.625 6.43a21.505 21.505 0 0 0 5.686 10.268 81.9 81.9 0 0 0 7.574-.103c.244-.55 4.295-9.77 2.396-12.811a2.075 2.075 0 0 0-1.82-.962.085.085 0 0 1-.047-.021zm-2.013 8.424a.09.09 0 0 1-.126-.025c-.062-.092-1.565-2.226-5.393-.301a.088.088 0 0 1-.122-.04.09.09 0 0 1 .04-.121 6.623 6.623 0 0 1 2.96-.81 3.25 3.25 0 0 1 2.666 1.17.09.09 0 0 1-.025.127z"/><path class="cls-1" d="M61.038 82.64c4.515 4.895 2.478 16.114 2.363 16.716a18.745 18.745 0 0 1 1.724-.078 19.405 19.405 0 0 1 2.435.155l.001-.004c3.4-4.168.619-12.153.59-12.234a.09.09 0 0 1 .056-.115.073.073 0 0 1 .03-.005.09.09 0 0 1 .085.06c.024.068 2.008 5.795.575 10.143a8.576 8.576 0 0 0 4.108-4.45c1.114-2.795.786-6.222-.97-10.188z"/><path class="cls-10" d="m63.275 105.106.017.005c.01.004.017.011.027.016a3.573 3.573 0 0 1 2.13-.028 1.726 1.726 0 0 1 .242.127 5.867 5.867 0 0 1 2.708-5.134.186.186 0 0 0 .085-.202.2.2 0 0 0-.165-.164 19.062 19.062 0 0 0-2.686-.257 9.777 9.777 0 0 0-2.358 5.637z"/><path class="cls-10" d="M63.548 105.258a2.538 2.538 0 0 1 1.076 1.38.09.09 0 0 1-.055.116.087.087 0 0 1-.115-.055 2.304 2.304 0 0 0-1.234-1.421 3.605 3.605 0 0 0-2.462.045 5.953 5.953 0 0 1 1.268.99.091.091 0 0 1-.13.127 3.913 3.913 0 0 0-3.254-1.437 4.96 4.96 0 0 0-3.075 2.232 4.52 4.52 0 0 1 4.666.75 9.31 9.31 0 0 0 1.984 1.07 3.677 3.677 0 0 0 3.857-.905 1.895 1.895 0 0 0 .342-1.687 1.691 1.691 0 0 0-1.031-1.193 3.215 3.215 0 0 0-1.837-.012zm-16.943 16.394a19.795 19.795 0 0 1-1.888-4.982 17.256 17.256 0 0 1-.926 2.377c.005.008.018.007.02.017.246 1.004.38 1.798.415 2.01.777.217 1.574.408 2.379.578z"/><path class="cls-2" d="M32.986 96.142a8.082 8.082 0 0 0 6.483-5.35c.006-.02.029-.022.045-.033-.017-.018-.032-.03-.049-.049-1.01-1.178-4.703-4.815-8.298-6.03a.09.09 0 0 1 .03-.176.082.082 0 0 1 .028.005c3.634 1.227 7.36 4.894 8.379 6.082.68.795 1.156.696 1.277.653a3.452 3.452 0 0 1-.298-.532 2.934 2.934 0 0 1 .15-2.462 4.556 4.556 0 0 1 1.733-1.763 2.081 2.081 0 0 1 1.032-.356 1.098 1.098 0 0 1 .309.044 1.347 1.347 0 0 1 .6.402 1.945 1.945 0 0 0-.174-1.183.085.085 0 0 1 .015-.089 8.966 8.966 0 0 1-1.35-2.665h-14.15c.027 8.643 3.95 13.535 3.994 13.59a.915.915 0 0 1 .244-.088z"/><path class="cls-1" d="M51.502 88.819a8.82 8.82 0 1 0-8.82-8.82 8.83 8.83 0 0 0 8.82 8.82zm0-14.84L56.934 80l-5.432 6.02L46.069 80z"/><path class="cls-2" d="M72.232 82.64a18.774 18.774 0 0 1 1.46 4.915 8.723 8.723 0 0 0 .6-4.915z"/><path class="cls-11" d="M49.5 131.158a1.212 1.212 0 1 0-1.212 1.23 1.222 1.222 0 0 0 1.211-1.23z"/><path class="cls-10" d="M52.764 105.738v.001a14.85 14.85 0 0 0-.235 3.96 8.58 8.58 0 0 1 3.3-3.568.085.085 0 0 1-.014-.033 9.49 9.49 0 0 1 .578-4.117 13.548 13.548 0 0 0-3.629 3.757z"/><circle class="cls-11" cx="42.021" cy="128.869" r="1.212"/><path class="cls-9" d="M55.663 132.346a1.4 1.4 0 0 1 1.329-1.404 4.163 4.163 0 0 0-2.639-2.394c-2.29-.61-4.92.996-5.456 1.347a1.412 1.412 0 0 1-.051 2.553 15.207 15.207 0 0 0 7.078 1.16c.154-.01.3-.025.45-.04a1.408 1.408 0 0 1-.71-1.222z"/><path class="cls-11" d="m42.64 127.63.526-2.107v-.009l.681-2.78.364-1.472a46.196 46.196 0 0 0 6.54 1.254.028.028 0 0 0 .019.01 71 71 0 0 0 6.477.48c.01 0 .018.01.028 0a77.747 77.747 0 0 0 7.849-.118v8.05h-.3a4.773 4.773 0 0 0-3.716-2.272 5.638 5.638 0 0 0-3.943 2.19 4.361 4.361 0 0 0-2.761-2.48c-2.426-.645-5.106 1.026-5.633 1.38a4.594 4.594 0 0 0-2.68-2.598 4.385 4.385 0 0 0-3.352.527c-.036-.018-.064-.036-.1-.054z"/><path class="cls-7" d="M63.566 96.63a6.077 6.077 0 0 0-.63-.858 6.772 6.772 0 0 0-6.733-2.077 14.506 14.506 0 0 0-6.242 2.938.486.486 0 0 1 .048.219c-.023.35-.364.542-.66.67l-.299.13a.086.086 0 0 1-.014.072 4.089 4.089 0 0 0-.805 1.55.089.089 0 0 1-.052.058 19.08 19.08 0 0 0 .145 2.323c4.174-2.764 7.493-3.555 9.912-3.555a7.981 7.981 0 0 1 4.741 1.307l.246-.03c-.001-.008-.007-.015-.005-.024.007-.035.21-1.102.371-2.704-.007-.007-.017-.009-.023-.019z"/><ellipse class="cls-11" cx="57.056" cy="132.346" rx="1.212" ry="1.23"/><path class="cls-11" d="M63.999 132.346a1.212 1.212 0 1 0 1.212-1.23 1.223 1.223 0 0 0-1.212 1.23z"/><path class="cls-9" d="M61.108 128.846h-.003a5.555 5.555 0 0 0-3.793 2.116 1.413 1.413 0 0 1 .72 2.39c4.123-.73 5.889-2.537 6.18-2.869a4.21 4.21 0 0 0-3.104-1.637z"/><path class="cls-2" d="m56.934 79.999-5.433-6.019-5.432 6.019 5.432 6.02 5.433-6.02z"/><path class="cls-12" d="m63.643 126.159 1.399-1.553.082.09v2.917l-.082.09-1.399-1.544z"/><path d="M60.74 115.978a6.763 6.763 0 0 0-2.996.818.17.17 0 0 0-.087.1.364.364 0 0 0 .01.131.155.155 0 0 0 .16.082.505.505 0 0 0 .07-.005 6.515 6.515 0 0 1 2.872-.794 2.91 2.91 0 0 1 2.417 1.066.172.172 0 0 0 .144.078.333.333 0 0 0 .097-.03.173.173 0 0 0 .046-.24 3.357 3.357 0 0 0-2.733-1.206z"/><path d="M26.622 82.722h1.863c.05 8.15 3.518 12.974 3.99 13.594a1.03 1.03 0 0 0-.145 1.305c.354.539 2.218 3.23 4.032 3.273a3.922 3.922 0 0 0 2.719 2.376l-3.674 5.548-.24-.162a.672.672 0 0 0-.374-.115.673.673 0 0 0-.561.303l-5.636 8.532a.688.688 0 0 0 .184.943l.23.157-1.323 2a.955.955 0 0 0 .257 1.314l.585.398a.935.935 0 0 0 1.303-.261l1.321-1.996.224.151a.672.672 0 0 0 .376.115.707.707 0 0 0 .128-.013.672.672 0 0 0 .432-.29l1.207-1.826c.811.796 3.909 4.176 2.753 8.279a.177.177 0 0 0 .058.18.14.14 0 0 0 .098.03.661.661 0 0 0 .09-.009 18.095 18.095 0 0 0 6.33-5.687 12.674 12.674 0 0 0 .799-1.344c.214.935.32 1.607.326 1.608l-1.56 6.328a1.395 1.395 0 0 0-.392-.058 1.474 1.474 0 1 0 1.474 1.475 1.46 1.46 0 0 0-.452-1.053 5.03 5.03 0 0 1 .195-.098 9.245 9.245 0 0 0 3.68 3.989 1.469 1.469 0 0 0 1.369.942.665.665 0 0 0 .26-.04 15.154 15.154 0 0 0 6.235 1.302q.576 0 1.159-.04c.278-.02.551-.043.787-.073a1.485 1.485 0 0 0 .328.04.951.951 0 0 0 .643-.207.559.559 0 0 0 .122.027c4.167-.675 6.047-2.416 6.51-2.914a9.9 9.9 0 0 1 .217.27 1.48 1.48 0 1 0 .835-.144v-8.077a.172.172 0 0 0-.054-.126.461.461 0 0 0-.13-.046c.635-1.454 4.16-9.844 2.285-12.846a2.236 2.236 0 0 0-1.66-1.04 2.635 2.635 0 0 0 .45-.416 2.156 2.156 0 0 0 .396-1.923 2.079 2.079 0 0 0-.713-1.122 5.573 5.573 0 0 1 2.582-4.959.448.448 0 0 0 .202-.477.467.467 0 0 0-.38-.373 15.401 15.401 0 0 0-.45-.07 7.143 7.143 0 0 0 .976-1.838l.034-.001a8.791 8.791 0 0 0 4.327-4.628 10.08 10.08 0 0 0 .56-5.014 8.86 8.86 0 0 0 .763-5.193h1.806a.172.172 0 0 0 .172-.172v-5.106a.172.172 0 0 0-.172-.172H60.163a9.038 9.038 0 0 0-8.661-6.355 9.156 9.156 0 0 0-8.663 6.355H26.622a.172.172 0 0 0-.172.172v5.106a.172.172 0 0 0 .172.172zm38.59 50.772a1.148 1.148 0 1 1 1.13-1.148 1.141 1.141 0 0 1-1.13 1.148zm-34.343-13.758-1.324 2a.59.59 0 0 1-.377.256.651.651 0 0 1-.116.01.576.576 0 0 1-.328-.1l-.585-.397a.61.61 0 0 1-.164-.838l1.32-1.997zm20.633-48.474a8.738 8.738 0 1 1-8.738 8.737 8.747 8.747 0 0 1 8.738-8.737zm16.897 15.847c-.02-.064-.077-.108-.186-.108l-.032.002a.17.17 0 0 0-.1.086.375.375 0 0 0-.007.134c.029.079 2.752 7.982-.546 12.123a19.62 19.62 0 0 0-2.403-.15c-.544 0-1.09.023-1.623.07.223-1.247 1.952-11.722-2.281-16.545l10.74-.048c1.747 3.946 2.072 7.352.968 10.125a8.503 8.503 0 0 1-3.896 4.322c1.324-4.34-.614-9.958-.634-10.01zm-21.584 44.132a8.914 8.914 0 0 1-3.259-3.656 4.197 4.197 0 0 1 1.536-.312 3.199 3.199 0 0 1 .925.134 4.268 4.268 0 0 1 2.414 2.265 1.59 1.59 0 0 0-.143-.007 1.485 1.485 0 0 0-1.476 1.493c0 .028.001.055.003.083zm1.473-1.231a1.148 1.148 0 1 1-1.132 1.148 1.141 1.141 0 0 1 1.132-1.148zm1.474 1.148a1.482 1.482 0 0 0-.706-1.268 8.756 8.756 0 0 1 4.202-1.397 4.19 4.19 0 0 1 1.074.134 4.038 4.038 0 0 1 2.533 2.244 1.488 1.488 0 0 0-.724 2.637l-.223.02q-.556.037-1.108.037a15.006 15.006 0 0 1-5.774-1.124 1.497 1.497 0 0 0 .726-1.283zm7.294.04a1.148 1.148 0 1 1-1.13 1.148 1.141 1.141 0 0 1 1.13-1.148zm1.187 2.031a1.496 1.496 0 0 0-.782-2.316 5.353 5.353 0 0 1 3.647-1.986 4.102 4.102 0 0 1 2.994 1.556c-.406.439-2.1 2.031-5.859 2.746zm2.862-4.646a5.625 5.625 0 0 0-3.924 2.124 4.364 4.364 0 0 0-2.76-2.413 4.612 4.612 0 0 0-1.178-.148 9.028 9.028 0 0 0-4.436 1.492 4.67 4.67 0 0 0-2.69-2.562 3.522 3.522 0 0 0-1.03-.15 4.365 4.365 0 0 0-2.307.685l-.045-.024 1.535-6.226a45.994 45.994 0 0 0 6.494 1.242c2.034.252 4.214.416 6.471.487l.033.003v-.082l.007.081c.955.03 1.86.042 2.69.042a77.34 77.34 0 0 0 5.074-.155v7.887l-.152.021a4.843 4.843 0 0 0-3.782-2.304zm-18.58-7.856a17.369 17.369 0 0 1-5.821 5.326c.94-4.235-2.397-7.703-2.99-8.28l2.793-4.229a11.466 11.466 0 0 0 4.385.946 8.9 8.9 0 0 0 .961-.051 7.051 7.051 0 0 0 3.344-1.249 18.06 18.06 0 0 1-2.673 7.537zm-10.773-.794v-.082a.323.323 0 0 1-.181-.056l-2.596-1.761a.339.339 0 0 1-.092-.467l5.638-8.534a.357.357 0 0 1 .271-.147.32.32 0 0 1 .182.057l2.596 1.76a.34.34 0 0 1 .091.468l-5.635 8.532a.334.334 0 0 1-.211.143zm7.725-24.415a.196.196 0 0 0 .005-.245.173.173 0 0 0-.125-.052.367.367 0 0 0-.12.047c-2.151 2.05-3.135 3.831-2.927 5.299-1.756-.205-3.61-3.013-3.69-3.135a.68.68 0 0 1-.06-.641.648.648 0 0 1 .478-.392 8.36 8.36 0 0 0 6.63-5.369 1.548 1.548 0 0 0 1.039.506 1.096 1.096 0 0 0 .255-.034l-.003.004.07.103a5.417 5.417 0 0 1 .4.63 5.701 5.701 0 0 1 .439 1.493c.047.241.096.49.159.734a2.686 2.686 0 0 0 1.375 2.001 1.072 1.072 0 0 1 .138.07l-4.258 6.43c-.473-.136-2.195-.727-2.587-2.164-.379-1.388.557-3.166 2.782-5.285zm34.746-12.796a8.635 8.635 0 0 1-.493 4.535 19.18 19.18 0 0 0-1.373-4.535zm-28.814 29.92a.365.365 0 0 0-.109.037 6.322 6.322 0 0 1-1.052.675c-.227-1.014-1.338-6.499.713-8.887a3.424 3.424 0 0 1 2.734-1.124c.1 0 .201.002.305.008a12.052 12.052 0 0 0-1.225 5.632 25.237 25.237 0 0 0 3.679 13.233 49.046 49.046 0 0 1-3.55-.587 21.661 21.661 0 0 1-2.024-5.262l.011.004a18.984 18.984 0 0 0 .69-3.544c.005-.069-.031-.133-.172-.185zm-.734-26.663a9.055 9.055 0 0 0 4.1 2.681l-1.181 1.84-.14-.362a4.801 4.801 0 0 0-1.391-2.111 5.858 5.858 0 0 0-.368-.258 3.4 3.4 0 0 1-.496-.372 3.882 3.882 0 0 1-.394-.467.96.96 0 0 0-.161-.185 1.97 1.97 0 0 0 .03-.766zm-3.353 23.897a5.37 5.37 0 0 1 2.29-3.221 17.711 17.711 0 0 0 .319 6.86 6.978 6.978 0 0 1-2.051.567 5.692 5.692 0 0 1-.558-4.206zm8.016-18.004a.792.792 0 0 1-.331.068 1.158 1.158 0 0 1-.798-.345 2.207 2.207 0 0 1-.448-.718l1.363-2.121a9.1 9.1 0 0 0 2.056.313zm7.377 9.995a13.766 13.766 0 0 1 4.045-1.778 12.603 12.603 0 0 0-1.125 4.696 2.98 2.98 0 0 0-1.027-.043 3.877 3.877 0 0 0-1.99.933c-.188.07-.369.148-.545.234a9.096 9.096 0 0 1 .642-4.043zm-.962 4.213a8.387 8.387 0 0 0-3.16 3.33 14.894 14.894 0 0 1 .24-3.626 13.573 13.573 0 0 1 3.383-3.577 10.13 10.13 0 0 0-.463 3.873zm-3.459 3.904a13.733 13.733 0 0 0-.758 1.867 21.616 21.616 0 0 1-.355-2.84 17.85 17.85 0 0 1 1.19-2.481 14.81 14.81 0 0 0-.077 3.454zm6.089-18.837-1.333 1.94-1.351-1.856 1.357-1.863zm-6.89 12.876a.29.29 0 0 0 .097-.034 7.333 7.333 0 0 1 3.646-1.453 15.193 15.193 0 0 0-4.077 5.652 23.176 23.176 0 0 1 .334-4.165zm4.206-1.865a7.824 7.824 0 0 0-4.085 1.385 23.29 23.29 0 0 1 .575-2.207.594.594 0 0 0-.118-.567.525.525 0 0 0-.4-.184l-.097.008a4.95 4.95 0 0 0-3.033 1.926 9.273 9.273 0 0 0-.145-.597c3.544-2.363 6.856-3.56 9.843-3.56a8.307 8.307 0 0 1 4.233 1.028 14.309 14.309 0 0 0-6.773 2.767zm-8.58 6.84c.086-6.557 3.187-7.823 4.556-8.068a.185.185 0 0 1 .137.067.244.244 0 0 1 .047.235 22.092 22.092 0 0 0-1.02 7.703.78.78 0 0 0 .005.111 21.055 21.055 0 0 0 .51 3.6 21.383 21.383 0 0 0 1.583 4.477 22.07 22.07 0 0 0 3.88 5.608 86.892 86.892 0 0 1-5.912-.428A24.743 24.743 0 0 1 47.12 109zM63 99.322a8.13 8.13 0 0 0-4.765-1.303c-3 0-6.313 1.176-9.846 3.497-.081-.68-.128-1.427-.174-2.109a.355.355 0 0 0 .094-.11 4.027 4.027 0 0 1 .793-1.523.25.25 0 0 0 .02-.063l.26-.113c.316-.137.683-.345.709-.74a.485.485 0 0 0-.034-.2 14.538 14.538 0 0 1 6.165-2.883 6.821 6.821 0 0 1 1.638-.2 6.58 6.58 0 0 1 5.014 2.251c.398.462.604.816.632.816l.001-.001c-.138 1.384-.311 2.376-.355 2.663zm-17.163-.907a1.992 1.992 0 0 0 .7.12 4.013 4.013 0 0 0 1.403-.318 16.962 16.962 0 0 0 .337 4.664l-.06.1.007.031a6.142 6.142 0 0 0-.534-.026 3.75 3.75 0 0 0-2.99 1.257.17.17 0 0 0-.043.084 13.383 13.383 0 0 1-2.88-.436l3.732-5.634a1.9 1.9 0 0 0 .328.158zm17.187 6.53a3.01 3.01 0 0 0-.872-.134 3.696 3.696 0 0 0-1.552.318 3.662 3.662 0 0 0-.626-.25 13.02 13.02 0 0 1 1.186-4.888 16.787 16.787 0 0 1 1.786-.316l-.01-.08.101.07a18.252 18.252 0 0 1 2.104-.12h.08a10.12 10.12 0 0 0-2.197 5.4zm.532-8.808a7.079 7.079 0 0 0-.42-.535 6.924 6.924 0 0 0-5.273-2.372c-.17 0-.34.011-.51.025l1.384-2.012a.173.173 0 0 0-.004-.201l-1.54-2.066a.17.17 0 0 0-.14-.07.343.343 0 0 0-.139.071l-1.569 2.154a.173.173 0 0 0 0 .202l1.444 1.982a6.374 6.374 0 0 0-.65.127 14.898 14.898 0 0 0-6.27 2.925.985.985 0 0 0-.322-.202 2.087 2.087 0 0 0 .805-.702.94.94 0 0 0-.048-1.011 1.817 1.817 0 0 0 .36-.33.906.906 0 0 0 .16-1.104 1.84 1.84 0 0 0 .424-1.439.814.814 0 0 0-.54-.717.542.542 0 0 0-.137-.018.592.592 0 0 0-.169.025l1.12-1.693c.027-.04.048-.085-.002-.094a9.04 9.04 0 0 0 8.646-6.361l.57-.022c3.163 3.271 3.143 9.725 2.82 13.437zm-18.051-8.078c.116.076.235.155.344.242a4.48 4.48 0 0 1 1.283 1.962l.078.2a3.78 3.78 0 0 0 .752 1.374 1.562 1.562 0 0 0 1.072.469 1.036 1.036 0 0 0 .699-.255 1.805 1.805 0 0 0 .32-.41c.043-.068.088-.138.137-.202a.545.545 0 0 1 .424-.242h.013c.153.037.252.244.28.433a1.864 1.864 0 0 1-1.463 1.891 2.745 2.745 0 0 1-.666.08 5.358 5.358 0 0 1-2.062-.522.173.173 0 0 0-.07.331 5.334 5.334 0 0 0 2.131.537 3.029 3.029 0 0 0 .75-.092 2.448 2.448 0 0 0 1.048-.58c.076.19.018.384-.18.631a2.642 2.642 0 0 1-.892.623l-1.01.513a1.25 1.25 0 0 1-.53.18 1.212 1.212 0 0 1-.392-.094 58.492 58.492 0 0 1-2.052-.79.172.172 0 0 0-.158.105.195.195 0 0 0 .092.226c.648.275 1.322.539 2.002.784a1.506 1.506 0 0 0 .508.113 1.532 1.532 0 0 0 .689-.217l1.007-.513c.117-.06.24-.127.362-.198a.593.593 0 0 1 .032.653 1.91 1.91 0 0 1-.748.615l-.923.528a2.272 2.272 0 0 1-1.045.387 2.396 2.396 0 0 1-.775-.184l-2.169-.764a.172.172 0 0 0-.161.116.175.175 0 0 0 .006.132.358.358 0 0 0 .099.088l2.11.753a2.677 2.677 0 0 0 .928.203h.004a2.6 2.6 0 0 0 1.176-.431l.297-.17.255-.158a1.059 1.059 0 0 1 .565.204.387.387 0 0 0 .04.107.25.25 0 0 1 .036.12c-.014.208-.276.347-.503.445l-.974.425a4.573 4.573 0 0 1-1.724.486 1.699 1.699 0 0 1-.59-.1 3.239 3.239 0 0 1-1.172-.939 3.684 3.684 0 0 0-1.253-1.005 2.385 2.385 0 0 1-1.17-1.768c-.06-.234-.109-.478-.155-.713a5.907 5.907 0 0 0-.47-1.585 5.76 5.76 0 0 0-.433-.683 4.607 4.607 0 0 1-.477-.789 2.668 2.668 0 0 1 .142-2.238 4.3 4.3 0 0 1 1.635-1.658 1.798 1.798 0 0 1 .897-.318.836.836 0 0 1 .232.032 1.756 1.756 0 0 1 .802.716 4.454 4.454 0 0 0 .426.504 3.915 3.915 0 0 0 .544.41zm-3.93 16.138a14.856 14.856 0 0 0 2.828.464 5.733 5.733 0 0 0-.694 1.526 5.697 5.697 0 0 0-2.721 3.607 6.077 6.077 0 0 0 .52 4.332 8.568 8.568 0 0 1-.618.023 11.092 11.092 0 0 1-4.19-.896l1.249-1.89a.685.685 0 0 0-.185-.944l-.214-.145zm1.263-21.474a9.039 9.039 0 0 0 1.324 2.604.239.239 0 0 0-.003.102 1.939 1.939 0 0 1 .189.975 1.294 1.294 0 0 0-.518-.307 1.222 1.222 0 0 0-.332-.046 2.166 2.166 0 0 0-1.075.367 4.644 4.644 0 0 0-1.762 1.796 3.02 3.02 0 0 0-.153 2.531 3.201 3.201 0 0 0 .24.445.798.798 0 0 1-.049.002c-.177 0-.547-.085-1.033-.653-1.022-1.192-4.762-4.872-8.47-6.115a.172.172 0 0 0-.055.335c3.523 1.19 7.139 4.716 8.258 5.995l-.008.014a8.002 8.002 0 0 1-6.42 5.294.97.97 0 0 0-.206.066c-.412-.535-3.887-5.3-3.936-13.405zm.993 13.997a5.572 5.572 0 0 1 .702.67 6.333 6.333 0 0 0 .696.666l-7.964 12.024-1.573-1.066zm.475 24.343a18.815 18.815 0 0 0-.445-1.982l.003.002a17.159 17.159 0 0 0 .846-2.115 19.931 19.931 0 0 0 1.722 4.564c-.766-.164-1.496-.34-2.126-.469zm20.555 1.583c-.666.044-2.477.146-4.893.146-.826 0-1.724-.012-2.62-.02a21.095 21.095 0 0 1-4.103-5.805 21.393 21.393 0 0 1-1.56-4.385c.043-.185 1.07-4.38 4.168-6.158a6.356 6.356 0 0 0-.653.899.173.173 0 0 0 .018.196.34.34 0 0 0 .132.061l.06-.01a5.776 5.776 0 0 1 1.97-.404 4.654 4.654 0 0 1 2.713 1.043 9.473 9.473 0 0 0 2.033 1.095 3.769 3.769 0 0 0 1.292.22 3.534 3.534 0 0 0 1.927-.525.33.33 0 0 0 .094.037 1.999 1.999 0 0 1 1.753.924c1.886 3.02-2.225 12.34-2.331 12.686zm-1.437-13.467a3.445 3.445 0 0 1-1.178-.2 9.215 9.215 0 0 1-1.967-1.061 4.99 4.99 0 0 0-2.887-1.1 5.575 5.575 0 0 0-1.618.266 4.665 4.665 0 0 1 2.88-2 2.89 2.89 0 0 1 .35-.022 4.074 4.074 0 0 1 2.835 1.436.362.362 0 0 0 .122.051.35.35 0 0 0 .122-.05.195.195 0 0 0 .002-.244 6.087 6.087 0 0 0-1.132-.91 4.21 4.21 0 0 1 1.203-.19 2.578 2.578 0 0 1 1.03.198 2.228 2.228 0 0 1 1.19 1.374.17.17 0 0 0 .182.106l.038-.001a.174.174 0 0 0 .099-.088.368.368 0 0 0 .006-.133 2.679 2.679 0 0 0-.948-1.315 3.88 3.88 0 0 1 .778-.085 2.368 2.368 0 0 1 .826.135 1.611 1.611 0 0 1 .98 1.138 1.813 1.813 0 0 1-.325 1.613 3.44 3.44 0 0 1-2.588 1.082zm2.181-4.096a.934.934 0 0 0-.128-.059 2.734 2.734 0 0 0-.954-.158 4.931 4.931 0 0 0-1.16.154 10.015 10.015 0 0 1 2.269-5.469 18.984 18.984 0 0 1 2.674.256.122.122 0 0 1 .098.1.107.107 0 0 1-.048.117 5.905 5.905 0 0 0-2.75 5.06zM42.021 130a1.13 1.13 0 1 1 1.13-1.13 1.132 1.132 0 0 1-1.13 1.13z"/><path class="cls-12" d="m58.789 126.555-1.344-1.597-1.451 1.5 1.344 1.598 1.451-1.501zm-7.974-.653-1.124-1.759-1.635 1.298 1.124 1.759 1.635-1.298zm-7.649-.379v-.009l.681-2.78.991 1.544-1.636 1.3-.036-.055z"/><path class="cls-1" d="M42.59 81.77a2.207 2.207 0 0 0-.05-.25h-14.3v-3.04h14.3a2.216 2.216 0 0 0 .05-.25h-14.6v3.54zm17.87-.25a2.207 2.207 0 0 0-.05.25h14.6v-3.54h-14.6a2.216 2.216 0 0 0 .05.25h14.3v3.04zm-1.986-7.196a2.024 2.024 0 0 1-.039-1.048c.002-.007.008-.01.011-.016a8.201 8.201 0 0 1-.187-.24 4.046 4.046 0 0 0-.401-.477 3.517 3.517 0 0 0-.509-.381c-.12-.08-.244-.162-.36-.254a4.73 4.73 0 0 1-1.367-2.076l-.074-.192c-.04-.106-.081-.213-.124-.32l-1.327 2.066a9.023 9.023 0 0 1 4.377 2.938z"/><path class="cls-3" d="M59.245 73.651a1.516 1.516 0 0 0 1.195-.294 4.389 4.389 0 0 0 1.665-1.69 2.753 2.753 0 0 0 .145-2.308 4.669 4.669 0 0 0-.486-.804 4.38 4.38 0 0 1-.89-2.237 12.607 12.607 0 0 0-.155-.717 2.455 2.455 0 0 0-1.22-1.824 3.621 3.621 0 0 1-1.226-.988 3.294 3.294 0 0 0-1.2-.956 3.26 3.26 0 0 0-2.376.387l-.974.425c-.248.107-.535.263-.552.515a.314.314 0 0 0 .045.16l.008.004a.088.088 0 0 1 .024.065.938.938 0 0 0 .64.289l.003.002.596-.341a2.539 2.539 0 0 1 1.137-.42c.012-.002.026-.002.038-.002a2.61 2.61 0 0 1 .864.2l2.11.754a.09.09 0 0 1-.06.17l-2.11-.754a2.464 2.464 0 0 0-.803-.188h-.033a2.357 2.357 0 0 0-1.052.398l-.923.528a1.972 1.972 0 0 0-.778.645.644.644 0 0 0 .093.795c.137-.081.276-.16.41-.227l1.006-.512a1.47 1.47 0 0 1 .652-.209 1.439 1.439 0 0 1 .48.11c.672.24 1.344.503 1.998.78a.09.09 0 0 1 .048.12.089.089 0 0 1-.119.048 38.808 38.808 0 0 0-1.988-.779 1.285 1.285 0 0 0-.419-.098 1.31 1.31 0 0 0-.568.189l-1.009.513a2.705 2.705 0 0 0-.918.644c-.254.316-.294.57-.14.817a2.4 2.4 0 0 1 1.09-.635 4.303 4.303 0 0 1 2.828.44.092.092 0 0 1 .046.12.091.091 0 0 1-.12.047 4.141 4.141 0 0 0-2.71-.432 1.946 1.946 0 0 0-1.525 1.982c.03.2.138.452.343.5a.568.568 0 0 0 .52-.271c.051-.067.096-.138.141-.209a1.739 1.739 0 0 1 .306-.392 1.248 1.248 0 0 1 1.658.21 3.75 3.75 0 0 1 .738 1.354l.074.192a4.565 4.565 0 0 0 1.308 1.998c.112.088.232.168.35.246a3.81 3.81 0 0 1 .533.402 4.26 4.26 0 0 1 .42.497 1.796 1.796 0 0 0 .842.741z"/><path class="cls-4" d="m69.391 42.217-.309.463-.518.79-2.044 3.09a10.933 10.933 0 0 0-5.36-.917 6.99 6.99 0 0 0-3.461 1.344c.027-.209.063-.563.145-1.017.064-.382.154-.845.282-1.363a17.312 17.312 0 0 1 1.408-3.897 12.102 12.102 0 0 1 .845-1.436v-.009a.009.009 0 0 0 .009-.01.069.069 0 0 0 .018-.026c.018-.018.027-.046.045-.064a17.695 17.695 0 0 1 5.969-5.379 7.131 7.131 0 0 0 .045 3.616 8.751 8.751 0 0 0 .41 1.163 11.396 11.396 0 0 0 1.843 2.934c.319.364.564.618.673.718z"/><path class="cls-5" d="m66.875 38.565-7.34 2.144a12.102 12.102 0 0 1 .845-1.435v-.01a.009.009 0 0 0 .009-.009.069.069 0 0 0 .018-.027c.018-.018.027-.045.045-.063l6.014-1.763a8.751 8.751 0 0 0 .409 1.163zm2.516 3.652-.309.463-11.238 3.29c.064-.383.155-.846.282-1.364L68.72 41.5c.318.364.563.618.672.718z"/><path class="cls-5" d="m61.666 40.566.006-.01.006-.01.018-.028a16.535 16.535 0 0 1 4.541-4.527 6.929 6.929 0 0 1 .182-2.207 17.68 17.68 0 0 0-6.013 5.445.319.319 0 0 1-.017.028l-.007.01-.006.01a17.979 17.979 0 0 0-2.675 7.708 6.695 6.695 0 0 1 1.669-.915 16.38 16.38 0 0 1 2.296-5.504z"/><path class="cls-6" d="m63.51 38.268-3.058.897a.208.208 0 0 0-.028.039l-.018.025a.319.319 0 0 1-.017.028l-.007.01-.003.005v.002c-.153.223-.297.45-.433.68l-.048.085c-.128.221-.25.445-.364.67l2.543-.742a14.329 14.329 0 0 1 1.434-1.699zm-3.569 5.806-1.815.532c-.127.518-.218.981-.282 1.363l1.671-.489c.117-.444.257-.917.426-1.406z"/><path class="cls-2" d="m45.945 70.769 1.457-2-1.454-1.997-1.431 2.083 1.428 1.914z"/><path class="cls-7" d="M42.206 77.36h.69A9.014 9.014 0 0 1 51.48 71a.848.848 0 0 1 .066-.13l1.303-1.968a.608.608 0 0 1-.537.157.738.738 0 0 1-.479-.65 1.771 1.771 0 0 1 .445-1.42c-.005-.004-.012-.003-.016-.008a.825.825 0 0 1 .139-1.052 1.871 1.871 0 0 1 .418-.366.834.834 0 0 1-.1-.985 2.16 2.16 0 0 1 .846-.712l.09-.052a.975.975 0 0 1-.519-.294 14.7 14.7 0 0 1-6.295 2.959 6.98 6.98 0 0 1-.776.144l1.523 2.092a.09.09 0 0 1 0 .106l-1.568 2.154a.089.089 0 0 1-.073.038.09.09 0 0 1-.073-.037l-1.541-2.066a.09.09 0 0 1-.002-.106l1.483-2.157a7.048 7.048 0 0 1-.677.041 6.878 6.878 0 0 1-5.212-2.343 6.693 6.693 0 0 1-.542-.716c-.356 3.835-.402 10.395 2.823 13.73z"/><path class="cls-1" d="M59.343 63.49a1.794 1.794 0 0 0 .224.118 2.615 2.615 0 0 1 1.327 1.947c.062.24.111.488.158.729a4.215 4.215 0 0 0 .86 2.167c.035.05.068.102.103.151.095-.049.611-.239 1.354.518a8.262 8.262 0 0 1 6.61-5.44.728.728 0 0 0 .536-.44.763.763 0 0 0-.067-.717c-.21-.32-2.076-3.077-3.856-3.18.266 1.452-.694 3.24-2.886 5.33a.091.091 0 0 1-.063.024.09.09 0 0 1-.066-.027.091.091 0 0 1 .003-.129c2.248-2.141 3.191-3.947 2.804-5.366-.424-1.553-2.35-2.142-2.701-2.238z"/><path class="cls-8" d="M75.094 39.379a.692.692 0 0 0-.187-.95l-.584-.398a.669.669 0 0 0-.936.188l-1.368 2.067 1.707 1.159z"/><path class="cls-4" d="M65.27 48.783a.423.423 0 0 0 .114.58l2.596 1.761h.001a.399.399 0 0 0 .306.063.405.405 0 0 0 .261-.176l5.637-8.533a.422.422 0 0 0-.113-.58l-2.229-1.512-.367-.249a.412.412 0 0 0-.306-.063.41.41 0 0 0-.264.177l-1.32 1.999-2.6 3.937z"/><path class="cls-8" d="M57.661 61.964a5.644 5.644 0 0 1 .746.702 5.075 5.075 0 0 0 .783.73l.002-.006 8.228-12.425-1.708-1.159zm-2.353 7.203a.084.084 0 0 1 .038-.026 2.587 2.587 0 0 0-.496-.793 1.14 1.14 0 0 0-1.222-.294l-1.932 2.918c-.008.011-.012.025-.019.037a8.956 8.956 0 0 1 2.236.33z"/><path class="cls-9" d="M47.282 57.755a14.38 14.38 0 0 1-6.989 2.806c1.024.673 5.899 3.223 14.356-2.414-.058-.41-.114-.71-.146-.86a4.9 4.9 0 0 1-3.09 2.039.533.533 0 0 1-.084.007.445.445 0 0 1-.34-.156.512.512 0 0 1-.1-.489 23.288 23.288 0 0 0 .62-2.424 7.702 7.702 0 0 1-4.213 1.497c-.006 0-.01-.005-.014-.006z"/><path class="cls-1" d="M57.135 61.663a1.986 1.986 0 0 1 .38.192l3.839-5.796a13.615 13.615 0 0 0-3.01-.467c-.008 0-.012-.006-.02-.008-.03.039-.054.083-.086.12a3.666 3.666 0 0 1-2.928 1.23c-.179 0-.364-.012-.553-.028-.04.064-.077.136-.118.197.003.006.011.01.013.017a17.619 17.619 0 0 1 .32 4.788 3.02 3.02 0 0 1 2.163-.245z"/><path class="cls-10" d="M58.172 43.64a20.568 20.568 0 0 0-2.009-5.316c-.005-.008-.003-.018-.006-.026a50.893 50.893 0 0 0-3.766-.616 24.939 24.939 0 0 1 3.753 13.328 11.648 11.648 0 0 1-1.278 5.713 3.67 3.67 0 0 0 3.235-1.137c2.15-2.503.887-8.29.707-9.06a6.523 6.523 0 0 0-1.16.73.09.09 0 0 1-.057.02.085.085 0 0 1-.042-.01.09.09 0 0 1-.048-.087 19.096 19.096 0 0 1 .686-3.527c-.003-.006-.014-.005-.015-.012zm-6.277 7.378a20.584 20.584 0 0 0-.416-3.201 13.37 13.37 0 0 1-.847 2.162l.004.007a15.345 15.345 0 0 1-.153 3.887 17.612 17.612 0 0 0 1.412-2.855zm-11.047 4.091a2.969 2.969 0 0 1-.945-.162 10.053 10.053 0 0 1-2.298 5.59 18.492 18.492 0 0 0 2.368-.119.085.085 0 0 1 .09-.011 16.48 16.48 0 0 0 1.795-.317v-.002a12.148 12.148 0 0 0 1.251-5.027 3.73 3.73 0 0 1-.672-.262 4.55 4.55 0 0 1-1.59.31z"/><path class="cls-3" d="M51.914 51.43a15.09 15.09 0 0 1-4.406 6.14 7.506 7.506 0 0 0 3.952-1.495.082.082 0 0 1 .085-.009 21.22 21.22 0 0 0 .369-4.636z"/><path class="cls-10" d="M45.979 37.18a21.61 21.61 0 0 1 4.01 5.732 21.325 21.325 0 0 1 1.576 4.46.091.091 0 0 1 .007.028 20.745 20.745 0 0 1 .501 3.558.087.087 0 0 1 .011.078l-.006.015a21.916 21.916 0 0 1-1.016 7.692.327.327 0 0 0 .064.314.26.26 0 0 0 .254.09c1.348-.244 4.495-1.526 4.582-8.144a24.772 24.772 0 0 0-3.797-13.348 70.744 70.744 0 0 0-6.186-.475zm.374 17.068a3.9 3.9 0 0 1-1.972.93 3.04 3.04 0 0 1-.391.024 3.11 3.11 0 0 1-.703-.088 12.495 12.495 0 0 1-1.198 4.921 13.905 13.905 0 0 0 4.241-1.833c.001-.011-.002-.023.004-.033a8.54 8.54 0 0 0 .67-4.208 6.1 6.1 0 0 1-.65.287zm12.621-7.808a17.515 17.515 0 0 1 .29 7.078 5.434 5.434 0 0 0 2.493-3.374 5.744 5.744 0 0 0-.594-4.313 7.007 7.007 0 0 0-2.19.609z"/><path class="cls-9" d="M54.712 30.253a1.37 1.37 0 0 1-.29-.032 4.44 4.44 0 0 0 2.537 2.45 3.894 3.894 0 0 0 2.594-.212 9.033 9.033 0 0 0-3.472-3.867 1.425 1.425 0 0 1 .025.25 1.404 1.404 0 0 1-1.394 1.411z"/><path class="cls-3" d="M37.605 51.067a4.012 4.012 0 0 1 3.24-.293 9.415 9.415 0 0 1 2.021 1.089 4.424 4.424 0 0 0 4.753.645.09.09 0 0 1 .11.13 6.637 6.637 0 0 1-.96 1.229c3.418-1.624 4.545-6.09 4.625-6.43a21.505 21.505 0 0 0-5.686-10.267 81.725 81.725 0 0 0-7.574.103c-.244.55-4.295 9.77-2.396 12.811a2.076 2.076 0 0 0 1.82.962.084.084 0 0 1 .047.02zm2.014-8.424a.09.09 0 0 1 .126.025c.062.091 1.565 2.226 5.393.3a.088.088 0 0 1 .122.04.09.09 0 0 1-.04.122 6.625 6.625 0 0 1-2.96.81 3.25 3.25 0 0 1-2.666-1.17.09.09 0 0 1 .025-.127z"/><path class="cls-1" d="M41.962 77.36c-4.515-4.895-2.478-16.114-2.363-16.716-.604.055-1.182.078-1.724.078a19.386 19.386 0 0 1-2.435-.155l-.001.003c-3.4 4.17-.619 12.154-.59 12.235a.09.09 0 0 1-.055.115.073.073 0 0 1-.03.005.09.09 0 0 1-.086-.06c-.024-.068-2.008-5.795-.575-10.143a8.576 8.576 0 0 0-4.108 4.45c-1.114 2.795-.786 6.222.97 10.188z"/><path class="cls-10" d="m39.725 54.894-.017-.005c-.01-.004-.017-.012-.027-.016a3.573 3.573 0 0 1-2.13.028 1.737 1.737 0 0 1-.242-.127 5.867 5.867 0 0 1-2.708 5.134.186.186 0 0 0-.085.202.2.2 0 0 0 .165.164 19.077 19.077 0 0 0 2.686.257 9.778 9.778 0 0 0 2.358-5.637z"/><path class="cls-10" d="M39.452 54.742a2.538 2.538 0 0 1-1.076-1.38.09.09 0 0 1 .055-.116.087.087 0 0 1 .115.055 2.304 2.304 0 0 0 1.234 1.421 3.604 3.604 0 0 0 2.462-.045 5.952 5.952 0 0 1-1.269-.99.091.091 0 0 1 .13-.127 3.913 3.913 0 0 0 3.254 1.437 4.961 4.961 0 0 0 3.075-2.232 4.52 4.52 0 0 1-4.665-.75 9.306 9.306 0 0 0-1.984-1.07 3.677 3.677 0 0 0-3.857.905 1.895 1.895 0 0 0-.342 1.688 1.691 1.691 0 0 0 1.03 1.192 3.216 3.216 0 0 0 1.838.012zm16.943-16.394a19.797 19.797 0 0 1 1.888 4.981 17.26 17.26 0 0 1 .926-2.376c-.005-.008-.018-.007-.02-.017a27.03 27.03 0 0 1-.415-2.01 38.161 38.161 0 0 0-2.379-.578z"/><path class="cls-2" d="M70.014 63.858a8.082 8.082 0 0 0-6.483 5.35c-.006.02-.029.022-.045.033.017.018.032.03.049.049 1.01 1.178 4.703 4.815 8.298 6.03a.09.09 0 0 1-.03.176.082.082 0 0 1-.028-.005c-3.634-1.227-7.36-4.894-8.379-6.082-.68-.795-1.156-.696-1.277-.653a3.462 3.462 0 0 1 .298.532 2.934 2.934 0 0 1-.15 2.462 4.556 4.556 0 0 1-1.733 1.763 2.081 2.081 0 0 1-1.032.356 1.098 1.098 0 0 1-.309-.044 1.347 1.347 0 0 1-.6-.402 1.945 1.945 0 0 0 .174 1.183.085.085 0 0 1-.015.089 8.965 8.965 0 0 1 1.35 2.665h14.151c-.028-8.644-3.95-13.535-3.995-13.59a.915.915 0 0 1-.244.088z"/><path class="cls-1" d="M51.498 71.181a8.82 8.82 0 1 0 8.82 8.82 8.83 8.83 0 0 0-8.82-8.82zm0 14.84L46.066 80l5.432-6.02L56.931 80z"/><path class="cls-2" d="M30.768 77.36a18.773 18.773 0 0 1-1.46-4.915 8.723 8.723 0 0 0-.6 4.914z"/><path class="cls-11" d="M53.5 28.842a1.212 1.212 0 1 0 1.212-1.23 1.222 1.222 0 0 0-1.211 1.23z"/><path class="cls-10" d="M50.236 54.262v-.001a14.85 14.85 0 0 0 .235-3.96 8.58 8.58 0 0 1-3.301 3.568.085.085 0 0 1 .015.034 9.49 9.49 0 0 1-.578 4.116 13.547 13.547 0 0 0 3.629-3.757z"/><circle class="cls-11" cx="60.979" cy="31.13" r="1.212"/><path class="cls-9" d="M47.337 27.654a1.4 1.4 0 0 1-1.329 1.404 4.164 4.164 0 0 0 2.639 2.394c2.29.61 4.92-.996 5.456-1.347a1.412 1.412 0 0 1 .051-2.553 15.207 15.207 0 0 0-7.078-1.16c-.154.01-.3.025-.45.04a1.409 1.409 0 0 1 .71 1.222z"/><path class="cls-11" d="m60.36 32.37-.526 2.107v.009l-.681 2.78-.364 1.472a46.21 46.21 0 0 0-6.54-1.254.028.028 0 0 0-.019-.01 71.072 71.072 0 0 0-6.477-.48c-.01 0-.018-.01-.028 0a77.78 77.78 0 0 0-7.849.117v-8.049h.3a4.773 4.773 0 0 0 3.716 2.272 5.638 5.638 0 0 0 3.943-2.19 4.36 4.36 0 0 0 2.761 2.48c2.426.645 5.106-1.026 5.633-1.38a4.595 4.595 0 0 0 2.68 2.598 4.386 4.386 0 0 0 3.352-.527c.036.018.064.036.1.054z"/><path class="cls-7" d="M39.434 63.37a6.077 6.077 0 0 0 .63.858 6.771 6.771 0 0 0 6.733 2.077 14.505 14.505 0 0 0 6.242-2.938.486.486 0 0 1-.048-.219c.023-.35.364-.542.66-.67l.299-.13a.086.086 0 0 1 .014-.072 4.09 4.09 0 0 0 .805-1.55.089.089 0 0 1 .052-.058 19.083 19.083 0 0 0-.145-2.323c-4.174 2.765-7.493 3.555-9.912 3.555a7.98 7.98 0 0 1-4.741-1.307l-.246.03c.001.008.007.015.005.024a32.966 32.966 0 0 0-.371 2.704c.007.007.017.009.023.019z"/><ellipse class="cls-11" cx="45.944" cy="27.654" rx="1.212" ry="1.23"/><path class="cls-11" d="M39.001 27.654a1.212 1.212 0 1 0-1.212 1.23A1.223 1.223 0 0 0 39 27.654z"/><path class="cls-9" d="M41.892 31.154h.003a5.555 5.555 0 0 0 3.793-2.116 1.413 1.413 0 0 1-.72-2.39c-4.123.73-5.889 2.537-6.18 2.869a4.211 4.211 0 0 0 3.104 1.637z"/><path class="cls-1" d="m46.066 80.001 5.433 6.019 5.432-6.019-5.432-6.02-5.433 6.02z"/><path class="cls-12" d="m39.357 33.841-1.399 1.553-.082-.09v-2.917l.082-.09 1.399 1.544z"/><path d="M42.26 44.022a6.764 6.764 0 0 0 2.996-.818.17.17 0 0 0 .087-.1.364.364 0 0 0-.01-.131.155.155 0 0 0-.16-.082.52.52 0 0 0-.07.005 6.515 6.515 0 0 1-2.872.793 2.91 2.91 0 0 1-2.417-1.065.172.172 0 0 0-.144-.078.33.33 0 0 0-.097.03.172.172 0 0 0-.046.24 3.357 3.357 0 0 0 2.733 1.206z"/><path d="M76.378 77.278h-1.863c-.05-8.15-3.517-12.974-3.99-13.594a1.03 1.03 0 0 0 .145-1.305c-.354-.539-2.218-3.23-4.032-3.273a3.922 3.922 0 0 0-2.72-2.376l3.675-5.548.24.162a.662.662 0 0 0 .505.102.661.661 0 0 0 .43-.29l5.636-8.532a.688.688 0 0 0-.185-.943l-.23-.157 1.323-2a.955.955 0 0 0-.256-1.314l-.586-.398a.935.935 0 0 0-1.303.261l-1.32 1.997-.224-.152a.673.673 0 0 0-.376-.114.707.707 0 0 0-.128.012.672.672 0 0 0-.432.29l-1.207 1.827c-.812-.797-3.909-4.176-2.754-8.28a.177.177 0 0 0-.057-.18.14.14 0 0 0-.098-.029.658.658 0 0 0-.09.008 18.095 18.095 0 0 0-6.33 5.687 12.684 12.684 0 0 0-.8 1.344c-.213-.935-.32-1.607-.326-1.608l1.562-6.328a1.395 1.395 0 0 0 .39.058 1.474 1.474 0 1 0-1.473-1.475 1.46 1.46 0 0 0 .453 1.053c-.06.032-.125.064-.196.098a9.245 9.245 0 0 0-3.68-3.99 1.468 1.468 0 0 0-1.369-.941.663.663 0 0 0-.26.04 15.152 15.152 0 0 0-6.234-1.302q-.577 0-1.16.04c-.278.02-.551.043-.786.073a1.485 1.485 0 0 0-.328-.04.951.951 0 0 0-.644.207.559.559 0 0 0-.121-.027c-4.167.675-6.048 2.416-6.511 2.914a9.9 9.9 0 0 1-.217-.27 1.48 1.48 0 1 0-.834.144v8.077a.172.172 0 0 0 .054.126.465.465 0 0 0 .13.046c-.636 1.454-4.16 9.844-2.286 12.846a2.236 2.236 0 0 0 1.66 1.04 2.635 2.635 0 0 0-.45.416 2.156 2.156 0 0 0-.395 1.923 2.08 2.08 0 0 0 .713 1.122 5.573 5.573 0 0 1-2.583 4.96.448.448 0 0 0-.202.476.467.467 0 0 0 .38.373c.135.023.286.047.45.07a7.142 7.142 0 0 0-.976 1.838l-.034.001a8.792 8.792 0 0 0-4.327 4.629 10.08 10.08 0 0 0-.56 5.013 8.86 8.86 0 0 0-.762 5.193h-1.807a.172.172 0 0 0-.172.172v5.106a.172.172 0 0 0 .172.172h16.215a9.038 9.038 0 0 0 8.661 6.355 9.156 9.156 0 0 0 8.663-6.355h16.217a.172.172 0 0 0 .172-.172V77.45a.172.172 0 0 0-.172-.172zm-38.59-50.772a1.148 1.148 0 1 1-1.13 1.148 1.141 1.141 0 0 1 1.13-1.148zm34.343 13.758 1.324-2a.59.59 0 0 1 .377-.256.652.652 0 0 1 .116-.01.576.576 0 0 1 .329.1l.584.397a.61.61 0 0 1 .164.838l-1.32 1.997zM51.498 88.738A8.738 8.738 0 1 1 60.236 80a8.747 8.747 0 0 1-8.738 8.738zM34.601 72.891c.02.064.077.108.186.108l.032-.002a.17.17 0 0 0 .1-.086.375.375 0 0 0 .007-.134c-.029-.079-2.752-7.982.546-12.123a19.64 19.64 0 0 0 2.403.15c.544 0 1.09-.023 1.623-.07-.223 1.247-1.952 11.722 2.281 16.545l-10.739.048c-1.748-3.947-2.073-7.352-.969-10.125a8.503 8.503 0 0 1 3.896-4.322c-1.324 4.339.614 9.958.634 10.01zm21.584-44.132a8.915 8.915 0 0 1 3.259 3.656 4.197 4.197 0 0 1-1.536.312 3.195 3.195 0 0 1-.925-.134 4.267 4.267 0 0 1-2.414-2.266c.048.005.096.008.143.008a1.485 1.485 0 0 0 1.476-1.493 1.15 1.15 0 0 0-.003-.083zm-1.473 1.231a1.148 1.148 0 1 1 1.132-1.148 1.141 1.141 0 0 1-1.132 1.148zm-1.474-1.148a1.482 1.482 0 0 0 .706 1.268 8.756 8.756 0 0 1-4.202 1.397 4.19 4.19 0 0 1-1.074-.134 4.038 4.038 0 0 1-2.533-2.244 1.488 1.488 0 0 0 .724-2.637l.223-.02q.556-.037 1.108-.037a15.006 15.006 0 0 1 5.774 1.123 1.497 1.497 0 0 0-.726 1.284zm-7.294-.04a1.148 1.148 0 1 1 1.13-1.148 1.141 1.141 0 0 1-1.13 1.148zm-1.187-2.031a1.496 1.496 0 0 0 .782 2.316 5.353 5.353 0 0 1-3.647 1.986 4.103 4.103 0 0 1-2.994-1.556c.406-.439 2.1-2.031 5.859-2.746zm-2.862 4.646a5.625 5.625 0 0 0 3.924-2.124 4.365 4.365 0 0 0 2.76 2.413 4.612 4.612 0 0 0 1.178.148 9.028 9.028 0 0 0 4.436-1.492 4.669 4.669 0 0 0 2.69 2.561 3.522 3.522 0 0 0 1.03.151 4.365 4.365 0 0 0 2.307-.685l.045.024-1.535 6.226a45.994 45.994 0 0 0-6.494-1.243 71.198 71.198 0 0 0-6.471-.486l-.033-.003v.081l-.006-.08c-.956-.03-1.86-.042-2.691-.042a77.37 77.37 0 0 0-5.074.155v-7.887l.152-.021a4.843 4.843 0 0 0 3.782 2.304zm18.58 7.856a17.37 17.37 0 0 1 5.821-5.326c-.94 4.235 2.397 7.703 2.99 8.28l-2.793 4.229a11.469 11.469 0 0 0-4.385-.946 8.925 8.925 0 0 0-.96.051 7.054 7.054 0 0 0-3.345 1.249 18.058 18.058 0 0 1 2.673-7.537zm10.773.794v.082a.323.323 0 0 1 .181.056l2.596 1.761a.339.339 0 0 1 .092.467l-5.637 8.534a.357.357 0 0 1-.272.147.32.32 0 0 1-.181-.057l-2.597-1.76a.34.34 0 0 1-.091-.468l5.635-8.532a.334.334 0 0 1 .211-.143zm-7.725 24.415a.196.196 0 0 0-.005.245.173.173 0 0 0 .125.052.367.367 0 0 0 .12-.047c2.151-2.05 3.135-3.831 2.927-5.299 1.756.205 3.61 3.013 3.69 3.135a.68.68 0 0 1 .06.64.648.648 0 0 1-.478.393 8.36 8.36 0 0 0-6.63 5.368 1.548 1.548 0 0 0-1.038-.505 1.099 1.099 0 0 0-.256.033l.003-.003-.07-.103a5.4 5.4 0 0 1-.4-.63 5.701 5.701 0 0 1-.439-1.493c-.047-.241-.095-.49-.158-.734a2.686 2.686 0 0 0-1.376-2.001 1.074 1.074 0 0 1-.138-.07l4.259-6.43c.472.136 2.194.727 2.587 2.164.378 1.388-.558 3.166-2.783 5.285zM28.777 77.278a8.635 8.635 0 0 1 .493-4.535 19.178 19.178 0 0 0 1.373 4.535zm28.814-29.92a.365.365 0 0 0 .109-.037 6.329 6.329 0 0 1 1.052-.675c.227 1.013 1.338 6.499-.714 8.887a3.424 3.424 0 0 1-2.733 1.124c-.1 0-.201-.002-.305-.008a12.052 12.052 0 0 0 1.225-5.632 25.237 25.237 0 0 0-3.679-13.234c1.264.165 2.47.364 3.55.588a21.661 21.661 0 0 1 2.024 5.262l-.011-.004a18.982 18.982 0 0 0-.69 3.544c-.005.069.031.133.172.185zm.734 26.663a9.056 9.056 0 0 0-4.1-2.681l1.181-1.84.14.362a4.803 4.803 0 0 0 1.392 2.111c.116.09.24.174.367.258a3.386 3.386 0 0 1 .496.372 3.873 3.873 0 0 1 .394.467.96.96 0 0 0 .161.186 1.969 1.969 0 0 0-.03.765zm3.353-23.897a5.37 5.37 0 0 1-2.29 3.221 17.71 17.71 0 0 0-.319-6.86 6.975 6.975 0 0 1 2.051-.568 5.692 5.692 0 0 1 .558 4.207zm-8.016 18.004a.79.79 0 0 1 .331-.068 1.157 1.157 0 0 1 .798.345 2.206 2.206 0 0 1 .448.718l-1.363 2.121a9.1 9.1 0 0 0-2.056-.313zm-7.377-9.995a13.764 13.764 0 0 1-4.045 1.778 12.603 12.603 0 0 0 1.126-4.696 2.987 2.987 0 0 0 1.026.043 3.877 3.877 0 0 0 1.99-.933c.188-.07.37-.148.545-.234a9.095 9.095 0 0 1-.642 4.042zm.962-4.213a8.387 8.387 0 0 0 3.16-3.33 14.894 14.894 0 0 1-.24 3.626 13.57 13.57 0 0 1-3.383 3.577 10.13 10.13 0 0 0 .463-3.873zm3.459-3.904a13.723 13.723 0 0 0 .758-1.867 21.619 21.619 0 0 1 .355 2.84 17.844 17.844 0 0 1-1.19 2.481 14.81 14.81 0 0 0 .077-3.454zm-6.089 18.837 1.333-1.94 1.351 1.856-1.357 1.863zm6.89-12.876a.293.293 0 0 0-.097.034 7.332 7.332 0 0 1-3.646 1.453 15.194 15.194 0 0 0 4.077-5.652 23.176 23.176 0 0 1-.334 4.165zm-4.206 1.865a7.823 7.823 0 0 0 4.085-1.385 23.296 23.296 0 0 1-.575 2.207.594.594 0 0 0 .118.567.525.525 0 0 0 .4.183l.097-.008a4.95 4.95 0 0 0 3.034-1.925c.034.16.08.371.145.597-3.545 2.363-6.856 3.56-9.844 3.56a8.305 8.305 0 0 1-4.233-1.028 14.307 14.307 0 0 0 6.773-2.768zm8.58-6.84c-.086 6.556-3.187 7.823-4.556 8.068a.185.185 0 0 1-.137-.067.244.244 0 0 1-.047-.235 22.093 22.093 0 0 0 1.02-7.703.78.78 0 0 0-.005-.112 21.056 21.056 0 0 0-.51-3.6 21.387 21.387 0 0 0-1.583-4.476 22.072 22.072 0 0 0-3.88-5.608c2.089.078 4.095.234 5.912.428A24.743 24.743 0 0 1 55.881 51zM40 60.678a8.129 8.129 0 0 0 4.765 1.303c3 0 6.313-1.176 9.847-3.497.08.68.128 1.427.174 2.109a.354.354 0 0 0-.095.11 4.029 4.029 0 0 1-.792 1.523.247.247 0 0 0-.02.063l-.26.112c-.316.138-.684.346-.71.74a.484.484 0 0 0 .034.2 14.538 14.538 0 0 1-6.165 2.883 6.821 6.821 0 0 1-1.637.2 6.58 6.58 0 0 1-5.015-2.25c-.397-.463-.604-.816-.631-.816h-.002c.138-1.383.311-2.375.356-2.663zm17.163.907a1.994 1.994 0 0 0-.7-.12 4.013 4.013 0 0 0-1.402.318 16.963 16.963 0 0 0-.338-4.664l.06-.1-.007-.031c.183.016.36.026.534.026a3.75 3.75 0 0 0 2.99-1.257.171.171 0 0 0 .043-.084 13.383 13.383 0 0 1 2.88.436l-3.732 5.634a1.907 1.907 0 0 0-.328-.158zm-17.187-6.53a3.007 3.007 0 0 0 .872.134 3.696 3.696 0 0 0 1.552-.318 3.67 3.67 0 0 0 .625.25 13.022 13.022 0 0 1-1.185 4.889 16.787 16.787 0 0 1-1.786.315l.01.08-.1-.07a18.252 18.252 0 0 1-2.104.12h-.08a10.12 10.12 0 0 0 2.196-5.4zm-.531 8.808c.102.145.24.327.418.535a6.924 6.924 0 0 0 5.275 2.372c.17 0 .34-.011.51-.025l-1.384 2.012a.173.173 0 0 0 .003.201l1.541 2.066a.17.17 0 0 0 .14.07.343.343 0 0 0 .138-.071l1.569-2.154a.174.174 0 0 0 0-.202l-1.444-1.982a6.346 6.346 0 0 0 .65-.127 14.896 14.896 0 0 0 6.27-2.925.987.987 0 0 0 .322.202 2.086 2.086 0 0 0-.805.702.94.94 0 0 0 .048 1.011 1.815 1.815 0 0 0-.36.33.906.906 0 0 0-.16 1.104 1.84 1.84 0 0 0-.424 1.439.814.814 0 0 0 .54.717.547.547 0 0 0 .137.018.595.595 0 0 0 .169-.025l-1.12 1.693c-.027.04-.048.085.002.094a9.04 9.04 0 0 0-8.646 6.361l-.57.023c-3.163-3.272-3.143-9.727-2.82-13.438zm18.051 8.078a4.82 4.82 0 0 1-.345-.242 4.48 4.48 0 0 1-1.283-1.963l-.077-.2a3.78 3.78 0 0 0-.752-1.374 1.562 1.562 0 0 0-1.073-.468 1.036 1.036 0 0 0-.698.255 1.805 1.805 0 0 0-.32.41 2.814 2.814 0 0 1-.138.202.545.545 0 0 1-.424.242h-.012c-.154-.037-.252-.245-.28-.434a1.863 1.863 0 0 1 1.462-1.89 2.745 2.745 0 0 1 .666-.08 5.358 5.358 0 0 1 2.062.522.173.173 0 0 0 .07-.331 5.332 5.332 0 0 0-2.131-.537 3.029 3.029 0 0 0-.75.092 2.45 2.45 0 0 0-1.048.58c-.076-.19-.018-.384.18-.631a2.64 2.64 0 0 1 .892-.623l1.01-.513a1.25 1.25 0 0 1 .53-.18 1.212 1.212 0 0 1 .392.094c.666.24 1.334.502 2.052.79a.172.172 0 0 0 .158-.105.195.195 0 0 0-.092-.226 38.744 38.744 0 0 0-2.002-.784 1.503 1.503 0 0 0-.508-.113 1.534 1.534 0 0 0-.689.217l-1.007.513c-.117.06-.24.127-.362.198a.593.593 0 0 1-.032-.653 1.91 1.91 0 0 1 .748-.615l.923-.528a2.272 2.272 0 0 1 1.045-.387 2.396 2.396 0 0 1 .775.184l2.169.764a.173.173 0 0 0 .161-.116.175.175 0 0 0-.006-.132.357.357 0 0 0-.099-.088l-2.11-.753a2.68 2.68 0 0 0-.928-.203h-.004a2.6 2.6 0 0 0-1.176.431l-.297.17-.255.158a1.059 1.059 0 0 1-.565-.204.387.387 0 0 0-.04-.107.25.25 0 0 1-.036-.12c.014-.208.276-.347.503-.446l.974-.424a4.571 4.571 0 0 1 1.724-.486 1.699 1.699 0 0 1 .59.1 3.24 3.24 0 0 1 1.172.939 3.684 3.684 0 0 0 1.255 1.006 2.385 2.385 0 0 1 1.17 1.768c.06.234.108.478.154.714a5.905 5.905 0 0 0 .47 1.584 5.752 5.752 0 0 0 .433.683 4.607 4.607 0 0 1 .478.789 2.668 2.668 0 0 1-.142 2.238 4.3 4.3 0 0 1-1.635 1.658 1.798 1.798 0 0 1-.897.318.836.836 0 0 1-.233-.032 1.756 1.756 0 0 1-.802-.716 4.444 4.444 0 0 0-.425-.504 3.908 3.908 0 0 0-.545-.41zm3.93-16.139a14.845 14.845 0 0 0-2.828-.464 5.732 5.732 0 0 0 .694-1.526 5.697 5.697 0 0 0 2.72-3.607 6.077 6.077 0 0 0-.52-4.332c.208-.015.415-.022.618-.022a11.095 11.095 0 0 1 4.19.896l-1.248 1.89a.685.685 0 0 0 .184.944l.214.144zm-1.264 21.475a9.038 9.038 0 0 0-1.324-2.604.239.239 0 0 0 .003-.102 1.939 1.939 0 0 1-.189-.975 1.294 1.294 0 0 0 .518.307 1.226 1.226 0 0 0 .332.046 2.165 2.165 0 0 0 1.075-.367 4.644 4.644 0 0 0 1.763-1.796 3.02 3.02 0 0 0 .153-2.531 3.196 3.196 0 0 0-.24-.445.798.798 0 0 1 .048-.002c.178 0 .548.085 1.034.653 1.022 1.192 4.761 4.872 8.47 6.115a.172.172 0 0 0 .055-.335c-3.523-1.19-7.14-4.717-8.258-5.995l.008-.014a8.002 8.002 0 0 1 6.42-5.294.976.976 0 0 0 .206-.066c.411.535 3.887 5.3 3.935 13.405zM59.17 63.28a5.564 5.564 0 0 1-.702-.67 6.343 6.343 0 0 0-.696-.666l7.964-12.024 1.573 1.066zm-.475-24.343a18.822 18.822 0 0 0 .445 1.982l-.003-.002a17.16 17.16 0 0 0-.846 2.115 19.932 19.932 0 0 0-1.722-4.564c.766.164 1.496.34 2.126.469zM38.14 37.355a77.59 77.59 0 0 1 4.893-.146c.826 0 1.724.012 2.62.02a21.097 21.097 0 0 1 4.103 5.805 21.397 21.397 0 0 1 1.56 4.385c-.043.185-1.07 4.38-4.168 6.158a6.36 6.36 0 0 0 .653-.899.173.173 0 0 0-.018-.196.34.34 0 0 0-.132-.061l-.06.01a5.774 5.774 0 0 1-1.97.404 4.654 4.654 0 0 1-2.713-1.043 9.464 9.464 0 0 0-2.033-1.095 3.769 3.769 0 0 0-1.292-.22 3.534 3.534 0 0 0-1.927.525.33.33 0 0 0-.094-.038 1.998 1.998 0 0 1-1.753-.923c-1.886-3.02 2.225-12.34 2.331-12.686zm1.437 13.467a3.447 3.447 0 0 1 1.178.2 9.215 9.215 0 0 1 1.967 1.061 4.99 4.99 0 0 0 2.887 1.1 5.575 5.575 0 0 0 1.618-.266 4.665 4.665 0 0 1-2.88 2 2.89 2.89 0 0 1-.35.021 4.074 4.074 0 0 1-2.835-1.435.362.362 0 0 0-.122-.051.349.349 0 0 0-.122.05.195.195 0 0 0-.002.244 6.092 6.092 0 0 0 1.132.91 4.214 4.214 0 0 1-1.203.19 2.576 2.576 0 0 1-1.03-.198 2.227 2.227 0 0 1-1.19-1.374.17.17 0 0 0-.182-.106c-.013 0-.025 0-.038.002a.174.174 0 0 0-.099.087.368.368 0 0 0-.006.133 2.679 2.679 0 0 0 .948 1.315 3.886 3.886 0 0 1-.778.085 2.368 2.368 0 0 1-.826-.135 1.611 1.611 0 0 1-.98-1.138 1.813 1.813 0 0 1 .325-1.614 3.44 3.44 0 0 1 2.588-1.08zm-2.181 4.095a.91.91 0 0 0 .127.06 2.734 2.734 0 0 0 .955.158 4.926 4.926 0 0 0 1.16-.155 10.015 10.015 0 0 1-2.269 5.47 18.968 18.968 0 0 1-2.674-.256.122.122 0 0 1-.098-.1.107.107 0 0 1 .049-.117 5.905 5.905 0 0 0 2.75-5.06zM60.979 30a1.13 1.13 0 1 1-1.13 1.13 1.132 1.132 0 0 1 1.13-1.13z"/><path class="cls-12" d="m44.211 33.445 1.344 1.597 1.451-1.501-1.344-1.597-1.451 1.501zm7.974.653 1.124 1.759 1.635-1.298L53.82 32.8l-1.635 1.298zm7.649.379v.009l-.681 2.78-.991-1.544 1.636-1.3.036.055z"/><path class="cls-1" d="M60.41 78.23a2.211 2.211 0 0 0 .05.25h14.3v3.04h-14.3a2.211 2.211 0 0 0-.05.25h14.6v-3.54zm-17.87.25a2.211 2.211 0 0 0 .05-.25h-14.6v3.54h14.6a2.211 2.211 0 0 0-.05-.25h-14.3v-3.04z"/><path class="cls-2" d="m51.499 86.227-.285-.65a12.84 12.84 0 0 0-4.511-5.456l-.177-.12.177-.121a12.84 12.84 0 0 0 4.511-5.455l.285-.65.284.65a12.84 12.84 0 0 0 4.512 5.455l.176.121-.176.12a12.84 12.84 0 0 0-4.512 5.456z"/></g></svg>