<svg xmlns="http://www.w3.org/2000/svg" viewBox="0 0 103 160"><defs><style>.cls-1{fill:#fff}.cls-2{fill:#d90000}.cls-3{fill:#53aa1b}.cls-4{fill:#3f8214}.cls-5{fill:#f9c19b}.cls-6{fill:#f49908}.cls-7{fill:#383838}.cls-8{fill:#9b0a0a}.cls-9{fill:#aec6d1}.cls-10{fill:#7c0404}</style></defs><g id="DIAMONDS"><path class="cls-1" d="M0 0h103v160H0z"/><path class="cls-2" d="m22.594 23.757 3.075 3.887h-2.551l-2.112-2.68a10.672 10.672 0 0 1-5.722 1.567 10.584 10.584 0 0 1-7.77-3.157 10.389 10.389 0 0 1-3.168-7.638 11.048 11.048 0 0 1 1.451-5.546 10.463 10.463 0 0 1 3.951-3.995 10.806 10.806 0 0 1 5.485-1.438A10.584 10.584 0 0 1 23 7.907a10.51 10.51 0 0 1 3.162 7.744 10.846 10.846 0 0 1-.867 4.383 11.495 11.495 0 0 1-2.701 3.723zm-1.283-1.62a8.72 8.72 0 0 0 2.709-6.505 8.792 8.792 0 0 0-1.149-4.465 8.57 8.57 0 0 0-3.234-3.194 8.657 8.657 0 0 0-8.78-.01 8.568 8.568 0 0 0-3.213 3.23 9.036 9.036 0 0 0-1.156 4.536 8.475 8.475 0 0 0 2.55 6.241 8.396 8.396 0 0 0 6.16 2.546 8.748 8.748 0 0 0 4.511-1.2l-4.617-5.86h2.515zM15.254 50.76l-.484-1.108a21.84 21.84 0 0 0-7.674-9.277l-.3-.206.3-.206a21.84 21.84 0 0 0 7.674-9.277l.484-1.108.483 1.108a21.84 21.84 0 0 0 7.674 9.277l.3.206-.3.206a21.84 21.84 0 0 0-7.674 9.277zm65.152 85.483-3.075-3.887h2.551l2.112 2.68a11.177 11.177 0 0 1 13.492 1.59 10.389 10.389 0 0 1 3.168 7.638 11.048 11.048 0 0 1-1.451 5.546 10.463 10.463 0 0 1-3.951 3.995 10.806 10.806 0 0 1-5.485 1.438 10.777 10.777 0 0 1-10.929-10.894 10.846 10.846 0 0 1 .867-4.383 11.495 11.495 0 0 1 2.701-3.723zm1.283 1.62a9.198 9.198 0 0 0-1.56 10.97 8.57 8.57 0 0 0 3.234 3.194 8.657 8.657 0 0 0 8.78.01 8.568 8.568 0 0 0 3.213-3.23 9.036 9.036 0 0 0 1.156-4.536 8.702 8.702 0 0 0-8.71-8.787 8.748 8.748 0 0 0-4.512 1.2l4.618 5.86h-2.515zm6.057-28.623.484 1.108a21.84 21.84 0 0 0 7.673 9.277l.3.206-.3.206a21.84 21.84 0 0 0-7.673 9.277l-.484 1.108-.483-1.108a21.84 21.84 0 0 0-7.674-9.277l-.3-.206.3-.206a21.84 21.84 0 0 0 7.674-9.277z"/><path class="cls-3" d="m68.638 94.648-.036-.083a12.812 12.812 0 0 0-.472-1.032 12.242 12.242 0 0 1-.554-1.35 7.787 7.787 0 0 0-.73-1.64l-.527 1.447.35.908a85.572 85.572 0 0 0 1.28 3.137 2.512 2.512 0 0 0 .299-.153 4.131 4.131 0 0 0 .39-1.234z"/><path class="cls-4" d="M72.827 102.113a2.57 2.57 0 0 0-.213.742.967.967 0 0 0 .199.538 1.418 1.418 0 0 0 1.37.384 4.597 4.597 0 0 0 1.281-.537l.151-.081a3.494 3.494 0 0 1 1.541-.513h.002a.094.094 0 0 1 .003.187 3.347 3.347 0 0 0-1.457.49l-.15.083a4.78 4.78 0 0 1-1.335.557 1.624 1.624 0 0 1-1.551-.451 1.045 1.045 0 0 1-.066-.12 2.125 2.125 0 0 0 .393 1.025 2.798 2.798 0 0 0 3.433.69 11.799 11.799 0 0 0 1.38-.75 12.904 12.904 0 0 1 1.288-.712 3.347 3.347 0 0 1 2.87-.152c-.047-1.49-1.73-2.458-2.26-2.726a7.096 7.096 0 0 0-3.298-.838 4.123 4.123 0 0 0-3.03 1.333 3.553 3.553 0 0 0-.522.796c-.004.006-.002.013-.007.019-.009.01-.013.025-.022.036z"/><path class="cls-5" d="M52.473 109.671a9.79 9.79 0 0 0-4.174-1.236 12.24 12.24 0 0 0-3.489.143.09.09 0 0 1-.074.046h-.01c-.014-.001-.022-.011-.033-.018a4.133 4.133 0 0 0-2.29 1.305c-.698.836-2.836 4.172-1.067 11.975a.091.091 0 0 1-.059.104 5.294 5.294 0 0 1 .86.46.088.088 0 0 1 .029-.035c.245-.134.536-.274.834-.408a.986.986 0 0 1-.82-.964 1 1 0 1 1 2 0 .973.973 0 0 1-.178.537c.507-.205.896-.35.904-.352a.103.103 0 0 1 .032-.006.094.094 0 0 1 .033.182c-.01.004-.664.246-1.394.556l-.016.006c-.435.186-.893.394-1.26.591a33.206 33.206 0 0 1 5.12 4.89 17.01 17.01 0 0 1 .577-2.963.095.095 0 0 1 .058-.058.097.097 0 0 1 .082.008 15.76 15.76 0 0 0 4.207 1.65c.05-1.147.501-8.082 3.99-11.821a8.657 8.657 0 0 0-3.862-4.592zm-6.869 9.916a.093.093 0 0 1-.117-.062 7.64 7.64 0 0 0-1.342-2.509 1.252 1.252 0 0 1-.497-1.058c.061-.342.382-.64.98-.912a.1.1 0 0 1 .039-.008.094.094 0 0 1 .039.179c-.538.245-.824.498-.874.775-.045.254.1.545.446.892a7.66 7.66 0 0 1 1.387 2.584.094.094 0 0 1-.06.119zm.496-6.364c-.023-.007-2.216-.516-2.9.594a.094.094 0 0 1-.16-.099 2.169 2.169 0 0 1 1.93-.81 5.575 5.575 0 0 1 1.173.13.095.095 0 0 1 .07.115.099.099 0 0 1-.113.07zm6.814 5c-.01.003-.988.343-2.118.824-.466.19-.957.414-1.423.647a13.253 13.253 0 0 0-1.234.694 6.896 6.896 0 0 1 1.342 1.073.094.094 0 0 1-.018.131.093.093 0 0 1-.132-.019 7.929 7.929 0 0 0-1.413-1.104.095.095 0 0 1-.003-.158 12.345 12.345 0 0 1 1.317-.756 1.122 1.122 0 1 1 1.603-1.007 1.186 1.186 0 0 1-.055.302c1.11-.47 2.063-.802 2.072-.805a.089.089 0 0 1 .03-.005.094.094 0 0 1 .032.183z"/><path class="cls-2" d="m45.761 113.128-.909.591-.5-.182-.455.319-.682-.273a1.835 1.835 0 0 1 1.046-1.137 2.425 2.425 0 0 1 1.5.682z"/><path class="cls-5" d="M53.596 91.406c-.874.528-8.715 5.367-11.008 10.247 2.387 2.106 2.303 5.892 2.253 6.718a9.803 9.803 0 0 1 1.998-.186c.504 0 1.002.026 1.475.063a10.192 10.192 0 0 1 3.627.948c-.024-1.636.19-5.385 2.426-7.885a4.947 4.947 0 0 1 1.176-.968c.005-.066.342-5.217-1.947-8.937z"/><path class="cls-1" d="M52.128 109.287a13.498 13.498 0 0 1 1.41-6.484 7.984 7.984 0 0 1 .968-1.362 5.897 5.897 0 0 1 4.087-1.776 28.922 28.922 0 0 1 5.647 19.348 26.066 26.066 0 0 1-2.077 8.523 65.313 65.313 0 0 1-3.834-.357c-.225-.029-.46-.066-.704-.094a19.328 19.328 0 0 0 1.644-4.238 20.73 20.73 0 0 0 .498-2.359c.028-.188.047-.385.075-.583a19.935 19.935 0 0 0-.479-7.339 22.006 22.006 0 0 0-4.2-8.325l-.423-.536a.508.508 0 0 1-.047-.028.035.035 0 0 0-.028-.01.081.081 0 0 0-.056.029.09.09 0 0 0-.01.131 22.17 22.17 0 0 1 4.576 8.74 19.8 19.8 0 0 1 .47 2.508 20.458 20.458 0 0 1-2.217 11.982 45.117 45.117 0 0 1-4.896-.921 24.196 24.196 0 0 1 2.396-9.566 10.869 10.869 0 0 1 1.541-2.18h.01c.037-.01.046-.038.056-.066a7.305 7.305 0 0 1 2.34-1.673c.01-.009.019-.009.028-.028a.073.073 0 0 0 .028-.094.103.103 0 0 0-.094-.056.071.071 0 0 0-.037.01 7.37 7.37 0 0 0-2.321 1.634 8.865 8.865 0 0 0-3.91-4.604c-.14-.085-.29-.15-.441-.226z"/><path class="cls-6" d="M52.532 126.136c.037-.996.45-8.006 3.937-11.746h.01c.037-.01.046-.038.056-.066a7.305 7.305 0 0 1 2.34-1.673c.01-.01.019-.01.028-.028l.273-.057a20.393 20.393 0 0 1-1.748 14.49 45.117 45.117 0 0 1-4.896-.92z"/><path class="cls-1" d="M57.281 99.594c.665-7.055-2.199-9.796-3.092-10.467l-.012-.01c-7.75 2.496-13.314 10.344-13.964 11.291.124.043.249.085.368.12a5.58 5.58 0 0 1 1.857 1.006c2.468-5.183 11.055-10.286 11.142-10.337a.09.09 0 0 1 .048-.013.093.093 0 0 1 .08.044c2.19 3.484 2.065 8.24 2.03 9.012a6.013 6.013 0 0 1 1.582-.567.088.088 0 0 1-.039-.079z"/><path class="cls-2" d="M65.616 85.667a6.566 6.566 0 0 1 3.02-.869 3.336 3.336 0 0 1 .649.068l-.21-2.157h-5.52l1.12 3.77a3.453 3.453 0 0 1 .941-.812z"/><path class="cls-5" d="M65.703 88.14a2.532 2.532 0 0 1 .688 1.312c.04.199.133.512.243.873l.04.138.051-.139a.094.094 0 0 1 .07-.06.07.07 0 0 1 .019-.002.094.094 0 0 1 .069.03 6.125 6.125 0 0 1 .87 1.826 12.185 12.185 0 0 0 .543 1.327c.12.223.243.5.373.804a2.624 2.624 0 0 0-.074-.717.094.094 0 0 1 .068-.114.104.104 0 0 1 .023-.003.093.093 0 0 1 .09.07 3.024 3.024 0 0 1 .048 1.19v.003a4.229 4.229 0 0 1-.423 1.316.096.096 0 0 1-.03.033 2.98 2.98 0 0 1-.407.22c-.007.006-.009.015-.017.019s-.017 0-.026 0a5.09 5.09 0 0 1-.569.205c-.412.125-.66.2-.748.607-.03.138-.025.232.017.276.098.104.459.053.916-.012.325-.047.73-.105 1.197-.132a1.162 1.162 0 0 0 .833-.396 3.066 3.066 0 0 0 .503-1.891.093.093 0 0 1 .087-.1h.006a.093.093 0 0 1 .094.087 3.193 3.193 0 0 1-.549 2.028 1.345 1.345 0 0 1-.963.459c-.46.028-.86.085-1.18.131-.206.03-.373.05-.523.062a.782.782 0 0 0-.44.677.522.522 0 0 0 .16.443.078.078 0 0 0 .088 0 4.757 4.757 0 0 1 1.973-.178l.774.001a1.02 1.02 0 0 0 .787-.33 2.71 2.71 0 0 0 .422-1.757.094.094 0 0 1 .085-.102h.009a.093.093 0 0 1 .093.084 2.848 2.848 0 0 1-.47 1.901 1.2 1.2 0 0 1-.925.391c-.28.002-.54 0-.776 0a19.948 19.948 0 0 0-1.2.014.085.085 0 0 1-.012.037.857.857 0 0 0-.04 1.121.319.319 0 0 0 .45.047 3.588 3.588 0 0 1 1.481-.446 11.706 11.706 0 0 0 1.36-.29c1.086-.32.91-2.06.907-2.077a.094.094 0 0 1 .083-.103h.01a.094.094 0 0 1 .094.083 3.897 3.897 0 0 1-.013.752.09.09 0 0 1 .059.048 3.785 3.785 0 0 1 .055 3.003l-.031.104c-.1.33-.201.671-.28 1.06-.174.855-.022 1.227.178 1.29a.195.195 0 0 0 .23-.09c.022-.053.07-.204.132-.396.044-.142.098-.31.16-.494a.084.084 0 0 1 .008-.03l.01-.032c.007-.027.018-.055.028-.083.012-.032.024-.064.033-.097l.016-.046a4.258 4.258 0 0 1 .108-.309 8.04 8.04 0 0 1 .908-1.888c.625-.81-.14-2.236-.148-2.25a3.349 3.349 0 0 1-.334-1.343 10.265 10.265 0 0 0-1.48-2.774c-.54-.85-1.152-1.812-1.596-2.684a11.935 11.935 0 0 1-1.13-3.806 29.57 29.57 0 0 1-.032-.259 3.282 3.282 0 0 0-3.133 1.359z"/><path class="cls-2" d="m32.242 84.855 4.039 4.759a.093.093 0 0 1 .013.102l-2.971 6.066a6.163 6.163 0 0 0 .419.636 11.953 11.953 0 0 0 5.852 3.787l.01.001.005.005.138.046c.095.032.188.062.28.091.416-.615 6.11-8.866 14.141-11.427a.1.1 0 0 1 .089.017l.048.04c1.167.878 3.82 3.677 3.163 10.634a.085.085 0 0 1-.018.036c.566-.113 1.148-.18 1.744-.244a15.738 15.738 0 0 0 2.327-.368 6.504 6.504 0 0 0 3.073-1.758l-1.372-4.813a.094.094 0 0 1 .016-.084l2.417-3.12a1.112 1.112 0 0 1-1.223-.63 1.826 1.826 0 0 1 .122-1.979.087.087 0 0 1-.038-.046l-1.157-3.897H60.46a9.308 9.308 0 0 1-17.45.94L41.827 88.8a.096.096 0 0 1-.113.07.095.095 0 0 1-.07-.112l1.207-5.252a.091.091 0 0 1 .08-.063 9.257 9.257 0 0 1-.267-.735H32.642c-.12.512-.282 1.262-.4 2.146z"/><path class="cls-1" d="M65.47 88.488a.094.094 0 0 1-.163-.096 3.444 3.444 0 0 1 3.112-1.806 4.628 4.628 0 0 1 1.573.276.094.094 0 0 1 .05.123.093.093 0 0 1-.122.051 4.186 4.186 0 0 0-.892-.228l.026.208c.055.388.123.756.2 1.111.008-.004.013-.012.023-.013a1.643 1.643 0 0 0 1.366-1 1.427 1.427 0 0 0-.26-1.436c-.996-1.196-3.375-.616-4.67.15-.9.533-1.732 1.563-1.115 2.715a1.018 1.018 0 0 0 1.438.415 2.397 2.397 0 0 0-.44-.658c-.042.063-.087.12-.127.188z"/><path class="cls-7" d="m65.888 89.27-2.472 3.19 1.328 4.659a4.727 4.727 0 0 0 .896-1.578l.098-.286c.19-.552.636-1.847.666-1.972.005-.023.03-.025.047-.037a2.274 2.274 0 0 1 .036-.3l-.356-.921a.094.094 0 0 1 0-.066l.445-1.223c-.008-.01-.02-.017-.024-.03l-.098-.326a11.86 11.86 0 0 1-.248-.892 2.023 2.023 0 0 0-.111-.36 2.021 2.021 0 0 1-.196.06.09.09 0 0 1-.011.082zM32.21 85.108c-.04.282-.075.567-.104.86-.234 2.466-.61 6.558 1.109 9.607l2.883-5.887z"/><path class="cls-3" d="M71 99.34c-.032.011-.054.033-.087.042a9.551 9.551 0 0 1-1.035.233c.465.885 1.13 2.204 1.624 3.382a2.741 2.741 0 0 1 .058-.961c.067-.329.15-.618.233-.898l-.146-.342c-.207-.491-.44-1.04-.647-1.457z"/><path class="cls-5" d="M67.174 96.332c.042-.014.08-.028.124-.041a5.29 5.29 0 0 0 .483-.17c-.28-.634-.66-1.564-1.153-2.816a10.619 10.619 0 0 0 .546 3.026z"/><path class="cls-3" d="M72.231 105.238c.262 1.044.587 2.343.974 3.44a.088.088 0 0 1-.002.047c.103-.083.188-.148.244-.187a3.05 3.05 0 0 1 .113-.186.093.093 0 0 1 .078-.042l.013.001c.016.002.088.014.196.038l.005-.004a6.75 6.75 0 0 1 .274-.052 12.337 12.337 0 0 1-.87-3.198 1.893 1.893 0 0 0-.022-.158 2.443 2.443 0 0 1-.39-.408 2.333 2.333 0 0 1-.442-1.404c-.033.1-.06.183-.077.222a.379.379 0 0 1-.459.194.448.448 0 0 1-.197-.14 10.417 10.417 0 0 1 .378 1.108c.058.224.12.47.184.73z"/><path class="cls-8" d="M71.257 113.002a5.48 5.48 0 0 0 2.25 4.396 5.575 5.575 0 0 0 1.542-1.622 5.322 5.322 0 0 1-1.878-2.265 5.51 5.51 0 0 1 .072-4.574 5.414 5.414 0 0 0-1.986 4.066z"/><path class="cls-6" d="M47.319 127.615c-.047-.055-4.74-5.539-6.722-5.608a21.751 21.751 0 0 0 1.657 3.661 17.434 17.434 0 0 0 5.163 5.811 17.673 17.673 0 0 1-.016-3.837.09.09 0 0 1-.082-.027z"/><path class="cls-8" d="M77.729 111.497a5.32 5.32 0 0 1 .418 2.85h.006a5.595 5.595 0 0 0 2.331-.034 5.27 5.27 0 0 0-6.215-5.85 5.52 5.52 0 0 1 3.46 3.034z"/><path class="cls-1" d="m39.64 100.416.046.019c.122.038.235.075.348.113.16.056.329.113.489.16a5.104 5.104 0 0 1 1.08.48 4.728 4.728 0 0 1 .808.554c2.453 2.095 2.284 6.023 2.237 6.68a4.22 4.22 0 0 0-2.387 1.373c-.714.846-2.894 4.247-1.109 12.131a.02.02 0 0 0 .019.019 2.047 2.047 0 0 0-.61-.132c-.01 0-.02.01-.03.01-.018-.057-.046-.122-.065-.198-1.25-3.805-1.898-9.058-.498-15.927a.092.092 0 0 0-.066-.104.01.01 0 0 0-.01-.01h-.018a.099.099 0 0 0-.094.076c-.16.78-.291 1.541-.404 2.274 0 .019-.01.038-.01.057a38.624 38.624 0 0 0-.375 4.2v.3a25.204 25.204 0 0 0 3.11 13.278 17.352 17.352 0 0 0 5.243 5.883.085.085 0 0 0 .094 0c.038.32.085.639.15.958a15.338 15.338 0 0 1-7.959-7.283c-3.25-6.107-3.241-14.49.01-24.91z"/><path class="cls-9" d="M52.128 109.287a13.498 13.498 0 0 1 1.41-6.484c.545.385 1.005.752 1.156.874a.508.508 0 0 0 .046.028l.423.536a22.064 22.064 0 0 1 4.557 10.797.429.429 0 0 0-.075.037 19.8 19.8 0 0 0-.47-2.509l-.273.057a.073.073 0 0 0 .028-.094.103.103 0 0 0-.094-.057.071.071 0 0 0-.037.01 7.37 7.37 0 0 0-2.321 1.635 8.865 8.865 0 0 0-3.91-4.605c-.14-.084-.29-.15-.44-.225zm-13.138 3.204v-.3a26.699 26.699 0 0 1 .377-4.2c0-.02.01-.038.01-.057.13-.77.31-1.55.525-2.34a23.088 23.088 0 0 1 1.701-4.407 4.728 4.728 0 0 1 .808.555c2.453 2.095 2.284 6.023 2.237 6.68a4.22 4.22 0 0 0-2.387 1.373c-.714.846-2.894 4.247-1.109 12.131a.02.02 0 0 0 .019.019 2.047 2.047 0 0 0-.61-.132c-.01 0-.02.01-.03.01-.018-.057-.046-.122-.065-.198a28.527 28.527 0 0 1-1.475-9.134z"/><path class="cls-2" d="m48.923 126.299-.3 2.297 2.188 1.492-.1-2.696-1.788-1.093z"/><path class="cls-10" d="M79.193 115.95a3.383 3.383 0 0 0 .395-1.318 5.8 5.8 0 0 1-1.469-.101 5.962 5.962 0 0 1-.36 1.296 2.7 2.7 0 0 0 1.434.122z"/><path class="cls-7" d="M52.43 126.345a.09.09 0 0 1-.082-.07 16.435 16.435 0 0 1-4.205-1.617 17.708 17.708 0 0 0-.193 8.692c.658.25 8.684 3.061 14.63-5.601a58.529 58.529 0 0 1-10.08-1.436.077.077 0 0 1-.07.032zm-1.472 4.008a.1.1 0 0 1-.099-.005l-2.39-1.629a.095.095 0 0 1-.04-.09l.326-2.498a.093.093 0 0 1 .053-.073.09.09 0 0 1 .04-.009.095.095 0 0 1 .05.014l1.954 1.194a.095.095 0 0 1 .045.077l.109 2.933a.094.094 0 0 1-.048.086z"/><path class="cls-10" d="M74.34 116.95a3.538 3.538 0 0 0 1.244.595 2.82 2.82 0 0 0 .84-1.07 5.944 5.944 0 0 1-1.22-.596 5.882 5.882 0 0 1-.863 1.071z"/><path class="cls-2" d="M77.557 111.572a5.492 5.492 0 0 0-3.873-3.064 5.293 5.293 0 0 0 3.533 7.99 5.41 5.41 0 0 0 .34-4.926z"/><path class="cls-1" d="M51.562 89.095a9.123 9.123 0 1 0-9.122-9.122 9.133 9.133 0 0 0 9.122 9.122zm0-15.348 5.62 6.226-5.62 6.227-5.62-6.226z"/><path class="cls-2" d="m57.181 79.973-5.619-6.226-5.619 6.226 5.619 6.227 5.619-6.227z"/><path class="cls-5" d="m50.724 118.874.056-.023a1.186 1.186 0 0 0 .054-.303 1.123 1.123 0 1 0-1.602 1.007l.056-.029c.47-.236.967-.46 1.436-.652zm-6.543 2.169a1 1 0 1 0-2 0 .986.986 0 0 0 .82.964 28.09 28.09 0 0 1 1.002-.427.973.973 0 0 0 .178-.537z"/><path d="M25.83 82.813h6.49c-.112.49-.26 1.191-.37 2.036l.001.007-.003.006c-.057.35-.094.71-.133 1.084-.24 2.544-.643 6.8 1.228 9.94a6.594 6.594 0 0 0 .467.708 10.872 10.872 0 0 0 4.807 3.418c.35.143.693.275 1.022.39-3.256 10.473-3.246 18.907.033 25.067a15.62 15.62 0 0 0 8.178 7.438c.04.186.08.374.13.562a.35.35 0 0 0 .115.132 11.623 11.623 0 0 0 4.013.673c3.067 0 7.484-1.128 11.107-6.5a.2.2 0 0 0 .012-.2.195.195 0 0 0-.17-.108l-.24-.012a26.714 26.714 0 0 0 2.009-8.408 29.188 29.188 0 0 0-5.537-19.325l.258-.028a15.948 15.948 0 0 0 2.35-.375 5.833 5.833 0 0 0 4.319-3.684l.097-.284c.136-.396.267-.777.38-1.114a13.226 13.226 0 0 0 .477 2.098.876.876 0 0 0-.55.68.589.589 0 0 0 .089.538.32.32 0 0 0 .152.084 1.021 1.021 0 0 0-.25.62.778.778 0 0 0 .304.706.383.383 0 0 0 .191.052.375.375 0 0 0 .192-.055.78.78 0 0 1 .235-.07 1.091 1.091 0 0 0 .127 1.203.634.634 0 0 0 .46.213.623.623 0 0 0 .376-.134 2.168 2.168 0 0 1 .672-.28c.207-.047.433-.088.68-.13l-.011-.062.07.023a30.694 30.694 0 0 1 2.16 4.86l.183.73c.262 1.047.589 2.35.983 3.464.003.01.015.02.022.03A5.642 5.642 0 0 0 70.966 113a5.802 5.802 0 0 0 2.424 4.671l.093.027a.554.554 0 0 0 .12-.016 4.869 4.869 0 0 0 .603-.466 4.225 4.225 0 0 0 1.396.63.396.396 0 0 0 .118-.038 3.18 3.18 0 0 0 .938-1.149 4.25 4.25 0 0 0 .61.143.34.34 0 0 0 .158-.09 4.93 4.93 0 0 0 .317-.587 2.588 2.588 0 0 0 .92.162 3.163 3.163 0 0 0 .638-.061.366.366 0 0 0 .135-.108 3.572 3.572 0 0 0 .421-1.405 4.454 4.454 0 0 0 .772-.138.215.215 0 0 0 .138-.177 5.768 5.768 0 0 0-1.825-4.925 5.619 5.619 0 0 0-3.774-1.368 6.413 6.413 0 0 0-.785.049 13.68 13.68 0 0 1-.833-2.879 3.02 3.02 0 0 0 1.539.41 3.642 3.642 0 0 0 1.455-.31 12.248 12.248 0 0 0 1.444-.787 12.411 12.411 0 0 1 1.23-.678 4.032 4.032 0 0 1 1.608-.383 2.556 2.556 0 0 1 1.082.253c.02.011.044.015.063.026l.008.001c.019.01.038.012.058.022l.118-.004a.37.37 0 0 0 .103-.165c.075-1.704-1.667-2.772-2.42-3.152a7.322 7.322 0 0 0-3.29-.87l-.148.001a4.44 4.44 0 0 0-3.092 1.296 4.734 4.734 0 0 1 .479-.86c.741-.96-.093-2.51-.13-2.577a3.335 3.335 0 0 1-.293-1.222 9.958 9.958 0 0 0-1.54-2.924c-.557-.878-1.134-1.784-1.567-2.637a10.375 10.375 0 0 1-.83-2.342 1.922 1.922 0 0 0 1.488-1.155 1.718 1.718 0 0 0-.308-1.727 2.1 2.1 0 0 0-1.032-.643l-.198-2.035h7.92a.197.197 0 0 0 .197-.197v-5.281a.197.197 0 0 0-.197-.197H60.535a9.409 9.409 0 0 0-17.946 0H25.83a.197.197 0 0 0-.197.197v5.28a.197.197 0 0 0 .197.198zm6.402 2.949c.014-.135.028-.277.04-.426l3.733 4.306-2.787 5.693c-1.599-3.016-1.235-6.97-1.01-9.356zm4.155 3.999a.2.2 0 0 0-.027-.214l-4.008-4.724c.111-.823.261-1.527.372-2.01h9.867c.064.198.136.392.212.584a.161.161 0 0 0-.053.086l-1.209 5.253a.183.183 0 0 0 .025.14.242.242 0 0 0 .166.1.198.198 0 0 0 .195-.152l1.109-4.906a9.404 9.404 0 0 0 8.526 5.467 9.552 9.552 0 0 0 1.3-.095c-7.241 2.928-12.393 10.232-12.876 10.935a14.34 14.34 0 0 0-.35-.112l-.008-.007a11.863 11.863 0 0 1-5.803-3.75 5.87 5.87 0 0 1-.383-.582zm20.8 9.842a6.114 6.114 0 0 0-1.34.476c.041-1.198.034-5.587-2.05-8.905a.36.36 0 0 0-.168-.093l-.1.027c-.086.05-8.566 5.068-11.126 10.278a5.693 5.693 0 0 0-1.791-.956c-.064-.019-.141-.044-.235-.074.86-1.235 6.305-8.718 13.751-11.146.883.664 3.712 3.374 3.052 10.374-.001.004.006.014.006.02zM47.9 124.454a17.456 17.456 0 0 0-.551 2.75 33.909 33.909 0 0 0-4.56-4.402l-.041-.031c-.057-.042-.112-.08-.168-.12l-.097-.069c.341-.176.735-.357 1.12-.52l.004-.005h.005l.008-.002h.001a32.2 32.2 0 0 1 1.386-.554.196.196 0 0 0 .112-.102.38.38 0 0 0 .007-.15.198.198 0 0 0-.186-.13l-.065.01c-.008.003-.358.135-.86.352l-.01-.004-.04.007c-.31.125-.66.272-1.006.428a6.927 6.927 0 0 0-.81.425 5.551 5.551 0 0 0-.722-.391.178.178 0 0 0 .012-.083c-1.76-7.76.355-11.06 1.045-11.886a3.987 3.987 0 0 1 2.226-1.267c.009.005.018.014.025.018a.272.272 0 0 0 .106-.05 9.595 9.595 0 0 1 2.063-.198c.472 0 .941.024 1.386.058a9.939 9.939 0 0 1 3.677.978c.155.077.305.159.455.244a8.578 8.578 0 0 1 3.795 4.483c-3.357 3.65-3.888 10.144-3.968 11.706a15.306 15.306 0 0 1-4.057-1.604.376.376 0 0 0-.104-.028l-.068.012a.373.373 0 0 0-.12.125zm-.659 3.228c.012.014.04.012.054.02a17.628 17.628 0 0 0 .007 3.575 17.625 17.625 0 0 1-4.958-5.66 21.567 21.567 0 0 1-1.582-3.475c1.994.341 6.433 5.487 6.479 5.54zm4.647-18.62a10.326 10.326 0 0 0-3.566-.917 19.307 19.307 0 0 0-1.483-.063 10 10 0 0 0-1.889.169c.045-.973.034-4.551-2.234-6.617 2.23-4.653 9.361-9.18 10.81-10.086l.026-.015c2.124 3.521 1.918 8.282 1.891 8.754a5.014 5.014 0 0 0-1.152.956c-2.303 2.572-2.447 6.385-2.403 7.819zm15.594-16.838a12.242 12.242 0 0 0 .558 1.358c.143.266.287.6.491 1.079a5.028 5.028 0 0 1-.339 1.134 1.854 1.854 0 0 1-.19.1 85.473 85.473 0 0 1-1.235-3.033l-.35-.836.264-.78.179-.49a9.75 9.75 0 0 1 .622 1.468zm.161 3.838c-.13.05-.26.097-.388.142l-.002.033a12.936 12.936 0 0 1-.505-2.35q.55 1.383.895 2.175zM60.21 77.407a9.022 9.022 0 0 1-.009 5.16 9.02 9.02 0 1 1 .008-5.16zm-20.502 23.144c.102.034.203.067.294.095.163.057.336.114.494.161a5.278 5.278 0 0 1 1.848 1.014c2.329 1.993 2.26 5.646 2.209 6.519a4.348 4.348 0 0 0-2.372 1.384c-.714.856-2.891 4.252-1.158 12.073a1.762 1.762 0 0 0-.412-.08 30.622 30.622 0 0 1-.54-15.997.206.206 0 0 0-.03-.152.182.182 0 0 0-.116-.08l-.047-.004a.199.199 0 0 0-.193.156c-2.017 9.838.151 16.406 2.324 20.182a17.25 17.25 0 0 0 5.34 5.926 5.812 5.812 0 0 0 .145.716 15.348 15.348 0 0 1-7.773-7.184c-3.223-6.059-3.227-14.38-.013-24.73zm22.39 26.877a67.58 67.58 0 0 1-4.309-.424 20.87 20.87 0 0 0-2.965-23.364.357.357 0 0 0-.153-.072.38.38 0 0 0-.126.044.196.196 0 0 0-.07.135.367.367 0 0 0 .043.143 20.663 20.663 0 0 1 5.034 15.97 20.349 20.349 0 0 1-2.18 7.087 45.168 45.168 0 0 1-4.733-.892c.049-1.065.492-7.933 3.907-11.59a.355.355 0 0 0 .06-.066l.006-.001a7.218 7.218 0 0 1 2.309-1.651.197.197 0 0 0-.079-.378l-.079.016a6.01 6.01 0 0 0-1.545.987 7.365 7.365 0 0 0-.673.63 9.033 9.033 0 0 0-3.926-4.583c-.082-.048-.17-.09-.282-.144l-.104-.046c-.025-1.55.163-5.277 2.352-7.724a5.77 5.77 0 0 1 3.961-1.733 28.833 28.833 0 0 1 5.588 19.236 25.991 25.991 0 0 1-2.037 8.42zm3.872-38.094a.22.22 0 0 0 .02-.064c.012-.004.026-.01.04-.013a1.41 1.41 0 0 1 .076.25c.043.211.138.532.25.903l.114.318-.436 1.195a.37.37 0 0 0 .001.139l.347.898a2.161 2.161 0 0 0-.027.23.165.165 0 0 0-.05.07c-.02.082-.243.742-.664 1.961l-.098.288a4.727 4.727 0 0 1-.183.458 5.508 5.508 0 0 1-.406.736l-.023.035c-.041.061-.09.127-.135.19l-1.298-4.405zm3.182-2.373-.003-.023a5.462 5.462 0 0 1 .706.178l.102.03a.198.198 0 0 0 .183-.272.2.2 0 0 0-.11-.108 4.749 4.749 0 0 0-1.61-.284 3.558 3.558 0 0 0-3.201 1.86.203.203 0 0 0-.02.15.367.367 0 0 0 .09.118.202.202 0 0 0 .1.028.35.35 0 0 0 .171-.097 1.12 1.12 0 0 1 .047-.073 2.456 2.456 0 0 1 .28.431 1.385 1.385 0 0 1-.443.09.819.819 0 0 1-.754-.495c-.582-1.086.216-2.067 1.075-2.577a6.098 6.098 0 0 1 2.85-.82 2.11 2.11 0 0 1 1.689.648 1.325 1.325 0 0 1 .243 1.333 1.57 1.57 0 0 1-1.212.922 15.247 15.247 0 0 1-.183-1.04zm-.515-2.266a6.646 6.646 0 0 0-3.072.884 3.565 3.565 0 0 0-.84.7l-1.03-3.466h5.287l.19 1.938a3.454 3.454 0 0 0-.535-.056zm-20.51 40.348.063-.239a16.677 16.677 0 0 0 4.101 1.561.192.192 0 0 0 .15.085.214.214 0 0 0 .074-.027 45.44 45.44 0 0 0 4.89.923.324.324 0 0 0 .07.017c.005 0 .01-.004.014-.005 2.07.283 3.823.416 4.727.473l.003.002.003-.002h.003l.122-.012.055.003c-3.495 5.005-7.692 6.056-10.6 6.056a12.813 12.813 0 0 1-3.59-.52.818.818 0 0 0-.15-.036l-.011.002c-.05-.196-.096-.391-.147-.633a18.18 18.18 0 0 1 .223-7.648zm13.37-26.106a15.513 15.513 0 0 1-2.312.364c-.566.062-1.081.126-1.605.22.606-6.735-1.916-9.6-3.152-10.58a9.363 9.363 0 0 0 6.107-6.13l.67-.017 2.073.002 1.14 3.837c.002.005.014.016.02.024a1.917 1.917 0 0 0-.095 2.023 1.208 1.208 0 0 0 1.092.7l-2.276 2.939a.354.354 0 0 0-.034.174l1.355 4.755a6.472 6.472 0 0 1-2.983 1.688zm5.662-2.296.016-.006h.002l.207-.066a5.464 5.464 0 0 0 .555-.2l.008-.003.017-.006.002-.002.036-.017h.007a2.196 2.196 0 0 0 .486-.298 4.38 4.38 0 0 0 .432-1.35l-.003-.008.004-.006v-.02c.002-.006.004-.006.006-.014a3.078 3.078 0 0 0-.055-1.185.195.195 0 0 0-.19-.148l-.05.006a.198.198 0 0 0-.121.09.375.375 0 0 0-.02.15c.007.03.01.063.016.092-.042-.087-.084-.177-.125-.252a12.319 12.319 0 0 1-.538-1.318 6.162 6.162 0 0 0-.892-1.86.372.372 0 0 0-.144-.062l-.04.004a.235.235 0 0 0-.067.044 9.976 9.976 0 0 1-.214-.772 2.4 2.4 0 0 0-.662-1.285 3.14 3.14 0 0 1 2.583-1.286c.11 0 .22.01.33.019l.022.173a12.042 12.042 0 0 0 1.14 3.84c.45.885 1.061 1.844 1.6 2.69a10.587 10.587 0 0 1 1.464 2.73 3.405 3.405 0 0 0 .345 1.382h.001c.03.056.732 1.395.157 2.139a8.284 8.284 0 0 0-.932 1.941.612.612 0 0 0-.043.172l-.055.166.053.017-.017.036-.068.04.04.015c-.007.016-.016.031-.023.048l-.082.079-.176.545a6.586 6.586 0 0 1-.113.337c-.004.01-.03.032-.104.032-.112-.036-.28-.328-.107-1.172.066-.325.149-.617.232-.898l.078-.26a3.865 3.865 0 0 0-.061-3.07.232.232 0 0 0-.047-.048 4.103 4.103 0 0 0 .01-.722.2.2 0 0 0-.207-.175h-.01a.223.223 0 0 0-.175.22c.002.014.15 1.496-.712 1.92a1.053 1.053 0 0 1-.123.045 11.654 11.654 0 0 1-1.35.287 3.623 3.623 0 0 0-1.523.465.23.23 0 0 1-.137.053.266.266 0 0 1-.175-.089.813.813 0 0 1 .02-.985c.195-.01.42-.014.685-.014l1.247.002a1.297 1.297 0 0 0 1.002-.425 2.96 2.96 0 0 0 .496-1.98.198.198 0 0 0-.206-.178h-.009a.196.196 0 0 0-.133.071.347.347 0 0 0-.044.146 2.618 2.618 0 0 1-.396 1.677.952.952 0 0 1-.745.295l-1.183-.002a3.334 3.334 0 0 0-1.566.193.443.443 0 0 1-.11-.35.68.68 0 0 1 .376-.58c.145-.012.305-.031.534-.065.313-.044.697-.099 1.138-.125a1.442 1.442 0 0 0 1.034-.494 3.277 3.277 0 0 0 .574-2.103.197.197 0 0 0-.202-.183h-.005a.193.193 0 0 0-.136.066.373.373 0 0 0-.05.143 3.019 3.019 0 0 1-.477 1.817 1.06 1.06 0 0 1-.762.36c-.47.028-.877.086-1.205.134a5.35 5.35 0 0 1-.657.07c-.139 0-.168-.025-.168-.025s-.024-.039.007-.186c.06-.277.194-.369.453-.459zm13.244 17.586a5.304 5.304 0 0 1-1.156.122 5.936 5.936 0 0 1-.99-.09 5.415 5.415 0 0 0-.432-2.804 5.508 5.508 0 0 0-3.086-2.923c.149-.011.297-.033.445-.033a5.2 5.2 0 0 1 3.496 1.27 5.433 5.433 0 0 1 1.723 4.458zm-4.118 2.298a3.107 3.107 0 0 1-.589.812c-.07.072-.098.102-.08.11a3.837 3.837 0 0 1-1.122-.51 5.848 5.848 0 0 0 .742-.923 5.813 5.813 0 0 0 1.049.51zm-1-.951-.006-.002h-.001a5.023 5.023 0 0 1-1.839-2.178 5.365 5.365 0 0 1 .284-4.773 5.319 5.319 0 0 1 3.74 2.993 5.246 5.246 0 0 1-.296 4.77 5.748 5.748 0 0 1-1.88-.807zm-1.434-7.33c-.1-.022-.17-.034-.177-.034l-.035-.003a.353.353 0 0 0-.164.088c-.01.014-.05.078-.105.172l-.099.076c-.368-1.063-.681-2.309-.938-3.33l-.184-.73a8.857 8.857 0 0 0-.283-.84.464.464 0 0 0 .119.02.471.471 0 0 0 .34-.166 2.4 2.4 0 0 0 .438 1.092 2.444 2.444 0 0 0 .375.394c.008.04.014.08.017.121a12.722 12.722 0 0 0 .827 3.113c-.045.01-.093.018-.131.027zm-1.984-7.678c-.131-.31-.278-.63-.434-.943a15.28 15.28 0 0 0-.15-.325 1.594 1.594 0 0 0 .621-.801 3.532 3.532 0 0 1-.037 2.07zm-.929-1.084.014-.005c.195.403.41.902.602 1.359l.131.309c-.08.27-.16.552-.224.87a3.918 3.918 0 0 0-.066.478 49.436 49.436 0 0 0-1.36-2.803 8.654 8.654 0 0 0 .903-.208zm2.04 9.833a5.548 5.548 0 0 0 .1 4.237 5.362 5.362 0 0 0 1.836 2.237 5.957 5.957 0 0 1-1.391 1.49 5.365 5.365 0 0 1-2.161-4.275 5.213 5.213 0 0 1 1.616-3.689zm5.223 5.332a5.91 5.91 0 0 0 1.05.098c.08 0 .154-.003.229-.006a4.097 4.097 0 0 1-.305 1.108 2.9 2.9 0 0 1-.51.043 2.381 2.381 0 0 1-.773-.128 6.084 6.084 0 0 0 .309-1.115zm2.615-11.515a4.31 4.31 0 0 0-1.761.419 13.164 13.164 0 0 0-1.303.72 11.555 11.555 0 0 1-1.362.74 3.258 3.258 0 0 1-1.305.286 2.498 2.498 0 0 1-2.004-.943 2.006 2.006 0 0 1-.28-.578 1.671 1.671 0 0 0 1.036.325 2.149 2.149 0 0 0 .404-.038 4.865 4.865 0 0 0 1.365-.567l.15-.082a3.27 3.27 0 0 1 1.409-.479.197.197 0 0 0-.004-.393h-.005a3.589 3.589 0 0 0-1.588.525l-.16.087a4.487 4.487 0 0 1-1.243.521 1.677 1.677 0 0 1-.332.034 1.213 1.213 0 0 1-.938-.383.857.857 0 0 1-.173-.47 2.426 2.426 0 0 1 .202-.701c.01-.016.013-.032.025-.047.003-.006 0-.012.003-.017l.006-.004a3.483 3.483 0 0 1 .501-.759 4.065 4.065 0 0 1 3.04-1.297 7.047 7.047 0 0 1 3.164.827 4.692 4.692 0 0 1 2.025 1.863 2.058 2.058 0 0 1 .182.613 2.692 2.692 0 0 0-1.055-.202z"/><path d="m49.951 129.831.862.588a.164.164 0 0 0 .031.008l.046.03a.585.585 0 0 0 .118-.014.195.195 0 0 0 .101-.18l-.108-2.935a.368.368 0 0 0-.094-.16l-1.956-1.194a.345.345 0 0 0-.102-.029l-.086.02a.356.356 0 0 0-.11.152l-.325 2.498a.197.197 0 0 0 .083.189zm.658-2.436.092 2.497-1.975-1.282.185-1.57.077-.584zm-6.675-11.385c.044-.24.31-.469.814-.7a.193.193 0 0 0 .103-.11.395.395 0 0 0-.004-.15.198.198 0 0 0-.18-.115l-.082.017c-.631.287-.97.61-1.039.988a1.34 1.34 0 0 0 .527 1.15 7.462 7.462 0 0 1 1.314 2.466c.026.083.1.13.24.13h.008a.199.199 0 0 0 .13-.249 7.733 7.733 0 0 0-1.414-2.626c-.32-.321-.456-.583-.417-.801zm2.229-3.073a5.709 5.709 0 0 0-1.192-.131 2.216 2.216 0 0 0-2.017.857.191.191 0 0 0-.025.151.375.375 0 0 0 .085.12.193.193 0 0 0 .106.032.35.35 0 0 0 .168-.095 1.934 1.934 0 0 1 1.686-.667 6.025 6.025 0 0 1 1.141.123.197.197 0 0 0 .198-.15.2.2 0 0 0-.15-.24zm3.086 8.698a.196.196 0 0 0 .158.08.372.372 0 0 0 .118-.04.198.198 0 0 0 .04-.276 4.805 4.805 0 0 0-1.104-.896 5.097 5.097 0 0 0-.15-.102c.292-.184.649-.382 1.109-.616.463-.232.952-.453 1.416-.643a36.276 36.276 0 0 1 2.113-.822.197.197 0 0 0-.066-.384l-.075.014c-.395.14-1.188.431-2.069.804l.005.013-.059.01c-.484.198-.99.43-1.5.686a12.363 12.363 0 0 0-1.33.764.198.198 0 0 0-.084.165.362.362 0 0 0 .093.165 7.73 7.73 0 0 1 1.385 1.078zm-6.342-1.872a.88.88 0 0 0-.48 1.116c.123.526.537.88.925.789a.88.88 0 0 0 .48-1.117c-.123-.526-.537-.88-.925-.788z"/><path d="M49.435 119.25a.99.99 0 1 0-1.014-.763.905.905 0 0 0 1.014.764z"/><path class="cls-1" d="M42.28 81.8c-.02-.08-.03-.17-.05-.25H27.5V78.4h14.73a1.843 1.843 0 0 1 .05-.25H27.25v3.65zm18.62-.25c-.02.08-.03.17-.05.25h15.03v-3.65H60.85a1.843 1.843 0 0 1 .05.25h14.73v3.15z"/><path class="cls-3" d="m34.362 65.352.036.083c.172.405.322.755.472 1.032a12.254 12.254 0 0 1 .554 1.35 7.785 7.785 0 0 0 .73 1.64l.527-1.447-.35-.908a85.55 85.55 0 0 0-1.28-3.137 2.512 2.512 0 0 0-.299.153 4.13 4.13 0 0 0-.39 1.234z"/><path class="cls-4" d="M30.173 57.887a2.571 2.571 0 0 0 .213-.742.967.967 0 0 0-.199-.538 1.418 1.418 0 0 0-1.37-.384 4.597 4.597 0 0 0-1.281.537l-.151.081a3.497 3.497 0 0 1-1.541.513h-.002a.094.094 0 0 1-.003-.187 3.348 3.348 0 0 0 1.457-.49l.15-.083a4.78 4.78 0 0 1 1.335-.557 1.623 1.623 0 0 1 1.551.451 1.043 1.043 0 0 1 .066.12 2.125 2.125 0 0 0-.393-1.025 2.797 2.797 0 0 0-3.433-.691 11.784 11.784 0 0 0-1.38.75 12.904 12.904 0 0 1-1.287.712 3.347 3.347 0 0 1-2.871.153c.047 1.49 1.73 2.457 2.26 2.725a7.095 7.095 0 0 0 3.299.838 4.123 4.123 0 0 0 3.03-1.332 3.557 3.557 0 0 0 .521-.796c.004-.006.002-.014.007-.02.009-.01.013-.024.022-.035z"/><path class="cls-5" d="M50.527 50.329a9.79 9.79 0 0 0 4.174 1.236 12.24 12.24 0 0 0 3.489-.143.09.09 0 0 1 .074-.046h.01c.014.001.022.011.033.018a4.135 4.135 0 0 0 2.29-1.305c.698-.836 2.836-4.172 1.067-11.974a.091.091 0 0 1 .059-.105 5.301 5.301 0 0 1-.86-.46.088.088 0 0 1-.029.035c-.245.134-.536.274-.834.408a.987.987 0 0 1 .82.964 1 1 0 1 1-2 0 .972.972 0 0 1 .178-.537c-.507.205-.895.35-.904.352a.1.1 0 0 1-.032.006.094.094 0 0 1-.033-.182c.01-.004.664-.246 1.394-.556l.016-.006a16.22 16.22 0 0 0 1.26-.591 33.216 33.216 0 0 1-5.12-4.89 17.004 17.004 0 0 1-.577 2.962.095.095 0 0 1-.058.06.099.099 0 0 1-.032.005.097.097 0 0 1-.05-.014 15.752 15.752 0 0 0-4.206-1.65c-.051 1.147-.502 8.082-3.99 11.821a8.656 8.656 0 0 0 3.86 4.592zm6.869-9.916a.093.093 0 0 1 .117.062 7.642 7.642 0 0 0 1.342 2.509 1.252 1.252 0 0 1 .497 1.058c-.061.342-.382.64-.98.912a.1.1 0 0 1-.039.008.094.094 0 0 1-.039-.179c.538-.245.824-.498.874-.775.045-.254-.1-.545-.446-.892a7.658 7.658 0 0 1-1.387-2.584.094.094 0 0 1 .06-.119zm-.496 6.364c.023.007 2.216.516 2.9-.594a.094.094 0 0 1 .16.099 2.168 2.168 0 0 1-1.93.81 5.575 5.575 0 0 1-1.173-.13.095.095 0 0 1-.07-.115.099.099 0 0 1 .114-.07zm-6.814-5c.01-.003.988-.343 2.118-.824.466-.19.957-.414 1.423-.647a13.232 13.232 0 0 0 1.234-.694 6.893 6.893 0 0 1-1.342-1.073.094.094 0 1 1 .15-.112 7.929 7.929 0 0 0 1.413 1.103.095.095 0 0 1 .003.158 12.365 12.365 0 0 1-1.317.756 1.122 1.122 0 1 1-1.603 1.008 1.186 1.186 0 0 1 .055-.303c-1.11.47-2.063.802-2.072.805a.089.089 0 0 1-.03.005.094.094 0 0 1-.032-.182z"/><path class="cls-2" d="m57.239 46.872.909-.591.5.182.455-.319.682.273a1.835 1.835 0 0 1-1.046 1.137 2.426 2.426 0 0 1-1.5-.682z"/><path class="cls-5" d="M49.404 68.594c.874-.528 8.715-5.367 11.008-10.247-2.387-2.106-2.303-5.892-2.253-6.718a9.81 9.81 0 0 1-1.998.186c-.504 0-1.002-.026-1.475-.063a10.194 10.194 0 0 1-3.627-.948c.024 1.636-.19 5.385-2.426 7.884a4.945 4.945 0 0 1-1.176.97c-.005.065-.342 5.216 1.947 8.936z"/><path class="cls-1" d="M50.872 50.713a13.498 13.498 0 0 1-1.41 6.484 7.988 7.988 0 0 1-.968 1.362 5.897 5.897 0 0 1-4.087 1.776 28.922 28.922 0 0 1-5.647-19.348 26.068 26.068 0 0 1 2.077-8.523c.751.047 2.152.15 3.834.357.225.029.46.066.704.094a19.326 19.326 0 0 0-1.644 4.238 20.732 20.732 0 0 0-.498 2.359c-.028.188-.047.385-.075.583a19.935 19.935 0 0 0 .479 7.339 22.007 22.007 0 0 0 4.2 8.325l.423.536a.49.49 0 0 1 .047.028.035.035 0 0 0 .028.01.081.081 0 0 0 .056-.029.09.09 0 0 0 .01-.131 22.169 22.169 0 0 1-4.576-8.74 19.803 19.803 0 0 1-.47-2.508 20.458 20.458 0 0 1 2.217-11.982 45.117 45.117 0 0 1 4.896.921 24.193 24.193 0 0 1-2.396 9.566 10.865 10.865 0 0 1-1.541 2.18h-.01c-.037.01-.046.038-.056.066a7.307 7.307 0 0 1-2.34 1.672c-.01.01-.019.01-.028.029a.073.073 0 0 0-.028.094.103.103 0 0 0 .094.056.071.071 0 0 0 .037-.01 7.37 7.37 0 0 0 2.321-1.634 8.865 8.865 0 0 0 3.91 4.604c.14.085.29.15.441.226z"/><path class="cls-6" d="M50.468 33.864c-.037.996-.45 8.007-3.937 11.746h-.01c-.037.01-.046.038-.056.066a7.307 7.307 0 0 1-2.34 1.673c-.01.01-.019.01-.028.028l-.273.056a20.393 20.393 0 0 1 1.748-14.49 45.117 45.117 0 0 1 4.896.921z"/><path class="cls-1" d="M45.719 60.406c-.665 7.055 2.199 9.796 3.092 10.467l.012.01c7.75-2.496 13.314-10.344 13.964-11.292-.124-.042-.249-.085-.368-.12a5.576 5.576 0 0 1-1.857-1.006C58.094 63.65 49.507 68.752 49.42 68.803a.09.09 0 0 1-.048.013.093.093 0 0 1-.08-.044c-2.19-3.484-2.065-8.24-2.03-9.012a6.013 6.013 0 0 1-1.582.567.088.088 0 0 1 .039.079z"/><path class="cls-2" d="M37.384 74.333a6.565 6.565 0 0 1-3.02.869 3.336 3.336 0 0 1-.649-.068l.21 2.157h5.52l-1.12-3.77a3.454 3.454 0 0 1-.941.812z"/><path class="cls-5" d="M37.297 71.86a2.533 2.533 0 0 1-.688-1.312c-.04-.199-.133-.512-.243-.873l-.04-.138-.051.139a.093.093 0 0 1-.07.06.066.066 0 0 1-.019.002.095.095 0 0 1-.069-.03 6.126 6.126 0 0 1-.87-1.826 12.184 12.184 0 0 0-.543-1.327c-.12-.223-.243-.5-.373-.804a2.625 2.625 0 0 0 .074.717.094.094 0 0 1-.068.114.099.099 0 0 1-.023.003.093.093 0 0 1-.09-.07 3.024 3.024 0 0 1-.048-1.19v-.003a4.23 4.23 0 0 1 .422-1.316.096.096 0 0 1 .031-.033 2.98 2.98 0 0 1 .407-.22c.006-.006.009-.014.017-.018s.017 0 .025-.001a5.112 5.112 0 0 1 .57-.205c.412-.125.66-.2.748-.607.03-.138.024-.232-.017-.276-.098-.103-.46-.053-.917.012-.324.047-.729.105-1.196.132a1.163 1.163 0 0 0-.833.396 3.066 3.066 0 0 0-.503 1.891.093.093 0 0 1-.088.1h-.005a.093.093 0 0 1-.094-.087 3.194 3.194 0 0 1 .549-2.028 1.345 1.345 0 0 1 .963-.459c.46-.028.86-.085 1.18-.131.207-.03.373-.05.523-.062a.782.782 0 0 0 .44-.677.522.522 0 0 0-.16-.443.079.079 0 0 0-.087 0 4.755 4.755 0 0 1-1.973.178l-.774-.001a1.02 1.02 0 0 0-.787.33 2.71 2.71 0 0 0-.422 1.757.094.094 0 0 1-.085.103h-.009a.093.093 0 0 1-.094-.084 2.848 2.848 0 0 1 .47-1.902 1.2 1.2 0 0 1 .926-.39c.28-.003.54 0 .776 0 .496.003.892.004 1.2-.014a.085.085 0 0 1 .011-.037.857.857 0 0 0 .039-1.121.319.319 0 0 0-.449-.047 3.59 3.59 0 0 1-1.482.446 11.699 11.699 0 0 0-1.358.29c-1.087.32-.91 2.06-.908 2.076a.094.094 0 0 1-.083.104h-.01a.094.094 0 0 1-.094-.083 3.907 3.907 0 0 1 .013-.752.089.089 0 0 1-.059-.049 3.785 3.785 0 0 1-.055-3.002l.03-.104c.1-.33.202-.672.28-1.06.175-.855.023-1.227-.177-1.29a.195.195 0 0 0-.23.09c-.022.052-.07.204-.132.396a30.03 30.03 0 0 1-.16.494.084.084 0 0 1-.009.03l-.008.032-.03.083c-.011.031-.024.063-.033.097l-.015.046a4.336 4.336 0 0 1-.109.309 8.041 8.041 0 0 1-.907 1.888c-.625.809.14 2.236.148 2.25a3.349 3.349 0 0 1 .334 1.343 10.264 10.264 0 0 0 1.48 2.774c.54.85 1.152 1.812 1.595 2.684a11.935 11.935 0 0 1 1.13 3.806l.033.259a3.282 3.282 0 0 0 3.133-1.36z"/><path class="cls-2" d="m70.757 75.145-4.038-4.759a.093.093 0 0 1-.013-.102l2.971-6.066a6.174 6.174 0 0 0-.419-.637 11.953 11.953 0 0 0-5.852-3.786l-.01-.002-.005-.004-.138-.046a12.891 12.891 0 0 0-.28-.091c-.416.615-6.11 8.865-14.141 11.427a.1.1 0 0 1-.029.004.096.096 0 0 1-.06-.022l-.048-.04c-1.167-.877-3.82-3.676-3.163-10.634a.086.086 0 0 1 .018-.035c-.566.113-1.148.18-1.744.244a15.737 15.737 0 0 0-2.327.368 6.506 6.506 0 0 0-3.073 1.757l1.372 4.814a.094.094 0 0 1-.016.084l-2.417 3.12a1.112 1.112 0 0 1 1.223.63 1.827 1.827 0 0 1-.122 1.978.087.087 0 0 1 .038.047l1.157 3.896h2.899a9.308 9.308 0 0 1 17.45-.939l1.184-5.152a.096.096 0 0 1 .113-.07.095.095 0 0 1 .07.112l-1.207 5.252a.091.091 0 0 1-.08.063c.098.24.19.484.267.735h10.022c.119-.512.281-1.262.398-2.146z"/><path class="cls-1" d="M37.53 71.512a.094.094 0 0 1 .163.096 3.444 3.444 0 0 1-3.112 1.806 4.628 4.628 0 0 1-1.573-.276.094.094 0 0 1-.05-.123.093.093 0 0 1 .122-.051 4.193 4.193 0 0 0 .892.228l-.026-.208a15.486 15.486 0 0 0-.2-1.111c-.008.004-.013.012-.023.013a1.643 1.643 0 0 0-1.366 1 1.427 1.427 0 0 0 .26 1.436c.996 1.196 3.376.616 4.67-.15.9-.532 1.732-1.563 1.115-2.715a1.018 1.018 0 0 0-1.438-.415 2.396 2.396 0 0 0 .44.659c.042-.064.087-.12.127-.189z"/><path class="cls-7" d="m37.112 70.73 2.472-3.19-1.328-4.659a4.727 4.727 0 0 0-.896 1.577l-.098.287c-.19.552-.636 1.847-.666 1.972-.005.023-.03.025-.047.037a2.272 2.272 0 0 1-.036.3l.356.92a.093.093 0 0 1 0 .067l-.445 1.223c.009.01.02.017.025.03l.097.326c.11.367.206.684.248.892a2.02 2.02 0 0 0 .112.36 2.029 2.029 0 0 1 .195-.06.09.09 0 0 1 .011-.082zm33.678 4.162c.04-.282.075-.567.104-.861.234-2.465.61-6.557-1.109-9.606l-2.883 5.887z"/><path class="cls-3" d="M32 60.66c.032-.011.054-.033.087-.042a9.527 9.527 0 0 1 1.035-.233c-.465-.885-1.13-2.204-1.624-3.382a2.741 2.741 0 0 1-.058.962c-.067.328-.15.617-.233.897l.146.342c.207.491.44 1.04.647 1.457z"/><path class="cls-5" d="M35.826 63.669c-.042.013-.08.027-.124.04-.15.046-.312.099-.483.17.28.634.66 1.564 1.153 2.816a10.619 10.619 0 0 0-.546-3.026z"/><path class="cls-3" d="M30.769 54.762c-.262-1.043-.587-2.343-.974-3.44a.088.088 0 0 1 .002-.047 4.913 4.913 0 0 1-.244.187 3.7 3.7 0 0 1-.113.186.093.093 0 0 1-.078.042l-.013-.001a3.134 3.134 0 0 1-.196-.038l-.004.004c-.06.013-.16.032-.275.052a12.339 12.339 0 0 1 .87 3.198c.004.05.013.104.022.158a2.435 2.435 0 0 1 .39.409 2.333 2.333 0 0 1 .442 1.403c.033-.1.06-.183.077-.222a.38.38 0 0 1 .459-.194.45.45 0 0 1 .197.14 10.4 10.4 0 0 1-.378-1.108c-.058-.224-.12-.47-.184-.73z"/><path class="cls-8" d="M31.743 46.998a5.481 5.481 0 0 0-2.25-4.396 5.577 5.577 0 0 0-1.541 1.623 5.321 5.321 0 0 1 1.877 2.264 5.51 5.51 0 0 1-.072 4.574 5.414 5.414 0 0 0 1.986-4.066z"/><path class="cls-6" d="M55.681 32.385c.047.055 4.74 5.539 6.722 5.608a21.755 21.755 0 0 0-1.657-3.661 17.436 17.436 0 0 0-5.163-5.811 17.674 17.674 0 0 1 .016 3.837.09.09 0 0 1 .082.027z"/><path class="cls-8" d="M25.271 48.503a5.32 5.32 0 0 1-.418-2.85h-.006a5.596 5.596 0 0 0-2.331.034 5.27 5.27 0 0 0 6.215 5.85 5.52 5.52 0 0 1-3.46-3.034z"/><path class="cls-1" d="m63.36 59.584-.046-.02a15.009 15.009 0 0 1-.348-.112c-.16-.056-.329-.113-.489-.16a5.104 5.104 0 0 1-1.08-.48 4.728 4.728 0 0 1-.808-.554c-2.453-2.095-2.284-6.023-2.237-6.68a4.22 4.22 0 0 0 2.387-1.373c.714-.846 2.894-4.247 1.109-12.131a.02.02 0 0 0-.019-.02 2.046 2.046 0 0 0 .61.133c.01 0 .02-.01.03-.01.018.057.046.122.065.197 1.25 3.806 1.898 9.06.498 15.928a.091.091 0 0 0 .066.104.01.01 0 0 0 .01.009h.018a.099.099 0 0 0 .094-.075c.16-.78.291-1.541.404-2.274 0-.019.01-.038.01-.056a38.626 38.626 0 0 0 .375-4.2v-.301A25.203 25.203 0 0 0 60.9 34.23a17.35 17.35 0 0 0-5.243-5.882.085.085 0 0 0-.094 0 11.71 11.71 0 0 0-.15-.959 15.338 15.338 0 0 1 7.958 7.282c3.252 6.109 3.242 14.49-.01 24.912z"/><path class="cls-9" d="M50.872 50.713a13.498 13.498 0 0 1-1.41 6.484 23.397 23.397 0 0 1-1.156-.874.49.49 0 0 0-.046-.028l-.423-.536a22.064 22.064 0 0 1-4.557-10.797.429.429 0 0 0 .075-.038 19.803 19.803 0 0 0 .47 2.51l.273-.057a.073.073 0 0 0-.028.094.103.103 0 0 0 .094.056.071.071 0 0 0 .037-.009 7.37 7.37 0 0 0 2.321-1.635 8.865 8.865 0 0 0 3.91 4.604c.14.085.29.15.44.226zm13.138-3.204v.3a26.699 26.699 0 0 1-.377 4.2c0 .02-.01.038-.01.057-.13.77-.31 1.55-.525 2.34a23.085 23.085 0 0 1-1.701 4.407 4.728 4.728 0 0 1-.808-.555c-2.453-2.095-2.284-6.023-2.237-6.68a4.22 4.22 0 0 0 2.387-1.373c.714-.845 2.894-4.247 1.109-12.131a.02.02 0 0 0-.019-.019 2.046 2.046 0 0 0 .61.132c.01 0 .02-.01.03-.01.018.057.046.122.065.198a28.528 28.528 0 0 1 1.475 9.134z"/><path class="cls-2" d="m54.077 33.701.3-2.297-2.188-1.492.1 2.696 1.788 1.093z"/><path class="cls-10" d="M23.807 44.05a3.384 3.384 0 0 0-.395 1.318 5.8 5.8 0 0 1 1.469.101 5.965 5.965 0 0 1 .36-1.296 2.7 2.7 0 0 0-1.434-.122z"/><path class="cls-7" d="M50.57 33.655a.09.09 0 0 1 .082.07 16.43 16.43 0 0 1 4.205 1.617 17.71 17.71 0 0 0 .193-8.692c-.657-.25-8.683-3.061-14.629 5.601a58.525 58.525 0 0 1 10.08 1.436.076.076 0 0 1 .068-.032zm1.472-4.008a.101.101 0 0 1 .099.005l2.39 1.629a.094.094 0 0 1 .04.09l-.326 2.498a.092.092 0 0 1-.053.073.09.09 0 0 1-.04.01.094.094 0 0 1-.05-.015l-1.954-1.194a.095.095 0 0 1-.045-.077l-.109-2.932a.095.095 0 0 1 .048-.087z"/><path class="cls-10" d="M28.66 43.05a3.538 3.538 0 0 0-1.244-.595 2.819 2.819 0 0 0-.84 1.07 5.94 5.94 0 0 1 1.22.596 5.881 5.881 0 0 1 .863-1.071z"/><path class="cls-2" d="M25.443 48.428a5.492 5.492 0 0 0 3.873 3.064 5.292 5.292 0 0 0-3.533-7.99 5.41 5.41 0 0 0-.34 4.926z"/><path class="cls-1" d="M51.438 70.904a9.123 9.123 0 1 0 9.122 9.123 9.133 9.133 0 0 0-9.122-9.123zm0 15.35-5.62-6.227 5.62-6.227 5.62 6.227z"/><path class="cls-1" d="m45.819 80.027 5.619 6.226 5.619-6.226-5.619-6.227-5.619 6.227z"/><path class="cls-5" d="m52.276 41.126-.056.023a1.186 1.186 0 0 0-.054.303 1.123 1.123 0 1 0 1.602-1.007l-.056.029c-.47.236-.967.46-1.436.652zm6.543-2.169a1 1 0 1 0 2 0 .987.987 0 0 0-.82-.964c-.344.156-.693.302-1.002.427a.972.972 0 0 0-.178.537z"/><path d="M77.17 77.187h-6.49c.112-.49.26-1.191.37-2.036l-.001-.007.003-.006c.057-.35.094-.71.133-1.084.24-2.544.643-6.8-1.228-9.94a6.625 6.625 0 0 0-.467-.708 10.874 10.874 0 0 0-4.807-3.418c-.35-.143-.693-.275-1.022-.39 3.256-10.473 3.246-18.907-.033-25.067a15.62 15.62 0 0 0-8.178-7.438c-.04-.186-.08-.374-.13-.562a.35.35 0 0 0-.114-.132 11.625 11.625 0 0 0-4.014-.673c-3.067 0-7.484 1.128-11.106 6.5a.2.2 0 0 0-.012.2.195.195 0 0 0 .17.108l.239.012a26.715 26.715 0 0 0-2.008 8.408 29.189 29.189 0 0 0 5.537 19.325l-.259.028a15.935 15.935 0 0 0-2.349.375 5.832 5.832 0 0 0-4.32 3.684l-.097.284c-.136.396-.267.777-.38 1.114a13.226 13.226 0 0 0-.477-2.098.876.876 0 0 0 .55-.68.588.588 0 0 0-.088-.538.32.32 0 0 0-.152-.084 1.02 1.02 0 0 0 .249-.62.778.778 0 0 0-.304-.706.383.383 0 0 0-.19-.051.376.376 0 0 0-.192.054.776.776 0 0 1-.236.07 1.091 1.091 0 0 0-.127-1.203.634.634 0 0 0-.46-.213.623.623 0 0 0-.375.134 2.169 2.169 0 0 1-.672.28 13.04 13.04 0 0 1-.68.13l.01.062-.07-.022a30.694 30.694 0 0 1-2.159-4.861l-.183-.73c-.263-1.047-.59-2.35-.983-3.464-.004-.01-.016-.02-.023-.03A5.642 5.642 0 0 0 32.034 47a5.801 5.801 0 0 0-2.424-4.671l-.093-.027a.56.56 0 0 0-.12.017 4.887 4.887 0 0 0-.603.465 4.223 4.223 0 0 0-1.397-.63.394.394 0 0 0-.117.038 3.179 3.179 0 0 0-.938 1.15 4.235 4.235 0 0 0-.611-.143.34.34 0 0 0-.157.089 4.92 4.92 0 0 0-.317.587 2.588 2.588 0 0 0-.92-.161 3.158 3.158 0 0 0-.638.06.365.365 0 0 0-.135.108 3.572 3.572 0 0 0-.421 1.406 4.451 4.451 0 0 0-.773.137.216.216 0 0 0-.137.177 5.768 5.768 0 0 0 1.825 4.925 5.62 5.62 0 0 0 3.773 1.369 6.411 6.411 0 0 0 .786-.05 13.68 13.68 0 0 1 .833 2.88 3.02 3.02 0 0 0-1.539-.411 3.64 3.64 0 0 0-1.455.31 12.213 12.213 0 0 0-1.444.788 12.39 12.39 0 0 1-1.23.677 4.032 4.032 0 0 1-1.608.383 2.555 2.555 0 0 1-1.082-.253c-.02-.01-.044-.014-.064-.026h-.007c-.02-.01-.038-.013-.058-.022l-.118.004a.372.372 0 0 0-.103.165c-.075 1.704 1.667 2.772 2.42 3.152a7.322 7.322 0 0 0 3.29.87l.148-.002a4.44 4.44 0 0 0 3.092-1.296 4.736 4.736 0 0 1-.479.86c-.741.96.093 2.51.13 2.577a3.334 3.334 0 0 1 .294 1.222 9.96 9.96 0 0 0 1.538 2.924c.558.878 1.135 1.784 1.568 2.637a10.373 10.373 0 0 1 .83 2.342 1.921 1.921 0 0 0-1.488 1.155 1.719 1.719 0 0 0 .308 1.727 2.1 2.1 0 0 0 1.032.643l.198 2.035h-7.92a.197.197 0 0 0-.197.197v5.281a.197.197 0 0 0 .198.197h16.76a9.409 9.409 0 0 0 17.947 0H77.17a.197.197 0 0 0 .197-.197v-5.28a.197.197 0 0 0-.197-.198zm-6.402-2.949q-.022.202-.04.426l-3.733-4.306 2.787-5.693c1.599 3.016 1.235 6.97 1.01 9.356zm-4.155-3.999a.2.2 0 0 0 .027.214l4.008 4.724a22.44 22.44 0 0 1-.372 2.01h-9.867a9.527 9.527 0 0 0-.212-.584.16.16 0 0 0 .053-.086l1.209-5.253a.183.183 0 0 0-.025-.14.241.241 0 0 0-.166-.1.198.198 0 0 0-.195.152l-1.109 4.906a9.404 9.404 0 0 0-8.526-5.467 9.568 9.568 0 0 0-1.3.094c7.241-2.927 12.393-10.231 12.876-10.934.23.075.321.104.35.112l.008.007a11.863 11.863 0 0 1 5.803 3.75 5.857 5.857 0 0 1 .383.582zm-20.8-9.842a6.111 6.111 0 0 0 1.34-.476c-.041 1.198-.034 5.587 2.05 8.905a.36.36 0 0 0 .168.093l.1-.027c.086-.05 8.566-5.068 11.126-10.278a5.695 5.695 0 0 0 1.791.956c.064.019.141.044.235.074-.86 1.235-6.305 8.718-13.751 11.146-.883-.664-3.712-3.374-3.052-10.374.001-.004-.005-.014-.006-.02zM55.1 35.546a17.456 17.456 0 0 0 .551-2.75 33.915 33.915 0 0 0 4.56 4.402l.041.031c.057.042.112.08.168.12l.097.069c-.342.176-.735.357-1.12.52l-.004.004h-.004v.001l-.009.002h-.001a32.2 32.2 0 0 1-1.386.554.196.196 0 0 0-.112.101.38.38 0 0 0-.006.151.198.198 0 0 0 .185.13l.065-.01c.008-.003.358-.135.86-.352l.01.005.04-.008c.31-.125.66-.272 1.006-.428a6.934 6.934 0 0 0 .81-.425 5.55 5.55 0 0 0 .722.391.179.179 0 0 0-.012.083c1.76 7.76-.355 11.06-1.045 11.886a3.987 3.987 0 0 1-2.226 1.267c-.009-.005-.018-.014-.025-.018a.272.272 0 0 0-.106.05 9.602 9.602 0 0 1-2.063.198c-.472 0-.941-.024-1.386-.058a9.939 9.939 0 0 1-3.677-.979 8.201 8.201 0 0 1-.455-.244 8.577 8.577 0 0 1-3.795-4.482c3.357-3.65 3.888-10.144 3.968-11.706a15.303 15.303 0 0 1 4.057 1.604.379.379 0 0 0 .104.028l.068-.012a.372.372 0 0 0 .12-.125zm.659-3.228c-.012-.014-.04-.012-.054-.02a17.628 17.628 0 0 0-.007-3.575 17.626 17.626 0 0 1 4.958 5.66 21.575 21.575 0 0 1 1.582 3.475c-1.994-.341-6.433-5.487-6.479-5.54zm-4.647 18.62a10.326 10.326 0 0 0 3.566.917c.475.037.975.064 1.483.064a9.992 9.992 0 0 0 1.889-.17c-.045.973-.034 4.551 2.234 6.617-2.23 4.653-9.361 9.18-10.81 10.085l-.026.016c-2.124-3.521-1.918-8.282-1.891-8.754a5.016 5.016 0 0 0 1.152-.956c2.303-2.572 2.447-6.385 2.403-7.819zM35.518 67.776a12.215 12.215 0 0 0-.558-1.358c-.143-.266-.287-.6-.49-1.079a5.022 5.022 0 0 1 .338-1.134 1.833 1.833 0 0 1 .19-.1c.299.68.701 1.668 1.235 3.033l.35.837-.264.78-.179.49a9.755 9.755 0 0 1-.622-1.469zm-.161-3.838c.13-.05.26-.097.388-.142l.002-.033a12.93 12.93 0 0 1 .505 2.35q-.55-1.383-.895-2.175zm7.434 18.655a9.022 9.022 0 0 1 .009-5.16 9.02 9.02 0 1 1-.008 5.16zm20.502-23.144a10.707 10.707 0 0 0-.294-.095 11.04 11.04 0 0 0-.494-.161 5.278 5.278 0 0 1-1.848-1.014c-2.329-1.993-2.26-5.646-2.209-6.519a4.347 4.347 0 0 0 2.372-1.384c.714-.856 2.891-4.252 1.159-12.073a1.768 1.768 0 0 0 .41.08 30.622 30.622 0 0 1 .541 15.997.206.206 0 0 0 .03.152.183.183 0 0 0 .117.08l.046.004a.199.199 0 0 0 .194-.156c2.017-9.838-.151-16.406-2.325-20.182a17.25 17.25 0 0 0-5.339-5.926 5.833 5.833 0 0 0-.144-.716 15.347 15.347 0 0 1 7.772 7.184c3.222 6.059 3.226 14.38.012 24.73zm-22.39-26.877c.84.054 2.44.178 4.309.423a20.87 20.87 0 0 0 2.965 23.365.357.357 0 0 0 .153.072.38.38 0 0 0 .126-.044.196.196 0 0 0 .07-.135.37.37 0 0 0-.043-.143 20.663 20.663 0 0 1-5.034-15.97 20.346 20.346 0 0 1 2.18-7.087 45.165 45.165 0 0 1 4.733.892c-.05 1.065-.492 7.933-3.907 11.59a.354.354 0 0 0-.06.066l-.006.001a7.221 7.221 0 0 1-2.309 1.652.197.197 0 0 0 .079.377l.079-.016a6.017 6.017 0 0 0 1.545-.987 7.364 7.364 0 0 0 .673-.629 9.032 9.032 0 0 0 3.926 4.582c.082.049.17.09.282.144l.104.047c.025 1.55-.164 5.276-2.352 7.723a5.77 5.77 0 0 1-3.961 1.733 28.834 28.834 0 0 1-5.588-19.235 25.99 25.99 0 0 1 2.037-8.42zm-3.872 38.094a.215.215 0 0 0-.02.064c-.013.004-.027.01-.04.013a1.41 1.41 0 0 1-.076-.25 12.429 12.429 0 0 0-.25-.902l-.115-.32.436-1.194a.369.369 0 0 0-.001-.139l-.347-.898a2.16 2.16 0 0 0 .027-.23.166.166 0 0 0 .05-.07c.02-.082.243-.742.663-1.961l.1-.288a4.746 4.746 0 0 1 .182-.457 5.502 5.502 0 0 1 .406-.737l.023-.034c.041-.062.09-.128.135-.191l1.298 4.405zM33.85 73.04l.003.022a5.475 5.475 0 0 1-.706-.178l-.102-.03a.197.197 0 0 0-.183.122.195.195 0 0 0 0 .15.2.2 0 0 0 .11.109 4.75 4.75 0 0 0 1.61.283 3.558 3.558 0 0 0 3.202-1.86.202.202 0 0 0 .02-.15.366.366 0 0 0-.09-.118.203.203 0 0 0-.101-.028.351.351 0 0 0-.17.097l-.048.073a2.456 2.456 0 0 1-.28-.431 1.385 1.385 0 0 1 .443-.09.819.819 0 0 1 .754.495c.582 1.086-.215 2.067-1.075 2.577a6.099 6.099 0 0 1-2.85.82 2.11 2.11 0 0 1-1.689-.648 1.325 1.325 0 0 1-.243-1.333A1.57 1.57 0 0 1 33.666 72c.067.321.129.655.183 1.04zm.515 2.266a6.646 6.646 0 0 0 3.072-.884 3.566 3.566 0 0 0 .84-.701l1.03 3.467H34.02l-.189-1.939a3.444 3.444 0 0 0 .534.056zm20.51-40.349-.063.24a16.678 16.678 0 0 0-4.101-1.563.193.193 0 0 0-.15-.084.214.214 0 0 0-.074.027 45.44 45.44 0 0 0-4.89-.923.325.325 0 0 0-.07-.017c-.005 0-.009.004-.014.005a66.681 66.681 0 0 0-4.726-.473l-.003-.001h-.007l-.121.013-.056-.003c3.495-5.005 7.692-6.056 10.6-6.056a12.812 12.812 0 0 1 3.59.52.818.818 0 0 0 .15.036l.012-.002c.05.196.095.391.147.633a18.183 18.183 0 0 1-.224 7.648zm-13.37 26.106a15.515 15.515 0 0 1 2.313-.364 22.694 22.694 0 0 0 1.605-.22c-.607 6.736 1.916 9.6 3.151 10.58a9.363 9.363 0 0 0-6.107 6.13l-.67.017-2.073-.002-1.14-3.837c-.001-.005-.014-.016-.02-.024a1.917 1.917 0 0 0 .095-2.023 1.208 1.208 0 0 0-1.092-.7l2.277-2.938a.356.356 0 0 0 .034-.175l-1.355-4.755a6.472 6.472 0 0 1 2.982-1.689zm-5.662 2.296-.016.005h-.002v.001l-.207.066a5.44 5.44 0 0 0-.554.2l-.001-.001-.008.004-.017.006-.002.002-.035.017h-.007a2.2 2.2 0 0 0-.486.298 4.381 4.381 0 0 0-.432 1.35l.003.008-.004.006v.019c-.002.006-.005.007-.006.014a3.077 3.077 0 0 0 .055 1.185.195.195 0 0 0 .19.148l.05-.006a.198.198 0 0 0 .121-.09.373.373 0 0 0 .02-.15c-.007-.029-.01-.062-.016-.092.042.087.084.177.125.253a12.319 12.319 0 0 1 .537 1.318 6.163 6.163 0 0 0 .892 1.86.373.373 0 0 0 .144.062l.04-.004a.238.238 0 0 0 .067-.044c.096.316.18.596.214.772a2.4 2.4 0 0 0 .662 1.285 3.14 3.14 0 0 1-2.583 1.286c-.11 0-.22-.01-.33-.02l-.022-.172a12.041 12.041 0 0 0-1.14-3.84c-.45-.885-1.061-1.844-1.6-2.69a10.585 10.585 0 0 1-1.464-2.73 3.405 3.405 0 0 0-.345-1.382h-.001c-.03-.056-.731-1.395-.157-2.138a8.288 8.288 0 0 0 .932-1.942.61.61 0 0 0 .043-.171l.055-.166-.053-.018.017-.036.068-.04-.04-.015c.007-.016.016-.031.023-.048l.082-.078.176-.546a6.17 6.17 0 0 1 .113-.336c.005-.011.03-.032.104-.032.113.035.28.327.107 1.17-.066.326-.149.618-.232.9l-.078.259a3.865 3.865 0 0 0 .061 3.071.232.232 0 0 0 .047.047 4.103 4.103 0 0 0-.01.722.2.2 0 0 0 .207.175h.01a.223.223 0 0 0 .175-.22c-.002-.014-.15-1.496.712-1.92a1.036 1.036 0 0 1 .123-.045 11.654 11.654 0 0 1 1.35-.287 3.624 3.624 0 0 0 1.524-.465.23.23 0 0 1 .136-.053.266.266 0 0 1 .176.089.813.813 0 0 1-.022.985c-.194.01-.418.014-.684.014l-1.247-.002a1.297 1.297 0 0 0-1.002.425 2.96 2.96 0 0 0-.496 1.98.198.198 0 0 0 .206.178h.009a.196.196 0 0 0 .133-.071.347.347 0 0 0 .044-.146 2.618 2.618 0 0 1 .396-1.677.951.951 0 0 1 .745-.295l1.184.002a3.334 3.334 0 0 0 1.565-.193.443.443 0 0 1 .11.35.68.68 0 0 1-.376.58 8.775 8.775 0 0 0-.533.065 13.5 13.5 0 0 1-1.138.125 1.442 1.442 0 0 0-1.034.494 3.277 3.277 0 0 0-.575 2.102.197.197 0 0 0 .202.184h.005a.193.193 0 0 0 .136-.066.371.371 0 0 0 .05-.143 3.019 3.019 0 0 1 .477-1.817 1.06 1.06 0 0 1 .762-.36c.47-.028.877-.086 1.205-.133a5.35 5.35 0 0 1 .657-.071c.14 0 .168.026.169.026s.024.038-.007.185c-.06.277-.195.369-.454.458zM22.598 45.773a5.304 5.304 0 0 1 1.156-.122 5.936 5.936 0 0 1 .99.09 5.415 5.415 0 0 0 .432 2.804 5.508 5.508 0 0 0 3.087 2.923c-.15.011-.298.033-.446.033a5.2 5.2 0 0 1-3.496-1.27 5.433 5.433 0 0 1-1.723-4.458zm4.118-2.298a3.108 3.108 0 0 1 .589-.812c.07-.072.098-.102.08-.11a3.842 3.842 0 0 1 1.122.51 5.852 5.852 0 0 0-.741.923 5.809 5.809 0 0 0-1.05-.51zm1 .951.007.002a5.023 5.023 0 0 1 1.84 2.178 5.365 5.365 0 0 1-.285 4.773 5.319 5.319 0 0 1-3.74-2.993 5.246 5.246 0 0 1 .297-4.77 5.748 5.748 0 0 1 1.88.807zm1.435 7.33c.1.021.17.033.177.034l.035.003a.354.354 0 0 0 .164-.088c.01-.014.05-.079.105-.173.024-.017.066-.05.098-.075.368 1.063.682 2.309.939 3.33l.184.73a8.846 8.846 0 0 0 .282.84.417.417 0 0 0-.459.146 2.4 2.4 0 0 0-.437-1.093 2.452 2.452 0 0 0-.376-.393 1.45 1.45 0 0 1-.017-.121 12.721 12.721 0 0 0-.826-3.114c.044-.009.092-.017.13-.026zm1.983 7.677c.132.312.278.63.435.944.05.11.101.225.15.325a1.594 1.594 0 0 0-.622.801 3.532 3.532 0 0 1 .037-2.07zm.93 1.085-.014.005a31.69 31.69 0 0 1-.602-1.359l-.131-.309c.08-.271.16-.552.224-.87a3.92 3.92 0 0 0 .066-.478 49.398 49.398 0 0 0 1.36 2.803 8.68 8.68 0 0 0-.904.208zm-2.04-9.833a5.549 5.549 0 0 0-.1-4.237 5.362 5.362 0 0 0-1.836-2.237 5.955 5.955 0 0 1 1.391-1.49 5.365 5.365 0 0 1 2.161 4.275 5.214 5.214 0 0 1-1.617 3.689zM24.8 45.353a5.919 5.919 0 0 0-1.05-.099c-.08 0-.154.004-.229.007a4.097 4.097 0 0 1 .305-1.108 2.898 2.898 0 0 1 .511-.044 2.379 2.379 0 0 1 .772.129 6.085 6.085 0 0 0-.309 1.115zm-2.614 11.514a4.31 4.31 0 0 0 1.761-.418 13.185 13.185 0 0 0 1.303-.72 11.555 11.555 0 0 1 1.362-.741 3.258 3.258 0 0 1 1.305-.286 2.498 2.498 0 0 1 2.004.943 2.006 2.006 0 0 1 .28.579 1.671 1.671 0 0 0-1.036-.325 2.149 2.149 0 0 0-.403.038 4.86 4.86 0 0 0-1.366.567l-.15.082a3.271 3.271 0 0 1-1.408.478.197.197 0 0 0 .003.394h.005a3.586 3.586 0 0 0 1.588-.525l.161-.088a4.49 4.49 0 0 1 1.242-.52 1.684 1.684 0 0 1 .333-.035 1.213 1.213 0 0 1 .938.383.858.858 0 0 1 .173.47 2.426 2.426 0 0 1-.202.701c-.011.016-.014.032-.025.047-.003.006-.001.012-.004.017l-.006.004a3.486 3.486 0 0 1-.5.759 4.065 4.065 0 0 1-3.04 1.297 7.047 7.047 0 0 1-3.165-.827 4.692 4.692 0 0 1-2.025-1.863 2.057 2.057 0 0 1-.181-.613 2.694 2.694 0 0 0 1.053.202z"/><path d="m53.049 30.169-.862-.588a.167.167 0 0 0-.031-.008l-.046-.03a.578.578 0 0 0-.118.014.194.194 0 0 0-.1.18l.107 2.935a.37.37 0 0 0 .094.16l1.955 1.194a.345.345 0 0 0 .103.029l.086-.02a.356.356 0 0 0 .11-.152l.325-2.498a.197.197 0 0 0-.083-.19zm-.658 2.436-.092-2.497 1.975 1.282-.185 1.57-.076.584zm6.675 11.385c-.044.24-.31.469-.814.7a.193.193 0 0 0-.103.11.395.395 0 0 0 .004.15.198.198 0 0 0 .18.115l.082-.017c.631-.287.97-.61 1.039-.988a1.341 1.341 0 0 0-.527-1.15 7.462 7.462 0 0 1-1.314-2.465c-.026-.084-.1-.13-.24-.13h-.008a.199.199 0 0 0-.13.248 7.734 7.734 0 0 0 1.414 2.626c.32.321.456.583.417.801zm-2.229 3.073a5.7 5.7 0 0 0 1.192.131 2.216 2.216 0 0 0 2.017-.857.19.19 0 0 0 .025-.151.377.377 0 0 0-.085-.12.194.194 0 0 0-.106-.032.349.349 0 0 0-.168.095 1.934 1.934 0 0 1-1.685.667 6.028 6.028 0 0 1-1.142-.123.197.197 0 0 0-.198.15.2.2 0 0 0 .15.24zm-3.086-8.698a.195.195 0 0 0-.158-.08.372.372 0 0 0-.118.04.198.198 0 0 0-.04.276 4.8 4.8 0 0 0 1.104.895l.15.103c-.292.183-.649.381-1.109.615-.463.232-.952.454-1.416.644-1.14.485-2.104.819-2.113.821a.197.197 0 0 0 .066.384l.075-.014a38.42 38.42 0 0 0 2.069-.804l-.005-.012.059-.011a21.6 21.6 0 0 0 1.5-.685 12.351 12.351 0 0 0 1.33-.764.198.198 0 0 0 .084-.166.362.362 0 0 0-.093-.165 7.724 7.724 0 0 1-1.385-1.077zm6.342 1.872a.88.88 0 0 0 .48-1.116c-.123-.526-.537-.88-.925-.789a.88.88 0 0 0-.48 1.117c.123.526.537.88.925.788z"/><path d="M53.565 40.75a.99.99 0 1 0 1.014.763.905.905 0 0 0-1.014-.764z"/><path class="cls-1" d="M60.72 78.2c.02.08.03.17.05.25H75.5v3.15H60.77a1.843 1.843 0 0 1-.05.25h15.03V78.2zm-18.62.25c.02-.08.03-.17.05-.25H27.12v3.65h15.03a1.843 1.843 0 0 1-.05-.25H27.37v-3.15z"/><path class="cls-2" d="m51.438 86.254-.284-.651a12.84 12.84 0 0 0-4.512-5.455l-.176-.12.176-.122a12.84 12.84 0 0 0 4.512-5.454l.284-.651.284.65a12.84 12.84 0 0 0 4.512 5.455l.177.121-.177.121a12.84 12.84 0 0 0-4.512 5.455z"/></g></svg>