<svg xmlns="http://www.w3.org/2000/svg" viewBox="0 0 103 160"><path fill="#fff" d="M0 0h103v160H0z"/><path d="m15.254 29.578.483 1.107a21.84 21.84 0 0 0 7.674 9.278l.3.206-.3.206a21.84 21.84 0 0 0-7.674 9.277l-.483 1.107-.484-1.107a21.84 21.84 0 0 0-7.674-9.277l-.3-.206.3-.206a21.84 21.84 0 0 0 7.674-9.277zm-4.341-19.351H8.691a7.342 7.342 0 0 1 2.326-4.148 6.09 6.09 0 0 1 4.059-1.452 6.707 6.707 0 0 1 3.178.778 5.756 5.756 0 0 1 2.28 2.096 5.2 5.2 0 0 1 .808 2.755 4.996 4.996 0 0 1-2.8 4.46 6.35 6.35 0 0 1 2.578 1.866 5.964 5.964 0 0 1 1.422 3.881 6.925 6.925 0 0 1-.978 3.533 6.781 6.781 0 0 1-2.666 2.6 7.776 7.776 0 0 1-3.777.919 6.937 6.937 0 0 1-4.696-1.623 7.94 7.94 0 0 1-2.46-4.762H10.1a6.183 6.183 0 0 0 1.614 3.066 4.976 4.976 0 0 0 3.437 1.2 5.176 5.176 0 0 0 3.807-1.422 4.541 4.541 0 0 0 1.437-3.333 4.313 4.313 0 0 0-.718-2.385 4.525 4.525 0 0 0-1.926-1.674 10.69 10.69 0 0 0-3.74-.696v-2a6.862 6.862 0 0 0 2.726-.526 3.973 3.973 0 0 0 1.785-1.34 3.091 3.091 0 0 0 .555-1.778 3.226 3.226 0 0 0-1.133-2.46 4.083 4.083 0 0 0-2.867-1.036 3.848 3.848 0 0 0-2.429.792 5.981 5.981 0 0 0-1.734 2.689zm76.833 120.195-.483-1.107a21.84 21.84 0 0 0-7.674-9.278l-.3-.206.3-.206a21.84 21.84 0 0 0 7.674-9.277l.483-1.107.484 1.107a21.84 21.84 0 0 0 7.673 9.277l.3.206-.3.206a21.84 21.84 0 0 0-7.673 9.278zm4.341 19.351h2.222a7.342 7.342 0 0 1-2.326 4.148 6.09 6.09 0 0 1-4.059 1.452 6.707 6.707 0 0 1-3.178-.778 5.756 5.756 0 0 1-2.28-2.096 5.2 5.2 0 0 1-.808-2.755 4.996 4.996 0 0 1 2.8-4.46 6.35 6.35 0 0 1-2.578-1.866 5.964 5.964 0 0 1-1.422-3.881 6.925 6.925 0 0 1 .978-3.533 6.781 6.781 0 0 1 2.666-2.6 7.776 7.776 0 0 1 3.778-.919 6.937 6.937 0 0 1 4.696 1.623 7.94 7.94 0 0 1 2.459 4.762H92.9a6.183 6.183 0 0 0-1.614-3.066 4.976 4.976 0 0 0-3.437-1.2 5.176 5.176 0 0 0-3.807 1.422 4.541 4.541 0 0 0-1.437 3.333 4.313 4.313 0 0 0 .718 2.385 4.525 4.525 0 0 0 1.926 1.674 10.69 10.69 0 0 0 3.74.696v2a6.862 6.862 0 0 0-2.726.526 3.973 3.973 0 0 0-1.785 1.34 3.091 3.091 0 0 0-.555 1.778 3.226 3.226 0 0 0 1.133 2.46 4.083 4.083 0 0 0 2.867 1.036 3.848 3.848 0 0 0 2.429-.792 5.981 5.981 0 0 0 1.734-2.689zM51.5 32.638l.344.787a15.53 15.53 0 0 0 5.457 6.598l.213.146-.213.146a15.53 15.53 0 0 0-5.457 6.598l-.344.787-.344-.787a15.53 15.53 0 0 0-5.457-6.598l-.213-.146.213-.146a15.53 15.53 0 0 0 5.457-6.598zm0 79.662.344.787a15.53 15.53 0 0 0 5.457 6.598l.213.146-.213.146a15.53 15.53 0 0 0-5.457 6.598l-.344.787-.344-.787a15.53 15.53 0 0 0-5.457-6.598l-.213-.146.213-.146a15.53 15.53 0 0 0 5.457-6.598zm0-39.831.344.787a15.53 15.53 0 0 0 5.457 6.598l.213.146-.213.146a15.53 15.53 0 0 0-5.457 6.598l-.344.787-.344-.787a15.53 15.53 0 0 0-5.457-6.598L45.486 80l.213-.146a15.53 15.53 0 0 0 5.457-6.598z" fill="#d90000"/></svg>