<svg xmlns="http://www.w3.org/2000/svg" viewBox="0 0 103 160"><path fill="#fff" d="M0 0h103v160H0z"/><path d="m15.254 50.76-.484-1.108a21.84 21.84 0 0 0-7.674-9.277l-.3-.206.3-.206a21.84 21.84 0 0 0 7.674-9.277l.484-1.108.483 1.108a21.84 21.84 0 0 0 7.674 9.277l.3.206-.3.206a21.84 21.84 0 0 0-7.674 9.277zm6.723-46.003v2.125h-7.932l-1.118 6.089a9.38 9.38 0 0 1 2.623-.428 6.703 6.703 0 0 1 5.026 2.042 7.206 7.206 0 0 1 1.978 5.228 8.195 8.195 0 0 1-1.017 4.037 7.095 7.095 0 0 1-2.755 2.815 8.04 8.04 0 0 1-4.014.98 6.645 6.645 0 0 1-4.583-1.663 6.803 6.803 0 0 1-2.231-4.302h2.291a5.03 5.03 0 0 0 .873 2.095 4.443 4.443 0 0 0 1.64 1.297 4.89 4.89 0 0 0 2.147.493 5.022 5.022 0 0 0 3.779-1.667 5.825 5.825 0 0 0 1.578-4.168 4.93 4.93 0 0 0-1.426-3.668 5.188 5.188 0 0 0-3.81-1.409 12.617 12.617 0 0 0-4.78 1.2L12.31 4.756zM87.746 109.24l.484 1.108a21.84 21.84 0 0 0 7.673 9.277l.3.206-.3.206a21.84 21.84 0 0 0-7.673 9.277l-.484 1.108-.483-1.108a21.84 21.84 0 0 0-7.674-9.277l-.3-.206.3-.206a21.84 21.84 0 0 0 7.674-9.277zm-6.723 46.003v-2.125h7.932l1.118-6.089a9.38 9.38 0 0 1-2.623.428 6.703 6.703 0 0 1-5.026-2.041 7.206 7.206 0 0 1-1.978-5.229 8.195 8.195 0 0 1 1.017-4.037 7.095 7.095 0 0 1 2.755-2.815 8.04 8.04 0 0 1 4.014-.98 6.645 6.645 0 0 1 4.583 1.663 6.803 6.803 0 0 1 2.231 4.302h-2.291a5.03 5.03 0 0 0-.873-2.094 4.443 4.443 0 0 0-1.64-1.298 4.89 4.89 0 0 0-2.147-.493 5.022 5.022 0 0 0-3.779 1.667 5.825 5.825 0 0 0-1.578 4.168 4.93 4.93 0 0 0 1.426 3.668 5.188 5.188 0 0 0 3.81 1.41 12.617 12.617 0 0 0 4.78-1.2l-2.064 11.095zM35.517 32.638l.343.787a15.53 15.53 0 0 0 5.457 6.598l.214.146-.214.146a15.53 15.53 0 0 0-5.457 6.598l-.343.787-.344-.787a15.53 15.53 0 0 0-5.457-6.598l-.214-.146.214-.146a15.53 15.53 0 0 0 5.457-6.598zm0 79.662.343.787a15.53 15.53 0 0 0 5.457 6.598l.214.146-.214.146a15.53 15.53 0 0 0-5.457 6.598l-.343.787-.344-.787a15.53 15.53 0 0 0-5.457-6.598l-.214-.146.214-.146a15.53 15.53 0 0 0 5.457-6.598zm31.966-79.662.344.787a15.53 15.53 0 0 0 5.457 6.598l.214.146-.214.146a15.53 15.53 0 0 0-5.457 6.598l-.344.787-.344-.787a15.53 15.53 0 0 0-5.456-6.598l-.214-.146.214-.146a15.53 15.53 0 0 0 5.457-6.598zm0 79.662.344.787a15.53 15.53 0 0 0 5.457 6.598l.214.146-.214.146a15.53 15.53 0 0 0-5.457 6.598l-.344.787-.344-.787a15.53 15.53 0 0 0-5.456-6.598l-.214-.146.214-.146a15.53 15.53 0 0 0 5.457-6.598zM51.5 72.469l.344.787a15.53 15.53 0 0 0 5.457 6.598l.213.146-.213.146a15.53 15.53 0 0 0-5.457 6.598l-.344.787-.344-.787a15.53 15.53 0 0 0-5.457-6.598L45.486 80l.213-.146a15.53 15.53 0 0 0 5.457-6.598z" fill="#d90000"/></svg>