<svg xmlns="http://www.w3.org/2000/svg" viewBox="0 0 103 160"><path fill="#fff" d="M0 0h103v160H0z"/><path d="M12.884 27.644 11.09 26.49l5.896-8.923a7.13 7.13 0 0 1-2.224.39 5.903 5.903 0 0 1-4.41-1.874 6.384 6.384 0 0 1-1.81-4.614 6.65 6.65 0 0 1 .874-3.392 6.448 6.448 0 0 1 2.482-2.415 6.915 6.915 0 0 1 3.444-.904 6.63 6.63 0 0 1 3.34.874 6.261 6.261 0 0 1 2.407 2.445 6.779 6.779 0 0 1 .874 3.347 8.189 8.189 0 0 1-.54 2.822 17.533 17.533 0 0 1-1.934 3.548zm2.38-11.599a4.564 4.564 0 0 0 4.582-4.577 4.577 4.577 0 0 0-4.592-4.577 4.577 4.577 0 0 0-4.578 4.577 4.581 4.581 0 0 0 4.588 4.577zm-.01 34.715-.484-1.108a21.84 21.84 0 0 0-7.674-9.277l-.3-.206.3-.206a21.84 21.84 0 0 0 7.674-9.277l.484-1.108.483 1.108a21.84 21.84 0 0 0 7.674 9.277l.3.206-.3.206a21.84 21.84 0 0 0-7.674 9.277zm74.862 81.596 1.793 1.155-5.896 8.923a7.13 7.13 0 0 1 2.224-.39 5.903 5.903 0 0 1 4.41 1.874 6.384 6.384 0 0 1 1.81 4.614 6.65 6.65 0 0 1-.873 3.392 6.448 6.448 0 0 1-2.482 2.415 6.915 6.915 0 0 1-3.444.904 6.63 6.63 0 0 1-3.34-.874 6.261 6.261 0 0 1-2.408-2.445 6.779 6.779 0 0 1-.874-3.347 8.189 8.189 0 0 1 .541-2.822 17.533 17.533 0 0 1 1.933-3.548zm-2.38 11.599a4.581 4.581 0 1 0 3.245 1.34 4.41 4.41 0 0 0-3.245-1.34zm.01-34.715.484 1.108a21.84 21.84 0 0 0 7.673 9.277l.3.206-.3.206a21.84 21.84 0 0 0-7.673 9.277l-.484 1.108-.483-1.108a21.84 21.84 0 0 0-7.674-9.277l-.3-.206.3-.206a21.84 21.84 0 0 0 7.674-9.277zM35.517 59.154l.343.787a15.531 15.531 0 0 0 5.457 6.598l.214.146-.214.146a15.53 15.53 0 0 0-5.457 6.598l-.343.787-.344-.787a15.53 15.53 0 0 0-5.457-6.598l-.214-.146.214-.146a15.531 15.531 0 0 0 5.457-6.598zm0-26.516.343.787a15.53 15.53 0 0 0 5.457 6.598l.214.146-.214.146a15.53 15.53 0 0 0-5.457 6.598l-.343.787-.344-.787a15.53 15.53 0 0 0-5.457-6.598l-.214-.146.214-.146a15.53 15.53 0 0 0 5.457-6.598zm0 53.311.343.787a15.53 15.53 0 0 0 5.457 6.597l.214.147-.214.146a15.53 15.53 0 0 0-5.457 6.597l-.343.788-.344-.788a15.53 15.53 0 0 0-5.457-6.597l-.214-.146.214-.147a15.53 15.53 0 0 0 5.457-6.597zm0 26.351.343.787a15.53 15.53 0 0 0 5.457 6.598l.214.146-.214.146a15.53 15.53 0 0 0-5.457 6.598l-.343.787-.344-.787a15.53 15.53 0 0 0-5.457-6.598l-.214-.146.214-.146a15.53 15.53 0 0 0 5.457-6.598zm31.966-53.146.344.787a15.531 15.531 0 0 0 5.457 6.598l.214.146-.214.146a15.53 15.53 0 0 0-5.457 6.598l-.344.787-.344-.787a15.53 15.53 0 0 0-5.456-6.598l-.214-.146.214-.146a15.531 15.531 0 0 0 5.457-6.598zm0-26.516.344.787a15.53 15.53 0 0 0 5.457 6.598l.214.146-.214.146a15.53 15.53 0 0 0-5.457 6.598l-.344.787-.344-.787a15.53 15.53 0 0 0-5.456-6.598l-.214-.146.214-.146a15.53 15.53 0 0 0 5.457-6.598zm0 53.311.344.787a15.53 15.53 0 0 0 5.457 6.597l.214.147-.214.146a15.53 15.53 0 0 0-5.457 6.597l-.344.788-.344-.788a15.53 15.53 0 0 0-5.456-6.597l-.214-.146.214-.147a15.53 15.53 0 0 0 5.457-6.597zm0 26.351.344.787a15.53 15.53 0 0 0 5.457 6.598l.214.146-.214.146a15.53 15.53 0 0 0-5.457 6.598l-.344.787-.344-.787a15.53 15.53 0 0 0-5.456-6.598l-.214-.146.214-.146a15.53 15.53 0 0 0 5.457-6.598zM51.5 72.469l.344.787a15.53 15.53 0 0 0 5.457 6.598l.213.146-.213.146a15.53 15.53 0 0 0-5.457 6.598l-.344.787-.344-.787a15.53 15.53 0 0 0-5.457-6.598L45.486 80l.213-.146a15.53 15.53 0 0 0 5.457-6.598z" fill="#d90000"/></svg>