<svg xmlns="http://www.w3.org/2000/svg" viewBox="0 0 103 160"><path fill="#fff" d="M0 0h103v160H0z"/><path d="m15.254 29.578.483 1.107a21.84 21.84 0 0 0 7.674 9.278l.3.206-.3.206a21.84 21.84 0 0 0-7.674 9.277l-.483 1.107-.484-1.107a21.84 21.84 0 0 0-7.674-9.277l-.3-.206.3-.206a21.84 21.84 0 0 0 7.674-9.277zm-4.91-17.408h-2.14a7.67 7.67 0 0 1 2.208-5.423 7.1 7.1 0 0 1 5.228-2.12 6.654 6.654 0 0 1 6.89 6.68 7.31 7.31 0 0 1-.908 3.562 25.61 25.61 0 0 1-3.526 4.501l-5.562 5.989h10.3v2.155H7.674l8.527-9.218a27.423 27.423 0 0 0 3.378-4.124 5.546 5.546 0 0 0 .782-2.833 4.36 4.36 0 0 0-1.404-3.242 4.755 4.755 0 0 0-3.438-1.36 4.815 4.815 0 0 0-3.559 1.427 6.13 6.13 0 0 0-1.616 4.006zm77.402 118.252-.483-1.107a21.84 21.84 0 0 0-7.674-9.278l-.3-.206.3-.206a21.84 21.84 0 0 0 7.674-9.277l.483-1.107.484 1.107a21.84 21.84 0 0 0 7.673 9.277l.3.206-.3.206a21.84 21.84 0 0 0-7.673 9.278zm4.91 17.408h2.14a7.67 7.67 0 0 1-2.208 5.423 7.1 7.1 0 0 1-5.228 2.12 6.654 6.654 0 0 1-6.89-6.68 7.31 7.31 0 0 1 .908-3.562 25.61 25.61 0 0 1 3.526-4.501l5.562-5.989h-10.3v-2.155h15.16l-8.527 9.218a27.423 27.423 0 0 0-3.378 4.124 5.546 5.546 0 0 0-.782 2.833 4.36 4.36 0 0 0 1.404 3.243 4.755 4.755 0 0 0 3.438 1.36 4.815 4.815 0 0 0 3.56-1.427 6.13 6.13 0 0 0 1.615-4.007zM51.5 32.638l.344.787a15.53 15.53 0 0 0 5.457 6.598l.213.146-.213.146a15.53 15.53 0 0 0-5.457 6.598l-.344.787-.344-.787a15.53 15.53 0 0 0-5.457-6.598l-.213-.146.213-.146a15.53 15.53 0 0 0 5.457-6.598zm0 79.662.344.787a15.53 15.53 0 0 0 5.457 6.598l.213.146-.213.146a15.53 15.53 0 0 0-5.457 6.598l-.344.787-.344-.787a15.53 15.53 0 0 0-5.457-6.598l-.213-.146.213-.146a15.53 15.53 0 0 0 5.457-6.598z" fill="#d90000"/></svg>