<svg xmlns="http://www.w3.org/2000/svg" viewBox="0 0 103 160"><defs><style>.cls-1{fill:#fff}.cls-2{fill:#d90000}.cls-3{fill:#f49908}.cls-4{fill:#f9c19b}.cls-5{fill:#663f2e}.cls-6{fill:#bcbbbb}.cls-7{fill:#999898}.cls-8{fill:#1e4262}.cls-9{fill:#152d3f}.cls-10{fill:#ffc614}.cls-11{fill:none;stroke:#fff;stroke-miterlimit:10;stroke-width:.25px}.cls-12{fill:#383838}</style></defs><g id="DIAMONDS"><path class="cls-1" d="M0 0h103v160H0z"/><path class="cls-2" d="m15.254 29.578.483 1.108a21.84 21.84 0 0 0 7.674 9.277l.3.206-.3.206a21.84 21.84 0 0 0-7.674 9.277l-.483 1.107-.484-1.107a21.84 21.84 0 0 0-7.674-9.277l-.3-.206.3-.206a21.84 21.84 0 0 0 7.674-9.277zm3.248-24.821h2.23v15.071a14.787 14.787 0 0 1-.538 4.834 4.508 4.508 0 0 1-1.798 2.17 5.512 5.512 0 0 1-3.051.812 7.134 7.134 0 0 1-2.664-.524 11.298 11.298 0 0 1-2.906-1.844l1.184-1.775a17.535 17.535 0 0 0 2.904 1.73 3.697 3.697 0 0 0 1.49.334 2.873 2.873 0 0 0 1.742-.577 3.016 3.016 0 0 0 1.096-1.533 14.238 14.238 0 0 0 .31-3.703zm69.244 125.665-.483-1.108a21.84 21.84 0 0 0-7.674-9.277l-.3-.206.3-.206a21.84 21.84 0 0 0 7.674-9.277l.483-1.107.484 1.107a21.84 21.84 0 0 0 7.673 9.277l.3.206-.3.206a21.84 21.84 0 0 0-7.673 9.277zm-3.248 24.821h-2.23v-15.071a14.787 14.787 0 0 1 .538-4.834 4.508 4.508 0 0 1 1.799-2.17 5.512 5.512 0 0 1 3.05-.812 7.134 7.134 0 0 1 2.664.524 11.298 11.298 0 0 1 2.906 1.844l-1.184 1.775a17.535 17.535 0 0 0-2.904-1.73 3.697 3.697 0 0 0-1.49-.334 2.873 2.873 0 0 0-1.742.577 3.016 3.016 0 0 0-1.096 1.533 14.238 14.238 0 0 0-.31 3.703z"/><path d="M77.658 35.935a.586.586 0 0 0-.034-.098.126.126 0 0 0-.093-.026l-.004-.007-.003.005-.054.003v.001l-.015-.004.032-.02-.141-.027-6.31 4.058-6.04 10.857-.213.38-4.734 8.424a4.576 4.576 0 0 0-2.842-1.117.33.33 0 0 0-.147.075 4.874 4.874 0 0 1-.12.13 3.113 3.113 0 0 1-.136-.24.259.259 0 0 0 .073.021.369.369 0 0 0 .142-.058 19.242 19.242 0 0 0 2.25-2.64 9.25 9.25 0 0 1-.82 2.003.203.203 0 0 0 .05.265.35.35 0 0 0 .123.043.345.345 0 0 0 .148-.063c6.11-6.38 5.866-13.14 5.112-16.689a14.606 14.606 0 0 0-.678-2.373l.012-.014c.223-.25.418-.491.6-.731a12.887 12.887 0 0 0 .953-1.356c2.286-3.85.886-6.73-.153-8.105a4.588 4.588 0 0 0-1.259-1.142 25.74 25.74 0 0 0-12.977-3.158A27.43 27.43 0 0 0 38.357 26.9a5.84 5.84 0 0 0-3.386 3.63 6.106 6.106 0 0 0 1 4.603c.18.314.367.61.555.884a.349.349 0 0 0 .033.15 15.56 15.56 0 0 0 1.084 1.355c.269.3.476.511.583.617-.264 1.215-2.161 11.138 4.333 19.106a.368.368 0 0 0 .156.072.956.956 0 0 0 .117-.037.203.203 0 0 0 .057-.271 9.256 9.256 0 0 1-1.064-3.39 24.628 24.628 0 0 0 2.413 3.945.356.356 0 0 0 .158.076c.01 0 .105-.03.111-.032a.203.203 0 0 0 .069-.265 29.883 29.883 0 0 1-2.546-6.839 13.694 13.694 0 0 0 3.138 4.72 11.329 11.329 0 0 1-.11 4.17 2.125 2.125 0 0 1-.2.395 4.749 4.749 0 0 1-.294-.366c-.037-.052-.09-.075-.223-.075h-.017a8.591 8.591 0 0 0-3.57 2.841.205.205 0 0 0-.01.214 6.678 6.678 0 0 0 .37.583 13.983 13.983 0 0 1-1.453.731l-.2.08c-3.943 1.565-10.471 5.38-10.039 13.398H26.23a.203.203 0 0 0-.203.203v5.185a.2.2 0 0 0 .065.145.194.194 0 0 0 .151.078h2.643l-.009.027c0 7.344 4.367 11.733 8.147 13.285l-11.52 20.541-.16 7.406a.586.586 0 0 0 .034.098.126.126 0 0 0 .093.027l.004.007.003-.006c.015 0 .033 0 .054-.002v-.001l.015.004-.032.02.14.027 6.31-4.059 6.04-10.857.213-.38 4.734-8.423a4.576 4.576 0 0 0 2.842 1.117.33.33 0 0 0 .148-.076 3.58 3.58 0 0 1 .12-.13c.048.075.092.158.135.24a.259.259 0 0 0-.072-.02.369.369 0 0 0-.142.057 19.242 19.242 0 0 0-2.25 2.642 9.25 9.25 0 0 1 .82-2.004.203.203 0 0 0-.05-.266.35.35 0 0 0-.124-.042.345.345 0 0 0-.146.063c-6.11 6.38-5.866 13.14-5.112 16.689a14.606 14.606 0 0 0 .678 2.373l-.012.014c-.223.25-.418.491-.6.731a12.887 12.887 0 0 0-.953 1.356c-2.286 3.85-.886 6.73.153 8.105a4.588 4.588 0 0 0 1.259 1.142 25.74 25.74 0 0 0 12.975 3.158 27.43 27.43 0 0 0 12.023-2.567 5.84 5.84 0 0 0 3.385-3.63 6.106 6.106 0 0 0-1-4.603c-.18-.314-.366-.61-.554-.883a.349.349 0 0 0-.033-.15 15.56 15.56 0 0 0-1.084-1.356 13.87 13.87 0 0 0-.583-.617c.264-1.215 2.161-11.138-4.334-19.106a.368.368 0 0 0-.155-.072.956.956 0 0 0-.117.037.203.203 0 0 0-.057.271 9.256 9.256 0 0 1 1.064 3.39 24.628 24.628 0 0 0-2.413-3.945.356.356 0 0 0-.159-.076c-.01 0-.105.03-.11.032a.203.203 0 0 0-.069.265 29.883 29.883 0 0 1 2.546 6.839 13.694 13.694 0 0 0-3.138-4.72 11.329 11.329 0 0 1 .11-4.17 2.125 2.125 0 0 1 .2-.395c.176.2.278.343.294.366.037.052.09.075.223.075h.017a8.591 8.591 0 0 0 3.57-2.841.205.205 0 0 0 .01-.214 6.678 6.678 0 0 0-.37-.583 13.983 13.983 0 0 1 1.453-.731l.2-.08c3.943-1.565 10.471-5.38 10.039-13.398h3.192a.203.203 0 0 0 .203-.203v-5.185a.2.2 0 0 0-.065-.145.194.194 0 0 0-.15-.079h-2.643l.009-.027c0-7.343-4.367-11.733-8.147-13.284l11.52-20.542zm-52.13 88.244zm21.296-20.102-.007.01-.01.004-.002.004.002-.004.01-.004.007-.01zm-.042.067zm-.1.873c-.017.255-.032.463-.032.61l-.021.159-.02.01c-.212.24-.423.513-.633.8a12.765 12.765 0 0 1 .706-1.58zm14.94 18.337-.005-.005-.001-.004.007.004c.019 0 .033-.014.049-.021l.013-.003-.01.013a.172.172 0 0 1-.026.016zm.1-.046-.01.006-.005-.001.013-.006.005-.002v.001zm-16.46-15.638c.08-.301.17-.6.27-.895v.001c-.1.294-.19.593-.27.894zm-1.858-2.303zm-1.524 2.787.066-.151-.066.15zm14.338-52.298zm.1-.873c.017-.254.032-.463.032-.61l.021-.159.02-.01c.212-.24.423-.513.633-.8a12.765 12.765 0 0 1-.706 1.58zm-.733-18.94c.11.023.221.044.326.07-.105-.026-.219-.046-.326-.07zm-14.206.603.004.005.001.004-.007-.004c-.019 0-.033.014-.049.021l-.013.003.01-.013a.174.174 0 0 1 .026-.016zm-.102.047.011-.007.005.001-.013.006-.005.002v-.001zM57.738 52.33c-.08.301-.17.6-.27.895v-.001c.1-.294.19-.592.27-.894zm-1.544 3.575-.002.003.002-.003zm4.966-4.15-.106.242.106-.242zm-1.21 2.32h-.001v.001zm-.354.558zm.763-1.26-.094.17.094-.17zM58.7 74.195l.01-.007zm1.304 9.295c-.046.112-.09.224-.14.334.034-.076.06-.156.093-.233.016-.034.033-.067.047-.101zM44.3 85.804l-.01.007zm-1.304-9.295c.046-.112.09-.224.14-.333-.034.075-.06.155-.094.232-.015.034-.032.067-.046.101zm14.2-8.289zm-.264-.338-.06.197v-.005l.024-.079.039-.123zm-13.426 7.571c.03-.053.06-.106.092-.158l-.092.158zm2.297 16.327zm.265.338.06-.197v.005l-.024.079-.039.123zm13.426-7.571zm-10.189-22.67c-.005.003-.011.003-.016.007.005-.004.011-.004.016-.007zm10.138-7.018-.04.058zm-17.911-6.741zm2.026 57.023.039-.057v-.001zm17.91 6.741zm-4.74-53.872a.19.19 0 0 0-.035.093 6.476 6.476 0 0 1-.388-1.332c-.015-.117-.031-.232-.04-.357a.234.234 0 0 0 .017-.024l.014-.006a18.255 18.255 0 0 0 2.275-2.886 8.5 8.5 0 0 1-1.843 4.512zm1.371-1.39zm.718-.891zm1.955-.855.001-.002v.001zm-.704.975.046-.061zm1.012-1.44zm3.47-18.014c.03-.052.055-.103.083-.155-.029.052-.05.103-.08.156zm.391-.76c-.005.013-.014.026-.02.04.028-.06.05-.117.076-.175-.014.03-.023.06-.036.09zm.294-.734-.012.03.029-.084-.005.019zM41.894 55.6l-.017-.05zm1.038-1.073c-.022-.055-.045-.11-.066-.166.02.056.044.111.066.166zm-.173-.434c-.073-.198-.15-.395-.219-.592v.001c.069.197.146.394.219.59zm-.66-4.303v.001zm.221.528-.005-.011c.062.146.12.296.185.438-.063-.138-.12-.285-.18-.427zm2.463 9.903a.241.241 0 0 1-.057-.026.241.241 0 0 0 .056.026zm1.489 41.77a.19.19 0 0 0 .035-.092 6.476 6.476 0 0 1 .388 1.331c.015.118.031.233.04.357a.234.234 0 0 0-.017.024l-.014.007a18.255 18.255 0 0 0-2.275 2.886 8.5 8.5 0 0 1 1.843-4.513zm-1.371 1.39v.001zm-.718.892zm-1.955.855-.001.001zm.704-.975-.046.06zm-1.012 1.439zm-3.47 18.014c-.03.052-.054.102-.082.154.028-.053.049-.103.08-.156zm-.391.76c.005-.013.014-.026.02-.039-.027.059-.05.116-.075.173.013-.03.022-.059.036-.09zm-.294.734.012-.03-.029.085.005-.02zm23.341-20.7.017.05zm-1.376.22c.145.34.275.68.405 1.019-.13-.34-.26-.679-.405-1.019zm.511 1.287c.073.198.15.395.219.592v-.001c-.069-.197-.146-.394-.219-.591zm.66 4.303v-.001zm-.221-.528.002.004c-.061-.143-.119-.292-.182-.43.063.137.12.284.18.426zm-2.462-9.903a.238.238 0 0 1 .056.025c.004.004.004.012.007.017-.003-.005-.003-.013-.007-.016a.241.241 0 0 0-.056-.026zM77.472 35.82z"/><path class="cls-3" d="M43.194 105.144a8.93 8.93 0 0 1 .599-2.049 17.796 17.796 0 0 0-3.666 18.028c.054.034.203.127.45.268a20.46 20.46 0 0 1 2.617-16.247z"/><path class="cls-1" d="M51.505 88.91a8.901 8.901 0 1 0-8.9-8.9 8.91 8.91 0 0 0 8.9 8.9zm0-15.014 5.517 6.113-5.517 6.113-5.517-6.113z"/><path class="cls-2" d="m45.8 92.983.304-.978.037-.12a2.989 2.989 0 0 0 .489.073h.018a1.448 1.448 0 0 0 .286.019 4.892 4.892 0 0 0 .987-.11 6.88 6.88 0 0 0 1.31-.462 15.161 15.161 0 0 0 2.039-1.236c.11-.074.23-.157.341-.23q.36-.25.72-.471c.203-.13.415-.25.618-.36.01 0 .019-.019.028-.037a8.34 8.34 0 0 0 1.587-.406.717.717 0 0 0 .655.323 1.717 1.717 0 0 0 .498-.074 60.384 60.384 0 0 0 8.81-3.395 22.36 22.36 0 0 0 2.547-1.439 8.63 8.63 0 0 0 1.513-1.227.14.14 0 0 0 .037-.102h4.659c.018.24.018.49.018.73a12.798 12.798 0 0 1-.157 2.01 10.194 10.194 0 0 1-.461 1.827 11.11 11.11 0 0 1-1.919 3.45 13.747 13.747 0 0 1-2.103 2.104 17.406 17.406 0 0 1-1.873 1.328 21.176 21.176 0 0 1-3.377 1.68l-.212.083a15.408 15.408 0 0 0-1.568.793c-2.5-3.293-7.077-3.468-7.123-3.468H54.5a.39.39 0 0 0-.092.036 3.857 3.857 0 0 0-.904 2.556 7.942 7.942 0 0 0-1.117-2.537.48.48 0 0 0-.12-.055h-.018a14.071 14.071 0 0 0-3.681 1.254z"/><path class="cls-4" d="M53.711 98.116a.14.14 0 0 1-.08.036 11.468 11.468 0 0 0-7.345 2.976 4.668 4.668 0 0 1 .724 2.257 14.29 14.29 0 0 1 1.431-1.265l.087-.027a.377.377 0 0 1 .114.053.148.148 0 0 1-.013.201 10.327 10.327 0 0 0-1.57 1.91 11.33 11.33 0 0 1-.064 1.204 8.136 8.136 0 0 1 5.847-2.721 7.09 7.09 0 0 1 4.6 1.772c-.116-.936-.327-3.449.526-4.57a5.837 5.837 0 0 0-4.163-1.807.32.32 0 0 1-.094-.019z"/><path class="cls-2" d="M55.64 88.63c1.474-.401 9.95-3.167 12.625-5.88h-7.982a9.234 9.234 0 0 1-5.413 5.807.467.467 0 0 0 .357.138 1.62 1.62 0 0 0 .414-.065zm-10.11 7.3-.455.809c.267-.208.53-.418.806-.612z"/><path class="cls-1" d="M49.352 95.382a1.188 1.188 0 0 1-.11.91l-.15.268a1.2 1.2 0 0 1-1.629.456l-1.3-.73c-.495.34-.983.707-1.45 1.097l-1.588 2.826a4.189 4.189 0 0 0 2.623 1.073 11.36 11.36 0 0 1 7.782-3.42 9.294 9.294 0 0 0-1.352-4.3 18.098 18.098 0 0 0-3.314 1.167 1.178 1.178 0 0 1 .488.653z"/><path class="cls-3" d="M45.193 107.92a.143.143 0 0 1 .012-.083l.014-.022a12.728 12.728 0 0 1 1.562-3.67.243.243 0 0 1 .027-.053l.01-.004c.054-.084.102-.17.159-.253a19.221 19.221 0 0 0-2.926 3.888 17.02 17.02 0 0 0-.87 14.919 26.362 26.362 0 0 0 3.509 1.155c-.56-1.563-3.133-9.353-1.497-15.877z"/><path class="cls-3" d="M43.798 107.572c.07-.123.14-.239.211-.357a8.934 8.934 0 0 1 1.037-4.01 19.966 19.966 0 0 0-4.104 18.388 22.64 22.64 0 0 0 1.872.898 17.268 17.268 0 0 1 .984-14.92z"/><path class="cls-2" d="M29.193 82.751h13.534a2.122 2.122 0 0 0 .092.259 8.24 8.24 0 0 0 .85 1.771 7.223 7.223 0 0 0 .507.757 1.823 1.823 0 0 0-.868.931 1.224 1.224 0 0 0 .139.997 1.498 1.498 0 0 0-.692.627 1.18 1.18 0 0 0-.148.941 1.282 1.282 0 0 0 .102.194l-1.338 1.264-2.786-1.569a1.33 1.33 0 0 0-.59-.147 1.19 1.19 0 0 0-1.043.609l-.147.267a1.209 1.209 0 0 0-.111.914 1.188 1.188 0 0 0 .563.72l.516.285 1.421.794-.498.886-1.458 2.592a11.132 11.132 0 0 1-2.564-1.448 11.789 11.789 0 0 1-1.606-1.403 12.285 12.285 0 0 1-.562-.627 13.527 13.527 0 0 1-2.667-5.056 13.708 13.708 0 0 1-.406-1.836 17.39 17.39 0 0 1-.175-1.743 14.63 14.63 0 0 1-.028-.895.117.117 0 0 0-.037-.084z"/><path d="M60.7 80.01a9.148 9.148 0 0 1-.34 2.446h16.318l-.055-4.946-16.262.054a9.151 9.151 0 0 1 .34 2.445z"/><path class="cls-4" d="M47.032 123.876a25.626 25.626 0 0 0 5.966.715 24.869 24.869 0 0 0 8.498-1.508 33.197 33.197 0 0 0 .084-10.838c-1.629-5.77-4.883-9.211-8.737-9.211-2.841 0-5.517 1.788-7.351 4.904-1.723 6.756 1.183 14.973 1.54 15.938zm9.201-5.542a.142.142 0 0 1 .101-.05l1.467-.09a.974.974 0 0 1-.47-.82.99.99 0 0 1 1.98 0 .974.974 0 0 1-.366.75l1.912-.117h.006a.147.147 0 0 1 .148.139.39.39 0 0 1-.038.106.142.142 0 0 1-.1.048l-4.52.279a.15.15 0 0 1-.157-.139.383.383 0 0 1 .037-.106zm-1.53-1.483a.148.148 0 0 1-.135.088c-.133-.045-.167-.133-.135-.206.019-.045 1.902-4.38.762-5.653a1.133 1.133 0 0 0-.883-.336 3.289 3.289 0 0 0-.967.174h-.022a.145.145 0 0 1-.067-.283 3.612 3.612 0 0 1 1.059-.186 1.407 1.407 0 0 1 1.1.435c1.266 1.41-.63 5.781-.711 5.967zM52 108.143l3.038-.2h.006a.147.147 0 0 1 .01.294l-3.034.2a.15.15 0 0 1-.157-.137.148.148 0 0 1 .138-.157zm-4.52 9.99 1.441.04a1.03 1.03 0 0 1-.394-.8 1.047 1.047 0 0 1 2.094 0 1.027 1.027 0 0 1-.445.833l2.094.058a.354.354 0 0 1 .103.045.147.147 0 0 1-.108.248l-4.789-.13a.355.355 0 0 1-.103-.045.147.147 0 0 1 .107-.249z"/><path class="cls-5" d="M45.587 91.715a6.197 6.197 0 0 1-1.627-1.134l-.257-.22a4.774 4.774 0 0 1-.845-.865l-1.22 1.15 3.9 2.191.319-1.04c-.09-.03-.184-.046-.27-.082z"/><path class="cls-3" d="M61.819 122.966c.692-.26 1.378-.56 2.059-.883a29.06 29.06 0 0 0-4.287-17.812 31.283 31.283 0 0 1 2.266 7.87c.022.077.047.15.068.229a.146.146 0 0 1-.019.115 34.194 34.194 0 0 1-.087 10.481z"/><path class="cls-6" d="m25.697 123.796.073-3.542.037-1.66.037-1.883 2.897-5.185 1.2-2.14 5.461-9.751 1.937-3.47a.133.133 0 0 0 .102-.082.252.252 0 0 0 0-.083l1.79-3.22.166-.295.23.129 2.62 1.476 2.796 1.568.23.13-5.323 9.474-1.209 2.15-4.28 7.611-1.209 2.15-1.568 2.795z"/><path class="cls-1" d="m25.77 120.254.037-1.661 8.654-3.57-1.209 2.149-7.482 3.082zm2.971-8.728 1.199-2.14 10.01-4.124-1.208 2.15-10.001 4.114zm6.661-11.892 1.937-3.469a.133.133 0 0 0 .102-.082.252.252 0 0 0 0-.083l1.79-3.22.397-.167 2.62 1.476 2.795 1.569z"/><path class="cls-7" d="m25.697 123.796.147-7.085L37.34 96.165a.133.133 0 0 0 .102-.082.252.252 0 0 0 0-.083l1.956-3.516 2.85 1.606z"/><path class="cls-6" d="m28.236 119.238 1.192-2.139-3.621 1.494-.036 1.642-.001.019 2.466-1.016zm.51-7.714 4.914-2.022 1.193-2.14-4.91 2.023-1.197 2.139zm11.533-13.901 1.968-3.533-2.62-1.476-.394.165L37.44 96a.252.252 0 0 1 0 .083.133.133 0 0 1-.102.083l-1.937 3.468z"/><path class="cls-8" d="M38.474 123.557a28.07 28.07 0 0 0 5.978 2.786c.84.267 1.698.498 2.565.682a26.374 26.374 0 0 0 5.61.59 28.02 28.02 0 0 0 5.11-.47 20.49 20.49 0 0 0 1.126-.24c.95-.212 1.827-.461 2.62-.72a25.894 25.894 0 0 0 4.751-2.039c.941 1.375 1.928 3.358 1.458 5.24a5.559 5.559 0 0 1-3.21 3.405 27.035 27.035 0 0 1-11.864 2.527 25.42 25.42 0 0 1-12.796-3.109 4.334 4.334 0 0 1-1.163-1.051c-.969-1.291-2.27-3.985-.185-7.601z"/><path class="cls-9" d="M58.863 126.906c.95-.213 1.827-.462 2.62-.72.424 1.743.212 3.265-.498 3.45-.701.185-1.633-1.024-2.122-2.73zm-14.411-.563c.84.267 1.698.498 2.565.682-.627 1.412-1.522 2.335-2.15 2.122-.6-.212-.747-1.393-.415-2.804z"/><path class="cls-10" d="M48.048 96.875a.905.905 0 0 0 .787-.46l.15-.267a.9.9 0 0 0-.344-1.228l-10.204-5.736a.903.903 0 0 0-1.228.344l-.15.268a.9.9 0 0 0 .344 1.227l10.204 5.736a.904.904 0 0 0 .44.116zm-9.463 26.479c.11-.185.24-.36.36-.545.101-.147.194-.304.304-.452.24-.323.49-.655.748-.968a22.813 22.813 0 0 0 5.194 2.306 25.78 25.78 0 0 0 2.039.553 26.102 26.102 0 0 0 2.943.499 25.263 25.263 0 0 0 11.44-1.403c.009 0 .009 0 .009.01h.027a.202.202 0 0 0 .074-.047 24.333 24.333 0 0 0 2.26-.987c.01.01.019.019.028.019a.139.139 0 0 0 .129-.093l.36-.165a15.804 15.804 0 0 1 1.56 1.826 27.102 27.102 0 0 1-6.422 2.51c-.046.009-.092.027-.138.037-.572.147-1.181.276-1.818.396a27.39 27.39 0 0 1-5.046.47 26.462 26.462 0 0 1-5.812-.636h-.01v-.01a27.164 27.164 0 0 1-8.164-3.293.44.44 0 0 0-.065-.027z"/><path d="M42.31 80.01a9.154 9.154 0 0 1 .34-2.445H26.334l.056 4.946 16.26-.054a9.153 9.153 0 0 1-.34-2.448z"/><path class="cls-11" transform="rotate(180 51.505 80.01)" d="M27.756 78.343h47.497v3.333H27.756z"/><path class="cls-3" d="M60.992 104.062a7.706 7.706 0 0 1 .534 3.174 28.74 28.74 0 0 1 2.655 14.704c.08-.04.163-.074.243-.114.186-.84 2.048-10.013-3.432-17.764z"/><path class="cls-1" d="M58.3 99.87c.159.17.288.323.356.413a8.27 8.27 0 0 0 3.27-2.624 6.863 6.863 0 0 0-.384-.59.113.113 0 0 1-.067-.046.282.282 0 0 1-.013-.065c-2.282-3.046-6.431-3.353-6.928-3.38-1.019 1.005-.747 3.768-.683 4.312l.1-.001a5.939 5.939 0 0 1 4.266 1.891.254.254 0 0 1 .057.026.136.136 0 0 1 .026.063z"/><path class="cls-4" d="M44.35 85.771a1.597 1.597 0 0 0-.756.79.892.892 0 0 0 .199.876 1.918 1.918 0 0 0 .396.29l2.32 1.402a1.421 1.421 0 0 0 .658.254.449.449 0 0 0 .185-.038.482.482 0 0 1 .049-.003.14.14 0 0 1 .146.077.148.148 0 0 1-.074.195.74.74 0 0 1-.307.064 1.675 1.675 0 0 1-.81-.295l-2.312-1.397a2.682 2.682 0 0 1-.39-.282 1.157 1.157 0 0 0-.64.538.86.86 0 0 0-.123.694 3.055 3.055 0 0 0 1.006 1.198l.258.225a6.042 6.042 0 0 0 1.547 1.084 3.195 3.195 0 0 0 1.234.236 5.2 5.2 0 0 0 2.17-.537 15.318 15.318 0 0 0 1.982-1.209c.379-.258.732-.5 1.09-.72.027-.017.054-.03.081-.048a9.37 9.37 0 0 1-.753.039 9.178 9.178 0 0 1-7.156-3.433z"/><path class="cls-2" d="m57.022 80.009-5.517-6.113-5.517 6.113 5.517 6.113 5.517-6.113z"/><path class="cls-4" d="M59.31 117.373a.99.99 0 0 0-1.98 0 .974.974 0 0 0 .47.822l1.146-.07a.974.974 0 0 0 .365-.752zm-8.69 0a1.047 1.047 0 0 0-2.093 0 1.03 1.03 0 0 0 .394.799l1.255.034a1.027 1.027 0 0 0 .445-.833z"/><path class="cls-4" d="m56.352 118.579 4.52-.279a.142.142 0 0 0 .101-.048.39.39 0 0 0 .037-.107.147.147 0 0 0-.147-.139h-.006l-1.912.118a1.004 1.004 0 0 1-.09.06l2.002-.123h.006a.092.092 0 0 1 .006.184l-4.52.279h-.006a.092.092 0 0 1-.006-.184l1.538-.095c-.027-.014-.049-.034-.074-.05l-1.467.09a.142.142 0 0 0-.1.048.383.383 0 0 0-.038.107.15.15 0 0 0 .156.139z"/><path class="cls-4" d="M58.855 118.185a1.004 1.004 0 0 0 .09-.06l-1.144.07c.025.016.047.036.074.05z"/><path class="cls-4" d="m57.875 118.245-1.538.095a.092.092 0 0 0 .006.184h.006l4.52-.279a.092.092 0 0 0-.006-.184h-.006l-2.002.124a.893.893 0 0 1-.98.06z"/><path class="cls-4" d="M58.32 118.363a.963.963 0 0 0 .535-.178l-.98.06a.967.967 0 0 0 .446.118zm-10.844.063 4.79.131a.147.147 0 0 0 .107-.249.354.354 0 0 0-.103-.045l-2.094-.057a1.012 1.012 0 0 1-.078.053l2.171.06a.092.092 0 1 1-.005.183l-4.787-.13a.092.092 0 0 1 .003-.184h.003l1.523.041a1.008 1.008 0 0 1-.085-.057l-1.441-.04a.147.147 0 0 0-.107.25.355.355 0 0 0 .103.044z"/><path class="cls-4" d="M50.098 118.259a.823.823 0 0 0 .078-.053l-1.255-.034a1.008 1.008 0 0 0 .085.057z"/><path class="cls-4" d="m49.006 118.23-1.523-.042h-.003a.092.092 0 0 0-.003.183l4.787.131a.092.092 0 1 0 .005-.184l-2.17-.059a.938.938 0 0 1-1.093-.03z"/><path class="cls-4" d="M49.574 118.42a1.017 1.017 0 0 0 .524-.16l-1.092-.03a1.018 1.018 0 0 0 .568.19z"/><path d="M54.315 110.394a3.665 3.665 0 0 0-1.075.189.204.204 0 0 0-.133.254c.02.061.076.133.25.133h.005a3.253 3.253 0 0 1 .95-.17 1.078 1.078 0 0 1 .842.318c1.095 1.221-.694 5.413-.772 5.593a.173.173 0 0 0 0 .145.275.275 0 0 0 .186.14.203.203 0 0 0 .187-.123c.082-.187 1.993-4.587.702-6.027a1.463 1.463 0 0 0-1.142-.452zm.881-2.171a.197.197 0 0 0 .05-.147.203.203 0 0 0-.202-.189h-.006l-3.04.2a.207.207 0 0 0-.134.074.196.196 0 0 0 .16.332l3.034-.2a.2.2 0 0 0 .138-.07z"/><path d="M25.342 124.064a.583.583 0 0 0 .034.099.126.126 0 0 0 .093.026l.004.007.003-.005.054-.003v-.001l.015.004-.032.02.141.027 6.31-4.058 6.04-10.857.213-.38 4.734-8.424a4.576 4.576 0 0 0 2.841 1.117.33.33 0 0 0 .148-.075c.004-.004.051-.058.12-.13.048.074.092.157.136.24a.26.26 0 0 0-.073-.021.37.37 0 0 0-.142.058 19.248 19.248 0 0 0-2.25 2.64 9.254 9.254 0 0 1 .82-2.003.203.203 0 0 0-.05-.265.35.35 0 0 0-.123-.043.345.345 0 0 0-.147.063c-6.11 6.38-5.866 13.14-5.112 16.69a14.602 14.602 0 0 0 .678 2.372l-.012.014c-.223.25-.418.492-.599.731a12.897 12.897 0 0 0-.953 1.357c-2.286 3.85-.886 6.73.152 8.104a4.588 4.588 0 0 0 1.26 1.142 25.74 25.74 0 0 0 12.975 3.158 27.428 27.428 0 0 0 12.023-2.567 5.84 5.84 0 0 0 3.385-3.63 6.106 6.106 0 0 0-1-4.603c-.18-.314-.366-.61-.554-.883a.35.35 0 0 0-.033-.15 15.56 15.56 0 0 0-1.084-1.356 13.87 13.87 0 0 0-.583-.617c.264-1.215 2.161-11.138-4.333-19.106a.368.368 0 0 0-.156-.072.979.979 0 0 0-.117.037.203.203 0 0 0-.057.271 9.256 9.256 0 0 1 1.064 3.39 24.628 24.628 0 0 0-2.413-3.945.356.356 0 0 0-.158-.076c-.01 0-.105.03-.111.032a.203.203 0 0 0-.069.265 29.878 29.878 0 0 1 2.546 6.839 13.692 13.692 0 0 0-3.138-4.72 11.33 11.33 0 0 1 .11-4.17 2.134 2.134 0 0 1 .2-.395c.176.2.278.343.294.366.037.052.09.075.223.075h.017a8.591 8.591 0 0 0 3.57-2.841.205.205 0 0 0 .01-.214 6.693 6.693 0 0 0-.37-.583 13.983 13.983 0 0 1 1.453-.731l.2-.08c3.943-1.565 10.471-5.38 10.039-13.398h3.192a.203.203 0 0 0 .203-.203v-5.185a.203.203 0 0 0-.203-.203H60.323a9.215 9.215 0 0 0-8.818-6.457 9.109 9.109 0 0 0-7.577 3.992 9.292 9.292 0 0 0-1.212 2.466H26.242a.203.203 0 0 0-.203.202v5.185a.203.203 0 0 0 .203.203h2.643l-.009.027c0 7.343 4.367 11.733 8.147 13.285l-11.52 20.541zm35.338-14.38c.075.173.15.346.22.526.207.53.394 1.092.568 1.672l.057.371v.001a36.407 36.407 0 0 1 .185 9.257 21.18 21.18 0 0 1-.232 1.52h-.001a24.865 24.865 0 0 1-8.479 1.505 30.194 30.194 0 0 1-5.16-.491l-.096-.018c-.218-.047-.443-.089-.653-.139l-.017-.026.012-.006c-.339-.914-3.253-9.109-1.553-15.896.005.002.003.005.008.007a12.557 12.557 0 0 1 1.41-1.955 7.968 7.968 0 0 1 5.893-2.922c3.08 0 5.813 2.256 7.658 6.166.063.138.12.285.18.427zm-18.76-4.093c.097-.155.205-.31.308-.463a20.725 20.725 0 0 1 1.457-1.902 6.835 6.835 0 0 0-.345 1.121 7.81 7.81 0 0 0-.159.723l-.02.037-.012.006a20.197 20.197 0 0 0-2.917 14.803c.11.622.221 1.087.301 1.384a11.86 11.86 0 0 1-.36-.214 17.907 17.907 0 0 1 .237-12.566 18.366 18.366 0 0 1 1.22-2.457c.093-.157.189-.315.29-.472zm1.625-.415-.003-.01.055-.082c.19-.279.39-.544.587-.812.227-.298.465-.596.717-.891a8.302 8.302 0 0 0-.786 2.492 8.6 8.6 0 0 0-.129 1.3l-.024.013s-.16.268-.211.359a17.24 17.24 0 0 0-.993 14.86 22.249 22.249 0 0 1-1.769-.85 20.365 20.365 0 0 1 .8-13.192c.052-.12.103-.24.158-.36a18.447 18.447 0 0 1 .789-1.547c.1-.177.208-.354.316-.531.114-.186.23-.372.353-.558a.211.211 0 0 0 .14-.19zm-17.79 18.582.14-7.015 5.297-9.584 6.15-10.993.018-.006-.01.031c.007-.002.007-.008.013-.01l-.004.036c.016-.005.018-.02.032-.027v.001-.001a.193.193 0 0 0 .1-.084.285.285 0 0 0-.012-.1h.007l.237-.435-.237.452.927-1.715.985-1.76c4.617 2.593 5.59 3.14 5.8 3.256l-13.54 24.117-3.771 2.475-.014.009zm37.634-27.932-.209.085a9.108 9.108 0 0 0-1.315.68l-.201.115c-2.522-3.297-7.113-3.478-7.16-3.479h-.002a.349.349 0 0 0-.136.052 3.6 3.6 0 0 0-.877 2.397 7.718 7.718 0 0 0-1.055-2.36.349.349 0 0 0-.167-.089l-.028.003a10.919 10.919 0 0 0-2.18.646c-.44.163-.933.368-1.464.622v-.006a866.217 866.217 0 0 0-2.728-1.533l.201-.84.06-.197a.12.12 0 0 0 0 .013 3.64 3.64 0 0 0 .808.096 5.558 5.558 0 0 0 2.32-.573 15.37 15.37 0 0 0 2.048-1.248c.344-.234.699-.477 1.057-.7.131-.08.263-.158.402-.24l.071-.073.147-.088c.003.006 0 .018.004.02a8.544 8.544 0 0 0 1.563-.406.763.763 0 0 0 .675.324 1.962 1.962 0 0 0 .51-.078c1.508-.413 10.29-3.285 12.898-6.081a.118.118 0 0 0 .032-.083l2.232-.027h2.333c.426 7.787-5.979 11.517-9.839 13.048zm-3.148 10.082c-.016-.039-.028-.08-.044-.118l-.063-.15a29.01 29.01 0 0 0-.415-1.045 30.184 30.184 0 0 1 3.98 11.054 27.086 27.086 0 0 1 .154 6.384c-.628.298-1.26.574-1.966.862a34.175 34.175 0 0 0 .074-10.418v-.008a.193.193 0 0 0 .017-.115l-.067-.223a28.643 28.643 0 0 0-1.452-5.632c-.068-.197-.145-.394-.218-.591zm.822-1.635a23.19 23.19 0 0 1 3.735 14.548 21.048 21.048 0 0 1-.392 2.954 3.64 3.64 0 0 0-.139.064l-.025.014a28.939 28.939 0 0 0-2.66-14.628 6.334 6.334 0 0 0-.46-2.775l-.059-.177zm4.733 19.294c.076.1.15.191.228.297a28.372 28.372 0 0 1-13.393 3.402 26.772 26.772 0 0 1-13.95-3.927l-.016-.005c.075-.12.155-.239.238-.359l.001-.004.09-.133v.004l.112-.169.007-.011.008-.011c.056-.086.113-.172.176-.259l.29-.392a6.79 6.79 0 0 0 .262-.374c.047-.059.09-.12.137-.179a24.454 24.454 0 0 0 7.23 2.86 25.594 25.594 0 0 0 5.713.646 23.939 23.939 0 0 0 6.573-.905c.431-.122.859-.262 1.285-.41.278-.092.56-.166.836-.268.008-.003 0-.014-.007-.025l.008.004c.019 0 .032-.013.048-.02l.013-.004-.023.03c-.017.01-.032.02-.038.022.011 0 .02-.01.03-.013l-.03.041a.197.197 0 0 0 .115-.05l.001.004a11.83 11.83 0 0 0 1.53-.704c.228-.104.458-.206.684-.316h.004c-.003.011-.008.025-.004.028a.41.41 0 0 0 .057-.009l.001.008a.165.165 0 0 0 .107-.05l.056-.033-.01.017.163-.078.103-.08.033-.017.124.124a28.5 28.5 0 0 1 1.208 1.318zm-28.044 1.567.012-.035q.118-.338.275-.69l.02-.045c.112-.248.24-.502.388-.76a26.692 26.692 0 0 0 14.18 4.07 27.858 27.858 0 0 0 5.123-.478 28.181 28.181 0 0 0 7.673-2.584c.364-.184.626-.327.775-.411.917 1.336 1.905 3.311 1.436 5.17a5.457 5.457 0 0 1-3.173 3.367 27.027 27.027 0 0 1-11.84 2.525 25.358 25.358 0 0 1-12.767-3.098 4.198 4.198 0 0 1-1.147-1.044 6.43 6.43 0 0 1-.955-5.987zm23.975-1.816a.117.117 0 0 0-.02-.005l.013-.006.005-.002a.046.046 0 0 1 .002.013zm-14.945-19.174zm-.1.873c-.017.255-.032.463-.032.61l-.021.159-.02.01c-.212.24-.423.512-.633.8a12.787 12.787 0 0 1 .706-1.58zm.14-1.016a.284.284 0 0 0 .001.076l-.006.01-.01.004-.002.004a.1.1 0 0 0-.024-.007l-.047.027a10.383 10.383 0 0 0-1.202 2.66c-.101.296-.19.595-.272.897l-.032.025-.056.088a.483.483 0 0 0-.026.116l-.007.006c-1.654 6.593 1.004 14.49 1.502 15.817a26.298 26.298 0 0 1-3.417-1.124 16.964 16.964 0 0 1 .875-14.85 23.881 23.881 0 0 1 2.162-3.13c.035-.044.073-.085.11-.127.155-.176.305-.337.452-.492zm17.36 18.262v.001l.004-.001-.003.005zm-11.34-19.579a8.079 8.079 0 0 0-5.78 2.653c.027-.27.052-.64.052-1.06a10.135 10.135 0 0 1 1.553-1.89.201.201 0 0 0 .017-.275.351.351 0 0 0-.157-.075 1.067 1.067 0 0 0-.118.037 12.496 12.496 0 0 0-1.355 1.232 4.725 4.725 0 0 0-.698-2.168 11.437 11.437 0 0 1 7.278-2.93.207.207 0 0 0 .074-.07v.001a.266.266 0 0 0 .097.052 5.886 5.886 0 0 1 3.636 1.312c.182.15.342.295.472.425-.838 1.13-.643 3.546-.531 4.466a7.081 7.081 0 0 0-4.54-1.71zm-9.201-14.972.004.005-.01.009-.019.02a2.775 2.775 0 0 0 .399.286l2.312 1.398a1.714 1.714 0 0 0 .84.304.784.784 0 0 0 .328-.07.205.205 0 0 0 .103-.268c-.032-.07-.095-.1-.246-.1h-.022a.412.412 0 0 1-.163.032 1.384 1.384 0 0 1-.63-.245l-2.32-1.403a1.893 1.893 0 0 1-.385-.28.839.839 0 0 1-.186-.82 1.764 1.764 0 0 1 .628-.743l.016-.026.022-.015-.006.01a9.217 9.217 0 0 0 7.2 3.455c.18 0 .36-.015.54-.028-.32.2-.638.415-1.009.67a15.088 15.088 0 0 1-1.955 1.19 5.139 5.139 0 0 1-2.146.53c-.186 0-.365-.011-.547-.02a3.154 3.154 0 0 1-.25-.047c-.015-.01-.023-.032-.041-.037l-.011-.002a2.89 2.89 0 0 1-.364-.123 6.023 6.023 0 0 1-1.533-1.076l-.258-.224a3.021 3.021 0 0 1-.99-1.175.807.807 0 0 1 .118-.648 2.023 2.023 0 0 1 .39-.455.946.946 0 0 1 .19-.104zm-1.912 2.92 1.092-1.095a4.779 4.779 0 0 0 .846.864l.257.22a6.206 6.206 0 0 0 1.642 1.144 1.044 1.044 0 0 0 .185.055l.045-.04h.008l-.298.974zm31.7-8.232v.003l-.007-.003H60.428a9.212 9.212 0 0 0 .328-2.391 8.027 8.027 0 0 0-.369-2.39l7.977-.081 8.205-.029v.001l.082 2.468.027 2.422zM59.98 77.476a8.848 8.848 0 0 1-8.476 11.379 8.925 8.925 0 0 1-8.48-6.33 8.859 8.859 0 0 1 .017-5.09 8.846 8.846 0 0 1 16.939.04zm-.578 7.228.09-.157q.139-.25.261-.508a9.072 9.072 0 0 0 .512-1.243l.018.01 3.722-.032 4.154-.004c-2.735 2.692-11.095 5.415-12.533 5.806a1.548 1.548 0 0 1-.4.064.889.889 0 0 1-.276-.055l-.003-.001a9.115 9.115 0 0 0 4.455-3.88zM26.39 77.621h16.192a9.191 9.191 0 0 0-.327 2.388 8.32 8.32 0 0 0 .348 2.353c.003.013.004.026.008.04l-7.963.08-8.203.029zm22.224 17.348a.844.844 0 0 1 .323 1.152l-.15.267a.845.845 0 0 1-1.153.322L37.43 90.975a.844.844 0 0 1-.322-1.152l.15-.268a.848.848 0 0 1 1.152-.322c2.03 1.14 2.626 1.475 2.816 1.55l.015.008c.002.01-.004.01 0 .023a.574.574 0 0 0 .074.035l-.013.01zm-3.386 1.582.28-.57.285.144c-.192.136-.379.28-.565.426zm8.483 1.565h.002l-.004.017-.014-.01c.005-.003.011-.003.016-.007zm-.736-9.04.002.009-.007-.003zm-8.849 9.408.593-1.055a.17.17 0 0 0 .028-.012l.001.01c.336-.282.693-.56 1.063-.846l.191-.174c.045-.032.088-.07.133-.1l.008.006-.008.022 1.3.73a1.255 1.255 0 0 0 1.705-.478l.151-.267a1.24 1.24 0 0 0 .114-.952 1.208 1.208 0 0 0-.444-.621 17.022 17.022 0 0 1 3.032-1.077c.092-.024.146-.039.153-.055a8.845 8.845 0 0 1 1.306 4.057.322.322 0 0 0 .029.138 11.257 11.257 0 0 0-7.73 3.417 4.583 4.583 0 0 1-2.11-.655 3.963 3.963 0 0 1-.459-.353zm14.148 1.322a.241.241 0 0 0-.057-.026l.013-.007c.004-.01.034-.024.026-.031a6.099 6.099 0 0 0-2.818-1.68 5.572 5.572 0 0 0-1.488-.201l-.044.015c-.066-.548-.332-3.273.625-4.242a11.702 11.702 0 0 1 4.639 1.336 8.108 8.108 0 0 1 1.664 1.271l.092.09c.096.1.186.21.278.316.069.082.14.162.206.248a.104.104 0 0 0 .01.046.11.11 0 0 0-.003.05l.055.076a.02.02 0 0 0 .02.01l.017-.004-.013.028c.111.154.219.313.32.463l.065.063a8.513 8.513 0 0 1-3.181 2.622 1.885 1.885 0 0 0-.403-.387.113.113 0 0 0-.023-.056zM35.471 82.778h7.207a8.93 8.93 0 0 0 1.428 2.735 1.816 1.816 0 0 0-.846.94 1.193 1.193 0 0 0 .133.983 1.569 1.569 0 0 0-.683.63 1.2 1.2 0 0 0-.15.986.946.946 0 0 0 .066.142l.033.009-.603.606-.67.63-2.778-1.56a1.252 1.252 0 0 0-1.705.478l-.15.268a1.253 1.253 0 0 0 .478 1.705l1.886 1.058-.898 1.654-.978 1.743c-3.676-1.464-7.96-5.73-7.96-12.952l-.01-.027zm11.265 20.808a.234.234 0 0 0-.018.024l-.015.007a18.26 18.26 0 0 0-2.274 2.886 8.5 8.5 0 0 1 1.842-4.513.19.19 0 0 0 .036-.092 6.476 6.476 0 0 1 .388 1.331c.015.118.031.233.04.357zM25.528 124.18z"/><path class="cls-12" d="m69.426 86.516 3.875-3.036a12.798 12.798 0 0 1-.157 2.011 10.194 10.194 0 0 1-.461 1.827 11.11 11.11 0 0 1-1.919 3.45zM29.258 83.73l4.566 3.514-1.319 5.12a13.527 13.527 0 0 1-2.666-5.055 13.708 13.708 0 0 1-.406-1.836 17.39 17.39 0 0 1-.175-1.744z"/><path d="M47.32 118.523a8.389 8.389 0 0 0 2.91.46 11.729 11.729 0 0 0 2.004-.168h.014a.202.202 0 0 1 .222.159.415.415 0 0 1-.03.146.198.198 0 0 1-.128.086 11.699 11.699 0 0 1-2.08.177 8.762 8.762 0 0 1-3.049-.484.2.2 0 0 1 .07-.387.363.363 0 0 1 .066.011z"/><path d="M47.215 118.81a10.777 10.777 0 0 0 5.078.303.104.104 0 0 0 .083-.123.1.1 0 0 0-.124-.082 10.572 10.572 0 0 1-4.963-.296.117.117 0 0 0-.037-.006.104.104 0 0 0-.098.068.105.105 0 0 0 .061.136zm13.41-.742a.45.45 0 0 1 .144.055.216.216 0 0 1 .014.302c-.067.072-.703.703-2.585.703a11.194 11.194 0 0 1-1.771-.156.215.215 0 0 1-.176-.246.205.205 0 0 1 .205-.18 10.998 10.998 0 0 0 1.735.155 3.3 3.3 0 0 0 2.275-.565.472.472 0 0 1 .159-.068z"/><path d="M56.48 118.65a.105.105 0 0 0-.13.092.113.113 0 0 0 .093.13c3.268.532 4.225-.472 4.265-.515a.113.113 0 0 0-.084-.188.114.114 0 0 0-.083.037c-.008.009-.936.959-4.06.444z"/><circle cx="58.302" cy="117.327" r=".982"/><circle cx="49.552" cy="117.372" r="1.027"/><path class="cls-3" d="M59.806 54.856a8.929 8.929 0 0 1-.599 2.049 17.796 17.796 0 0 0 3.666-18.028 11.148 11.148 0 0 0-.45-.268 20.461 20.461 0 0 1-2.617 16.247z"/><path class="cls-1" d="M51.495 71.09a8.901 8.901 0 1 0 8.9 8.901 8.91 8.91 0 0 0-8.9-8.901zm0 15.014-5.517-6.113 5.517-6.113 5.517 6.113z"/><path class="cls-2" d="m57.2 67.017-.304.978-.037.12a2.978 2.978 0 0 0-.489-.073h-.018a1.44 1.44 0 0 0-.286-.019 4.892 4.892 0 0 0-.987.11 6.883 6.883 0 0 0-1.31.462 15.167 15.167 0 0 0-2.039 1.236c-.11.074-.23.157-.341.23q-.36.25-.72.471c-.203.13-.415.25-.618.36-.01 0-.019.019-.028.037a8.34 8.34 0 0 0-1.587.406.717.717 0 0 0-.655-.323 1.716 1.716 0 0 0-.498.074 60.388 60.388 0 0 0-8.81 3.395 22.358 22.358 0 0 0-2.547 1.439 8.626 8.626 0 0 0-1.513 1.227.14.14 0 0 0-.037.102h-4.659c-.018-.24-.018-.49-.018-.73a12.799 12.799 0 0 1 .157-2.01 10.194 10.194 0 0 1 .461-1.827 11.108 11.108 0 0 1 1.919-3.45 13.742 13.742 0 0 1 2.104-2.104 17.415 17.415 0 0 1 1.872-1.328 21.181 21.181 0 0 1 3.377-1.68l.212-.083a15.401 15.401 0 0 0 1.568-.793c2.5 3.293 7.076 3.468 7.123 3.468h.009a.39.39 0 0 0 .092-.036 3.857 3.857 0 0 0 .904-2.556 7.942 7.942 0 0 0 1.117 2.537.479.479 0 0 0 .12.055h.018a14.066 14.066 0 0 0 3.681-1.254z"/><path class="cls-4" d="M49.289 61.884a.14.14 0 0 1 .08-.036 11.469 11.469 0 0 0 7.345-2.976 4.668 4.668 0 0 1-.724-2.257 14.274 14.274 0 0 1-1.43 1.265l-.087.027a.377.377 0 0 1-.114-.053.148.148 0 0 1 .012-.201 10.327 10.327 0 0 0 1.57-1.91 11.334 11.334 0 0 1 .064-1.204 8.136 8.136 0 0 1-5.848 2.721 7.09 7.09 0 0 1-4.6-1.772c.116.936.328 3.448-.525 4.57a5.837 5.837 0 0 0 4.163 1.807.32.32 0 0 1 .094.019z"/><path class="cls-2" d="M47.36 71.37c-1.474.401-9.95 3.167-12.625 5.88h7.982a9.234 9.234 0 0 1 5.413-5.807.467.467 0 0 0-.357-.138 1.62 1.62 0 0 0-.414.065zm10.11-7.3.455-.809c-.267.208-.53.418-.806.612z"/><path class="cls-1" d="M53.648 64.618a1.188 1.188 0 0 1 .11-.91l.15-.268a1.2 1.2 0 0 1 1.629-.456l1.3.73c.495-.34.983-.707 1.45-1.097l1.588-2.826a4.188 4.188 0 0 0-2.623-1.073 11.36 11.36 0 0 1-7.782 3.42 9.294 9.294 0 0 0 1.352 4.3 18.098 18.098 0 0 0 3.314-1.167 1.178 1.178 0 0 1-.488-.653z"/><path class="cls-3" d="M57.807 52.08a.143.143 0 0 1-.012.083l-.014.022a12.728 12.728 0 0 1-1.562 3.67.243.243 0 0 1-.027.053l-.01.004c-.054.084-.102.17-.159.253a19.221 19.221 0 0 0 2.926-3.888 17.02 17.02 0 0 0 .871-14.919 26.362 26.362 0 0 0-3.509-1.154c.559 1.562 3.132 9.352 1.496 15.876z"/><path class="cls-3" d="M59.202 52.428c-.07.122-.14.238-.211.357a8.934 8.934 0 0 1-1.037 4.01 19.966 19.966 0 0 0 4.104-18.388 22.632 22.632 0 0 0-1.872-.898 17.267 17.267 0 0 1-.984 14.92z"/><path class="cls-2" d="M73.807 77.249H60.273a2.122 2.122 0 0 0-.092-.259 8.237 8.237 0 0 0-.85-1.771 7.214 7.214 0 0 0-.507-.757 1.823 1.823 0 0 0 .868-.931 1.224 1.224 0 0 0-.139-.997 1.498 1.498 0 0 0 .692-.627 1.18 1.18 0 0 0 .148-.941 1.287 1.287 0 0 0-.102-.194l1.338-1.264 2.786 1.568a1.33 1.33 0 0 0 .59.148 1.19 1.19 0 0 0 1.043-.609l.147-.267a1.209 1.209 0 0 0 .111-.914 1.188 1.188 0 0 0-.563-.72l-.516-.286-1.421-.793.498-.886 1.458-2.592a11.132 11.132 0 0 1 2.564 1.448 11.784 11.784 0 0 1 1.606 1.403c.193.203.378.406.562.627a13.528 13.528 0 0 1 2.667 5.056 13.708 13.708 0 0 1 .406 1.835 17.39 17.39 0 0 1 .175 1.744c.018.295.028.59.028.895a.117.117 0 0 0 .037.084z"/><path d="M42.299 79.99a9.148 9.148 0 0 1 .34-2.446H26.323l.055 4.946 16.262-.054a9.151 9.151 0 0 1-.34-2.445z"/><path class="cls-4" d="M55.968 36.124a25.626 25.626 0 0 0-5.966-.716 24.869 24.869 0 0 0-8.498 1.509 33.194 33.194 0 0 0-.084 10.838c1.629 5.77 4.883 9.211 8.737 9.211 2.841 0 5.517-1.788 7.351-4.904 1.723-6.756-1.183-14.973-1.54-15.938zm-9.201 5.542a.142.142 0 0 1-.101.05l-1.467.09a.974.974 0 0 1 .47.82.99.99 0 0 1-1.98 0 .974.974 0 0 1 .366-.75l-1.913.117h-.006a.147.147 0 0 1-.147-.139.39.39 0 0 1 .037-.106.142.142 0 0 1 .101-.049l4.52-.278a.15.15 0 0 1 .156.139.387.387 0 0 1-.036.106zm1.53 1.483a.148.148 0 0 1 .135-.088c.133.045.167.132.135.206-.019.045-1.902 4.38-.762 5.653a1.133 1.133 0 0 0 .883.336 3.289 3.289 0 0 0 .967-.174h.022a.145.145 0 0 1 .067.283 3.612 3.612 0 0 1-1.059.186 1.407 1.407 0 0 1-1.1-.435c-1.266-1.41.63-5.781.711-5.967zM51 51.857l-3.037.2h-.006a.147.147 0 0 1-.01-.294l3.034-.2a.15.15 0 0 1 .156.137.148.148 0 0 1-.137.157zm4.52-9.99-1.44-.04a1.03 1.03 0 0 1 .393.8 1.047 1.047 0 0 1-2.094 0 1.028 1.028 0 0 1 .445-.833l-2.094-.058a.356.356 0 0 1-.103-.045.147.147 0 0 1 .108-.248l4.79.13a.355.355 0 0 1 .102.045.147.147 0 0 1-.107.249z"/><path class="cls-5" d="M57.413 68.285a6.198 6.198 0 0 1 1.627 1.134l.257.22a4.774 4.774 0 0 1 .845.865l1.22-1.15-3.9-2.191-.319 1.04c.09.03.184.046.27.082z"/><path class="cls-3" d="M41.181 37.034c-.692.26-1.378.56-2.059.883a29.06 29.06 0 0 0 4.288 17.812 31.283 31.283 0 0 1-2.267-7.87c-.021-.077-.046-.15-.068-.229a.145.145 0 0 1 .02-.115 34.194 34.194 0 0 1 .086-10.481z"/><path class="cls-6" d="m77.303 36.203-.073 3.543-.037 1.66-.037 1.883-2.897 5.185-1.199 2.14-5.462 9.752-1.937 3.469a.133.133 0 0 0-.102.082.252.252 0 0 0 0 .083l-1.79 3.22-.166.296-.23-.13-2.62-1.475-2.796-1.569-.23-.13 5.323-9.474 1.208-2.15 4.281-7.611 1.209-2.15 1.568-2.796z"/><path class="cls-1" d="m77.23 39.746-.037 1.661-8.654 3.57 1.209-2.149 7.482-3.082zm-2.971 8.728-1.199 2.14-10.01 4.124 1.208-2.15 10.001-4.114zm-6.661 11.892-1.937 3.469a.133.133 0 0 0-.102.082.252.252 0 0 0 0 .083l-1.79 3.22-.397.167-2.62-1.477-2.795-1.568z"/><path class="cls-7" d="m77.303 36.203-.147 7.086L65.66 63.834a.133.133 0 0 0-.102.083.252.252 0 0 0 0 .083l-1.956 3.516-2.85-1.606z"/><path class="cls-6" d="m74.764 40.762-1.192 2.139 3.621-1.494.036-1.642.001-.019-2.466 1.016zm-.51 7.714-4.914 2.022-1.193 2.14 4.91-2.023 1.197-2.139zM62.721 62.377l-1.968 3.533 2.62 1.476.394-.165L65.559 64a.252.252 0 0 1 0-.084.133.133 0 0 1 .102-.083l1.937-3.469z"/><path class="cls-8" d="M64.526 36.443a28.069 28.069 0 0 0-5.978-2.786 26.97 26.97 0 0 0-2.565-.683 26.374 26.374 0 0 0-5.61-.59 28.02 28.02 0 0 0-5.11.471 20.49 20.49 0 0 0-1.126.24c-.95.212-1.827.461-2.62.72a25.894 25.894 0 0 0-4.751 2.039c-.941-1.375-1.928-3.358-1.458-5.24a5.559 5.559 0 0 1 3.21-3.405 27.035 27.035 0 0 1 11.865-2.527 25.42 25.42 0 0 1 12.796 3.108 4.332 4.332 0 0 1 1.162 1.052c.969 1.291 2.27 3.985.185 7.601z"/><path class="cls-9" d="M44.137 33.094c-.95.213-1.827.462-2.62.72-.424-1.743-.212-3.265.498-3.45.701-.185 1.633 1.024 2.122 2.73zm14.411.563a26.97 26.97 0 0 0-2.565-.682c.627-1.412 1.522-2.335 2.15-2.122.6.212.747 1.393.415 2.804z"/><path class="cls-10" d="M54.952 63.125a.905.905 0 0 0-.787.46l-.15.267a.9.9 0 0 0 .344 1.228l10.204 5.736a.903.903 0 0 0 1.228-.344l.15-.268a.9.9 0 0 0-.344-1.227L55.393 63.24a.904.904 0 0 0-.44-.116zm9.463-26.479c-.11.185-.24.36-.36.545-.101.147-.194.304-.304.452-.24.323-.49.655-.748.968a22.818 22.818 0 0 0-5.193-2.306 25.935 25.935 0 0 0-2.039-.553 26.125 26.125 0 0 0-2.943-.499 25.263 25.263 0 0 0-11.44 1.403c-.01 0-.01 0-.01-.01h-.027a.202.202 0 0 0-.074.046 24.321 24.321 0 0 0-2.26.988c-.009-.01-.018-.019-.028-.019a.139.139 0 0 0-.129.092l-.36.166a15.804 15.804 0 0 1-1.559-1.826 27.1 27.1 0 0 1 6.421-2.51c.046-.009.092-.027.139-.037.572-.147 1.18-.276 1.817-.396a27.389 27.389 0 0 1 5.047-.47 26.462 26.462 0 0 1 5.812.636h.009v.01a27.164 27.164 0 0 1 8.165 3.293.436.436 0 0 0 .064.027z"/><path d="M60.69 79.99a9.153 9.153 0 0 1-.34 2.445h16.316l-.056-4.946-16.26.054a9.15 9.15 0 0 1 .34 2.448z"/><path class="cls-11" d="M27.746 78.324h47.497v3.333H27.746z"/><path class="cls-3" d="M42.008 55.938a7.706 7.706 0 0 1-.534-3.174 28.74 28.74 0 0 1-2.655-14.704c-.08.04-.163.074-.243.114-.186.84-2.048 10.014 3.432 17.764z"/><path class="cls-1" d="M44.7 60.13a6.352 6.352 0 0 1-.356-.413 8.27 8.27 0 0 0-3.27 2.624 6.863 6.863 0 0 0 .384.59.113.113 0 0 1 .067.046.282.282 0 0 1 .014.065c2.28 3.046 6.43 3.353 6.927 3.38 1.019-1.005.748-3.768.683-4.312l-.1.001a5.939 5.939 0 0 1-4.266-1.891.254.254 0 0 1-.057-.026.137.137 0 0 1-.026-.063z"/><path class="cls-4" d="M58.65 74.229a1.597 1.597 0 0 0 .757-.79.892.892 0 0 0-.2-.876 1.914 1.914 0 0 0-.395-.29l-2.32-1.402a1.422 1.422 0 0 0-.659-.254.448.448 0 0 0-.185.038.48.48 0 0 1-.048.002.14.14 0 0 1-.147-.076.148.148 0 0 1 .075-.195.74.74 0 0 1 .306-.065 1.675 1.675 0 0 1 .81.296l2.312 1.397a2.682 2.682 0 0 1 .39.281 1.157 1.157 0 0 0 .64-.537.86.86 0 0 0 .124-.694 3.055 3.055 0 0 0-1.006-1.198l-.258-.225a6.042 6.042 0 0 0-1.547-1.084 3.193 3.193 0 0 0-1.235-.236 5.2 5.2 0 0 0-2.17.537 15.318 15.318 0 0 0-1.982 1.208c-.378.259-.731.5-1.089.721-.027.017-.054.03-.082.047.25-.02.5-.038.753-.038a9.178 9.178 0 0 1 7.157 3.433z"/><path class="cls-1" d="m45.978 79.991 5.517 6.113 5.517-6.113-5.517-6.113-5.517 6.113z"/><path class="cls-4" d="M43.69 42.627a.99.99 0 0 0 1.98 0 .974.974 0 0 0-.47-.822l-1.145.07a.974.974 0 0 0-.366.752zm8.689 0a1.047 1.047 0 0 0 2.094 0 1.03 1.03 0 0 0-.394-.799l-1.255-.034a1.028 1.028 0 0 0-.445.833z"/><path class="cls-4" d="m46.648 41.421-4.52.279a.142.142 0 0 0-.101.048.39.39 0 0 0-.037.107.147.147 0 0 0 .147.138h.006l1.912-.117a1.002 1.002 0 0 1 .09-.06l-2.002.122h-.006a.092.092 0 0 1-.006-.183l4.52-.279h.006a.092.092 0 0 1 .006.184l-1.538.095c.027.014.049.034.075.05l1.466-.09a.142.142 0 0 0 .1-.048.387.387 0 0 0 .038-.107.15.15 0 0 0-.156-.139z"/><path class="cls-4" d="M44.145 41.815a1.002 1.002 0 0 0-.09.06l1.144-.07c-.025-.016-.048-.036-.075-.05z"/><path class="cls-4" d="m45.125 41.755 1.538-.095a.092.092 0 0 0-.006-.184h-.006l-4.52.279a.092.092 0 0 0 .006.183h.006l2.002-.123a.894.894 0 0 1 .98-.06z"/><path class="cls-4" d="M44.68 41.637a.963.963 0 0 0-.535.178l.98-.06a.967.967 0 0 0-.446-.118zm10.844-.063-4.79-.131a.147.147 0 0 0-.107.249.356.356 0 0 0 .103.045l2.094.057a.712.712 0 0 1 .078-.053l-2.171-.06a.092.092 0 1 1 .005-.183l4.787.13a.092.092 0 0 1-.003.184h-.003l-1.523-.041c.029.019.059.035.085.057l1.441.04a.147.147 0 0 0 .107-.25.355.355 0 0 0-.103-.044z"/><path class="cls-4" d="M52.902 41.741a1.012 1.012 0 0 0-.078.053l1.255.034c-.026-.022-.056-.038-.085-.057z"/><path class="cls-4" d="m53.994 41.77 1.523.042h.003a.092.092 0 0 0 .003-.183l-4.787-.131a.092.092 0 1 0-.005.184l2.17.059a.938.938 0 0 1 1.093.03z"/><path class="cls-4" d="M53.426 41.58a1.017 1.017 0 0 0-.524.16l1.092.03a1.018 1.018 0 0 0-.568-.19z"/><path d="M48.685 49.606a3.665 3.665 0 0 0 1.075-.189.204.204 0 0 0 .133-.254c-.02-.061-.076-.133-.25-.133h-.005a3.25 3.25 0 0 1-.95.17 1.078 1.078 0 0 1-.842-.318c-1.095-1.221.694-5.413.772-5.593a.173.173 0 0 0 0-.145.275.275 0 0 0-.186-.14.203.203 0 0 0-.187.123c-.082.187-1.993 4.587-.702 6.027a1.463 1.463 0 0 0 1.142.452zm-.881 2.171a.197.197 0 0 0-.05.147.203.203 0 0 0 .202.189h.006l3.04-.2a.207.207 0 0 0 .134-.074.196.196 0 0 0-.16-.331l-3.034.2a.2.2 0 0 0-.138.069z"/><path d="M77.658 35.935a.586.586 0 0 0-.034-.098.126.126 0 0 0-.093-.026l-.004-.007-.003.005-.054.003v.001l-.015-.004.032-.02-.141-.027-6.31 4.058-6.04 10.857-.213.38-4.734 8.424a4.576 4.576 0 0 0-2.842-1.117.33.33 0 0 0-.147.075 4.874 4.874 0 0 1-.12.13 3.113 3.113 0 0 1-.136-.24.259.259 0 0 0 .073.021.369.369 0 0 0 .142-.058 19.242 19.242 0 0 0 2.25-2.64 9.25 9.25 0 0 1-.82 2.003.203.203 0 0 0 .05.265.35.35 0 0 0 .123.043.345.345 0 0 0 .148-.063c6.11-6.38 5.866-13.14 5.112-16.689a14.606 14.606 0 0 0-.678-2.373l.012-.014c.223-.25.418-.491.6-.731a12.887 12.887 0 0 0 .953-1.356c2.286-3.85.886-6.73-.153-8.105a4.588 4.588 0 0 0-1.259-1.142 25.74 25.74 0 0 0-12.977-3.158A27.43 27.43 0 0 0 38.357 26.9a5.84 5.84 0 0 0-3.386 3.63 6.106 6.106 0 0 0 1 4.603c.18.314.367.61.555.884a.349.349 0 0 0 .033.15 15.56 15.56 0 0 0 1.084 1.355c.269.3.476.511.583.617-.264 1.215-2.161 11.138 4.333 19.106a.368.368 0 0 0 .156.072.956.956 0 0 0 .117-.037.203.203 0 0 0 .057-.271 9.256 9.256 0 0 1-1.064-3.39 24.628 24.628 0 0 0 2.413 3.945.356.356 0 0 0 .158.076c.01 0 .105-.03.111-.032a.203.203 0 0 0 .069-.265 29.883 29.883 0 0 1-2.546-6.839 13.694 13.694 0 0 0 3.138 4.72 11.329 11.329 0 0 1-.11 4.17 2.125 2.125 0 0 1-.2.395 4.749 4.749 0 0 1-.294-.366c-.037-.052-.09-.075-.223-.075h-.017a8.591 8.591 0 0 0-3.57 2.841.205.205 0 0 0-.01.214 6.678 6.678 0 0 0 .37.583 13.983 13.983 0 0 1-1.453.731l-.2.08c-3.943 1.565-10.471 5.38-10.039 13.398H26.23a.203.203 0 0 0-.203.203v5.185a.203.203 0 0 0 .203.202h16.448a9.215 9.215 0 0 0 8.818 6.457 9.109 9.109 0 0 0 7.577-3.991 9.292 9.292 0 0 0 1.212-2.466h16.474a.203.203 0 0 0 .203-.202v-5.185a.203.203 0 0 0-.203-.203h-2.643l.009-.027c0-7.343-4.367-11.733-8.147-13.284l11.52-20.542zM42.32 50.317c-.075-.174-.15-.347-.22-.527a22.067 22.067 0 0 1-.568-1.672l-.057-.371v-.001a36.407 36.407 0 0 1-.185-9.257 21.18 21.18 0 0 1 .232-1.52h.001a24.865 24.865 0 0 1 8.479-1.505 30.194 30.194 0 0 1 5.16.491l.096.018c.218.047.443.089.653.139l.017.026-.012.006c.339.914 3.253 9.108 1.553 15.896-.005-.002-.003-.005-.008-.007a12.557 12.557 0 0 1-1.41 1.955 7.968 7.968 0 0 1-5.894 2.922c-3.08 0-5.813-2.256-7.657-6.167-.063-.137-.12-.284-.18-.426zm18.76 4.092c-.097.155-.205.31-.308.463a20.725 20.725 0 0 1-1.457 1.902 6.845 6.845 0 0 0 .346-1.121c.06-.23.116-.47.158-.723l.02-.037.012-.006a20.197 20.197 0 0 0 2.918-14.803 16.416 16.416 0 0 0-.301-1.384c.183.105.306.18.36.214a17.907 17.907 0 0 1-.238 12.566 18.37 18.37 0 0 1-1.22 2.457c-.093.157-.189.315-.29.472zm-1.625.415.003.01-.055.082c-.19.279-.39.544-.587.812-.227.298-.465.595-.717.891a8.302 8.302 0 0 0 .786-2.493 8.6 8.6 0 0 0 .129-1.299l.024-.013s.16-.268.211-.359a17.24 17.24 0 0 0 .993-14.86c.634.273 1.23.558 1.77.85a20.366 20.366 0 0 1-.8 13.192A19.25 19.25 0 0 1 60.564 53c-.096.18-.197.362-.3.544-.1.177-.21.354-.317.531-.114.186-.23.372-.352.558a.211.211 0 0 0-.14.19zm17.79-18.582-.14 7.015-5.297 9.584-6.15 10.993-.018.006.01-.031c-.007.002-.007.008-.013.01l.004-.037c-.016.006-.018.02-.032.028v-.001a.193.193 0 0 0-.1.085.285.285 0 0 0 .012.1h-.006l-.237.435.236-.452-.927 1.715-.985 1.76c-4.616-2.593-5.59-3.14-5.8-3.256l13.54-24.118 3.771-2.474.014-.009zM39.611 64.174l.209-.085a9.11 9.11 0 0 0 1.315-.68c.077-.044.143-.08.201-.115 2.522 3.297 7.113 3.478 7.16 3.479h.002a.35.35 0 0 0 .136-.052 3.6 3.6 0 0 0 .877-2.397 7.72 7.72 0 0 0 1.055 2.36.35.35 0 0 0 .168.089l.027-.003a10.92 10.92 0 0 0 2.18-.646c.44-.163.933-.368 1.464-.622v.006a866.217 866.217 0 0 0 2.728 1.533l-.201.84-.06.197a.12.12 0 0 0 0-.013 3.64 3.64 0 0 0-.808-.096 5.56 5.56 0 0 0-2.32.573 15.37 15.37 0 0 0-2.048 1.248c-.344.234-.699.477-1.057.7-.131.08-.263.158-.402.24l-.071.073-.147.088c-.003-.006 0-.018-.004-.02a8.544 8.544 0 0 0-1.563.406.763.763 0 0 0-.675-.324 1.967 1.967 0 0 0-.51.078c-1.508.413-10.29 3.285-12.898 6.081a.118.118 0 0 0-.032.083l-2.232.027h-2.333c-.426-7.787 5.979-11.517 9.839-13.048zm3.148-10.082c.016.039.028.08.044.118l.063.15c.133.349.266.696.415 1.045a30.184 30.184 0 0 1-3.98-11.054 27.085 27.085 0 0 1-.154-6.384c.628-.298 1.26-.574 1.966-.862a34.171 34.171 0 0 0-.074 10.418v.008a.193.193 0 0 0-.017.115l.067.223a28.643 28.643 0 0 0 1.452 5.633c.068.196.145.393.218.59zm-.822 1.635a23.19 23.19 0 0 1-3.735-14.548 21.048 21.048 0 0 1 .392-2.954 3.64 3.64 0 0 0 .139-.064l.025-.015a28.939 28.939 0 0 0 2.66 14.63 6.334 6.334 0 0 0 .46 2.774l.059.177zm-4.733-19.294c-.076-.1-.15-.191-.228-.297a28.372 28.372 0 0 1 13.393-3.402 26.772 26.772 0 0 1 13.95 3.927l.016.005c-.075.12-.155.239-.238.359l-.001.004-.09.133v-.004l-.112.168-.007.012-.008.011a7.428 7.428 0 0 1-.176.259l-.29.392a7.225 7.225 0 0 0-.262.374c-.047.059-.09.12-.137.179a24.448 24.448 0 0 0-7.23-2.86 25.594 25.594 0 0 0-5.713-.646 23.943 23.943 0 0 0-6.573.905c-.431.122-.859.262-1.285.41-.278.092-.56.166-.837.268-.007.003 0 .014.007.025l-.007-.004c-.019 0-.032.013-.049.02l-.013.004.024-.03.038-.023c-.011 0-.02.011-.03.014l.03-.041a.197.197 0 0 0-.115.05l-.001-.004a11.837 11.837 0 0 0-1.53.704c-.228.105-.458.207-.684.317h-.004c.003-.012.008-.025.004-.028a.398.398 0 0 0-.057.009l-.001-.008a.165.165 0 0 0-.107.049l-.056.033.01-.017-.163.078-.103.081-.033.016-.124-.124a28.232 28.232 0 0 1-1.208-1.318zm28.044-1.567-.012.035q-.118.338-.275.69l-.02.045a9.28 9.28 0 0 1-.388.76 26.691 26.691 0 0 0-14.18-4.07 27.858 27.858 0 0 0-5.123.478 28.181 28.181 0 0 0-7.673 2.584c-.364.184-.626.327-.775.411-.917-1.336-1.905-3.311-1.436-5.17a5.457 5.457 0 0 1 3.173-3.367 27.027 27.027 0 0 1 11.84-2.525 25.358 25.358 0 0 1 12.767 3.098 4.198 4.198 0 0 1 1.147 1.044 6.43 6.43 0 0 1 .955 5.987zm-23.975 1.816a.117.117 0 0 0 .02.005l-.013.006-.005.002a.046.046 0 0 1-.002-.013zm14.945 19.174zm.1-.873c.017-.255.032-.463.032-.61l.021-.159.02-.01c.212-.24.423-.513.633-.8a12.765 12.765 0 0 1-.706 1.58zm-.14 1.015a.284.284 0 0 0-.001-.075l.006-.01.01-.004.002-.004a.1.1 0 0 0 .024.007l.047-.027a10.383 10.383 0 0 0 1.202-2.66c.101-.296.19-.595.272-.897l.032-.025.056-.088a.47.47 0 0 0 .026-.116l.007-.006c1.654-6.593-1.004-14.49-1.502-15.817a26.298 26.298 0 0 1 3.417 1.124 16.964 16.964 0 0 1-.875 14.85 23.891 23.891 0 0 1-2.162 3.13c-.035.043-.073.085-.11.127-.155.176-.305.337-.452.492zM38.817 37.737v-.001l-.004.001.003-.005zm11.34 19.579a8.079 8.079 0 0 0 5.78-2.653c-.026.27-.051.64-.051 1.06a10.135 10.135 0 0 1-1.553 1.89.201.201 0 0 0-.017.275.351.351 0 0 0 .157.075 1.067 1.067 0 0 0 .118-.037 12.496 12.496 0 0 0 1.355-1.232 4.725 4.725 0 0 0 .698 2.168 11.437 11.437 0 0 1-7.278 2.93.206.206 0 0 0-.074.07v-.001a.266.266 0 0 0-.097-.052 5.886 5.886 0 0 1-3.636-1.312 6.467 6.467 0 0 1-.472-.425c.838-1.13.643-3.546.531-4.466a7.081 7.081 0 0 0 4.54 1.71zm9.202 14.972-.004-.005.01-.009.019-.02a2.769 2.769 0 0 0-.399-.286l-2.312-1.398a1.714 1.714 0 0 0-.84-.304.784.784 0 0 0-.328.07.205.205 0 0 0-.103.268c.032.07.095.1.246.1h.022a.412.412 0 0 1 .163-.032 1.384 1.384 0 0 1 .63.245l2.32 1.403a1.893 1.893 0 0 1 .385.28.839.839 0 0 1 .186.82 1.762 1.762 0 0 1-.628.743l-.016.026-.022.015.006-.01a9.217 9.217 0 0 0-7.2-3.454c-.18 0-.36.015-.54.028.32-.2.638-.416 1.009-.67a15.092 15.092 0 0 1 1.955-1.19 5.14 5.14 0 0 1 2.146-.531c.186 0 .365.012.547.02.084.013.168.028.25.048.015.01.023.032.041.037l.011.002a2.887 2.887 0 0 1 .365.123 6.023 6.023 0 0 1 1.532 1.075l.258.225a3.021 3.021 0 0 1 .99 1.174.807.807 0 0 1-.118.648 2.023 2.023 0 0 1-.39.455.946.946 0 0 1-.19.104zm1.912-2.92-1.092 1.095a4.779 4.779 0 0 0-.846-.864l-.257-.22a6.206 6.206 0 0 0-1.642-1.144 1.044 1.044 0 0 0-.185-.055l-.045.04h-.008l.298-.974zM29.57 77.6v-.003l.007.003h12.994a9.212 9.212 0 0 0-.328 2.391 8.027 8.027 0 0 0 .369 2.39l-7.977.081-8.205.029v-.001l-.082-2.468-.027-2.422zm13.448 4.925a8.848 8.848 0 0 1 8.476-11.38 8.925 8.925 0 0 1 8.48 6.33 8.846 8.846 0 0 1-16.956 5.05zm.578-7.229-.09.157q-.139.25-.261.508a9.09 9.09 0 0 0-.512 1.243l-.018-.01-3.722.032-4.154.004c2.736-2.692 11.095-5.415 12.533-5.806a1.548 1.548 0 0 1 .4-.063.886.886 0 0 1 .276.054l.003.002a9.115 9.115 0 0 0-4.455 3.879zm33.013 7.083H60.418a9.191 9.191 0 0 0 .327-2.388 8.32 8.32 0 0 0-.348-2.353c-.003-.013-.004-.026-.008-.04l7.963-.08 8.203-.029zM54.386 65.031a.843.843 0 0 1-.323-1.152l.15-.267a.845.845 0 0 1 1.153-.322l10.204 5.735a.844.844 0 0 1 .322 1.152l-.15.268a.848.848 0 0 1-1.152.322c-2.03-1.14-2.626-1.475-2.815-1.55l-.015-.008c-.003-.01.003-.01-.001-.023a.574.574 0 0 0-.073-.035l.013-.01zm3.386-1.582-.28.57-.285-.144c.192-.136.379-.28.565-.426zm-8.483-1.565h-.002l.004-.017.014.01c-.005.003-.011.003-.016.007zm.736 9.04-.002-.008.007.002zm8.849-9.409-.593 1.056a.17.17 0 0 0-.028.012l-.001-.01c-.336.282-.693.559-1.063.846l-.191.174c-.046.032-.088.07-.133.1l-.008-.006.007-.022-1.3-.73a1.255 1.255 0 0 0-1.705.478l-.15.267a1.24 1.24 0 0 0-.113.952 1.208 1.208 0 0 0 .443.621 17.022 17.022 0 0 1-3.031 1.077c-.093.024-.147.039-.154.055a8.845 8.845 0 0 1-1.305-4.057.321.321 0 0 0-.03-.138 11.258 11.258 0 0 0 7.731-3.417 4.583 4.583 0 0 1 2.109.655 3.952 3.952 0 0 1 .46.353zm-14.148-1.32a.241.241 0 0 0 .057.025l-.013.007c-.004.01-.034.024-.026.031a6.098 6.098 0 0 0 2.818 1.68 5.572 5.572 0 0 0 1.488.202l.045-.016c.065.548.331 3.273-.626 4.242a11.7 11.7 0 0 1-4.639-1.336 8.108 8.108 0 0 1-1.665-1.271l-.09-.09c-.097-.1-.187-.21-.279-.316-.069-.082-.14-.162-.206-.248a.104.104 0 0 0-.01-.046.11.11 0 0 0 .004-.05l-.056-.076a.02.02 0 0 0-.02-.009l-.017.003.013-.028a16.192 16.192 0 0 1-.32-.463l-.065-.062A8.513 8.513 0 0 1 44.3 59.75a1.885 1.885 0 0 0 .403.387.113.113 0 0 0 .023.056zm22.803 17.027h-7.207a8.93 8.93 0 0 0-1.428-2.735 1.817 1.817 0 0 0 .846-.94 1.192 1.192 0 0 0-.133-.982 1.57 1.57 0 0 0 .683-.63 1.2 1.2 0 0 0 .15-.987.946.946 0 0 0-.066-.142l-.033-.009.603-.605.67-.632 2.778 1.562a1.252 1.252 0 0 0 1.705-.479l.15-.268a1.253 1.253 0 0 0-.478-1.705l-1.886-1.058.898-1.654.978-1.743c3.676 1.464 7.96 5.73 7.96 12.952l.01.027zM56.264 56.414a.234.234 0 0 0 .018-.024l.014-.007a18.255 18.255 0 0 0 2.275-2.886 8.5 8.5 0 0 1-1.843 4.513.19.19 0 0 0-.035.093 6.476 6.476 0 0 1-.388-1.332c-.014-.118-.031-.233-.04-.357zM77.472 35.82z"/><path class="cls-12" d="m33.574 73.484-3.875 3.036a12.799 12.799 0 0 1 .157-2.011 10.194 10.194 0 0 1 .461-1.827 11.108 11.108 0 0 1 1.919-3.45zm40.168 2.786-4.566-3.514 1.319-5.12a13.528 13.528 0 0 1 2.666 5.055 13.708 13.708 0 0 1 .406 1.836 17.39 17.39 0 0 1 .175 1.744z"/><path d="M55.68 41.477a8.39 8.39 0 0 0-2.91-.46 11.741 11.741 0 0 0-2.004.168h-.014a.202.202 0 0 1-.222-.159.415.415 0 0 1 .03-.146.198.198 0 0 1 .128-.086 11.709 11.709 0 0 1 2.08-.177 8.762 8.762 0 0 1 3.05.484.2.2 0 0 1-.07.387.365.365 0 0 1-.067-.011z"/><path d="M55.785 41.19a10.775 10.775 0 0 0-5.078-.303.104.104 0 0 0-.083.123.1.1 0 0 0 .124.082 10.572 10.572 0 0 1 4.963.295.116.116 0 0 0 .037.007.104.104 0 0 0 .098-.068.105.105 0 0 0-.061-.136zm-13.41.742a.45.45 0 0 1-.143-.055.216.216 0 0 1-.015-.302c.067-.072.703-.703 2.585-.703a11.194 11.194 0 0 1 1.771.156.215.215 0 0 1 .176.246.205.205 0 0 1-.205.18 11.008 11.008 0 0 0-1.735-.155 3.3 3.3 0 0 0-2.275.565.472.472 0 0 1-.159.068z"/><path d="M46.52 41.35a.105.105 0 0 0 .13-.092.113.113 0 0 0-.092-.13c-3.269-.532-4.226.472-4.265.515a.113.113 0 0 0 .083.188.114.114 0 0 0 .084-.037c.007-.009.935-.959 4.06-.444z"/><circle cx="44.698" cy="42.673" r=".982"/><circle cx="53.448" cy="42.628" r="1.027"/><path class="cls-2" d="m51.495 86.217-.284-.65a12.84 12.84 0 0 0-4.512-5.455l-.177-.121.177-.121a12.84 12.84 0 0 0 4.512-5.455l.284-.65.284.65a12.84 12.84 0 0 0 4.512 5.455l.176.121-.176.12a12.84 12.84 0 0 0-4.512 5.456z"/></g></svg>