<svg xmlns="http://www.w3.org/2000/svg" viewBox="0 0 103 160"><path fill="#fff" d="M0 0h103v160H0z"/><path d="M23.597 32.895a5.542 5.542 0 0 0-7.813 0l-.53.53-.53-.53A5.525 5.525 0 0 0 6.91 40.71l.53.53 7.813 7.813 8.344-8.343a5.54 5.54 0 0 0 0-7.815zM17.631 4.757l1.793 1.17-5.893 8.917a6.998 6.998 0 0 1 2.224-.399 5.898 5.898 0 0 1 4.407 1.874 6.384 6.384 0 0 1 1.81 4.615 6.692 6.692 0 0 1-.874 3.4 6.404 6.404 0 0 1-2.484 2.414 7.014 7.014 0 0 1-3.464.896 6.663 6.663 0 0 1-3.33-.866 6.232 6.232 0 0 1-2.41-2.437 6.806 6.806 0 0 1-.874-3.363 8.153 8.153 0 0 1 .54-2.807 17.595 17.595 0 0 1 1.939-3.548zm-2.392 11.6a4.581 4.581 0 0 0-4.585 4.592 4.581 4.581 0 0 0 4.585 4.577 4.581 4.581 0 0 0 4.585-4.577 4.581 4.581 0 0 0-4.585-4.593zm64.164 110.748a5.542 5.542 0 0 0 7.813 0l.53-.53.53.53a5.525 5.525 0 0 0 7.814-7.815l-.53-.53-7.813-7.813-8.344 8.343a5.54 5.54 0 0 0 0 7.815zm5.966 28.138-1.793-1.17 5.894-8.917a6.998 6.998 0 0 1-2.225.399 5.898 5.898 0 0 1-4.407-1.874 6.384 6.384 0 0 1-1.81-4.614 6.692 6.692 0 0 1 .874-3.4 6.404 6.404 0 0 1 2.484-2.415 7.014 7.014 0 0 1 3.464-.896 6.663 6.663 0 0 1 3.33.866 6.232 6.232 0 0 1 2.41 2.437 6.806 6.806 0 0 1 .874 3.363 8.153 8.153 0 0 1-.54 2.807 17.595 17.595 0 0 1-1.939 3.548zm2.392-11.6a4.581 4.581 0 1 0-3.242-1.34 4.418 4.418 0 0 0 3.242 1.34zM41.306 35.121a3.846 3.846 0 0 0-5.421 0l-.368.368-.368-.368a3.834 3.834 0 0 0-5.422 5.423l.368.369 5.422 5.421 5.79-5.79a3.845 3.845 0 0 0 0-5.423zm-11.579 89.758a3.846 3.846 0 0 0 5.422 0l.368-.368.368.368a3.834 3.834 0 1 0 5.422-5.423l-.368-.368-5.422-5.422-5.79 5.79a3.845 3.845 0 0 0 0 5.423zm31.967 0a3.846 3.846 0 0 0 5.421 0l.368-.368.368.368a3.834 3.834 0 1 0 5.422-5.423l-.368-.368-5.422-5.422-5.79 5.79a3.845 3.845 0 0 0 0 5.423zm11.579-89.758a3.846 3.846 0 0 0-5.422 0l-.368.368-.368-.368a3.834 3.834 0 1 0-5.422 5.423l.369.369 5.421 5.421 5.79-5.79a3.845 3.845 0 0 0 0-5.423zm0 39.832a3.846 3.846 0 0 0-5.422 0l-.368.367-.368-.367a3.834 3.834 0 1 0-5.422 5.422l.369.369 5.421 5.422 5.79-5.79a3.845 3.845 0 0 0 0-5.424zm-31.967 0a3.846 3.846 0 0 0-5.421 0l-.368.367-.368-.367a3.834 3.834 0 0 0-5.422 5.422l.368.369 5.422 5.422 5.79-5.79a3.845 3.845 0 0 0 0-5.424z" fill="#d90000"/></svg>