<svg xmlns="http://www.w3.org/2000/svg" viewBox="0 0 103 160"><path fill="#fff" d="M0 0h103v160H0z"/><path d="m15.604 4.627 10.673 22.887h-2.47l-3.6-7.53h-9.86l-3.565 7.53H4.231L15.044 4.627zm-.289 4.863-3.922 8.285h7.825zm8.282 23.405a5.542 5.542 0 0 0-7.813 0l-.53.53-.53-.53A5.525 5.525 0 0 0 6.91 40.71l.53.53 7.813 7.813 8.344-8.343a5.54 5.54 0 0 0 0-7.815zm63.799 122.478-10.673-22.887h2.47l3.6 7.53h9.86l3.565-7.53h2.552l-10.814 22.887zm.289-4.863 3.922-8.284h-7.825zm-8.282-23.405a5.542 5.542 0 0 0 7.813 0l.53-.53.53.53a5.525 5.525 0 0 0 7.814-7.815l-.53-.53-7.813-7.813-8.344 8.343a5.54 5.54 0 0 0 0 7.815zM68.08 65.545a11.014 11.014 0 0 0-15.526 0L51.5 66.6l-1.054-1.054a10.98 10.98 0 0 0-15.527 15.53l1.054 1.055L51.5 97.656l16.58-16.58a11.011 11.011 0 0 0 0-15.53z" fill="#d90000"/></svg>