<svg xmlns="http://www.w3.org/2000/svg" viewBox="0 0 103 160"><path fill="#fff" d="M0 0h103v160H0z"/><path d="M23.597 32.895a5.542 5.542 0 0 0-7.813 0l-.53.53-.53-.53A5.525 5.525 0 0 0 6.91 40.71l.53.53 7.813 7.813 8.344-8.343a5.54 5.54 0 0 0 0-7.815zm-1.62-28.138v2.125h-7.932l-1.118 6.089a9.38 9.38 0 0 1 2.623-.428 6.703 6.703 0 0 1 5.026 2.042 7.206 7.206 0 0 1 1.978 5.228 8.195 8.195 0 0 1-1.017 4.037 7.095 7.095 0 0 1-2.755 2.815 8.04 8.04 0 0 1-4.014.98 6.645 6.645 0 0 1-4.583-1.663 6.803 6.803 0 0 1-2.231-4.302h2.291a5.03 5.03 0 0 0 .873 2.095 4.443 4.443 0 0 0 1.64 1.297 4.89 4.89 0 0 0 2.147.493 5.022 5.022 0 0 0 3.779-1.667 5.825 5.825 0 0 0 1.578-4.168 4.93 4.93 0 0 0-1.426-3.668 5.188 5.188 0 0 0-3.81-1.409 12.617 12.617 0 0 0-4.78 1.2L12.31 4.756zm57.426 122.348a5.542 5.542 0 0 0 7.813 0l.53-.53.53.53a5.525 5.525 0 0 0 7.814-7.815l-.53-.53-7.813-7.813-8.344 8.343a5.54 5.54 0 0 0 0 7.815zm1.62 28.138v-2.125h7.932l1.118-6.089a9.38 9.38 0 0 1-2.623.428 6.703 6.703 0 0 1-5.026-2.041 7.206 7.206 0 0 1-1.978-5.229 8.195 8.195 0 0 1 1.017-4.037 7.095 7.095 0 0 1 2.755-2.815 8.04 8.04 0 0 1 4.014-.98 6.645 6.645 0 0 1 4.583 1.663 6.803 6.803 0 0 1 2.231 4.302h-2.291a5.03 5.03 0 0 0-.873-2.094 4.443 4.443 0 0 0-1.64-1.298 4.89 4.89 0 0 0-2.147-.493 5.022 5.022 0 0 0-3.779 1.667 5.825 5.825 0 0 0-1.578 4.168 4.93 4.93 0 0 0 1.426 3.668 5.188 5.188 0 0 0 3.81 1.41 12.617 12.617 0 0 0 4.78-1.2l-2.064 11.095zM41.306 35.121a3.846 3.846 0 0 0-5.421 0l-.368.368-.368-.368a3.834 3.834 0 0 0-5.422 5.423l.368.369 5.422 5.421 5.79-5.79a3.845 3.845 0 0 0 0-5.423zm-11.579 89.758a3.846 3.846 0 0 0 5.422 0l.368-.368.368.368a3.834 3.834 0 1 0 5.422-5.423l-.368-.368-5.422-5.422-5.79 5.79a3.845 3.845 0 0 0 0 5.423zm31.967 0a3.846 3.846 0 0 0 5.421 0l.368-.368.368.368a3.834 3.834 0 1 0 5.422-5.423l-.368-.368-5.422-5.422-5.79 5.79a3.845 3.845 0 0 0 0 5.423zm11.579-89.758a3.846 3.846 0 0 0-5.422 0l-.368.368-.368-.368a3.834 3.834 0 1 0-5.422 5.423l.369.369 5.421 5.421 5.79-5.79a3.845 3.845 0 0 0 0-5.423zM57.29 74.953a3.846 3.846 0 0 0-5.422 0l-.368.367-.368-.367a3.834 3.834 0 0 0-5.422 5.422l.368.369 5.422 5.421 5.79-5.79a3.845 3.845 0 0 0 0-5.422z" fill="#d90000"/></svg>