<svg xmlns="http://www.w3.org/2000/svg" viewBox="0 0 103 160"><path fill="#fff" d="M0 0h103v160H0z"/><path d="M12.884 27.644 11.09 26.49l5.896-8.923a7.13 7.13 0 0 1-2.224.39 5.903 5.903 0 0 1-4.41-1.874 6.384 6.384 0 0 1-1.81-4.614 6.65 6.65 0 0 1 .874-3.392 6.448 6.448 0 0 1 2.482-2.415 6.915 6.915 0 0 1 3.444-.904 6.63 6.63 0 0 1 3.34.874 6.261 6.261 0 0 1 2.407 2.445 6.779 6.779 0 0 1 .874 3.347 8.189 8.189 0 0 1-.54 2.822 17.533 17.533 0 0 1-1.934 3.548zm2.38-11.599a4.564 4.564 0 0 0 4.582-4.577 4.577 4.577 0 0 0-4.592-4.577 4.577 4.577 0 0 0-4.578 4.577 4.581 4.581 0 0 0 4.588 4.577zm8.333 16.85a5.542 5.542 0 0 0-7.813 0l-.53.53-.53-.53A5.525 5.525 0 0 0 6.91 40.71l.53.53 7.813 7.813 8.344-8.343a5.54 5.54 0 0 0 0-7.815zm66.519 99.461 1.793 1.155-5.896 8.923a7.13 7.13 0 0 1 2.224-.39 5.903 5.903 0 0 1 4.41 1.874 6.384 6.384 0 0 1 1.81 4.614 6.65 6.65 0 0 1-.873 3.392 6.448 6.448 0 0 1-2.482 2.415 6.915 6.915 0 0 1-3.444.904 6.63 6.63 0 0 1-3.34-.874 6.261 6.261 0 0 1-2.408-2.445 6.779 6.779 0 0 1-.874-3.347 8.189 8.189 0 0 1 .541-2.822 17.533 17.533 0 0 1 1.933-3.548zm-2.38 11.599a4.581 4.581 0 1 0 3.245 1.34 4.41 4.41 0 0 0-3.245-1.34zm-8.333-16.85a5.542 5.542 0 0 0 7.813 0l.53-.53.53.53a5.525 5.525 0 0 0 7.814-7.815l-.53-.53-7.813-7.813-8.344 8.343a5.54 5.54 0 0 0 0 7.815zM41.306 35.121a3.846 3.846 0 0 0-5.421 0l-.368.368-.368-.368a3.834 3.834 0 0 0-5.422 5.423l.368.369 5.422 5.421 5.79-5.79a3.845 3.845 0 0 0 0-5.423zm-11.579 89.758a3.846 3.846 0 0 0 5.422 0l.368-.368.368.368a3.834 3.834 0 1 0 5.422-5.423l-.368-.368-5.422-5.422-5.79 5.79a3.845 3.845 0 0 0 0 5.423zm11.579-63.241a3.846 3.846 0 0 0-5.421 0l-.368.368-.368-.368a3.834 3.834 0 0 0-5.422 5.423l.368.368 5.422 5.422 5.79-5.79a3.845 3.845 0 0 0 0-5.424zM29.727 98.527a3.846 3.846 0 0 0 5.422 0l.368-.368.368.368a3.834 3.834 0 0 0 5.422-5.423l-.368-.368-5.422-5.422-5.79 5.79a3.845 3.845 0 0 0 0 5.423zM57.29 74.953a3.846 3.846 0 0 0-5.422 0l-.368.367-.368-.367a3.834 3.834 0 0 0-5.422 5.422l.368.369 5.422 5.421 5.79-5.79a3.845 3.845 0 0 0 0-5.422zm15.983-39.832a3.846 3.846 0 0 0-5.422 0l-.368.368-.368-.368a3.834 3.834 0 1 0-5.422 5.423l.369.369 5.421 5.421 5.79-5.79a3.845 3.845 0 0 0 0-5.423zm-11.579 89.758a3.846 3.846 0 0 0 5.421 0l.368-.368.368.368a3.834 3.834 0 1 0 5.422-5.423l-.368-.368-5.422-5.422-5.79 5.79a3.845 3.845 0 0 0 0 5.423zm11.579-63.241a3.846 3.846 0 0 0-5.422 0l-.368.368-.368-.368a3.834 3.834 0 0 0-5.422 5.423l.369.368 5.421 5.422 5.79-5.79a3.845 3.845 0 0 0 0-5.424zM61.694 98.527a3.846 3.846 0 0 0 5.421 0l.368-.368.368.368a3.834 3.834 0 0 0 5.422-5.423l-.368-.368-5.422-5.422-5.79 5.79a3.845 3.845 0 0 0 0 5.423z" fill="#d90000"/></svg>