<svg xmlns="http://www.w3.org/2000/svg" viewBox="0 0 103 160"><defs><style>.cls-1{fill:#fff}.cls-2{fill:#d90000}.cls-3{fill:#f9c19b}.cls-4{fill:#383838}.cls-5{fill:#ffc614}.cls-6{fill:#bcbbbb}.cls-7{fill:#e5e1e1}.cls-8{fill:#999898}.cls-9{fill:#f94c10}.cls-10{fill:#1e4262}.cls-11,.cls-13{fill:#bf1b1b}.cls-12{fill:#663f2e}.cls-13{stroke:#000;stroke-miterlimit:10;stroke-width:.4px}</style></defs><g id="HEARTS"><path class="cls-1" d="M0 0h103v160H0z"/><path class="cls-2" d="M8.548 4.757h2.334v8.588l9.149-8.588h3.073L12.11 15.026l11.85 12.618h-3.047l-10.03-10.66v10.66H8.548zm15.049 28.138a5.542 5.542 0 0 0-7.813 0l-.53.53-.53-.53A5.525 5.525 0 0 0 6.91 40.71l.53.53 7.813 7.813 8.344-8.343a5.54 5.54 0 0 0 0-7.815zm70.855 122.348h-2.334v-8.588l-9.149 8.588h-3.073l10.993-10.269-11.848-12.618h3.047l10.03 10.66v-10.66h2.333zm-15.049-28.138a5.542 5.542 0 0 0 7.813 0l.53-.53.53.53a5.525 5.525 0 0 0 7.814-7.815l-.53-.53-7.813-7.813-8.344 8.343a5.54 5.54 0 0 0 0 7.815z"/><path d="M83.65 36.722a1.702 1.702 0 0 0-1.516.926l-3.31.027h-.01a8.186 8.186 0 0 0-.138-1.43 2.208 2.208 0 0 0-.271-.775 1.042 1.042 0 0 0-.874-.48.656.656 0 0 0-.276.052 1.71 1.71 0 0 0-1.333-.807c-.086 0-.2.008-.175.068a2.205 2.205 0 0 0-1.14-.773 2.074 2.074 0 0 0-.554-.077 1.632 1.632 0 0 0-.998.32 2.18 2.18 0 0 0-1.051-.272 2.016 2.016 0 0 0-.262.016 2.493 2.493 0 0 0-2.055 2.467c-.004.074-.018.137-.018.215a1.519 1.519 0 0 0-.309-.033.431.431 0 0 0-.187.036l-.019.002v-9.248a.35.35 0 0 0-.06-.138c-.04-.038-.094-.047-.21-.047h-.012c-.945.051-1.338.072-1.584.113a.155.155 0 0 0-.136.187L65.8 35.265l-5.023-.001-.242-.001.235-5.092c-.054-.134-.547-1.318-1.235-1.43a2.535 2.535 0 0 0-.102-.007.808.808 0 0 0-.62.328 1.347 1.347 0 0 0-.248 1.16 2.68 2.68 0 0 0 .063.326 10.932 10.932 0 0 0-3.275-1.649 1.096 1.096 0 0 0-.475-.53.777.777 0 0 0-.36-.085.94.94 0 0 0-.518.154 33.204 33.204 0 0 0-5.047-.974 5.614 5.614 0 0 0-.516-.026c-5.216 0-8.032 1.77-9.323 2.975a7.134 7.134 0 0 0-.572.578 7.163 7.163 0 0 0-.013-.822c-.052-.74-.286-1.209-.694-1.398a1.025 1.025 0 0 0-.427-.088 2.338 2.338 0 0 0-1.196.446.342.342 0 0 0-.076.168l.304 3.878.22 5.128a.186.186 0 0 0 .12.172c.015.006.272.097.72.218a18.32 18.32 0 0 1-.31 6.266c-.092.29-.206.624-.334.994-.907 2.634-2.423 7.042-.916 10.517-.811.406-4.85 2.605-4.73 5.988a4.871 4.871 0 0 0 .662 2.2c-.052.04-5.053 4.019-4.359 12.004.017.2.021.393.046.6H26.7a.19.19 0 0 0-.19.189v5.088a.216.216 0 0 0 .2.2l.361-.01h.195a18.26 18.26 0 0 0 .536 4.006c-2.253 11.217-2.368 28.738-2.369 28.913a.183.183 0 0 0 .072.153.551.551 0 0 0 .163.035l.084-.038.057-.013a7.154 7.154 0 0 0-1.168 3.948l-3.69.048a1.883 1.883 0 0 0-1.601-.974 2.258 2.258 0 0 0 0 4.471 1.702 1.702 0 0 0 1.514-.926l3.312-.027h.01a8.188 8.188 0 0 0 .137 1.432 2.208 2.208 0 0 0 .271.773 1.042 1.042 0 0 0 .874.48.657.657 0 0 0 .276-.051 1.71 1.71 0 0 0 1.333.806c.086 0 .2-.008.175-.068a2.205 2.205 0 0 0 1.139.774 2.074 2.074 0 0 0 .554.077 1.633 1.633 0 0 0 .999-.321 2.181 2.181 0 0 0 1.05.272 2.016 2.016 0 0 0 .263-.016 2.493 2.493 0 0 0 2.054-2.466c.004-.074.02-.137.018-.215a1.519 1.519 0 0 0 .31.033.431.431 0 0 0 .187-.036l.019-.002v9.247a.349.349 0 0 0 .059.138c.04.039.094.048.21.048h.012c.945-.051 1.338-.073 1.584-.113a.155.155 0 0 0 .136-.188l1.353-8.194 5.023.001.242.001-.235 5.092c.054.134.547 1.318 1.235 1.43.008.002.101.007.102.007a.808.808 0 0 0 .62-.328 1.348 1.348 0 0 0 .248-1.16 2.675 2.675 0 0 0-.063-.326 10.934 10.934 0 0 0 3.275 1.65 1.095 1.095 0 0 0 .475.53.776.776 0 0 0 .36.084.94.94 0 0 0 .518-.154 33.204 33.204 0 0 0 5.047.974c.172.018.344.024.516.026 5.216 0 8.032-1.77 9.323-2.976a7.15 7.15 0 0 0 .572-.578 7.163 7.163 0 0 0 .013.823c.052.74.286 1.209.694 1.398a1.026 1.026 0 0 0 .427.088 2.338 2.338 0 0 0 1.196-.446.343.343 0 0 0 .076-.168l-.304-3.878-.22-5.129a.186.186 0 0 0-.12-.171 9.59 9.59 0 0 0-.72-.218 18.321 18.321 0 0 1 .31-6.266c.092-.29.206-.624.335-.995.906-2.634 2.422-7.041.916-10.516.81-.406 4.85-2.605 4.728-5.988a4.871 4.871 0 0 0-.661-2.2c.052-.04 5.053-4.019 4.36-12.004-.018-.2-.022-.393-.047-.6h.859a.19.19 0 0 0 .189-.189v-5.088a.215.215 0 0 0-.199-.2l-.362.01h-.195a18.261 18.261 0 0 0-.536-4.006c2.253-11.217 2.368-28.738 2.369-28.913a.183.183 0 0 0-.072-.153.551.551 0 0 0-.163-.035l-.084.038-.057.013a7.154 7.154 0 0 0 1.168-3.948l3.69-.048a1.883 1.883 0 0 0 1.601.975 2.258 2.258 0 0 0 0-4.472zM66.2 57.385a8.915 8.915 0 0 0-2.885-2.634 6.305 6.305 0 0 0 .656-1.673 8.035 8.035 0 0 0 .153-2.367 10.47 10.47 0 0 0-.824-3.389 20.074 20.074 0 0 0-1.545-2.748 35.078 35.078 0 0 1-.907-1.494 7.101 7.101 0 0 1-.708-2.097l5.564-.015 1.439 8.69a.09.09 0 0 0 .035.075c.013.027.032.046.053.046a.058.058 0 0 0 .021-.009.11.11 0 0 0 .11.074c.18.028.552.049 1.603.103a.186.186 0 0 0 .13-.05.337.337 0 0 0 .06-.138l-.018-3.9v-2.542c.22.193.457.395.67.555l.063.055a.352.352 0 0 0-.087.146c-.006.086-.51 7.751-1.76 15.143a92.607 92.607 0 0 1-.519 2.789 6.887 6.887 0 0 0-.774-.496 4.787 4.787 0 0 0-.53-4.124zm-32.165 52.668a.186.186 0 0 0-.13.05.337.337 0 0 0-.06.139l.018 3.9v2.54c-.22-.192-.457-.395-.67-.555l-.063-.054a.353.353 0 0 0 .087-.146c.006-.087.51-7.752 1.76-15.144.16-.938.333-1.874.519-2.789a6.909 6.909 0 0 0 .774.496 4.787 4.787 0 0 0 .531 4.124 8.916 8.916 0 0 0 2.885 2.634 6.303 6.303 0 0 0-.656 1.673 8.035 8.035 0 0 0-.153 2.367 10.47 10.47 0 0 0 .823 3.39 20.075 20.075 0 0 0 1.545 2.747c.306.486.622.986.907 1.495a7.103 7.103 0 0 1 .708 2.097l-5.564.015-1.438-8.69a.09.09 0 0 0-.036-.075c-.013-.028-.032-.046-.053-.046a.058.058 0 0 0-.02.008.11.11 0 0 0-.11-.074h-.002c-.179-.027-.55-.048-1.602-.102z"/><ellipse class="cls-3" cx="53.971" cy="115.747" rx=".832" ry=".884"/><ellipse class="cls-3" cx="61.77" cy="115.747" rx=".832" ry=".884"/><path class="cls-4" d="M52.155 97.973a8.907 8.907 0 0 1 1.206.767 8.871 8.871 0 0 0 1.169.745 3.91 3.91 0 0 0 3.121.154 8.628 8.628 0 0 0 1.647-.936c.167-.112.335-.223.503-.33a7.069 7.069 0 0 1 2.133-.96c-1.585-3.218-5.767-6.512-6.287-6.913a32.58 32.58 0 0 0-7.041 7.12 5.853 5.853 0 0 1 3.549.353z"/><path class="cls-5" d="M61.158 96.293s-6.6-1.373-12.062.438l2.16-2.628s6.397-.584 8.792.409l.964 1.256z"/><path class="cls-6" d="m37.625 121.63-.39-2.336h5.777a9.635 9.635 0 0 1 .09 2.49c-.008.118-.027.226-.045.335-.108.036-.208.063-.317.1a.087.087 0 0 0-.054.081l-.109 2.173h-.172l-1.557-.009-3.685-.009.444-2.67.018-.127z"/><path class="cls-7" d="M39.255 119.294h1.557l1.593 5.179-1.557-.01-1.593-5.169z"/><path class="cls-8" d="M37.237 119.294h5.777a9.64 9.64 0 0 1 .09 2.49h-5.496l.019-.127v-.027z"/><path class="cls-6" d="M40.812 119.294h-1.557l.767 2.49h1.556l-.766-2.49z"/><path class="cls-9" d="M46.216 98.777a2.613 2.613 0 0 0-.812 2.41 2.05 2.05 0 0 0 .905 1.252 1.246 1.246 0 0 0 1.533-.08 1.218 1.218 0 0 0 .299-.965.834.834 0 0 0-.334-.63.09.09 0 0 1 .098-.153.999.999 0 0 1 .416.765 1.427 1.427 0 0 1-.291 1.033 3.58 3.58 0 0 1 .912.544 2.824 2.824 0 0 1 .976 1.697 11.42 11.42 0 0 1 6.395-1.92 11.702 11.702 0 0 1 4.01.671 3.93 3.93 0 0 1 2.043 1.74 3.286 3.286 0 0 1 1.336-2.46 1.408 1.408 0 0 1-1.126-2.167.84.84 0 0 1 .65-.437h.006a.09.09 0 0 1 .006.18.668.668 0 0 0-.508.352 1.31 1.31 0 0 0-.105 1.126 1.336 1.336 0 0 0 1.452.76 2.214 2.214 0 0 0 1.635-2.024 2.901 2.901 0 0 0-2.232-2.945 3.425 3.425 0 0 0-1.368.027l-.004.005c-.007.003-.014 0-.022 0a6.771 6.771 0 0 0-2.188.967c-.167.107-.332.218-.499.329a8.88 8.88 0 0 1-1.682.955 4.096 4.096 0 0 1-3.267-.161 8.785 8.785 0 0 1-1.195-.761 8.704 8.704 0 0 0-1.18-.751 5.753 5.753 0 0 0-3.643-.312 4.374 4.374 0 0 0-2.216.953z"/><path class="cls-3" d="M48.43 107.288a2.075 2.075 0 0 1-1.645.12 4.52 4.52 0 0 0 .716 1.058l.233.28a10.743 10.743 0 0 1 1.084 1.634 13.7 13.7 0 0 1 1.333 3.677 11.243 11.243 0 0 1-.157 6.38 38.611 38.611 0 0 1 5.464-.396 37.084 37.084 0 0 1 9.283 1.147c.067-3.91-.075-16.223-4.48-17.616a11.7 11.7 0 0 0-10.335 1.287 2.288 2.288 0 0 1 .015.377 2.66 2.66 0 0 1-1.51 2.052zm13.34 7.394a1.066 1.066 0 1 1-1.012 1.065 1.04 1.04 0 0 1 1.012-1.065zm1.845 2.16a.09.09 0 0 1 0 .18h-3.79a.09.09 0 1 1 0-.18zm-4.186-.142a.085.085 0 0 1-.113.058.09.09 0 0 1-.058-.113c.017-.056 1.761-5.55-.049-7.286-.675-.647-1.779-.692-3.282-.137a.092.092 0 0 1-.117-.053.09.09 0 0 1 .053-.116 5.56 5.56 0 0 1 1.89-.397 2.193 2.193 0 0 1 1.58.572c1.893 1.814.17 7.242.096 7.472zm-4.665-10.203 3.629-.194h.004a.09.09 0 0 1 .005.18l-3.629.194h-.004a.09.09 0 0 1-.005-.18zm-.793 8.185a1.066 1.066 0 1 1-1.012 1.065 1.04 1.04 0 0 1 1.012-1.065zm-2.06 2.16H55.7a.09.09 0 0 1 0 .18h-3.79a.09.09 0 1 1 0-.18z"/><path class="cls-9" d="M39.304 106.985a7.71 7.71 0 0 0-.148 2.284 10.178 10.178 0 0 0 .802 3.297 19.67 19.67 0 0 0 1.502 2.675c.315.5.642 1.016.936 1.542a9.315 9.315 0 0 1 .852 5.274 37.325 37.325 0 0 1 6.544-1.592 10.96 10.96 0 0 0 .182-6.371 13.521 13.521 0 0 0-1.315-3.628 10.543 10.543 0 0 0-1.066-1.606c-.076-.095-.154-.187-.231-.278a4.206 4.206 0 0 1-.823-1.252c-.004-.009.001-.017 0-.026l-.007-.003a1.333 1.333 0 0 1 1.129-2.413.09.09 0 0 1-.045.175 1.154 1.154 0 0 0-.99 2.084 1.826 1.826 0 0 0 1.726-.021 2.478 2.478 0 0 0 1.409-1.908 2.537 2.537 0 0 0-.936-2.127 3.443 3.443 0 0 0-.927-.546 1.442 1.442 0 0 1-1.683.05 2.15 2.15 0 0 1-.51-.45h-.097a6.669 6.669 0 0 0-3.48.947 6.315 6.315 0 0 0-2.824 3.893z"/><path class="cls-1" d="m25.255 119.972.007.002v-.018a.09.09 0 0 1-.007.016z"/><path class="cls-3" d="M26.73 123.745a19.209 19.209 0 0 1-.07-3.116 4.455 4.455 0 0 1 .154-1.025c-.012-.005-.025-.007-.034-.018a1.928 1.928 0 0 0-.59-.573.487.487 0 0 0-.629.125 1.201 1.201 0 0 0-.12.651l.008 2.28a6.06 6.06 0 0 0 .32 2.37 2.072 2.072 0 0 0 .125.24c.008.008.019.01.024.02.004.007 0 .013.002.02a1.39 1.39 0 0 0 1.305.754 2.177 2.177 0 0 1-.165-.282 4.713 4.713 0 0 1-.33-1.446z"/><path class="cls-10" d="M65.18 127.208a3.31 3.31 0 0 0-2.474-1.48h-.011a3.902 3.902 0 0 0-2.77 1.656 3.003 3.003 0 0 1 .914 1.1c.549 1.064.528 2.25-.048 2.644-.418.287-1.021.102-1.551-.476-.433.53-.95.73-1.356.521-.623-.315-.8-1.489-.396-2.615a3.076 3.076 0 0 1 .627-1.067l-.094-.066a5.86 5.86 0 0 0-3.938-1.88c-.088 0-.177.003-.265.008a5.575 5.575 0 0 0-3.69 2.153 2.87 2.87 0 0 1 .993 1.146c.56 1.083.538 2.245-.048 2.645-.418.284-1.02.101-1.55-.477a2.126 2.126 0 0 1-.31.307 32.909 32.909 0 0 0 4.864.93c.162.018.327.021.486.026 7.623 0 10.011-3.841 10.034-3.88.005-.009.016-.007.023-.013a1.807 1.807 0 0 1 .56-1.182z"/><path class="cls-3" d="M28.755 124.246a8.3 8.3 0 0 1-.067-3.917 3.396 3.396 0 0 1 .149-.485c-.104-.3-.414-1.05-.96-1.067h-.019a.98.98 0 0 0-.781.632 3.517 3.517 0 0 0-.237 1.231 19.03 19.03 0 0 0 .07 3.086 4.468 4.468 0 0 0 .314 1.392 2.015 2.015 0 0 0 .192.327.085.085 0 0 1 .071.054.083.083 0 0 1-.002.037 1.93 1.93 0 0 0 .983.664 1.608 1.608 0 0 0 1.331-.182 1.942 1.942 0 0 1-.296-.246 3.478 3.478 0 0 1-.748-1.526zm-3.487-2.176-.006-1.948c-.01.006-.018.016-.03.018a.663.663 0 0 0-.425.24 2.066 2.066 0 0 0-.334 1.118 8.213 8.213 0 0 0 .127 2.204 1.92 1.92 0 0 0 .23.675.75.75 0 0 0 .867.316c-.032-.059-.067-.118-.094-.18a6.213 6.213 0 0 1-.335-2.443z"/><path class="cls-1" d="M33.24 111.828a2.162 2.162 0 0 0-1.851-.219c-.94.376-1.625 1.536-2.04 3.449-.005.022-.03.022-.048.035a9.152 9.152 0 0 1 3.646.68c.03-.436.137-1.9.332-3.938a.083.083 0 0 1-.04-.007z"/><path class="cls-3" d="m31.397 122.818.443 1.163a.09.09 0 0 1-.053.117.093.093 0 0 1-.117-.053l-.514-1.35a2.967 2.967 0 0 1-.914-.625 1.401 1.401 0 0 1-.358-1.201 1.071 1.071 0 0 1 .513-.685c-.073-.14-.148-.28-.234-.428a.994.994 0 0 0-.35-.4.532.532 0 0 0-.62.209 1.298 1.298 0 0 0-.17.313.08.08 0 0 1-.03.057 3.277 3.277 0 0 0-.128.435 8.12 8.12 0 0 0 .064 3.83 3.302 3.302 0 0 0 .707 1.447 1.853 1.853 0 0 0 1.585.556 2.282 2.282 0 0 0 1.849-2.573l.002-.006a4.668 4.668 0 0 1-.52-.227z"/><path class="cls-5" d="M35.575 110.42c-.234-.016-.927-.055-1.45-.083v6.707c.203.178.348.307.353.312a2.936 2.936 0 0 1 .8 1.108 4.58 4.58 0 0 1 0 2.672 13.738 13.738 0 0 1-.407 1.366 2.001 2.001 0 0 1-.715 1.094l-.03.015v9.337c.522-.029 1.215-.068 1.448-.083l1.873-11.223z"/><path class="cls-10" d="M47.771 128.927a3.038 3.038 0 0 1 .725-1.17c-.872-1.167-1.76-1.718-2.643-1.67a3.513 3.513 0 0 0-2.355 1.773 6.494 6.494 0 0 1 .57.995c.005.003.011.002.016.006a10.393 10.393 0 0 0 3.56 1.967 3.162 3.162 0 0 1 .127-1.901z"/><path class="cls-5" d="M19.351 122.998a1.83 1.83 0 0 0 1.662-1.957 2.194 2.194 0 0 0-.267-1.054.086.086 0 0 1-.023-.047 1.61 1.61 0 0 0-1.372-.855 1.982 1.982 0 0 0 0 3.913z"/><path class="cls-11" d="M27.55 82.642h15.382a8.992 8.992 0 0 0 5.614 5.822 28.21 28.21 0 0 0-5.596 2.789c-.371.244-.742.507-1.105.779a19.607 19.607 0 0 0-3.467 3.268c-.28.353-.561.724-.815 1.105a15.277 15.277 0 0 0-.905 1.43 4.074 4.074 0 0 0-.208.453 19.072 19.072 0 0 1-8.9-15.645z"/><path class="cls-12" d="M20.955 122.072h3.31c.009 0 .014.007.021.009.001-.2-.01-.399.006-.598a2.219 2.219 0 0 1 .374-1.218.841.841 0 0 1 .386-.254h-4.097a2.347 2.347 0 0 1 0 2.061z"/><path class="cls-3" d="M25.262 119.885v-.096a1.337 1.337 0 0 1 .149-.751.608.608 0 0 1 .52-.267.768.768 0 0 1 .34.08 1.917 1.917 0 0 1 .61.571c.012-.03.02-.06.032-.09a1.132 1.132 0 0 1 .947-.736h.023c.572.018.907.628 1.07 1.04a1.287 1.287 0 0 1 .101-.184.79.79 0 0 1 .598-.314.549.549 0 0 1 .245.056 1.134 1.134 0 0 1 .423.47c.088.15.163.29.236.432a1.147 1.147 0 0 1 .258-.078 2.203 2.203 0 0 1 1.172.228 2.065 2.065 0 0 1 1.032.789.09.09 0 0 1-.032.123.088.088 0 0 1-.123-.031 1.914 1.914 0 0 0-.948-.715 2.065 2.065 0 0 0-1.073-.216.972.972 0 0 0-.233.07.087.087 0 0 1-.04.046.082.082 0 0 1-.046.004.9.9 0 0 0-.461.591 1.226 1.226 0 0 0 .316 1.042 2.868 2.868 0 0 0 .893.602l1.363.683a1.599 1.599 0 0 0 1.367.227.084.084 0 0 1 .035-.014l.004.001c.008-.004.016-.003.024-.008a1.853 1.853 0 0 0 .638-1 13.59 13.59 0 0 0 .4-1.347 4.408 4.408 0 0 0 .01-2.563 2.754 2.754 0 0 0-.753-1.04l-.364-.32a.077.077 0 0 1-.03-.027c-.537-.472-1.388-1.21-1.509-1.283a.088.088 0 0 1-.034-.104 11.331 11.331 0 0 0-6.113-.17.088.088 0 0 1-.025.063 6.515 6.515 0 0 0-1.384 4.182h.286a.084.084 0 0 1 .076.054z"/><path class="cls-11" d="M25.815 110.977c.181-5.912.715-16.207 2.191-23.822a18.622 18.622 0 0 0 2.408 5.397 19.442 19.442 0 0 0 1.467 1.965 20.363 20.363 0 0 0 3.405 3.205 139.533 139.533 0 0 0-1.992 13.925 2.284 2.284 0 0 0-1.974-.208 2.553 2.553 0 0 0-1.14.969 6.694 6.694 0 0 0-.88 2.082 5.398 5.398 0 0 0-.932-2.417 2.709 2.709 0 0 0-.371-.417 2.74 2.74 0 0 0-1.91-.706c-.082 0-.163.009-.254.009-.009 0-.009.009-.018.018z"/><path class="cls-5" d="M28.368 112.073a118.403 118.403 0 0 1 2.047-19.521 19.442 19.442 0 0 0 1.466 1.964 125.961 125.961 0 0 0-1.702 17.892 6.694 6.694 0 0 0-.878 2.082 5.398 5.398 0 0 0-.933-2.417z"/><path class="cls-1" d="M51.504 88.793a8.79 8.79 0 1 0-8.79-8.79 8.8 8.8 0 0 0 8.79 8.79zm-5.092-9.82 5.092-5.093 4.768 4.768.324.324a3.372 3.372 0 1 1-4.768 4.77l-.324-.324-.324.323a3.372 3.372 0 1 1-4.768-4.77zM29.17 115.041a5.233 5.233 0 0 0-1.298-3.25 2.635 2.635 0 0 0-2.023-.649h-.006a.086.086 0 0 1-.034-.013c-.072 2.345-.09 3.969-.094 4.406a14.283 14.283 0 0 1 3.477-.44.087.087 0 0 1-.022-.054z"/><path class="cls-11" d="M57.347 86.79a8.98 8.98 0 0 0 2.734-4.148h15.084c1.032 8.276-4.156 12.441-4.21 12.477a.145.145 0 0 0-.036.064 10.675 10.675 0 0 0-2.608-2.79 15.617 15.617 0 0 0-1.095-.805 34.175 34.175 0 0 0-4.627-2.598c-.398-.19-.806-.38-1.232-.561q-1.833-.815-3.983-1.63a.033.033 0 0 1-.027-.01z"/><path class="cls-5" d="M31.071 82.642h1.367a21.66 21.66 0 0 0 5.94 12.658c-.28.353-.561.724-.815 1.105a23.102 23.102 0 0 1-6.492-13.763zm7.199 0h1.367a21.106 21.106 0 0 0 3.313 8.611c-.371.244-.742.507-1.105.779a22.345 22.345 0 0 1-3.576-9.39zm28.946 8.946a20.76 20.76 0 0 0 3.087-8.945h1.35a22.126 22.126 0 0 1-3.342 9.75 15.617 15.617 0 0 0-1.095-.805zm-5.858-3.16a20.255 20.255 0 0 0 1.738-5.785h1.367a21.64 21.64 0 0 1-1.874 6.347 30.64 30.64 0 0 0-1.231-.562z"/><path class="cls-1" d="M57.31 86.968a.087.087 0 0 1-.052-.093 8.943 8.943 0 0 1-8.458 1.68l-.003.002c-3.88 1.414-9.11 4.185-11.977 9.365a4.446 4.446 0 0 0 .212 4.532 8.944 8.944 0 0 0 2.876 2.621 6.489 6.489 0 0 1 2.126-2.137 6.837 6.837 0 0 1 3.527-.971 2.215 2.215 0 0 1-.334-.737 2.78 2.78 0 0 1 .867-2.587 4.503 4.503 0 0 1 2.268-.99 32.661 32.661 0 0 1 7.234-7.34.085.085 0 0 1 .052-.016.09.09 0 0 1 .055.017c.048.037 4.72 3.586 6.409 7.052a3.867 3.867 0 0 1 .752-.081 3.241 3.241 0 0 1 .651.064 3.088 3.088 0 0 1 2.377 3.136 2.627 2.627 0 0 1-.3 1.016c.007.004.015.003.022.01a6.391 6.391 0 0 1 1.255 1.8c.414-.2 4.761-2.387 4.64-5.76-.127-3.526-4.904-7.087-14.198-10.583z"/><path class="cls-9" d="m64.118 102.671-.002.002c-.013.003-1.335.407-1.6 2.65-.002.013-.012.02-.018.03 2.4 4.024 2.48 12.745 2.422 15.882l.3.084a18.464 18.464 0 0 1 .322-6.363c.093-.292.21-.628.336-.999 1.065-3.094 3.045-8.846-.374-12.298a2.119 2.119 0 0 1-1.386 1.012z"/><path class="cls-5" d="m42.862 122.372-.363 7.37c.138.338.568 1.168 1.012 1.24a.518.518 0 0 0 .463-.226c.769-.904-.642-2.818-.657-2.837a.09.09 0 0 1-.007-.097c.041-.075 1.005-1.814 2.532-1.915a1.59 1.59 0 0 1 .138-.005 3.6 3.6 0 0 1 2.71 1.813.091.091 0 0 1-.014.122 2.795 2.795 0 0 0-.735 1.151 2.833 2.833 0 0 0-.065 1.942.083.083 0 0 1 .027.068.816.816 0 0 0 .346.384c.348.174.806-.036 1.197-.558a.091.091 0 0 1 .07-.036h.002a.091.091 0 0 1 .07.032c.474.558 1.032.767 1.383.527.503-.344.499-1.425-.01-2.412a2.632 2.632 0 0 0-1.014-1.124.091.091 0 0 1-.028-.136 5.814 5.814 0 0 1 3.888-2.302 5.816 5.816 0 0 1 4.329 1.912l.17.119a.091.091 0 0 1 .012.138 2.86 2.86 0 0 0-.66 1.076c-.374 1.045-.237 2.117.307 2.394.348.175.808-.036 1.198-.556a.14.14 0 0 1 .072-.036.091.091 0 0 1 .07.031c.482.566 1.027.771 1.383.527.503-.344.498-1.426-.01-2.412a2.737 2.737 0 0 0-.933-1.085.087.087 0 0 1-.043-.06.092.092 0 0 1 .019-.073 4.143 4.143 0 0 1 2.973-1.801h.013a3.54 3.54 0 0 1 2.679 1.628.09.09 0 0 1-.039.14c-.006.003-.749.343-.597 2.496.044.628.224 1.02.533 1.162.474.221 1.13-.186 1.297-.3l-.3-3.833-.216-5.073a15.905 15.905 0 0 0-.716-.225c-.006.002-.01.008-.016.008h-.01a.087.087 0 0 1-.066-.034 37.832 37.832 0 0 0-22.394.856z"/><path class="cls-3" d="M53.971 116.811a1.066 1.066 0 1 0-1.012-1.064 1.04 1.04 0 0 0 1.012 1.064zm0-1.949a.886.886 0 1 1-.832.885.86.86 0 0 1 .832-.885zm7.799 1.949a1.066 1.066 0 1 0-1.012-1.064 1.04 1.04 0 0 0 1.012 1.064zm0-1.949a.886.886 0 1 1-.832.885.86.86 0 0 1 .832-.885z"/><path class="cls-3" d="M55.7 116.743a.19.19 0 0 1 0 .379h-3.79a.19.19 0 1 1 0-.379z"/><path class="cls-3" d="M55.7 116.761a.172.172 0 0 1 0 .343h-3.79a.172.172 0 0 1 0-.343z"/><path class="cls-3" d="M51.91 117.022h3.79a.09.09 0 0 0 0-.18h-3.79a.09.09 0 1 0 0 .18zm11.705-.279a.19.19 0 1 1 0 .379h-3.79a.19.19 0 1 1 0-.379z"/><path class="cls-3" d="M63.615 116.761a.172.172 0 1 1 0 .343h-3.79a.172.172 0 1 1 0-.343z"/><path class="cls-3" d="M59.735 116.932a.09.09 0 0 0 .09.09h3.79a.09.09 0 0 0 0-.18h-3.79a.09.09 0 0 0-.09.09z"/><path class="cls-2" d="m51.18 83.741.324-.323.323.323a3.372 3.372 0 1 0 4.769-4.769l-.324-.324-4.768-4.768-5.092 5.092a3.372 3.372 0 1 0 4.768 4.77z"/><circle class="cls-13" cx="63.933" cy="123.485" r="1.052"/><circle class="cls-13" cx="54.645" cy="123.135" r="1.052"/><circle class="cls-13" cx="45.445" cy="124.098" r="1.052"/><path d="M19.35 123.278a1.702 1.702 0 0 0 1.516-.926l3.311-.028h.01a8.187 8.187 0 0 0 .137 1.432 2.21 2.21 0 0 0 .272.774 1.042 1.042 0 0 0 .873.48.656.656 0 0 0 .276-.052 1.71 1.71 0 0 0 1.333.807c.086 0 .2-.008.175-.068a2.205 2.205 0 0 0 1.14.773 2.077 2.077 0 0 0 .554.077 1.632 1.632 0 0 0 .998-.32 2.181 2.181 0 0 0 1.051.272 2.034 2.034 0 0 0 .262-.016 2.493 2.493 0 0 0 2.055-2.467c.004-.074.018-.137.018-.215a1.519 1.519 0 0 0 .309.034.431.431 0 0 0 .187-.037l.019-.002v9.247a.348.348 0 0 0 .06.138c.04.04.094.048.209.048h.012c.945-.051 1.339-.072 1.585-.113a.155.155 0 0 0 .136-.188l1.352-8.193 5.023.001.242.001-.235 5.092c.054.134.547 1.318 1.235 1.43.008.002.101.007.102.007a.808.808 0 0 0 .62-.328 1.347 1.347 0 0 0 .248-1.16 2.676 2.676 0 0 0-.063-.326 10.934 10.934 0 0 0 3.275 1.649 1.095 1.095 0 0 0 .475.53.776.776 0 0 0 .36.085.94.94 0 0 0 .518-.154 33.23 33.23 0 0 0 5.047.974c.172.018.344.024.516.026 5.216 0 8.032-1.77 9.323-2.976a7.15 7.15 0 0 0 .572-.578 7.142 7.142 0 0 0 .013.823c.052.74.286 1.209.694 1.398a1.025 1.025 0 0 0 .427.088 2.34 2.34 0 0 0 1.196-.446.343.343 0 0 0 .076-.168l-.304-3.878-.22-5.128a.186.186 0 0 0-.12-.172 9.556 9.556 0 0 0-.72-.218 18.321 18.321 0 0 1 .31-6.266c.092-.29.206-.624.335-.995.906-2.634 2.422-7.041.916-10.516.81-.406 4.85-2.605 4.728-5.988a4.871 4.871 0 0 0-.661-2.2c.052-.04 5.053-4.019 4.36-12.004-.018-.2-.022-.393-.046-.6h.858a.19.19 0 0 0 .19-.189v-5.088a.19.19 0 0 0-.19-.19l-16.143.013a9.06 9.06 0 0 0-17.287-.012H26.71a.19.19 0 0 0-.19.189v5.089a.19.19 0 0 0 .19.19l.557-.018a18.262 18.262 0 0 0 .536 4.013c-2.253 11.217-2.368 28.738-2.369 28.913a.183.183 0 0 0 .072.153.554.554 0 0 0 .163.035l.084-.038.057-.013a7.155 7.155 0 0 0-1.168 3.948l-3.69.048a1.883 1.883 0 0 0-1.602-.974 2.258 2.258 0 0 0 0 4.47zm-1.562-2.237a1.731 1.731 0 0 1 1.563-1.856 1.53 1.53 0 0 1 1.308.85 2.09 2.09 0 0 1 .254 1.006 1.732 1.732 0 0 1-1.562 1.858 1.732 1.732 0 0 1-1.563-1.858zm5.312-.948h1.6a.806.806 0 0 0-.112.11 2.305 2.305 0 0 0-.395 1.273c-.01.14-.01.281-.007.42v.078l-2.206.017h-.88a2.462 2.462 0 0 0 .192-.95 2.065 2.065 0 0 0-.17-.813c-.013-.039-.02-.08-.036-.118zm2.064.145.005 1.835a6.272 6.272 0 0 0 .343 2.48l.048.056.006.014a.583.583 0 0 1-.1.008.663.663 0 0 1-.553-.308 1.877 1.877 0 0 1-.217-.641 8.114 8.114 0 0 1-.125-2.176 1.98 1.98 0 0 1 .313-1.064.783.783 0 0 1 .18-.139.618.618 0 0 1 .1-.065zm-.16-.488a6.476 6.476 0 0 1 1.366-4.074 14.01 14.01 0 0 1 2.865-.312 9.917 9.917 0 0 1 3.084.452.183.183 0 0 0 .085.13c.104.062.886.739 1.524 1.299l.363.32a2.655 2.655 0 0 1 .726 1.003 4.313 4.313 0 0 1-.013 2.502 13.324 13.324 0 0 1-.397 1.337 1.657 1.657 0 0 1-.652.965.736.736 0 0 1-.334.074 2.278 2.278 0 0 1-.944-.3l-1.37-.687a2.778 2.778 0 0 1-.858-.577 1.124 1.124 0 0 1-.291-.953.714.714 0 0 1 .058-.153.8.8 0 0 1 .04-.078.833.833 0 0 1 .296-.283l-.008-.016.103-.04a.85.85 0 0 1 .209-.064 1.07 1.07 0 0 1 .16-.012 2.294 2.294 0 0 1 .859.221 1.823 1.823 0 0 1 .9.672.189.189 0 0 0 .164.096.352.352 0 0 0 .096-.028.19.19 0 0 0 .089-.117.354.354 0 0 0-.022-.142 2.157 2.157 0 0 0-1.078-.83 2.636 2.636 0 0 0-1.007-.25 1.42 1.42 0 0 0-.22.015.44.44 0 0 0-.187.066 7.604 7.604 0 0 0-.205-.371 1.214 1.214 0 0 0-.465-.51.64.64 0 0 0-.29-.065.77.77 0 0 0-.489.22.946.946 0 0 0-.172.141l-.018.027c-.279-.604-.653-.918-1.112-.931a1.107 1.107 0 0 0-.91.617c-.027.044-.058.083-.082.131a1.751 1.751 0 0 0-.552-.484.873.873 0 0 0-.384-.088.701.701 0 0 0-.602.31 1.165 1.165 0 0 0-.149.75l-.166.017zm3.01-32.2a18.992 18.992 0 0 0 7.173 10.15 138.498 138.498 0 0 0-1.974 13.79 2.567 2.567 0 0 0-1.145-.29 2.12 2.12 0 0 0-.782.149 3.267 3.267 0 0 0-1.663 1.953 7.793 7.793 0 0 0-.294.79 4.628 4.628 0 0 0-1.267-2.507 2.85 2.85 0 0 0-1.975-.73.404.404 0 0 0-.155.025h-.015c.138-4.35.49-11.784 1.345-18.504.218-1.673.466-3.302.752-4.827zm4.12 6.886a19.084 19.084 0 0 1-.52-.626c-.133-.167-.262-.35-.393-.527-.111-.151-.224-.297-.333-.456-.164-.236-.32-.49-.478-.742-.075-.12-.153-.233-.227-.357a18.732 18.732 0 0 1-.483-.887c-.058-.112-.12-.216-.177-.33a18.586 18.586 0 0 1-.431-.963c-.053-.126-.112-.243-.164-.371-.123-.31-.23-.638-.338-.963-.055-.164-.117-.318-.168-.486-.088-.29-.157-.6-.232-.903-.054-.22-.119-.43-.166-.656-.058-.28-.095-.577-.141-.866-.048-.299-.102-.592-.137-.902a19.54 19.54 0 0 1-.117-1.662l15.224-.012a9.364 9.364 0 0 0 5.433 5.725c-3.784 1.437-8.881 4.221-11.713 9.334a4.124 4.124 0 0 0-.17.36 18.68 18.68 0 0 1-4.066-3.47c-.067-.076-.135-.161-.202-.24zm33.633 19.541c-.121.35-.231.67-.321.95a11.885 11.885 0 0 0-.44 3.11 54.077 54.077 0 0 0-.534-6.542 7.942 7.942 0 0 1 .43-2.105 7.829 7.829 0 0 0 .45-2.362 5.65 5.65 0 0 0-1.441-4.144 1.47 1.47 0 0 1 .224-.113 2.066 2.066 0 0 0 1.31-.891c.019-.027.042-.048.06-.076 3.276 3.418 1.316 9.113.262 12.173zm-4.84 14.462a2.905 2.905 0 0 0-.87-1.058 3.771 3.771 0 0 1 2.649-1.553 3.208 3.208 0 0 1 2.337 1.346l.01.01a2.08 2.08 0 0 0-.542 1.168 7.886 7.886 0 0 1-3.408 2.588 2.743 2.743 0 0 0-.176-2.501zm4.454-1.03a.192.192 0 0 0 .117-.128.378.378 0 0 0-.034-.166 3.641 3.641 0 0 0-2.77-1.666 4.237 4.237 0 0 0-3.052 1.838.2.2 0 0 0-.038.152.35.35 0 0 0 .089.128 2.641 2.641 0 0 1 .896 1.045c.478.929.498 1.975.043 2.285a.483.483 0 0 1-.28.084 1.437 1.437 0 0 1-.972-.593.195.195 0 0 0-.168-.061h-.01a.425.425 0 0 0-.119.07 1.217 1.217 0 0 1-.86.577.476.476 0 0 1-.213-.05c-.5-.255-.615-1.273-.258-2.271a2.762 2.762 0 0 1 .636-1.04.186.186 0 0 0 .056-.148.341.341 0 0 0-.08-.143l-.16-.109a6.098 6.098 0 0 0-4.11-1.95c-.1 0-.197.003-.294.01a5.908 5.908 0 0 0-3.958 2.338.189.189 0 0 0-.039.158.339.339 0 0 0 .097.13 2.54 2.54 0 0 1 .972 1.081c.478.927.497 1.974.042 2.285a.474.474 0 0 1-.275.081 1.447 1.447 0 0 1-.977-.591.195.195 0 0 0-.15-.066.336.336 0 0 0-.146.076 1.217 1.217 0 0 1-.86.578.478.478 0 0 1-.212-.05.784.784 0 0 1-.291-.289.63.63 0 0 0-.035-.113 2.735 2.735 0 0 1 .067-1.87 2.694 2.694 0 0 1 .707-1.11.19.19 0 0 0 .029-.255 3.689 3.689 0 0 0-2.791-1.852c-.049 0-.098 0-.144.004-1.578.105-2.572 1.89-2.613 1.967a.19.19 0 0 0 .015.204c.055.077 1.368 1.882.66 2.714a.457.457 0 0 1-.371.191c-.344-.056-.745-.715-.93-1.137l.35-7.3a36.95 36.95 0 0 1 1.914-.61l.131.066.053-.119a37.614 37.614 0 0 1 10.416-1.463 37.123 37.123 0 0 1 9.72 1.26.338.338 0 0 0 .142.069h.009c.007 0-.015-.006-.012-.012.314.093.537.164.648.19l.214 5.02.343 3.743a1.915 1.915 0 0 1-.93.348.627.627 0 0 1-.27-.057c-.275-.126-.435-.489-.476-1.077-.141-1.998.507-2.38.532-2.396zm-21.796.502v-.001a3.403 3.403 0 0 1 2.273-1.723l.102-.003a3.28 3.28 0 0 1 2.415 1.554 3.21 3.21 0 0 0-.698 1.155 3.383 3.383 0 0 0-.175 1.777 10.37 10.37 0 0 1-3.344-1.856 2.648 2.648 0 0 0-.569-.904zm21.435-6.738c.006-.332.01-.712.012-1.13.02.426.048.815.077 1.143zm-29.251-10.951a.056.056 0 0 0-.02.008.11.11 0 0 0-.11-.074h-.002c-.179-.028-.55-.049-1.602-.103a.186.186 0 0 0-.13.05.337.337 0 0 0-.06.139l.018 3.9v2.54a12.56 12.56 0 0 0-.67-.555l-.063-.054a.351.351 0 0 0 .087-.146c.006-.087.51-7.752 1.76-15.144.16-.938.333-1.874.519-2.789a6.88 6.88 0 0 0 .774.496 4.787 4.787 0 0 0 .531 4.124 8.916 8.916 0 0 0 2.885 2.634 6.303 6.303 0 0 0-.656 1.673 8.032 8.032 0 0 0-.153 2.367 10.471 10.471 0 0 0 .823 3.39 20.084 20.084 0 0 0 1.545 2.747c.306.486.622.986.907 1.495a7.1 7.1 0 0 1 .708 2.097l-5.564.015-1.438-8.69a.09.09 0 0 0-.036-.075c-.014-.027-.032-.045-.053-.045zm9.433 11.139c.426-1.29 1.117-4.74-1.892-8.59-1.932-2.47-2.744-4.987-2.285-7.084a4.307 4.307 0 0 1 2.225-2.983l-.013-.026a7.088 7.088 0 0 1 1.667-.406c.093-.009.187-.012.281-.018a4.712 4.712 0 0 0-1.7 2.823c-.337 1.526-.248 3.955 2.081 6.868 3.587 4.483 2.057 8.668 1.995 8.831-.793.17-1.581.362-2.36.585zm3.162-19.399a3.207 3.207 0 0 1 3.472 1.563 11.066 11.066 0 0 0-1.293.648c-.185.106-.37.214-.55.331a2.968 2.968 0 0 0-.987-1.627 2.866 2.866 0 0 0-.774-.462c-.02-.01-.038-.022-.06-.031a1.478 1.478 0 0 0 .19-.434zm3.806 1.42a3.552 3.552 0 0 0-3.165-1.832 4.616 4.616 0 0 0-.601.047 1.51 1.51 0 0 0 .016-.232 1.091 1.091 0 0 0-.46-.837.19.19 0 0 0-.104-.031.348.348 0 0 0-.16.086.192.192 0 0 0-.027.143.366.366 0 0 0 .084.12.742.742 0 0 1 .289.558 1.12 1.12 0 0 1-.27.884.96.96 0 0 1-.693.277 1.413 1.413 0 0 1-.719-.21 1.95 1.95 0 0 1-.86-1.191 2.186 2.186 0 0 1 .051-1.086 6.516 6.516 0 0 1 5.114-.697 7.484 7.484 0 0 1 3.905 3.375 11.126 11.126 0 0 0-2.4.627zm10.291-1.372a1.418 1.418 0 0 0 .795.641 1.684 1.684 0 0 0 .215.072 2.862 2.862 0 0 0-.75.972 3.767 3.767 0 0 0-.097.212c-.038.09-.076.176-.11.277a4.906 4.906 0 0 0-.19.717 4.249 4.249 0 0 0-1.503-1.393 3.715 3.715 0 0 1 1.64-1.498zm-6.148.62a12.145 12.145 0 0 0-1.353.083 7.8 7.8 0 0 0-4.181-3.675 5.792 5.792 0 0 0-1.775-.276 7.575 7.575 0 0 0-3.253.823 2.553 2.553 0 0 1 .532-.734 4.274 4.274 0 0 1 2.168-.928 8.242 8.242 0 0 1 1.472-.146 4.688 4.688 0 0 1 2.108.449 8.714 8.714 0 0 1 1.177.75 8.678 8.678 0 0 0 1.198.762 4.226 4.226 0 0 0 1.866.436 4.13 4.13 0 0 0 1.48-.271 9.137 9.137 0 0 0 1.725-.98c.158-.106.315-.212.474-.313a6.697 6.697 0 0 1 2.18-.959 3.728 3.728 0 0 1 .755-.082 2.987 2.987 0 0 1 .573.055 2.708 2.708 0 0 1 1.36.786c-5.716.206-7.398 3.585-7.67 4.25a12.154 12.154 0 0 0-.836-.03zm5.493-5.286a7.257 7.257 0 0 0-2.059.946c-.137.086-.513.336-.513.336a8.612 8.612 0 0 1-1.619.92 3.752 3.752 0 0 1-1.344.247 3.848 3.848 0 0 1-1.697-.397 8.96 8.96 0 0 1-1.178-.753 8.79 8.79 0 0 0-1.197-.759 5.037 5.037 0 0 0-2.258-.476 5.592 5.592 0 0 0-1 .092c-.049.006-.09.003-.14.01.177-.258.363-.511.552-.761a.177.177 0 0 0 .083.01 28.031 28.031 0 0 1 11.858-.296l.01.016c.183.287.355.576.502.865zM51.34 94.432c.044-.016 2.56-.94 8.445.083.005.001.01-.004.015-.003a18.1 18.1 0 0 1 1.211 1.529 30.3 30.3 0 0 0-5.199-.443 24.82 24.82 0 0 0-6.136.736c.535-.674 1.1-1.313 1.664-1.902zm.497-.508a37.906 37.906 0 0 1 3.798-3.308 33.75 33.75 0 0 1 3.787 3.476 29.767 29.767 0 0 0-4.704-.427 13.739 13.739 0 0 0-2.881.259zm-5.987 17.795c-2.24-2.8-2.33-5.115-2.01-6.565a4.15 4.15 0 0 1 1.861-2.799l-.072-.144h.001a2.29 2.29 0 0 0 .533.47 1.8 1.8 0 0 0 .912.26.972.972 0 0 0 .786-.303 3.346 3.346 0 0 1 .9.53 2.44 2.44 0 0 1 .9 2.042 2.38 2.38 0 0 1-1.352 1.828 2.119 2.119 0 0 1-.9.217 1.414 1.414 0 0 1-.731-.192 1.18 1.18 0 0 1-.445-1.477 1.045 1.045 0 0 1 .951-.478 2.06 2.06 0 0 1 .455.058.19.19 0 0 0 .163-.286.347.347 0 0 0-.116-.087 1.99 1.99 0 0 0-.502-.064 1.417 1.417 0 0 0-1.282.667 1.544 1.544 0 0 0 .544 1.97 4.305 4.305 0 0 0 .848 1.29l.222.267a10.448 10.448 0 0 1 1.056 1.592 13.428 13.428 0 0 1 1.305 3.6 11.493 11.493 0 0 1-.1 6.252 36.05 36.05 0 0 0-1.806.32 9.859 9.859 0 0 0-2.121-8.968zm4.29 8.617a11.512 11.512 0 0 0 .108-6.3 13.812 13.812 0 0 0-1.342-3.704 10.833 10.833 0 0 0-1.094-1.649l-.235-.282a8.954 8.954 0 0 1-.545-.717c-.024-.04-.053-.078-.075-.12a1.978 1.978 0 0 0 .482.062 2.394 2.394 0 0 0 1.036-.248 2.76 2.76 0 0 0 1.566-2.132c.004-.04-.017-.066-.02-.102a.611.611 0 0 0-.026-.141c-.008-.02-.001-.044-.012-.062a11.068 11.068 0 0 1 6.334-1.932 11.262 11.262 0 0 1 3.915.659c4.318 1.364 4.47 13.625 4.412 17.392a37.045 37.045 0 0 0-9.185-1.118 35.38 35.38 0 0 0-4.387.295c-.311.036-.621.055-.933.099zm13.921-17.938a1.194 1.194 0 0 1-.205.017 1.225 1.225 0 0 1-1.139-.718 1.205 1.205 0 0 1 .097-1.035.579.579 0 0 1 .432-.306.19.19 0 0 0 .175-.2.193.193 0 0 0-.202-.178.932.932 0 0 0-.727.484 1.588 1.588 0 0 0-.17 1.214 4.002 4.002 0 0 0-1.835 1.688c-.043-.016-.084-.041-.128-.055a11.758 11.758 0 0 0-2.833-.613c.361-.806 2.094-3.848 7.585-3.938a2.584 2.584 0 0 1 .502 1.705 2.113 2.113 0 0 1-1.552 1.935zm-20.696 19.533a9.375 9.375 0 0 0-.882-5.197 33.444 33.444 0 0 0-.953-1.569 19.431 19.431 0 0 1-1.479-2.638 10.071 10.071 0 0 1-.795-3.265 7.613 7.613 0 0 1 .146-2.254 6.214 6.214 0 0 1 2.329-3.524 4.843 4.843 0 0 0-1.06 2.125c-.481 2.205.354 4.828 2.355 7.385 3.13 4.006 2.115 7.542 1.752 8.49-.221.066-.438.14-.657.211-.252.08-.506.152-.756.236zm19.25-16.597a3.238 3.238 0 0 1 1.122-2.328l-.1.11a5.396 5.396 0 0 1 1.354 3.911 7.42 7.42 0 0 1-.435 2.257c-.101.332-.203.67-.285 1.024a15.823 15.823 0 0 0-1.656-4.974zm-33.153 9.68c.407-1.839 1.068-2.954 1.964-3.312a1.696 1.696 0 0 1 .633-.12 2.68 2.68 0 0 1 1.117.297c-.174 1.83-.278 3.19-.318 3.747a9.052 9.052 0 0 0-3.163-.601c-.079-.004-.152-.01-.233-.011zm5.503 7.522a14.222 14.222 0 0 0 .411-1.376 4.693 4.693 0 0 0-.004-2.733 3.013 3.013 0 0 0-.823-1.14 2.364 2.364 0 0 0-.324-.242l-.018-6.3v-.304c.467.025 1.036.057 1.28.059l1.862 11.127-1.845 11.143c-.258.016-.816.048-1.279.072l-.016-9.16a2.083 2.083 0 0 0 .756-1.146zm31.027-22.043a3.19 3.19 0 0 0-2.456-3.24 3.338 3.338 0 0 0-.672-.067 2.899 2.899 0 0 0-.69.08c-1.709-3.444-6.364-6.996-6.411-7.031a.193.193 0 0 0-.114-.037.389.389 0 0 0-.109.034 32.133 32.133 0 0 0-7.196 7.324 4.612 4.612 0 0 0-2.317 1.014 2.886 2.886 0 0 0-.896 2.684 1.647 1.647 0 0 0 .26.58c.008.012.01.026.016.038a6.938 6.938 0 0 0-3.425.981 6.314 6.314 0 0 0-2.092 2.097 8.834 8.834 0 0 1-2.776-2.551 4.342 4.342 0 0 1-.205-4.427c2.827-5.11 8.023-7.888 11.87-9.318a9.035 9.035 0 0 0 2.726.42 9.46 9.46 0 0 0 5.772-2.012c9.252 3.48 14.007 7.011 14.134 10.494.112 3.137-3.686 5.216-4.495 5.622a5.915 5.915 0 0 0-1.21-1.683 2.67 2.67 0 0 0 .286-1.002zm-6.195-12.819c-.727-.3-1.483-.6-2.275-.9a8.925 8.925 0 0 0 2.617-4.035l14.938-.016c.948 7.861-3.774 11.98-4.143 12.287-1.559-2.474-5.306-4.944-11.137-7.336zm-8.292 1.02a8.69 8.69 0 1 1 8.69-8.69 8.7 8.7 0 0 1-8.69 8.69zm-25.861 30.5a.338.338 0 0 1 .287-.143.496.496 0 0 1 .215.051 2.22 2.22 0 0 1 .562.511 4.66 4.66 0 0 0-.146 1.011 19.297 19.297 0 0 0 .07 3.132 4.796 4.796 0 0 0 .337 1.477 1.318 1.318 0 0 0 .083.153 1.43 1.43 0 0 1-1.071-.757 1.79 1.79 0 0 1-.119-.229 5.978 5.978 0 0 1-.314-2.33l-.007-2.28a1.138 1.138 0 0 1 .103-.597zm3.32 1.2c.031-.139.07-.285.095-.382a.586.586 0 0 0 .058-.095 1.194 1.194 0 0 1 .156-.288.526.526 0 0 1 .375-.213.27.27 0 0 1 .122.03.913.913 0 0 1 .308.361c.072.122.135.24.203.333a1.163 1.163 0 0 0-.494.708 1.496 1.496 0 0 0 .381 1.289 2.353 2.353 0 0 0 .896.594l.514 1.351a.191.191 0 0 0 .18.12l.065-.011a.192.192 0 0 0 .107-.101.344.344 0 0 0 .004-.144l-.228-.546-.148-.39.95.477a1.174 1.174 0 0 0 .431.151.192.192 0 0 0 .033-.002 2.184 2.184 0 0 1-1.763 2.47 1.814 1.814 0 0 1-.229.014 1.744 1.744 0 0 1-1.27-.54 3.21 3.21 0 0 1-.683-1.405 8.01 8.01 0 0 1-.064-3.782zm-1.465 4.993a1.837 1.837 0 0 1-.183-.31 4.362 4.362 0 0 1-.305-1.362 18.828 18.828 0 0 1-.07-3.07 3.464 3.464 0 0 1 .227-1.195.889.889 0 0 1 .706-.574c.472.015.758.682.87.932a3.693 3.693 0 0 0-.152.498 8.41 8.41 0 0 0 .067 3.966 3.575 3.575 0 0 0 .773 1.567.626.626 0 0 0 .158.116c.017.013.031.029.048.042a1.48 1.48 0 0 1-.692.171 1.627 1.627 0 0 1-.45-.065 1.687 1.687 0 0 1-.916-.641l-.015.01zm9.777-1.013.451-2.762-.336-1.906-.052-.31 5.589-.015a11.9 11.9 0 0 1 .1 2.644l-.314.103a.187.187 0 0 0-.128.17l-.103 2.079h-4.548zm12.126 6.92a.443.443 0 0 0 .106-.133l.005-.006a2.775 2.775 0 0 0 .231.21c-.075-.018-.149-.028-.223-.04a2.66 2.66 0 0 1-.12-.032zm1.558.372a.87.87 0 0 0 .17-.087c.627-.428.662-1.645.08-2.772a2.806 2.806 0 0 0-.945-1.107 5.47 5.47 0 0 1 3.56-2.047 4.23 4.23 0 0 1 .26-.01 5.801 5.801 0 0 1 3.773 1.745c.04.036.079.067.118.104l.004.002a3.264 3.264 0 0 0-.584 1.03c-.422 1.173-.223 2.401.444 2.738a.838.838 0 0 0 .383.092 1.348 1.348 0 0 0 .997-.556l.012-.011a1.604 1.604 0 0 0 .865.509c.018.004.037.017.055.02a17.119 17.119 0 0 1-5.639.865 4.86 4.86 0 0 1-.424-.023 41.738 41.738 0 0 1-2.32-.332c-.26-.048-.528-.1-.81-.16zm-25.144-16.259c.007-.566.026-2.077.074-4.169.068-.003.135-.006.201-.006a2.476 2.476 0 0 1 1.715.632 5.21 5.21 0 0 1 1.278 3.1l.002.031a14.265 14.265 0 0 0-3.27.412z"/><path d="M55.828 108.96a.188.188 0 0 0-.112.243c.019.051.067.112.234.112h.011a5.309 5.309 0 0 1 1.79-.378 1.93 1.93 0 0 1 1.389.495c1.743 1.67.04 7.127.024 7.182a.337.337 0 0 0 .01.145.228.228 0 0 0 .173.105.189.189 0 0 0 .178-.134c.074-.232 1.806-5.725-.122-7.574a2.3 2.3 0 0 0-1.65-.598 5.674 5.674 0 0 0-1.925.402zm-1.05-2.183 3.629-.195a.21.21 0 0 0 .18-.199.19.19 0 0 0-.19-.18h-.004l-3.634.195a.21.21 0 0 0-.18.199.192.192 0 0 0 .2.18zm12.64-8.232a.659.659 0 0 0 .818-.438l.026-.085.086.026a.656.656 0 0 0 .38-1.257l-.084-.025-1.257-.382-.407 1.342a.658.658 0 0 0 .438.819zm-4.534-7.373-.09-.004-1.31-.07-.075 1.4a.656.656 0 1 0 1.311.07l.005-.09.089.005a.656.656 0 1 0 .07-1.31zm-19.909 5.212-1.256.382-.086.026a.656.656 0 0 0 .382 1.256l.085-.026.026.085a.656.656 0 1 0 1.256-.381zm4.592-5.216-.089.004a.656.656 0 1 0 .07 1.312l.09-.005.004.089a.656.656 0 0 0 1.311-.07l-.075-1.4zm9.04 26.142a.357.357 0 0 0 .025-.126.174.174 0 0 0-.19-.136h-.013a10.09 10.09 0 0 1-1.722.144 7.214 7.214 0 0 1-2.503-.395.315.315 0 0 0-.058-.01.172.172 0 0 0-.06.333 7.533 7.533 0 0 0 2.622.416 10.05 10.05 0 0 0 1.789-.152.17.17 0 0 0 .11-.074zm4.129-.102a9.01 9.01 0 0 0 1.426.125 2.826 2.826 0 0 0 2.08-.566.174.174 0 0 0-.01-.243.36.36 0 0 0-.116-.044.379.379 0 0 0-.128.055 2.657 2.657 0 0 1-1.832.455 8.857 8.857 0 0 1-1.396-.124.165.165 0 0 0-.165.144.173.173 0 0 0 .141.198z"/><circle cx="62.106" cy="115.563" r=".905"/><path d="M54.63 116.79a.964.964 0 1 0-.965-.965.964.964 0 0 0 .964.964z"/><path class="cls-1" d="M74.69 78.49v3.02H60.36c-.01.08-.03.17-.04.25h14.62v-3.52H60.32c.01.08.03.17.04.25zm-32 3.27c-.01-.08-.03-.17-.04-.25H28.32v-3.02h14.33c.01-.08.03-.17.04-.25H28.07v3.52z"/><ellipse class="cls-3" cx="49.029" cy="44.253" rx=".832" ry=".884"/><ellipse class="cls-3" cx="41.23" cy="44.253" rx=".832" ry=".884"/><path class="cls-4" d="M50.845 62.027a8.898 8.898 0 0 1-1.206-.767 8.88 8.88 0 0 0-1.169-.745 3.91 3.91 0 0 0-3.121-.154 8.625 8.625 0 0 0-1.647.936c-.168.112-.335.223-.503.33a7.066 7.066 0 0 1-2.133.959c1.585 3.219 5.767 6.512 6.287 6.914a32.583 32.583 0 0 0 7.041-7.12 5.853 5.853 0 0 1-3.549-.353z"/><path class="cls-5" d="M41.842 63.707s6.6 1.372 12.062-.438l-2.16 2.628s-6.397.584-8.792-.409l-.964-1.256z"/><path class="cls-6" d="m65.375 38.37.39 2.336h-5.777a9.635 9.635 0 0 1-.09-2.49c.008-.117.027-.226.045-.335.108-.036.208-.063.317-.1a.087.087 0 0 0 .054-.081l.109-2.173h.172l1.557.009 3.685.01-.444 2.67-.018.127z"/><path class="cls-7" d="M63.745 40.706h-1.557l-1.593-5.179 1.557.009 1.593 5.17z"/><path class="cls-8" d="M65.763 40.706h-5.777a9.64 9.64 0 0 1-.09-2.49h5.496l-.018.127v.027z"/><path class="cls-6" d="M62.188 40.706h1.557l-.767-2.49h-1.556l.766 2.49z"/><path class="cls-9" d="M56.784 61.223a2.613 2.613 0 0 0 .812-2.41 2.05 2.05 0 0 0-.905-1.252 1.246 1.246 0 0 0-1.533.08 1.218 1.218 0 0 0-.299.965.834.834 0 0 0 .334.63.09.09 0 0 1-.098.153.999.999 0 0 1-.416-.765 1.427 1.427 0 0 1 .291-1.033 3.58 3.58 0 0 1-.912-.544 2.824 2.824 0 0 1-.976-1.697 11.42 11.42 0 0 1-6.395 1.92 11.706 11.706 0 0 1-4.01-.672 3.93 3.93 0 0 1-2.043-1.74 3.287 3.287 0 0 1-1.336 2.461 1.408 1.408 0 0 1 1.126 2.167.84.84 0 0 1-.65.436h-.006a.09.09 0 0 1-.006-.18.668.668 0 0 0 .508-.352 1.31 1.31 0 0 0 .105-1.126 1.336 1.336 0 0 0-1.452-.76 2.214 2.214 0 0 0-1.635 2.025 2.901 2.901 0 0 0 2.232 2.945 3.427 3.427 0 0 0 1.368-.027l.004-.005c.007-.003.014 0 .022 0a6.774 6.774 0 0 0 2.188-.967c.167-.107.332-.218.499-.329a8.877 8.877 0 0 1 1.682-.955 4.096 4.096 0 0 1 3.266.161 8.78 8.78 0 0 1 1.195.761 8.72 8.72 0 0 0 1.18.751 5.753 5.753 0 0 0 3.643.312 4.374 4.374 0 0 0 2.217-.953z"/><path class="cls-3" d="M54.57 52.712a2.075 2.075 0 0 1 1.645-.12 4.52 4.52 0 0 0-.716-1.057l-.233-.28a10.743 10.743 0 0 1-1.084-1.634 13.703 13.703 0 0 1-1.332-3.678 11.243 11.243 0 0 1 .156-6.38 38.61 38.61 0 0 1-5.464.396 37.084 37.084 0 0 1-9.282-1.147c-.068 3.91.075 16.223 4.48 17.616a11.7 11.7 0 0 0 10.335-1.287 2.298 2.298 0 0 1-.015-.377 2.66 2.66 0 0 1 1.51-2.052zm-13.34-7.394a1.066 1.066 0 1 1 1.012-1.065 1.04 1.04 0 0 1-1.012 1.065zm-1.845-2.16a.09.09 0 0 1 0-.18h3.79a.09.09 0 0 1 0 .18zm4.185.142a.085.085 0 0 1 .114-.058.09.09 0 0 1 .058.113c-.018.056-1.761 5.551.049 7.286.675.647 1.779.692 3.282.137a.092.092 0 0 1 .116.053.09.09 0 0 1-.053.117 5.558 5.558 0 0 1-1.89.396 2.193 2.193 0 0 1-1.58-.572c-1.892-1.814-.17-7.242-.095-7.472zm4.666 10.203-3.629.195h-.004a.09.09 0 0 1-.005-.18l3.629-.195h.004a.09.09 0 0 1 .005.18zm.793-8.185a1.066 1.066 0 1 1 1.012-1.065 1.04 1.04 0 0 1-1.012 1.065zm2.061-2.16H47.3a.09.09 0 1 1 0-.18h3.79a.09.09 0 0 1 0 .18z"/><path class="cls-9" d="M63.696 53.015a7.706 7.706 0 0 0 .148-2.284 10.181 10.181 0 0 0-.802-3.297 19.682 19.682 0 0 0-1.502-2.675c-.316-.5-.642-1.016-.936-1.542a9.315 9.315 0 0 1-.852-5.274 37.324 37.324 0 0 1-6.545 1.592 10.96 10.96 0 0 0-.181 6.37 13.52 13.52 0 0 0 1.315 3.629 10.563 10.563 0 0 0 1.066 1.606c.077.095.154.187.231.278a4.207 4.207 0 0 1 .823 1.252c.004.008-.001.017 0 .025l.007.004a1.333 1.333 0 0 1-1.129 2.413.09.09 0 0 1 .045-.175 1.154 1.154 0 0 0 .99-2.084 1.825 1.825 0 0 0-1.726.02 2.478 2.478 0 0 0-1.409 1.908 2.537 2.537 0 0 0 .936 2.127 3.446 3.446 0 0 0 .927.546 1.442 1.442 0 0 1 1.683-.049 2.154 2.154 0 0 1 .51.449h.097a6.67 6.67 0 0 0 3.48-.946 6.315 6.315 0 0 0 2.824-3.893z"/><path class="cls-1" d="m77.745 40.028-.007-.002v.018a.082.082 0 0 1 .007-.016z"/><path class="cls-3" d="M76.27 36.255a19.208 19.208 0 0 1 .07 3.116 4.455 4.455 0 0 1-.154 1.025c.012.005.025.007.034.018a1.929 1.929 0 0 0 .59.573.488.488 0 0 0 .63-.125 1.202 1.202 0 0 0 .118-.651l-.007-2.28a6.064 6.064 0 0 0-.321-2.371 2.071 2.071 0 0 0-.124-.24c-.008-.007-.02-.01-.025-.02-.003-.006 0-.013-.002-.019a1.39 1.39 0 0 0-1.304-.754 2.177 2.177 0 0 1 .165.281 4.711 4.711 0 0 1 .33 1.447z"/><path class="cls-10" d="M37.82 32.792a3.31 3.31 0 0 0 2.474 1.48h.011a3.901 3.901 0 0 0 2.77-1.656 3.005 3.005 0 0 1-.914-1.1c-.549-1.064-.527-2.25.048-2.644.418-.287 1.021-.102 1.551.476.433-.53.95-.73 1.356-.521.623.315.8 1.489.396 2.615a3.078 3.078 0 0 1-.627 1.067l.093.066a5.86 5.86 0 0 0 3.939 1.88c.088 0 .176-.003.265-.008a5.574 5.574 0 0 0 3.69-2.153 2.869 2.869 0 0 1-.993-1.146c-.56-1.083-.538-2.245.047-2.645.419-.285 1.02-.102 1.551.477a2.136 2.136 0 0 1 .31-.307 32.926 32.926 0 0 0-4.864-.93c-.162-.018-.327-.021-.486-.026-7.623 0-10.011 3.841-10.034 3.88-.005.009-.016.007-.023.013a1.807 1.807 0 0 1-.56 1.182z"/><path class="cls-3" d="M74.245 35.754a8.297 8.297 0 0 1 .067 3.917 3.387 3.387 0 0 1-.149.485c.104.3.414 1.05.96 1.067h.019a.98.98 0 0 0 .781-.632 3.517 3.517 0 0 0 .237-1.231 19.03 19.03 0 0 0-.07-3.086 4.465 4.465 0 0 0-.314-1.392 2.018 2.018 0 0 0-.192-.327.085.085 0 0 1-.071-.054.086.086 0 0 1 .001-.037 1.929 1.929 0 0 0-.982-.664 1.608 1.608 0 0 0-1.331.182 1.952 1.952 0 0 1 .296.246 3.478 3.478 0 0 1 .748 1.526zm3.487 2.176.006 1.948c.01-.006.018-.016.03-.017a.663.663 0 0 0 .425-.24 2.066 2.066 0 0 0 .335-1.119A8.21 8.21 0 0 0 78.4 36.3a1.918 1.918 0 0 0-.23-.675.75.75 0 0 0-.867-.317c.032.06.067.119.093.18a6.211 6.211 0 0 1 .336 2.444z"/><path class="cls-1" d="M69.76 48.172a2.161 2.161 0 0 0 1.851.219c.94-.376 1.625-1.536 2.04-3.449.005-.022.03-.022.048-.035a9.15 9.15 0 0 1-3.645-.68c-.03.436-.138 1.9-.333 3.938a.085.085 0 0 1 .04.007z"/><path class="cls-3" d="m71.603 37.182-.443-1.163a.091.091 0 0 1 .053-.117.093.093 0 0 1 .117.053l.514 1.35a2.965 2.965 0 0 1 .914.625 1.401 1.401 0 0 1 .358 1.201 1.071 1.071 0 0 1-.514.685c.074.14.148.28.234.427a.994.994 0 0 0 .35.4.532.532 0 0 0 .62-.208 1.297 1.297 0 0 0 .17-.313.08.08 0 0 1 .031-.058 3.262 3.262 0 0 0 .128-.434 8.12 8.12 0 0 0-.065-3.83 3.303 3.303 0 0 0-.707-1.448 1.853 1.853 0 0 0-1.585-.556 2.282 2.282 0 0 0-1.848 2.574l-.002.006a4.675 4.675 0 0 1 .52.226z"/><path class="cls-5" d="M67.425 49.58c.234.016.927.055 1.45.083v-6.707a81.919 81.919 0 0 1-.353-.312 2.934 2.934 0 0 1-.8-1.108 4.58 4.58 0 0 1 0-2.672 13.738 13.738 0 0 1 .408-1.366 2 2 0 0 1 .714-1.095c.01-.006.02-.008.03-.014v-9.337c-.522.028-1.215.067-1.448.083l-1.873 11.223z"/><path class="cls-10" d="M55.229 31.073a3.038 3.038 0 0 1-.725 1.17c.872 1.167 1.76 1.718 2.643 1.67a3.514 3.514 0 0 0 2.355-1.773 6.494 6.494 0 0 1-.57-.995c-.005-.003-.011-.002-.016-.006a10.393 10.393 0 0 0-3.56-1.966 3.162 3.162 0 0 1-.127 1.9z"/><path class="cls-5" d="M83.649 37.002a1.83 1.83 0 0 0-1.662 1.957 2.194 2.194 0 0 0 .267 1.054.086.086 0 0 1 .023.047 1.61 1.61 0 0 0 1.372.855 1.982 1.982 0 0 0 0-3.913z"/><path class="cls-11" d="M75.45 77.358H60.069a8.992 8.992 0 0 0-5.614-5.822 28.199 28.199 0 0 0 5.596-2.79 22.21 22.21 0 0 0 1.105-.778 19.607 19.607 0 0 0 3.467-3.268c.28-.353.561-.724.815-1.105a15.298 15.298 0 0 0 .905-1.43 4.073 4.073 0 0 0 .208-.453 19.072 19.072 0 0 1 8.9 15.645z"/><path class="cls-12" d="M82.046 37.928h-3.312c-.008 0-.013-.007-.02-.009 0 .2.01.398-.006.598a2.219 2.219 0 0 1-.374 1.218.841.841 0 0 1-.386.254h4.098a2.347 2.347 0 0 1 0-2.061z"/><path class="cls-3" d="M77.739 40.115v.096a1.337 1.337 0 0 1-.15.751.608.608 0 0 1-.52.266.766.766 0 0 1-.34-.078 1.916 1.916 0 0 1-.61-.572c-.012.03-.019.06-.032.09a1.132 1.132 0 0 1-.947.737l-.023-.001c-.572-.017-.907-.627-1.07-1.04a1.302 1.302 0 0 1-.101.184.79.79 0 0 1-.598.314.55.55 0 0 1-.245-.056 1.134 1.134 0 0 1-.423-.47 9.481 9.481 0 0 1-.236-.431 1.15 1.15 0 0 1-.258.077 2.203 2.203 0 0 1-1.172-.228 2.065 2.065 0 0 1-1.032-.789.09.09 0 0 1 .032-.123.088.088 0 0 1 .124.031 1.914 1.914 0 0 0 .946.715 2.066 2.066 0 0 0 1.074.216.972.972 0 0 0 .233-.07.087.087 0 0 1 .04-.046.082.082 0 0 1 .046-.004.9.9 0 0 0 .461-.591 1.226 1.226 0 0 0-.316-1.042 2.867 2.867 0 0 0-.893-.602l-1.363-.683a1.599 1.599 0 0 0-1.367-.227.084.084 0 0 1-.035.014l-.004-.001c-.008.004-.016.003-.024.008a1.853 1.853 0 0 0-.638 1 13.568 13.568 0 0 0-.4 1.347 4.407 4.407 0 0 0-.008 2.562 2.753 2.753 0 0 0 .752 1.04l.364.32a.078.078 0 0 1 .03.027c.538.472 1.388 1.211 1.51 1.283a.088.088 0 0 1 .033.104 11.33 11.33 0 0 0 6.114.17.088.088 0 0 1 .025-.062 6.516 6.516 0 0 0 1.382-4.182h-.286a.084.084 0 0 1-.075-.054z"/><path class="cls-11" d="M77.185 49.023c-.181 5.912-.715 16.207-2.191 23.821a18.62 18.62 0 0 0-2.409-5.396 19.466 19.466 0 0 0-1.466-1.964 20.359 20.359 0 0 0-3.405-3.206 139.501 139.501 0 0 0 1.992-13.925 2.284 2.284 0 0 0 1.974.208 2.553 2.553 0 0 0 1.14-.969 6.695 6.695 0 0 0 .88-2.082 5.398 5.398 0 0 0 .932 2.417 2.709 2.709 0 0 0 .371.417 2.74 2.74 0 0 0 1.91.706c.081 0 .163-.009.253-.009.01 0 .01-.009.02-.018z"/><path class="cls-5" d="M74.632 47.927a118.4 118.4 0 0 1-2.047 19.521 19.466 19.466 0 0 0-1.466-1.964 125.96 125.96 0 0 0 1.702-17.892 6.695 6.695 0 0 0 .878-2.082 5.398 5.398 0 0 0 .933 2.417z"/><path class="cls-1" d="M51.496 71.207a8.79 8.79 0 1 0 8.79 8.79 8.8 8.8 0 0 0-8.79-8.79zm5.092 9.82-5.092 5.093-4.768-4.768-.324-.324a3.372 3.372 0 0 1 4.768-4.77l.324.324.324-.323a3.372 3.372 0 0 1 4.768 4.769zM73.83 44.959a5.232 5.232 0 0 0 1.298 3.25 2.635 2.635 0 0 0 2.023.649h.006a.086.086 0 0 1 .034.013c.073-2.346.09-3.969.094-4.406a14.282 14.282 0 0 1-3.477.44.087.087 0 0 1 .022.054z"/><path class="cls-11" d="M45.654 73.21a8.98 8.98 0 0 0-2.735 4.148H27.835c-1.032-8.276 4.156-12.44 4.21-12.477a.145.145 0 0 0 .036-.064 10.675 10.675 0 0 0 2.608 2.79c.335.27.706.542 1.095.805a34.17 34.17 0 0 0 4.627 2.599c.398.19.806.38 1.231.56q1.834.816 3.984 1.63a.034.034 0 0 1 .028.01z"/><path class="cls-5" d="M71.929 77.358H70.56A21.66 21.66 0 0 0 64.62 64.7c.282-.353.562-.724.816-1.105a23.102 23.102 0 0 1 6.492 13.763zm-7.199 0h-1.367a21.108 21.108 0 0 0-3.313-8.611 22.21 22.21 0 0 0 1.105-.779 22.345 22.345 0 0 1 3.576 9.39zm-28.946-8.946a20.761 20.761 0 0 0-3.087 8.945h-1.35a22.126 22.126 0 0 1 3.342-9.75c.335.27.706.542 1.095.805zm5.858 3.16a20.256 20.256 0 0 0-1.738 5.785h-1.367a21.64 21.64 0 0 1 1.874-6.346c.398.19.806.38 1.231.56z"/><path class="cls-1" d="M45.69 73.032a.087.087 0 0 1 .052.093 8.944 8.944 0 0 1 8.458-1.68l.003-.002c3.88-1.414 9.11-4.185 11.977-9.365a4.446 4.446 0 0 0-.212-4.532 8.946 8.946 0 0 0-2.876-2.62 6.488 6.488 0 0 1-2.126 2.136 6.838 6.838 0 0 1-3.527.972 2.215 2.215 0 0 1 .334.737 2.78 2.78 0 0 1-.867 2.587 4.503 4.503 0 0 1-2.268.989 32.661 32.661 0 0 1-7.234 7.34.086.086 0 0 1-.052.017.09.09 0 0 1-.055-.018c-.048-.036-4.72-3.586-6.409-7.051a3.86 3.86 0 0 1-.752.08 3.24 3.24 0 0 1-.651-.064 3.088 3.088 0 0 1-2.377-3.136 2.63 2.63 0 0 1 .3-1.015c-.007-.004-.015-.004-.021-.01a6.392 6.392 0 0 1-1.256-1.8c-.414.2-4.761 2.386-4.64 5.76.127 3.525 4.904 7.086 14.198 10.582z"/><path class="cls-9" d="m38.882 57.329.002-.002c.013-.003 1.335-.407 1.6-2.65.002-.013.012-.02.018-.03-2.4-4.024-2.48-12.745-2.422-15.882l-.3-.084a18.465 18.465 0 0 1-.321 6.363c-.094.292-.21.628-.337.999-1.065 3.094-3.045 8.846.374 12.298a2.118 2.118 0 0 1 1.386-1.012z"/><path class="cls-5" d="m60.138 37.628.363-7.37c-.139-.338-.568-1.168-1.012-1.24a.518.518 0 0 0-.463.226c-.769.904.642 2.818.657 2.837a.09.09 0 0 1 .007.097c-.041.075-1.005 1.814-2.532 1.915a1.816 1.816 0 0 1-.138.005 3.6 3.6 0 0 1-2.71-1.813.091.091 0 0 1 .013-.122 2.795 2.795 0 0 0 .736-1.151 2.833 2.833 0 0 0 .065-1.942.083.083 0 0 1-.027-.068.816.816 0 0 0-.346-.384c-.348-.174-.806.036-1.197.557a.091.091 0 0 1-.07.037h-.003a.091.091 0 0 1-.069-.032c-.474-.558-1.032-.767-1.383-.527-.503.344-.499 1.425.01 2.412a2.633 2.633 0 0 0 1.014 1.124.09.09 0 0 1 .028.136 5.814 5.814 0 0 1-3.888 2.302 5.816 5.816 0 0 1-4.329-1.912l-.17-.119a.091.091 0 0 1-.012-.138 2.862 2.862 0 0 0 .66-1.077c.374-1.044.237-2.116-.307-2.393-.348-.175-.808.036-1.198.556a.141.141 0 0 1-.072.036.091.091 0 0 1-.07-.031c-.482-.566-1.027-.771-1.383-.527-.503.344-.498 1.426.01 2.412a2.738 2.738 0 0 0 .933 1.085.087.087 0 0 1 .043.06.092.092 0 0 1-.019.073 4.143 4.143 0 0 1-2.973 1.801h-.013a3.54 3.54 0 0 1-2.68-1.629.09.09 0 0 1 .04-.14c.006-.002.749-.343.597-2.496-.045-.627-.224-1.018-.533-1.161-.474-.221-1.13.186-1.298.3l.3 3.833.217 5.073c.104.036.349.117.716.225.006-.002.01-.008.016-.009h.009a.087.087 0 0 1 .066.035 37.833 37.833 0 0 0 22.395-.856z"/><path class="cls-3" d="M49.029 43.189a1.066 1.066 0 1 0 1.012 1.064 1.04 1.04 0 0 0-1.012-1.064zm0 1.949a.886.886 0 1 1 .832-.885.86.86 0 0 1-.832.885zm-7.799-1.949a1.066 1.066 0 1 0 1.012 1.064 1.04 1.04 0 0 0-1.012-1.064zm0 1.949a.886.886 0 1 1 .832-.885.86.86 0 0 1-.832.885z"/><path class="cls-3" d="M47.3 43.257a.19.19 0 0 1 0-.379h3.79a.19.19 0 0 1 0 .379z"/><path class="cls-3" d="M47.3 43.239a.172.172 0 0 1 0-.343h3.79a.172.172 0 0 1 0 .343z"/><path class="cls-3" d="M51.09 42.977H47.3a.09.09 0 1 0 0 .18h3.79a.09.09 0 0 0 0-.18zm-11.705.28a.19.19 0 1 1 0-.379h3.79a.19.19 0 1 1 0 .379z"/><path class="cls-3" d="M39.385 43.239a.172.172 0 1 1 0-.343h3.79a.172.172 0 1 1 0 .343z"/><path class="cls-3" d="M43.265 43.068a.09.09 0 0 0-.09-.09h-3.79a.09.09 0 0 0 0 .18h3.79a.09.09 0 0 0 .09-.09z"/><path class="cls-2" d="m51.82 76.259-.324.323-.323-.323a3.372 3.372 0 0 0-4.769 4.769l.324.324 4.768 4.768 5.092-5.092a3.372 3.372 0 0 0-4.768-4.77z"/><circle class="cls-13" cx="39.067" cy="36.515" r="1.052"/><circle class="cls-13" cx="48.355" cy="36.865" r="1.052"/><circle class="cls-13" cx="57.555" cy="35.902" r="1.052"/><path d="M83.65 36.722a1.702 1.702 0 0 0-1.516.926l-3.31.027h-.01a8.186 8.186 0 0 0-.138-1.43 2.208 2.208 0 0 0-.271-.775 1.042 1.042 0 0 0-.874-.48.656.656 0 0 0-.276.052 1.71 1.71 0 0 0-1.333-.807c-.086 0-.2.008-.175.068a2.205 2.205 0 0 0-1.14-.773 2.074 2.074 0 0 0-.554-.077 1.632 1.632 0 0 0-.998.32 2.18 2.18 0 0 0-1.051-.272 2.016 2.016 0 0 0-.262.016 2.493 2.493 0 0 0-2.055 2.467c-.004.074-.018.137-.018.215a1.519 1.519 0 0 0-.309-.033.431.431 0 0 0-.187.036l-.019.002v-9.248a.35.35 0 0 0-.06-.138c-.04-.038-.094-.047-.21-.047h-.012c-.945.051-1.338.072-1.584.113a.155.155 0 0 0-.136.187L65.8 35.265l-5.023-.001-.242-.001.235-5.092c-.054-.134-.547-1.318-1.235-1.43a2.535 2.535 0 0 0-.102-.007.808.808 0 0 0-.62.328 1.347 1.347 0 0 0-.248 1.16 2.68 2.68 0 0 0 .063.326 10.932 10.932 0 0 0-3.275-1.649 1.096 1.096 0 0 0-.475-.53.777.777 0 0 0-.36-.085.94.94 0 0 0-.518.154 33.204 33.204 0 0 0-5.047-.974 5.614 5.614 0 0 0-.516-.026c-5.216 0-8.032 1.77-9.323 2.975a7.134 7.134 0 0 0-.572.578 7.163 7.163 0 0 0-.013-.822c-.052-.74-.286-1.209-.694-1.398a1.025 1.025 0 0 0-.427-.088 2.338 2.338 0 0 0-1.196.446.342.342 0 0 0-.076.168l.304 3.878.22 5.128a.186.186 0 0 0 .12.172c.015.006.272.097.72.218a18.32 18.32 0 0 1-.31 6.266c-.092.29-.206.624-.334.994-.907 2.634-2.423 7.042-.916 10.517-.811.406-4.85 2.605-4.73 5.988a4.871 4.871 0 0 0 .662 2.2c-.052.04-5.053 4.019-4.359 12.004.017.2.021.393.046.6H26.7a.19.19 0 0 0-.19.189v5.088a.19.19 0 0 0 .19.19l16.142-.013a9.06 9.06 0 0 0 17.287.013h16.16a.19.19 0 0 0 .19-.19V77.45a.19.19 0 0 0-.19-.19l-.557.018a18.262 18.262 0 0 0-.536-4.013c2.253-11.217 2.368-28.738 2.369-28.913a.183.183 0 0 0-.072-.153.551.551 0 0 0-.163-.035l-.084.038-.057.013a7.154 7.154 0 0 0 1.168-3.948l3.69-.048a1.883 1.883 0 0 0 1.601.974 2.258 2.258 0 0 0 0-4.47zm1.562 2.237a1.73 1.73 0 0 1-1.563 1.856 1.53 1.53 0 0 1-1.308-.85 2.09 2.09 0 0 1-.254-1.006 1.586 1.586 0 1 1 3.125 0zm-5.312.948h-1.6a.816.816 0 0 0 .112-.11 2.304 2.304 0 0 0 .395-1.273c.01-.14.01-.281.007-.42v-.078l2.206-.017h.88a2.462 2.462 0 0 0-.192.95 2.065 2.065 0 0 0 .169.813c.014.04.02.08.036.118zm-2.064-.145-.005-1.835a6.274 6.274 0 0 0-.343-2.48l-.048-.056-.007-.014a.594.594 0 0 1 .1-.008.663.663 0 0 1 .554.308 1.877 1.877 0 0 1 .216.641 8.114 8.114 0 0 1 .126 2.176 1.98 1.98 0 0 1-.313 1.064.783.783 0 0 1-.18.139.62.62 0 0 1-.1.065zm.16.488a6.476 6.476 0 0 1-1.366 4.074 14.01 14.01 0 0 1-2.866.312 9.916 9.916 0 0 1-3.083-.452.184.184 0 0 0-.086-.13c-.103-.062-.886-.739-1.523-1.299l-.363-.32a2.656 2.656 0 0 1-.726-1.003 4.312 4.312 0 0 1 .013-2.502 13.299 13.299 0 0 1 .397-1.337 1.657 1.657 0 0 1 .652-.965.736.736 0 0 1 .334-.074 2.278 2.278 0 0 1 .944.3l1.369.687a2.783 2.783 0 0 1 .859.577 1.125 1.125 0 0 1 .291.953.718.718 0 0 1-.058.154.8.8 0 0 1-.04.077.832.832 0 0 1-.297.283l.01.016-.104.04a.851.851 0 0 1-.209.064 1.07 1.07 0 0 1-.16.012 2.294 2.294 0 0 1-.86-.221 1.823 1.823 0 0 1-.898-.672.189.189 0 0 0-.165-.096.355.355 0 0 0-.096.028.19.19 0 0 0-.089.117.354.354 0 0 0 .022.143 2.157 2.157 0 0 0 1.078.83 2.636 2.636 0 0 0 1.007.25 1.43 1.43 0 0 0 .22-.016.44.44 0 0 0 .187-.066c.064.123.13.244.205.372a1.214 1.214 0 0 0 .465.509.639.639 0 0 0 .29.065.77.77 0 0 0 .488-.219.954.954 0 0 0 .173-.142l.018-.027c.279.605.653.918 1.112.931a1.107 1.107 0 0 0 .909-.617c.028-.044.06-.083.083-.13a1.751 1.751 0 0 0 .552.483.873.873 0 0 0 .384.088.701.701 0 0 0 .602-.31 1.165 1.165 0 0 0 .149-.75l.166-.017zm-3.01 32.2a18.99 18.99 0 0 0-7.173-10.15 138.502 138.502 0 0 0 1.974-13.79 2.568 2.568 0 0 0 1.145.29 2.118 2.118 0 0 0 .782-.149 3.266 3.266 0 0 0 1.663-1.953 7.769 7.769 0 0 0 .294-.79 4.629 4.629 0 0 0 1.267 2.508 2.85 2.85 0 0 0 1.975.73.402.402 0 0 0 .155-.025h.015c-.138 4.35-.49 11.784-1.345 18.504a87.4 87.4 0 0 1-.752 4.826zm-4.12-6.886c.173.203.348.407.52.626.133.168.262.35.393.527.111.152.224.297.333.456.163.236.32.49.478.742.075.12.153.234.227.358.167.283.325.584.483.887.058.112.12.216.177.33.152.308.292.635.43.963.054.125.113.242.164.37.123.31.23.638.339.964.054.163.117.318.168.485.088.29.157.6.232.903.054.22.119.43.166.656.058.28.095.577.141.867.048.298.102.591.137.901.06.538.102 1.09.117 1.662l-15.224.013a9.363 9.363 0 0 0-5.433-5.725c3.784-1.437 8.881-4.222 11.713-9.334.063-.117.117-.237.17-.36a18.68 18.68 0 0 1 4.066 3.469c.067.076.135.161.202.24zm-33.633-19.54c.121-.35.23-.67.321-.95a11.884 11.884 0 0 0 .44-3.11 54.079 54.079 0 0 0 .534 6.541 7.94 7.94 0 0 1-.43 2.105 7.83 7.83 0 0 0-.45 2.362 5.65 5.65 0 0 0 1.441 4.145 1.466 1.466 0 0 1-.224.113 2.067 2.067 0 0 0-1.31.89c-.02.027-.042.049-.06.076-3.276-3.418-1.316-9.113-.262-12.173zm4.84-14.463a2.905 2.905 0 0 0 .87 1.059 3.771 3.771 0 0 1-2.649 1.552 3.209 3.209 0 0 1-2.337-1.345l-.01-.011a2.081 2.081 0 0 0 .542-1.168 7.886 7.886 0 0 1 3.408-2.588 2.743 2.743 0 0 0 .176 2.501zm-4.454 1.03a.192.192 0 0 0-.117.129.376.376 0 0 0 .033.166 3.642 3.642 0 0 0 2.77 1.666 4.237 4.237 0 0 0 3.053-1.838.2.2 0 0 0 .038-.153.351.351 0 0 0-.089-.128 2.64 2.64 0 0 1-.896-1.045c-.478-.928-.498-1.974-.043-2.285a.483.483 0 0 1 .28-.084 1.437 1.437 0 0 1 .972.594.195.195 0 0 0 .168.06h.01a.422.422 0 0 0 .118-.07 1.217 1.217 0 0 1 .86-.577.478.478 0 0 1 .214.05c.5.255.615 1.274.258 2.272a2.762 2.762 0 0 1-.636 1.04.186.186 0 0 0-.056.148.342.342 0 0 0 .08.143l.16.109a6.099 6.099 0 0 0 4.11 1.95c.1 0 .197-.004.294-.011a5.908 5.908 0 0 0 3.958-2.338.189.189 0 0 0 .038-.157.338.338 0 0 0-.096-.13 2.539 2.539 0 0 1-.972-1.082c-.478-.926-.497-1.973-.042-2.284a.474.474 0 0 1 .275-.082 1.446 1.446 0 0 1 .977.592.196.196 0 0 0 .15.065.336.336 0 0 0 .146-.076 1.217 1.217 0 0 1 .86-.577.478.478 0 0 1 .212.05.785.785 0 0 1 .291.288.621.621 0 0 0 .035.114 2.735 2.735 0 0 1-.067 1.869 2.693 2.693 0 0 1-.707 1.11.189.189 0 0 0-.03.256 3.689 3.689 0 0 0 2.792 1.852c.049 0 .098 0 .144-.004 1.578-.105 2.572-1.89 2.613-1.967a.19.19 0 0 0-.015-.204c-.056-.077-1.368-1.881-.66-2.713a.457.457 0 0 1 .371-.192c.344.056.744.715.93 1.137l-.35 7.3a36.95 36.95 0 0 1-1.914.611l-.131-.067a3.99 3.99 0 0 0-.053.119 37.614 37.614 0 0 1-10.416 1.463 37.124 37.124 0 0 1-9.72-1.26.338.338 0 0 0-.142-.069h-.009c-.007 0 .015.006.012.012-.314-.092-.537-.164-.648-.19l-.214-5.02-.343-3.742a1.916 1.916 0 0 1 .93-.349.627.627 0 0 1 .27.057c.274.126.435.489.476 1.077.141 1.997-.507 2.38-.532 2.395zm21.795-.501h.002a3.403 3.403 0 0 1-2.274 1.723l-.102.003a3.28 3.28 0 0 1-2.415-1.553 3.211 3.211 0 0 0 .698-1.156 3.383 3.383 0 0 0 .175-1.776 10.37 10.37 0 0 1 3.344 1.856 2.649 2.649 0 0 0 .569.903zM37.98 38.827c-.006.332-.01.712-.011 1.13a29.88 29.88 0 0 0-.078-1.143zm29.251 10.952a.058.058 0 0 0 .021-.009.11.11 0 0 0 .11.074c.18.028.552.049 1.603.103a.186.186 0 0 0 .13-.05.337.337 0 0 0 .06-.138l-.019-3.9v-2.542c.221.193.458.395.67.555l.064.055a.352.352 0 0 0-.087.146c-.006.086-.51 7.751-1.76 15.143a92.607 92.607 0 0 1-.519 2.789 6.887 6.887 0 0 0-.774-.496 4.787 4.787 0 0 0-.53-4.124 8.915 8.915 0 0 0-2.885-2.634 6.305 6.305 0 0 0 .656-1.673 8.035 8.035 0 0 0 .153-2.367 10.47 10.47 0 0 0-.824-3.389 20.074 20.074 0 0 0-1.545-2.748 35.078 35.078 0 0 1-.907-1.494 7.101 7.101 0 0 1-.708-2.097l5.564-.015 1.439 8.69a.09.09 0 0 0 .035.075c.014.027.032.046.053.046zm-9.433-11.14c-.426 1.289-1.117 4.74 1.893 8.59 1.932 2.47 2.743 4.987 2.284 7.084a4.307 4.307 0 0 1-2.225 2.983l.014.026a7.078 7.078 0 0 1-1.668.405c-.093.01-.187.013-.28.019a4.711 4.711 0 0 0 1.7-2.823c.336-1.526.248-3.956-2.082-6.868-3.587-4.483-2.056-8.668-1.994-8.831.792-.17 1.58-.362 2.358-.585zm-3.161 19.398a3.207 3.207 0 0 1-3.473-1.562 11.05 11.05 0 0 0 1.293-.648c.185-.106.37-.214.551-.331a2.967 2.967 0 0 0 .986 1.627 2.863 2.863 0 0 0 .775.462c.02.01.038.022.059.032a1.479 1.479 0 0 0-.19.433zm-3.807-1.42a3.552 3.552 0 0 0 3.166 1.833 4.616 4.616 0 0 0 .6-.047 1.521 1.521 0 0 0-.016.232 1.092 1.092 0 0 0 .46.837.19.19 0 0 0 .104.031.348.348 0 0 0 .16-.086.192.192 0 0 0 .027-.143.364.364 0 0 0-.084-.12.742.742 0 0 1-.288-.559 1.12 1.12 0 0 1 .27-.883.96.96 0 0 1 .692-.277 1.412 1.412 0 0 1 .719.21 1.95 1.95 0 0 1 .86 1.191 2.186 2.186 0 0 1-.051 1.086 6.516 6.516 0 0 1-5.114.697 7.484 7.484 0 0 1-3.905-3.375 11.129 11.129 0 0 0 2.4-.627zM40.54 57.99a1.418 1.418 0 0 0-.795-.641 1.663 1.663 0 0 0-.215-.072 2.863 2.863 0 0 0 .75-.972 4.69 4.69 0 0 0 .097-.211c.038-.09.076-.177.11-.279a4.908 4.908 0 0 0 .19-.716 4.25 4.25 0 0 0 1.503 1.393 3.714 3.714 0 0 1-1.64 1.498zm6.148-.62a12.145 12.145 0 0 0 1.353-.082 7.8 7.8 0 0 0 4.181 3.674 5.792 5.792 0 0 0 1.775.276 7.575 7.575 0 0 0 3.253-.823 2.554 2.554 0 0 1-.532.734 4.275 4.275 0 0 1-2.168.928 8.244 8.244 0 0 1-1.472.146 4.689 4.689 0 0 1-2.108-.449 8.724 8.724 0 0 1-1.177-.75 8.678 8.678 0 0 0-1.198-.762 4.225 4.225 0 0 0-1.866-.436 4.13 4.13 0 0 0-1.48.272 9.137 9.137 0 0 0-1.725.98c-.158.106-.315.21-.474.312a6.7 6.7 0 0 1-2.18.959 3.728 3.728 0 0 1-.755.082 2.995 2.995 0 0 1-.573-.055 2.708 2.708 0 0 1-1.36-.786c5.716-.206 7.398-3.585 7.67-4.25.268.019.547.03.836.03zm-5.493 5.286a7.26 7.26 0 0 0 2.059-.945c.137-.087.513-.337.513-.337a8.616 8.616 0 0 1 1.619-.92 3.754 3.754 0 0 1 1.344-.247 3.848 3.848 0 0 1 1.697.397 8.944 8.944 0 0 1 1.178.753 8.79 8.79 0 0 0 1.197.759 5.037 5.037 0 0 0 2.258.477 5.591 5.591 0 0 0 1-.092c.049-.006.09-.004.14-.011a20.22 20.22 0 0 1-.552.761.178.178 0 0 0-.083-.01 28.029 28.029 0 0 1-11.858.296l-.01-.016a10.532 10.532 0 0 1-.502-.865zm10.467 2.912c-.044.016-2.56.94-8.445-.083-.005-.001-.01.004-.015.003a18.122 18.122 0 0 1-1.211-1.529 30.29 30.29 0 0 0 5.199.443 24.822 24.822 0 0 0 6.136-.736c-.535.675-1.1 1.313-1.664 1.902zm-.497.508a37.92 37.92 0 0 1-3.798 3.308 33.76 33.76 0 0 1-3.787-3.477 29.765 29.765 0 0 0 4.704.428 13.74 13.74 0 0 0 2.881-.259zm5.987-17.795c2.24 2.8 2.33 5.115 2.01 6.564a4.15 4.15 0 0 1-1.861 2.8l.072.144h-.001a2.289 2.289 0 0 0-.533-.47 1.8 1.8 0 0 0-.912-.26.972.972 0 0 0-.786.303 3.346 3.346 0 0 1-.9-.53 2.44 2.44 0 0 1-.9-2.042 2.38 2.38 0 0 1 1.352-1.827 2.119 2.119 0 0 1 .9-.218 1.414 1.414 0 0 1 .731.192 1.18 1.18 0 0 1 .445 1.478 1.045 1.045 0 0 1-.951.477 2.06 2.06 0 0 1-.455-.057.19.19 0 0 0-.163.285.347.347 0 0 0 .116.088 1.99 1.99 0 0 0 .502.063 1.417 1.417 0 0 0 1.282-.667 1.544 1.544 0 0 0-.544-1.97 4.304 4.304 0 0 0-.848-1.29l-.222-.267a10.449 10.449 0 0 1-1.056-1.592 13.426 13.426 0 0 1-1.305-3.6 11.492 11.492 0 0 1 .1-6.252c.603-.09 1.206-.199 1.806-.32a9.859 9.859 0 0 0 2.121 8.968zm-4.29-8.617a11.512 11.512 0 0 0-.108 6.299 13.813 13.813 0 0 0 1.342 3.705 10.826 10.826 0 0 0 1.095 1.649l.234.282a8.946 8.946 0 0 1 .546.717c.024.04.053.078.075.12a1.978 1.978 0 0 0-.483-.062 2.395 2.395 0 0 0-1.035.248 2.76 2.76 0 0 0-1.567 2.132c-.004.04.017.066.02.102a.61.61 0 0 0 .026.141c.008.02 0 .044.011.062a11.067 11.067 0 0 1-6.333 1.932 11.265 11.265 0 0 1-3.915-.659c-4.317-1.364-4.469-13.625-4.412-17.392a37.045 37.045 0 0 0 9.185 1.118 35.36 35.36 0 0 0 4.387-.295c.311-.036.621-.055.933-.099zM38.94 57.602a1.204 1.204 0 0 1 .205-.017 1.224 1.224 0 0 1 1.139.718 1.205 1.205 0 0 1-.097 1.035.579.579 0 0 1-.432.306.19.19 0 0 0-.175.2.193.193 0 0 0 .202.178.931.931 0 0 0 .727-.484 1.588 1.588 0 0 0 .17-1.213 4.002 4.002 0 0 0 1.835-1.689c.043.016.084.041.128.055a11.763 11.763 0 0 0 2.833.613c-.361.806-2.094 3.848-7.585 3.938a2.584 2.584 0 0 1-.502-1.705 2.113 2.113 0 0 1 1.552-1.935zm20.696-19.533a9.375 9.375 0 0 0 .882 5.196c.294.528.621 1.047.953 1.57a19.436 19.436 0 0 1 1.479 2.637 10.073 10.073 0 0 1 .795 3.266 7.617 7.617 0 0 1-.146 2.254 6.215 6.215 0 0 1-2.329 3.524 4.843 4.843 0 0 0 1.059-2.125c.482-2.205-.354-4.828-2.354-7.386-3.13-4.005-2.115-7.542-1.752-8.489.221-.066.438-.14.657-.211.252-.08.506-.152.756-.236zm-19.25 16.596a3.238 3.238 0 0 1-1.122 2.33l.1-.111a5.397 5.397 0 0 1-1.354-3.911 7.42 7.42 0 0 1 .434-2.257c.102-.332.203-.671.285-1.024a15.823 15.823 0 0 0 1.657 4.974zm33.154-9.679c-.408 1.839-1.07 2.954-1.965 3.312a1.696 1.696 0 0 1-.632.12 2.683 2.683 0 0 1-1.118-.297c.174-1.83.278-3.19.318-3.747a9.047 9.047 0 0 0 3.164.601c.078.003.151.01.232.011zm-5.504-7.522a14.186 14.186 0 0 0-.411 1.376 4.692 4.692 0 0 0 .004 2.733 3.014 3.014 0 0 0 .824 1.14 2.368 2.368 0 0 0 .323.242l.018 6.3v.304a39.246 39.246 0 0 0-1.28-.059L65.65 38.373l1.846-11.143c.258-.016.816-.048 1.279-.072l.016 9.16a2.083 2.083 0 0 0-.756 1.146zM37.01 59.507a3.19 3.19 0 0 0 2.456 3.24 3.338 3.338 0 0 0 .672.067 2.899 2.899 0 0 0 .69-.08c1.709 3.444 6.364 6.996 6.411 7.031a.192.192 0 0 0 .114.037.388.388 0 0 0 .109-.034 32.134 32.134 0 0 0 7.196-7.324 4.613 4.613 0 0 0 2.317-1.014 2.886 2.886 0 0 0 .896-2.684 1.648 1.648 0 0 0-.261-.58c-.007-.012-.009-.025-.016-.037a6.938 6.938 0 0 0 3.426-.982 6.316 6.316 0 0 0 2.092-2.096 8.834 8.834 0 0 1 2.776 2.55 4.342 4.342 0 0 1 .205 4.428c-2.827 5.11-8.023 7.888-11.87 9.318a9.035 9.035 0 0 0-2.726-.42 9.459 9.459 0 0 0-5.772 2.012c-9.252-3.48-14.007-7.011-14.134-10.494-.112-3.137 3.685-5.216 4.495-5.622a5.916 5.916 0 0 0 1.21 1.683 2.67 2.67 0 0 0-.286 1zm6.195 12.818a76.31 76.31 0 0 0 2.275.9 8.926 8.926 0 0 0-2.617 4.036l-14.938.016c-.949-7.862 3.774-11.98 4.143-12.287 1.559 2.473 5.306 4.944 11.137 7.335zm8.292-1.019a8.69 8.69 0 1 1-8.69 8.69 8.7 8.7 0 0 1 8.69-8.69zm25.861-30.5a.338.338 0 0 1-.287.143.495.495 0 0 1-.215-.051 2.22 2.22 0 0 1-.562-.511 4.666 4.666 0 0 0 .146-1.011 19.285 19.285 0 0 0-.07-3.132 4.796 4.796 0 0 0-.337-1.477 1.319 1.319 0 0 0-.083-.153 1.43 1.43 0 0 1 1.071.757 1.789 1.789 0 0 1 .119.229 5.978 5.978 0 0 1 .314 2.33l.007 2.28a1.138 1.138 0 0 1-.103.597zm-3.32-1.2c-.031.138-.07.284-.095.382a.586.586 0 0 0-.058.095 1.194 1.194 0 0 1-.156.288.526.526 0 0 1-.375.213.27.27 0 0 1-.122-.03.914.914 0 0 1-.308-.361c-.072-.122-.135-.24-.203-.333a1.163 1.163 0 0 0 .494-.708 1.495 1.495 0 0 0-.381-1.289 2.35 2.35 0 0 0-.896-.594l-.514-1.351a.191.191 0 0 0-.18-.12l-.065.011a.192.192 0 0 0-.107.101.344.344 0 0 0-.004.144l.228.546.148.39-.95-.477a1.173 1.173 0 0 0-.431-.152.192.192 0 0 0-.033.003 2.184 2.184 0 0 1 1.762-2.47 1.814 1.814 0 0 1 .23-.015 1.744 1.744 0 0 1 1.27.54 3.21 3.21 0 0 1 .683 1.405 8.01 8.01 0 0 1 .064 3.783zm1.465-4.993a1.845 1.845 0 0 1 .183.31 4.363 4.363 0 0 1 .305 1.362 18.828 18.828 0 0 1 .07 3.069 3.462 3.462 0 0 1-.227 1.195.889.889 0 0 1-.706.575c-.472-.015-.758-.683-.87-.932a3.693 3.693 0 0 0 .152-.499 8.41 8.41 0 0 0-.067-3.965 3.575 3.575 0 0 0-.773-1.568.628.628 0 0 0-.158-.116c-.017-.013-.031-.028-.047-.041a1.478 1.478 0 0 1 .69-.172 1.632 1.632 0 0 1 .45.065 1.688 1.688 0 0 1 .917.641l.015-.01zm-9.777 1.013-.451 2.762.336 1.906.052.31-5.59.015a11.899 11.899 0 0 1-.1-2.644l.315-.103a.187.187 0 0 0 .128-.17l.103-2.08h4.548zM53.6 28.706a.442.442 0 0 0-.106.133l-.005.006a2.775 2.775 0 0 0-.231-.21c.075.018.149.028.223.04.04.01.08.02.12.032zm-1.558-.372a.864.864 0 0 0-.17.087c-.627.428-.662 1.645-.08 2.772a2.806 2.806 0 0 0 .945 1.108 5.47 5.47 0 0 1-3.56 2.046 4.228 4.228 0 0 1-.26.01 5.802 5.802 0 0 1-3.773-1.745c-.04-.035-.079-.067-.118-.104l-.004-.002a3.263 3.263 0 0 0 .584-1.03c.422-1.173.223-2.4-.444-2.738a.838.838 0 0 0-.383-.092 1.348 1.348 0 0 0-.997.556l-.012.012a1.604 1.604 0 0 0-.865-.51c-.018-.004-.037-.017-.055-.02a17.119 17.119 0 0 1 5.639-.864c.14.003.283.007.424.023a41.8 41.8 0 0 1 2.32.33c.26.049.528.101.81.16zm25.144 16.259c-.007.566-.026 2.077-.074 4.169a3.821 3.821 0 0 1-.201.006 2.476 2.476 0 0 1-1.715-.632 5.21 5.21 0 0 1-1.278-3.1l-.002-.031a14.261 14.261 0 0 0 3.27-.412z"/><path d="M47.172 51.04a.188.188 0 0 0 .112-.243c-.019-.051-.067-.112-.234-.112h-.011a5.308 5.308 0 0 1-1.79.378 1.93 1.93 0 0 1-1.389-.495c-1.743-1.67-.04-7.127-.024-7.182a.336.336 0 0 0-.01-.145.228.228 0 0 0-.173-.105.189.189 0 0 0-.178.134c-.074.232-1.806 5.725.122 7.574a2.3 2.3 0 0 0 1.65.598 5.674 5.674 0 0 0 1.925-.402zm1.05 2.183-3.629.195a.21.21 0 0 0-.18.199.19.19 0 0 0 .19.18h.004l3.634-.195a.21.21 0 0 0 .18-.199.192.192 0 0 0-.2-.18zm-12.64 8.232a.659.659 0 0 0-.818.438l-.026.085-.086-.026a.656.656 0 1 0-.38 1.256l.084.026 1.257.382.407-1.342a.658.658 0 0 0-.438-.819zm4.534 7.373.09.004 1.31.07.075-1.4a.656.656 0 1 0-1.311-.07l-.005.09-.089-.005a.656.656 0 1 0-.07 1.31zm19.909-5.212 1.256-.382.086-.026a.656.656 0 0 0-.382-1.256l-.085.026-.026-.085a.656.656 0 1 0-1.256.381zm-4.592 5.216.089-.004a.656.656 0 1 0-.07-1.312l-.09.005-.004-.089a.656.656 0 0 0-1.311.07l.075 1.4zm-9.04-26.142a.36.36 0 0 0-.025.126.174.174 0 0 0 .19.137l.013-.001a10.075 10.075 0 0 1 1.722-.144 7.213 7.213 0 0 1 2.503.395.315.315 0 0 0 .058.01.172.172 0 0 0 .06-.333 7.533 7.533 0 0 0-2.622-.416 10.05 10.05 0 0 0-1.789.152.17.17 0 0 0-.11.074zm-4.129.102a9.01 9.01 0 0 0-1.426-.125 2.827 2.827 0 0 0-2.08.566.174.174 0 0 0 .01.243.36.36 0 0 0 .116.044.379.379 0 0 0 .128-.055 2.657 2.657 0 0 1 1.832-.455 8.86 8.86 0 0 1 1.396.124.165.165 0 0 0 .165-.144.173.173 0 0 0-.141-.198z"/><circle cx="40.894" cy="44.437" r=".905"/><path d="M48.37 43.21a.964.964 0 1 0 .965.964.964.964 0 0 0-.964-.963z"/><path class="cls-1" d="M28.31 81.51v-3.02h14.33c.01-.08.03-.17.04-.25H28.06v3.52h14.62c-.01-.08-.03-.17-.04-.25zm32-3.27c.01.08.03.17.04.25h14.33v3.02H60.35c-.01.08-.03.17-.04.25h14.62v-3.52z"/></g></svg>