<svg xmlns="http://www.w3.org/2000/svg" viewBox="0 0 103 160"><path fill="#fff" d="M0 0h103v160H0z"/><path d="M10.344 12.17h-2.14a7.67 7.67 0 0 1 2.208-5.423 7.1 7.1 0 0 1 5.228-2.12 6.654 6.654 0 0 1 6.89 6.68 7.31 7.31 0 0 1-.908 3.562 25.61 25.61 0 0 1-3.526 4.501l-5.562 5.989h10.3v2.155H7.674l8.527-9.218a27.423 27.423 0 0 0 3.378-4.124 5.546 5.546 0 0 0 .782-2.833 4.36 4.36 0 0 0-1.404-3.242 4.755 4.755 0 0 0-3.438-1.36 4.815 4.815 0 0 0-3.559 1.427 6.13 6.13 0 0 0-1.616 4.006zm13.253 20.725a5.542 5.542 0 0 0-7.813 0l-.53.53-.53-.53A5.525 5.525 0 0 0 6.91 40.71l.53.53 7.813 7.813 8.344-8.343a5.54 5.54 0 0 0 0-7.815zM92.656 147.83h2.14a7.67 7.67 0 0 1-2.208 5.423 7.1 7.1 0 0 1-5.228 2.12 6.654 6.654 0 0 1-6.89-6.68 7.31 7.31 0 0 1 .908-3.562 25.61 25.61 0 0 1 3.526-4.501l5.562-5.989h-10.3v-2.155h15.16l-8.527 9.218a27.423 27.423 0 0 0-3.378 4.124 5.546 5.546 0 0 0-.782 2.833 4.36 4.36 0 0 0 1.404 3.243 4.755 4.755 0 0 0 3.438 1.36 4.815 4.815 0 0 0 3.56-1.427 6.13 6.13 0 0 0 1.615-4.007zm-13.253-20.725a5.542 5.542 0 0 0 7.813 0l.53-.53.53.53a5.525 5.525 0 0 0 7.814-7.815l-.53-.53-7.813-7.813-8.344 8.343a5.54 5.54 0 0 0 0 7.815zm-33.693-2.226a3.846 3.846 0 0 0 5.422 0l.368-.368.368.368a3.834 3.834 0 0 0 5.422-5.423l-.368-.368-5.422-5.422-5.79 5.79a3.845 3.845 0 0 0 0 5.423zm11.58-89.758a3.846 3.846 0 0 0-5.422 0l-.368.368-.368-.368a3.834 3.834 0 0 0-5.422 5.423l.368.369 5.422 5.421 5.79-5.79a3.845 3.845 0 0 0 0-5.423z" fill="#d90000"/></svg>