<svg xmlns="http://www.w3.org/2000/svg" viewBox="0 0 103 160"><path fill="#fff" d="M0 0h103v160H0z"/><path d="M23.597 32.895a5.542 5.542 0 0 0-7.813 0l-.53.53-.53-.53A5.525 5.525 0 0 0 6.91 40.71l.53.53 7.813 7.813 8.344-8.343a5.54 5.54 0 0 0 0-7.815zM8.174 4.757h14.16L10.39 27.644l-1.85-.947L18.849 6.882H8.174zm71.229 122.348a5.542 5.542 0 0 0 7.813 0l.53-.53.53.53a5.525 5.525 0 0 0 7.814-7.815l-.53-.53-7.813-7.813-8.344 8.343a5.54 5.54 0 0 0 0 7.815zm15.423 28.138h-14.16l11.944-22.887 1.85.947-10.308 19.815h10.674zM41.306 35.121a3.846 3.846 0 0 0-5.421 0l-.368.368-.368-.368a3.834 3.834 0 0 0-5.422 5.423l.368.369 5.422 5.421 5.79-5.79a3.845 3.845 0 0 0 0-5.423zm-11.579 89.758a3.846 3.846 0 0 0 5.422 0l.368-.368.368.368a3.834 3.834 0 1 0 5.422-5.423l-.368-.368-5.422-5.422-5.79 5.79a3.845 3.845 0 0 0 0 5.423zm31.967 0a3.846 3.846 0 0 0 5.421 0l.368-.368.368.368a3.834 3.834 0 1 0 5.422-5.423l-.368-.368-5.422-5.422-5.79 5.79a3.845 3.845 0 0 0 0 5.423zm11.579-89.758a3.846 3.846 0 0 0-5.422 0l-.368.368-.368-.368a3.834 3.834 0 1 0-5.422 5.423l.369.369 5.421 5.421 5.79-5.79a3.845 3.845 0 0 0 0-5.423zm0 39.832a3.846 3.846 0 0 0-5.422 0l-.368.367-.368-.367a3.834 3.834 0 1 0-5.422 5.422l.369.369 5.421 5.422 5.79-5.79a3.845 3.845 0 0 0 0-5.424zm-31.967 0a3.846 3.846 0 0 0-5.421 0l-.368.367-.368-.367a3.834 3.834 0 0 0-5.422 5.422l.368.369 5.422 5.422 5.79-5.79a3.845 3.845 0 0 0 0-5.424zM57.29 55.037a3.846 3.846 0 0 0-5.422 0l-.368.368-.368-.368a3.834 3.834 0 0 0-5.422 5.423l.368.368L51.5 66.25l5.79-5.79a3.845 3.845 0 0 0 0-5.423z" fill="#d90000"/></svg>