<svg xmlns="http://www.w3.org/2000/svg" viewBox="0 0 103 160"><defs><style>.cls-1{fill:#fff}.cls-2{fill:#d90000}.cls-3{fill:#bf1b1b}.cls-4{fill:#ffc614}.cls-5{fill:#f9c19b}.cls-6{fill:#663f2e}.cls-7{fill:#f94c10}.cls-8{fill:#1e4262}.cls-9{fill:#bcbbbb}.cls-10{fill:#999898}.cls-11{fill:#e5e1e1}</style></defs><g id="HEARTS"><path class="cls-1" d="M0 0h103v160H0z"/><path class="cls-2" d="M18.502 4.757h2.23v15.071a14.787 14.787 0 0 1-.538 4.834 4.508 4.508 0 0 1-1.798 2.17 5.512 5.512 0 0 1-3.051.812 7.134 7.134 0 0 1-2.664-.524 11.298 11.298 0 0 1-2.906-1.844l1.184-1.775a17.535 17.535 0 0 0 2.904 1.73 3.697 3.697 0 0 0 1.49.334 2.873 2.873 0 0 0 1.742-.577 3.016 3.016 0 0 0 1.096-1.533 14.238 14.238 0 0 0 .31-3.703zm5.095 28.138a5.542 5.542 0 0 0-7.813 0l-.53.53-.53-.53A5.525 5.525 0 0 0 6.91 40.71l.53.53 7.813 7.813 8.344-8.343a5.54 5.54 0 0 0 0-7.815zm60.901 122.348h-2.23v-15.071a14.787 14.787 0 0 1 .538-4.834 4.508 4.508 0 0 1 1.799-2.17 5.512 5.512 0 0 1 3.05-.812 7.134 7.134 0 0 1 2.664.524 11.298 11.298 0 0 1 2.906 1.844l-1.184 1.775a17.535 17.535 0 0 0-2.904-1.73 3.697 3.697 0 0 0-1.49-.334 2.873 2.873 0 0 0-1.742.577 3.016 3.016 0 0 0-1.096 1.533 14.238 14.238 0 0 0-.31 3.703zm-5.095-28.138a5.542 5.542 0 0 0 7.813 0l.53-.53.53.53a5.525 5.525 0 0 0 7.814-7.815l-.53-.53-7.813-7.813-8.344 8.343a5.54 5.54 0 0 0 0 7.815z"/><path d="m81.01 40.79-.695-.545a1.175 1.175 0 0 0-.73-.253.964.964 0 0 0-.142.01 1.077 1.077 0 0 0-.729.42l-1.624 2.295-.022.03-.359-.28a.938.938 0 0 0-.62-.173h-.002a.768.768 0 0 0-.523.3L74.258 44.4l-.236.309c-.67-.727-3.904-4.491-3.34-8.863 1.577-.235 3.174-1.488 3.113-3.177-.074-2.1-2.452-3.154-3.47-3.51a16.137 16.137 0 0 0-9.783-.23 11.013 11.013 0 0 0-3.802-2.07 36.85 36.85 0 0 0-12.278-2.122c-.782 0-1.568.026-2.337.076a10.04 10.04 0 0 0-3.917.867 4.18 4.18 0 0 0-2.406 3.14 4.584 4.584 0 0 0 1.953 3.832 4.962 4.962 0 0 0 .14 3.846 1.706 1.706 0 0 0 .282.096 23.621 23.621 0 0 1-1.956 6.046c-1.426 2.796-1.829 4.768-1.198 5.86a2.126 2.126 0 0 0 1.835.965 4.538 4.538 0 0 1-.22 2.384 3.002 3.002 0 0 0 .199 3.018c.858 1.187 2.704 1.799 5.466 1.799h.088a10.653 10.653 0 0 1-.096 4.047l-.185-.01a3.276 3.276 0 0 1-.29-.023.728.728 0 0 0-.125-.01.942.942 0 0 0-.846.528 6.832 6.832 0 0 0-.646 2.336.81.81 0 0 0 .298.708.932.932 0 0 0 .088.081c-1.824.646-10.46 4.141-9.705 12.093q.034.378.097.77h-4.593a.538.538 0 0 0-.309.261v5.165a.2.2 0 0 0 .202.202l5.83-.027a13.188 13.188 0 0 0 5.45 10.489c.042.033.085.062.127.094.073.054.147.111.219.163l.02.014c.5.366 1.001.698 1.494.99l-7.493 9.941-.381-.298a.836.836 0 0 0-.518-.18l-.104.007a.767.767 0 0 0-.522.3l-7.368 9.663a.828.828 0 0 0 .166 1.148l.296.196.006.004-1.748 2.29a1.154 1.154 0 0 0 .235 1.602l.695.545a1.176 1.176 0 0 0 .73.253.964.964 0 0 0 .142-.01 1.077 1.077 0 0 0 .729-.42l1.624-2.295.022-.03.359.28a.938.938 0 0 0 .62.174h.002a.767.767 0 0 0 .523-.3l1.306-1.806.236-.31c.67.727 3.903 4.492 3.34 8.864-1.577.235-3.174 1.487-3.114 3.176.075 2.101 2.453 3.155 3.472 3.51a16.136 16.136 0 0 0 9.781.23 11.012 11.012 0 0 0 3.803 2.07 36.852 36.852 0 0 0 12.278 2.122c.782 0 1.568-.026 2.337-.076a10.044 10.044 0 0 0 3.917-.867 4.181 4.181 0 0 0 2.406-3.14 4.584 4.584 0 0 0-1.953-3.832 4.962 4.962 0 0 0-.14-3.846 1.684 1.684 0 0 0-.282-.096 23.622 23.622 0 0 1 1.956-6.046c1.426-2.796 1.829-4.768 1.198-5.86a2.126 2.126 0 0 0-1.835-.965 4.539 4.539 0 0 1 .22-2.384 3.002 3.002 0 0 0-.199-3.018c-.857-1.186-2.704-1.798-5.466-1.798h-.088a10.652 10.652 0 0 1 .096-4.048l.185.01c.096.005.192.01.291.024a.729.729 0 0 0 .124.01.942.942 0 0 0 .846-.53 6.833 6.833 0 0 0 .646-2.335.81.81 0 0 0-.298-.707.946.946 0 0 0-.088-.082c1.824-.646 10.46-4.141 9.705-12.093q-.034-.378-.097-.77h4.593a.538.538 0 0 0 .309-.261v-5.165a.2.2 0 0 0-.202-.202l-5.83.027a13.188 13.188 0 0 0-5.45-10.49l-.126-.093c-.073-.054-.147-.111-.22-.163l-.02-.014c-.5-.367-1.001-.698-1.494-.99l7.493-9.942.381.298a.837.837 0 0 0 .518.182l.104-.008a.766.766 0 0 0 .523-.3l7.367-9.663a.828.828 0 0 0-.166-1.148l-.295-.195-.007-.005 1.748-2.29a1.154 1.154 0 0 0-.235-1.602zm-49.041 85.126c.004.004.01.004.014.006-.005-.002-.01-.002-.014-.006l-.002-.008zm39.048-91.838c.005.003.01.002.014.006-.004-.004-.01-.004-.014-.006zm-34.145 89.105a16.928 16.928 0 0 0 3.386-3.369l.067-.09a12.651 12.651 0 0 0 1.206-1.903c.112-.198.229-.383.335-.59a13.4 13.4 0 0 0 1.49 3.19c.172.28.337.53.49.748l-.3.024a1.51 1.51 0 0 0-.773.961l-.036-.016a5.146 5.146 0 0 0-1.224.783 6.51 6.51 0 0 0-1.723-.242 8.568 8.568 0 0 0-2.32.34c-.196.05-.396.103-.598.164zM59.18 98.406l.008-.024-.008.025zM42.629 111.17c.135-.064.277-.118.407-.19l.005-.003c.198-.098.4-.191.59-.306v.001a7.75 7.75 0 0 1-.757.394c-.081.037-.163.07-.245.104zm7.307 13.594a1.786 1.786 0 0 0 .37.153 1.899 1.899 0 0 1-.37-.153zm16.192-87.947a16.927 16.927 0 0 0-3.386 3.369l-.067.09a12.653 12.653 0 0 0-1.206 1.903c-.112.198-.229.383-.335.59a13.4 13.4 0 0 0-1.49-3.19c-.172-.28-.337-.53-.49-.75l.3-.023a1.51 1.51 0 0 0 .773-.961l.036.016a5.146 5.146 0 0 0 1.224-.782 6.51 6.51 0 0 0 1.723.241 8.572 8.572 0 0 0 2.32-.34c.196-.049.396-.102.598-.163zM59.96 49.022c-.198.098-.4.192-.59.307v-.002a7.772 7.772 0 0 1 .757-.394c.081-.036.163-.07.245-.103-.136.063-.277.118-.407.19zm-6.895-13.786a1.79 1.79 0 0 0-.37-.153 1.889 1.889 0 0 1 .37.153zM43.82 61.594l-.008.024.008-.025zM70.541 34.57l-.002.001h.002zm-.338.158.04-.02zm-27.99 61.28a18.644 18.644 0 0 0 3.755 1.149l.077.016a.866.866 0 0 0-.07.266 7.587 7.587 0 0 0 1.059 3.795.475.475 0 0 0 .316.245l.106.012a.453.453 0 0 0 .279-.093c.136-.102.349-.247.594-.423a5.593 5.593 0 0 1 .424 2.8l.028.078v.015l.002.018a6.771 6.771 0 0 0-1.793-.266 4.875 4.875 0 0 0-2.013.417c-2.092.936-3.346 3.37-3.707 7.207a8.621 8.621 0 0 1-2.038.253 14.003 14.003 0 0 1-5.903-1.493l-.18-.093 1.653-2.167a.827.827 0 0 0-.166-1.147l-.283-.188zm-9.416 29.262-.041.02zm27.99-61.28a18.644 18.644 0 0 0-3.756-1.148l-.076-.016a.867.867 0 0 0 .069-.266 7.587 7.587 0 0 0-1.058-3.795.475.475 0 0 0-.316-.245 2.422 2.422 0 0 0-.106-.013.452.452 0 0 0-.28.094c-.136.102-.348.246-.593.423a5.594 5.594 0 0 1-.425-2.8l-.028-.079v-.014l-.002-.019a6.771 6.771 0 0 0 1.794.267 4.875 4.875 0 0 0 2.013-.417c2.091-.936 3.346-3.37 3.707-7.208a8.627 8.627 0 0 1 2.038-.252 14.001 14.001 0 0 1 5.902 1.492l.18.094-1.652 2.167a.827.827 0 0 0 .165 1.147l.283.187zM38.498 36.382h-.002zm26.004 87.236h.002zm6.248-88.143zm-10.205-6.211-.013.004zm-28.08 53.55c.002.061.01.12.012.18-.005-.06-.01-.118-.013-.18zm-.215 41.711zm10.192 6.215.026-.008zm28.092-53.554c-.001-.062-.008-.12-.01-.18.004.06.01.119.012.18z"/><path class="cls-2" d="M43.651 121.525a1.401 1.401 0 0 0-.473.483 7.626 7.626 0 0 1 2.987-.616 8.334 8.334 0 0 1 3.148.645 1.888 1.888 0 0 1 1.112-.75c-.362-.006-.718-.016-1.092-.016-1.847 0-3.758.086-5.681.254z"/><path class="cls-3" d="M32.462 82.76H42.7a9.24 9.24 0 0 0 2.647 4.08l-3.308 4.347-.837 1.112-1.562 2.049c-3.226-1.902-7.03-5.43-7.177-11.588z"/><path class="cls-4" d="M36.358 82.76h1.406a17.853 17.853 0 0 0 4.273 8.427l-.836 1.112a19.104 19.104 0 0 1-4.843-9.539z"/><path class="cls-5" d="M58.775 99.14a26.59 26.59 0 0 0-2.256-.1 16.392 16.392 0 0 0-7.9 1.736 5.695 5.695 0 0 1 .486 2.924 9.664 9.664 0 0 0-.004.344 12.035 12.035 0 0 1 3.332 1.752c5.915 4.519 4.198 14.304 3.934 15.626a36.853 36.853 0 0 1 8.119 1.886 23.777 23.777 0 0 1 1.982-6.108c1.369-2.682 1.774-4.542 1.206-5.526a1.95 1.95 0 0 0-1.72-.835c-.014 0-.025-.015-.039-.02a.148.148 0 0 1-.056-.03l-.004-.007a.133.133 0 0 1-.038-.063 6.637 6.637 0 0 1-.049-1.729l-2.651-.331a.147.147 0 0 1 .019-.293l2.68.334a2.536 2.536 0 0 1 .24-.716 2.628 2.628 0 0 0-.175-2.646c-.796-1.102-2.643-1.683-5.342-1.683a33.645 33.645 0 0 0-5.884.624h-.007a.152.152 0 0 1-.164-.119.378.378 0 0 1 .024-.11.141.141 0 0 1 .095-.06 34.423 34.423 0 0 1 5.66-.617 10.004 10.004 0 0 1 .148-4.163c-.055-.001-.114-.012-.168-.012a5.476 5.476 0 0 0-.62.034.161.161 0 0 1-.152-.09 5.33 5.33 0 0 1-.25-.859 3.608 3.608 0 0 1-.315.79.15.15 0 0 1-.131.067zm-.04 17.883a.146.146 0 0 1 .078-.083 6.382 6.382 0 0 1 2.588-.633 3.065 3.065 0 0 1 2.63 1.212.385.385 0 0 1 .017.11.143.143 0 0 1-.068.09.533.533 0 0 1-.078.008.127.127 0 0 1-.123-.056 2.731 2.731 0 0 0-2.35-1.081 6.176 6.176 0 0 0-2.496.617.36.36 0 0 1-.052.004.137.137 0 0 1-.142-.077.389.389 0 0 1-.005-.111z"/><path class="cls-1" d="M51.446 88.894a8.866 8.866 0 1 0-8.867-8.867 8.876 8.876 0 0 0 8.867 8.867zM46.17 78.758l5.168-5.168 4.84 4.84.328.329a3.422 3.422 0 1 1-4.84 4.84l-.328-.329-.328.329a3.422 3.422 0 1 1-4.84-4.84z"/><path class="cls-2" d="M52.741 123.123a1.87 1.87 0 0 1-.45 1.21c1.268.054 2.54.127 3.782.228 3.167.253 6.42.756 8.863 2.599a4.835 4.835 0 0 0-.036-3.38c-.513-.218-5.17-2.188-13.551-2.471a1.886 1.886 0 0 1 1.392 1.814z"/><path class="cls-6" d="M42.077 95.772c.002-.012-.005-.024 0-.036a.143.143 0 0 1 .084-.075l5.541-7.283A9.168 9.168 0 0 1 45.522 87l-5.72 7.52a.137.137 0 0 1-.012.087.142.142 0 0 1-.097.056l-7.61 10.005 2.023 1.582z"/><path class="cls-1" d="m48.321 100.608.003-.005.021-.008a16.522 16.522 0 0 1 8.184-1.848c.703 0 1.433.03 2.17.092a4.22 4.22 0 0 0-.033-3.66 23.33 23.33 0 0 0-3.035-.21 20.46 20.46 0 0 0-9.006 2.033.542.542 0 0 0-.301.456 7.284 7.284 0 0 0 1.02 3.616.122.122 0 0 0 .083.064l.132.024-.033-.044a7.97 7.97 0 0 1 .795-.51z"/><path class="cls-7" d="M52.256 106.03a9.842 9.842 0 0 0-5.264-2.06 4.542 4.542 0 0 0-1.871.385c-1.96.879-3.139 3.195-3.515 6.876a7.623 7.623 0 0 0 2.194-1.01l.166-.112a.053.053 0 0 1 .03-.009.065.065 0 0 1 .028.007.056.056 0 0 1 .026.054l-.022.199a22.29 22.29 0 0 1-1.948 6.413l.002.004a14.75 14.75 0 0 0 2.153 4.422 63.829 63.829 0 0 1 5.079-.219 55.184 55.184 0 0 1 6.761.404c.246-1.219 1.987-10.916-3.82-15.354z"/><path class="cls-1" d="M48.965 123.123a1.867 1.867 0 0 1 .202-.834 8.261 8.261 0 0 0-3.003-.604 7.386 7.386 0 0 0-4.305 1.385 5.035 5.035 0 0 1 1.867 1.127.147.147 0 0 1 .004.207.363.363 0 0 1-.106.046.146.146 0 0 1-.102-.04 5.19 5.19 0 0 0-3.734-1.381 11.148 11.148 0 0 0-3.927.833h-.014c-.34.23-.665.435-.98.625a15.512 15.512 0 0 1 2.445 1.074.35.35 0 0 1 .073.086.143.143 0 0 1-.01.112.15.15 0 0 1-.131.08 15.641 15.641 0 0 0-2.71-1.152 19.418 19.418 0 0 1-2.322 1.169l-.185.072a.048.048 0 0 1-.02.004.05.05 0 0 1-.038-.015.053.053 0 0 1-.014-.058l.063-.187a7.813 7.813 0 0 0 .29-1.161c-1.405.24-2.806 1.373-2.756 2.808.068 1.885 2.287 2.86 3.238 3.193a15.586 15.586 0 0 0 5.151.86 16.085 16.085 0 0 0 10.403-3.744 9.019 9.019 0 0 0 2.237-2.644 1.886 1.886 0 0 1-1.616-1.861zm10.753-24.155a1.51 1.51 0 0 1 .523-.065 7.111 7.111 0 0 1 .989.072l.08.007a.59.59 0 0 0 .527-.332 6.474 6.474 0 0 0 .612-2.215.585.585 0 0 0-.36-.598 6.046 6.046 0 0 0-2.21-.406c-.093 0-.164.002-.209.004a5.282 5.282 0 0 0 .048 3.533z"/><path class="cls-4" d="M50.853 124.718a1.596 1.596 0 1 0-1.595-1.595 1.598 1.598 0 0 0 1.595 1.595z"/><path class="cls-8" d="M48.534 127.852a16.019 16.019 0 0 1-5.702 3.074 11.131 11.131 0 0 0 3.544 1.886 36.56 36.56 0 0 0 12.17 2.1c.77 0 1.545-.024 2.305-.074a9.775 9.775 0 0 0 3.783-.829 3.836 3.836 0 0 0 2.215-2.863 4.359 4.359 0 0 0-1.925-3.64c-2.398-1.896-5.682-2.396-8.874-2.653-1.328-.107-2.69-.19-4.045-.245a1.869 1.869 0 0 1-1.097.397 9.194 9.194 0 0 1-2.374 2.847z"/><path class="cls-6" d="M22.031 117.818a.808.808 0 0 0 .174 1.117l.696.545a.815.815 0 0 0 .503.18.78.78 0 0 0 .603-.29l1.766-2.31-2.02-1.58z"/><path class="cls-9" d="m27.158 117.195 1.677-2.199v-.002l3.962-5.195 1.729-2.267a.479.479 0 0 0-.105-.66l-3.09-2.417a.486.486 0 0 0-.297-.107.473.473 0 0 0-.355.171l-7.369 9.662a.48.48 0 0 0 .105.662l3.09 2.416a.485.485 0 0 0 .302.107v.054l.058-.059a.429.429 0 0 0 .293-.166z"/><path class="cls-3" d="m42.423 95.717.993-1.305.827-1.093 2.867-3.777.809-1.066c.12.055.248.101.367.147a9.048 9.048 0 0 0 3.161.56 9.168 9.168 0 0 0 8.74-6.423H71.71c.735 4.374-1.397 7.453-3.86 9.474a18.128 18.128 0 0 1-3.5 2.243 20.089 20.089 0 0 1-1.902.818h-.01a6.57 6.57 0 0 1-.514.174c-.092-.037-.193-.064-.285-.092a6.968 6.968 0 0 0-1.268-.22 9.745 9.745 0 0 0-.478-.019 1.973 1.973 0 0 0-.294.01.156.156 0 0 0-.129.082 5.217 5.217 0 0 0-.239.699 4.646 4.646 0 0 0-.284-.827.385.385 0 0 0-.037-.092.487.487 0 0 0-.101-.083l-.147-.028c-.01 0-.019-.009-.028-.009-.285-.037-.9-.128-1.764-.174h-.092c-.34-.019-.726-.037-1.149-.037a21.622 21.622 0 0 0-2.812.184c-.56.073-1.14.165-1.746.294a20.028 20.028 0 0 0-2.82.818 17.33 17.33 0 0 0-1.61.698 1.003 1.003 0 0 0-.146.064.768.768 0 0 0-.212.166c-.009-.01-.018-.01-.018-.019a20.633 20.633 0 0 1-3.842-1.167z"/><path class="cls-4" d="M64.35 94.477c4.356-4.65 5.1-9.125 5.082-11.717h1.378a17.124 17.124 0 0 1-2.959 9.474 18.128 18.128 0 0 1-3.501 2.243zm-7.573.239a17.348 17.348 0 0 0 6.727-11.956h1.36a19.394 19.394 0 0 1-6.203 12.14c-.009 0-.018-.01-.027-.01-.285-.037-.9-.128-1.765-.174zm-10.136 1.957a24.696 24.696 0 0 1-3.225-2.26l.827-1.094a20.756 20.756 0 0 0 4.007 2.656 17.33 17.33 0 0 0-1.609.698zm.469-7.131.809-1.066c.12.055.248.101.367.147a18.77 18.77 0 0 0 4.53 6.24c-.56.073-1.14.165-1.746.294a19.874 19.874 0 0 1-3.96-5.615z"/><path class="cls-10" d="m29.163 115.043.551-.717 3.19-4.181a14.043 14.043 0 0 0 6.33 1.7 8.369 8.369 0 0 0 4.458-1.204c-.046.285-.13.772-.276 1.406-.101.441-.23.956-.404 1.516a18.548 18.548 0 0 1-3.042 6.056c-.202.267-.414.533-.634.781a14.702 14.702 0 0 1-1.728 1.737 22.343 22.343 0 0 1-5.21 3.317 8.618 8.618 0 0 0 .175-3.933 13.377 13.377 0 0 0-2.775-5.77 7.118 7.118 0 0 0-.635-.708z"/><path class="cls-9" d="M37.832 117.84a18.28 18.28 0 0 1-5.146 4.546 8.226 8.226 0 0 1-.29 3.072 20.277 20.277 0 0 0 7.57-5.839 20.733 20.733 0 0 0 3.725-8.98 8.017 8.017 0 0 1-2.791 1.04 18.7 18.7 0 0 1-3.068 6.162z"/><path class="cls-9" d="m32.572 121.521 6.764-1.121a14.702 14.702 0 0 1-1.728 1.737l-4.889.808a8.048 8.048 0 0 0-.147-1.424z"/><path class="cls-11" d="M32.686 122.386c.015.185.03.37.033.56l4.886-.808.038-.033c.275-.238.55-.49.819-.757.032-.03.062-.065.094-.096.269-.271.532-.553.78-.852l-4.958.822c-.585.437-1.162.839-1.692 1.164z"/><path class="cls-9" d="m29.163 115.043.551-.717 13.702-2.279c-.101.441-.23.956-.404 1.516l-13.215 2.187a7.118 7.118 0 0 0-.634-.707z"/><path class="cls-11" d="m43.412 112.048-2.78.462a21.688 21.688 0 0 1-.594 1.545l2.964-.49c.17-.558.306-1.073.41-1.517z"/><path class="cls-2" d="M46.189 83.676a3.492 3.492 0 0 0 4.922 0l.335-.334.334.334a3.481 3.481 0 1 0 4.922-4.924l-.334-.334-4.923-4.923-5.256 5.257a3.491 3.491 0 0 0 0 4.924z"/><path d="M58.933 117.258h.023a6.111 6.111 0 0 1 2.472-.611 2.685 2.685 0 0 1 2.305 1.054.182.182 0 0 0 .17.083.568.568 0 0 0 .107-.017.196.196 0 0 0 .092-.124.372.372 0 0 0-.023-.151 3.168 3.168 0 0 0-2.678-1.24 6.445 6.445 0 0 0-2.612.639.203.203 0 0 0-.106.116.352.352 0 0 0 .006.15c.03.07.092.102.244.102z"/><path d="M21.755 117.607a1.154 1.154 0 0 0 .235 1.603l.696.545a1.175 1.175 0 0 0 .729.253.964.964 0 0 0 .142-.01 1.076 1.076 0 0 0 .729-.42l1.623-2.295.023-.03.358.28a.939.939 0 0 0 .62.174h.002a.768.768 0 0 0 .523-.3l1.307-1.806.235-.309c.671.726 3.904 4.49 3.341 8.863-1.578.235-3.174 1.488-3.114 3.176.075 2.101 2.453 3.155 3.471 3.51a16.136 16.136 0 0 0 9.782.23 11.012 11.012 0 0 0 3.802 2.07 36.852 36.852 0 0 0 12.279 2.122c.781 0 1.568-.026 2.337-.076a10.041 10.041 0 0 0 3.917-.867 4.18 4.18 0 0 0 2.406-3.14 4.584 4.584 0 0 0-1.954-3.832 4.962 4.962 0 0 0-.139-3.846 1.695 1.695 0 0 0-.283-.096 23.621 23.621 0 0 1 1.957-6.046c1.426-2.796 1.829-4.768 1.198-5.86a2.126 2.126 0 0 0-1.836-.965 4.539 4.539 0 0 1 .22-2.384 3.001 3.001 0 0 0-.198-3.018c-.858-1.186-2.705-1.798-5.466-1.798h-.088a10.652 10.652 0 0 1 .096-4.048l.185.01c.096.005.192.01.29.024a.719.719 0 0 0 .124.01.942.942 0 0 0 .847-.529 6.833 6.833 0 0 0 .646-2.336.81.81 0 0 0-.298-.707.946.946 0 0 0-.088-.082c1.823-.645 10.46-4.14 9.704-12.092q-.033-.378-.096-.77h4.593a.2.2 0 0 0 .202-.202v-5.165a.2.2 0 0 0-.202-.202l-16.377.02a9.2 9.2 0 0 0-17.553-.02h-16.4a.2.2 0 0 0-.202.202v5.164a.2.2 0 0 0 .201.202l5.83-.027a13.188 13.188 0 0 0 5.45 10.49c.042.032.085.061.127.093.073.054.147.111.219.163l.02.014c.5.366 1.001.698 1.494.99l-7.493 9.942-.381-.298a.836.836 0 0 0-.518-.182l-.104.009a.766.766 0 0 0-.522.3l-7.368 9.662a.828.828 0 0 0 .166 1.148l.296.196.006.004zm3.958-.56-1.749 2.288a.685.685 0 0 1-.46.263.908.908 0 0 1-.1.006.762.762 0 0 1-.469-.167l-.696-.544a.754.754 0 0 1-.163-1.042l1.645-2.327zm16.729 13.693-.013-.043a16.466 16.466 0 0 1-4.488.618 15.528 15.528 0 0 1-5.133-.856c-.94-.328-3.134-1.291-3.2-3.142a3.06 3.06 0 0 1 2.294-2.706 3.65 3.65 0 0 1 .348-.086 7.864 7.864 0 0 1-.283 1.128l-.022.15-.016.047.009.003-.004.024.033.03.002.01c.004.003.01.002.014.005l.063.058.188-.074a19.112 19.112 0 0 0 2.296-1.163 16.369 16.369 0 0 1 2.714 1.151.206.206 0 0 0 .18-.11.189.189 0 0 0 .013-.153.323.323 0 0 0-.1-.118 13.11 13.11 0 0 0-2.155-.932c-.076-.027-.147-.063-.224-.088.296-.179.601-.37.922-.58a11.079 11.079 0 0 1 3.908-.828 6.32 6.32 0 0 1 1.75.238 4.74 4.74 0 0 1 1.946 1.127.2.2 0 0 0 .14.056.338.338 0 0 0 .145-.064.2.2 0 0 0-.006-.284 4.458 4.458 0 0 0-1.697-1.02c-.043-.017-.08-.043-.124-.058a7.35 7.35 0 0 1 4.222-1.339 8.667 8.667 0 0 1 2.816.514c.042.016.082.027.125.043a1.919 1.919 0 0 0-.196.825 1.84 1.84 0 0 0 1.43 1.809c.06.016.119.034.18.045a8.982 8.982 0 0 1-2.211 2.61 15.577 15.577 0 0 1-5.777 3.08l-.008-.003c-.02 0-.04.026-.053.067l-.003.002zm-2.63-36.116.002-.002.001-.007a.24.24 0 0 0 .033-.064l5.254-6.953.41-.538a8.003 8.003 0 0 0 1.932 1.21c.065.032.125.074.192.104l-5.508 7.246a.101.101 0 0 0-.057.103l-.007.016.013.005-.004.003-.04-.008-7.859 10.42-.036.048-1.996-1.526 7.582-9.972a.17.17 0 0 0 .087-.085zm20.445-14.596a8.81 8.81 0 1 1-17.622 0 8.812 8.812 0 0 1 17.25-2.536.035.035 0 0 0 .029.018h-.023a8.824 8.824 0 0 1 .366 2.518zM59.4 97.24l.003-.063.003-.004.002.005v-.006l.008-.01c.011-.004.018-.056.02-.068v-.097h-.028l.028-.112a5.223 5.223 0 0 1 .236-1.395l.207-.004a6.005 6.005 0 0 1 2.188.4.53.53 0 0 1 .326.542 6.381 6.381 0 0 1-.607 2.198.551.551 0 0 1-.533.294h-.016a7.038 7.038 0 0 0-.996-.073c-.186 0-.393.007-.472.1a7.355 7.355 0 0 1-.352-1.504.493.493 0 0 0-.017-.203zm5.112 26.41h.021l.039.054.28.1a4.653 4.653 0 0 1 .125 3.152l-.036.138c-2.475-1.85-5.723-2.339-8.865-2.59a57.97 57.97 0 0 0-2.697-.148q-.49-.026-1.006-.049a1.916 1.916 0 0 0 .423-1.185 1.833 1.833 0 0 0-.82-1.523 1.968 1.968 0 0 0-.403-.224 44.795 44.795 0 0 1 12.603 2.13l.278.104c.01.003.021.025.028.025l.019-.017.003.001a.027.027 0 0 0 .008.032zm-35.296-8.581 3.68-4.867a14.28 14.28 0 0 0 6.336 1.697 7.776 7.776 0 0 0 3.803-.92l.004-.002c.2-.098.4-.192.59-.307a20.534 20.534 0 0 1-3.708 8.916 19.553 19.553 0 0 1-6.27 5.243l-.055.03c-.13.073-.268.142-.4.214-.308.156-.558.274-.738.355 1.136-3.924-.95-7.47-2.298-9.237a8.458 8.458 0 0 0-.944-1.122zm3.932-5.159 1.653-2.167a.827.827 0 0 0-.166-1.146l-.282-.188 7.858-10.4a18.634 18.634 0 0 0 3.756 1.147l.077.016a.866.866 0 0 0-.069.266 7.587 7.587 0 0 0 1.058 3.796.475.475 0 0 0 .316.245l.106.012a.453.453 0 0 0 .279-.093c.136-.102.349-.247.594-.424a5.594 5.594 0 0 1 .424 2.801l.028.078v.015l.002.018a6.77 6.77 0 0 0-1.793-.266 4.875 4.875 0 0 0-2.013.416c-2.092.936-3.346 3.37-3.707 7.208a8.627 8.627 0 0 1-2.038.252 14.002 14.002 0 0 1-5.903-1.492l-.18-.094zm19.244 13.212a1.54 1.54 0 1 1-3.08 0 1.573 1.573 0 0 1 .243-.829 1.54 1.54 0 0 1 2.837.83zm-5.781-1.73c.95-.041 1.867-.065 2.721-.065.266 0 .522.005.781.01a1.931 1.931 0 0 0-.82.634 7.736 7.736 0 0 0-2.184-.54c-.167-.022-.333-.03-.498-.04zm-1.975.112a7.67 7.67 0 0 0-1.302.39 1.518 1.518 0 0 1 .322-.313c.3-.027.6-.045.898-.062zM41.92 109.55a8.53 8.53 0 0 1 1.723-3.994c9.294 1.227 8.96 14.092 8.92 15.464a58.055 58.055 0 0 0-3.249-.095c-.55 0-1.136.02-1.718.04-.112-1.123-.759-6.004-3.69-9.538.113-.573.165-.958.178-1.066l-.032-.3a1.183 1.183 0 0 0-.117.004l-.165.11c-.211.142-.442.258-.668.379a10.885 10.885 0 0 0-1.181-1.004zm5.363 11.422a59.74 59.74 0 0 0-3.011.183 14.917 14.917 0 0 1-2.138-4.366 22.482 22.482 0 0 0 1.683-4.935 19.276 19.276 0 0 1 3.466 9.117zM43.9 105.267a4.265 4.265 0 0 1 1.243-.862 4.48 4.48 0 0 1 1.848-.38 9.797 9.797 0 0 1 5.23 2.048c5.748 4.394 4.049 14.037 3.809 15.25a53.274 53.274 0 0 0-3.16-.285c.057-1.232.434-14.33-8.97-15.771zm-2.231 5.91q.07-.665.174-1.27c.329.248.652.517.975.807a9.617 9.617 0 0 1-.774.324c-.126.044-.245.102-.375.14zm-1.88 11.503a8.568 8.568 0 0 0-2.32.34c-.197.05-.396.103-.598.164a16.93 16.93 0 0 0 3.386-3.37l.067-.09a12.655 12.655 0 0 0 1.206-1.903c.111-.198.228-.383.335-.59a13.403 13.403 0 0 0 1.49 3.19c.171.28.337.53.49.749l-.3.024a1.51 1.51 0 0 0-.773.96l-.036-.015a5.141 5.141 0 0 0-1.224.782 6.51 6.51 0 0 0-1.723-.241zm8.504-22.12a3.844 3.844 0 0 0-.665.455c-.035.024-.082.055-.11.076l-.126-.041a7.233 7.233 0 0 1-1.013-3.588.48.48 0 0 1 .27-.41 20.39 20.39 0 0 1 8.981-2.027 21.63 21.63 0 0 1 2.806.182 1.427 1.427 0 0 0 .17.018l.01-.023a4.333 4.333 0 0 1 .088 3.581 27.163 27.163 0 0 0-2.175-.09 16.682 16.682 0 0 0-8.236 1.867zm-5.39 30.398a15.96 15.96 0 0 0 5.666-3.064 8.928 8.928 0 0 0 2.355-2.835 1.892 1.892 0 0 0 1.078-.395c1.392.057 2.752.14 4.044.245 3.181.255 6.455.752 8.843 2.641a4.304 4.304 0 0 1 1.904 3.59 3.782 3.782 0 0 1-2.185 2.821 9.71 9.71 0 0 1-3.761.822c-.76.05-1.535.075-2.301.075a36.52 36.52 0 0 1-12.153-2.098 14.02 14.02 0 0 1-2.946-1.41c-.184-.126-.371-.249-.545-.392zm17.322-27.64a34.663 34.663 0 0 0-5.633.618.19.19 0 0 0-.131.083.336.336 0 0 0-.032.15.21.21 0 0 0 .233.164h.002a33.556 33.556 0 0 1 5.873-.622c2.68 0 4.512.573 5.297 1.659a2.57 2.57 0 0 1 .171 2.587 1.85 1.85 0 0 0-.208.686l-2.663-.332a.203.203 0 0 0-.2.176.2.2 0 0 0 .04.15.197.197 0 0 0 .135.076l2.558.293.043.005a6.51 6.51 0 0 0 .049 1.673c-.001.028.011.058.075.132l.116.08a1.895 1.895 0 0 1 1.675.806c.56.968.153 2.81-1.206 5.474a21.851 21.851 0 0 0-1.903 5.834l-.046.235a35.65 35.65 0 0 0-7.776-1.801l-.268-.04c.223-1.128 1.995-11.1-3.959-15.65a11.717 11.717 0 0 0-3.31-1.727l.004-.323a5.483 5.483 0 0 0-.493-2.889 16.29 16.29 0 0 1 7.85-1.718c.73 0 1.488.034 2.257.1a.204.204 0 0 0 .176-.093 2.215 2.215 0 0 0 .171-.5c.02-.06.039-.126.058-.197l.008-.024a5.681 5.681 0 0 0 .23.781.214.214 0 0 0 .206.125h.005a4.578 4.578 0 0 1 .548-.03l.116-.027h.038l.017-.002a9.233 9.233 0 0 0-.138 3.982l.015.105zm1.698-7.902a6.628 6.628 0 0 0-2.03-.335c-.163 0-.268.006-.305.009a.205.205 0 0 0-.168.12 1.634 1.634 0 0 0-.126.479c-.012.047-.024.092-.035.144a5.307 5.307 0 0 0-.299-.847.38.38 0 0 0-.136-.11 17.46 17.46 0 0 0-3.193-.255 20.823 20.823 0 0 0-9.162 2.067.725.725 0 0 0-.2.147 22.054 22.054 0 0 1-3.254-.92c-.173-.065-.345-.13-.526-.202l5.432-7.176a9.158 9.158 0 0 0 12.266-5.723l11.473-.023c1.497 8.985-9.167 12.446-9.737 12.625zm-29.46-12.602 10.194-.02a8.947 8.947 0 0 0 2.629 4.032l-2.792 3.742-2.847 3.723a13.689 13.689 0 0 1-7.153-11.034c-.01-.148-.026-.291-.031-.443zm-5.602 34.492a.316.316 0 0 0-.053.038l-.002-.034a.434.434 0 0 1-.267-.095l-3.09-2.415a.425.425 0 0 1-.096-.584l7.369-9.663a.423.423 0 0 1 .311-.15.432.432 0 0 1 .263.095l3.09 2.417a.423.423 0 0 1 .096.583l-7.368 9.664a.376.376 0 0 1-.253.144z"/><path class="cls-1" d="M74.98 78.49v3.07H60.47a2.211 2.211 0 0 1-.05.25h14.81v-3.57H60.42a1.085 1.085 0 0 1 .04.25zm-32.51 3.32a2.211 2.211 0 0 1-.05-.25h-14.5v-3.07h14.51a1.085 1.085 0 0 1 .04-.25h-14.8v3.57z"/><path class="cls-2" d="M59.349 38.475a1.4 1.4 0 0 0 .473-.483 7.626 7.626 0 0 1-2.987.616 8.332 8.332 0 0 1-3.148-.645 1.888 1.888 0 0 1-1.112.75c.362.006.718.015 1.092.015a65.57 65.57 0 0 0 5.681-.253z"/><path class="cls-3" d="M70.538 77.24H60.3a9.24 9.24 0 0 0-2.647-4.08l3.308-4.347.837-1.112 1.562-2.049c3.226 1.902 7.03 5.43 7.177 11.588z"/><path class="cls-4" d="M66.642 77.24h-1.406a17.853 17.853 0 0 0-4.274-8.427l.837-1.112a19.102 19.102 0 0 1 4.843 9.539z"/><path class="cls-5" d="M44.225 60.86c.772.066 1.529.1 2.256.1a16.39 16.39 0 0 0 7.899-1.736 5.694 5.694 0 0 1-.485-2.925c.003-.138.004-.249.003-.344a12.031 12.031 0 0 1-3.332-1.751c-5.914-4.52-4.197-14.304-3.933-15.627a36.851 36.851 0 0 1-8.119-1.886 23.774 23.774 0 0 1-1.982 6.109c-1.369 2.682-1.774 4.542-1.206 5.526a1.95 1.95 0 0 0 1.72.835c.014 0 .025.015.039.021a.147.147 0 0 1 .056.03l.004.006a.133.133 0 0 1 .038.063 6.637 6.637 0 0 1 .049 1.729l2.652.331a.147.147 0 0 1-.02.293l-2.68-.334a2.527 2.527 0 0 1-.24.716 2.628 2.628 0 0 0 .176 2.647c.796 1.1 2.643 1.682 5.341 1.682a33.645 33.645 0 0 0 5.885-.624h.007a.152.152 0 0 1 .163.119.378.378 0 0 1-.023.11.141.141 0 0 1-.095.06 34.423 34.423 0 0 1-5.66.617 10.004 10.004 0 0 1-.148 4.163c.055.001.113.012.167.012a5.476 5.476 0 0 0 .62-.034.161.161 0 0 1 .152.09 5.33 5.33 0 0 1 .25.859 3.608 3.608 0 0 1 .315-.79.15.15 0 0 1 .131-.067zm.04-17.883a.147.147 0 0 1-.078.083 6.382 6.382 0 0 1-2.588.633 3.066 3.066 0 0 1-2.63-1.212.386.386 0 0 1-.017-.11.144.144 0 0 1 .068-.091.546.546 0 0 1 .078-.007.127.127 0 0 1 .123.055 2.731 2.731 0 0 0 2.35 1.082 6.176 6.176 0 0 0 2.496-.617.36.36 0 0 1 .052-.004.137.137 0 0 1 .142.077.388.388 0 0 1 .005.11z"/><path class="cls-1" d="M51.554 71.106a8.866 8.866 0 1 0 8.867 8.867 8.876 8.876 0 0 0-8.867-8.867zm5.275 10.136L51.66 86.41l-4.84-4.84-.328-.329a3.422 3.422 0 0 1 4.84-4.84l.328.329.328-.329a3.422 3.422 0 0 1 4.84 4.84z"/><path class="cls-2" d="M50.259 36.877a1.87 1.87 0 0 1 .45-1.21c-1.268-.054-2.54-.127-3.782-.227-3.167-.254-6.42-.756-8.863-2.6a4.836 4.836 0 0 0 .036 3.38c.513.218 5.17 2.188 13.551 2.471a1.886 1.886 0 0 1-1.392-1.814z"/><path class="cls-6" d="M60.923 64.228c-.001.012.005.024 0 .035a.142.142 0 0 1-.084.075l-5.541 7.284A9.17 9.17 0 0 1 57.478 73l5.72-7.52a.138.138 0 0 1 .012-.088.142.142 0 0 1 .097-.055l7.61-10.005-2.022-1.582z"/><path class="cls-1" d="m54.679 59.392-.003.005-.021.008a16.52 16.52 0 0 1-8.184 1.848c-.703 0-1.433-.03-2.17-.092a4.22 4.22 0 0 0 .033 3.66 23.326 23.326 0 0 0 3.035.21 20.458 20.458 0 0 0 9.006-2.033.541.541 0 0 0 .301-.456 7.284 7.284 0 0 0-1.02-3.616.122.122 0 0 0-.083-.064l-.132-.024.033.044a7.97 7.97 0 0 1-.795.51z"/><path class="cls-7" d="M50.744 53.97a9.842 9.842 0 0 0 5.264 2.06 4.542 4.542 0 0 0 1.871-.385c1.96-.878 3.139-3.195 3.515-6.876A7.623 7.623 0 0 0 59.2 49.78l-.165.111a.053.053 0 0 1-.03.01.064.064 0 0 1-.029-.008.056.056 0 0 1-.026-.054l.023-.198a22.294 22.294 0 0 1 1.947-6.413l-.003-.004a14.748 14.748 0 0 0-2.153-4.422c-1.738.14-3.439.218-5.078.218a55.184 55.184 0 0 1-6.762-.403c-.245 1.217-1.986 10.915 3.82 15.353z"/><path class="cls-1" d="M54.035 36.877a1.867 1.867 0 0 1-.202.834 8.261 8.261 0 0 0 3.003.604 7.385 7.385 0 0 0 4.305-1.385 5.033 5.033 0 0 1-1.867-1.127.147.147 0 0 1-.004-.207.365.365 0 0 1 .106-.046.146.146 0 0 1 .102.04 5.19 5.19 0 0 0 3.734 1.381 11.148 11.148 0 0 0 3.927-.833h.014c.34-.23.665-.435.98-.625a15.503 15.503 0 0 1-2.445-1.074.348.348 0 0 1-.073-.086.143.143 0 0 1 .01-.112.15.15 0 0 1 .131-.08 15.649 15.649 0 0 0 2.71 1.152 19.41 19.41 0 0 1 2.322-1.169l.185-.073a.048.048 0 0 1 .02-.003.05.05 0 0 1 .038.015.053.053 0 0 1 .014.058l-.063.187a7.826 7.826 0 0 0-.29 1.161c1.405-.24 2.806-1.373 2.756-2.808-.067-1.885-2.287-2.86-3.238-3.193a15.587 15.587 0 0 0-5.151-.86 16.085 16.085 0 0 0-10.403 3.743 9.02 9.02 0 0 0-2.237 2.645 1.886 1.886 0 0 1 1.616 1.861zM43.282 61.032a1.51 1.51 0 0 1-.523.065 7.093 7.093 0 0 1-.989-.072l-.08-.007a.59.59 0 0 0-.527.332 6.473 6.473 0 0 0-.612 2.215.585.585 0 0 0 .36.598 6.046 6.046 0 0 0 2.21.406c.093 0 .164-.002.209-.004a5.281 5.281 0 0 0-.048-3.533z"/><path class="cls-4" d="M52.147 35.282a1.596 1.596 0 1 0 1.595 1.595 1.598 1.598 0 0 0-1.595-1.595z"/><path class="cls-8" d="M54.466 32.148a16.017 16.017 0 0 1 5.702-3.074 11.13 11.13 0 0 0-3.544-1.886 36.56 36.56 0 0 0-12.17-2.1c-.77 0-1.545.024-2.305.074a9.775 9.775 0 0 0-3.783.829 3.836 3.836 0 0 0-2.216 2.863 4.359 4.359 0 0 0 1.926 3.64c2.398 1.897 5.682 2.396 8.874 2.653 1.328.107 2.69.19 4.045.245a1.868 1.868 0 0 1 1.097-.397 9.19 9.19 0 0 1 2.374-2.847z"/><path class="cls-6" d="M80.969 42.182a.808.808 0 0 0-.174-1.117l-.696-.545a.816.816 0 0 0-.503-.18.72.72 0 0 0-.107.008.734.734 0 0 0-.496.283l-1.766 2.31 2.02 1.58z"/><path class="cls-9" d="m75.842 42.805-1.677 2.199v.002l-3.962 5.195-1.729 2.267a.479.479 0 0 0 .105.66l3.09 2.417a.485.485 0 0 0 .297.107.472.472 0 0 0 .355-.171l7.369-9.663a.48.48 0 0 0-.105-.66l-3.09-2.417a.485.485 0 0 0-.302-.106v-.055l-.058.06a.43.43 0 0 0-.293.165z"/><path class="cls-3" d="m60.577 64.283-.993 1.305-.827 1.093-2.867 3.777-.809 1.066c-.12-.055-.248-.101-.367-.147a9.048 9.048 0 0 0-3.161-.56 9.168 9.168 0 0 0-8.74 6.423H31.29c-.735-4.374 1.397-7.453 3.86-9.474a18.128 18.128 0 0 1 3.501-2.243 20.121 20.121 0 0 1 1.902-.818h.01a6.33 6.33 0 0 1 .514-.174c.092.037.193.064.285.092a6.966 6.966 0 0 0 1.268.22c.184.01.35.019.478.019a1.973 1.973 0 0 0 .294-.01.156.156 0 0 0 .128-.082 5.222 5.222 0 0 0 .239-.698 4.65 4.65 0 0 0 .285.827.386.386 0 0 0 .037.092.486.486 0 0 0 .1.082l.148.028c.009 0 .018.009.027.009.285.037.9.129 1.765.175h.092c.34.018.726.036 1.148.036a21.622 21.622 0 0 0 2.812-.183c.56-.074 1.14-.166 1.746-.294a20.041 20.041 0 0 0 2.821-.818 17.356 17.356 0 0 0 1.609-.699 1.004 1.004 0 0 0 .147-.064.765.765 0 0 0 .21-.166c.01.01.02.01.02.019a20.637 20.637 0 0 1 3.84 1.167z"/><path class="cls-4" d="M38.65 65.523c-4.355 4.65-5.1 9.125-5.081 11.717H32.19a17.124 17.124 0 0 1 2.959-9.474 18.128 18.128 0 0 1 3.502-2.243zm7.573-.239a17.347 17.347 0 0 0-6.727 11.956h-1.36a19.395 19.395 0 0 1 6.203-12.14c.009 0 .018.01.027.01.285.037.9.129 1.765.175zm10.136-1.957a24.69 24.69 0 0 1 3.225 2.26l-.827 1.094a20.75 20.75 0 0 0-4.007-2.656 17.356 17.356 0 0 0 1.609-.698zm-.469 7.131-.809 1.066c-.12-.055-.248-.101-.367-.147a18.769 18.769 0 0 0-4.53-6.24c.56-.074 1.14-.165 1.746-.294a19.875 19.875 0 0 1 3.96 5.615z"/><path class="cls-10" d="m73.837 44.957-.551.717-3.19 4.181a14.043 14.043 0 0 0-6.33-1.7 8.369 8.369 0 0 0-4.458 1.204c.046-.285.13-.772.276-1.406.101-.441.23-.956.404-1.516a18.548 18.548 0 0 1 3.042-6.056c.202-.267.414-.533.634-.781a14.709 14.709 0 0 1 1.728-1.737 22.34 22.34 0 0 1 5.21-3.317 8.623 8.623 0 0 0-.175 3.933 13.377 13.377 0 0 0 2.776 5.771 7.118 7.118 0 0 0 .634.707z"/><path class="cls-9" d="M65.168 42.16a18.28 18.28 0 0 1 5.146-4.546 8.228 8.228 0 0 1 .29-3.072 20.276 20.276 0 0 0-7.57 5.839 20.733 20.733 0 0 0-3.725 8.98 8.016 8.016 0 0 1 2.791-1.04 18.7 18.7 0 0 1 3.068-6.162z"/><path class="cls-9" d="M70.428 38.479 63.664 39.6a14.709 14.709 0 0 1 1.728-1.737l4.889-.808a8.039 8.039 0 0 0 .147 1.424z"/><path class="cls-11" d="M70.314 37.614a8.911 8.911 0 0 1-.033-.56l-4.886.808-.038.033c-.275.238-.55.49-.819.756-.032.032-.062.066-.094.097-.269.271-.532.553-.78.852l4.958-.822a22.928 22.928 0 0 1 1.692-1.164z"/><path class="cls-9" d="m73.837 44.957-.551.717-13.702 2.279c.101-.441.23-.956.404-1.516l13.215-2.187a7.118 7.118 0 0 0 .634.707z"/><path class="cls-11" d="m59.588 47.952 2.78-.462c.17-.496.366-1.014.594-1.546l-2.964.491c-.17.558-.306 1.073-.41 1.517z"/><path class="cls-2" d="M56.811 76.324a3.492 3.492 0 0 0-4.922 0l-.335.334-.334-.334a3.481 3.481 0 1 0-4.922 4.924l.334.334 4.923 4.923 5.256-5.257a3.491 3.491 0 0 0 0-4.924z"/><path d="M44.067 42.742h-.023a6.113 6.113 0 0 1-2.472.612 2.685 2.685 0 0 1-2.305-1.055.182.182 0 0 0-.17-.083.561.561 0 0 0-.107.017.196.196 0 0 0-.092.124.372.372 0 0 0 .023.151 3.168 3.168 0 0 0 2.678 1.24 6.445 6.445 0 0 0 2.611-.639.202.202 0 0 0 .107-.116.352.352 0 0 0-.006-.15c-.03-.07-.092-.102-.244-.102z"/><path d="M81.245 42.393a1.154 1.154 0 0 0-.235-1.603l-.695-.545a1.175 1.175 0 0 0-.73-.253.964.964 0 0 0-.142.01 1.077 1.077 0 0 0-.729.42l-1.624 2.295-.022.03-.359-.28a.938.938 0 0 0-.62-.173h-.002a.768.768 0 0 0-.523.3L74.258 44.4l-.236.309c-.67-.727-3.904-4.491-3.34-8.863 1.577-.235 3.174-1.488 3.113-3.177-.074-2.1-2.452-3.154-3.47-3.51a16.137 16.137 0 0 0-9.783-.23 11.013 11.013 0 0 0-3.802-2.07 36.85 36.85 0 0 0-12.278-2.122c-.782 0-1.568.026-2.337.076a10.04 10.04 0 0 0-3.917.867 4.18 4.18 0 0 0-2.406 3.14 4.584 4.584 0 0 0 1.953 3.832 4.962 4.962 0 0 0 .14 3.846 1.706 1.706 0 0 0 .282.096 23.621 23.621 0 0 1-1.956 6.046c-1.426 2.796-1.829 4.768-1.198 5.86a2.126 2.126 0 0 0 1.835.965 4.538 4.538 0 0 1-.22 2.384 3.002 3.002 0 0 0 .199 3.018c.858 1.187 2.704 1.799 5.466 1.799h.088a10.653 10.653 0 0 1-.096 4.047l-.185-.01a3.276 3.276 0 0 1-.29-.023.728.728 0 0 0-.125-.01.942.942 0 0 0-.846.528 6.832 6.832 0 0 0-.646 2.336.81.81 0 0 0 .298.708.932.932 0 0 0 .088.081c-1.824.646-10.46 4.141-9.705 12.093q.034.378.097.77h-4.593a.2.2 0 0 0-.202.202v5.164a.2.2 0 0 0 .202.202l16.377-.02a9.2 9.2 0 0 0 17.553.02h16.4a.2.2 0 0 0 .202-.202v-5.164a.2.2 0 0 0-.201-.202l-5.83.027a13.188 13.188 0 0 0-5.45-10.49c-.042-.032-.085-.061-.127-.093-.073-.054-.147-.111-.219-.163l-.02-.014c-.5-.367-1.001-.698-1.494-.99l7.493-9.942.381.298a.837.837 0 0 0 .518.182l.104-.008a.766.766 0 0 0 .522-.3l7.368-9.663a.828.828 0 0 0-.166-1.148l-.296-.195-.006-.005zm-3.958.56 1.749-2.288a.685.685 0 0 1 .46-.263.91.91 0 0 1 .1-.006.762.762 0 0 1 .469.167l.695.544a.754.754 0 0 1 .164 1.042l-1.645 2.327zM60.558 29.26l.013.043a16.47 16.47 0 0 1 4.488-.618 15.53 15.53 0 0 1 5.133.856c.94.328 3.134 1.291 3.2 3.142a3.06 3.06 0 0 1-2.294 2.706 3.65 3.65 0 0 1-.348.086 7.874 7.874 0 0 1 .283-1.128l.022-.15.016-.047-.009-.003.004-.024-.033-.03-.002-.01c-.004-.003-.01-.002-.014-.005l-.063-.058-.188.074a19.101 19.101 0 0 0-2.296 1.163 16.372 16.372 0 0 1-2.714-1.151.206.206 0 0 0-.18.11.189.189 0 0 0-.013.153.324.324 0 0 0 .1.118 13.119 13.119 0 0 0 2.155.932c.076.027.147.063.224.088-.296.179-.601.37-.922.58a11.076 11.076 0 0 1-3.908.828 6.32 6.32 0 0 1-1.75-.238 4.74 4.74 0 0 1-1.946-1.127.2.2 0 0 0-.14-.056.337.337 0 0 0-.145.064.2.2 0 0 0 .006.284 4.46 4.46 0 0 0 1.697 1.02c.044.017.08.043.124.058a7.35 7.35 0 0 1-4.222 1.339 8.667 8.667 0 0 1-2.816-.514c-.042-.015-.083-.026-.125-.043a1.92 1.92 0 0 0 .196-.825 1.84 1.84 0 0 0-1.43-1.808c-.06-.017-.119-.035-.181-.046a8.98 8.98 0 0 1 2.212-2.61 15.577 15.577 0 0 1 5.777-3.08l.008.003c.02 0 .04-.025.053-.066l.003-.002zm2.63 36.116-.002.002-.001.007a.238.238 0 0 0-.033.065l-5.254 6.952-.409.538a8.005 8.005 0 0 0-1.933-1.21c-.065-.032-.125-.073-.192-.104l5.508-7.246a.101.101 0 0 0 .057-.103l.007-.016-.013-.005v-.001l.005-.002.04.008 7.858-10.42.036-.048 1.996 1.526-7.582 9.971a.17.17 0 0 0-.087.086zM42.744 79.972a8.81 8.81 0 1 1 17.622 0 8.812 8.812 0 0 1-17.25 2.535.035.035 0 0 0-.029-.018h.023a8.827 8.827 0 0 1-.366-2.517zM43.6 62.76l-.003.063-.003.003-.002-.004v.006l-.008.01c-.012.004-.019.056-.02.068v.097h.028l-.028.112a5.219 5.219 0 0 1-.236 1.395l-.207.004a6.005 6.005 0 0 1-2.188-.4.531.531 0 0 1-.326-.542 6.382 6.382 0 0 1 .607-2.198.551.551 0 0 1 .533-.294h.016a7.053 7.053 0 0 0 .996.073c.186 0 .393-.007.471-.1a7.353 7.353 0 0 1 .353 1.504.493.493 0 0 0 .017.203zm-5.113-26.41h-.022l-.038-.054-.28-.1a4.652 4.652 0 0 1-.125-3.151l.036-.139c2.475 1.85 5.723 2.34 8.865 2.59.83.068 1.74.117 2.697.149q.49.025 1.007.048a1.915 1.915 0 0 0-.424 1.185 1.833 1.833 0 0 0 .82 1.523 1.964 1.964 0 0 0 .403.225 44.795 44.795 0 0 1-12.603-2.131l-.278-.103c-.01-.004-.021-.025-.028-.025l-.019.017-.003-.002a.027.027 0 0 0-.008-.032zm35.296 8.581-3.68 4.867a14.28 14.28 0 0 0-6.337-1.697 7.775 7.775 0 0 0-3.802.92l-.005.003c-.198.098-.4.191-.59.306a20.534 20.534 0 0 1 3.709-8.916 19.553 19.553 0 0 1 6.27-5.243l.054-.03c.13-.073.268-.142.4-.214.309-.156.559-.274.74-.355-1.137 3.924.948 7.47 2.297 9.237a8.456 8.456 0 0 0 .944 1.122zm-3.932 5.159-1.653 2.167a.827.827 0 0 0 .166 1.147l.282.187-7.858 10.401a18.644 18.644 0 0 0-3.756-1.148l-.077-.016a.867.867 0 0 0 .069-.266 7.587 7.587 0 0 0-1.058-3.795.475.475 0 0 0-.316-.245 2.422 2.422 0 0 0-.106-.013.452.452 0 0 0-.279.093c-.136.103-.349.247-.594.424a5.594 5.594 0 0 1-.425-2.8l-.027-.079v-.014l-.002-.019a6.771 6.771 0 0 0 1.793.266 4.875 4.875 0 0 0 2.013-.416c2.092-.936 3.346-3.37 3.707-7.208a8.627 8.627 0 0 1 2.038-.252 14.001 14.001 0 0 1 5.903 1.492l.18.094zM50.607 36.877a1.54 1.54 0 1 1 3.08 0 1.574 1.574 0 0 1-.243.83 1.54 1.54 0 0 1-2.837-.83zm5.781 1.73c-.95.041-1.867.065-2.721.065-.266 0-.523-.004-.781-.009a1.93 1.93 0 0 0 .82-.635 7.733 7.733 0 0 0 2.184.54c.167.022.333.03.498.04zm1.975-.112a7.68 7.68 0 0 0 1.302-.39 1.51 1.51 0 0 1-.322.313c-.3.027-.6.045-.898.062zM61.08 50.45a8.53 8.53 0 0 1-1.722 3.994c-9.294-1.227-8.96-14.092-8.921-15.464 1.07.06 2.154.095 3.25.095.55 0 1.135-.02 1.717-.04.113 1.123.76 6.004 3.69 9.538-.113.573-.164.958-.178 1.066l.033.3c.001.002.11-.002.116-.004l.165-.11c.212-.142.442-.258.669-.379a10.886 10.886 0 0 0 1.181 1.004zm-5.363-11.421a59.74 59.74 0 0 0 3.011-.183 14.916 14.916 0 0 1 2.138 4.366 22.482 22.482 0 0 0-1.683 4.934 19.278 19.278 0 0 1-3.466-9.117zM59.1 54.733a4.263 4.263 0 0 1-1.243.862 4.48 4.48 0 0 1-1.848.38 9.797 9.797 0 0 1-5.23-2.048c-5.748-4.394-4.05-14.037-3.809-15.25 1.032.126 2.09.219 3.16.285-.057 1.232-.434 14.33 8.97 15.771zm2.23-5.91q-.07.666-.174 1.27a14.396 14.396 0 0 1-.974-.807 9.94 9.94 0 0 1 .774-.324c.126-.044.245-.102.375-.14zm1.88-11.503a8.572 8.572 0 0 0 2.32-.34c.197-.05.396-.103.598-.164a16.927 16.927 0 0 0-3.386 3.37l-.067.09a12.653 12.653 0 0 0-1.206 1.903c-.111.198-.228.383-.335.59a13.4 13.4 0 0 0-1.49-3.19 15.04 15.04 0 0 0-.49-.75l.3-.023a1.51 1.51 0 0 0 .773-.961l.036.016a5.146 5.146 0 0 0 1.224-.783 6.51 6.51 0 0 0 1.723.242zm-8.504 22.12a3.838 3.838 0 0 0 .665-.455c.034-.024.082-.055.11-.076l.126.041a7.234 7.234 0 0 1 1.013 3.588.48.48 0 0 1-.27.41 20.39 20.39 0 0 1-8.981 2.027 21.636 21.636 0 0 1-2.806-.182 1.427 1.427 0 0 0-.17-.018l-.01.023a4.333 4.333 0 0 1-.088-3.582 27.2 27.2 0 0 0 2.175.092 16.68 16.68 0 0 0 8.236-1.868zm5.39-30.398a15.96 15.96 0 0 0-5.666 3.064 8.928 8.928 0 0 0-2.355 2.835 1.892 1.892 0 0 0-1.078.395 100.38 100.38 0 0 1-4.043-.245c-3.182-.255-6.455-.752-8.843-2.641a4.304 4.304 0 0 1-1.905-3.59 3.782 3.782 0 0 1 2.186-2.82 9.709 9.709 0 0 1 3.76-.823c.76-.049 1.535-.074 2.302-.074a36.517 36.517 0 0 1 12.152 2.097 14.02 14.02 0 0 1 2.946 1.41c.184.126.371.249.545.392zm-17.322 27.64a34.663 34.663 0 0 0 5.633-.618.19.19 0 0 0 .131-.083.336.336 0 0 0 .032-.15.21.21 0 0 0-.233-.164h-.002a33.556 33.556 0 0 1-5.873.622c-2.68 0-4.512-.573-5.297-1.659a2.57 2.57 0 0 1-.171-2.587 1.851 1.851 0 0 0 .208-.686l2.663.332a.203.203 0 0 0 .2-.176.2.2 0 0 0-.04-.15.197.197 0 0 0-.134-.076l-2.559-.293-.043-.005a6.51 6.51 0 0 0-.048-1.673c0-.028-.012-.058-.076-.132l-.115-.08a1.895 1.895 0 0 1-1.676-.806c-.559-.968-.152-2.81 1.206-5.474a21.851 21.851 0 0 0 1.903-5.834l.046-.235a35.647 35.647 0 0 0 7.776 1.801l.269.04c-.224 1.128-1.996 11.1 3.958 15.65a11.717 11.717 0 0 0 3.31 1.727l-.003.323a5.483 5.483 0 0 0 .493 2.889 16.289 16.289 0 0 1-7.851 1.718c-.73 0-1.488-.034-2.256-.1a.204.204 0 0 0-.177.093 2.221 2.221 0 0 0-.17.5c-.02.06-.04.126-.058.197l-.008.024a5.664 5.664 0 0 0-.232-.781.214.214 0 0 0-.204-.125h-.006a4.556 4.556 0 0 1-.548.03l-.116.027h-.037l-.017.002a9.233 9.233 0 0 0 .138-3.982l-.016-.105zm-1.698 7.902a6.63 6.63 0 0 0 2.03.335c.163 0 .268-.006.305-.009a.205.205 0 0 0 .168-.12 1.634 1.634 0 0 0 .126-.479c.012-.047.024-.092.035-.144a5.31 5.31 0 0 0 .299.847.38.38 0 0 0 .136.11 17.47 17.47 0 0 0 3.193.255 20.823 20.823 0 0 0 9.162-2.067.725.725 0 0 0 .201-.147 22.054 22.054 0 0 1 3.253.92c.173.065.345.13.526.202l-5.432 7.176a9.158 9.158 0 0 0-12.266 5.723l-11.473.023c-1.497-8.985 9.167-12.446 9.737-12.625zm29.46 12.602-10.194.02a8.947 8.947 0 0 0-2.629-4.032l2.792-3.742 2.847-3.723a13.689 13.689 0 0 1 7.153 11.034c.01.148.026.291.031.443zm5.602-34.492a.326.326 0 0 0 .053-.038l.002.034a.434.434 0 0 1 .267.095l3.09 2.415a.425.425 0 0 1 .096.584l-7.369 9.663a.423.423 0 0 1-.311.15.432.432 0 0 1-.263-.095l-3.09-2.417a.423.423 0 0 1-.096-.583l7.368-9.663a.376.376 0 0 1 .253-.145z"/><path class="cls-1" d="M28.02 81.51v-3.07h14.51a2.211 2.211 0 0 1 .05-.25H27.77v3.57h14.81a1.085 1.085 0 0 1-.04-.25zm32.51-3.32a2.211 2.211 0 0 1 .05.25h14.5v3.07H60.57a1.085 1.085 0 0 1-.04.25h14.8v-3.57z"/></g></svg>