<svg xmlns="http://www.w3.org/2000/svg" viewBox="0 0 103 160"><path fill="#fff" d="M0 0h103v160H0z"/><path d="M19.9 4.757h.453V20.33h2.702v2.125h-2.702v5.19h-2.216v-5.19H7.454zM18.139 20.33v-9.377l-6.615 9.377zm5.458 12.565a5.542 5.542 0 0 0-7.813 0l-.53.53-.53-.53A5.525 5.525 0 0 0 6.91 40.71l.53.53 7.813 7.813 8.344-8.343a5.54 5.54 0 0 0 0-7.815zM83.1 155.243h-.453V139.67h-2.702v-2.125h2.702v-5.19h2.215v5.19h10.685zm1.763-15.572v9.377l6.615-9.377zm-5.46-12.566a5.542 5.542 0 0 0 7.813 0l.53-.53.53.53a5.525 5.525 0 0 0 7.814-7.815l-.53-.53-7.813-7.813-8.344 8.343a5.54 5.54 0 0 0 0 7.815zM41.306 35.121a3.846 3.846 0 0 0-5.421 0l-.368.368-.368-.368a3.834 3.834 0 0 0-5.422 5.423l.368.369 5.422 5.421 5.79-5.79a3.845 3.845 0 0 0 0-5.423zm-11.579 89.758a3.846 3.846 0 0 0 5.422 0l.368-.368.368.368a3.834 3.834 0 1 0 5.422-5.423l-.368-.368-5.422-5.422-5.79 5.79a3.845 3.845 0 0 0 0 5.423zm31.967 0a3.846 3.846 0 0 0 5.421 0l.368-.368.368.368a3.834 3.834 0 1 0 5.422-5.423l-.368-.368-5.422-5.422-5.79 5.79a3.845 3.845 0 0 0 0 5.423zm11.579-89.758a3.846 3.846 0 0 0-5.422 0l-.368.368-.368-.368a3.834 3.834 0 1 0-5.422 5.423l.369.369 5.421 5.421 5.79-5.79a3.845 3.845 0 0 0 0-5.423z" fill="#d90000"/></svg>