<svg xmlns="http://www.w3.org/2000/svg" viewBox="0 0 103 160"><defs><style>.cls-1{fill:#fff}.cls-2{fill:#cd222b}.cls-3{fill:#383838}.cls-4{fill:#ffc614}.cls-5{fill:#1e4262}.cls-6{fill:#f9c19b}.cls-7{fill:#ea3d4e}.cls-8{fill:#9b0a0a}.cls-9{fill:#bcbbbb}</style></defs><g id="SPADES"><path class="cls-1" d="M0 0h103v160H0z"/><path d="M23.569 44.81a5.335 5.335 0 0 1-7.81.31l-.51-.51-.51.51a5.324 5.324 0 0 1-7.8-.31 5.404 5.404 0 0 1 .37-7.29l.43-.43a27.144 27.144 0 0 0 2.5-1.9 28.006 28.006 0 0 0 5.01-5.61 28.406 28.406 0 0 0 5.02 5.61 25.858 25.858 0 0 0 2.5 1.9c.14.15.28.29.43.43a5.404 5.404 0 0 1 .37 7.29z"/><path d="m15.253 46.915-3.741 3.844h7.481l-3.74-3.844zm3.249-42.158h2.23v15.071a14.787 14.787 0 0 1-.538 4.834 4.508 4.508 0 0 1-1.798 2.17 5.512 5.512 0 0 1-3.051.812 7.134 7.134 0 0 1-2.664-.524 11.298 11.298 0 0 1-2.906-1.844l1.184-1.775a17.535 17.535 0 0 0 2.904 1.73 3.697 3.697 0 0 0 1.49.334 2.873 2.873 0 0 0 1.742-.577 3.016 3.016 0 0 0 1.096-1.533 14.238 14.238 0 0 0 .31-3.703zM79.431 115.19a5.335 5.335 0 0 1 7.81-.31l.51.51.51-.51a5.324 5.324 0 0 1 7.8.31 5.404 5.404 0 0 1-.37 7.29l-.43.43a27.144 27.144 0 0 0-2.5 1.9 28.006 28.006 0 0 0-5.01 5.61 28.406 28.406 0 0 0-5.02-5.61 25.858 25.858 0 0 0-2.5-1.9c-.14-.15-.28-.29-.43-.43a5.404 5.404 0 0 1-.37-7.29z"/><path d="m87.747 113.085 3.741-3.844h-7.481l3.74 3.844zm-3.249 42.158h-2.23v-15.071a14.787 14.787 0 0 1 .538-4.834 4.508 4.508 0 0 1 1.799-2.17 5.512 5.512 0 0 1 3.05-.812 7.134 7.134 0 0 1 2.664.524 11.298 11.298 0 0 1 2.906 1.844l-1.184 1.775a17.535 17.535 0 0 0-2.904-1.73 3.697 3.697 0 0 0-1.49-.334 2.873 2.873 0 0 0-1.742.577 3.016 3.016 0 0 0-1.096 1.533 14.238 14.238 0 0 0-.31 3.703zM77.5 115.807a15.172 15.172 0 0 0-3.39-.393 11.848 11.848 0 0 0-4.507.873c-.098.039-.203.07-.3.11l-.002-.004a6.282 6.282 0 0 1-1.198-3.693 14.275 14.275 0 0 0-1.562-8.704 9.753 9.753 0 0 0-2.646-3.192 5.097 5.097 0 0 0-.207-.142l-.07-.047a3.184 3.184 0 0 0-.336-3.817 5.956 5.956 0 0 1 2.265-1.525v-.005h.012l.005-.004-.004.012c.132.012.265.025.39.025a5.047 5.047 0 0 0 1.766-.325 6.55 6.55 0 0 0 3.345-3.006c1.73-3.136 1.548-7.038 1.251-9.145h4.4a.482.482 0 0 0 .276-.265v-5.182a.203.203 0 0 0-.202-.203l-7.417.028-.028-20.079v-.034h.337a.203.203 0 0 0 .203-.203l-.028-4.627h1.514a1.045 1.045 0 0 0 1.024-1.106 1.026 1.026 0 0 0-1.024-1.024l-1.901.028a3.642 3.642 0 1 0-3.204-.028h-1.858a1.045 1.045 0 0 0-1.024 1.106 1.026 1.026 0 0 0 1.024 1.025h1.486v4.627a.203.203 0 0 0 .203.202h.514l.005 13.594a33.04 33.04 0 0 0-8.376-8.26 17.85 17.85 0 0 0-.226-.155l.005-.005a3.325 3.325 0 0 0 .171-1.123 3.97 3.97 0 0 0-1.476-2.58.454.454 0 0 0-.283-.06h-.042a.455.455 0 0 0-.26.19 14.164 14.164 0 0 1-.568-3.802v-.034l.005-.001a4.456 4.456 0 0 0 3-1.41 3.082 3.082 0 0 0-.008-3.099 8.853 8.853 0 0 1-.51-2.73 2.998 2.998 0 0 0 1.997-1.617c.24-.77-.073-1.746-.982-3.075-1.842-2.693-2.018-7.04-2.025-7.227a16.063 16.063 0 0 1 .08-2.648 7.977 7.977 0 0 1 .188-.94c.012-.016.028-.018.038-.043a5.5 5.5 0 0 1 .112-.356c.44-1.232.952-3.543-.557-5.186-1.115-1.215-3.108-1.83-5.925-1.83a43.026 43.026 0 0 0-10.456 1.684c-.47.094-11.519 2.35-12.745 6.914-.394 1.466.282 2.998 2.009 4.555l-.086.508a7.931 7.931 0 0 1-.874 2.942 7.59 7.59 0 0 1-3.362 2.516.203.203 0 0 0 .044.381 15.172 15.172 0 0 0 3.39.393 11.847 11.847 0 0 0 4.507-.873c.098-.039.203-.07.3-.11l.002.004a6.282 6.282 0 0 1 1.198 3.693 14.275 14.275 0 0 0 1.562 8.704 9.752 9.752 0 0 0 2.646 3.192c.068.05.137.096.207.142l.07.047a3.184 3.184 0 0 0 .336 3.817 5.957 5.957 0 0 1-2.265 1.525v.005h-.012l-.005.004.004-.012c-.132-.012-.265-.025-.39-.025a5.048 5.048 0 0 0-1.766.325 6.55 6.55 0 0 0-3.345 3.006c-1.73 3.136-1.548 7.038-1.251 9.145h-4.4a.482.482 0 0 0-.276.265v5.182a.203.203 0 0 0 .202.202l7.417-.027.028 20.078v.034h-.337a.203.203 0 0 0-.203.203l.028 4.627h-1.514a1.045 1.045 0 0 0-1.024 1.107 1.026 1.026 0 0 0 1.024 1.024l1.901-.028a3.642 3.642 0 1 0 3.204.028h1.858a1.045 1.045 0 0 0 1.024-1.106 1.026 1.026 0 0 0-1.024-1.025H37.11v-4.627a.203.203 0 0 0-.203-.203h-.514l-.005-13.593a33.04 33.04 0 0 0 8.376 8.26l.226.155-.005.005a3.325 3.325 0 0 0-.171 1.123 3.97 3.97 0 0 0 1.475 2.58.453.453 0 0 0 .284.06h.042a.456.456 0 0 0 .26-.19 14.164 14.164 0 0 1 .568 3.802v.034h-.001l-.005.001a4.456 4.456 0 0 0-2.999 1.41 3.082 3.082 0 0 0 .007 3.098 8.853 8.853 0 0 1 .51 2.73 2.998 2.998 0 0 0-1.996 1.618c-.24.77.072 1.746.981 3.075 1.843 2.692 2.019 7.04 2.025 7.227a16.063 16.063 0 0 1-.08 2.648 7.959 7.959 0 0 1-.187.94c-.012.016-.029.018-.039.043a5.5 5.5 0 0 1-.111.356c-.44 1.232-.952 3.543.556 5.186 1.115 1.215 3.109 1.83 5.926 1.83a43.03 43.03 0 0 0 10.456-1.684c.47-.094 11.519-2.35 12.745-6.914.394-1.466-.282-2.998-2.01-4.555l.086-.508a7.932 7.932 0 0 1 .874-2.942 7.59 7.59 0 0 1 3.362-2.516.203.203 0 0 0-.043-.381zm-42.662-5.937zm33.324-59.74zM31.075 77.2h2.19l-.907.003h-1.284zm40.85 5.599h-2.19l.907-.002h1.284zM41.709 60.003a7.198 7.198 0 0 1-.803-.648 6.984 6.984 0 0 0 .804.648zm-5.338-18.07c.027.06.056.13.083.194l-.083-.193zm24.92 58.064a7.175 7.175 0 0 1 .804.649 6.99 6.99 0 0 0-.804-.649zm5.338 18.07-.083-.194.083.193zm1.107 8.58c.044.006.089.006.133.009-.044-.004-.09-.003-.133-.008zm-2.72-6.717c-.078.014-.153.03-.23.043.076-.014.152-.03.23-.043zm-7.092-16.027zm-.543-.563a9.434 9.434 0 0 0-1.05-.84 9.13 9.13 0 0 1 1.05.84zm-1.491-1.132zm2.893 2.836c.075.12.154.24.223.363-.069-.123-.147-.242-.223-.363zm-.65-.9zm-5.81-.653.042.016-.041-.016zm7.462 5.804-.01-.026zm.277-7.135-.013-.012zm-.767-.645c-.207-.156-.413-.312-.636-.453-.047-.032-.099-.061-.146-.093.274.176.54.355.782.545zm2.793 18.63c-.146.033-.298.058-.443.093-.147.032-.299.062-.444.094.29-.064.59-.125.888-.187zm-.355-18.467-.135-.08a9.567 9.567 0 0 1 1.413.998l-.15-.126a9.58 9.58 0 0 0-1.127-.791zm-.533 19.019zm3.107.646a7.34 7.34 0 0 0-.325.978 7.97 7.97 0 0 1 .325-.978zm.396-.833-.064.118.065-.118zm1.71-2.948c.03.068.059.142.087.206l-.086-.206zm-4.293-16.89a8.036 8.036 0 0 1 .69.733 8.33 8.33 0 0 0-.69-.734zM37.984 40.07c.078-.014.152-.03.23-.043-.077.014-.152.03-.23.043zm2.154 17.46a9.595 9.595 0 0 0 1.128.791 9.577 9.577 0 0 1-1.128-.791zm1.128.791c.046.027.09.055.136.08a3.992 3.992 0 0 1-.136-.08zm.533-18.654q-.75.167-1.526.323c.36-.077.727-.143 1.081-.229.147-.031.3-.061.445-.094zm1.347 10.84v.002-.002zm1.93 5.59zm.543.562a9.434 9.434 0 0 0 1.05.84 9.119 9.119 0 0 1-1.05-.84zm1.491 1.133zm-2.893-2.836c-.075-.12-.154-.24-.223-.363.069.123.147.242.223.363zm.65.9zm5.768.637.012.005zm-7.016-4.817zm-.407-.978.013.036zm1.128 8.24c.048.032.099.062.146.093a10.509 10.509 0 0 1-.781-.545c.206.155.412.31.635.452zm-1.39-1.087-.013-.01zM41.8 39.303zm-1.67.355-.005.001zm-.013 17.392zm.021.48-.15-.126.15.126zm14.798-15.966a1.243 1.243 0 0 0-.45-.42 1.229 1.229 0 0 1 .45.42zm.13.285a1.129 1.129 0 0 0-.098-.217 1.135 1.135 0 0 1 .098.217zm.13-1.782v.001l.25.232zM43.117 39c-.28.067-.566.132-.852.197.286-.066.573-.13.853-.197zm-7.986-5.655c.045.004.09.003.134.008-.044-.005-.09-.005-.134-.008zm3.887 4.334a7.94 7.94 0 0 1-.326.98 7.33 7.33 0 0 0 .325-.98zm-.722 1.812c.022-.04.044-.079.064-.119a7.45 7.45 0 0 1-.064.119zm-1.71 2.948c-.029-.068-.058-.143-.087-.206.03.069.057.132.087.206zm3.31 15.136-.023-.035zm.983 1.753a8.032 8.032 0 0 1-.689-.732 8.297 8.297 0 0 0 .689.732zm7.185 59.11a1.244 1.244 0 0 0 .45.42 1.231 1.231 0 0 1-.45-.42zm-.13-.286a1.122 1.122 0 0 0 .094.207 1.134 1.134 0 0 1-.094-.207zm2.334-.03a1.123 1.123 0 0 0 .046-.297 1.127 1.127 0 0 1-.046.296zm-2.464 1.811-.25-.232zm12.079 1.069c.28-.067.566-.132.852-.197-.286.066-.573.13-.853.197zm8.607 4.566a3.648 3.648 0 0 1-.372.372 3.64 3.64 0 0 0 .372-.372zm-3.063-6.167c.172-.224.35-.443.544-.652-.076.089-.155.177-.227.268a12.91 12.91 0 0 0-.317.384zm-2.38-17.691a8.528 8.528 0 0 0-.133-.17 10.706 10.706 0 0 1 1.391 2.31 10.743 10.743 0 0 0-1.257-2.14zm1.532 2.786c.032.083.061.166.092.248l-.091-.248zm-1.753-7.556h.002zm-2.47-19.738h1.793l-.429.002h-1.364zm6.276-.286v-.18l.002.44h-.002zM44.576 35.929zm-5.373 1.055h.002zm2.617-.443.093-.017c-.031.006-.062.01-.093.017zm-7.31-2.108a3.646 3.646 0 0 1 .372-.371 3.63 3.63 0 0 0-.372.371zm3.063 6.167c-.172.224-.35.443-.544.652.076-.089.155-.176.227-.268.108-.126.214-.254.317-.384zm2.379 17.691a10.884 10.884 0 0 1-1.258-2.139 10.746 10.746 0 0 0 1.258 2.14zm-1.532-2.786c-.032-.082-.061-.165-.092-.248.031.083.06.166.092.248zm1.753 7.556h-.002zM42.644 82.8h-1.793l.429-.002h1.365zm-6.276.286v.18l-.002-.44h.002zm22.055 40.986zm5.374-1.055h-.002zm-2.617.443-.093.017.093-.017zm6.76-9.05c.011.035.027.071.039.106-.011-.034-.028-.071-.039-.106zm.33.841a10.158 10.158 0 0 0 .001 0zm-5.336-18.639h-.003c.024-.027.052-.047.077-.072-.025.024-.05.047-.074.072zm.788-.719a6.079 6.079 0 0 0-.435.385c.143-.134.285-.268.435-.385zM29.929 37.247a2.35 2.35 0 0 1-.022.092c.006-.031.016-.061.022-.092zm-.125.585.004.004-.002.014-.009-.006zm5.256 7.759c-.011-.035-.027-.072-.04-.107.012.035.03.072.04.107zm-.331-.842zm5.337 18.64h.003c-.025.027-.052.046-.077.072.025-.024.05-.047.074-.072zm-.788.719c.148-.122.295-.246.435-.385-.143.134-.285.268-.435.385zm33.793 58.645v-.001c.006-.03.014-.06.022-.09-.007.03-.016.06-.022.091zm.125-.585-.004-.004.002-.014.008.006zm2.996-6.205.38.056c-.126-.022-.253-.038-.38-.056zM55.42 54.5c.127-.019.26-.034.38-.056-.12.022-.25.038-.38.056zm2.683-4.17a3.254 3.254 0 0 1-.567.179 3.16 3.16 0 0 0 .567-.178zm-31.676-6.35c.127.022.254.038.381.056l-.381-.056zm21.153 61.518c-.127.019-.26.034-.38.056.12-.022.25-.038.38-.056zm-2.683 4.17a3.246 3.246 0 0 1 .567-.179 3.15 3.15 0 0 0-.567.178z"/><path class="cls-2" d="M60.971 100.49a6.525 6.525 0 0 1 .935.449 6.701 6.701 0 0 0-1.58-1.11.197.197 0 0 1-.079-.235.174.174 0 0 1 .157-.097.37.37 0 0 1 .076.017 1.59 1.59 0 0 0 .518.079 2.469 2.469 0 0 1 .455.051 6.53 6.53 0 0 1 1.837.782 2.81 2.81 0 0 0-.296-3.42 23.597 23.597 0 0 0-8.605-1.647 18.921 18.921 0 0 0-6.386 1.065c-.013.083-.506 1.236.496 3.516a47.804 47.804 0 0 1 5.857-.385 18.664 18.664 0 0 1 6.583.922l.022.004c.005.001.006.006.01.008z"/><path class="cls-3" d="M67.728 112.657a13.924 13.924 0 0 0-1.52-8.48 9.351 9.351 0 0 0-2.54-3.07 6.428 6.428 0 0 0-2.3-1.125 1.042 1.042 0 0 0-.123-.02c4.265 2.884 4.742 10.159 4.565 12.531a11.77 11.77 0 0 0 1.103 5.35 9.809 9.809 0 0 1 2.032-1.301 6.454 6.454 0 0 1-1.217-3.885z"/><path class="cls-4" d="M66.255 124.338a.176.176 0 0 1-.116-.219.174.174 0 0 1 .168-.123.323.323 0 0 1 .05.007 2.901 2.901 0 0 1 1.74 1.957 6.084 6.084 0 0 0 1.485-2.195 3.602 3.602 0 0 0-1.879-1.746.175.175 0 0 1 .046-.344l.043.005a3.675 3.675 0 0 1 1.948 1.659 4.413 4.413 0 0 0 .278-1.54.175.175 0 0 1 .35-.015 4.604 4.604 0 0 1-.265 1.548 3.49 3.49 0 0 1 1.59-.336c.115 0 .235.005.36.013a.197.197 0 0 1 .162.187.183.183 0 0 1-.174.163 4.819 4.819 0 0 0-.343-.012 2.542 2.542 0 0 0-1.791.537l-.007.004a7.461 7.461 0 0 1-1.132 1.886 4.459 4.459 0 0 1 1.308-.213.175.175 0 1 1 0 .35 4.778 4.778 0 0 0-1.99.51h-.002a3.075 3.075 0 0 1-.4.224 4.359 4.359 0 0 0 .51.03 4.577 4.577 0 0 0 4.04-2.443 9.235 9.235 0 0 0 .7-2.643 8.22 8.22 0 0 1 .926-3.084 7.17 7.17 0 0 1 3.061-2.434 14.593 14.593 0 0 0-2.81-.278h-.001a11.75 11.75 0 0 0-5.004 1.06 8.667 8.667 0 0 0-4.982 6.388 3.303 3.303 0 0 0 .562 2.651 2.246 2.246 0 0 0 1.688.69 2.766 2.766 0 0 0 1.423-.4 2.65 2.65 0 0 0-1.542-1.844z"/><path class="cls-5" d="M65.052 119.924a91.335 91.335 0 0 0-18.69 5.41 11.928 11.928 0 0 1-.254 2.366c1.757-.708 10.377-4.071 17.786-5.051a8.174 8.174 0 0 1 1.158-2.725z"/><path class="cls-3" d="m62.963 114.295.013-.322c.107-2.68.253-6.567-1.684-9.721a8.842 8.842 0 0 0-6.768-2.829h-.137c7.167 3.008 6.039 10.567 5.61 13.442a8.04 8.04 0 0 0 1.204 5.468c1-.222 2.037-.43 3.098-.627-.458-.565-1.462-2.18-1.336-5.411z"/><path class="cls-6" d="M57.11 119.214a7.47 7.47 0 0 1 .264-3.583 14.398 14.398 0 0 0 .345-1.756 9.978 9.978 0 0 0-3.476-8.946 8.727 8.727 0 0 0-1.893-1.052 8.17 8.17 0 0 0-1.043-.34.174.174 0 0 1 .018-.342 8.027 8.027 0 0 1 1.146-.084 7.342 7.342 0 0 1 2.177.325 8.591 8.591 0 0 1 5 4.635 8.822 8.822 0 0 0-6.139-6.607.176.176 0 0 1-.117-.183.174.174 0 0 1 .15-.156 7.642 7.642 0 0 1 .993-.053 9.86 9.86 0 0 1 5.516 1.59 10.357 10.357 0 0 0-3.353-2.287.173.173 0 0 1-.1-.202.176.176 0 0 1 .17-.133h.007a12.863 12.863 0 0 1 3.871 1.068 1.656 1.656 0 0 1 .044-.34 19.191 19.191 0 0 0-6.363-.847 48.974 48.974 0 0 0-5.903.383h-.008a.178.178 0 0 1-.184-.101c-.058-.129-.093-.238-.143-.36a9.76 9.76 0 0 1-.004.417.175.175 0 0 1-.136.163 1.546 1.546 0 0 0-.799.487 12.88 12.88 0 0 1 .643 4.21 16.136 16.136 0 0 1 1.975-.112 33.16 33.16 0 0 1 3.819.253.198.198 0 0 1 .153.196.184.184 0 0 1-.182.154 33.22 33.22 0 0 0-3.818-.255c-2.618 0-4.3.479-4.999 1.424a2.762 2.762 0 0 0 .049 2.722c.026.058.044.121.067.181a4.697 4.697 0 0 1 1.921-.328 10.212 10.212 0 0 1 1.475.11.198.198 0 0 1 .145.2.17.17 0 0 1-.165.149 10.79 10.79 0 0 0-1.459-.106 4.362 4.362 0 0 0-1.798.305 9.78 9.78 0 0 1 .342 2.519.176.176 0 0 1-.112.161c-.852.328-1.67.726-1.886 1.42-.2.643.105 1.542.932 2.752 1.934 2.824 2.09 7.373 2.09 7.418.003.03.019.285.022.671a86.865 86.865 0 0 1 11.653-3.855 4.543 4.543 0 0 1-.907-1.885zm-5.151-1.448a.174.174 0 0 1-.096.095l-4.332 1.818.915.848a.197.197 0 0 1 .01.248.356.356 0 0 1-.128.056.175.175 0 0 1-.12-.046l-1.114-1.034a.362.362 0 0 1-.054-.159.174.174 0 0 1 .106-.131l1.394-.585a1.186 1.186 0 0 1-.653-1.052 1.214 1.214 0 0 1 2.427 0 1.156 1.156 0 0 1-.05.329l1.466-.616.067-.013a.175.175 0 0 1 .162.106.365.365 0 0 1 0 .136z"/><path class="cls-5" d="M36.368 88.599v-5.8h6.306a9.213 9.213 0 0 0 8.787 6.445 8.25 8.25 0 0 0 1.079-.065 8.954 8.954 0 0 0 2.323-.59 9.198 9.198 0 0 0 4.481-3.808 14.784 14.784 0 0 0 1.586 6.989 6.66 6.66 0 0 0 3.992 3.365 5.438 5.438 0 0 0-.553.305 6.522 6.522 0 0 0-1.438 1.17 2.36 2.36 0 0 1-.203-.082 24.396 24.396 0 0 0-8.344-1.522 19.416 19.416 0 0 0-2.213.12 17.97 17.97 0 0 0-2.471.434h-.01a17.672 17.672 0 0 0-1.843.544.67.67 0 0 0-.083.074 2.167 2.167 0 0 0-.221.839 3.624 3.624 0 0 0-.23-.37.239.239 0 0 0-.102-.064 2.086 2.086 0 0 0-.433-.046 1.957 1.957 0 0 0-1.217.397 1.878 1.878 0 0 0-.397.489 33.073 33.073 0 0 1-8.796-8.825z"/><path class="cls-4" d="M52.54 89.18a8.954 8.954 0 0 0 2.324-.59l9.505 6.85a6.522 6.522 0 0 0-1.438 1.17 2.36 2.36 0 0 1-.203-.082zm-16.172-3.772v-2.323L52.17 95.126a17.97 17.97 0 0 0-2.471.434h-.01z"/><path class="cls-2" d="M45.904 128.417c-.411 1.151-.896 3.307.478 4.804 1.043 1.136 2.939 1.712 5.634 1.712a42.909 42.909 0 0 0 10.386-1.678c.466-.095 11.316-2.37 12.465-6.644.343-1.278-.254-2.635-1.753-4.038a7.115 7.115 0 0 1-.567 1.815 4.937 4.937 0 0 1-4.358 2.638 4.437 4.437 0 0 1-1.153-.15 4.703 4.703 0 0 1-.66.055 2.596 2.596 0 0 1-1.95-.806 3.625 3.625 0 0 1-.648-2.933c.008-.06.028-.118.038-.178-7.768 1.053-16.823 4.7-17.816 5.106-.03.1-.061.2-.096.297zM31.857 113.1a3.257 3.257 0 1 0 3.257-3.257 3.261 3.261 0 0 0-3.257 3.256z"/><path class="cls-7" d="M35.558 113.846a.72.72 0 1 0 .72-.72.72.72 0 0 0-.72.72z"/><path class="cls-8" d="M34.47 116.292a3.25 3.25 0 0 1 2.585-5.793 3.227 3.227 0 0 0-1.94-.656 3.257 3.257 0 0 0-.644 6.449z"/><path class="cls-3" d="M59.65 114.814a20.796 20.796 0 0 0 .245-5.194c-.239-.777-1.617-4.695-5.35-5.85a6.997 6.997 0 0 0-2.069-.31l-.222.003.223.086a8.98 8.98 0 0 1 1.979 1.103 10.327 10.327 0 0 1 3.612 9.261 14.64 14.64 0 0 1-.35 1.785 7.231 7.231 0 0 0-.267 3.431 3.842 3.842 0 0 0 .95 1.873q1.18-.3 2.437-.586a8.46 8.46 0 0 1-1.188-5.602z"/><path class="cls-4" d="M30.987 108.764a.67.67 0 0 0 .646.73h6.963a.648.648 0 0 0 .646-.648.67.67 0 0 0-.646-.73h-6.963a.648.648 0 0 0-.646.648z"/><path class="cls-2" d="M47.739 100.117a6.326 6.326 0 0 0-.685-3.231c0 .01-.02.013-.055.013-.05 0-.13-.007-.221-.007a1.588 1.588 0 0 0-.996.314 1.984 1.984 0 0 0-.592 1.628 3.612 3.612 0 0 0 1.31 2.292l.02.006v.075l.01-.077a2.307 2.307 0 0 1 1.209-1.013z"/><path class="cls-4" d="M59.74 84.219a.167.167 0 0 0-.027-.11 9.09 9.09 0 0 0 .544-1.31h11.69c.287 2.084.48 5.92-1.216 8.99a6.237 6.237 0 0 1-3.153 2.84 4.82 4.82 0 0 1-1.623.295 3.635 3.635 0 0 1-.535-.037c-2.49-.313-3.918-2.784-4.176-3.282a14.28 14.28 0 0 1-1.503-7.386z"/><path class="cls-3" d="M62.968 82.8h7.237a20.651 20.651 0 0 1-3.411 4.581 12.11 12.11 0 0 1-3.826-4.582z"/><path class="cls-4" d="M33.497 107.767h3.235v-4.48h-3.235v4.48z"/><path class="cls-9" d="M34.009 82.825h2.006v20.113h-2.006z"/><path class="cls-3" d="M57.879 100.564a9.82 9.82 0 0 1 3.7 3.478c.024.027.049.051.072.08a.293.293 0 0 1 .029.076c1.903 3.212 1.753 7.112 1.645 9.79l-.012.321c-.137 3.487 1.12 5.033 1.387 5.322.212-.038.418-.08.632-.116a9.377 9.377 0 0 1 1.307-1.425 12.233 12.233 0 0 1-1.178-5.624 19.834 19.834 0 0 0-1.32-8.15c-.004-.004-.011-.003-.015-.007a10.187 10.187 0 0 0-6.247-3.745z"/><path class="cls-1" d="M61.007 101.278a9.561 9.561 0 0 1 2.523 1.792 9.621 9.621 0 0 0-.813-1.23.308.308 0 0 1-.089.033h-.008a.153.153 0 0 1-.118-.052 4.632 4.632 0 0 0-1.486-.925 1.329 1.329 0 0 0-.01.382z"/><path d="m47.608 105.52.061-.012-.007-.006a.435.435 0 0 0-.054.019zm.582 15.286a.205.205 0 0 0 .138.053.362.362 0 0 0 .149-.065.226.226 0 0 0-.011-.287l-.662-.575-.25-.232 4.32-1.814a.2.2 0 0 0 .111-.11.374.374 0 0 0 0-.157.203.203 0 0 0-.187-.123l-.078.016-1.451.608a1.129 1.129 0 0 0 .046-.296 1.214 1.214 0 0 0-2.428 0 1.18 1.18 0 0 0 .627 1.033l-1.377.577a.203.203 0 0 0-.124.154.367.367 0 0 0 .062.184zm-1.064-39.003 4.336 4.336 4.335-4.336.247-.246a3.112 3.112 0 0 0 .216-4.203 3.074 3.074 0 0 0-4.504-.182l-.294.295-.295-.295a3.074 3.074 0 0 0-4.503.181 3.112 3.112 0 0 0 .216 4.204z"/><path d="m51.391 76.065.07.073h.001l.02.018 1.243-1.316.895-.92h-.026l.026-.028h-4.316a.029.029 0 0 0-.026.017.028.028 0 0 0 .006.03z"/><path d="m26.214 82.825 7.417-.028.027 20.079v.034h-.336a.203.203 0 0 0-.203.202l.027 4.627h-1.513a1.045 1.045 0 0 0-1.024 1.107 1.026 1.026 0 0 0 1.024 1.025l1.901-.028a3.642 3.642 0 1 0 3.204.028h1.858a1.045 1.045 0 0 0 1.024-1.107 1.026 1.026 0 0 0-1.024-1.025H37.11v-4.627a.203.203 0 0 0-.203-.202h-.514l-.005-13.594a33.04 33.04 0 0 0 8.376 8.26l.226.155-.005.005a3.325 3.325 0 0 0-.171 1.123 3.97 3.97 0 0 0 1.475 2.58.454.454 0 0 0 .284.06h.042a.456.456 0 0 0 .26-.19 14.16 14.16 0 0 1 .568 3.802v.034h-.001l-.005.001a4.455 4.455 0 0 0-2.999 1.41 3.082 3.082 0 0 0 .007 3.099 8.855 8.855 0 0 1 .51 2.73 2.998 2.998 0 0 0-1.996 1.618c-.24.769.072 1.746.982 3.075 1.842 2.692 2.018 7.04 2.025 7.226a16.07 16.07 0 0 1-.081 2.648 7.981 7.981 0 0 1-.187.94c-.012.017-.029.018-.039.043a5.42 5.42 0 0 1-.111.356c-.44 1.232-.952 3.543.556 5.186 1.115 1.215 3.109 1.83 5.926 1.83a43.025 43.025 0 0 0 10.456-1.684c.47-.093 11.519-2.349 12.745-6.914.394-1.466-.282-2.998-2.01-4.555l.086-.508a7.929 7.929 0 0 1 .874-2.941 7.588 7.588 0 0 1 3.362-2.517.203.203 0 0 0-.043-.381 15.172 15.172 0 0 0-3.39-.392 11.847 11.847 0 0 0-4.507.872c-.099.039-.203.07-.3.11l-.003-.004a6.282 6.282 0 0 1-1.197-3.693 14.274 14.274 0 0 0-1.562-8.704 9.75 9.75 0 0 0-2.646-3.192 5.103 5.103 0 0 0-.207-.142l-.07-.047a3.184 3.184 0 0 0-.336-3.817 5.959 5.959 0 0 1 2.265-1.525v-.005h.012l.005-.004-.004.012c.132.012.265.025.39.025a5.046 5.046 0 0 0 1.766-.325 6.55 6.55 0 0 0 3.345-3.006c1.73-3.136 1.548-7.038 1.251-9.145h4.4a.203.203 0 0 0 .203-.203V77.44a.203.203 0 0 0-.203-.203H60.274a9.215 9.215 0 0 0-17.218-.97 9.115 9.115 0 0 0-.387.997v-.027H26.214a.203.203 0 0 0-.202.203v5.182a.203.203 0 0 0 .202.203zm9.801 20.05v.035h-1.979l-.027-20.058 1.979-.027zm2.33 10.224a3.23 3.23 0 1 1-6.46 0 3.287 3.287 0 0 1 2.218-3.08 3.216 3.216 0 0 1 .735-.149h.277a3.233 3.233 0 0 1 3.23 3.23zm.25-4.955a.642.642 0 0 1 .62.702.62.62 0 0 1-.62.62l-1.738.028h-1.489c-.084-.006-.171-.028-.253-.028h-3.482a.642.642 0 0 1-.619-.702.62.62 0 0 1 .62-.619l.844-.028h.797c.017.006.028.028.047.028h5.274zm-1.89-4.857.027 4.452h-3.208l-.027-4.424.169-.028h.12c.018.005.03.028.048.028h2.357zm9.812-2.184h-.001a3.609 3.609 0 0 1-1.298-2.27 2.73 2.73 0 0 1 .182-1.06l.015-.035a1.35 1.35 0 0 1 .385-.51 1.56 1.56 0 0 1 .978-.308l.142.004.112-.022a6.49 6.49 0 0 1 .7 3.189 2.292 2.292 0 0 0-1.215 1.012zm-2.241 15.746c-.822-1.202-1.126-2.095-.93-2.728.213-.683 1.026-1.077 1.871-1.403a.202.202 0 0 0 .129-.187 9.819 9.819 0 0 0-.337-2.502 4.415 4.415 0 0 1 1.766-.293 10.668 10.668 0 0 1 1.458.105.198.198 0 0 0 .193-.172.224.224 0 0 0-.167-.232 10.23 10.23 0 0 0-1.48-.11 4.35 4.35 0 0 0-1.91.35.447.447 0 0 0-.011-.077l-.042-.11a2.74 2.74 0 0 1-.052-2.695 4.049 4.049 0 0 1 2.436-1.24c.152-.028.32-.049.485-.07-.004.01-.006.01-.01.021h.01a15.61 15.61 0 0 1 2.056-.123 33.307 33.307 0 0 1 3.819.255.212.212 0 0 0 .208-.178.225.225 0 0 0-.178-.227 33.328 33.328 0 0 0-3.822-.253 12.601 12.601 0 0 0-1.947.133 13.014 13.014 0 0 0-.639-4.194 1.496 1.496 0 0 1 .773-.47.202.202 0 0 0 .158-.19c.002-.038.003-.144.003-.273.027.074.055.147.091.227a.21.21 0 0 0 .22.117h.001a48.849 48.849 0 0 1 5.9-.382c.846 0 1.618.038 2.354.093a.196.196 0 0 0-.11.125.2.2 0 0 0 .115.233 10.355 10.355 0 0 1 3.15 2.1 10.095 10.095 0 0 0-5.302-1.455 7.585 7.585 0 0 0-.995.054.201.201 0 0 0-.175.18.204.204 0 0 0 .136.212 8.818 8.818 0 0 1 6.042 6.322 8.429 8.429 0 0 0-4.887-4.403 7.354 7.354 0 0 0-2.185-.326 8.062 8.062 0 0 0-1.15.084.202.202 0 0 0-.02.396 8.146 8.146 0 0 1 1.04.34 8.743 8.743 0 0 1 1.885 1.048 9.95 9.95 0 0 1 3.465 8.922 14.352 14.352 0 0 1-.344 1.752 7.486 7.486 0 0 0-.263 3.595 4.703 4.703 0 0 0 .887 1.862 83.656 83.656 0 0 0-11.579 3.847 12.305 12.305 0 0 0-.021-.648c-.001-.046-.16-4.604-2.095-7.432zm18.607-13.899a7.775 7.775 0 0 1 1.203 1.31l.03.065-.002.002a19.85 19.85 0 0 1 1.32 8.137 11.573 11.573 0 0 0 1.067 5.305c.044.102.087.206.128.297l-.008.003a7.12 7.12 0 0 0-.876.946c-.134.156-.27.31-.391.474l-.013.002-.009-.005c-.001 0-.541.1-.62.116-.27-.294-1.506-1.838-1.371-5.292l.012-.321c.106-2.619.264-6.576-1.65-9.806l-.006-.01a2.708 2.708 0 0 0-.06-.11l-.014-.005-.022-.034-.001-.002a9.167 9.167 0 0 0-2.94-2.96c-.23-.154-.457-.31-.71-.452a11.45 11.45 0 0 1 4.933 2.34zm-1.877-1.916c.002-.036.002-.069.008-.109a4.628 4.628 0 0 1 1.468.915.186.186 0 0 0 .146.06.245.245 0 0 0 .078-.028q.205.263.399.554l.023.035c.1.152.196.315.29.478-.125-.121-.272-.228-.407-.343l-.15-.127a9.591 9.591 0 0 0-1.128-.79l-.135-.082c-.19-.11-.365-.236-.566-.337l-.026-.226zm4.54 18.787v-.001zm-1.564 2.5c-.026.101-.058.2-.081.303l-.007-.003h-.003c-7.374.975-15.95 4.312-17.749 5.048a12.03 12.03 0 0 0 .247-2.317 90.195 90.195 0 0 1 11.945-3.96l.005.002a.256.256 0 0 0 .027-.01c.496-.13 1-.257 1.517-.383.4-.095.806-.189 1.218-.28.008.001.012.01.021.01a.196.196 0 0 0 .079-.034 88.984 88.984 0 0 1 3.404-.69c.011.003.02.013.031.013a.215.215 0 0 0 .086-.034l.294-.056a7.54 7.54 0 0 0-1.034 2.392zm.24.49c-.007.001-.006.018-.005.033l-.004-.003a.169.169 0 0 0 .007-.033zm-9.75-18.181a9.098 9.098 0 0 0-1.986-1.107l-.12-.017-.042-.016.152-.002a6.98 6.98 0 0 1 2.06.308 8.406 8.406 0 0 1 4.845 4.528 10.418 10.418 0 0 1 .473 1.169l.014.13a20.836 20.836 0 0 1-.246 5.187 8.368 8.368 0 0 0 1.191 5.583 35.94 35.94 0 0 0-2.015.513c-.13.032-.269.063-.397.095l-.006-.007.025-.013a3.798 3.798 0 0 1-.942-1.859 7.225 7.225 0 0 1 .267-3.418 14.62 14.62 0 0 0 .35-1.789 10.354 10.354 0 0 0-3.623-9.285zm9.779 15.057c-.886.165-1.752.344-2.605.551-.147.032-.3.062-.445.094l-.003-.006.026-.01a8.025 8.025 0 0 1-1.2-5.447c.354-2.37 1.177-7.986-2.642-11.528a9.893 9.893 0 0 0-2.94-1.89h.082a9.67 9.67 0 0 1 5.416 1.59 7.386 7.386 0 0 1 1.253 1.112l.076.114c1.942 3.163 1.784 7.099 1.68 9.704l-.014.323c-.124 3.194.859 4.816 1.316 5.393zm.45-.056.002-.003.001.003zm-4.037-18.87a1.678 1.678 0 0 0-.04.307 13.292 13.292 0 0 0-3.071-.946 15.008 15.008 0 0 1 3.112.637zM46.01 128.116v.01h-.013l.002-.006zm28.829-1.513c-1.146 4.265-11.983 6.531-12.446 6.625a42.863 42.863 0 0 1-10.378 1.677c-2.687 0-4.576-.573-5.613-1.703-1.365-1.486-.882-3.63-.473-4.776.033-.093.064-.19.092-.285a100.577 100.577 0 0 1 12.401-4.07 52.554 52.554 0 0 1 5.374-1.055.742.742 0 0 0-.026.073 1.024 1.024 0 0 0-.021.1 3.65 3.65 0 0 0 .654 2.953 2.622 2.622 0 0 0 1.971.816 4.34 4.34 0 0 0 .654-.056 4.485 4.485 0 0 0 1.16.152 4.966 4.966 0 0 0 4.383-2.653 5.633 5.633 0 0 0 .499-1.649c.01-.05.025-.098.035-.147 1.488 1.396 2.072 2.74 1.734 3.998zm-1.648-4.44.002-.014.008.006-.006.012zm.919-6.343a18.05 18.05 0 0 1 2.081.142c.228.034.456.057.684.101a7.084 7.084 0 0 0-3.04 2.427 8.26 8.26 0 0 0-.93 3.098 9.2 9.2 0 0 1-.697 2.63 4.549 4.549 0 0 1-4.015 2.43c-.068 0-.135-.003-.201-.003-.043 0-.083.008-.125.01-.044-.003-.089-.003-.133-.008a3.205 3.205 0 0 0 .364-.204l-.002-.005.008-.002-.005.008a4.724 4.724 0 0 1 1.977-.506.203.203 0 1 0 0-.405 4.325 4.325 0 0 0-1.244.201 7.536 7.536 0 0 0 1.093-1.836c.003-.008-.002-.016-.007-.023l.012-.012-.004.04a2.52 2.52 0 0 1 1.772-.529c.104 0 .213.004.343.013a.21.21 0 0 0 .201-.19.224.224 0 0 0-.187-.216 5.679 5.679 0 0 0-.362-.013 3.422 3.422 0 0 0-1.553.326 4.558 4.558 0 0 0 .255-1.511.203.203 0 0 0-.21-.194.203.203 0 0 0-.196.21 4.538 4.538 0 0 1-.256 1.481 3.646 3.646 0 0 0-1.939-1.628l-.046-.005a.203.203 0 0 0-.053.399 3.522 3.522 0 0 1 1.854 1.72 7.935 7.935 0 0 1-1.06 1.8 3.627 3.627 0 0 1-.372.372 2.936 2.936 0 0 0-1.752-1.962l-.06-.01a.202.202 0 0 0-.194.144.204.204 0 0 0 .135.253 2.7 2.7 0 0 1 1.525 1.738l.024.076-.013-.02a2.761 2.761 0 0 1-1.409.396 2.218 2.218 0 0 1-1.668-.68 3.279 3.279 0 0 1-.555-2.63c.019-.129.04-.258.066-.386l.01-.053a7.832 7.832 0 0 1 1.33-2.977l.024-.034.006-.009.02-.028a9.043 9.043 0 0 1 1.336-1.455l.052-.045a9.44 9.44 0 0 1 2.122-1.379 11.72 11.72 0 0 1 4.994-1.057zm-10.46-14.69a9.322 9.322 0 0 1 2.533 3.06 13.897 13.897 0 0 1 1.517 8.465 5.819 5.819 0 0 0 .977 3.396c.086.156.156.306.254.467a9.088 9.088 0 0 0-1.999 1.302 11.843 11.843 0 0 1-1.095-5.324 20.234 20.234 0 0 0-1.372-8.307.168.168 0 0 0-.03-.098l-.025-.032a10.9 10.9 0 0 0-1.363-2.35 8.827 8.827 0 0 0-.134-.17.175.175 0 0 0-.054-.11.28.28 0 0 0-.05-.024 7.572 7.572 0 0 0-1.52-1.408c.024.004.05.007.07.013a6.393 6.393 0 0 1 2.291 1.12zm-.353-.731a6.554 6.554 0 0 0-1.838-.782 2.59 2.59 0 0 0-.475-.053 1.54 1.54 0 0 1-.492-.074.976.976 0 0 0-.09-.02.206.206 0 0 0-.09.383 6.688 6.688 0 0 1 1.357.929 7.211 7.211 0 0 0-.689-.318l-.01-.002-.004.003c-.008-.004-.011-.009-.02-.013h.002l-.006-.003c-.008-.003-.012-.01-.014-.01l-.002.005a18.84 18.84 0 0 0-6.571-.917 42.27 42.27 0 0 0-5.831.403 5.35 5.35 0 0 1-.512-3.48 18.888 18.888 0 0 1 6.376-1.063 25.085 25.085 0 0 1 7.564 1.232c.401.136.698.25.875.32.005.009.004.02.011.027a.198.198 0 0 0 .136.053v.007a2.842 2.842 0 0 1 .323 3.373zm-.144-4.004c-.073.073-.149.14-.22.217l-.007-.003.017-.023a24.288 24.288 0 0 0-8.558-1.604 19.302 19.302 0 0 0-6.544 1.098.372.372 0 0 0-.106.086 2.064 2.064 0 0 0-.174.702c-.006.037-.013.07-.017.11a2.341 2.341 0 0 0-.212-.35.369.369 0 0 0-.115-.073 2.166 2.166 0 0 0-.443-.042 1.96 1.96 0 0 0-1.228.397 1.39 1.39 0 0 0-.37.491 33.2 33.2 0 0 1-8.784-8.807l-.027-5.77 4.914-.027h1.365l-.002.008a9.225 9.225 0 0 0 16.675 2.056 14.784 14.784 0 0 0 1.59 6.924 6.686 6.686 0 0 0 3.957 3.348 5.876 5.876 0 0 0-1.711 1.262zm7.552-4.622A6.151 6.151 0 0 1 67.57 94.6a4.568 4.568 0 0 1-1.61.296 4.44 4.44 0 0 1-.536-.033c-2.473-.315-3.897-2.775-4.158-3.265a14.222 14.222 0 0 1-1.495-7.374.171.171 0 0 0-.028-.106 6.582 6.582 0 0 0 .451-1.155c.019-.055.042-.108.06-.163v.026l10.388-.028h1.284v.004c.273 2.031.478 5.899-1.219 8.972zM42.996 77.46l.005.005h-.003c-.009 0-.01.018-.01.034l-.004-.004a.169.169 0 0 0 .013-.035zm-.01.053.018-.057a8.907 8.907 0 0 1 8.458-6.266 9 9 0 0 1 7.16 3.63c.036.05.075.097.11.148.059.08.111.165.166.248a8.823 8.823 0 0 1 1.036 2.196c-.002.011-.011.016-.011.028 0 .016.012.027.016.04-.002.006-.01.01-.007.015a8.842 8.842 0 0 1-8.47 11.375 9.01 9.01 0 0 1-7.475-4.089c-.107-.168-.215-.336-.311-.512l-.014-.025a8.817 8.817 0 0 1-.671-1.591c.002-.01.012-.02.012-.03a.167.167 0 0 0-.024-.072l.003.001c-.004.01.016.033.02.045l-.016-.053a8.857 8.857 0 0 1 .001-5.03z"/><path d="m49.4 124.575-.033.055-.055-.034a.478.478 0 0 0-.674.19.483.483 0 0 0 .185.628l.046.028.812.498.498-.812.028-.046a.483.483 0 0 0-.12-.643.478.478 0 0 0-.687.136zm6.427-1.939-.034.055-.055-.034a.478.478 0 0 0-.674.19.484.484 0 0 0 .185.628l.046.028.812.499.498-.813.028-.046a.483.483 0 0 0-.12-.643.478.478 0 0 0-.686.136zm6.712-1.506-.034.056-.055-.034a.478.478 0 0 0-.674.19.484.484 0 0 0 .185.628l.046.028.812.498.498-.812.029-.046a.484.484 0 0 0-.12-.643.478.478 0 0 0-.687.135z"/><path class="cls-1" d="M42.53 81.82a1.085 1.085 0 0 1-.04-.25H27.85v-3.08h14.64a1.085 1.085 0 0 1 .04-.25H27.6v3.58zm17.9-.25a1.085 1.085 0 0 1-.04.25h14.93v-3.58H60.39a1.085 1.085 0 0 1 .04.25h14.64v3.08z"/><path class="cls-1" d="M51.462 88.898a8.868 8.868 0 1 0-8.868-8.868 8.877 8.877 0 0 0 8.868 8.868zM53.62 73.92l-2.158 2.217-2.158-2.217zm-6.955 3.433a3.074 3.074 0 0 1 4.503-.181l.294.294.294-.294a3.075 3.075 0 0 1 4.504.182 3.112 3.112 0 0 1-.216 4.203l-.246.246-4.336 4.335-4.336-4.335-.246-.246a3.112 3.112 0 0 1-.216-4.204z"/><path class="cls-2" d="M42.029 59.51a6.54 6.54 0 0 1-.935-.449 6.704 6.704 0 0 0 1.58 1.11.198.198 0 0 1 .079.235.174.174 0 0 1-.157.097.37.37 0 0 1-.076-.017 1.59 1.59 0 0 0-.518-.079 2.469 2.469 0 0 1-.455-.051 6.532 6.532 0 0 1-1.837-.782 2.81 2.81 0 0 0 .296 3.42 23.596 23.596 0 0 0 8.605 1.647 18.921 18.921 0 0 0 6.386-1.065c.013-.083.506-1.236-.496-3.516a47.775 47.775 0 0 1-5.857.385 18.664 18.664 0 0 1-6.583-.922l-.022-.004c-.005-.001-.006-.006-.01-.008z"/><path class="cls-3" d="M35.272 47.343a13.923 13.923 0 0 0 1.52 8.48 9.35 9.35 0 0 0 2.54 3.07 6.427 6.427 0 0 0 2.3 1.125 1.035 1.035 0 0 0 .124.02c-4.266-2.884-4.743-10.159-4.566-12.531a11.77 11.77 0 0 0-1.102-5.35 9.812 9.812 0 0 1-2.033 1.3 6.454 6.454 0 0 1 1.217 3.886z"/><path class="cls-4" d="M36.745 35.662a.176.176 0 0 1 .116.219.174.174 0 0 1-.168.123.323.323 0 0 1-.05-.007 2.901 2.901 0 0 1-1.74-1.957 6.082 6.082 0 0 0-1.485 2.195 3.601 3.601 0 0 0 1.879 1.746.175.175 0 0 1-.046.343.666.666 0 0 1-.042-.004 3.674 3.674 0 0 1-1.949-1.659 4.413 4.413 0 0 0-.278 1.54.175.175 0 0 1-.35.015 4.607 4.607 0 0 1 .265-1.548 3.489 3.489 0 0 1-1.59.336c-.115 0-.235-.005-.36-.013a.197.197 0 0 1-.163-.187.183.183 0 0 1 .174-.163c.128.009.238.012.344.012a2.541 2.541 0 0 0 1.791-.537l.007-.004a7.46 7.46 0 0 1 1.132-1.886 4.462 4.462 0 0 1-1.309.212.175.175 0 1 1 0-.349 4.778 4.778 0 0 0 1.991-.51h.002a3.064 3.064 0 0 1 .4-.224 4.362 4.362 0 0 0-.51-.03 4.577 4.577 0 0 0-4.04 2.443 9.236 9.236 0 0 0-.7 2.643 8.22 8.22 0 0 1-.926 3.083 7.17 7.17 0 0 1-3.061 2.435 14.594 14.594 0 0 0 2.81.278 11.75 11.75 0 0 0 5.005-1.06 8.667 8.667 0 0 0 4.982-6.387 3.302 3.302 0 0 0-.562-2.652 2.246 2.246 0 0 0-1.689-.69 2.766 2.766 0 0 0-1.423.401 2.65 2.65 0 0 0 1.543 1.843z"/><path class="cls-5" d="M37.948 40.076a91.35 91.35 0 0 0 18.69-5.41 11.936 11.936 0 0 1 .254-2.366c-1.757.708-10.377 4.071-17.786 5.051a8.174 8.174 0 0 1-1.158 2.725z"/><path class="cls-3" d="m40.037 45.705-.013.322c-.107 2.68-.253 6.567 1.684 9.72a8.842 8.842 0 0 0 6.768 2.83h.137c-7.167-3.008-6.039-10.567-5.61-13.442a8.04 8.04 0 0 0-1.204-5.468 90.7 90.7 0 0 1-3.098.627c.458.565 1.462 2.18 1.336 5.411z"/><path class="cls-6" d="M45.89 40.786a7.47 7.47 0 0 1-.263 3.583 14.377 14.377 0 0 0-.345 1.756 9.977 9.977 0 0 0 3.476 8.946 8.73 8.73 0 0 0 1.892 1.052 8.17 8.17 0 0 0 1.043.34.174.174 0 0 1-.018.342 8.04 8.04 0 0 1-1.146.084 7.342 7.342 0 0 1-2.177-.325 8.592 8.592 0 0 1-5-4.635 8.822 8.822 0 0 0 6.138 6.607.176.176 0 0 1 .117.183.174.174 0 0 1-.15.156 7.654 7.654 0 0 1-.992.053 9.86 9.86 0 0 1-5.516-1.59 10.355 10.355 0 0 0 3.352 2.288.173.173 0 0 1 .1.201.175.175 0 0 1-.17.134h-.006a12.867 12.867 0 0 1-3.872-1.069 1.662 1.662 0 0 1-.043.34 19.19 19.19 0 0 0 6.362.848 48.989 48.989 0 0 0 5.904-.383h.008a.178.178 0 0 1 .183.1c.059.13.094.239.144.36a9.645 9.645 0 0 1 .003-.416.175.175 0 0 1 .137-.164 1.546 1.546 0 0 0 .798-.487 12.88 12.88 0 0 1-.642-4.21 16.156 16.156 0 0 1-1.975.112 33.16 33.16 0 0 1-3.82-.253.198.198 0 0 1-.152-.195.184.184 0 0 1 .181-.154 33.223 33.223 0 0 0 3.818.255c2.62 0 4.3-.48 5-1.425a2.762 2.762 0 0 0-.05-2.722c-.025-.057-.043-.121-.067-.181a4.697 4.697 0 0 1-1.92.328 10.212 10.212 0 0 1-1.476-.109.198.198 0 0 1-.145-.2.17.17 0 0 1 .166-.15 10.807 10.807 0 0 0 1.459.106 4.362 4.362 0 0 0 1.798-.305 9.78 9.78 0 0 1-.342-2.518.176.176 0 0 1 .111-.162c.853-.327 1.67-.725 1.887-1.42.2-.642-.106-1.542-.933-2.751-1.933-2.825-2.089-7.373-2.09-7.418a13.216 13.216 0 0 1-.022-.672 86.86 86.86 0 0 1-11.652 3.855 4.544 4.544 0 0 1 .907 1.885zm5.152 1.448a.174.174 0 0 1 .095-.095l4.333-1.818-.916-.849a.197.197 0 0 1-.01-.247.356.356 0 0 1 .129-.056.176.176 0 0 1 .119.046l1.115 1.034a.361.361 0 0 1 .054.159.174.174 0 0 1-.107.131l-1.394.585a1.186 1.186 0 0 1 .654 1.052 1.214 1.214 0 0 1-2.428 0 1.16 1.16 0 0 1 .051-.329l-1.466.616-.068.013a.175.175 0 0 1-.161-.106.362.362 0 0 1 0-.136z"/><path class="cls-5" d="M66.632 71.401v5.8h-6.306a9.213 9.213 0 0 0-8.787-6.445 8.27 8.27 0 0 0-1.079.065 8.958 8.958 0 0 0-2.323.59 9.198 9.198 0 0 0-4.481 3.807 14.784 14.784 0 0 0-1.586-6.988 6.66 6.66 0 0 0-3.992-3.365 5.438 5.438 0 0 0 .553-.305 6.52 6.52 0 0 0 1.438-1.17 2.4 2.4 0 0 1 .203.082 24.396 24.396 0 0 0 8.344 1.522 19.393 19.393 0 0 0 2.213-.12 17.954 17.954 0 0 0 2.471-.434h.01a17.665 17.665 0 0 0 1.843-.544.68.68 0 0 0 .083-.074 2.17 2.17 0 0 0 .221-.839 3.611 3.611 0 0 0 .23.37.238.238 0 0 0 .102.064 2.082 2.082 0 0 0 .433.046 1.958 1.958 0 0 0 1.217-.397 1.881 1.881 0 0 0 .397-.488 33.07 33.07 0 0 1 8.796 8.823z"/><path class="cls-4" d="M50.46 70.82a8.958 8.958 0 0 0-2.324.59l-9.505-6.85a6.52 6.52 0 0 0 1.438-1.17 2.4 2.4 0 0 1 .203.082zm16.172 3.772v2.323L50.83 64.874a17.954 17.954 0 0 0 2.471-.434h.01z"/><path class="cls-2" d="M57.096 31.583c.411-1.151.896-3.307-.478-4.804-1.043-1.136-2.939-1.712-5.634-1.712a42.909 42.909 0 0 0-10.386 1.677c-.466.096-11.316 2.371-12.465 6.645-.343 1.278.254 2.635 1.753 4.038a7.119 7.119 0 0 1 .567-1.815 4.937 4.937 0 0 1 4.358-2.638 4.432 4.432 0 0 1 1.153.15 4.703 4.703 0 0 1 .66-.055 2.596 2.596 0 0 1 1.95.806 3.625 3.625 0 0 1 .648 2.933c-.008.06-.028.118-.038.178 7.768-1.053 16.823-4.7 17.816-5.106.03-.101.061-.2.096-.297zM71.143 46.9a3.257 3.257 0 1 0-3.257 3.257 3.261 3.261 0 0 0 3.257-3.256z"/><path class="cls-7" d="M67.442 46.154a.72.72 0 1 0-.72.72.721.721 0 0 0 .72-.72z"/><path class="cls-8" d="M68.53 43.708a3.25 3.25 0 0 1-2.585 5.793 3.227 3.227 0 0 0 1.94.656 3.257 3.257 0 0 0 .644-6.449z"/><path class="cls-3" d="M43.35 45.185a20.787 20.787 0 0 0-.245 5.195c.239.777 1.617 4.695 5.35 5.85a7 7 0 0 0 2.069.31l.222-.003a17.01 17.01 0 0 1-.223-.086 8.98 8.98 0 0 1-1.979-1.103 10.327 10.327 0 0 1-3.612-9.261 14.643 14.643 0 0 1 .35-1.785 7.231 7.231 0 0 0 .267-3.431 3.842 3.842 0 0 0-.95-1.873q-1.18.3-2.437.586a8.46 8.46 0 0 1 1.188 5.601z"/><path class="cls-4" d="M72.013 51.236a.67.67 0 0 0-.646-.73h-6.963a.648.648 0 0 0-.646.648.67.67 0 0 0 .646.73h6.963a.648.648 0 0 0 .646-.648z"/><path class="cls-2" d="M55.261 59.883a6.326 6.326 0 0 0 .685 3.231c0-.01.02-.013.055-.013.05 0 .13.007.221.007a1.59 1.59 0 0 0 .996-.314 1.984 1.984 0 0 0 .592-1.628 3.612 3.612 0 0 0-1.31-2.292l-.02-.006v-.075l-.01.077a2.307 2.307 0 0 1-1.209 1.013z"/><path class="cls-4" d="M43.26 75.781a.165.165 0 0 0 .027.11 9.092 9.092 0 0 0-.544 1.31h-11.69c-.287-2.084-.48-5.92 1.216-8.99a6.237 6.237 0 0 1 3.153-2.84 4.82 4.82 0 0 1 1.623-.295 3.637 3.637 0 0 1 .535.037c2.49.313 3.918 2.784 4.176 3.282a14.28 14.28 0 0 1 1.503 7.386z"/><path class="cls-3" d="M40.032 77.2h-7.237a20.644 20.644 0 0 1 3.411-4.581 12.11 12.11 0 0 1 3.826 4.582z"/><path class="cls-4" d="M69.503 52.233h-3.235v4.48h3.235v-4.48z"/><path class="cls-9" d="M66.985 57.063h2.006v20.113h-2.006z"/><path class="cls-3" d="M45.121 59.436a9.82 9.82 0 0 1-3.701-3.478c-.023-.027-.048-.051-.071-.08a.294.294 0 0 1-.03-.076c-1.903-3.212-1.753-7.112-1.645-9.79l.013-.321c.136-3.487-1.12-5.033-1.387-5.323-.212.039-.418.08-.632.117a9.372 9.372 0 0 1-1.307 1.425 12.233 12.233 0 0 1 1.178 5.624 19.832 19.832 0 0 0 1.32 8.15c.004.004.011.002.015.007a10.187 10.187 0 0 0 6.247 3.745z"/><path class="cls-1" d="M41.993 58.722a9.564 9.564 0 0 1-2.523-1.792 9.611 9.611 0 0 0 .813 1.23.306.306 0 0 1 .089-.034h.008a.153.153 0 0 1 .118.053 4.633 4.633 0 0 0 1.486.924 1.329 1.329 0 0 0 .01-.38z"/><path d="m55.392 54.48-.061.012.007.006a.413.413 0 0 0 .054-.019zm-.582-15.286a.205.205 0 0 0-.138-.053.36.36 0 0 0-.149.065.226.226 0 0 0 .011.287l.662.575.25.232-4.32 1.814a.2.2 0 0 0-.111.11.37.37 0 0 0 0 .157.203.203 0 0 0 .187.123l.078-.016 1.451-.608a1.124 1.124 0 0 0-.046.296 1.214 1.214 0 0 0 2.428 0 1.18 1.18 0 0 0-.627-1.033l1.377-.577a.203.203 0 0 0 .124-.154.367.367 0 0 0-.063-.184zm1.064 39.003-4.336-4.336-4.335 4.336-.247.246a3.112 3.112 0 0 0-.216 4.203 3.074 3.074 0 0 0 4.504.182l.294-.295.295.295a3.074 3.074 0 0 0 4.503-.181 3.112 3.112 0 0 0-.216-4.204z"/><path d="m51.609 83.935-.07-.073h-.001l-.02-.018-1.243 1.316-.895.92h.026l-.026.028h4.316a.029.029 0 0 0 .026-.017.028.028 0 0 0-.006-.03z"/><path d="m76.786 77.175-7.417.028-.027-20.079v-.034h.336a.203.203 0 0 0 .203-.203l-.027-4.627h1.513a1.045 1.045 0 0 0 1.024-1.106 1.026 1.026 0 0 0-1.024-1.024l-1.901.028a3.642 3.642 0 1 0-3.204-.028h-1.858a1.045 1.045 0 0 0-1.024 1.106 1.026 1.026 0 0 0 1.024 1.025h1.486v4.627a.203.203 0 0 0 .203.202h.514l.005 13.594a33.04 33.04 0 0 0-8.376-8.26 17.85 17.85 0 0 0-.226-.155l.005-.005a3.325 3.325 0 0 0 .171-1.123 3.97 3.97 0 0 0-1.476-2.58.454.454 0 0 0-.283-.06h-.042a.455.455 0 0 0-.26.19 14.164 14.164 0 0 1-.568-3.802v-.034l.005-.001a4.456 4.456 0 0 0 3-1.41 3.082 3.082 0 0 0-.008-3.099 8.853 8.853 0 0 1-.51-2.73 2.998 2.998 0 0 0 1.997-1.617c.24-.77-.073-1.746-.982-3.075-1.842-2.693-2.018-7.04-2.025-7.227a16.063 16.063 0 0 1 .08-2.648 7.977 7.977 0 0 1 .188-.94c.012-.016.028-.018.038-.043a5.5 5.5 0 0 1 .112-.356c.44-1.232.952-3.543-.557-5.186-1.115-1.215-3.108-1.83-5.925-1.83a43.026 43.026 0 0 0-10.456 1.684c-.47.094-11.519 2.35-12.745 6.914-.394 1.466.282 2.998 2.009 4.555l-.086.508a7.931 7.931 0 0 1-.874 2.942 7.59 7.59 0 0 1-3.362 2.516.203.203 0 0 0 .044.381 15.172 15.172 0 0 0 3.39.393 11.847 11.847 0 0 0 4.507-.873c.098-.039.203-.07.3-.11l.002.004a6.282 6.282 0 0 1 1.198 3.693 14.275 14.275 0 0 0 1.562 8.704 9.752 9.752 0 0 0 2.646 3.192c.068.05.137.096.207.142l.07.047a3.184 3.184 0 0 0 .336 3.817 5.957 5.957 0 0 1-2.265 1.525v.005h-.012l-.005.004.004-.012c-.132-.012-.265-.025-.39-.025a5.048 5.048 0 0 0-1.766.325 6.55 6.55 0 0 0-3.345 3.006c-1.73 3.136-1.548 7.038-1.251 9.145h-4.4a.203.203 0 0 0-.203.203v5.182a.203.203 0 0 0 .203.203h16.438a9.256 9.256 0 0 0 17.605-.027v.027h16.455a.203.203 0 0 0 .202-.203v-5.182a.203.203 0 0 0-.202-.203zm-9.801-20.05v-.035h1.979l.027 20.057-1.979.028zM64.655 46.9a3.23 3.23 0 1 1 6.46 0 3.287 3.287 0 0 1-2.218 3.08 3.218 3.218 0 0 1-.735.149h-.277a3.233 3.233 0 0 1-3.23-3.23zm-.25 4.954a.642.642 0 0 1-.62-.7.62.62 0 0 1 .62-.62l1.738-.029h1.489c.084.006.171.028.253.028h3.482a.642.642 0 0 1 .619.702.62.62 0 0 1-.62.62l-.845.027h-.796c-.017-.005-.028-.028-.047-.028h-5.274zm1.89 4.858-.027-4.452h3.208l.027 4.424-.169.028h-.12c-.018-.005-.03-.028-.048-.028H66.81zm-9.812 2.183.001.001a3.609 3.609 0 0 1 1.298 2.27 2.731 2.731 0 0 1-.182 1.06l-.015.035a1.35 1.35 0 0 1-.385.51 1.56 1.56 0 0 1-.978.308l-.142-.004-.112.022a6.49 6.49 0 0 1-.7-3.188 2.292 2.292 0 0 0 1.215-1.013zm2.241-15.745c.822 1.202 1.126 2.095.93 2.728-.213.683-1.026 1.078-1.871 1.403a.202.202 0 0 0-.129.187 9.82 9.82 0 0 0 .337 2.502 4.417 4.417 0 0 1-1.766.294 10.668 10.668 0 0 1-1.458-.106.198.198 0 0 0-.193.172.224.224 0 0 0 .167.232 10.248 10.248 0 0 0 1.48.11 4.348 4.348 0 0 0 1.91-.35.458.458 0 0 0 .011.077l.042.11a2.74 2.74 0 0 1 .052 2.695 4.05 4.05 0 0 1-2.436 1.24c-.152.028-.32.049-.485.07.004-.01.006-.01.01-.021h-.01a15.61 15.61 0 0 1-2.056.123 33.332 33.332 0 0 1-3.819-.255.212.212 0 0 0-.208.178.225.225 0 0 0 .178.227 33.308 33.308 0 0 0 3.822.253 12.601 12.601 0 0 0 1.947-.133 13.014 13.014 0 0 0 .639 4.194 1.496 1.496 0 0 1-.773.47.203.203 0 0 0-.158.19 8.583 8.583 0 0 0-.003.272 3.448 3.448 0 0 0-.091-.226.21.21 0 0 0-.22-.117h-.001a48.867 48.867 0 0 1-5.9.382c-.846 0-1.618-.038-2.354-.093a.196.196 0 0 0 .11-.125.201.201 0 0 0-.115-.233 10.354 10.354 0 0 1-3.15-2.1 10.095 10.095 0 0 0 5.302 1.455 7.612 7.612 0 0 0 .996-.054.201.201 0 0 0 .174-.18.204.204 0 0 0-.135-.212 8.818 8.818 0 0 1-6.042-6.322 8.428 8.428 0 0 0 4.886 4.402 7.351 7.351 0 0 0 2.186.327 8.061 8.061 0 0 0 1.15-.084.202.202 0 0 0 .02-.397 8.147 8.147 0 0 1-1.04-.34 8.74 8.74 0 0 1-1.886-1.048 9.95 9.95 0 0 1-3.465-8.922 14.334 14.334 0 0 1 .345-1.752 7.485 7.485 0 0 0 .263-3.595 4.704 4.704 0 0 0-.887-1.862 83.662 83.662 0 0 0 11.578-3.846c.003.353.018.592.021.648.002.046.16 4.604 2.095 7.432zm-18.607 13.9a7.772 7.772 0 0 1-1.203-1.31l-.03-.065.002-.003a19.852 19.852 0 0 1-1.32-8.136A11.573 11.573 0 0 0 36.5 42.23c-.044-.102-.087-.206-.128-.297l.008-.003a7.12 7.12 0 0 0 .877-.946c.133-.156.269-.31.39-.474l.013-.002.009.004.62-.115c.27.294 1.506 1.838 1.372 5.292l-.013.321c-.105 2.619-.264 6.576 1.65 9.806l.006.01.061.11.013.004.022.035.002.002a9.165 9.165 0 0 0 2.94 2.96c.23.154.456.31.71.452a11.45 11.45 0 0 1-4.934-2.34zm1.877 1.916c-.002.036-.002.068-.008.109a4.628 4.628 0 0 1-1.468-.915.186.186 0 0 0-.146-.06.247.247 0 0 0-.078.028q-.205-.263-.399-.554l-.023-.035c-.1-.153-.196-.315-.29-.478.125.121.272.228.407.343l.15.127a9.591 9.591 0 0 0 1.128.79l.135.081c.19.111.365.237.566.338l.026.226zm-4.54-18.788v.002zm1.564-2.5c.026-.1.058-.2.081-.302l.007.003h.003c7.374-.975 15.95-4.312 17.749-5.048a12.03 12.03 0 0 0-.247 2.317 90.187 90.187 0 0 1-11.945 3.96l-.005-.002a.228.228 0 0 0-.027.01c-.496.13-1 .257-1.517.383-.4.095-.806.189-1.218.281-.008-.002-.012-.01-.021-.01a.196.196 0 0 0-.079.034 89.138 89.138 0 0 1-3.404.688c-.011-.001-.02-.012-.031-.012a.215.215 0 0 0-.086.034c-.099.018-.194.038-.294.056a7.537 7.537 0 0 0 1.034-2.392zm-.24-.49c.007 0 .006-.018.005-.032l.003.003a.172.172 0 0 0-.006.032zm9.75 18.182a9.089 9.089 0 0 0 1.986 1.107l.12.017.042.016-.152.002a6.98 6.98 0 0 1-2.06-.308 8.406 8.406 0 0 1-4.845-4.528 10.388 10.388 0 0 1-.473-1.169l-.014-.13a20.841 20.841 0 0 1 .246-5.187 8.37 8.37 0 0 0-1.191-5.583 35.817 35.817 0 0 0 2.015-.513c.13-.032.269-.063.397-.095l.006.007-.025.013a3.796 3.796 0 0 1 .942 1.858 7.225 7.225 0 0 1-.267 3.42 14.632 14.632 0 0 0-.35 1.787 10.354 10.354 0 0 0 3.623 9.286zm-9.779-15.057a49.522 49.522 0 0 0 2.605-.551c.147-.032.3-.062.445-.094l.003.005-.026.01a8.025 8.025 0 0 1 1.2 5.448c-.354 2.37-1.177 7.985 2.642 11.528a9.893 9.893 0 0 0 2.94 1.89h-.082a9.67 9.67 0 0 1-5.416-1.59 7.387 7.387 0 0 1-1.253-1.113c-.025-.038-.051-.074-.075-.113-1.942-3.163-1.784-7.1-1.68-9.705l.013-.322c.125-3.194-.859-4.816-1.316-5.393zm-.45.055-.002.003-.001-.002zm4.037 18.87a1.687 1.687 0 0 0 .04-.306 13.289 13.289 0 0 0 3.071.946 15.01 15.01 0 0 1-3.112-.638zM56.99 31.884v-.01h.013L57 31.88zm-28.83 1.513c1.146-4.265 11.983-6.531 12.446-6.626a42.867 42.867 0 0 1 10.378-1.676c2.687 0 4.576.573 5.614 1.703 1.364 1.486.881 3.63.472 4.776-.033.093-.064.19-.092.285a100.582 100.582 0 0 1-12.401 4.07 52.581 52.581 0 0 1-5.374 1.055.742.742 0 0 0 .026-.073 1.03 1.03 0 0 0 .021-.1 3.65 3.65 0 0 0-.654-2.954 2.622 2.622 0 0 0-1.97-.815 4.341 4.341 0 0 0-.655.056 4.485 4.485 0 0 0-1.16-.152 4.966 4.966 0 0 0-4.382 2.653 5.634 5.634 0 0 0-.5 1.649c-.01.05-.025.098-.035.147-1.488-1.396-2.072-2.74-1.734-3.998zm1.648 4.44-.002.014-.008-.006.006-.012zm-.919 6.343a18.052 18.052 0 0 1-2.082-.143c-.228-.033-.455-.056-.683-.1a7.083 7.083 0 0 0 3.04-2.427 8.262 8.262 0 0 0 .93-3.098 9.2 9.2 0 0 1 .698-2.63 4.549 4.549 0 0 1 4.014-2.43c.068 0 .135.003.201.003.043 0 .083-.008.125-.01.044.003.09.003.133.008a3.19 3.19 0 0 0-.364.203l.002.006-.008.002.005-.009a4.726 4.726 0 0 1-1.977.506.203.203 0 1 0 0 .405 4.327 4.327 0 0 0 1.244-.201 7.534 7.534 0 0 0-1.093 1.836c-.003.009.002.016.007.024l-.012.012.004-.04a2.52 2.52 0 0 1-1.772.528c-.104 0-.213-.003-.343-.012a.21.21 0 0 0-.201.189.224.224 0 0 0 .188.217c.126.008.247.012.361.012a3.424 3.424 0 0 0 1.553-.326 4.557 4.557 0 0 0-.255 1.511.203.203 0 0 0 .21.195.203.203 0 0 0 .196-.21 4.54 4.54 0 0 1 .256-1.482 3.646 3.646 0 0 0 1.939 1.628l.046.005a.203.203 0 0 0 .053-.399 3.522 3.522 0 0 1-1.854-1.72 7.938 7.938 0 0 1 1.06-1.8 3.646 3.646 0 0 1 .371-.372 2.936 2.936 0 0 0 1.752 1.962l.06.009a.202.202 0 0 0 .194-.143.204.204 0 0 0-.135-.253 2.7 2.7 0 0 1-1.525-1.738l-.024-.076.013.02a2.761 2.761 0 0 1 1.409-.397 2.219 2.219 0 0 1 1.668.68 3.279 3.279 0 0 1 .555 2.63c-.018.13-.04.258-.066.386l-.01.053a7.832 7.832 0 0 1-1.33 2.978l-.024.034-.006.008-.02.029a9.047 9.047 0 0 1-1.336 1.454l-.052.045a9.44 9.44 0 0 1-2.122 1.38 11.72 11.72 0 0 1-4.993 1.058zm10.46 14.69a9.322 9.322 0 0 1-2.533-3.06 13.897 13.897 0 0 1-1.517-8.465 5.82 5.82 0 0 0-.977-3.396c-.086-.156-.156-.305-.254-.466a9.085 9.085 0 0 0 1.999-1.302 11.844 11.844 0 0 1 1.095 5.324 20.236 20.236 0 0 0 1.372 8.307.168.168 0 0 0 .03.097l.025.033a10.9 10.9 0 0 0 1.363 2.35c.043.057.088.114.133.17a.174.174 0 0 0 .055.11.266.266 0 0 0 .05.023 7.573 7.573 0 0 0 1.52 1.408c-.024-.004-.05-.007-.071-.012a6.392 6.392 0 0 1-2.29-1.121zm.353.731a6.556 6.556 0 0 0 1.838.782 2.608 2.608 0 0 0 .475.053 1.534 1.534 0 0 1 .492.074c.004.002.085.02.09.02a.206.206 0 0 0 .09-.383 6.685 6.685 0 0 1-1.357-.929 7.214 7.214 0 0 0 .689.318l.01.002.004-.003c.008.004.011.009.02.013h-.002l.006.003c.008.003.012.01.014.01l.002-.005a18.839 18.839 0 0 0 6.571.917 42.298 42.298 0 0 0 5.831-.403 5.351 5.351 0 0 1 .512 3.48 18.888 18.888 0 0 1-6.376 1.063 25.085 25.085 0 0 1-7.564-1.232c-.401-.136-.698-.25-.875-.32-.005-.009-.004-.02-.011-.027a.197.197 0 0 0-.136-.053v-.007a2.842 2.842 0 0 1-.323-3.373zm.144 4.004c.073-.073.149-.14.22-.217l.007.003-.017.023a24.286 24.286 0 0 0 8.558 1.604 19.302 19.302 0 0 0 6.544-1.098.373.373 0 0 0 .106-.086 2.064 2.064 0 0 0 .174-.702c.006-.037.013-.07.017-.11a2.346 2.346 0 0 0 .212.35.37.37 0 0 0 .115.073 2.167 2.167 0 0 0 .443.042 1.961 1.961 0 0 0 1.228-.397 1.388 1.388 0 0 0 .37-.491 33.196 33.196 0 0 1 8.784 8.807l.027 5.77-4.914.027h-1.364v-.008a9.225 9.225 0 0 0-16.674-2.056 14.785 14.785 0 0 0-1.59-6.924 6.687 6.687 0 0 0-3.957-3.348 5.88 5.88 0 0 0 1.711-1.262zm-7.552 4.622a6.151 6.151 0 0 1 3.137-2.825 4.566 4.566 0 0 1 1.61-.297 4.44 4.44 0 0 1 .536.033c2.474.315 3.897 2.776 4.158 3.265a14.223 14.223 0 0 1 1.495 7.374.17.17 0 0 0 .028.107 6.582 6.582 0 0 0-.45 1.154c-.02.055-.043.108-.06.164v-.027l-10.389.028h-1.285l.001-.003c-.273-2.032-.477-5.9 1.219-8.973zm27.71 14.313-.005-.005h.003c.009 0 .01-.018.01-.034l.004.004a.161.161 0 0 0-.013.035zm.01-.053-.018.057a8.906 8.906 0 0 1-8.458 6.266 9 9 0 0 1-7.16-3.63c-.036-.05-.075-.097-.11-.148-.058-.08-.11-.165-.166-.248a8.82 8.82 0 0 1-1.036-2.196c.003-.011.012-.016.012-.028 0-.016-.012-.027-.017-.04.003-.006.01-.01.008-.015a8.842 8.842 0 0 1 8.469-11.375 9.01 9.01 0 0 1 7.475 4.089c.107.168.215.336.311.512l.014.025a8.818 8.818 0 0 1 .671 1.591c-.002.01-.012.02-.012.03a.167.167 0 0 0 .024.072l-.003-.001c.004-.01-.016-.033-.02-.045l.016.053a8.857 8.857 0 0 1-.001 5.03z"/><path d="m53.6 35.425.034-.055.055.034a.478.478 0 0 0 .674-.19.483.483 0 0 0-.185-.628l-.046-.028-.812-.498-.499.812-.028.046a.484.484 0 0 0 .12.643.478.478 0 0 0 .687-.136zm-6.427 1.939.034-.055.055.034a.478.478 0 0 0 .674-.19.484.484 0 0 0-.185-.628l-.046-.029-.812-.498-.498.813-.028.046a.484.484 0 0 0 .12.643.478.478 0 0 0 .686-.136zm-6.712 1.506.034-.056.055.034a.478.478 0 0 0 .674-.19.483.483 0 0 0-.185-.628l-.046-.028-.812-.498-.498.812-.029.046a.484.484 0 0 0 .12.643.478.478 0 0 0 .687-.136z"/><path class="cls-1" d="M60.47 78.18a1.085 1.085 0 0 1 .04.25h14.64v3.08H60.51a1.085 1.085 0 0 1-.04.25H75.4v-3.58zm-17.9.25a1.085 1.085 0 0 1 .04-.25H27.68v3.58h14.93a1.085 1.085 0 0 1-.04-.25H27.93v-3.08z"/><path class="cls-1" d="M51.538 71.102a8.868 8.868 0 1 0 8.868 8.868 8.878 8.878 0 0 0-8.868-8.868zM49.381 86.08l2.157-2.217 2.158 2.217zm6.954-3.433a3.074 3.074 0 0 1-4.503.181l-.294-.294-.294.294a3.074 3.074 0 0 1-4.504-.182 3.112 3.112 0 0 1 .216-4.203l.246-.246 4.336-4.335 4.336 4.335.246.246a3.112 3.112 0 0 1 .216 4.204z"/></g></svg>