<svg xmlns="http://www.w3.org/2000/svg" viewBox="0 0 103 160"><path fill="#fff" d="M0 0h103v160H0z"/><path d="M23.569 44.81a5.335 5.335 0 0 1-7.81.31l-.51-.51-.51.51a5.324 5.324 0 0 1-7.8-.31 5.404 5.404 0 0 1 .37-7.29l.43-.43a27.144 27.144 0 0 0 2.5-1.9 28.006 28.006 0 0 0 5.01-5.61 28.406 28.406 0 0 0 5.02 5.61 25.858 25.858 0 0 0 2.5 1.9c.14.15.28.29.43.43a5.404 5.404 0 0 1 .37 7.29z"/><path d="m15.253 46.915-3.741 3.844h7.481l-3.74-3.844zm2.378-42.158 1.793 1.17-5.893 8.917a6.998 6.998 0 0 1 2.224-.399 5.898 5.898 0 0 1 4.407 1.874 6.384 6.384 0 0 1 1.81 4.615 6.692 6.692 0 0 1-.874 3.4 6.404 6.404 0 0 1-2.484 2.414 7.014 7.014 0 0 1-3.464.896 6.663 6.663 0 0 1-3.33-.866 6.232 6.232 0 0 1-2.41-2.437 6.806 6.806 0 0 1-.874-3.363 8.153 8.153 0 0 1 .54-2.807 17.595 17.595 0 0 1 1.939-3.548zm-2.392 11.6a4.581 4.581 0 0 0-4.585 4.592 4.581 4.581 0 0 0 4.585 4.577 4.581 4.581 0 0 0 4.585-4.577 4.581 4.581 0 0 0-4.585-4.593zm64.192 98.833a5.335 5.335 0 0 1 7.81-.31l.51.51.51-.51a5.324 5.324 0 0 1 7.8.31 5.404 5.404 0 0 1-.37 7.29l-.43.43a27.144 27.144 0 0 0-2.5 1.9 28.006 28.006 0 0 0-5.01 5.61 28.406 28.406 0 0 0-5.02-5.61 25.858 25.858 0 0 0-2.5-1.9c-.14-.15-.28-.29-.43-.43a5.404 5.404 0 0 1-.37-7.29z"/><path d="m87.747 113.085 3.741-3.844h-7.481l3.74 3.844zm-2.378 42.158-1.793-1.17 5.894-8.917a6.998 6.998 0 0 1-2.225.399 5.898 5.898 0 0 1-4.407-1.874 6.384 6.384 0 0 1-1.81-4.614 6.692 6.692 0 0 1 .874-3.4 6.404 6.404 0 0 1 2.484-2.415 7.014 7.014 0 0 1 3.464-.896 6.663 6.663 0 0 1 3.33.866 6.232 6.232 0 0 1 2.41 2.437 6.806 6.806 0 0 1 .874 3.363 8.153 8.153 0 0 1-.54 2.807 17.595 17.595 0 0 1-1.939 3.548zm2.392-11.6a4.581 4.581 0 1 0-3.242-1.34 4.418 4.418 0 0 0 3.242 1.34zM41.43 43.469a3.794 3.794 0 0 1-5.554.22l-.363-.362-.362.362a3.786 3.786 0 0 1-5.548-.22 3.843 3.843 0 0 1 .264-5.185l.305-.305a19.311 19.311 0 0 0 1.778-1.351 19.917 19.917 0 0 0 3.563-3.99 20.204 20.204 0 0 0 3.57 3.99 18.397 18.397 0 0 0 1.778 1.35c.1.107.199.207.306.307a3.843 3.843 0 0 1 .263 5.184z"/><path d="m35.516 44.966-2.66 2.734h5.32l-2.66-2.734zm-5.913 71.565a3.794 3.794 0 0 1 5.554-.22l.363.362.363-.362a3.786 3.786 0 0 1 5.547.22 3.843 3.843 0 0 1-.263 5.184l-.306.306a19.311 19.311 0 0 0-1.778 1.351 19.917 19.917 0 0 0-3.563 3.99 20.208 20.208 0 0 0-3.57-3.99 18.397 18.397 0 0 0-1.778-1.35 6.328 6.328 0 0 0-.306-.307 3.843 3.843 0 0 1-.263-5.184z"/><path d="m35.518 115.034 2.66-2.734h-5.321l2.661 2.734zm37.879-71.565a3.794 3.794 0 0 1-5.555.22l-.362-.362-.363.362a3.786 3.786 0 0 1-5.547-.22 3.843 3.843 0 0 1 .263-5.185l.306-.305a19.311 19.311 0 0 0 1.778-1.351 19.917 19.917 0 0 0 3.563-3.99 20.208 20.208 0 0 0 3.57 3.99 18.397 18.397 0 0 0 1.778 1.35c.1.107.199.207.305.306a3.843 3.843 0 0 1 .264 5.185z"/><path d="m67.482 44.966-2.66 2.734h5.321l-2.661-2.734zm-5.912 71.565a3.794 3.794 0 0 1 5.554-.22l.363.362.363-.362a3.786 3.786 0 0 1 5.547.22 3.843 3.843 0 0 1-.264 5.184l-.305.306a19.311 19.311 0 0 0-1.778 1.351 19.917 19.917 0 0 0-3.563 3.99 20.204 20.204 0 0 0-3.57-3.99 18.397 18.397 0 0 0-1.778-1.35c-.1-.107-.2-.207-.306-.307a3.843 3.843 0 0 1-.263-5.184z"/><path d="m67.484 115.034 2.66-2.734h-5.32l2.66 2.734zM41.43 83.3a3.794 3.794 0 0 1-5.554.22l-.363-.362-.362.362a3.786 3.786 0 0 1-5.548-.22 3.843 3.843 0 0 1 .263-5.184l.306-.306a19.295 19.295 0 0 0 1.778-1.351 19.914 19.914 0 0 0 3.563-3.99 20.201 20.201 0 0 0 3.57 3.99 18.383 18.383 0 0 0 1.778 1.351c.1.107.2.206.306.306a3.843 3.843 0 0 1 .263 5.184z"/><path d="m35.516 84.797-2.66 2.734h5.32l-2.66-2.734zM73.397 83.3a3.794 3.794 0 0 1-5.555.22l-.362-.362-.363.362a3.786 3.786 0 0 1-5.547-.22 3.843 3.843 0 0 1 .263-5.184l.306-.306a19.295 19.295 0 0 0 1.778-1.351 19.914 19.914 0 0 0 3.563-3.99 20.205 20.205 0 0 0 3.57 3.99 18.383 18.383 0 0 0 1.778 1.351c.1.107.199.206.305.306a3.843 3.843 0 0 1 .264 5.184z"/><path d="m67.482 84.797-2.66 2.734h5.321l-2.661-2.734z"/></svg>