<svg xmlns="http://www.w3.org/2000/svg" viewBox="0 0 103 160"><defs><style>.cls-1{fill:#fff}.cls-2{fill:#f9c19b}.cls-3{fill:#383838}.cls-4{fill:#2f5f84}.cls-5{fill:#ffc614}.cls-6{fill:#9b0a0a}.cls-7{fill:#3f8214}.cls-8{fill:#53aa1b}.cls-9{fill:#7c0404}.cls-10{fill:#bf1b1b}.cls-11{fill:#d1780f}</style></defs><g id="SPADES"><path class="cls-1" d="M0 0h103v160H0z"/><path d="M23.569 44.81a5.335 5.335 0 0 1-7.81.31l-.51-.51-.51.51a5.324 5.324 0 0 1-7.8-.31 5.404 5.404 0 0 1 .37-7.29l.43-.43a27.144 27.144 0 0 0 2.5-1.9 28.006 28.006 0 0 0 5.01-5.61 28.406 28.406 0 0 0 5.02 5.61 25.858 25.858 0 0 0 2.5 1.9c.14.15.28.29.43.43a5.404 5.404 0 0 1 .37 7.29z"/><path d="m15.253 46.915-3.741 3.844h7.481l-3.74-3.844zm7.341-23.158 3.075 3.887h-2.551l-2.112-2.68a10.672 10.672 0 0 1-5.722 1.567 10.584 10.584 0 0 1-7.77-3.157 10.389 10.389 0 0 1-3.168-7.638 11.048 11.048 0 0 1 1.451-5.546 10.463 10.463 0 0 1 3.951-3.995 10.806 10.806 0 0 1 5.485-1.438A10.584 10.584 0 0 1 23 7.907a10.51 10.51 0 0 1 3.162 7.744 10.846 10.846 0 0 1-.867 4.383 11.495 11.495 0 0 1-2.701 3.723zm-1.283-1.62a8.72 8.72 0 0 0 2.709-6.505 8.792 8.792 0 0 0-1.149-4.465 8.57 8.57 0 0 0-3.234-3.194 8.657 8.657 0 0 0-8.78-.01 8.568 8.568 0 0 0-3.213 3.23 9.036 9.036 0 0 0-1.156 4.536 8.475 8.475 0 0 0 2.55 6.241 8.396 8.396 0 0 0 6.16 2.546 8.748 8.748 0 0 0 4.511-1.2l-4.617-5.86h2.515zm58.12 93.053a5.335 5.335 0 0 1 7.81-.31l.51.51.51-.51a5.324 5.324 0 0 1 7.8.31 5.404 5.404 0 0 1-.37 7.29l-.43.43a27.144 27.144 0 0 0-2.5 1.9 28.006 28.006 0 0 0-5.01 5.61 28.406 28.406 0 0 0-5.02-5.61 25.858 25.858 0 0 0-2.5-1.9c-.14-.15-.28-.29-.43-.43a5.404 5.404 0 0 1-.37-7.29z"/><path d="m87.747 113.085 3.741-3.844h-7.481l3.74 3.844zm-7.341 23.158-3.075-3.887h2.551l2.112 2.68a11.177 11.177 0 0 1 13.492 1.59 10.389 10.389 0 0 1 3.168 7.638 11.048 11.048 0 0 1-1.451 5.546 10.463 10.463 0 0 1-3.951 3.995 10.806 10.806 0 0 1-5.485 1.438 10.777 10.777 0 0 1-10.929-10.894 10.846 10.846 0 0 1 .867-4.383 11.495 11.495 0 0 1 2.701-3.723zm1.283 1.62a9.198 9.198 0 0 0-1.56 10.97 8.57 8.57 0 0 0 3.234 3.194 8.657 8.657 0 0 0 8.78.01 8.568 8.568 0 0 0 3.213-3.23 9.036 9.036 0 0 0 1.156-4.536 8.702 8.702 0 0 0-8.71-8.787 8.748 8.748 0 0 0-4.512 1.2l4.618 5.86h-2.515zm-3.944-60.525v-.027a.18.18 0 0 0-.181-.18l-4.941-.018a4.17 4.17 0 0 0-.493-.339c1.319-5.13.944-9.148-1.114-11.944a10.24 10.24 0 0 0-7.133-3.81h-.005a6.132 6.132 0 0 0-.432-.301 10.463 10.463 0 0 0-1.634-.773c-.365-.146-.73-.308-1.09-.49.085-.81.974-5.775 9.965-6.347a.18.18 0 0 0 .076-.338 11.304 11.304 0 0 0-1.942-.752 7.373 7.373 0 0 0-5.197-2.472c-.104 0-.21.002-.316.005a3.658 3.658 0 0 0-.235-1.545 11.04 11.04 0 0 0-1.089-2.048 4.928 4.928 0 0 1-.87-3.855l.027-.336c.297-3.659 1.086-13.367-8.1-15.736a17.786 17.786 0 0 0-.947-4.38.184.184 0 0 0-.168-.12.191.191 0 0 0-.158.09 6.638 6.638 0 0 1-.435.62 2.667 2.667 0 0 1-1.693-1.04.184.184 0 0 0-.158-.074h-.005a.47.47 0 0 0-.137.081 5.001 5.001 0 0 1-2.062 1.917 5.82 5.82 0 0 1-1.03-.551 1.08 1.08 0 0 0-.167-.017.387.387 0 0 0-.108.124 7.682 7.682 0 0 1-.309.886 1.986 1.986 0 0 1-.44.048 3.936 3.936 0 0 1-1.91-.632.135.135 0 0 0-.088-.025.592.592 0 0 0-.095.01.178.178 0 0 0-.102.152 3.218 3.218 0 0 1-1.496 2.476 8.046 8.046 0 0 1-1.363-.518.378.378 0 0 0-.113.04.18.18 0 0 0-.063.185 24.132 24.132 0 0 0 1.436 3.994 15.166 15.166 0 0 0-2.264 3.198 13.097 13.097 0 0 0-1.576 7.938 9.922 9.922 0 0 0 .967 3.193 10.83 10.83 0 0 0 .719 1.177c.715 1.075 1.526 2.292.958 3.428a4.071 4.071 0 0 0-.448 1.679 7.67 7.67 0 0 0-2.647 1.597 6.282 6.282 0 0 0-1.04-.905.176.176 0 0 0-.099-.03.383.383 0 0 0-.106.035.181.181 0 0 0-.07.192c.011.041.24 1.024-1.425 1.92a2.212 2.212 0 0 0-1.378 2.379 5.48 5.48 0 0 1-1.82-.657.18.18 0 0 0-.093-.026.371.371 0 0 0-.145.072.183.183 0 0 0 .019.24c.003.004.295.353.038 1.868a1.94 1.94 0 0 0-.612-.1 2.446 2.446 0 0 0-1.86 1.013 2.426 2.426 0 0 1-1.781 1.065 1.405 1.405 0 0 1-.475-.092.384.384 0 0 0-.123.047.183.183 0 0 0-.046.2c.043.11 1.04 2.602 3.094 2.848a2.88 2.88 0 0 1-1.406.877 2.804 2.804 0 0 1-.746.1 3.342 3.342 0 0 1-.885-.129.181.181 0 0 0-.108.326 10.486 10.486 0 0 0 3.47 1.73 7.558 7.558 0 0 0 2.011.293c-1.415 4.519.113 10.856.513 12.357h-6.63a.18.18 0 0 0-.181.18v5.377a.18.18 0 0 0 .18.18l4.942.019a4.17 4.17 0 0 0 .493.338c-1.32 5.13-.945 9.149 1.113 11.944a10.24 10.24 0 0 0 7.133 3.81h.005c.142.105.284.21.433.302a10.463 10.463 0 0 0 1.634.772c.364.146.73.309 1.09.49-.085.81-.975 5.776-9.965 6.347a.18.18 0 0 0-.076.339 11.304 11.304 0 0 0 1.941.752 7.373 7.373 0 0 0 5.198 2.47c.103 0 .21-.001.316-.004a3.658 3.658 0 0 0 .234 1.545 11.04 11.04 0 0 0 1.09 2.049 4.928 4.928 0 0 1 .87 3.854l-.028.337c-.297 3.658-1.085 13.366 8.1 15.735a17.786 17.786 0 0 0 .947 4.38.184.184 0 0 0 .169.12.191.191 0 0 0 .158-.09 6.638 6.638 0 0 1 .434-.62 2.667 2.667 0 0 1 1.694 1.04.184.184 0 0 0 .157.074h.005a.47.47 0 0 0 .137-.081 5.001 5.001 0 0 1 2.063-1.917 5.82 5.82 0 0 1 1.03.552 1.08 1.08 0 0 0 .167.016.387.387 0 0 0 .108-.124 7.682 7.682 0 0 1 .308-.886 1.986 1.986 0 0 1 .441-.047 3.936 3.936 0 0 1 1.91.632.135.135 0 0 0 .088.024.592.592 0 0 0 .095-.01.178.178 0 0 0 .102-.152 3.218 3.218 0 0 1 1.495-2.476 8.046 8.046 0 0 1 1.363.519.378.378 0 0 0 .114-.04.18.18 0 0 0 .062-.186 24.132 24.132 0 0 0-1.435-3.994 15.166 15.166 0 0 0 2.263-3.197 13.097 13.097 0 0 0 1.577-7.938 9.922 9.922 0 0 0-.967-3.193 10.83 10.83 0 0 0-.719-1.177c-.715-1.075-1.526-2.292-.958-3.428a4.071 4.071 0 0 0 .448-1.679 7.67 7.67 0 0 0 2.647-1.597 6.282 6.282 0 0 0 1.04.905.176.176 0 0 0 .099.03.383.383 0 0 0 .106-.035.181.181 0 0 0 .07-.192c-.011-.041-.24-1.024 1.425-1.92a2.212 2.212 0 0 0 1.378-2.379 5.48 5.48 0 0 1 1.82.657.18.18 0 0 0 .093.026.371.371 0 0 0 .145-.072.183.183 0 0 0-.019-.24c-.003-.004-.295-.353-.038-1.868a1.94 1.94 0 0 0 .612.1 2.446 2.446 0 0 0 1.86-1.013 2.426 2.426 0 0 1 1.781-1.065 1.405 1.405 0 0 1 .475.092.384.384 0 0 0 .123-.047.183.183 0 0 0 .046-.2c-.043-.11-1.04-2.602-3.094-2.848a2.88 2.88 0 0 1 1.406-.877 2.804 2.804 0 0 1 .746-.1 3.342 3.342 0 0 1 .885.129.181.181 0 0 0 .108-.326 10.486 10.486 0 0 0-3.47-1.73 7.558 7.558 0 0 0-2.011-.293c1.415-4.519-.113-10.856-.513-12.357h6.63a.18.18 0 0 0 .181-.18V77.34zm-35.24-19.15a.18.18 0 0 0 .135.301.734.734 0 0 0 .096-.03 1.884 1.884 0 0 1 .186-.031 1.454 1.454 0 0 0 .165-.029 2.405 2.405 0 0 0 .917-.546 1.665 1.665 0 0 0 .167-.192 6.851 6.851 0 0 1 .623 1.804 10.27 10.27 0 0 1-3.28 1.552 3.708 3.708 0 0 0-2.333-1.147 7.157 7.157 0 0 0 .645-1.121 6.778 6.778 0 0 0 .533-3.279 9.99 9.99 0 0 0-.155-1.214 8.835 8.835 0 0 1 2.726 1.734 2.599 2.599 0 0 1 .13.46 2.07 2.07 0 0 1-.554 1.739zm11.003 62.86a.908.908 0 0 0-.437-.904.908.908 0 0 1 .437.903zm-1.8-.246a.904.904 0 0 1 .35-.6.904.904 0 0 0-.35.6zm8.786-18.99a.18.18 0 0 0-.134-.302.734.734 0 0 0-.096.03 1.884 1.884 0 0 1-.186.032 1.454 1.454 0 0 0-.165.029 2.405 2.405 0 0 0-.917.545 1.665 1.665 0 0 0-.167.193 6.851 6.851 0 0 1-.623-1.805 10.27 10.27 0 0 1 3.28-1.552 3.708 3.708 0 0 0 2.333 1.147 7.157 7.157 0 0 0-.645 1.122 6.778 6.778 0 0 0-.533 3.278 9.99 9.99 0 0 0 .155 1.214 8.835 8.835 0 0 1-2.726-1.733 2.599 2.599 0 0 1-.13-.46 2.07 2.07 0 0 1 .554-1.739zM38.517 53.688a3.067 3.067 0 0 1-.266.332 2.76 2.76 0 0 0-.022-.406zm25.966 52.622a3.067 3.067 0 0 1 .266-.332 2.76 2.76 0 0 0 .022.406z"/><path class="cls-2" d="M56.865 101.377a.095.095 0 0 1-.044-.042c-.013-.028-.885-1.765-6.15-1.39a.11.11 0 0 1-.087-.043l-1.817-2.817-.633 3.076a.096.096 0 0 1-.093.075h-.007a3.948 3.948 0 0 0-3.17 1.986 11.337 11.337 0 0 1 1.346 1.788 14.647 14.647 0 0 1 2 8.016c1.306-1.725 3.108-3.185 4.738-3.185a2.602 2.602 0 0 1 .372.027 6.97 6.97 0 0 1 1.508.406 11.268 11.268 0 0 1-.112-1.877.086.086 0 0 1 .001-.075 9.242 9.242 0 0 1 2.148-5.945z"/><path class="cls-1" d="M43.813 111.333a2.952 2.952 0 0 1-.183.017c.078.092.158.183.238.273a2.18 2.18 0 0 1-.055-.29z"/><path class="cls-3" d="M44.249 111.994a.091.091 0 0 1 .01.05c.17.18.342.359.512.533a17.987 17.987 0 0 1 1.385 1.535 5.455 5.455 0 0 1 .483.758 10.363 10.363 0 0 1 1.376-2.574 14.573 14.573 0 0 0-.144-3.002.083.083 0 0 1-.075.014 4.939 4.939 0 0 1-3.22-3.497 4.332 4.332 0 0 1-.153-1.194c-.868.938-.707 2.141-.537 3.409.03.231.058.466.083.7.003.004.009.003.012.007a.09.09 0 0 1 0 .093 6.406 6.406 0 0 1 .033.927c-.007.124-.016.252-.026.38a2.89 2.89 0 0 0 .26 1.86z"/><path class="cls-4" d="M30.388 88.163a22.879 22.879 0 0 1 .752-4.873 15.136 15.136 0 0 0 4.559 1.894l-.029.257a21.307 21.307 0 0 0 .667 9.242 8.727 8.727 0 0 0 2.56 4.007 9.914 9.914 0 0 1-6.691-3.684 8.775 8.775 0 0 1-1.352-2.76 12.884 12.884 0 0 1-.466-4.083z"/><path class="cls-5" d="M56.037 107.469a5.296 5.296 0 0 0 .08-1.51c-.009-.2-.012-.405-.012-.609l-.02-.022-.04-.045-.04-.049a8.873 8.873 0 0 1-.617-.848 10.623 10.623 0 0 0-.481 2.946c.345.315.63.553.903.757a5.206 5.206 0 0 0 .227-.62zm-11.276-1.701a4.732 4.732 0 0 0 3.077 3.355c.005 0 .007.006.012.008a14.651 14.651 0 0 0-.807-2.977 15.418 15.418 0 0 1-1.31 1.317.093.093 0 0 1-.134-.008.094.094 0 0 1 .007-.133 15.263 15.263 0 0 0 1.32-1.33.088.088 0 0 1 .053-.023 12.959 12.959 0 0 0-.932-1.869c-.124-.204-.265-.395-.4-.59a9.433 9.433 0 0 1-1.01 1.554 6.017 6.017 0 0 0 .124.696z"/><path class="cls-4" d="M65.351 98.845a12.001 12.001 0 0 0-.418-1.2c-.382-.97-2.26-3.634-3.676-4.044l-.005-.003-.005-.002a11.974 11.974 0 0 0-1.298-.377c.224 4.28 1.62 6.526 4.156 6.67a3.737 3.737 0 0 1 1.246-1.044z"/><path class="cls-5" d="M61.444 106.006a5.25 5.25 0 0 1 1.552 2.27c.223-.003.455-.031.683-.05a10.376 10.376 0 0 1-.616-1.683 9.628 9.628 0 0 1-.106-.433 9.315 9.315 0 0 1-2.77-1.645 5.728 5.728 0 0 0 1.257 1.541zm-6.54 1.576a10.426 10.426 0 0 0 .13 1.776c.107.045.214.091.321.141a4.632 4.632 0 0 1 .38-1.227 11.457 11.457 0 0 1-.831-.69z"/><path class="cls-2" d="M46.99 120.634a4.575 4.575 0 0 0 .797 2.726c.005.007.003.015.006.022 5.79.534 7.865 4.394 8.374 5.595-.18-4.187 3.37-7.257 5.338-8.623-.004-.005-.011-.006-.015-.012a20.077 20.077 0 0 1-1.488-4.903 8.503 8.503 0 0 0-6.71-6.383c-2.558-.378-5.725 3.418-6.54 6.065a7.615 7.615 0 0 1 .356 4.384c-.053.406-.103.79-.117 1.129zm11.441-2.448a.778.778 0 1 1-.778.778.778.778 0 0 1 .778-.778zm-.975 2.464a3.482 3.482 0 0 0 2.734-1.415.094.094 0 0 1 .085-.052.09.09 0 0 1 .043.01.095.095 0 0 1 .042.128c-.025.05-.643 1.224-2.879 1.518a.103.103 0 0 1-.107-.082.096.096 0 0 1 .082-.107zm-2.158-5.507a.776.776 0 0 1 .523.146.89.89 0 0 1 .24.56l.542 3.432a.095.095 0 0 1-.079.109.092.092 0 0 1-.109-.08l-.542-3.43a.718.718 0 0 0-.176-.446.692.692 0 0 0-.451-.1c-.2.005-.406.019-.613.04a.108.108 0 0 1-.105-.084.096.096 0 0 1 .085-.105c.211-.022.423-.036.629-.04.019-.002.037-.002.056-.002zm-2.99-.916a2.93 2.93 0 0 1 2.309-1.369h.006a.095.095 0 0 1 .006.19 2.792 2.792 0 0 0-2.15 1.265.094.094 0 0 1-.128.043.096.096 0 0 1-.042-.129zm.422 5.799a.908.908 0 1 1-1.022.777.908.908 0 0 1 1.023-.778zm-1.516 2.71h.037c2.487 0 3.351-1.2 3.36-1.211a.094.094 0 0 1 .078-.041.095.095 0 0 1 .079.149c-.037.053-.923 1.293-3.516 1.293h-.038a.095.095 0 1 1 0-.19z"/><path class="cls-6" d="M54.12 113.022s.354.69-.475.722a.534.534 0 0 1-.89.215.837.837 0 0 1 1.366-.937z"/><path class="cls-5" d="M43.778 111.145a6.269 6.269 0 0 1 .02-1.026c.01-.127.02-.253.025-.376a5.903 5.903 0 0 0-.023-.783 8.813 8.813 0 0 1-1.324.724 8.13 8.13 0 0 0 .994 1.48 2.754 2.754 0 0 0 .308-.02z"/><path class="cls-1" d="M59.605 86.229c.016-.504.035-1.056.08-1.546a9.23 9.23 0 0 1-1.913 2.358l.016-.002a16.408 16.408 0 0 1 1.793-.193c.009-.192.016-.397.023-.617z"/><path class="cls-7" d="M67.586 93.92a10.139 10.139 0 0 1 .916-.684 2.628 2.628 0 0 1 2.17-.435c-.216-1.101-1.574-1.651-2.001-1.798a5.33 5.33 0 0 0-2.61-.293 3.167 3.167 0 0 0-2.17 1.333 2.728 2.728 0 0 0-.317.672l-.002.009c-.004.006-.005.013-.009.019a1.977 1.977 0 0 0-.085.588.729.729 0 0 0 .202.378 1.084 1.084 0 0 0 1.07.146 3.561 3.561 0 0 0 .926-.55l.101-.074a2.74 2.74 0 0 1 1.138-.56.095.095 0 0 1 .03.187 2.584 2.584 0 0 0-1.055.527l-.101.074a3.706 3.706 0 0 1-.978.577 1.278 1.278 0 0 1-1.251-.18 1.621 1.621 0 0 0 .368.62 2.142 2.142 0 0 0 2.681.165v.001a9.233 9.233 0 0 0 .977-.722z"/><path class="cls-4" d="M35.827 85.016c3.023.698 6.392 4.194 7.07 4.923a8.39 8.39 0 0 1 .16-.54.093.093 0 0 1-.016-.039.093.093 0 0 1 .058-.082 8.459 8.459 0 0 1 1.472-2.536c.03-.04.054-.073.075-.099l.014-.018h.002c.038-.043.066-.049.098-.038a9.413 9.413 0 0 1-2.27-3.804H30.698c.083.057.213.143.431.28a14.88 14.88 0 0 0 4.698 1.953z"/><path class="cls-8" d="M63.165 93.367a15.084 15.084 0 0 1-1.553-1.802 11.538 11.538 0 0 0-1.778-.392v.003a5.17 5.17 0 0 1 2.64 2.23.29.29 0 0 1-.079.3.49.49 0 0 1-.344.081 10.818 10.818 0 0 1 3.059 3.787 12.357 12.357 0 0 1 .416 1.19 2.404 2.404 0 0 1 .472-.142 1.718 1.718 0 0 1 .296-.027 1.392 1.392 0 0 1 .736.23 1.427 1.427 0 0 1-.071-1.176 4.461 4.461 0 0 1-1.026-.943c-.285-.435-.969-1.495-.988-1.526a2.004 2.004 0 0 1-1.153-.571 1.839 1.839 0 0 1-.506-1.239.091.091 0 0 1-.12-.003z"/><path class="cls-5" d="M57.975 100.597a7.674 7.674 0 0 0-2.523 3.604.09.09 0 0 1 .067.036 8.159 8.159 0 0 0 .59.821 2.266 2.266 0 0 1 1.007-1.93.088.088 0 0 1 .043-.01.094.094 0 0 1 .07.03.095.095 0 0 1 .011.115 1.217 1.217 0 0 0 .167 1.268 5.524 5.524 0 0 0 .378.482c.101.119.202.242.298.37a4.05 4.05 0 0 1 .602-2.732 5.368 5.368 0 0 1-.71-2.054z"/><path class="cls-2" d="m44.76 86.812-.015.016-.025.034a8.42 8.42 0 0 0-1.43 2.452 11.582 11.582 0 0 1 3.09 1.706 9.364 9.364 0 0 0 6.681 1.815 16.411 16.411 0 0 1 6.804.16 12.007 12.007 0 0 1 1.446.422c.744.265.922.18.96.146.008-.008.036-.032.017-.117a5.038 5.038 0 0 0-2.572-2.113c-.029-.008-.163-.058-.31-.113s-.362-.137-.414-.152a26.678 26.678 0 0 0-3.975-.07.106.106 0 0 1-.102-.088.095.095 0 0 1 .088-.101 26.948 26.948 0 0 1 4.004.07l.007-.002.015.004c.23.023.46.052.69.084.006-.001.009-.006.014-.006.012 0 .02.008.03.012a11.8 11.8 0 0 1 1.937.422c.609.195 1.075.208 1.243.032a.322.322 0 0 0 .032-.341c-.25-.682-1.777-1.762-4.39-2.04a9.096 9.096 0 0 0-2.28.598.092.092 0 0 1-.127-.042.095.095 0 0 1 .042-.127 8.937 8.937 0 0 1 2.347-.62l.005-.001h.008c.317-.05.656-.098 1.045-.138a24.725 24.725 0 0 1 2.622-.129c1.242 0 1.807-.221 1.923-.427a.198.198 0 0 0-.018-.212c-.28-.453-1.85-1.027-4.474-.917a16.752 16.752 0 0 0-1.874.198c-.03.004-.1.022-.17.04a2.361 2.361 0 0 1-.174.038 9.396 9.396 0 0 1-12.475-.474c-.053-.05-.097-.11-.149-.162a.139.139 0 0 1-.023.068v.001l-.008.011-.045.063z"/><path class="cls-6" d="M68.015 101.265a3.38 3.38 0 0 0-.92-2.185 1.255 1.255 0 0 0-1.064-.27 2.26 2.26 0 0 0-.544.175l-.004.003h-.001a4.899 4.899 0 0 0-2.057 2.376 6.51 6.51 0 0 0-.51 3.146 10.067 10.067 0 0 0 .215 1.494v.006c.04.18.08.347.117.483a10.266 10.266 0 0 0 .43 1.26 3.162 3.162 0 0 1 .34-1.237c.026-.052.061-.088.09-.136a.082.082 0 0 1 .019-.03 3.295 3.295 0 0 1 1.451-1.298c.974-.568 2.599-1.824 2.438-3.787z"/><path class="cls-5" d="M65.515 107.936a3.703 3.703 0 0 1-.6-1.23 31.693 31.693 0 0 1-.681-.174c-.015.026-.034.044-.048.072a3.01 3.01 0 0 0-.318 1.595c0 .006-.01.007-.01.013a12.482 12.482 0 0 0 1.657-.276zm-21.933-1.712a8.139 8.139 0 0 1-1.676 1.222 4.989 4.989 0 0 0 .484 2.068 8.681 8.681 0 0 0 1.39-.765 24.187 24.187 0 0 0-.083-.698 9.036 9.036 0 0 1-.115-1.827z"/><path class="cls-9" d="M73.491 98.635a5.973 5.973 0 0 1-2.1 1.511 4.023 4.023 0 0 1 .549 2.947 1.909 1.909 0 0 0 2.301-.78c1.03-1.214 1.903-1.217 2.294-1.132-.286-.603-1.289-2.43-2.973-2.503a.09.09 0 0 1-.07-.043z"/><path class="cls-4" d="M64.337 88.25a.364.364 0 0 0-.028-.4c-.324-.524-1.79-1.029-3.96-1.029-.19 0-.38.01-.58.02.01-.19.019-.39.028-.61a16.345 16.345 0 0 1 .143-2.018c0-.01-.01-.01-.01-.019a9.526 9.526 0 0 0 .581-1.408H70.63c.104.38.4 1.513.656 3.017a25.598 25.598 0 0 1 .352 7.147 11.148 11.148 0 0 1-.504 2.37 5.407 5.407 0 0 0-.97.124c-.753.162-2.504.695-3.123 2.027a4.526 4.526 0 0 1-.951-.866c-.229-.352-.705-1.094-.905-1.399h.134a2.715 2.715 0 0 0 1.39-.4 9.726 9.726 0 0 0 .999-.742c.057-.038.105-.086.162-.124a8.114 8.114 0 0 1 .733-.542 2.45 2.45 0 0 1 2.15-.362.112.112 0 0 0 .096-.01.103.103 0 0 0 .038-.086c-.124-1.284-1.542-1.913-2.151-2.122a6.13 6.13 0 0 0-1.98-.352 4.451 4.451 0 0 0-.723.057 3.693 3.693 0 0 0-.581.143 3.235 3.235 0 0 0-1.723 1.275 2.75 2.75 0 0 0-.352.77.854.854 0 0 0-.114.486 15.235 15.235 0 0 1-1.352-1.55c.552.133.97.114 1.17-.086a.513.513 0 0 0 .077-.542c-.229-.619-1.494-1.666-3.902-2.066a4.35 4.35 0 0 1 .39-.047 24.269 24.269 0 0 1 2.598-.133c1.162 0 1.904-.181 2.094-.524z"/><path class="cls-6" d="M67.158 97.645a1.256 1.256 0 0 0 .043 1.096 3.378 3.378 0 0 0 1.946 1.355c1.884.565 3.452-.76 4.219-1.604a3.22 3.22 0 0 1 1.75-1.213 3.162 3.162 0 0 1 1.278-.076 10.168 10.168 0 0 0-1.14-.682 10.292 10.292 0 0 0-1.87-.735 6.518 6.518 0 0 0-3.184-.158c-.735.162-2.502.684-3.042 2.017z"/><path class="cls-9" d="m69.353 104.763-.119.002a2.896 2.896 0 0 1-2.083-.625.094.094 0 0 1-.029-.069 6.617 6.617 0 0 1-1.458 1.15 3.338 3.338 0 0 0-.621.376c.002.01.008.018.007.03a3.169 3.169 0 0 0 .895 2.53l.01.004c.005.005.003.011.007.016a6.35 6.35 0 0 0 .922.866c-.001-.398.182-1.252 1.586-2.006 1.572-.846 1.28-2.014 1.2-2.254-.105-.008-.209-.02-.317-.02z"/><path class="cls-10" d="M69.092 100.278a4.456 4.456 0 0 1-1.38-.706 4.313 4.313 0 0 1 .493 1.678 3.575 3.575 0 0 1-.999 2.73.09.09 0 0 1 .077.022 2.824 2.824 0 0 0 1.945.574 4.046 4.046 0 0 1 .48.029.108.108 0 0 1 .032-.006c.006 0 .008.008.013.009a5.538 5.538 0 0 1 1.918.562 4.583 4.583 0 0 1 .071-2.014l.002-.016c.001-.01-.003-.02.001-.029l.002-.002a3.851 3.851 0 0 0-.537-2.887 3.388 3.388 0 0 1-2.118.056z"/><path class="cls-1" d="M42.54 100.37a5.652 5.652 0 0 1 .56.314 10.15 10.15 0 0 1 1.63 1.396 4.166 4.166 0 0 1 3.233-2.032l.665-3.23a.097.097 0 0 1 .075-.074l.018-.001a.095.095 0 0 1 .08.043l1.913 2.965c5.202-.365 6.18 1.301 6.272 1.488a8.935 8.935 0 0 1 4.435-2.477c-.974-1.136-1.539-2.993-1.667-5.593a16.184 16.184 0 0 0-6.654-.148 9.622 9.622 0 0 1-6.844-1.856 11.63 11.63 0 0 0-3.03-1.672 7.3 7.3 0 0 0-.186.663.094.094 0 0 1-.07.071.1.1 0 0 1-.094-.028c-.038-.043-3.713-4.145-6.99-4.968-.01.078-.022.156-.03.233a21.165 21.165 0 0 0 .661 9.155 7.991 7.991 0 0 0 3.183 4.428 10.221 10.221 0 0 0 1.591.75c.4.16.801.34 1.195.543a.09.09 0 0 1 .054.03z"/><path class="cls-1" d="M42.647 82.66a9.228 9.228 0 0 0 14.885 4.345 9.24 9.24 0 0 0 2.817-9.637 9.178 9.178 0 0 0-8.846-6.595 9.3 9.3 0 0 0-8.856 6.594 9.262 9.262 0 0 0 0 5.294zm11.08-8.954-2.228 2.29-2.227-2.29zm-7.18 3.544a3.174 3.174 0 0 1 4.648-.187l.304.304.303-.304a3.174 3.174 0 0 1 4.65.188 3.212 3.212 0 0 1-.224 4.338l-.254.255-4.475 4.475-4.476-4.475-.254-.255a3.212 3.212 0 0 1-.222-4.339z"/><path class="cls-5" d="M50.157 132.257a18.274 18.274 0 0 0 .944 5.815 4.189 4.189 0 0 1 2.391-1.719 3.738 3.738 0 0 1 2.268.237 1.28 1.28 0 0 1 .056-.017.106.106 0 0 1 .023-.003.095.095 0 0 1 .092.072v.006a6.225 6.225 0 0 1 .865.474 4.666 4.666 0 0 1 2.25-2.858 4.208 4.208 0 0 1 3.638.297c-.24-.867-1.242-4.272-2.527-5.503a18.478 18.478 0 0 0-10 3.199z"/><path class="cls-3" d="M61.316 106.147a4.596 4.596 0 0 1-1.65-2.555 2.287 2.287 0 0 1 .445-1.746.922.922 0 0 0-.114.017 2.125 2.125 0 0 0-.811.483 2.644 2.644 0 0 0-.29.347.094.094 0 0 1-.043.062l-.01.001a3.937 3.937 0 0 0 .31 4.742 3.128 3.128 0 0 1 .514.78 3.196 3.196 0 0 1 .069 2.217.094.094 0 0 1-.122.059.095.095 0 0 1-.058-.122 3.003 3.003 0 0 0-.065-2.08 2.952 2.952 0 0 0-.485-.734 4.362 4.362 0 0 1-.395-.54 4.152 4.152 0 0 1-.465-1.268c-.006-.006-.016-.008-.02-.017a4.003 4.003 0 0 0-.487-.658 5.71 5.71 0 0 1-.391-.498 1.601 1.601 0 0 1-.292-1.177 2.432 2.432 0 0 0-.664 1.733c-.001.038.003.078.002.117a.084.084 0 0 1 0 .01c-.001.21.003.423.012.63a5.47 5.47 0 0 1-.085 1.566 5.89 5.89 0 0 1-.264.712.09.09 0 0 1-.008.086.085.085 0 0 1-.036.022 4.02 4.02 0 0 0-.376 1.252 8.714 8.714 0 0 1 4.65 5.81 20.414 20.414 0 0 0 1.468 4.85c.647-.44 1.09-.68 1.108-.689a.092.092 0 0 1 .044-.01.094.094 0 0 1 .084.05.096.096 0 0 1-.04.13c-.07.036-6.991 3.75-6.493 9.533a.09.09 0 0 1-.053.086v.005a17.13 17.13 0 0 1 3.755-.486c.087 0 .135.001.14.002a.094.094 0 0 1 .061.025 5.999 5.999 0 0 1 1.114 1.608 14.942 14.942 0 0 0 2.218-3.133 12.821 12.821 0 0 0 1.543-7.77 9.644 9.644 0 0 0-.941-3.104 10.65 10.65 0 0 0-.7-1.145c-.758-1.137-1.617-2.426-.977-3.705a4.384 4.384 0 0 0-1.202-5.498zm-5.191 23.247c-.022-.071-2.283-7.185-12.378-5.678a.096.096 0 0 1-.108-.08.095.095 0 0 1 .08-.108 18.432 18.432 0 0 1 2.713-.21c.395 0 .765.026 1.131.053a4.72 4.72 0 0 1-.763-2.744c.014-.348.065-.737.12-1.146.203-1.542.455-3.46-.917-5.254a17.682 17.682 0 0 0-1.37-1.517 12.421 12.421 0 0 1-2.374-3.021c-.002-.004-.007-.005-.009-.009v-.01a5.251 5.251 0 0 1-.315-3.89 10.53 10.53 0 0 0-1.947 4.476l.002.002-.002.005a3.46 3.46 0 0 0 .194 1.627 10.81 10.81 0 0 0 1.066 2.002 5.202 5.202 0 0 1 .913 4.025l-.027.337c-.292 3.594-1.064 13.127 7.887 15.443a15.26 15.26 0 0 1-.054-1.493.094.094 0 0 1 .04-.075 18.45 18.45 0 0 1 6.12-2.731z"/><path class="cls-11" d="M53.537 136.538a3.659 3.659 0 0 0-1.7.97 2.885 2.885 0 0 1 1.665 1.02 5.005 5.005 0 0 1 1.99-1.828 3.486 3.486 0 0 0-1.955-.162zm5.587-2.101a3.857 3.857 0 0 0-1.703 1.702 3.674 3.674 0 0 1 2.288.563 3.42 3.42 0 0 1 1.501-2.452 3.314 3.314 0 0 0-2.086.187z"/><path class="cls-5" d="M34.591 108.022a6.956 6.956 0 0 0 4.787 2.156h.004q.206 0 .423-.008a7.313 7.313 0 0 1 .59-2.096 10.447 10.447 0 0 1-5.804-.052zm28.462.441a4.234 4.234 0 0 1 .15 1.335 7.397 7.397 0 0 0 2.537-1.57c-.033-.04-.064-.083-.097-.124a11.835 11.835 0 0 1-2.59.359z"/><path class="cls-5" d="M40.5 107.849a14.041 14.041 0 0 1 1.63-2.648.094.094 0 0 1 .074-.035.095.095 0 0 1 .09.127 6.112 6.112 0 0 0-.387 1.929 8.038 8.038 0 0 0 1.644-1.217.104.104 0 0 1 .05-.02 2.656 2.656 0 0 1 .97-1.768l.002-.002a.095.095 0 0 1 .121.147c-.052.043-.087.183-.08.43a9.41 9.41 0 0 0 .88-1.388c.01-.021.034-.025.054-.032a11.003 11.003 0 0 0-.854-1.058h-.002c-.008-.005-.01-.014-.016-.021a9.984 9.984 0 0 0-1.681-1.45c-.141-.097-.296-.167-.444-.249-.111.964-1.11 5.863-9.861 6.547 1.04.474 4.467 1.82 7.81.708z"/><path class="cls-2" d="M57.481 120.84c2.236-.295 2.854-1.47 2.879-1.52a.095.095 0 0 0-.042-.127.09.09 0 0 0-.043-.01.094.094 0 0 0-.085.052 3.482 3.482 0 0 1-2.734 1.415.096.096 0 0 0-.082.107.103.103 0 0 0 .107.082zm-6.267 2.086h.038c2.593 0 3.48-1.24 3.516-1.294a.095.095 0 0 0-.079-.149.094.094 0 0 0-.078.041c-.008.012-.873 1.212-3.36 1.212h-.036a.095.095 0 1 0 0 .19z"/><path d="m47.023 81.844 4.476 4.475 4.476-4.475.254-.255a3.212 3.212 0 0 0 .223-4.338 3.174 3.174 0 0 0-4.65-.188l-.303.304-.304-.304a3.174 3.174 0 0 0-4.648.187 3.212 3.212 0 0 0 .222 4.34z"/><path d="M53.726 73.706h-4.454l2.227 2.289 2.227-2.289zm4.705 46.058a.8.8 0 1 0-.8-.8.8.8 0 0 0 .8.8zm-5.945 2.06a.908.908 0 1 0-.777-1.022.908.908 0 0 0 .776 1.022z"/><path d="m25.436 82.869 4.941.018a4.187 4.187 0 0 0 .493.339c-1.319 5.13-.944 9.149 1.114 11.944a10.24 10.24 0 0 0 7.133 3.81h.005c.141.105.283.21.432.302a10.463 10.463 0 0 0 1.634.772c.365.146.73.309 1.09.49-.085.81-.975 5.776-9.965 6.347a.18.18 0 0 0-.076.339 11.304 11.304 0 0 0 1.942.752 7.373 7.373 0 0 0 5.197 2.47c.104 0 .21-.001.316-.004a3.658 3.658 0 0 0 .235 1.545 11.04 11.04 0 0 0 1.089 2.049 4.928 4.928 0 0 1 .87 3.854l-.027.337c-.297 3.658-1.086 13.366 8.1 15.735a17.786 17.786 0 0 0 .947 4.38.184.184 0 0 0 .168.12.191.191 0 0 0 .158-.09 6.638 6.638 0 0 1 .435-.62 2.667 2.667 0 0 1 1.693 1.04.184.184 0 0 0 .158.074h.005a.47.47 0 0 0 .136-.081 5.001 5.001 0 0 1 2.063-1.917 5.82 5.82 0 0 1 1.03.552 1.08 1.08 0 0 0 .167.016.388.388 0 0 0 .108-.124 7.68 7.68 0 0 1 .309-.886 1.992 1.992 0 0 1 .44-.047 3.936 3.936 0 0 1 1.91.632.135.135 0 0 0 .088.024.592.592 0 0 0 .095-.01.178.178 0 0 0 .102-.152 3.218 3.218 0 0 1 1.495-2.476 8.046 8.046 0 0 1 1.364.519.378.378 0 0 0 .113-.04.18.18 0 0 0 .063-.186 24.132 24.132 0 0 0-1.436-3.994 15.169 15.169 0 0 0 2.264-3.197 13.097 13.097 0 0 0 1.576-7.939 9.922 9.922 0 0 0-.967-3.193 10.83 10.83 0 0 0-.719-1.177c-.715-1.075-1.526-2.292-.958-3.428a4.071 4.071 0 0 0 .448-1.679 7.67 7.67 0 0 0 2.647-1.597 6.287 6.287 0 0 0 1.04.905.176.176 0 0 0 .099.03.383.383 0 0 0 .106-.035.181.181 0 0 0 .07-.192c-.011-.041-.24-1.024 1.425-1.92a2.212 2.212 0 0 0 1.378-2.379 5.48 5.48 0 0 1 1.82.657.181.181 0 0 0 .093.026.373.373 0 0 0 .145-.072.183.183 0 0 0-.019-.24c-.003-.004-.295-.353-.038-1.868a1.94 1.94 0 0 0 .612.1 2.446 2.446 0 0 0 1.86-1.013 2.427 2.427 0 0 1 1.781-1.065 1.405 1.405 0 0 1 .475.092.384.384 0 0 0 .123-.047.183.183 0 0 0 .046-.2c-.043-.11-1.04-2.602-3.094-2.848a2.88 2.88 0 0 1 1.406-.877 2.804 2.804 0 0 1 .746-.1 3.342 3.342 0 0 1 .885.129.181.181 0 0 0 .108-.326 10.489 10.489 0 0 0-3.47-1.73 7.558 7.558 0 0 0-2.011-.293c1.415-4.519-.113-10.856-.513-12.357h6.63a.18.18 0 0 0 .181-.18V77.34a.18.18 0 0 0-.18-.18H60.57a9.458 9.458 0 0 0-9.068-6.662 9.59 9.59 0 0 0-9.078 6.662H25.436a.18.18 0 0 0-.18.18v5.35a.18.18 0 0 0 .18.179zm26.067-12.01a9.16 9.16 0 0 1 8.764 11.779 9.11 9.11 0 0 1-2.792 4.302 9.149 9.149 0 0 1-14.746-4.304 9.172 9.172 0 0 1 0-5.244 9.214 9.214 0 0 1 8.774-6.534zm20.532 32.18a4.135 4.135 0 0 0-.515-2.853 6.062 6.062 0 0 0 1.987-1.442.138.138 0 0 0 .051.02c1.52.065 2.482 1.63 2.827 2.307a1.431 1.431 0 0 0-.154-.007 2.762 2.762 0 0 0-2.055 1.193 2.107 2.107 0 0 1-1.588.883 1.594 1.594 0 0 1-.553-.1zm-6.92 2.61a3.305 3.305 0 0 1 .592-.353 6.684 6.684 0 0 0 1.397-1.082 2.948 2.948 0 0 0 1.98.64l.328-.004a.31.31 0 0 0 .177-.04c.072.216.356 1.336-1.16 2.152-1.26.677-1.569 1.436-1.622 1.912a6.478 6.478 0 0 1-.797-.772 3.146 3.146 0 0 1-.894-2.453zm-1.822 4.024a4.313 4.313 0 0 0-.13-1.127 11.922 11.922 0 0 0 2.448-.343l.013.016a7.332 7.332 0 0 1-2.331 1.454zm.138 5.733a10.497 10.497 0 0 1 .687 1.127 9.565 9.565 0 0 1 .934 3.076 12.733 12.733 0 0 1-1.534 7.718 15.21 15.21 0 0 1-2.12 3.031 5.833 5.833 0 0 0-1.077-1.526.475.475 0 0 0-.104-.046 1.946 1.946 0 0 0-.156-.004 17.13 17.13 0 0 0-3.618.452c-.479-5.757 6.38-9.392 6.45-9.43a.182.182 0 0 0 .075-.243.165.165 0 0 0-.168-.082.562.562 0 0 0-.076.005c-.004.003-.413.22-1.036.638a22.726 22.726 0 0 1-1.417-4.742 8.55 8.55 0 0 0-4.648-5.791 3.54 3.54 0 0 1 .396-1.224c.004-.005.015-.097.018-.104a5.904 5.904 0 0 0 .267-.725 5.534 5.534 0 0 0 .088-1.589 12.8 12.8 0 0 1-.012-.637h-.085l.083-.114a2.608 2.608 0 0 1 .468-1.503 1.834 1.834 0 0 0 .331.992 5.651 5.651 0 0 0 .397.506 5.359 5.359 0 0 1 .488.636 4.215 4.215 0 0 0 .475 1.295 4.397 4.397 0 0 0 .402.55 2.64 2.64 0 0 1 .537 2.732.374.374 0 0 0 .007.138c.02.044.057.076.164.103a.18.18 0 0 0 .17-.12 3.007 3.007 0 0 0-.604-3.09 4.007 4.007 0 0 1-.363-.497 4.12 4.12 0 0 1 .046-4.108 1.058 1.058 0 0 0 .077-.096 2.49 2.49 0 0 1 .272-.325 2.05 2.05 0 0 1 .67-.425 2.354 2.354 0 0 0-.333 1.622 4.67 4.67 0 0 0 1.678 2.605 4.302 4.302 0 0 1 1.183 5.396c-.662 1.323.21 2.633.988 3.799zm-5.636 20.618a2.76 2.76 0 0 0-.215.008 3.714 3.714 0 0 1 1.58-1.517 2.96 2.96 0 0 1 1.248-.263 3.796 3.796 0 0 1 .587.047 3.476 3.476 0 0 0-1.355 2.264 3.987 3.987 0 0 0-1.845-.539zm1.215-1.837a4.684 4.684 0 0 0-2.262 2.802 3.457 3.457 0 0 0-.734-.367.153.153 0 0 0-.162-.117.356.356 0 0 0-.06.005 4.222 4.222 0 0 0-1.567-.326 3.33 3.33 0 0 0-.752.085 4.207 4.207 0 0 0-2.345 1.618 20.358 20.358 0 0 1-.922-5.56 18.815 18.815 0 0 1 9.892-3.207c1.2 1.15 2.172 4.3 2.453 5.285a5.25 5.25 0 0 0-2.137-.517 3.35 3.35 0 0 0-1.404.298zm-9.05-2.129a.36.36 0 0 0-.078.143c0 .005-.017.535.045 1.383-8.758-2.35-7.995-11.768-7.707-15.323l.027-.337a5.271 5.271 0 0 0-.927-4.079 10.745 10.745 0 0 1-1.058-1.986 3.397 3.397 0 0 1-.188-1.595 9.935 9.935 0 0 1 1.667-4.046 5.292 5.292 0 0 0 .442 3.509 12.524 12.524 0 0 0 2.39 3.043 17.666 17.666 0 0 1 1.363 1.51c1.35 1.766 1.1 3.664.899 5.19-.055.412-.106.803-.12 1.153a4.778 4.778 0 0 0 .685 2.65 13.43 13.43 0 0 0-.968-.04 18.557 18.557 0 0 0-2.725.21.203.203 0 0 0-.153.206.187.187 0 0 0 .2.151h.006a18.218 18.218 0 0 1 2.676-.208c7.233 0 9.322 5.039 9.58 5.745a18.415 18.415 0 0 0-6.056 2.721zM32.273 94.953a8.825 8.825 0 0 1-1.32-2.74 4.023 4.023 0 0 0 2.005-1.46 2.248 2.248 0 0 0 .437-2.494 1.898 1.898 0 0 0-2.56-.333 2.125 2.125 0 0 1-.347.195 22.417 22.417 0 0 1 .705-4.692 15.314 15.314 0 0 0 4.413 1.818l-.024.185a21.417 21.417 0 0 0 .674 9.274 9.001 9.001 0 0 0 2.374 3.865 9.799 9.799 0 0 1-6.357-3.618zm39.275 10.061a5.176 5.176 0 0 0-1.738-.468.202.202 0 0 0-.095-.027l-.111-.01a3.466 3.466 0 0 0-.357-.019l-.14.002a2.757 2.757 0 0 1-1.758-.546 3.614 3.614 0 0 0 .94-2.703 4.506 4.506 0 0 0-.352-1.408 4.559 4.559 0 0 0 1.13.525 3.432 3.432 0 0 0 .988.147 3.598 3.598 0 0 0 1.12-.184 3.865 3.865 0 0 1 .482 2.817 5.414 5.414 0 0 0-.109 1.874zm-27.815 3.663a8.68 8.68 0 0 1-1.3.724 5.806 5.806 0 0 1-.487-1.879 8.019 8.019 0 0 0 1.54-1.096 10.192 10.192 0 0 0 .126 1.636 2.897 2.897 0 0 0 .12.615zm-.047 2.392a2.598 2.598 0 0 1-.176.01 8.074 8.074 0 0 1-.916-1.353 8.874 8.874 0 0 0 1.132-.616 5.218 5.218 0 0 1 .012.629l-.025.373a6.973 6.973 0 0 0-.027.957zm13.627-7.762a.18.18 0 0 0-.02-.217.152.152 0 0 0-.127-.046.543.543 0 0 0-.088.007 2.208 2.208 0 0 0-1.034 1.786 7.434 7.434 0 0 1-.452-.644.13.13 0 0 0-.035-.03 7.574 7.574 0 0 1 2.353-3.403 4.807 4.807 0 0 0 .705 1.841 4.054 4.054 0 0 0-.64 2.504c-.04-.05-.082-.1-.124-.148a5.436 5.436 0 0 1-.373-.474 1.137 1.137 0 0 1-.165-1.176zm-2.165 6.032a.107.107 0 0 0-.03.005 10.01 10.01 0 0 1-.128-1.571c.23.204.441.376.641.527a5.11 5.11 0 0 0-.346 1.074.394.394 0 0 0-.137-.035zm-11.074.8.025-.382a4.815 4.815 0 0 0-.042-.893c.032-.063.03-.127-.003-.147-.025-.235-.052-.47-.084-.703-.156-1.17-.305-2.279.366-3.16a5.628 5.628 0 0 0 .157.976 5.028 5.028 0 0 0 3.278 3.56.188.188 0 0 0 .028.006 15.467 15.467 0 0 1 .146 2.85 10.67 10.67 0 0 0-1.323 2.416 5.348 5.348 0 0 0-.399-.602 17.93 17.93 0 0 0-1.391-1.542 7.101 7.101 0 0 0-.488-.475l-.086-.004.062-.092a2.826 2.826 0 0 1-.246-1.808zm1.716-2.604a15.107 15.107 0 0 0 1.223-1.22 14.635 14.635 0 0 1 .73 2.696 3.988 3.988 0 0 1-1.997-1.454.212.212 0 0 0 .044-.022zm-.124-3.84c.105.15.211.3.307.458a12.847 12.847 0 0 1 .897 1.783l-.008.008a15.242 15.242 0 0 1-1.314 1.322l-.008.008a4.744 4.744 0 0 1-.696-1.525c-.065-.28-.1-.496-.14-.624a9.261 9.261 0 0 0 .952-1.444zm9.055 5.447a6.924 6.924 0 0 0-1.39-.359 2.637 2.637 0 0 0-.384-.028c-1.432 0-3.155 1.12-4.644 3.01a14.77 14.77 0 0 0-2.02-7.8 11.444 11.444 0 0 0-1.313-1.753 3.845 3.845 0 0 1 3.07-1.89.183.183 0 0 0 .178-.143l.59-2.871 1.704 2.64a.194.194 0 0 0 .147.081l.012.001h.006c.51-.036.978-.053 1.408-.053 3.928 0 4.651 1.381 4.657 1.392l.006.01a9.273 9.273 0 0 0-2.11 5.905.728.728 0 0 0-.009.11 11.747 11.747 0 0 0 .093 1.748zm.695-4.557c.18.271.319.448.521.702l.083.063c0 .204.003.412.011.614a5.232 5.232 0 0 1-.078 1.484 4.17 4.17 0 0 1-.18.504c-.244-.185-.5-.397-.781-.619a10.595 10.595 0 0 1 .424-2.748zm2.625-17.673a9.302 9.302 0 0 0 1.53-1.87c-.026.39-.04.8-.052 1.184l-.021.54c-.518.03-.996.078-1.457.146zm2.453 14.9a.18.18 0 0 0-.134-.302.735.735 0 0 0-.096.03c-.025.01-.14.025-.186.032a1.45 1.45 0 0 0-.165.029 2.405 2.405 0 0 0-.917.545 1.665 1.665 0 0 0-.167.193 6.853 6.853 0 0 1-.623-1.804 10.27 10.27 0 0 1 3.28-1.553 3.708 3.708 0 0 0 2.333 1.147 7.157 7.157 0 0 0-.645 1.122 6.778 6.778 0 0 0-.533 3.278 9.99 9.99 0 0 0 .155 1.214 8.835 8.835 0 0 1-2.726-1.733 2.599 2.599 0 0 1-.13-.46 2.07 2.07 0 0 1 .554-1.739zm6.363-3.177a1.353 1.353 0 0 0-.563-.125 1.804 1.804 0 0 0-.31.028 2.262 2.262 0 0 0-.401.113 13.614 13.614 0 0 0-.393-1.109 11.148 11.148 0 0 0-2.899-3.69.388.388 0 0 0 .16-.082.372.372 0 0 0 .107-.381 4.86 4.86 0 0 0-2.092-2.022c.406.077.771.163 1.077.248a15.219 15.219 0 0 0 1.562 1.813.37.37 0 0 0 .1.046 1.908 1.908 0 0 0 .526 1.194 1.827 1.827 0 0 0 1.141.558c.02.03.704 1.092.99 1.527a4.343 4.343 0 0 0 .995.929 1.508 1.508 0 0 0 0 .953zm-5.624-4.95c1.392.402 3.243 3.033 3.62 3.991.228.58.343.937.397 1.125a3.81 3.81 0 0 0-1.184.999c-2.433-.162-3.787-2.338-4.025-6.472a11.158 11.158 0 0 1 1.192.356zm5.525-2.946a5.833 5.833 0 0 1 1.885.344c.386.133 1.621.628 1.912 1.596a2.053 2.053 0 0 0-.46-.05 3.111 3.111 0 0 0-1.64.535 10.23 10.23 0 0 0-.923.69 8.991 8.991 0 0 1-.967.714 2.387 2.387 0 0 1-1.252.374 1.868 1.868 0 0 1-1.323-.525 1.48 1.48 0 0 1-.24-.332 1.28 1.28 0 0 0 .56.12 1.653 1.653 0 0 0 .53-.088 3.765 3.765 0 0 0 1-.589l.1-.074a2.522 2.522 0 0 1 1.02-.512.179.179 0 0 0 .118-.072.374.374 0 0 0 .032-.135.186.186 0 0 0-.2-.15h-.007a2.808 2.808 0 0 0-1.176.577l-.102.076a3.494 3.494 0 0 1-.902.536 1.252 1.252 0 0 1-.408.07.844.844 0 0 1-.576-.198.644.644 0 0 1-.175-.315 1.904 1.904 0 0 1 .092-.59 2.611 2.611 0 0 1 .309-.652 3.08 3.08 0 0 1 2.111-1.294 4.106 4.106 0 0 1 .682-.056zm-2.68-2.749c.04.065.03.1.016.126-.08.142-.558.383-1.848.383a24.942 24.942 0 0 0-2.631.13c-.391.04-.731.088-1.063.14a9.046 9.046 0 0 0-2.37.626.185.185 0 0 0-.092.105.372.372 0 0 0 .01.138.167.167 0 0 0 .17.086.518.518 0 0 0 .073-.006 9.097 9.097 0 0 1 2.232-.589c2.58.274 4.078 1.325 4.318 1.984a.246.246 0 0 1-.012.252.508.508 0 0 1-.357.097 2.752 2.752 0 0 1-.799-.151 12.107 12.107 0 0 0-1.995-.431 19.336 19.336 0 0 0-.716-.086 25.284 25.284 0 0 0-2.46-.114c-.842 0-1.437.036-1.558.044a.203.203 0 0 0-.167.193c.007.087.08.155.207.167.1-.007.686-.042 1.515-.042.86 0 1.678.037 2.417.11.05.014.246.088.463.17.127.047.234.086.259.094a4.976 4.976 0 0 1 2.523 2.084.225.225 0 0 1-.115.018 2.453 2.453 0 0 1-.758-.181 12.213 12.213 0 0 0-1.456-.425 17.044 17.044 0 0 0-3.886-.444 14.552 14.552 0 0 0-2.955.284 5.195 5.195 0 0 1-1.081.106 9.86 9.86 0 0 1-5.527-1.902 11.61 11.61 0 0 0-3.035-1.692 8.471 8.471 0 0 1 1.429-2.402l.028-.041c.022.025.044.05.068.072a9.487 9.487 0 0 0 6.578 2.638 9.389 9.389 0 0 0 5.967-2.142 2.18 2.18 0 0 0 .194-.043c.062-.015.122-.03.153-.034a16.493 16.493 0 0 1 1.863-.197q.333-.014.642-.014c2.336 0 3.543.545 3.755.889zm-17.002 32.648c.014-.336.064-.715.118-1.122a7.56 7.56 0 0 0-.36-4.37c.748-2.428 3.637-6.03 6.097-6.03a2.438 2.438 0 0 1 .35.024 8.414 8.414 0 0 1 6.638 6.318 21.44 21.44 0 0 0 1.474 4.868c-2.021 1.418-5.267 4.304-5.318 8.246a9.719 9.719 0 0 0-8.22-5.264 4.48 4.48 0 0 1-.779-2.67zm13.447-15.786a8.397 8.397 0 0 0 2.35 1.277c.037.162.073.311.107.437a10.462 10.462 0 0 0 .57 1.585l-.056.006a7.136 7.136 0 0 1-.437.032 5.415 5.415 0 0 0-1.556-2.247 6.258 6.258 0 0 1-.978-1.09zm3.426 3.265a2.938 2.938 0 0 1 .33-1.485 2.279 2.279 0 0 0 .54.096h.014a3.69 3.69 0 0 0 .54 1.153 12.21 12.21 0 0 1-1.424.236zm.534-1.806a3.067 3.067 0 0 1 .266-.332 2.758 2.758 0 0 0 .022.406zm-.41-.027a1.036 1.036 0 0 0-.076.106l-.056.087a3.23 3.23 0 0 0-.31.929 10.21 10.21 0 0 1-.418-1.42 9.908 9.908 0 0 1-.212-1.481 6.426 6.426 0 0 1 .502-3.105 4.845 4.845 0 0 1 2.02-2.336 2.144 2.144 0 0 1 .524-.17 1.303 1.303 0 0 1 .244-.023 1.156 1.156 0 0 1 .75.275 3.292 3.292 0 0 1 .888 2.126c.158 1.915-1.433 3.145-2.386 3.702a3.311 3.311 0 0 0-1.47 1.31zm6.067-10.926a4.72 4.72 0 0 0-3.134 1.984 3.865 3.865 0 0 1-.842-.788c-.2-.303-.591-.909-.816-1.258a2.81 2.81 0 0 0 1.405-.42 9.354 9.354 0 0 0 1.007-.742c.06-.049.123-.097.184-.146.146.101.292.195.438.276 1.12.588 2.255-.26 3.154-1.209a11.914 11.914 0 0 1-.47 2.184 5.782 5.782 0 0 0-.926.12zm-1.396-7.68a3.446 3.446 0 0 0-1.532-1.123 1.91 1.91 0 0 0-1.818.285 1.999 1.999 0 0 0-.638 1.533 4.42 4.42 0 0 0 .41 1.665c.075.178.162.365.253.557a3.311 3.311 0 0 0-1.759 1.297 2.888 2.888 0 0 0-.361.776 1.043 1.043 0 0 0-.11.332 15.818 15.818 0 0 1-1.068-1.224 2.25 2.25 0 0 0 .41.04.82.82 0 0 0 .61-.2.577.577 0 0 0 .092-.627c-.212-.578-1.292-1.546-3.424-2.016a24.718 24.718 0 0 1 2.437-.113c.843 0 1.902-.098 2.164-.569a.47.47 0 0 0-.025-.491c-.317-.511-1.716-1.062-4.04-1.062-.157 0-.32.004-.484.01l.02-.51a20.002 20.002 0 0 1 .129-2.005 9.371 9.371 0 0 0 .56-1.364h9.99c.131.484.403 1.564.647 2.945a3.424 3.424 0 0 0-2.463 1.864zm-26.317-4.81a9.53 9.53 0 0 0 2.184 3.688.488.488 0 0 0-.031.034l-.074.096a7.994 7.994 0 0 0-1.444 2.515.143.143 0 0 0-.087.171c-.039.118-.08.251-.121.396-.856-.905-4.093-4.163-7.008-4.836a14.806 14.806 0 0 1-4.671-1.941l-.192-.122zm-6.486 2.606.017-.135c3.206.864 6.818 4.875 6.854 4.916a.365.365 0 0 0 .137.06l.042-.004a.18.18 0 0 0 .133-.137 7.21 7.21 0 0 1 .156-.568 11.333 11.333 0 0 1 2.921 1.624 10.307 10.307 0 0 0 5.779 1.986 5.555 5.555 0 0 0 1.138-.11 14.206 14.206 0 0 1 2.87-.276 16.73 16.73 0 0 1 3.684.408 9.57 9.57 0 0 0 1.598 5.476 9.057 9.057 0 0 0-4.267 2.383c-.267-.403-1.314-1.484-4.876-1.484a8.04 8.04 0 0 0-1.34.091l-1.914-2.965a.19.19 0 0 0-.175-.08l-.011.001a.181.181 0 0 0-.143.14l-.651 3.167a4.27 4.27 0 0 0-3.175 1.975 10.18 10.18 0 0 0-1.568-1.33 4.343 4.343 0 0 0-.453-.257l-.09-.039a.698.698 0 0 0-.082-.053c-.396-.203-.8-.384-1.216-.552a10.034 10.034 0 0 1-1.564-.737 7.91 7.91 0 0 1-3.146-4.382 21.083 21.083 0 0 1-.658-9.118zm6.678 15.253.03.016a2.723 2.723 0 0 1 .297.17 9.921 9.921 0 0 1 1.66 1.43.155.155 0 0 0 .03.036 10.77 10.77 0 0 1 .79.972l-.01.012a9.516 9.516 0 0 1-.699 1.143.168.168 0 0 1 .03-.079.18.18 0 0 0 .066-.122.377.377 0 0 0-.041-.131.18.18 0 0 0-.14-.066.375.375 0 0 0-.117.043 2.744 2.744 0 0 0-.997 1.804l-.028-.012a8.026 8.026 0 0 1-1.493 1.128 6.065 6.065 0 0 1 .375-1.748c.03-.083-.003-.175-.17-.243a.36.36 0 0 0-.14.067 12.846 12.846 0 0 0-1.59 2.62 8.658 8.658 0 0 1-2.735.426 12.618 12.618 0 0 1-4.705-.996c8.188-.757 9.407-5.269 9.587-6.47zm-4.892 7.824a9.117 9.117 0 0 0 2.519-.342 7.259 7.259 0 0 0-.517 1.877c-.118.004-.234.006-.35.006a6.77 6.77 0 0 1-4.501-1.906 11.818 11.818 0 0 0 2.85.365zm35.575-10.116a4.717 4.717 0 0 1-3.24 1.71 3.114 3.114 0 0 1-.89-.131 3.294 3.294 0 0 1-1.895-1.313 1.174 1.174 0 0 1-.04-1.024c.525-1.295 2.26-1.806 2.98-1.966a5.661 5.661 0 0 1 1.207-.127 7.125 7.125 0 0 1 1.936.284 10.228 10.228 0 0 1 1.854.73c.29.148.575.311.85.49a2.828 2.828 0 0 0-.124-.004 3.254 3.254 0 0 0-2.638 1.35zm-19.746 38.187a2.858 2.858 0 0 1 .647-.074 3.707 3.707 0 0 1 1.064.169 5.29 5.29 0 0 0-1.772 1.67 2.967 2.967 0 0 0-1.477-.93 3.463 3.463 0 0 1 1.538-.835z"/><path d="M52.394 114.451a.178.178 0 0 0 .161-.1 2.709 2.709 0 0 1 2.079-1.217.181.181 0 0 0 .124-.06.37.37 0 0 0 .045-.132.18.18 0 0 0-.18-.169h-.01a3.044 3.044 0 0 0-2.38 1.417c-.045.087-.01.196.161.261zm2.852.968a.64.64 0 0 1 .396.08.663.663 0 0 1 .146.393l.542 3.433a.183.183 0 0 0 .2.15h.007a.204.204 0 0 0 .15-.207l-.543-3.431a.97.97 0 0 0-.268-.613.865.865 0 0 0-.578-.166h-.059a7.858 7.858 0 0 0-.636.042.204.204 0 0 0-.16.2.195.195 0 0 0 .2.16c.204-.023.407-.037.603-.041zm1.829 5.659a6.176 6.176 0 0 0 3.434-1.746.18.18 0 0 0-.01-.256.182.182 0 0 0-.255.01 5.99 5.99 0 0 1-3.216 1.633.181.181 0 0 0-.156.202.19.19 0 0 0 .203.157zm-2.771.815-.079.018a6.455 6.455 0 0 1-2.473.528 5.104 5.104 0 0 1-1.156-.134.178.178 0 0 0-.175.138.176.176 0 0 0 .022.136.35.35 0 0 0 .11.081 5.106 5.106 0 0 0 1.223.144 6.529 6.529 0 0 0 2.607-.568.18.18 0 0 0-.08-.343z"/><path class="cls-1" d="M42.28 81.86c-.02-.09-.03-.17-.04-.25H27.12v-3.19h15.12a2.166 2.166 0 0 1 .04-.25H26.87v3.69zm18.48-.25c-.01.08-.03.16-.05.25h15.41v-3.69H60.71a2.211 2.211 0 0 1 .05.25h15.11v3.19z"/><path class="cls-2" d="M46.135 58.623a.095.095 0 0 1 .044.042c.013.028.885 1.766 6.15 1.39a.11.11 0 0 1 .087.044l1.817 2.816.633-3.076a.096.096 0 0 1 .093-.075h.007a3.948 3.948 0 0 0 3.17-1.986 11.333 11.333 0 0 1-1.346-1.788 14.646 14.646 0 0 1-2-8.016c-1.305 1.726-3.107 3.185-4.737 3.185a2.601 2.601 0 0 1-.372-.027 6.976 6.976 0 0 1-1.508-.405 11.268 11.268 0 0 1 .112 1.877.086.086 0 0 1-.001.075 9.242 9.242 0 0 1-2.15 5.944z"/><path class="cls-1" d="M59.187 48.667c.064-.008.126-.014.183-.017a15.152 15.152 0 0 0-.238-.273 2.177 2.177 0 0 1 .055.29z"/><path class="cls-3" d="M58.751 48.006a.09.09 0 0 1-.01-.05c-.17-.18-.342-.359-.512-.533a17.97 17.97 0 0 1-1.385-1.535 5.455 5.455 0 0 1-.483-.758 10.36 10.36 0 0 1-1.376 2.574 14.58 14.58 0 0 0 .144 3.002.083.083 0 0 1 .074-.014 4.938 4.938 0 0 1 3.22 3.497 4.333 4.333 0 0 1 .154 1.194c.868-.938.707-2.141.537-3.409-.03-.231-.058-.466-.083-.7-.003-.004-.009-.003-.012-.007a.09.09 0 0 1 0-.093 6.406 6.406 0 0 1-.033-.927c.007-.124.016-.252.026-.38a2.89 2.89 0 0 0-.26-1.86z"/><path class="cls-4" d="M72.612 71.837a22.879 22.879 0 0 1-.752 4.873 15.136 15.136 0 0 0-4.559-1.894l.029-.257a21.307 21.307 0 0 0-.666-9.242 8.727 8.727 0 0 0-2.56-4.007 9.914 9.914 0 0 1 6.69 3.683 8.777 8.777 0 0 1 1.352 2.76 12.884 12.884 0 0 1 .466 4.084z"/><path class="cls-5" d="M46.963 52.531a5.296 5.296 0 0 0-.08 1.51c.009.2.012.405.012.609l.02.022.04.045.04.049a8.86 8.86 0 0 1 .617.848 10.623 10.623 0 0 0 .481-2.946 11.93 11.93 0 0 0-.903-.757 5.2 5.2 0 0 0-.227.62zm11.276 1.701a4.732 4.732 0 0 0-3.077-3.354c-.005-.002-.007-.007-.012-.01a14.651 14.651 0 0 0 .807 2.978 15.403 15.403 0 0 1 1.31-1.317.093.093 0 0 1 .134.008.094.094 0 0 1-.007.133 15.263 15.263 0 0 0-1.32 1.33.088.088 0 0 1-.053.024 12.959 12.959 0 0 0 .932 1.868c.124.205.265.395.4.59a9.433 9.433 0 0 1 1.01-1.554 6.017 6.017 0 0 0-.124-.696z"/><path class="cls-4" d="M37.649 61.155a12.001 12.001 0 0 0 .418 1.2c.382.97 2.26 3.634 3.676 4.044l.005.004.005.001a11.974 11.974 0 0 0 1.298.378c-.224-4.28-1.62-6.527-4.156-6.67a3.737 3.737 0 0 1-1.246 1.043z"/><path class="cls-5" d="M41.556 53.994a5.251 5.251 0 0 1-1.552-2.27c-.223.003-.455.031-.683.05a10.373 10.373 0 0 1 .616 1.683c.034.124.07.272.106.433a9.315 9.315 0 0 1 2.77 1.645 5.728 5.728 0 0 0-1.257-1.541zm6.54-1.576a10.426 10.426 0 0 0-.13-1.776 7.982 7.982 0 0 1-.321-.141 4.632 4.632 0 0 1-.38 1.228c.253.187.524.413.831.69z"/><path class="cls-2" d="M56.01 39.366a4.575 4.575 0 0 0-.797-2.726c-.005-.007-.003-.015-.006-.022-5.79-.534-7.865-4.394-8.374-5.595.18 4.187-3.37 7.257-5.338 8.623.004.005.011.006.015.012a20.077 20.077 0 0 1 1.488 4.903 8.504 8.504 0 0 0 6.71 6.383c2.558.378 5.725-3.418 6.54-6.065a7.615 7.615 0 0 1-.356-4.384c.053-.406.103-.79.117-1.129zm-11.441 2.448a.778.778 0 1 1 .778-.778.778.778 0 0 1-.778.778zm.975-2.464a3.482 3.482 0 0 0-2.734 1.415.094.094 0 0 1-.085.052.09.09 0 0 1-.043-.01.095.095 0 0 1-.042-.128c.025-.05.643-1.224 2.879-1.518a.103.103 0 0 1 .107.082.096.096 0 0 1-.082.107zm2.158 5.507a.776.776 0 0 1-.523-.146.89.89 0 0 1-.24-.56l-.542-3.431a.095.095 0 0 1 .079-.11.092.092 0 0 1 .109.08l.542 3.432a.718.718 0 0 0 .176.445.691.691 0 0 0 .451.1c.2-.005.406-.019.613-.041a.107.107 0 0 1 .105.084.096.096 0 0 1-.085.105 7.71 7.71 0 0 1-.629.041l-.056.001zm2.99.916a2.93 2.93 0 0 1-2.309 1.369h-.006a.095.095 0 0 1-.006-.19 2.792 2.792 0 0 0 2.15-1.265.094.094 0 0 1 .128-.043.096.096 0 0 1 .042.129zm-.422-5.799a.908.908 0 1 1 1.022-.776.908.908 0 0 1-1.023.777zm1.516-2.71h-.037c-2.487 0-3.351 1.2-3.36 1.211a.094.094 0 0 1-.078.041.096.096 0 0 1-.054-.016.095.095 0 0 1-.025-.132c.037-.053.923-1.294 3.516-1.294h.038a.095.095 0 1 1 0 .19z"/><path class="cls-6" d="M48.88 46.978s-.354-.691.475-.722a.534.534 0 0 1 .89-.215.837.837 0 0 1-1.366.937z"/><path class="cls-5" d="M59.222 48.855a6.269 6.269 0 0 1-.02 1.026c-.01.127-.02.253-.025.376a5.903 5.903 0 0 0 .023.783 8.813 8.813 0 0 1 1.324-.724 8.13 8.13 0 0 0-.994-1.48 2.752 2.752 0 0 0-.308.02z"/><path class="cls-1" d="M43.395 73.771a26.071 26.071 0 0 1-.08 1.546 9.23 9.23 0 0 1 1.913-2.358l-.016.002a16.408 16.408 0 0 1-1.793.193c-.008.192-.016.397-.023.617z"/><path class="cls-7" d="M35.414 66.08a10.139 10.139 0 0 1-.916.684 2.628 2.628 0 0 1-2.17.435c.216 1.102 1.574 1.652 2.001 1.799a5.328 5.328 0 0 0 2.61.292 3.167 3.167 0 0 0 2.17-1.333 2.728 2.728 0 0 0 .317-.671l.002-.01c.004-.005.005-.013.009-.019a1.977 1.977 0 0 0 .085-.588.729.729 0 0 0-.202-.378 1.083 1.083 0 0 0-1.07-.146 3.56 3.56 0 0 0-.926.55l-.101.075a2.74 2.74 0 0 1-1.138.56.095.095 0 0 1-.03-.188 2.583 2.583 0 0 0 1.055-.527l.101-.074a3.703 3.703 0 0 1 .978-.577 1.278 1.278 0 0 1 1.251.181 1.621 1.621 0 0 0-.368-.621 2.142 2.142 0 0 0-2.681-.165 9.233 9.233 0 0 0-.977.721z"/><path class="cls-4" d="M67.173 74.984c-3.023-.698-6.392-4.194-7.07-4.923a8.41 8.41 0 0 1-.16.54.093.093 0 0 1 .016.039.093.093 0 0 1-.059.082 8.459 8.459 0 0 1-1.471 2.536 4.09 4.09 0 0 1-.076.099l-.014.018h-.001c-.039.043-.067.049-.099.038a9.413 9.413 0 0 1 2.27 3.804h11.793a12.644 12.644 0 0 0-.431-.28 14.885 14.885 0 0 0-4.698-1.953z"/><path class="cls-8" d="M39.835 66.633a15.074 15.074 0 0 1 1.553 1.802 11.55 11.55 0 0 0 1.778.392v-.003a5.17 5.17 0 0 1-2.64-2.23.29.29 0 0 1 .079-.3.49.49 0 0 1 .344-.081 10.818 10.818 0 0 1-3.059-3.787 12.357 12.357 0 0 1-.416-1.19 2.404 2.404 0 0 1-.472.142 1.718 1.718 0 0 1-.296.027 1.391 1.391 0 0 1-.736-.23 1.427 1.427 0 0 1 .071 1.176 4.465 4.465 0 0 1 1.025.943c.286.435.97 1.495.99 1.526a2.004 2.004 0 0 1 1.152.571 1.84 1.84 0 0 1 .506 1.239.091.091 0 0 1 .12.003z"/><path class="cls-5" d="M45.025 59.403a7.674 7.674 0 0 0 2.523-3.604.09.09 0 0 1-.067-.036 8.172 8.172 0 0 0-.59-.822 2.266 2.266 0 0 1-1.007 1.931.089.089 0 0 1-.043.01.094.094 0 0 1-.07-.03.095.095 0 0 1-.011-.115 1.217 1.217 0 0 0-.167-1.268 5.509 5.509 0 0 0-.378-.482 7.594 7.594 0 0 1-.298-.37 4.05 4.05 0 0 1-.602 2.732 5.368 5.368 0 0 1 .71 2.054z"/><path class="cls-2" d="m58.24 73.188.015-.016.026-.034a8.42 8.42 0 0 0 1.43-2.452 11.582 11.582 0 0 1-3.091-1.706 9.364 9.364 0 0 0-6.681-1.815 16.413 16.413 0 0 1-6.804-.16 12.007 12.007 0 0 1-1.446-.422c-.744-.265-.922-.18-.96-.146-.008.008-.036.032-.017.117a5.038 5.038 0 0 0 2.572 2.113c.029.008.163.058.31.113s.362.137.414.152a26.678 26.678 0 0 0 3.975.07.106.106 0 0 1 .102.088.095.095 0 0 1-.088.101 26.949 26.949 0 0 1-4.004-.07l-.007.002-.015-.004c-.23-.023-.46-.052-.69-.084-.006.001-.009.006-.014.006-.012 0-.02-.008-.03-.012a11.8 11.8 0 0 1-1.937-.422c-.609-.195-1.075-.208-1.243-.032a.322.322 0 0 0-.032.341c.25.682 1.777 1.762 4.39 2.04a9.102 9.102 0 0 0 2.28-.598.092.092 0 0 1 .127.042.095.095 0 0 1-.042.127 8.937 8.937 0 0 1-2.347.62l-.005.001h-.008c-.317.05-.656.098-1.045.138a24.725 24.725 0 0 1-2.622.129c-1.242 0-1.807.221-1.923.427a.198.198 0 0 0 .018.212c.28.453 1.85 1.027 4.474.917a16.728 16.728 0 0 0 1.874-.198c.03-.004.1-.022.17-.04.11-.025.149-.034.174-.038a9.396 9.396 0 0 1 12.475.474c.053.05.097.11.149.162a.139.139 0 0 1 .023-.068v-.001l.008-.011.045-.063z"/><path class="cls-6" d="M34.985 58.735a3.38 3.38 0 0 0 .92 2.185 1.256 1.256 0 0 0 1.064.27 2.26 2.26 0 0 0 .544-.175l.004-.003h.001a4.899 4.899 0 0 0 2.057-2.376 6.51 6.51 0 0 0 .51-3.146 10.07 10.07 0 0 0-.215-1.494l-.001-.006c-.04-.18-.08-.347-.116-.483a10.266 10.266 0 0 0-.43-1.26 3.162 3.162 0 0 1-.34 1.237c-.027.052-.062.087-.09.136a.082.082 0 0 1-.02.029 3.296 3.296 0 0 1-1.45 1.299c-.974.568-2.599 1.824-2.438 3.787z"/><path class="cls-5" d="M37.485 52.064a3.703 3.703 0 0 1 .6 1.23 35 35 0 0 1 .681.174c.015-.026.034-.044.048-.072a3.01 3.01 0 0 0 .318-1.595c0-.006.01-.007.01-.013a12.482 12.482 0 0 0-1.657.276zm21.933 1.712a8.139 8.139 0 0 1 1.676-1.222 4.989 4.989 0 0 0-.484-2.068 8.681 8.681 0 0 0-1.39.765c.024.233.052.467.083.698a9.036 9.036 0 0 1 .115 1.827z"/><path class="cls-9" d="M29.509 61.365a5.973 5.973 0 0 1 2.1-1.512 4.022 4.022 0 0 1-.549-2.946 1.909 1.909 0 0 0-2.301.78c-1.03 1.214-1.903 1.217-2.294 1.132.286.603 1.289 2.43 2.973 2.503a.09.09 0 0 1 .07.043z"/><path class="cls-4" d="M38.663 71.75a.364.364 0 0 0 .028.4c.324.524 1.79 1.029 3.96 1.029.19 0 .38-.01.58-.02-.01.19-.019.39-.028.61a16.345 16.345 0 0 1-.143 2.018c0 .01.01.01.01.019a9.522 9.522 0 0 0-.581 1.408H32.37c-.104-.38-.4-1.513-.656-3.017a25.598 25.598 0 0 1-.352-7.147 11.148 11.148 0 0 1 .504-2.37 5.407 5.407 0 0 0 .97-.124c.753-.162 2.504-.695 3.123-2.027a4.526 4.526 0 0 1 .951.866c.229.352.705 1.094.905 1.399h-.134a2.715 2.715 0 0 0-1.39.4 9.726 9.726 0 0 0-.999.742c-.057.038-.105.086-.162.124a8.133 8.133 0 0 1-.733.542 2.45 2.45 0 0 1-2.15.362.112.112 0 0 0-.096.01.103.103 0 0 0-.038.086c.124 1.284 1.542 1.913 2.151 2.122a6.13 6.13 0 0 0 1.98.352 4.451 4.451 0 0 0 .723-.057 3.693 3.693 0 0 0 .581-.143 3.235 3.235 0 0 0 1.723-1.275 2.75 2.75 0 0 0 .352-.77.854.854 0 0 0 .114-.486 15.235 15.235 0 0 1 1.352 1.55c-.552-.133-.97-.114-1.17.086a.513.513 0 0 0-.077.542c.229.619 1.494 1.666 3.902 2.066a4.35 4.35 0 0 1-.39.047 24.269 24.269 0 0 1-2.598.133c-1.162 0-1.904.181-2.094.524z"/><path class="cls-6" d="M35.842 62.355a1.256 1.256 0 0 0-.043-1.096 3.378 3.378 0 0 0-1.946-1.355c-1.884-.565-3.452.76-4.219 1.604a3.219 3.219 0 0 1-1.75 1.213 3.162 3.162 0 0 1-1.278.076 10.183 10.183 0 0 0 1.14.682 10.286 10.286 0 0 0 1.87.735 6.517 6.517 0 0 0 3.184.158c.735-.162 2.502-.684 3.042-2.017z"/><path class="cls-9" d="m33.647 55.237.119-.002a2.896 2.896 0 0 1 2.083.625.094.094 0 0 1 .029.069 6.614 6.614 0 0 1 1.458-1.15 3.338 3.338 0 0 0 .621-.376c-.002-.01-.009-.019-.007-.03a3.168 3.168 0 0 0-.896-2.53l-.01-.004c-.004-.005-.002-.011-.006-.016a6.35 6.35 0 0 0-.922-.866c0 .397-.182 1.252-1.586 2.006-1.572.846-1.28 2.014-1.2 2.254.105.008.209.02.317.02z"/><path class="cls-10" d="M33.908 59.722a4.456 4.456 0 0 1 1.38.706 4.313 4.313 0 0 1-.493-1.678 3.575 3.575 0 0 1 .999-2.73.09.09 0 0 1-.077-.022 2.824 2.824 0 0 0-1.945-.574 4.046 4.046 0 0 1-.48-.029.108.108 0 0 1-.032.006c-.006 0-.008-.008-.013-.009a5.538 5.538 0 0 1-1.918-.562 4.583 4.583 0 0 1-.071 2.014l-.002.016c-.001.01.003.02-.001.029l-.002.002a3.851 3.851 0 0 0 .537 2.887 3.388 3.388 0 0 1 2.118-.056z"/><path class="cls-1" d="M60.46 59.63a5.652 5.652 0 0 1-.56-.314 10.155 10.155 0 0 1-1.63-1.396 4.166 4.166 0 0 1-3.233 2.032l-.665 3.23a.097.097 0 0 1-.075.074l-.018.001a.095.095 0 0 1-.08-.043l-1.913-2.965c-5.202.365-6.18-1.301-6.272-1.488a8.935 8.935 0 0 1-4.435 2.477c.974 1.136 1.539 2.993 1.667 5.593a16.184 16.184 0 0 0 6.654.148 9.622 9.622 0 0 1 6.843 1.856 11.63 11.63 0 0 0 3.03 1.672c.062-.19.132-.418.187-.663a.094.094 0 0 1 .07-.071.1.1 0 0 1 .094.028c.037.043 3.712 4.145 6.99 4.968l.03-.233a21.165 21.165 0 0 0-.662-9.155 7.991 7.991 0 0 0-3.182-4.428 10.221 10.221 0 0 0-1.591-.75c-.399-.16-.8-.34-1.195-.543a.09.09 0 0 1-.054-.03z"/><path class="cls-1" d="M60.353 77.34a9.228 9.228 0 0 0-14.885-4.345 9.24 9.24 0 0 0-2.817 9.637 9.178 9.178 0 0 0 8.846 6.595 9.3 9.3 0 0 0 8.856-6.594 9.262 9.262 0 0 0 0-5.294zm-11.08 8.954 2.228-2.29 2.227 2.29zm7.18-3.544a3.174 3.174 0 0 1-4.648.187l-.304-.304-.303.304a3.174 3.174 0 0 1-4.65-.188 3.212 3.212 0 0 1 .224-4.338l.254-.255 4.475-4.475 4.476 4.475.254.255a3.212 3.212 0 0 1 .222 4.339z"/><path class="cls-5" d="M52.843 27.743a18.274 18.274 0 0 0-.944-5.815 4.189 4.189 0 0 1-2.391 1.719 3.738 3.738 0 0 1-2.268-.237 1.28 1.28 0 0 1-.056.017.106.106 0 0 1-.023.002.095.095 0 0 1-.092-.071l.001-.006a6.22 6.22 0 0 1-.866-.474 4.666 4.666 0 0 1-2.249 2.857 4.208 4.208 0 0 1-3.639-.296c.24.867 1.242 4.272 2.527 5.503a18.479 18.479 0 0 0 10-3.199z"/><path class="cls-3" d="M41.684 53.853a4.596 4.596 0 0 1 1.65 2.555 2.287 2.287 0 0 1-.445 1.746.922.922 0 0 0 .114-.017 2.125 2.125 0 0 0 .811-.483 2.644 2.644 0 0 0 .29-.347.094.094 0 0 1 .043-.062l.01-.001a3.937 3.937 0 0 0-.31-4.742 3.128 3.128 0 0 1-.514-.78 3.196 3.196 0 0 1-.069-2.217.094.094 0 0 1 .122-.059.095.095 0 0 1 .058.122 3.004 3.004 0 0 0 .065 2.08 2.952 2.952 0 0 0 .485.734 4.362 4.362 0 0 1 .395.54 4.152 4.152 0 0 1 .465 1.268c.006.007.016.008.02.017a4.003 4.003 0 0 0 .487.658 5.71 5.71 0 0 1 .391.498 1.601 1.601 0 0 1 .292 1.177 2.432 2.432 0 0 0 .664-1.733c.001-.038-.003-.078-.002-.117a.084.084 0 0 1 0-.01c.001-.21-.003-.423-.012-.63a5.47 5.47 0 0 1 .085-1.566 5.89 5.89 0 0 1 .264-.713.09.09 0 0 1 .008-.085c.009-.013.023-.016.036-.022a4.022 4.022 0 0 0 .376-1.253 8.714 8.714 0 0 1-4.65-5.81 20.414 20.414 0 0 0-1.468-4.849c-.647.44-1.09.679-1.108.688a.097.097 0 0 1-.129-.04.096.096 0 0 1 .04-.13c.07-.035 6.992-3.748 6.494-9.533a.09.09 0 0 1 .053-.085v-.005a17.13 17.13 0 0 1-3.755.486 2.43 2.43 0 0 1-.14-.002.094.094 0 0 1-.061-.025 5.999 5.999 0 0 1-1.114-1.608 14.942 14.942 0 0 0-2.218 3.133 12.821 12.821 0 0 0-1.543 7.77 9.644 9.644 0 0 0 .94 3.103 10.65 10.65 0 0 0 .7 1.145c.759 1.138 1.618 2.426.978 3.706a4.384 4.384 0 0 0 1.202 5.498zm5.191-23.247c.022.071 2.283 7.185 12.378 5.678a.096.096 0 0 1 .108.08.095.095 0 0 1-.08.108 18.432 18.432 0 0 1-2.713.21c-.395 0-.765-.026-1.131-.054a4.721 4.721 0 0 1 .763 2.745c-.014.348-.065.736-.12 1.146-.203 1.541-.455 3.459.917 5.254a17.666 17.666 0 0 0 1.37 1.517 12.421 12.421 0 0 1 2.373 3.021c.002.004.007.005.009.009v.01a5.251 5.251 0 0 1 .315 3.89 10.53 10.53 0 0 0 1.946-4.476v-.006a3.46 3.46 0 0 0-.194-1.628 10.81 10.81 0 0 0-1.065-2.002 5.202 5.202 0 0 1-.913-4.025l.027-.337c.291-3.595 1.063-13.127-7.887-15.443.07.899.054 1.48.054 1.493a.094.094 0 0 1-.041.075 18.447 18.447 0 0 1-6.12 2.731z"/><path class="cls-11" d="M49.463 23.462a3.659 3.659 0 0 0 1.7-.97 2.885 2.885 0 0 1-1.665-1.02 5.005 5.005 0 0 1-1.99 1.828 3.486 3.486 0 0 0 1.955.162zm-5.587 2.101a3.857 3.857 0 0 0 1.703-1.702 3.675 3.675 0 0 1-2.288-.564 3.42 3.42 0 0 1-1.501 2.453 3.314 3.314 0 0 0 2.086-.187z"/><path class="cls-5" d="M68.409 51.978a6.956 6.956 0 0 0-4.787-2.156h-.004c-.138 0-.28.003-.423.008a7.312 7.312 0 0 1-.59 2.095 10.447 10.447 0 0 1 5.804.053zm-28.462-.44a4.234 4.234 0 0 1-.15-1.336 7.397 7.397 0 0 0-2.537 1.57c.033.04.064.083.097.124a11.835 11.835 0 0 1 2.59-.358z"/><path class="cls-5" d="M62.5 52.151a14.041 14.041 0 0 1-1.63 2.648.094.094 0 0 1-.073.035.095.095 0 0 1-.09-.127 6.112 6.112 0 0 0 .387-1.929 8.038 8.038 0 0 0-1.644 1.217.104.104 0 0 1-.051.02 2.656 2.656 0 0 1-.97 1.768l-.001.002a.095.095 0 0 1-.122-.147c.053-.043.087-.183.08-.43a9.41 9.41 0 0 0-.88 1.388c-.01.021-.033.025-.053.032a11.003 11.003 0 0 0 .853 1.058h.003c.008.005.01.014.016.021a9.984 9.984 0 0 0 1.68 1.45c.142.097.296.167.445.249.111-.964 1.11-5.863 9.861-6.547-1.041-.474-4.468-1.82-7.81-.708z"/><path class="cls-2" d="M45.519 39.16c-2.236.295-2.854 1.47-2.879 1.52a.095.095 0 0 0 .042.127.09.09 0 0 0 .043.01.094.094 0 0 0 .085-.052 3.482 3.482 0 0 1 2.734-1.415.096.096 0 0 0 .082-.107.103.103 0 0 0-.107-.082zm6.267-2.086h-.038c-2.593 0-3.48 1.24-3.516 1.294a.095.095 0 0 0 .025.132.096.096 0 0 0 .054.016.094.094 0 0 0 .078-.04c.008-.013.873-1.212 3.36-1.212h.036a.095.095 0 1 0 0-.19z"/><path d="M55.977 78.156 51.5 73.681l-4.476 4.475-.254.255a3.212 3.212 0 0 0-.223 4.338 3.174 3.174 0 0 0 4.65.188l.303-.304.304.304a3.174 3.174 0 0 0 4.648-.187 3.212 3.212 0 0 0-.222-4.34z"/><path d="M49.274 86.294h4.454l-2.227-2.289-2.227 2.289zm-4.705-46.058a.8.8 0 1 0 .8.8.8.8 0 0 0-.8-.8zm5.945-2.06a.908.908 0 1 0 .777 1.022.908.908 0 0 0-.776-1.022z"/><path d="m77.564 77.131-4.941-.018a4.17 4.17 0 0 0-.493-.339c1.319-5.13.944-9.149-1.114-11.944a10.24 10.24 0 0 0-7.133-3.81h-.005a6.132 6.132 0 0 0-.432-.302 10.463 10.463 0 0 0-1.634-.772c-.365-.146-.73-.309-1.09-.49.085-.81.974-5.776 9.965-6.347a.18.18 0 0 0 .076-.339 11.304 11.304 0 0 0-1.942-.752 7.373 7.373 0 0 0-5.197-2.47c-.104 0-.21.001-.316.004a3.658 3.658 0 0 0-.235-1.545 11.04 11.04 0 0 0-1.089-2.049 4.928 4.928 0 0 1-.87-3.854l.027-.337c.297-3.658 1.086-13.366-8.1-15.735a17.786 17.786 0 0 0-.947-4.38.184.184 0 0 0-.168-.12.191.191 0 0 0-.158.09 6.638 6.638 0 0 1-.435.62 2.667 2.667 0 0 1-1.693-1.04.184.184 0 0 0-.158-.074h-.005a.47.47 0 0 0-.137.081 5.001 5.001 0 0 1-2.062 1.917 5.82 5.82 0 0 1-1.03-.552 1.08 1.08 0 0 0-.167-.016.387.387 0 0 0-.108.124 7.682 7.682 0 0 1-.309.886 1.986 1.986 0 0 1-.44.047 3.936 3.936 0 0 1-1.91-.632.135.135 0 0 0-.088-.024.592.592 0 0 0-.095.01.178.178 0 0 0-.102.152 3.218 3.218 0 0 1-1.496 2.476 8.046 8.046 0 0 1-1.363-.519.378.378 0 0 0-.113.04.18.18 0 0 0-.063.186 24.132 24.132 0 0 0 1.436 3.994 15.166 15.166 0 0 0-2.264 3.197 13.097 13.097 0 0 0-1.576 7.939 9.922 9.922 0 0 0 .967 3.193 10.83 10.83 0 0 0 .719 1.177c.715 1.075 1.526 2.292.958 3.428a4.071 4.071 0 0 0-.448 1.679 7.67 7.67 0 0 0-2.647 1.597 6.282 6.282 0 0 0-1.04-.905.176.176 0 0 0-.099-.03.383.383 0 0 0-.106.035.181.181 0 0 0-.07.192c.011.041.24 1.024-1.425 1.92a2.212 2.212 0 0 0-1.378 2.379 5.48 5.48 0 0 1-1.82-.657.18.18 0 0 0-.093-.026.371.371 0 0 0-.145.072.183.183 0 0 0 .019.24c.003.004.295.353.038 1.868a1.94 1.94 0 0 0-.612-.1 2.446 2.446 0 0 0-1.86 1.013 2.426 2.426 0 0 1-1.781 1.065 1.405 1.405 0 0 1-.475-.092.384.384 0 0 0-.123.047.183.183 0 0 0-.046.2c.043.11 1.04 2.602 3.094 2.848a2.88 2.88 0 0 1-1.406.877 2.804 2.804 0 0 1-.746.1 3.342 3.342 0 0 1-.885-.129.181.181 0 0 0-.108.326 10.486 10.486 0 0 0 3.47 1.73 7.558 7.558 0 0 0 2.011.293c-1.415 4.519.113 10.856.513 12.357h-6.63a.18.18 0 0 0-.181.18v5.349a.18.18 0 0 0 .18.18H42.43a9.458 9.458 0 0 0 9.068 6.661 9.59 9.59 0 0 0 9.078-6.661h16.989a.18.18 0 0 0 .18-.18v-5.35a.18.18 0 0 0-.18-.18zm-6.837-12.084a8.825 8.825 0 0 1 1.32 2.74 4.023 4.023 0 0 0-2.005 1.46 2.248 2.248 0 0 0-.437 2.494 1.898 1.898 0 0 0 2.56.333 2.125 2.125 0 0 1 .347-.195 22.417 22.417 0 0 1-.705 4.692 15.314 15.314 0 0 0-4.413-1.818l.024-.185a21.417 21.417 0 0 0-.674-9.274 9.001 9.001 0 0 0-2.374-3.865 9.8 9.8 0 0 1 6.357 3.618zm-9.035-4.759a10.024 10.024 0 0 1 1.563.737 7.91 7.91 0 0 1 3.146 4.383 21.083 21.083 0 0 1 .658 9.118l-.017.135c-3.206-.864-6.818-4.875-6.854-4.916a.365.365 0 0 0-.137-.06l-.042.004a.18.18 0 0 0-.133.137 7.02 7.02 0 0 1-.156.568 11.329 11.329 0 0 1-2.921-1.624 10.307 10.307 0 0 0-5.779-1.986 5.555 5.555 0 0 0-1.138.11 14.207 14.207 0 0 1-2.87.276 16.736 16.736 0 0 1-3.684-.408 9.57 9.57 0 0 0-1.598-5.476 9.057 9.057 0 0 0 4.267-2.383c.267.403 1.314 1.484 4.876 1.484a8.04 8.04 0 0 0 1.34-.091l1.914 2.965a.19.19 0 0 0 .175.08l.011-.001a.181.181 0 0 0 .143-.14l.651-3.167a4.27 4.27 0 0 0 3.175-1.975 10.18 10.18 0 0 0 1.568 1.33 4.36 4.36 0 0 0 .453.258l.09.038a.685.685 0 0 0 .082.053c.397.203.801.384 1.217.551zM43.319 72.885q-.332.014-.642.014c-2.335 0-3.542-.545-3.755-.89-.039-.064-.03-.1-.016-.125.08-.142.558-.384 1.848-.384a24.942 24.942 0 0 0 2.631-.129c.391-.04.731-.088 1.063-.14a9.046 9.046 0 0 0 2.37-.626.185.185 0 0 0 .092-.105.372.372 0 0 0-.01-.138.167.167 0 0 0-.17-.086.531.531 0 0 0-.073.005 9.088 9.088 0 0 1-2.232.59c-2.58-.275-4.078-1.325-4.318-1.984a.246.246 0 0 1 .012-.252.508.508 0 0 1 .357-.097 2.752 2.752 0 0 1 .799.151 12.107 12.107 0 0 0 1.995.431c.231.032.463.061.716.086.764.076 1.592.114 2.46.114.842 0 1.437-.036 1.558-.044a.203.203 0 0 0 .167-.193c-.007-.087-.08-.155-.207-.167-.1.007-.686.042-1.515.042-.86 0-1.678-.037-2.417-.11-.05-.014-.246-.088-.463-.17a8.71 8.71 0 0 0-.259-.094 4.976 4.976 0 0 1-2.523-2.084.225.225 0 0 1 .115-.018 2.453 2.453 0 0 1 .758.181 12.213 12.213 0 0 0 1.456.425 17.044 17.044 0 0 0 3.886.444 14.552 14.552 0 0 0 2.955-.284 5.194 5.194 0 0 1 1.081-.106 9.86 9.86 0 0 1 5.527 1.902 11.61 11.61 0 0 0 3.035 1.692 8.471 8.471 0 0 1-1.429 2.402l-.028.041a1.131 1.131 0 0 0-.068-.072 9.487 9.487 0 0 0-6.578-2.638 9.389 9.389 0 0 0-5.967 2.142 2.206 2.206 0 0 0-.194.043c-.062.015-.122.03-.153.034a16.493 16.493 0 0 1-1.864.197zm1.64.203a9.299 9.299 0 0 0-1.53 1.87c.027-.39.04-.8.053-1.184l.02-.54c.518-.03.996-.078 1.457-.146zm-8.868-5.673h.007a2.808 2.808 0 0 0 1.176-.577l.103-.076a3.494 3.494 0 0 1 .901-.536 1.252 1.252 0 0 1 .408-.07.844.844 0 0 1 .577.198.644.644 0 0 1 .174.315 1.904 1.904 0 0 1-.092.59 2.611 2.611 0 0 1-.308.651 3.08 3.08 0 0 1-2.112 1.295 4.106 4.106 0 0 1-.683.056 5.836 5.836 0 0 1-1.885-.345c-.385-.133-1.62-.627-1.911-1.596a2.053 2.053 0 0 0 .459.05 3.111 3.111 0 0 0 1.64-.534 10.23 10.23 0 0 0 .923-.69 8.991 8.991 0 0 1 .967-.714 2.387 2.387 0 0 1 1.252-.375 1.868 1.868 0 0 1 1.323.525 1.48 1.48 0 0 1 .24.332 1.28 1.28 0 0 0-.559-.12 1.653 1.653 0 0 0-.53.089 3.765 3.765 0 0 0-1 .588l-.101.074a2.523 2.523 0 0 1-1.02.511.179.179 0 0 0-.118.073.374.374 0 0 0-.031.135.187.187 0 0 0 .2.15zm3.179-2.084a1.828 1.828 0 0 0-1.142-.557c-.02-.03-.704-1.092-.99-1.527a4.343 4.343 0 0 0-.995-.929 1.508 1.508 0 0 0 0-.953 1.353 1.353 0 0 0 .563.125 1.804 1.804 0 0 0 .311-.028 2.27 2.27 0 0 0 .4-.113c.059.197.174.552.394 1.109a11.147 11.147 0 0 0 2.898 3.69.388.388 0 0 0-.16.081.372.372 0 0 0-.106.382 4.86 4.86 0 0 0 2.091 2.022 13.63 13.63 0 0 1-1.077-.248 15.21 15.21 0 0 0-1.562-1.813.37.37 0 0 0-.1-.046 1.909 1.909 0 0 0-.526-1.194zm-1.088-12.06h-.014a3.69 3.69 0 0 0-.54-1.152 12.21 12.21 0 0 1 1.423-.236 2.938 2.938 0 0 1-.33 1.485 2.279 2.279 0 0 0-.54-.096zm.335.418a3.067 3.067 0 0 1-.265.332 2.76 2.76 0 0 0-.023-.407zm.41.027a1.026 1.026 0 0 0 .076-.106l.056-.088a3.23 3.23 0 0 0 .31-.928 10.21 10.21 0 0 1 .418 1.42 9.908 9.908 0 0 1 .212 1.48 6.426 6.426 0 0 1-.502 3.106 4.845 4.845 0 0 1-2.02 2.336 2.144 2.144 0 0 1-.524.17 1.303 1.303 0 0 1-.244.022 1.156 1.156 0 0 1-.75-.274 3.292 3.292 0 0 1-.888-2.127c-.158-1.914 1.433-3.144 2.387-3.702a3.312 3.312 0 0 0 1.47-1.309zm1.432 1.755a9.99 9.99 0 0 0-.155-1.214 8.835 8.835 0 0 1 2.726 1.733 2.599 2.599 0 0 1 .13.46 2.07 2.07 0 0 1-.554 1.738.18.18 0 0 0 .134.301.734.734 0 0 0 .096-.03 1.884 1.884 0 0 1 .186-.031 1.454 1.454 0 0 0 .166-.03 2.405 2.405 0 0 0 .916-.545 1.665 1.665 0 0 0 .167-.192 6.851 6.851 0 0 1 .624 1.804 10.27 10.27 0 0 1-3.28 1.552 3.708 3.708 0 0 0-2.333-1.147 7.157 7.157 0 0 0 .644-1.122 6.778 6.778 0 0 0 .533-3.277zm5.348 1.439a.152.152 0 0 0 .128.046.543.543 0 0 0 .088-.007 2.208 2.208 0 0 0 1.034-1.786 7.434 7.434 0 0 1 .452.645.13.13 0 0 0 .035.03 7.574 7.574 0 0 1-2.354 3.402 4.806 4.806 0 0 0-.706-1.841 4.053 4.053 0 0 0 .64-2.504l.125.149a5.436 5.436 0 0 1 .372.473 1.137 1.137 0 0 1 .165 1.176.18.18 0 0 0 .021.217zm10.458-12.056c-.747 2.428-3.636 6.03-6.096 6.03a2.438 2.438 0 0 1-.35-.024 8.414 8.414 0 0 1-6.638-6.318 21.44 21.44 0 0 0-1.474-4.868c2.021-1.418 5.267-4.304 5.318-8.246a9.719 9.719 0 0 0 8.22 5.264 4.48 4.48 0 0 1 .779 2.67c-.014.336-.064.715-.118 1.122a7.56 7.56 0 0 0 .36 4.37zm2.761 5.007-.025.382a4.815 4.815 0 0 0 .042.893c-.032.063-.03.126.003.147.025.235.052.47.084.702.156 1.17.305 2.28-.366 3.161a5.628 5.628 0 0 0-.157-.976 5.028 5.028 0 0 0-3.278-3.56.205.205 0 0 0-.028-.006 15.476 15.476 0 0 1-.146-2.85 10.667 10.667 0 0 0 1.323-2.417 5.348 5.348 0 0 0 .399.603 17.93 17.93 0 0 0 1.391 1.542c.17.174.341.352.488.475l.086.003-.062.093a2.826 2.826 0 0 1 .246 1.808zm-10.648.997a6.924 6.924 0 0 0 1.39.359 2.637 2.637 0 0 0 .384.028c1.433 0 3.155-1.12 4.644-3.01a14.77 14.77 0 0 0 2.021 7.8 11.45 11.45 0 0 0 1.313 1.753 3.845 3.845 0 0 1-3.07 1.89.183.183 0 0 0-.178.144l-.59 2.87-1.703-2.64a.194.194 0 0 0-.147-.08l-.012-.002h-.006c-.51.037-.979.053-1.41.053-3.927 0-4.65-1.38-4.656-1.392l-.006-.01a9.273 9.273 0 0 0 2.11-5.905.726.726 0 0 0 .01-.11 11.746 11.746 0 0 0-.094-1.748zm6.978.131a3.988 3.988 0 0 1 1.997 1.454.207.207 0 0 0-.043.022 15.122 15.122 0 0 0-1.223 1.22 14.632 14.632 0 0 1-.731-2.696zm2.078 5.317c-.106-.151-.212-.3-.307-.459a12.847 12.847 0 0 1-.897-1.783l.008-.008a15.228 15.228 0 0 1 1.314-1.322l.008-.008a4.744 4.744 0 0 1 .695 1.525c.066.28.1.496.14.624a9.265 9.265 0 0 0-.951 1.444zm-9.482-5.645a.107.107 0 0 0 .03-.005 10.01 10.01 0 0 1 .128 1.571c-.23-.203-.441-.376-.641-.527a5.109 5.109 0 0 0 .346-1.075.393.393 0 0 0 .137.036zm.156 2.006a10.595 10.595 0 0 1-.424 2.748 9.245 9.245 0 0 0-.522-.702l-.082-.063c0-.204-.003-.412-.012-.614a5.232 5.232 0 0 1 .078-1.484 4.17 4.17 0 0 1 .181-.504c.244.185.5.397.781.619zm-5.05 14.005a11.158 11.158 0 0 1-1.191-.356c-1.392-.403-3.243-3.034-3.62-3.992-.228-.58-.343-.937-.397-1.125a3.81 3.81 0 0 0 1.184-.999c2.433.162 3.787 2.338 4.025 6.472zm27.01-13.87c-8.188.758-9.407 5.27-9.587 6.471l-.03-.016a2.723 2.723 0 0 1-.296-.17 9.921 9.921 0 0 1-1.66-1.43.155.155 0 0 0-.032-.036 10.784 10.784 0 0 1-.79-.972l.01-.012a9.508 9.508 0 0 1 .7-1.143.167.167 0 0 1-.03.079.18.18 0 0 0-.066.122.377.377 0 0 0 .041.131.18.18 0 0 0 .14.066.375.375 0 0 0 .117-.042 2.744 2.744 0 0 0 .997-1.805l.028.013a8.026 8.026 0 0 1 1.493-1.129 6.065 6.065 0 0 1-.375 1.748c-.03.083.003.175.17.243a.36.36 0 0 0 .14-.067 12.846 12.846 0 0 0 1.59-2.62 8.658 8.658 0 0 1 2.735-.426 12.618 12.618 0 0 1 4.704.995zm-10.654-3.87c.058-.006.114-.01.176-.01a8.074 8.074 0 0 1 .916 1.352 8.885 8.885 0 0 0-1.132.616 5.216 5.216 0 0 1-.012-.629l.025-.373a6.957 6.957 0 0 0 .027-.957zm1.253 1.667a5.806 5.806 0 0 1 .487 1.879 8.019 8.019 0 0 0-1.54 1.096 10.19 10.19 0 0 0-.126-1.636 2.897 2.897 0 0 0-.12-.615 8.68 8.68 0 0 1 1.299-.724zm2.704-.685c.118-.004.234-.006.35-.006a6.77 6.77 0 0 1 4.501 1.906 11.818 11.818 0 0 0-2.85-.365 9.117 9.117 0 0 0-2.518.342 7.259 7.259 0 0 0 .517-1.877zM53.118 27.799c0-.005.016-.535-.046-1.383 8.759 2.35 7.996 11.768 7.708 15.323l-.027.337a5.271 5.271 0 0 0 .927 4.079 10.756 10.756 0 0 1 1.057 1.986 3.397 3.397 0 0 1 .188 1.595 9.935 9.935 0 0 1-1.667 4.046 5.292 5.292 0 0 0-.441-3.509 12.524 12.524 0 0 0-2.39-3.043 17.666 17.666 0 0 1-1.363-1.51c-1.35-1.766-1.1-3.664-.9-5.19.055-.412.107-.803.12-1.153a4.778 4.778 0 0 0-.684-2.65c.312.023.63.04.967.04a18.557 18.557 0 0 0 2.725-.21.203.203 0 0 0 .153-.206.187.187 0 0 0-.2-.152h-.005a18.205 18.205 0 0 1-2.676.209c-7.234 0-9.323-5.039-9.581-5.745a18.415 18.415 0 0 0 6.057-2.721.36.36 0 0 0 .078-.143zm-3.613-6.187a2.967 2.967 0 0 0 1.477.932 3.463 3.463 0 0 1-1.538.834 2.858 2.858 0 0 1-.647.074 3.708 3.708 0 0 1-1.064-.168 5.288 5.288 0 0 0 1.772-1.672zm-6.145 1.825a3.989 3.989 0 0 0 1.845.539c.071 0 .143-.003.215-.008a3.714 3.714 0 0 1-1.58 1.517 2.96 2.96 0 0 1-1.248.264 3.784 3.784 0 0 1-.587-.048 3.476 3.476 0 0 0 1.355-2.264zm-2.912 2.158a5.251 5.251 0 0 0 2.137.517 3.35 3.35 0 0 0 1.405-.298 4.684 4.684 0 0 0 2.262-2.803 3.462 3.462 0 0 0 .733.367.153.153 0 0 0 .163.117.356.356 0 0 0 .06-.005 4.222 4.222 0 0 0 1.566.326 3.33 3.33 0 0 0 .753-.085 4.207 4.207 0 0 0 2.345-1.618 20.359 20.359 0 0 1 .922 5.56 18.815 18.815 0 0 1-9.892 3.207c-1.2-1.15-2.172-4.3-2.453-5.285zm.11 22.799c.661-1.324-.212-2.634-.989-3.8a10.497 10.497 0 0 1-.688-1.126 9.565 9.565 0 0 1-.933-3.077 12.733 12.733 0 0 1 1.533-7.718 15.21 15.21 0 0 1 2.121-3.031 5.833 5.833 0 0 0 1.077 1.526.475.475 0 0 0 .104.046c.005.001.058.004.156.004a17.13 17.13 0 0 0 3.618-.452c.479 5.757-6.38 9.393-6.45 9.43a.182.182 0 0 0-.075.243.165.165 0 0 0 .168.082.579.579 0 0 0 .076-.005c.004-.002.413-.22 1.036-.638a22.722 22.722 0 0 1 1.416 4.742 8.55 8.55 0 0 0 4.649 5.792 3.54 3.54 0 0 1-.397 1.224c-.003.004-.015.096-.017.103a5.904 5.904 0 0 0-.268.725 5.53 5.53 0 0 0-.088 1.59c.01.205.014.416.012.636h.086l-.083.114a2.608 2.608 0 0 1-.469 1.503 1.834 1.834 0 0 0-.33-.992 5.651 5.651 0 0 0-.398-.506 5.367 5.367 0 0 1-.488-.636 4.213 4.213 0 0 0-.474-1.295 4.397 4.397 0 0 0-.403-.55 2.64 2.64 0 0 1-.536-2.732.374.374 0 0 0-.007-.138c-.021-.044-.058-.076-.165-.103a.18.18 0 0 0-.17.12 3.007 3.007 0 0 0 .605 3.09 4.007 4.007 0 0 1 .363.497 4.12 4.12 0 0 1-.047 4.108 1.058 1.058 0 0 0-.076.096 2.497 2.497 0 0 1-.273.325 2.05 2.05 0 0 1-.67.425 2.354 2.354 0 0 0 .333-1.622 4.67 4.67 0 0 0-1.677-2.605 4.302 4.302 0 0 1-1.183-5.395zm.94 5.664a6.259 6.259 0 0 1 .978 1.09 8.397 8.397 0 0 0-2.35-1.277 10.976 10.976 0 0 0-.106-.437 10.462 10.462 0 0 0-.57-1.585l.056-.006c.146-.014.293-.028.437-.033a5.414 5.414 0 0 0 1.556 2.248zm-1.79-3.73a4.313 4.313 0 0 0 .13 1.127 11.922 11.922 0 0 0-2.449.343l-.013-.016a7.33 7.33 0 0 1 2.331-1.455zm-5.138 2.71c1.26-.677 1.569-1.436 1.622-1.912a6.478 6.478 0 0 1 .797.772 3.146 3.146 0 0 1 .895 2.453 3.305 3.305 0 0 1-.591.353 6.683 6.683 0 0 0-1.398 1.083 2.948 2.948 0 0 0-1.979-.64l-.328.004a.308.308 0 0 0-.177.04c-.072-.217-.356-1.337 1.16-2.153zm-3.227 3.822a5.414 5.414 0 0 0 .109-1.875 5.176 5.176 0 0 0 1.738.469.203.203 0 0 0 .095.027l.111.01a3.466 3.466 0 0 0 .357.018l.14-.001a2.758 2.758 0 0 1 1.758.545 3.615 3.615 0 0 0-.94 2.704 4.506 4.506 0 0 0 .353 1.408 4.563 4.563 0 0 0-1.131-.525 3.432 3.432 0 0 0-.988-.147 3.598 3.598 0 0 0-1.12.184 3.865 3.865 0 0 1-.482-2.817zm-4.728 2.069a1.43 1.43 0 0 0 .154.007 2.762 2.762 0 0 0 2.055-1.194 2.107 2.107 0 0 1 1.588-.882 1.594 1.594 0 0 1 .553.1 4.135 4.135 0 0 0 .515 2.854 6.062 6.062 0 0 0-1.987 1.443.138.138 0 0 0-.052-.02c-1.52-.066-2.481-1.632-2.826-2.309zm3.025 5.203a10.228 10.228 0 0 1-1.854-.73 9.935 9.935 0 0 1-.85-.49c.04.003.082.004.124.004a3.254 3.254 0 0 0 2.638-1.35 4.717 4.717 0 0 1 3.24-1.712 3.114 3.114 0 0 1 .89.132 3.293 3.293 0 0 1 1.895 1.312 1.174 1.174 0 0 1 .04 1.025c-.524 1.294-2.26 1.806-2.98 1.965a5.661 5.661 0 0 1-1.207.128 7.125 7.125 0 0 1-1.936-.284zm2.294.629a5.782 5.782 0 0 0 .926-.12 4.72 4.72 0 0 0 3.134-1.983 3.865 3.865 0 0 1 .842.788c.2.303.591.909.816 1.258a2.809 2.809 0 0 0-1.405.42 9.354 9.354 0 0 0-1.007.742c-.06.049-.123.097-.184.146a5.336 5.336 0 0 0-.438-.276c-1.12-.588-2.255.26-3.154 1.209a11.915 11.915 0 0 1 .47-2.184zm-.14 9.425a3.424 3.424 0 0 0 2.462-1.864 3.446 3.446 0 0 0 1.533 1.123 1.91 1.91 0 0 0 1.818-.285 1.999 1.999 0 0 0 .637-1.533 4.421 4.421 0 0 0-.409-1.665 17.036 17.036 0 0 0-.253-.557 3.31 3.31 0 0 0 1.758-1.297 2.886 2.886 0 0 0 .361-.776 1.043 1.043 0 0 0 .11-.332 15.818 15.818 0 0 1 1.068 1.224 2.25 2.25 0 0 0-.41-.04.82.82 0 0 0-.61.2.577.577 0 0 0-.092.627c.212.578 1.292 1.546 3.424 2.016-.746.075-1.565.113-2.437.113-.843 0-1.902.098-2.164.569a.47.47 0 0 0 .025.491c.317.511 1.716 1.062 4.04 1.062.157 0 .32-.004.484-.01l-.02.51a20.002 20.002 0 0 1-.129 2.005 9.371 9.371 0 0 0-.56 1.364h-9.99a34.677 34.677 0 0 1-.647-2.945zm28.476 8.422a9.214 9.214 0 0 1-8.773 6.534 9.16 9.16 0 0 1-8.764-11.78 9.11 9.11 0 0 1 2.792-4.302 9.149 9.149 0 0 1 14.746 4.304 9.172 9.172 0 0 1 0 5.244zm.302-5.477a9.529 9.529 0 0 0-2.184-3.687c.011-.01.021-.022.032-.034l.073-.096a7.993 7.993 0 0 0 1.445-2.515.143.143 0 0 0 .086-.171 8.69 8.69 0 0 0 .122-.396c.856.905 4.093 4.163 7.008 4.836a14.806 14.806 0 0 1 4.67 1.941l.193.122z"/><path d="M50.606 45.549a.178.178 0 0 0-.161.1 2.709 2.709 0 0 1-2.079 1.217.181.181 0 0 0-.124.06.372.372 0 0 0-.045.132.18.18 0 0 0 .18.169h.01a3.044 3.044 0 0 0 2.38-1.417c.045-.087.01-.196-.161-.261zm-2.049-.849a.195.195 0 0 0-.2-.16 7.079 7.079 0 0 1-.603.04.638.638 0 0 1-.396-.08.663.663 0 0 1-.146-.392l-.542-3.432a.183.183 0 0 0-.2-.15h-.006a.204.204 0 0 0-.15.206l.542 3.432a.971.971 0 0 0 .269.612.865.865 0 0 0 .578.166h.058a8.17 8.17 0 0 0 .636-.041.204.204 0 0 0 .16-.201zm-2.632-5.778a6.175 6.175 0 0 0-3.434 1.746.18.18 0 0 0 .01.256.182.182 0 0 0 .255-.01 5.99 5.99 0 0 1 3.216-1.634.181.181 0 0 0 .156-.201.19.19 0 0 0-.203-.157zm6.521-1.582a5.106 5.106 0 0 0-1.222-.144 6.53 6.53 0 0 0-2.607.568.18.18 0 0 0 .08.343l.078-.018a6.455 6.455 0 0 1 2.473-.528 5.104 5.104 0 0 1 1.156.134.178.178 0 0 0 .175-.137.176.176 0 0 0-.022-.137.35.35 0 0 0-.11-.081z"/><path class="cls-1" d="M60.72 78.14c.02.09.03.17.04.25h15.12v3.19H60.76a2.166 2.166 0 0 1-.04.25h15.41v-3.69zm-18.48.25c.01-.08.03-.16.05-.25H26.88v3.69h15.41a2.211 2.211 0 0 1-.05-.25H27.13v-3.19z"/></g></svg>