<svg xmlns="http://www.w3.org/2000/svg" viewBox="0 0 103 160"><defs><style>.cls-1{fill:#fff}.cls-2{fill:#232323}.cls-3{fill:#333}</style></defs><g id="SPADES"><path class="cls-1" d="M0 0h103v160H0z"/><path d="M82.51 93.29a19.481 19.481 0 0 1-28.54 1.15l-1.86-1.86-1.87 1.86a19.469 19.469 0 0 1-27.78-.32c-.26-.27-.51-.55-.75-.83a19.71 19.71 0 0 1 1.37-26.63l1.56-1.56c4.02-3.21 8.26-6.89 12.57-11.07a174.84 174.84 0 0 0 14.9-16.41 172.113 172.113 0 0 0 14.9 16.41c4.31 4.18 8.55 7.86 12.57 11.07l1.56 1.56a19.71 19.71 0 0 1 1.37 26.63z"/><path class="cls-1" d="M49.704 55.502a5.094 5.094 0 0 0 2.206-1.755 2.349 2.349 0 0 1-.672 2.772 3.077 3.077 0 0 1-1.848.797 2.349 2.349 0 0 1-2.477-1.414 5.266 5.266 0 0 0 2.79-.4z"/><path class="cls-1" d="M54.513 55.502a5.095 5.095 0 0 1-2.206-1.755 2.349 2.349 0 0 0 .671 2.772 3.077 3.077 0 0 0 1.849.797 2.349 2.349 0 0 0 2.477-1.414 5.267 5.267 0 0 1-2.79-.4z"/><path class="cls-1" d="M57.108 52.368a6.177 6.177 0 0 1-4.597 1.765 6.053 6.053 0 0 1 6.362-6.362 5.998 5.998 0 0 1-1.765 4.597zm-9.999 0a6.178 6.178 0 0 0 4.597 1.765 6.053 6.053 0 0 0-6.362-6.362 5.997 5.997 0 0 0 1.765 4.597z"/><path class="cls-1" d="M54.5 49.106a7.372 7.372 0 0 1-2.391 5.369 7.223 7.223 0 0 1 0-10.737 7.157 7.157 0 0 1 2.39 5.368zm-5 37.516a7.455 7.455 0 0 1-1.724 3.862 14.818 14.818 0 0 1-7.122 4.347 15.931 15.931 0 0 1-4.221.625 12.652 12.652 0 0 1-4.36-.698 13.066 13.066 0 0 1-3.888-2.154 13.528 13.528 0 0 1-4.82-8.245 13.396 13.396 0 0 1-.208-1.816 13.67 13.67 0 0 1 .021-1.738 14.39 14.39 0 0 1 1.006-4.239 15.076 15.076 0 0 1 .94-1.937c.183-.312.373-.611.573-.91.208-.304.429-.598.654-.88a26.581 26.581 0 0 1 2.891-2.878 17.286 17.286 0 0 0 2.536-2.679 10.2 10.2 0 0 0 1.586-3.29 10.567 10.567 0 0 0 .304-3.801 9.723 9.723 0 0 1-.434 7.958 16.517 16.517 0 0 1-2.362 3.39 31.698 31.698 0 0 0-2.341 2.921c-.16.243-.308.485-.442.733-.143.26-.273.524-.399.788a13.38 13.38 0 0 0-.641 1.63 1.859 1.859 0 0 0-.048.156 11.829 11.829 0 0 0 .121 7.499 10.861 10.861 0 0 0 1.058 2.175 10.555 10.555 0 0 0 5.037 4.235 12.396 12.396 0 0 0 6.809.503 14.414 14.414 0 0 0 6.527-2.883 6.768 6.768 0 0 0 2.012-2.886 7.042 7.042 0 0 0 .203-3.736 6.526 6.526 0 0 1 .733 3.948z"/><path class="cls-1" d="M45.769 78.335a9.947 9.947 0 0 0-5.825-2.25 13.277 13.277 0 0 0-5.978 1.018 12.178 12.178 0 0 0-4.66 3.394 10.047 10.047 0 0 0-2.184 4.768c-.004.035-.013.074-.017.108l-3.74-1.013a13.396 13.396 0 0 1-.209-1.816 14.093 14.093 0 0 1 3.646-4.616c.065-.057.13-.109.199-.16a15.404 15.404 0 0 1 13.142-2.865 10.57 10.57 0 0 1 5.626 3.432z"/><path class="cls-1" d="M24.795 78.363a8.144 8.144 0 0 0-2.138-.25c-2.123.2-3.142 1.884-3.666 3.776.2-.72 1.592-1.327 2.29-1.385a3.199 3.199 0 0 1 2.552 1.238c.698-.834.698-2.345.962-3.379zm10.487-3.579a3.337 3.337 0 0 0 1.715-4.81s3.438 2.4 1.537 5.339zm1.913 11.241s.248-2.054 2.681-1.278c2.208.703 2.228 3.555 1.15 5.217-1.205 1.859-4.805 2.726-6.854 2.185l5.598 1.48c.79.208 2.592-1.353 3.064-1.818 2.825-2.784 1.674-9.061-2.83-9.251a2.595 2.595 0 0 0-2.81 3.465zm17.521.597a7.455 7.455 0 0 0 1.725 3.862 14.818 14.818 0 0 0 7.122 4.347 15.931 15.931 0 0 0 4.221.625 12.652 12.652 0 0 0 4.36-.698 13.066 13.066 0 0 0 3.889-2.154 13.528 13.528 0 0 0 4.82-8.245 13.38 13.38 0 0 0 .208-1.816 13.652 13.652 0 0 0-.022-1.738 14.383 14.383 0 0 0-1.005-4.239 15.076 15.076 0 0 0-.941-1.937 17.682 17.682 0 0 0-.572-.91 14.967 14.967 0 0 0-.655-.88 26.581 26.581 0 0 0-2.89-2.878 17.285 17.285 0 0 1-2.536-2.679 10.199 10.199 0 0 1-1.587-3.29 10.57 10.57 0 0 1-.303-3.801 9.723 9.723 0 0 0 .433 7.958 16.517 16.517 0 0 0 2.363 3.39 31.696 31.696 0 0 1 2.34 2.921c.16.243.308.485.442.733.143.26.273.524.399.788a13.397 13.397 0 0 1 .641 1.63c.018.052.035.104.048.156a11.829 11.829 0 0 1-.121 7.499 10.856 10.856 0 0 1-1.058 2.176A10.554 10.554 0 0 1 71 91.677a12.396 12.396 0 0 1-6.809.502 14.414 14.414 0 0 1-6.527-2.882 6.767 6.767 0 0 1-2.011-2.887 7.042 7.042 0 0 1-.204-3.736 6.524 6.524 0 0 0-.733 3.948z"/><path class="cls-1" d="M58.448 78.335a9.947 9.947 0 0 1 5.825-2.25 13.278 13.278 0 0 1 5.978 1.018 12.178 12.178 0 0 1 4.66 3.394 10.048 10.048 0 0 1 2.184 4.768c.004.035.013.074.017.108l3.74-1.013a13.38 13.38 0 0 0 .209-1.816 14.091 14.091 0 0 0-3.646-4.616 3.426 3.426 0 0 0-.199-.16 15.404 15.404 0 0 0-13.142-2.865 10.57 10.57 0 0 0-5.626 3.432z"/><path class="cls-1" d="M79.422 78.363a8.145 8.145 0 0 1 2.138-.25c2.123.2 3.142 1.884 3.666 3.776-.2-.72-1.592-1.327-2.29-1.385a3.199 3.199 0 0 0-2.552 1.238c-.698-.834-.698-2.345-.962-3.379zm-10.487-3.579a3.337 3.337 0 0 1-1.715-4.81s-3.438 2.4-1.537 5.339zm-1.913 11.241s-.248-2.054-2.681-1.278c-2.208.703-2.228 3.555-1.15 5.217 1.205 1.859 4.805 2.726 6.854 2.185l-5.598 1.48c-.79.208-2.592-1.353-3.064-1.818-2.825-2.784-1.674-9.061 2.83-9.251a2.595 2.595 0 0 1 2.81 3.465zM44.4 53.634a5.104 5.104 0 0 0-2.66 1.872 5.446 5.446 0 0 0-.9 2.645 7.815 7.815 0 0 0 .277 2.758 6.992 6.992 0 0 0 1.17 2.38 4.365 4.365 0 0 0 1.845 1.428 3.361 3.361 0 0 0 .986.257 1.278 1.278 0 0 0 .651-.097 1.966 1.966 0 0 0 .555-.558.546.546 0 0 0-.019-.685 1.782 1.782 0 0 0-2.551-.42 2.046 2.046 0 0 1 1.446-1.403 2.997 2.997 0 0 1 2.313.275 2.754 2.754 0 0 1 1.435 2.391 2.475 2.475 0 0 1-.06.742 3.122 3.122 0 0 1-.187.661 3.615 3.615 0 0 1-.68 1.191 4.159 4.159 0 0 1-2.492 1.405 5.876 5.876 0 0 1-2.523-.136 7.274 7.274 0 0 1-3.88-2.602 8.968 8.968 0 0 1-1.714-4.058 8.753 8.753 0 0 1 .388-4.297 6.42 6.42 0 0 1 2.678-3.368 4.586 4.586 0 0 1 3.922-.381zm15.417 0a4.586 4.586 0 0 1 3.922.381 6.42 6.42 0 0 1 2.678 3.368 8.754 8.754 0 0 1 .389 4.297 8.967 8.967 0 0 1-1.714 4.058 7.274 7.274 0 0 1-3.88 2.602 5.877 5.877 0 0 1-2.524.136 4.159 4.159 0 0 1-2.492-1.405 3.618 3.618 0 0 1-.68-1.19 3.122 3.122 0 0 1-.188-.662 2.475 2.475 0 0 1-.059-.742 2.754 2.754 0 0 1 1.435-2.391 2.997 2.997 0 0 1 2.313-.275 2.046 2.046 0 0 1 1.447 1.403 1.782 1.782 0 0 0-2.552.42.547.547 0 0 0-.019.684 1.965 1.965 0 0 0 .556.559 1.278 1.278 0 0 0 .65.096 3.36 3.36 0 0 0 .987-.257 4.365 4.365 0 0 0 1.844-1.427 6.992 6.992 0 0 0 1.17-2.38 7.812 7.812 0 0 0 .278-2.758 5.444 5.444 0 0 0-.902-2.645 5.103 5.103 0 0 0-2.659-1.872z"/><path d="M53.738 99.291a5.026 5.026 0 0 1-1.63 3.66 4.924 4.924 0 0 1 0-7.32 4.879 4.879 0 0 1 1.63 3.66z"/><path class="cls-2" d="M59.007 100.861a6.704 6.704 0 0 0-5.41 1.758 2.879 2.879 0 0 1 5.41-1.758zm-13.797 0a6.704 6.704 0 0 1 5.41 1.758 2.879 2.879 0 0 0-5.41-1.758z"/><path d="M53.03 120.263a2.843 2.843 0 0 1-.921 2.07 2.786 2.786 0 0 1 0-4.14 2.76 2.76 0 0 1 .922 2.07z"/><path class="cls-2" d="M56.01 121.152a3.793 3.793 0 0 0-3.06.994 1.628 1.628 0 0 1 3.06-.994zm-7.804 0a3.793 3.793 0 0 1 3.06.994 1.628 1.628 0 0 0-3.06-.994z"/><path d="M65.95 112.996a1.562 1.562 0 0 0-.387.049.942.942 0 0 0-.026-.12l.008-.006q.025-.017.048-.036l.01-.008a.631.631 0 0 0 .046-.043l.002-.001a.592.592 0 0 0 .043-.052l.004-.004.573-.767.003-.004.021-.032.005-.007.023-.04.007-.014.013-.028.007-.018.01-.025.006-.019.008-.026.004-.018.006-.03.003-.015.004-.035.001-.011a.62.62 0 0 0 .002-.046v-2.032a.614.614 0 0 0-.416-.581l-.07-.024.222-.297a.593.593 0 0 0 .038-.056l.006-.013a.626.626 0 0 0 .023-.044l.008-.019a.624.624 0 0 0 .016-.041l.006-.02a.606.606 0 0 0 .011-.043l.005-.02a.627.627 0 0 0 .007-.05l.001-.013a.604.604 0 0 0 .002-.063v-.017a.64.64 0 0 0-.005-.047l-.003-.02a.523.523 0 0 0-.009-.045l-.002-.01-.003-.01a.58.58 0 0 0-.014-.045l-.006-.017a.627.627 0 0 0-.022-.048l-.005-.011a.622.622 0 0 0-.033-.057l-.005-.006a.993.993 0 0 0-.03-.042l-.005-.006-.002-.002a4.198 4.198 0 0 0-2.096-1.425 2.539 2.539 0 0 0-2.285.318c-.023.017-.044.036-.066.054v-.401a.614.614 0 0 0-.482-.6 44.058 44.058 0 0 0-1.474-.299l-.021-.002-.032-.005-.04-.002h-.031l-.041.002-.028.003-.042.007-.026.006c-.014.003-.028.008-.041.012l-.025.008a.62.62 0 0 0-.043.019l-.02.009a.66.66 0 0 0-.05.029l-.01.005a.603.603 0 0 0-.055.041l-.013.013-.038.035-.014.017-.03.036-.003.003-.201.27-.377-.522a.614.614 0 0 0-.408-.248 66.582 66.582 0 0 0-1.479-.187c-.014 0-2.003-.184-2.01-.184-.001 0-1.207-.07-1.762-.085h-.042a.62.62 0 0 0-.07.007l-.01.002a.602.602 0 0 0-.065.015l-.013.004a.61.61 0 0 0-.06.022l-.013.006a.64.64 0 0 0-.057.03l-.012.007a.634.634 0 0 0-.054.038l-.008.007a.614.614 0 0 0-.052.047l-.002.003a.609.609 0 0 0-.048.055l-.002.003-.311.417-.187-.351a.614.614 0 0 0-.542-.326h-.006a97.01 97.01 0 0 0-3.79.205l-.016.003-.052.01-.026.005a.62.62 0 0 0-.053.017l-.02.007a.602.602 0 0 0-.066.032l-.015.01a.529.529 0 0 0-.049.031l-.02.015a.62.62 0 0 0-.039.034l-.018.018a.604.604 0 0 0-.038.042l-.012.015-.004.005-.573.766a.629.629 0 0 0-.037.056l-.007.014a.59.59 0 0 0-.034.07q-.46 1.134-.915 2.273c-.42.063-.841.132-1.261.208v-2.395a.614.614 0 0 0-.734-.602 45.092 45.092 0 0 0-1.527.332h-.003a.638.638 0 0 0-.06.023l-.01.005a.62.62 0 0 0-.045.023l-.015.009q-.021.012-.041.027l-.01.007a.61.61 0 0 0-.048.04l-.01.009-.033.035-.007.007-.313.364a2.666 2.666 0 0 0-1.644.037c-.654.19-1.313.4-1.96.62l-.015.007-.016.006a.63.63 0 0 0-.052.023l-.004.002a.707.707 0 0 0-.052.032l-.012.008-.04.03-.01.008a.598.598 0 0 0-.044.042l-.009.01a.61.61 0 0 0-.032.039l-.006.007-.573.767-.003.004a.612.612 0 0 0-.035.053l-.006.011a.67.67 0 0 0-.025.05l-.005.01a.59.59 0 0 0-.021.06l-.004.013a.625.625 0 0 0-.013.055l-.002.01a.593.593 0 0 0-.007.062v.015l-.001.025v4.39a.614.614 0 0 0 .813.582c.466-.16.942-.314 1.413-.457l.019-.007.016-.005a.595.595 0 0 0 .058-.025.621.621 0 0 0 .055-.03l.014-.01a.514.514 0 0 0 .045-.033l.007-.005a.59.59 0 0 0 .046-.043l.011-.012a.599.599 0 0 0 .04-.047l.002-.003.573-.767a.617.617 0 0 0 .03-.043l.008-.015.016-.03.01-.02.012-.025.008-.022.01-.026.006-.023.006-.026.005-.023.005-.027.003-.024.002-.026v-.025l.001-.012v-.17a3.813 3.813 0 0 0 .699-.39q.131-.087.25-.179v.692a5.129 5.129 0 0 0-1.465 2.211 3.426 3.426 0 0 0-.122.475c-.02.098-.037.198-.05.3a.612.612 0 0 0 .001.157l-.003.115v.013a2.36 2.36 0 0 0 .829 1.891 2.394 2.394 0 0 0 1.516.5 3.102 3.102 0 0 0 .657-.071 3.868 3.868 0 0 0 .973-.347 3.254 3.254 0 0 0 .463-.262.611.611 0 0 0 .5.138 43.046 43.046 0 0 1 1.553-.237l.018-.003a.628.628 0 0 0 .054-.011l.028-.008a.459.459 0 0 0 .047-.017l.027-.011a.607.607 0 0 0 .046-.024l.022-.013a.528.528 0 0 0 .049-.034l.015-.01a.596.596 0 0 0 .058-.054l.003-.004a.636.636 0 0 0 .044-.052l.33-.44q.28-.032.562-.062l.061.148a.615.615 0 0 0 .621.378 42.956 42.956 0 0 1 1.59-.108l.018-.002.04-.005.032-.005a.593.593 0 0 0 .091.003c.486-.021.98-.035 1.467-.04a.56.56 0 0 0 .058-.004l.014-.002a.735.735 0 0 0 .059-.01h.003a.625.625 0 0 0 .063-.019l.009-.003a.614.614 0 0 0 .116-.057l.01-.007a.604.604 0 0 0 .05-.037l.008-.007q.022-.019.042-.04l.008-.007a.644.644 0 0 0 .041-.05l.004-.004.09-.12.063.095a.615.615 0 0 0 .503.275c.555.009 2.96.146 3.497.199a5.707 5.707 0 0 0 .576.03h.017l.084.002a3.277 3.277 0 0 0 .888-.12 2.597 2.597 0 0 0 .784-.344 5.041 5.041 0 0 0 2.497 1.27 3.822 3.822 0 0 0 .807.092 2.167 2.167 0 0 0 1.009-.22 2.456 2.456 0 0 0 1.26-1.42.936.936 0 0 0 .44-.01.612.612 0 0 0 .27.064h.619a.61.61 0 0 0 .339-.102 1.523 1.523 0 0 0 .64.137 1.41 1.41 0 0 0 1.453-1.394v-.005a1.404 1.404 0 0 0-1.449-1.389z"/><path class="cls-3" d="M54.33 112.147s.1.649-.878 1.553l-.402-.52zm-16.897-3.567q.96-.328 1.932-.611c1.147-.333 1.94.006 1.94 1.045v.013a2.349 2.349 0 0 1-1.97 2.15q-.235.068-.469.14v1.191q-.72.219-1.433.463zm1.821 1.573c.37-.109.617-.346.617-.66v-.012c0-.32-.229-.42-.61-.308l-.395.117v.979l.388-.116z"/><path class="cls-3" d="M41.844 108.525a3.36 3.36 0 0 1-2.51 2.652s-.118-1.325-.08-1.313 2.59-1.339 2.59-1.339zm-2.741 2.843.336.373-.573.767-.522-.256.266-.783.493-.101zm-1.67-2.787.573-.767.49.559-.126.961-.67.113-.267-.866z"/><path class="cls-3" d="M41.616 107.277c.49-.115.969-.218 1.462-.316v3.238q1.031-.204 2.07-.358v1.254q-1.776.263-3.532.674z"/><path class="cls-3" d="M47.012 106.438q.735-.077 1.471-.129.936 2.146 1.874 4.331-.807.022-1.614.074l-.235-.574q-.777.054-1.553.136l-.228.615q-.791.087-1.58.204.93-2.349 1.865-4.657zm1.128 2.688-.406-1.033-.405 1.104q.405-.04.811-.071z"/><path class="cls-3" d="m47.379 106.857-.367-.419.573-.767.35.352-.556.834zm3.551 3.017-.573.766-.767-.397.101-.707 1.239.338zm-3.63.25-.573.766-.498-.381.139-.72.733-.026.199.361z"/><path class="cls-3" d="M50.756 109.07q-.839-1.41-1.678-2.788.832-.04 1.666-.047.381.718.763 1.443.385-.718.77-1.43.822.022 1.645.075-.838 1.354-1.678 2.741v1.575q-.743-.02-1.488-.013z"/><path class="cls-3" d="m50.02 105.695-.422-.18-.573.767.894.727.632-.784-.531-.53zm2.429 1.112-.173-.558.573-.767.346.68-.746.645zm0 2.678.368.387-.573.767-.477-.497.227-.644.455-.013zm1.618-3.15q.743.05 1.484.126v4.39q-.741-.075-1.484-.126z"/><path class="cls-3" d="m54.33 106.756-.263-.422.573-.766.637.784-.947.404zm1.579 2.982.215.347-.573.767-.488-.634.29-.644.556.164z"/><path class="cls-3" d="M56.07 106.518q.693.08 1.384.18.785 1.086 1.567 2.2v-1.939q.728.135 1.453.295v4.39q-.65-.143-1.302-.266-.816-1.167-1.636-2.302v2.026q-.732-.11-1.466-.194z"/><path class="cls-3" d="m57.097 106.263-.454-.512-1.092.71.826 1.192.973-.771-.253-.619zm2.224 1.036-.3-.34.573-.766.7.917-.973.189zm-1.504 2.389c.025.05.292.647.292.647l-.573.767-.54-.619.278-.884zm2.856.568.374.622-.573.766-.673-.567.379-.859.493.038zm.2-.704v-.013a1.71 1.71 0 0 1 2.395-1.666 3.606 3.606 0 0 1 1.798 1.23q-.4.36-.802.729a2.004 2.004 0 0 0-.953-.673.716.716 0 0 0-.97.764v.012a1.409 1.409 0 0 0 1.032 1.337.901.901 0 0 0 .492.047v-.439q-.368-.113-.739-.22v-.94q1.046.3 2.08.654v2.033a2.61 2.61 0 0 1-1.895.058 3.218 3.218 0 0 1-2.438-2.913z"/><path class="cls-3" d="M62.442 107.135a2.729 2.729 0 0 0-1.504 2.035l.53.152.974-1.175zm.998 2.97a14.948 14.948 0 0 1-.314-.385l.573-.767.575.76a3.12 3.12 0 0 1-.19.582 79.13 79.13 0 0 0-.644-.19zm1.971 1.048.368.487-.573.767-.591-.319.24-.733.556-.202zm-.164-2.994.392.178-.573.767-.552-.023.063-.72.67-.202zm-25.27 6.806v-.012a3.026 3.026 0 0 1 2.314-2.86 1.723 1.723 0 0 1 1.988.759q-.608.457-1.212.931a.67.67 0 0 0-.795-.368 1.144 1.144 0 0 0-.817 1.146v.013c0 .57.336.89.817.786a1.192 1.192 0 0 0 .826-.724q.605.223 1.212.462a2.922 2.922 0 0 1-2.076 1.587 1.704 1.704 0 0 1-2.257-1.72z"/><path class="cls-3" d="M42.181 111.574a4.672 4.672 0 0 0-2.207 3.184l.573.135 1.365-1.92zm2.258.337.412.174-.572.767-.699-.301.859-.64zm-.185 2.679.629-.258a3.893 3.893 0 0 1-2.146 2.179l.202-1.028zm1.803-3.08q.734-.093 1.47-.16.934 2.124 1.871 4.29-.807.04-1.612.108l-.235-.568q-.776.07-1.55.17l-.228.62q-.79.105-1.576.24.928-2.37 1.86-4.7zm1.127 2.663-.405-1.023-.405 1.112q.404-.048.81-.089zm2.399-2.933q1.086-.05 2.174-.044a2.15 2.15 0 0 1 1.602.54 1.431 1.431 0 0 1 .407 1.06v.013a1.354 1.354 0 0 1-.877 1.306q.518.762 1.036 1.537-.848-.046-1.697-.06-.42-.634-.84-1.26h-.012l-.306.002v1.255q-.744.008-1.487.041zm2.13 2.045c.356.001.572-.15.572-.42v-.013c0-.282-.222-.425-.566-.426q-.324-.002-.649.002v.86q.321-.005.643-.003zm2.415-2.012q.851.05 1.7.135c1.761.18 2.634 1.208 2.635 2.5v.012c0 1.305-.893 2.055-2.686 1.873q-.823-.08-1.65-.13zm1.732 3.25c.678.067 1.114-.15 1.114-.785v-.012c0-.633-.436-.967-1.114-1.035l-.247-.024v1.831l.247.024z"/><path class="cls-3" d="M58.91 113.933a2.68 2.68 0 0 1-2.645 1.887l.168-1.247zm-3.622-2.881-.587-.546-.573.767.368.908.792-1.129z"/><path class="cls-3" d="M58.438 115.479q.393-.404.786-.801a3.258 3.258 0 0 0 1.536.818c.262.057.374.015.374-.105v-.012c0-.125-.137-.227-.606-.421-.982-.41-1.851-.832-1.851-1.761v-.013c0-.831.656-1.38 1.864-1.128a3.616 3.616 0 0 1 1.968 1.067q-.353.403-.708.812a2.769 2.769 0 0 0-1.31-.73c-.219-.046-.32.01-.32.116v.013c0 .12.12.217.583.404 1.118.45 1.86.982 1.861 1.864v.013c0 .924-.749 1.28-1.924 1.026a4.424 4.424 0 0 1-2.253-1.162z"/><path class="cls-3" d="M63.172 115.028a1.887 1.887 0 0 1-1.701 1.685l.101-.91zm-.589-2.78.499.108-.573.767-.768.321.842-1.196zm-3.74 3.353-.405-.122.573-.767.725-.021-.287.809-.606.101zm-.166-2.417a1.988 1.988 0 0 1 1.48-1.913l-.27 1.129-.977 1.196zm-12.25-1.054-.37-.62.573-.767.403.528-.606.859zm2.881 2.393.663.349-.573.767-.781-.257.135-.961.556.102zm-3.117.202.155.477-.573.767-.559-.318.404-.926h.573zm3.672-3.05-.28-.436.573-.766.499.36-.387 1.146-.405-.304zm3.825 2.814.81.396-.573.767-1.147-.422.168-.893.742.152zm-2.312-.157.267.49-.573.767a2.455 2.455 0 0 1-.516-.258c0-.05.27-1.095.27-1.095zm-8.849-7.323a4.371 4.371 0 0 1-.338-.397l-.573.665.721.705zm2.918 2.931.275.389-.573.766-.611-.409.075-.544.834-.202zm-6.444-.947 1.466-.278-.215.846-1.503.493.252-1.061z"/><path class="cls-1" d="M38.006 107.814q.96-.33 1.932-.612c1.147-.333 1.94.006 1.94 1.046v.012a2.35 2.35 0 0 1-1.97 2.15q-.235.069-.469.14v1.191q-.72.22-1.433.464zm1.82 1.572c.37-.108.618-.346.618-.66v-.012c0-.32-.229-.42-.61-.309q-.198.058-.395.118v.979l.388-.116z"/><path class="cls-1" d="M37.955 112.275v-4.497l.035-.012a43.78 43.78 0 0 1 1.934-.612 1.796 1.796 0 0 1 1.586.104 1.162 1.162 0 0 1 .418.99v.012a2.38 2.38 0 0 1-2.007 2.199q-.216.063-.431.128v1.192l-.036.01c-.478.146-.96.302-1.432.463zm.101-4.425v4.284c.44-.15.888-.294 1.333-.43v-1.192l.035-.01q.234-.072.469-.14c1.23-.359 1.934-1.125 1.934-2.102v-.013a1.067 1.067 0 0 0-.378-.909 1.704 1.704 0 0 0-1.497-.088c-.633.185-1.27.387-1.896.6zm1.333 1.72v-1.084l.035-.011q.197-.06.395-.118a.606.606 0 0 1 .538.027.386.386 0 0 1 .138.33v.012a.783.783 0 0 1-.654.708q-.194.057-.387.116zm.1-1.01v.874l.324-.097c.363-.107.58-.335.58-.61v-.013a.292.292 0 0 0-.097-.249.526.526 0 0 0-.449-.01q-.179.052-.357.106zm2.7-1.948q.729-.171 1.462-.316v3.136q1.031-.204 2.07-.358v1.255q-1.776.263-3.532.673z"/><path class="cls-1" d="M42.138 111.066v-4.494l.04-.01c.483-.113.976-.22 1.464-.316l.06-.012v3.137a42.83 42.83 0 0 1 2.01-.347l.058-.009v1.357l-.043.007a43.07 43.07 0 0 0-3.527.673zm.101-4.414v4.287a43.797 43.797 0 0 1 3.43-.654v-1.152c-.669.1-1.344.217-2.008.349l-.06.012v-3.137c-.454.091-.911.19-1.362.295z"/><path class="cls-1" d="M47.585 105.671q.735-.077 1.47-.128.937 2.145 1.875 4.33-.807.022-1.614.074l-.235-.574q-.777.055-1.553.137l-.228.614q-.791.088-1.58.205.93-2.349 1.865-4.658zm1.128 2.688-.406-1.032-.405 1.103q.405-.039.811-.07z"/><path class="cls-1" d="m45.64 110.391.033-.081c.61-1.54 1.237-3.107 1.865-4.658l.011-.028.03-.003c.489-.051.984-.095 1.473-.129l.036-.002.014.032c.63 1.443 1.26 2.9 1.874 4.332l.03.068-.075.002c-.535.015-1.077.04-1.612.074l-.036.002-.235-.574a44.09 44.09 0 0 0-1.484.13l-.228.614-.03.004c-.525.058-1.056.127-1.578.204zm1.98-4.673a678.714 678.714 0 0 0-1.82 4.548c.484-.071.976-.135 1.463-.189l.228-.615.031-.003a44.42 44.42 0 0 1 1.556-.136l.036-.003.235.574c.5-.031 1.005-.055 1.505-.069-.6-1.398-1.215-2.82-1.83-4.23-.466.034-.938.075-1.404.123zm.206 2.77.028-.075.406-1.104.046-.125.048.124.406 1.032.025.064-.068.005c-.269.021-.541.045-.81.071zm.483-1.02-.332.904c.22-.021.444-.04.664-.058l-.332-.845zm3.021.836q-.84-1.41-1.679-2.789.832-.039 1.665-.046.382.718.764 1.442.384-.718.77-1.429.822.022 1.645.075-.838 1.354-1.678 2.74v1.575q-.744-.02-1.488-.013z"/><path class="cls-1" d="m52.868 109.924-.052-.001a43.575 43.575 0 0 0-1.486-.013h-.051v-1.592c-.55-.925-1.113-1.86-1.671-2.777l-.044-.072.085-.004a43.792 43.792 0 0 1 1.667-.047h.03l.015.027q.36.677.72 1.359.361-.676.724-1.346l.014-.027h.031c.547.015 1.102.04 1.648.076l.084.005-.044.072c-.559.902-1.12 1.82-1.67 2.728zm-1.172-.117c.357 0 .716.005 1.07.013v-1.536l.008-.012c.538-.89 1.087-1.787 1.633-2.67a43.903 43.903 0 0 0-1.529-.069q-.377.698-.754 1.402l-.045.084-.044-.085-.749-1.415c-.513.005-1.034.02-1.548.042.547.899 1.096 1.812 1.634 2.716l.008.012v1.519h.316zm2.944-4.239q.743.05 1.484.127v4.39q-.741-.076-1.484-.126z"/><path class="cls-1" d="m56.174 110.141-.055-.006c-.491-.05-.99-.092-1.483-.126l-.047-.003v-4.492l.054.003c.494.034.994.077 1.486.127l.045.005zm-1.484-.23c.46.032.925.072 1.383.118v-4.289a44.002 44.002 0 0 0-1.382-.118zm1.953-4.161q.693.08 1.384.182.785 1.085 1.567 2.199v-1.938q.728.134 1.453.294v4.39q-.65-.142-1.302-.265-.816-1.167-1.636-2.303v2.026q-.732-.11-1.466-.193z"/><path class="cls-1" d="m61.097 110.94-.061-.013a44.68 44.68 0 0 0-1.3-.266l-.02-.004-.013-.017a187.11 187.11 0 0 0-1.544-2.174v1.928l-.058-.009a43.534 43.534 0 0 0-1.464-.193l-.044-.005v-4.493l.056.007c.46.053.926.114 1.385.181l.021.003.013.018c.493.68.989 1.376 1.475 2.068v-1.84l.06.012c.484.09.974.188 1.455.295l.04.008zm-1.323-.374c.407.077.818.16 1.222.249v-4.287c-.447-.099-.902-.19-1.352-.275v2.038l-.092-.131a160.62 160.62 0 0 0-1.554-2.18 43.587 43.587 0 0 0-1.305-.172v4.289a41.4 41.4 0 0 1 1.365.18v-2.124l.092.127c.543.752 1.09 1.52 1.624 2.286zm1.672-1.781v-.013a1.71 1.71 0 0 1 2.395-1.666 3.607 3.607 0 0 1 1.798 1.23q-.4.36-.802.73a2.003 2.003 0 0 0-.953-.674.715.715 0 0 0-.97.764v.012a1.409 1.409 0 0 0 1.032 1.337.9.9 0 0 0 .492.048v-.44q-.369-.112-.739-.219v-.94q1.046.3 2.08.654v2.032a2.61 2.61 0 0 1-1.895.058 3.218 3.218 0 0 1-2.438-2.913z"/><path class="cls-1" d="M64.833 111.895a3.435 3.435 0 0 1-.963-.149 3.25 3.25 0 0 1-2.474-2.961v-.013a1.794 1.794 0 0 1 .67-1.487 1.992 1.992 0 0 1 1.788-.227 3.648 3.648 0 0 1 1.823 1.247l.03.037-.035.032c-.269.242-.538.487-.802.728l-.039.036-.033-.04a1.939 1.939 0 0 0-.93-.657.71.71 0 0 0-.637.078.766.766 0 0 0-.268.637v.013a1.366 1.366 0 0 0 .996 1.288.947.947 0 0 0 .428.055v-.36a43.671 43.671 0 0 0-.703-.209l-.037-.01v-1.047l.065.019c.696.2 1.397.42 2.082.655l.035.012v2.1l-.028.014a2.152 2.152 0 0 1-.968.21zm-1.697-4.844a1.654 1.654 0 0 0-1.009.315 1.696 1.696 0 0 0-.63 1.406v.013a3.148 3.148 0 0 0 2.401 2.864 2.619 2.619 0 0 0 1.83-.04v-1.965a43.927 43.927 0 0 0-1.979-.623v.835c.235.068.471.138.703.21l.036.01v.516l-.038.01a.953.953 0 0 1-.52-.048 1.468 1.468 0 0 1-1.067-1.385v-.013a.864.864 0 0 1 .308-.717.808.808 0 0 1 .727-.095 2.004 2.004 0 0 1 .943.649c.24-.22.484-.441.728-.661a3.534 3.534 0 0 0-1.743-1.177 2.474 2.474 0 0 0-.69-.104zm-22.586 7.148v-.013a3.026 3.026 0 0 1 2.313-2.859 1.722 1.722 0 0 1 1.988.758q-.607.457-1.212.931a.67.67 0 0 0-.794-.367 1.144 1.144 0 0 0-.818 1.145v.013c0 .571.336.89.818.786a1.192 1.192 0 0 0 .826-.723q.605.222 1.212.462a2.922 2.922 0 0 1-2.076 1.587 1.704 1.704 0 0 1-2.257-1.72z"/><path class="cls-1" d="M42.27 116.03a1.693 1.693 0 0 1-1.77-1.83v-.014a3.075 3.075 0 0 1 2.352-2.908 1.782 1.782 0 0 1 2.042.781l.024.04-.037.027c-.403.303-.81.617-1.21.93l-.047.037-.029-.05a.618.618 0 0 0-.74-.344 1.098 1.098 0 0 0-.777 1.096v.013a.797.797 0 0 0 .246.64.586.586 0 0 0 .51.097 1.129 1.129 0 0 0 .791-.697l.02-.04.043.015c.402.148.81.304 1.213.463l.052.02-.026.05a2.99 2.99 0 0 1-2.11 1.613 2.6 2.6 0 0 1-.548.06zm1.126-4.713a2.466 2.466 0 0 0-.522.06 2.97 2.97 0 0 0-2.273 2.81v.012a1.69 1.69 0 0 0 .58 1.374 1.887 1.887 0 0 0 1.616.296 2.852 2.852 0 0 0 2.015-1.511 47.97 47.97 0 0 0-1.117-.425 1.234 1.234 0 0 1-.84.71.684.684 0 0 1-.594-.117.895.895 0 0 1-.284-.719v-.012a1.185 1.185 0 0 1 .857-1.196.703.703 0 0 1 .819.343 83.07 83.07 0 0 1 1.131-.87 1.574 1.574 0 0 0-1.387-.755zm3.234-.574q.733-.093 1.469-.16.935 2.124 1.872 4.29-.807.04-1.612.109l-.235-.57q-.776.072-1.55.171l-.228.62q-.79.105-1.576.24.928-2.37 1.86-4.7zm1.126 2.664-.405-1.024-.405 1.113q.405-.049.81-.09z"/><path class="cls-1" d="m44.69 115.507.033-.083a697.02 697.02 0 0 1 1.86-4.7l.011-.027.03-.004a43.72 43.72 0 0 1 1.47-.161l.036-.003.015.033c.629 1.43 1.259 2.873 1.872 4.29l.03.067-.074.003a43.84 43.84 0 0 0-1.61.11l-.037.003-.235-.569c-.493.046-.99.1-1.481.163l-.228.62-.03.004c-.523.07-1.053.15-1.574.24zm1.976-4.717a681.1 681.1 0 0 0-1.817 4.587c.484-.081.975-.156 1.46-.22l.227-.62.03-.005a43.82 43.82 0 0 1 1.553-.17l.038-.004.234.57a43.731 43.731 0 0 1 1.505-.103c-.6-1.385-1.215-2.794-1.829-4.19a45.44 45.44 0 0 0-1.4.155zm.205 2.765.028-.077.405-1.113.045-.124.05.123.404 1.024.025.062-.066.007c-.27.027-.542.057-.81.089zm.482-1.03-.331.911c.22-.026.442-.05.663-.073l-.332-.838zm2.803-2.052q1.086-.05 2.174-.044a2.15 2.15 0 0 1 1.602.54 1.432 1.432 0 0 1 .407 1.06v.013a1.354 1.354 0 0 1-.877 1.306q.518.763 1.036 1.538-.848-.047-1.697-.06-.42-.634-.84-1.26h-.013q-.153 0-.305.002v1.254q-.744.008-1.488.041zm2.13 2.045c.356.002.572-.15.572-.42v-.013c0-.282-.223-.424-.566-.426q-.324-.001-.649.002v.86q.321-.004.642-.003z"/><path class="cls-1" d="m54.596 114.941-.101-.005a43.498 43.498 0 0 0-1.695-.06h-.027l-.015-.022c-.274-.414-.55-.83-.824-1.237l-.24.001v1.255h-.05c-.493.005-.993.02-1.486.041l-.053.003v-4.492l.048-.002a43.885 43.885 0 0 1 2.177-.044 2.224 2.224 0 0 1 1.638.555 1.476 1.476 0 0 1 .421 1.096v.012a1.398 1.398 0 0 1-.852 1.327c.334.493.672.993 1.003 1.489zm-1.768-.166c.522.009 1.05.027 1.571.054a220.55 220.55 0 0 0-.98-1.453l-.033-.05.055-.024a1.297 1.297 0 0 0 .847-1.26v-.013a1.381 1.381 0 0 0-.393-1.025 2.13 2.13 0 0 0-1.565-.524c-.705-.004-1.42.01-2.123.04v4.29c.46-.02.926-.032 1.386-.037v-1.255h.05l.306-.003h.04l.015.023c.272.406.55.823.824 1.237zm-1.235-2.204v-.96h.05a42.6 42.6 0 0 1 .649-.002c.386.002.616.18.616.477v.012a.424.424 0 0 1-.121.31.698.698 0 0 1-.502.161c-.213 0-.43 0-.641.003zm.1-.86v.758c.197-.002.396-.002.593-.001a.59.59 0 0 0 .43-.133.322.322 0 0 0 .091-.237v-.013c0-.325-.323-.375-.515-.375-.199-.002-.4-.001-.598 0zm3.007-1.205q.852.051 1.7.135c1.762.18 2.635 1.208 2.636 2.5v.013c0 1.305-.893 2.055-2.686 1.873q-.824-.081-1.65-.13zm1.733 3.25c.678.068 1.114-.15 1.114-.784v-.013c0-.633-.436-.967-1.114-1.035l-.247-.024v1.832l.247.023z"/><path class="cls-1" d="M56.866 115.105a5.177 5.177 0 0 1-.52-.028c-.546-.053-1.1-.097-1.648-.13l-.047-.003v-4.492l.053.004a41.95 41.95 0 0 1 1.702.135c1.678.172 2.68 1.125 2.68 2.55v.013a1.836 1.836 0 0 1-.561 1.429 2.4 2.4 0 0 1-1.66.522zm-2.115-.256c.534.033 1.073.076 1.604.128a2.657 2.657 0 0 0 2.102-.469 1.739 1.739 0 0 0 .528-1.354v-.012c0-1.368-.968-2.284-2.59-2.45a43.643 43.643 0 0 0-1.644-.132zm1.907-1.031q-.11 0-.23-.012-.123-.013-.247-.024l-.046-.004v-1.934l.056.006.247.024c.748.075 1.16.46 1.16 1.085v.013a.81.81 0 0 1-.238.63 1.016 1.016 0 0 1-.702.216zm-.422-.132.202.02a1.091 1.091 0 0 0 .853-.178.715.715 0 0 0 .205-.556v-.012c0-.726-.581-.937-1.068-.986l-.192-.018zm2.774 1.026q.394-.404.787-.8a3.258 3.258 0 0 0 1.535.818c.263.057.375.014.375-.105v-.013c0-.125-.137-.227-.606-.421-.982-.41-1.851-.832-1.851-1.76v-.013c0-.832.656-1.382 1.864-1.129a3.616 3.616 0 0 1 1.968 1.067q-.354.403-.708.813a2.77 2.77 0 0 0-1.31-.73c-.22-.046-.32.01-.32.116v.012c0 .12.12.217.582.404 1.12.45 1.862.982 1.862 1.865v.012c0 .924-.749 1.28-1.924 1.027a4.424 4.424 0 0 1-2.253-1.163z"/><path class="cls-1" d="M61.944 116.006a3.299 3.299 0 0 1-.691-.081 4.437 4.437 0 0 1-2.279-1.178l-.034-.035.034-.035c.261-.268.526-.538.787-.802l.035-.034.036.033a3.203 3.203 0 0 0 1.511.806c.2.043.269.018.292 0a.063.063 0 0 0 .021-.055v-.013c0-.1-.155-.201-.574-.374-1.03-.43-1.883-.862-1.883-1.808v-.012a1.174 1.174 0 0 1 .416-.95 1.77 1.77 0 0 1 1.509-.228 3.651 3.651 0 0 1 1.995 1.081l.031.033-.03.035q-.353.403-.708.813l-.035.04-.038-.037a2.745 2.745 0 0 0-1.286-.716.316.316 0 0 0-.235.01.064.064 0 0 0-.023.056v.013c0 .083.092.171.55.357.936.377 1.893.898 1.893 1.91v.013a1.077 1.077 0 0 1-.374.887 1.437 1.437 0 0 1-.92.27zm-2.863-1.294a4.366 4.366 0 0 0 2.193 1.114 1.825 1.825 0 0 0 1.526-.17.981.981 0 0 0 .337-.807v-.013c0-.757-.547-1.301-1.83-1.817-.47-.19-.614-.296-.614-.451v-.013a.166.166 0 0 1 .06-.133.385.385 0 0 1 .32-.032 2.797 2.797 0 0 1 1.297.706q.322-.372.643-.739a3.56 3.56 0 0 0-1.91-1.018 1.676 1.676 0 0 0-1.425.207 1.077 1.077 0 0 0-.378.872v.012c0 .883.824 1.299 1.82 1.714.488.202.637.311.637.468v.012a.163.163 0 0 1-.059.134c-.069.055-.188.062-.377.021a3.304 3.304 0 0 1-1.523-.798l-.717.73zm5.266-1.066h.619v1.489h-.619zm.763.75v-.006a.84.84 0 0 1 1.674-.005v.005a.84.84 0 0 1-1.674.005zm1.08 0v-.006a.254.254 0 0 0-.245-.264.247.247 0 0 0-.24.259v.005a.254.254 0 0 0 .245.264.247.247 0 0 0 .24-.258z"/><circle class="cls-1" cx="63.839" cy="114.756" r=".346"/><circle class="cls-1" cx="64.615" cy="113.187" r=".346"/><path d="m15.604 4.627 10.673 22.887h-2.47l-3.6-7.53h-9.86l-3.565 7.53H4.231L15.044 4.627zm-.289 4.863-3.922 8.285h7.825zm8.255 35.32a5.335 5.335 0 0 1-7.81.31l-.51-.51-.51.51a5.324 5.324 0 0 1-7.8-.31 5.404 5.404 0 0 1 .37-7.29l.43-.43a27.144 27.144 0 0 0 2.5-1.9 28.006 28.006 0 0 0 5.01-5.61 28.406 28.406 0 0 0 5.02 5.61 25.858 25.858 0 0 0 2.5 1.9c.14.15.28.29.43.43a5.404 5.404 0 0 1 .37 7.29z"/><path d="m15.254 46.915-3.741 3.844h7.481l-3.74-3.844zm72.142 108.458-10.673-22.887h2.47l3.6 7.53h9.86l3.565-7.53h2.552l-10.814 22.887zm.289-4.863 3.922-8.284h-7.825zm-8.255-35.32a5.335 5.335 0 0 1 7.81-.31l.51.51.51-.51a5.324 5.324 0 0 1 7.8.31 5.404 5.404 0 0 1-.37 7.29l-.43.43a27.144 27.144 0 0 0-2.5 1.9 28.006 28.006 0 0 0-5.01 5.61 28.406 28.406 0 0 0-5.02-5.61 25.858 25.858 0 0 0-2.5-1.9c-.14-.15-.28-.29-.43-.43a5.404 5.404 0 0 1-.37-7.29z"/><path d="m87.746 113.085 3.741-3.844h-7.481l3.74 3.844z"/></g></svg>