<svg xmlns="http://www.w3.org/2000/svg" viewBox="0 0 103 160"><defs><style>.cls-1{fill:#fff}.cls-2{fill:#383838}.cls-3{fill:#663f2e}.cls-4{fill:#2f5f84}.cls-5{fill:#ffc614}.cls-11,.cls-6{fill:#cd222b}.cls-7{fill:#1e4262}.cls-8{fill:#f9c19b}.cls-9{fill:#bcbbbb}.cls-10{fill:#999898}.cls-11{stroke:#000;stroke-miterlimit:10;stroke-width:.3px}</style></defs><g id="SPADES"><path class="cls-1" d="M0 0h103v160H0z"/><path d="M23.569 44.81a5.335 5.335 0 0 1-7.81.31l-.51-.51-.51.51a5.324 5.324 0 0 1-7.8-.31 5.404 5.404 0 0 1 .37-7.29l.43-.43a27.144 27.144 0 0 0 2.5-1.9 28.006 28.006 0 0 0 5.01-5.61 28.406 28.406 0 0 0 5.02 5.61 25.858 25.858 0 0 0 2.5 1.9c.14.15.28.29.43.43a5.404 5.404 0 0 1 .37 7.29z"/><path d="m15.253 46.915-3.741 3.844h7.481l-3.74-3.844zM8.548 4.757h2.334v8.588l9.149-8.588h3.073L12.11 15.026l11.85 12.618h-3.047l-10.03-10.66v10.66H8.548zM79.431 115.19a5.335 5.335 0 0 1 7.81-.31l.51.51.51-.51a5.324 5.324 0 0 1 7.8.31 5.404 5.404 0 0 1-.37 7.29l-.43.43a27.144 27.144 0 0 0-2.5 1.9 28.006 28.006 0 0 0-5.01 5.61 28.406 28.406 0 0 0-5.02-5.61 25.858 25.858 0 0 0-2.5-1.9c-.14-.15-.28-.29-.43-.43a5.404 5.404 0 0 1-.37-7.29z"/><path d="m87.747 113.085 3.741-3.844h-7.481l3.74 3.844zm6.705 42.158h-2.334v-8.588l-9.149 8.588h-3.073l10.993-10.269-11.848-12.618h3.047l10.03 10.66v-10.66h2.333zM76.576 77.434a.172.172 0 0 0-.173-.172h-1.09c-.184-7.618-2.769-12.074-4.91-14.473a12.984 12.984 0 0 0-4.548-3.382 95.065 95.065 0 0 1 6.71-7.397.173.173 0 0 0 .013-.231c-1.94-2.415-6.397-4.046-8.824-4.743a14.278 14.278 0 0 0-.365-1.285 11.353 11.353 0 0 1-.414-1.522 13.704 13.704 0 0 1-.168-3.098l.069.054a.184.184 0 0 0 .131.04h.014a.353.353 0 0 0 .12-.087l4.723-8.698a.172.172 0 0 0-.02-.193.168.168 0 0 0-.143-.053c-.015 0-.03 0-.048.002a7.914 7.914 0 0 0-2.19 1.206 19.562 19.562 0 0 0-7.31-4.64 6.849 6.849 0 0 0-.282-.414.176.176 0 0 0-.15-.064h-.006a.45.45 0 0 0-.11.055l-.12.138.02.044a17.942 17.942 0 0 0-5.81-.924q-.373 0-.752.014a16.847 16.847 0 0 0-4.827.82 9.694 9.694 0 0 0-.433-.413.553.553 0 0 0-.148-.04.343.343 0 0 0-.121.094c-.103.213-.19.404-.27.553a15.406 15.406 0 0 0-7.187 5.187 4.468 4.468 0 0 0-3.156-1.294 4.518 4.518 0 0 0-1.567.266.17.17 0 0 0-.098.111.335.335 0 0 0 .024.147l5.768 8.154c-.711.751-1.448 2.392-1.073 5.96l-.046.007a13.145 13.145 0 0 0-1.508.95l-2.108-3.445-5.475-3.25a.162.162 0 0 0-.088-.026.374.374 0 0 0-.093.027.17.17 0 0 0-.08.158l.478 6.63 6.496 10.737a15.19 15.19 0 0 0-4.75 4.084c-2.045 2.645-4.191 7.257-2.85 14.234h-1.234a.172.172 0 0 0-.173.173v5.131a.172.172 0 0 0 .173.172h1.09c.184 7.618 2.769 12.074 4.91 14.473a12.984 12.984 0 0 0 4.549 3.382 95.065 95.065 0 0 1-6.71 7.398.173.173 0 0 0-.014.23c1.94 2.415 6.397 4.047 8.824 4.744.098.443.234.877.365 1.284a11.353 11.353 0 0 1 .414 1.522 13.704 13.704 0 0 1 .168 3.099 2.005 2.005 0 0 1-.069-.054.184.184 0 0 0-.131-.041h-.014a.353.353 0 0 0-.12.088l-4.723 8.697a.172.172 0 0 0 .02.193.168.168 0 0 0 .144.053c.014 0 .03 0 .047-.002a7.914 7.914 0 0 0 2.19-1.206 19.562 19.562 0 0 0 7.31 4.64c.152.238.265.393.282.414a.176.176 0 0 0 .15.064h.006a.45.45 0 0 0 .11-.055l.12-.138-.02-.044a17.942 17.942 0 0 0 5.81.924q.373 0 .752-.014a16.847 16.847 0 0 0 4.827-.82c.253.254.43.41.433.413a.553.553 0 0 0 .148.04.343.343 0 0 0 .121-.094c.103-.213.19-.404.27-.553a15.406 15.406 0 0 0 7.187-5.187 4.468 4.468 0 0 0 3.157 1.294 4.518 4.518 0 0 0 1.567-.266.17.17 0 0 0 .098-.11.335.335 0 0 0-.024-.148l-5.768-8.154c.711-.75 1.449-2.392 1.074-5.96l.046-.007a13.145 13.145 0 0 0 1.507-.949l2.107 3.444 5.475 3.25a.162.162 0 0 0 .088.026.374.374 0 0 0 .093-.027.17.17 0 0 0 .081-.158l-.478-6.63-6.497-10.737a15.19 15.19 0 0 0 4.75-4.084c2.045-2.645 4.192-7.257 2.85-14.234h1.235a.172.172 0 0 0 .172-.173v-.02zm-24.213 36.449a1.018 1.018 0 0 0-.936.644 1.018 1.018 0 0 1 .94-.647.985.985 0 0 1 .713.31.995.995 0 0 0-.717-.307zm-7.805 0a.995.995 0 0 0-.718.308.985.985 0 0 1 .715-.311 1.018 1.018 0 0 1 .939.646 1.018 1.018 0 0 0-.936-.643zm6.079-67.766a1.018 1.018 0 0 0 .936-.644 1.018 1.018 0 0 1-.94.647.985.985 0 0 1-.713-.31.995.995 0 0 0 .717.307zm7.805 0a.995.995 0 0 0 .717-.308.985.985 0 0 1-.714.311 1.018 1.018 0 0 1-.939-.646 1.017 1.017 0 0 0 .936.643z"/><path class="cls-1" d="M44.24 95.824a3.634 3.634 0 0 1 .96.245 6.45 6.45 0 0 0-.696-1.041 53.9 53.9 0 0 0-.264.796z"/><path class="cls-2" d="M54.923 97.088a6.037 6.037 0 0 1-.038 1.412.091.091 0 0 1-.08.079.1.1 0 0 1-.096-.06c-.01-.025-.98-2.55-4.642-3.188a3.134 3.134 0 0 1 .68 1.892.091.091 0 0 1-.075.08.087.087 0 0 1-.098-.05c-.016-.033-1.578-3.18-5.882-2.285a6.416 6.416 0 0 1 .794 1.258l.002.005a3.997 3.997 0 0 1 .417 1.569.09.09 0 0 1-.088.093h-.002a.09.09 0 0 1-.091-.088 3.811 3.811 0 0 0-.395-1.482 3.312 3.312 0 0 0-1.211-.329c-.01 0-.019.006-.029.001l-.007-.006a7.556 7.556 0 0 0-1.95.107 8.223 8.223 0 0 1 1.673 3.453.09.09 0 0 1-.177.037 8.812 8.812 0 0 0-.17-.621.084.084 0 0 1-.043-.008 2.07 2.07 0 0 0-1.3-.403c1.211 1.717.63 5.288.487 6.056a5.958 5.958 0 0 1 1.671-.247 5.736 5.736 0 0 1 2.554.586 3.187 3.187 0 0 1 1.67 1.701c.006.02.004.042.01.062.008-.027.006-.057.015-.084a3.468 3.468 0 0 1 1.813-1.847 6.384 6.384 0 0 1 5.893.172 3.678 3.678 0 0 1 .994.81 6.05 6.05 0 0 1 .65-2.143c.016-.068.813-3.519-2.95-6.532z"/><path class="cls-2" d="M56.137 105.111a6.194 6.194 0 0 0-5.721-.167 3.288 3.288 0 0 0-1.722 1.743 2.343 2.343 0 0 0 .507 2.21 1.698 1.698 0 0 0 1.646.607 8.008 8.008 0 0 0 4.125-2.593l.018-.02a2.549 2.549 0 0 1 .965-.745 2.285 2.285 0 0 1 1.38.078 3.06 3.06 0 0 0-1.198-1.113z"/><path class="cls-3" d="m57.582 90.396-.241.24a10.563 10.563 0 0 1-.805.745l2.32-1.525-.387-.618a3.71 3.71 0 0 1-.887 1.158z"/><path class="cls-4" d="M39.773 97.044a.068.068 0 0 0 0-.082c-.018-.027-.036-.046-.063-.046a9.244 9.244 0 0 1-3.047-1.027c.555-.537 3.702-3.583 4.747-5.82a13.232 13.232 0 0 1 4.71-.746c.02-.009.046-.009.065-.027a.07.07 0 0 0 .027-.064v-.2a3.867 3.867 0 0 1 1.146.1 20.056 20.056 0 0 0-3.301 6.666 8.997 8.997 0 0 0-.519-.018 7.415 7.415 0 0 0-1.61.173.09.09 0 0 0-.063.063.087.087 0 0 0 .018.082 7.042 7.042 0 0 1 1.5 2.628 2.419 2.419 0 0 0-1.155-.363 1.206 1.206 0 0 0-.3.036.09.09 0 0 0-.063.064.087.087 0 0 0 .018.081c1.327 1.665.609 5.675.518 6.13a5.753 5.753 0 0 0-1 .436 2.849 2.849 0 0 0-1.255 1.273.126.126 0 0 0 .018.1.102.102 0 0 0 .1.028c.091-.037.191-.064.282-.091a4.746 4.746 0 0 0-1.055 1.882 8.883 8.883 0 0 0-.373 2.838 9.58 9.58 0 0 0 .173 1.61c-2.446-.755-6.711-2.328-8.612-4.63.137-.136.482-.481.982-.99 2.129-2.193 6.921-7.276 8.112-10.086z"/><path class="cls-5" d="M30.68 108.12c.136-.136.482-.482.982-.991a19.876 19.876 0 0 0 7.457 4.01 9.58 9.58 0 0 0 .173 1.61c-2.447-.755-6.712-2.328-8.612-4.629zm32.89-18.84-.997-1.649-9.785 6.432.998 1.649 2.378-1.563v-.001l2.403-1.579 5.003-3.289z"/><path class="cls-2" d="M46.656 109.319a1.59 1.59 0 0 0 1.205-.588 2.142 2.142 0 0 0 .462-2.022 3.003 3.003 0 0 0-1.578-1.597 5.683 5.683 0 0 0-5.25.154 2.82 2.82 0 0 0-1.088 1.005 2.043 2.043 0 0 1 1.254-.068 2.34 2.34 0 0 1 .888.684l.02.02a7.345 7.345 0 0 0 3.785 2.381 1.6 1.6 0 0 0 .302.03z"/><path class="cls-6" d="M44.575 94.807a18.245 18.245 0 0 1 2.937-5.575.098.098 0 0 0 .018-.072 7.157 7.157 0 0 1 1.782.773c.355.2.71.427 1.055.646a15.02 15.02 0 0 0 2.01 1.136 4.274 4.274 0 0 0 3.447.137l-3.21 2.11a.089.089 0 0 0-.027.118l.554.928.537.882c.018.018.036.036.054.036a.097.097 0 0 0 .073-.009l.864-.564 1.519-1 1.127 1.864.519.855c0 .01-.01.027 0 .036a21.121 21.121 0 0 1 1.564 4.875 4.388 4.388 0 0 0-1.291 1.264c.1-1.064.018-3.929-3.256-6.448a.115.115 0 0 0-.11 0 .1.1 0 0 0-.036.1 3.914 3.914 0 0 1 .028 1.264 6.314 6.314 0 0 0-4.865-3.046.08.08 0 0 0-.091.045.097.097 0 0 0 .009.1 3.797 3.797 0 0 1 .773 1.61 5.122 5.122 0 0 0-4.384-2.246h-.027a7.89 7.89 0 0 0-1.573.18z"/><path class="cls-1" d="M46.175 94.625a25.22 25.22 0 0 1 6.966.382l.537.882c.018.018.036.036.054.036a.097.097 0 0 0 .073-.009l.864-.564a20.886 20.886 0 0 1 2.646.864l.519.855c0 .01-.01.027 0 .036a21.121 21.121 0 0 1 1.564 4.875 4.388 4.388 0 0 0-1.291 1.264c.1-1.064.018-3.929-3.256-6.448a.115.115 0 0 0-.11 0 .1.1 0 0 0-.036.1 3.914 3.914 0 0 1 .028 1.264 6.314 6.314 0 0 0-4.865-3.046.08.08 0 0 0-.091.045.097.097 0 0 0 .009.1 3.797 3.797 0 0 1 .773 1.61 5.122 5.122 0 0 0-4.383-2.246z"/><path class="cls-5" d="M42.888 82.636h-2.31a17.52 17.52 0 0 0 1.602 1.607.093.093 0 0 1 .027.099.09.09 0 0 1-.082.061c-3.966.203-4.6 1.765-4.692 2.111a27.929 27.929 0 0 0 4.7 1.227.09.09 0 0 1 .078.082.092.092 0 0 1-.063.094c-2.384.76-2.396 2.34-2.336 2.836 2.044-1.65 5.577-1.632 6.22-1.613v-.105a.119.119 0 0 1-.067-.022 3.68 3.68 0 0 1-1.071-2.836.088.088 0 0 1 .024-.055 9.002 9.002 0 0 1-2.03-3.486z"/><path class="cls-7" d="M27.942 82.64h12.422a.1.1 0 0 0 .01.045 17.787 17.787 0 0 0 1.518 1.546c-2.546.172-3.7.9-4.22 1.491-.518-.036-5.347-.4-6.156-.819a.055.055 0 0 0-.037-.009.096.096 0 0 0-.082.046.092.092 0 0 0 .037.127c.8.419 5.165.764 6.102.828a1.634 1.634 0 0 0-.3.673.095.095 0 0 0 .063.09 28.954 28.954 0 0 0 4.456 1.2c-2.582 1-2.1 3.066-2.091 3.084a.079.079 0 0 0 .054.072.106.106 0 0 0 .091-.018 5.203 5.203 0 0 1 1.346-.827c-1.218 2.4-4.665 5.629-4.701 5.665a.083.083 0 0 0-.037.073.125.125 0 0 0 .046.073 8.927 8.927 0 0 0 3.1 1.1 13.197 13.197 0 0 1-1.154 1.955c-.255.364-.537.746-.828 1.137-.063.072-.118.154-.182.236a12.216 12.216 0 0 1-4.61-3.383c-2.119-2.373-4.674-6.802-4.847-14.386z"/><path class="cls-2" d="M40.446 119.075a.086.086 0 0 1-.026.056 11.26 11.26 0 0 0 2.056 1.048c-.068-.313-1.594-7.61.454-12.504a.09.09 0 0 1 .084-.055.097.097 0 0 1 .021.004c-.2-.185-.4-.38-.6-.592l-.018-.02a2.192 2.192 0 0 0-.816-.637 1.466 1.466 0 0 0-.766-.019.086.086 0 0 1-.023.048 4.33 4.33 0 0 0-1.145 1.954 9.11 9.11 0 0 0-.183 4.477 13.062 13.062 0 0 0 .378 1.332 11.703 11.703 0 0 1 .423 1.557 14.107 14.107 0 0 1 .161 3.351z"/><path class="cls-8" d="m54.89 89.398 2.152-1.515a1.925 1.925 0 0 0 .384-.324.992.992 0 0 0 .159-.947 8.97 8.97 0 0 1-12.503-.31 3.486 3.486 0 0 0 .974 2.548c.02-.002.044.002.064 0h.003a5.661 5.661 0 0 1 3.282.92c.36.207.716.434 1.06.654a14.587 14.587 0 0 0 1.986 1.122 4.048 4.048 0 0 0 3.32.127 5.782 5.782 0 0 0 1.44-1.167l.243-.24a3.096 3.096 0 0 0 .921-1.276 1.15 1.15 0 0 0-.17-.9.786.786 0 0 0-.537-.38.09.09 0 0 1-.074-.082c-.01.014-.017.032-.028.046a2.055 2.055 0 0 1-.42.357l-2.151 1.515a1.093 1.093 0 0 1-1.015.284.092.092 0 0 1-.05-.119.093.093 0 0 1 .119-.05c.262.109.56-.064.842-.263z"/><path class="cls-4" d="m60.486 101.462-2.042-3.375a21.076 21.076 0 0 1 1.118 3.8 5.028 5.028 0 0 1 .924-.425z"/><path class="cls-8" d="M42.663 120.164a.127.127 0 0 1-.027.082c.282.109.582.209.91.318a25.299 25.299 0 0 0 12.121.355 36.81 36.81 0 0 0 2.474-.528c.19-.527 1.619-4.81.145-8.248a13.456 13.456 0 0 1-1.118-5.775 1.943 1.943 0 0 0-1.155-.045 1.508 1.508 0 0 0-.582.382 3.317 3.317 0 0 0-.31.309l-.018.018a8.053 8.053 0 0 1-4.219 2.647 1.895 1.895 0 0 1-1.819-.664 2.647 2.647 0 0 1-.573-1.11 2.358 2.358 0 0 1-.49.946 1.76 1.76 0 0 1-1.683.618 5.923 5.923 0 0 1-2.12-.927 8.291 8.291 0 0 1-1.1-.864.1.1 0 0 1 0 .073c-2.064 4.919-.454 12.34-.436 12.413zm9.703-6.284a1.056 1.056 0 1 1-1.018 1.055 1.035 1.035 0 0 1 1.018-1.055zm-1.473 2h.018l4.574.619a.09.09 0 0 1 .073.1.079.079 0 0 1-.1.082l-4.574-.619a.091.091 0 0 1 .01-.182zm-4.329-5.501a1.452 1.452 0 0 1 1.164-.591c.2-.019.391-.028.564-.028 2.092 0 2.446 1.437 2.456 1.446a.088.088 0 0 1-.073.11.094.094 0 0 1-.11-.064c-.008-.064-.4-1.546-2.81-1.282a1.255 1.255 0 0 0-1.036.509c-.391.618.045 1.764.491 2.973a15.56 15.56 0 0 1 .618 1.874.086.086 0 0 1-.063.109.092.092 0 0 1-.11-.073 18.19 18.19 0 0 0-.609-1.846c-.472-1.255-.918-2.437-.482-3.137zm-2.01 3.5a1.056 1.056 0 1 1-1.009 1.056 1.037 1.037 0 0 1 1.01-1.055zm-2.328 2.493.746-.1 3.838-.519h.009a.088.088 0 0 1 .09.073.094.094 0 0 1-.081.11l-3.847.508-.727.1a.085.085 0 0 1-.1-.072.081.081 0 0 1 .073-.1z"/><path class="cls-9" d="m56.333 94.252 2.328-1.528 2.547-1.673.427.709 1.237 2.037 4.183 6.912 1.519 2.519 4.128 6.82.964 1.592.164.272.436 6.357-3.292-1.964-1.409-.837-.6-.355-3.711-6.129-1.527-2.519-4.184-6.911-1.227-2.028-1.983-3.274z"/><path class="cls-1" d="m69.565 115.468 3.137-5.42.964 1.592-2.692 4.665-1.409-.837zm-5.838-9.003 3.328-5.756 1.519 2.519-3.32 5.756-1.527-2.519zm-5.411-8.939 3.319-5.766 1.237 2.037-3.329 5.757-1.227-2.028z"/><path class="cls-10" d="m56.333 94.252 2.328-1.528 15.605 25.545-5.301-3.156-12.632-20.861z"/><path class="cls-9" d="m61.143 96.787-1.236-2.024-1.591 2.763 1.038 1.714.189.314 1.6-2.767zm4.202 6.879-1.618 2.798.967 1.597.56.923 1.622-2.812-1.531-2.506zm5.675 9.289-1.455 2.513 1.409.837 1.017-1.761-.971-1.589z"/><path class="cls-1" d="M51.498 88.817a8.828 8.828 0 1 0-8.827-8.828 8.839 8.839 0 0 0 8.827 8.828zm2.129-14.854-2.128 2.187-2.129-2.187zm-6.86 3.386a3.032 3.032 0 0 1 4.441-.179l.29.29.29-.29a3.032 3.032 0 0 1 4.442.18 3.07 3.07 0 0 1-.213 4.145l-.243.243-4.275 4.276-4.277-4.276-.243-.243a3.069 3.069 0 0 1-.212-4.146z"/><path class="cls-7" d="M57.752 86.55a.145.145 0 0 0-.036-.064 8.927 8.927 0 0 0 2.391-3.847h4.547v.019a11.3 11.3 0 0 1 0 3.901.084.084 0 0 0 .073.1.092.092 0 0 0 .11-.073 11.523 11.523 0 0 0 0-3.947h10.048c1.382 6.957-.746 11.54-2.765 14.169a14.73 14.73 0 0 1-4.765 4.056l-.61-1.01-.709-1.164-4.674-7.739 2.383-1.564a.098.098 0 0 0 .027-.128l-1.091-1.8a.121.121 0 0 0-.055-.046H62.6a.082.082 0 0 0-.045.01l-3.547 2.337-.427-.691c-.01-.01-.019-.01-.037-.018l.01-.01a1.351 1.351 0 0 0-.192-1.054.963.963 0 0 0-.673-.455c-.009 0-.027.01-.036.01a1.186 1.186 0 0 0 .1-.992z"/><path class="cls-5" d="M71.711 82.64h1.364c.7 11.003-3.892 15.577-6.33 17.214l-.709-1.164c2.156-1.473 6.357-5.702 5.675-16.05zm-43.305 0h1.382c1.11 11.621 6.384 15.331 8.621 16.395-.254.364-.536.746-.827 1.137-2.701-1.328-8.067-5.447-9.176-17.533zm7.082 44.826 1.873-3.446.837-1.546 1.837-3.393a13.475 13.475 0 0 0 5.556 2.201 29.57 29.57 0 0 0 12.595-.718.173.173 0 0 0 .073-.018 49.91 49.91 0 0 0 5.502-1.728l2.537 3.592.955 1.346 2.3 3.255a4.294 4.294 0 0 1-4.72-1.427.12.12 0 0 0-.108-.028 1.963 1.963 0 0 1-1.883-.118 1.259 1.259 0 0 1-.491-1.446.12.12 0 0 0-.027-.109.083.083 0 0 0-.11 0 5.796 5.796 0 0 1-1.9.828.092.092 0 0 0-.082.054.083.083 0 0 0 .018.1 1.43 1.43 0 0 1 .064 2.028c-.928 1.037-1.528.664-1.555.646a.098.098 0 0 0-.1 0 .108.108 0 0 0-.036.1c0 .009.19 1.136-1.219 4.065a11.61 11.61 0 0 1-2.437-3.147.077.077 0 0 0-.1-.045c-.01 0-1.628.218-2.283-.864a1.393 1.393 0 0 1-.282-1.064.477.477 0 0 1 .2-.282.096.096 0 0 0 .037-.118.09.09 0 0 0-.118-.046 4.065 4.065 0 0 1-2.747.091.083.083 0 0 0-.1.018.097.097 0 0 0-.018.11 2.344 2.344 0 0 1 .255 1.582 1.109 1.109 0 0 1-.628.655c-1.3.6-1.964.1-1.991.072a.098.098 0 0 0-.1 0 .08.08 0 0 0-.046.073c0 .01-.036.691-1.773 2.665a6.397 6.397 0 0 1-1.237-3.538c.01-.027 0-.045-.018-.073-.018-.009-.055-.036-.073-.027a1.607 1.607 0 0 1-1.546-1.146 1.33 1.33 0 0 1 .5-1.11.092.092 0 0 0 .028-.09.077.077 0 0 0-.073-.064 3.793 3.793 0 0 1-1.946-.882.101.101 0 0 0-.1-.036.087.087 0 0 0-.064.082 1.61 1.61 0 0 1-.627 1.155 2.04 2.04 0 0 1-1.846-.073.12.12 0 0 0-.11.027 6.477 6.477 0 0 1-2.673 1.837z"/><path class="cls-4" d="m64.209 107.62 1.655 2.737.764 1.255a13.24 13.24 0 0 1-1.555.991c-.019.01-.028.028-.037.037a22.343 22.343 0 0 0-.245-1.664c-.064-.355-.146-.728-.228-1.119q-.218-1.037-.354-2.237z"/><path class="cls-5" d="M64.79 110.976a14.7 14.7 0 0 0 1.074-.619l.764 1.255a13.24 13.24 0 0 1-1.555.991c-.019.01-.028.028-.037.037a22.239 22.239 0 0 0-.245-1.664z"/><path class="cls-6" d="M62.729 125.581a1.46 1.46 0 0 1-.603-1.433 6.069 6.069 0 0 1-1.63.724 1.579 1.579 0 0 1-.045 2.145c-.775.859-1.372.824-1.638.744a8.425 8.425 0 0 1-.924 3.318 15.09 15.09 0 0 0 7.016-5.15c-.056-.06-.113-.112-.168-.176a2.102 2.102 0 0 1-2.008-.172z"/><path class="cls-2" d="M63.985 107.284c-.001-.01.006-.017.008-.027l-3.411-5.637a4.31 4.31 0 0 0-2.535 2.044v.004c-.003.006-.009.009-.012.014a5.977 5.977 0 0 0-.66 2.266 2.138 2.138 0 0 1 .217.391.091.091 0 0 1-.112.122l-.135-.04a13.443 13.443 0 0 0 1.105 5.654c1.425 3.318.195 7.39-.096 8.257a50.492 50.492 0 0 0 5.408-1.706.1.1 0 0 1 .032-.006.092.092 0 0 1 .06.031c.651-.67 1.844-2.78.535-8.754a22.833 22.833 0 0 1-.404-2.613z"/><path class="cls-6" d="M42.226 126.666a1.412 1.412 0 0 1 .43-1.164 3.987 3.987 0 0 1-1.758-.766 1.654 1.654 0 0 1-.68 1.088 2.137 2.137 0 0 1-1.95-.028 4.926 4.926 0 0 1-.58.575 19.63 19.63 0 0 0 7.084 4.583 5.813 5.813 0 0 1-.918-3.006 1.818 1.818 0 0 1-1.628-1.281zm10.2 1.074a1.588 1.588 0 0 1-.3-1.218.727.727 0 0 1 .04-.103 4.095 4.095 0 0 1-2.347.06 2.282 2.282 0 0 1 .162 1.512 1.278 1.278 0 0 1-.721.769 2.296 2.296 0 0 1-2.06.13 7.185 7.185 0 0 1-1.556 2.358 18.314 18.314 0 0 0 6.406.879 18.517 18.517 0 0 0 4.745-.763 11.446 11.446 0 0 1-1.962-2.668 2.519 2.519 0 0 1-2.407-.957z"/><path class="cls-8" d="M55.494 116.418a.334.334 0 0 1 .114.066.168.168 0 0 1 .033.129.163.163 0 0 1-.165.149l-4.605-.618a.33.33 0 0 1-.113-.066.167.167 0 0 1-.034-.129.171.171 0 0 1 .17-.148l4.6.617z"/><path class="cls-8" d="m50.882 116.063 4.576.615a.084.084 0 0 0 .102-.077.09.09 0 0 0-.077-.102l-4.576-.616h-.013a.09.09 0 0 0-.012.18zm-4.062-.394a.173.173 0 0 1 .17.15.368.368 0 0 1-.034.127.164.164 0 0 1-.115.065l-4.58.617a.17.17 0 0 1-.189-.148.357.357 0 0 1 .034-.128.164.164 0 0 1 .114-.065z"/><path class="cls-8" d="M46.909 115.828a.09.09 0 0 0-.09-.078l-.013.001-4.576.616a.09.09 0 0 0-.077.103.085.085 0 0 0 .102.077l4.576-.616a.09.09 0 0 0 .078-.103z"/><circle class="cls-11" cx="56.449" cy="126.647" r=".887"/><circle class="cls-11" cx="45.785" cy="126.647" r=".887"/><path class="cls-11" d="M65.634 123.265a.879.879 0 0 1 .664-.855l.955 1.346a.876.876 0 0 1-.737.39.889.889 0 0 1-.882-.881zm-28.273.755.837-1.546a.882.882 0 0 1-.391 1.673.824.824 0 0 1-.446-.127z"/><path d="M52.363 115.994a1.056 1.056 0 1 0-1.017-1.055 1.037 1.037 0 0 0 1.017 1.055zm-7.805 0a1.056 1.056 0 1 0-1.017-1.055 1.037 1.037 0 0 0 1.017 1.055zm7.231-38.824-.29.29-.29-.29a3.032 3.032 0 0 0-4.441.179 3.07 3.07 0 0 0 .212 4.146l.243.243 4.276 4.276 4.277-4.276.242-.243a3.07 3.07 0 0 0 .213-4.146 3.032 3.032 0 0 0-4.442-.179z"/><path d="M51.44 76.207a.082.082 0 0 0 .117 0l2.129-2.187a.082.082 0 0 0-.059-.139H49.37a.082.082 0 0 0-.058.139zm-3.866 39.18a.181.181 0 0 0 .194.127h.015a.175.175 0 0 0 .127-.21 16.764 16.764 0 0 0-.621-1.88c-.445-1.191-.866-2.316-.502-2.907a1.212 1.212 0 0 1 .973-.467 4.886 4.886 0 0 1 .54-.031c1.867 0 2.176 1.199 2.188 1.25a.182.182 0 0 0 .196.13h.011a.175.175 0 0 0 .13-.208c-.003-.015-.362-1.517-2.535-1.517a5.416 5.416 0 0 0-.567.032 1.522 1.522 0 0 0-1.23.631c-.453.734-.003 1.937.474 3.211a16.51 16.51 0 0 1 .607 1.84z"/><path d="M26.597 82.718h1.088c.18 7.63 2.769 12.092 4.912 14.493a12.984 12.984 0 0 0 4.548 3.382 95.033 95.033 0 0 1-6.71 7.397.173.173 0 0 0-.013.231c1.94 2.415 6.397 4.046 8.824 4.743.098.444.234.878.365 1.285a11.351 11.351 0 0 1 .414 1.522 13.704 13.704 0 0 1 .168 3.098 1.94 1.94 0 0 1-.069-.054.184.184 0 0 0-.131-.04h-.014a.353.353 0 0 0-.12.087l-4.723 8.698a.172.172 0 0 0 .02.193.168.168 0 0 0 .144.053c.014 0 .03 0 .047-.002a7.914 7.914 0 0 0 2.19-1.206 19.562 19.562 0 0 0 7.31 4.64c.152.238.265.393.282.414a.175.175 0 0 0 .15.064h.006a.45.45 0 0 0 .11-.055l.12-.138-.02-.044a17.942 17.942 0 0 0 5.81.924q.373 0 .752-.014a16.847 16.847 0 0 0 4.827-.82c.253.254.43.41.433.413a.553.553 0 0 0 .148.04.344.344 0 0 0 .121-.094c.103-.213.19-.404.27-.553a15.407 15.407 0 0 0 7.187-5.187 4.468 4.468 0 0 0 3.156 1.293 4.52 4.52 0 0 0 1.567-.265.17.17 0 0 0 .098-.111.335.335 0 0 0-.024-.147l-5.768-8.154c.711-.751 1.448-2.392 1.073-5.96l.047-.007a13.133 13.133 0 0 0 1.507-.95l2.107 3.444 5.475 3.25a.162.162 0 0 0 .088.026.374.374 0 0 0 .093-.027.17.17 0 0 0 .08-.158l-.478-6.63-6.496-10.737a15.19 15.19 0 0 0 4.75-4.084c2.047-2.647 4.196-7.265 2.846-14.254h1.238a.172.172 0 0 0 .172-.173v-5.11a.172.172 0 0 0-.172-.172H60.17a9.165 9.165 0 0 0-8.672-6.365 9.047 9.047 0 0 0-8.671 6.365h-16.23a.172.172 0 0 0-.172.172v5.111a.172.172 0 0 0 .172.172zm42.434 32.356L56.448 94.278l4.733-3.11 12.565 20.75.43 6.2zm-10.99 15.86a8.767 8.767 0 0 0 .854-3.07 1.015 1.015 0 0 0 .19.017 1.986 1.986 0 0 0 1.426-.809 1.626 1.626 0 0 0 .125-2.147 6.229 6.229 0 0 0 1.392-.625 1.535 1.535 0 0 0 .651 1.346 1.839 1.839 0 0 0 1.14.37 2.645 2.645 0 0 0 .895-.166l.085.089a15.147 15.147 0 0 1-6.758 4.996zm6.648-5.448a2.327 2.327 0 0 1-.871.18 1.494 1.494 0 0 1-.93-.296 1.18 1.18 0 0 1-.462-1.351.173.173 0 0 0-.16-.236.395.395 0 0 0-.094.027 5.892 5.892 0 0 1-1.86.818.172.172 0 0 0-.117.296 1.352 1.352 0 0 1 .06 1.915 1.67 1.67 0 0 1-1.172.697.555.555 0 0 1-.276-.062.17.17 0 0 0-.096-.03.396.396 0 0 0-.094.029.176.176 0 0 0-.078.176c.003.011.172 1.11-1.163 3.92a11.544 11.544 0 0 1-2.337-3.047.175.175 0 0 0-.174-.095l-.015.001a3.379 3.379 0 0 1-.34.017 2.113 2.113 0 0 1-1.858-.842 1.323 1.323 0 0 1-.274-1.001.363.363 0 0 1 .156-.223.173.173 0 0 0 .083-.224.169.169 0 0 0-.177-.093l-.049.001a4.773 4.773 0 0 1-1.592.299 3.003 3.003 0 0 1-1.16-.224.35.35 0 0 0-.126.056.17.17 0 0 0-.025.2 2.294 2.294 0 0 1 .242 1.515 1.025 1.025 0 0 1-.582.61 2.785 2.785 0 0 1-1.151.286 1.273 1.273 0 0 1-.757-.198.133.133 0 0 0-.092-.027.666.666 0 0 0-.09.008.173.173 0 0 0-.098.152c0 .007-.056.674-1.68 2.527a6.076 6.076 0 0 1-1.159-3.394.346.346 0 0 0-.048-.133.198.198 0 0 0-.144-.05h-.011a1.53 1.53 0 0 1-1.437-1.085 1.243 1.243 0 0 1 .477-1.036.172.172 0 0 0-.092-.295c-.059-.01-1.459-.257-1.893-.85a.173.173 0 0 0-.154-.064l-.033.002a.172.172 0 0 0-.124.154 1.502 1.502 0 0 1-.587 1.086 1.24 1.24 0 0 1-.675.178 3.39 3.39 0 0 1-1.162-.265.355.355 0 0 0-.139.067 6.402 6.402 0 0 1-2.431 1.722l4.397-8.098a13.675 13.675 0 0 0 5.513 2.158 23.033 23.033 0 0 0 4.273.377 34.488 34.488 0 0 0 8.317-1.101l.112-.02c.72-.18 1.454-.394 2.188-.615.692-.208 1.387-.44 2.084-.682l.005.005.01-.01c.388-.135.774-.254 1.163-.4l5.693 8.049a4.493 4.493 0 0 1-1.233.173 4.185 4.185 0 0 1-3.295-1.61.158.158 0 0 0-.134-.05.589.589 0 0 0-.072.006zm-13.3 6.568a17.932 17.932 0 0 1-5.605-.847 7.664 7.664 0 0 0 1.465-2.203 1.873 1.873 0 0 0 .75.146 3.118 3.118 0 0 0 1.294-.316 1.36 1.36 0 0 0 .765-.818 2.223 2.223 0 0 0-.101-1.41 3.313 3.313 0 0 0 .849.104 4.857 4.857 0 0 0 1.23-.17 1.712 1.712 0 0 0 .32 1.241 2.405 2.405 0 0 0 2.123 1.015c.126 0 .23-.007.305-.014a11.37 11.37 0 0 0 1.859 2.541 18.456 18.456 0 0 1-4.596.721c-.221.007-.441.01-.659.01zm-13.584-5.676a5.147 5.147 0 0 0 .487-.485 3.19 3.19 0 0 0 1.109.232 1.576 1.576 0 0 0 .86-.232 1.679 1.679 0 0 0 .686-1.005 4.188 4.188 0 0 0 1.559.665 1.443 1.443 0 0 0-.358 1.14 1.898 1.898 0 0 0 1.622 1.33 5.736 5.736 0 0 0 .817 2.773 19.475 19.475 0 0 1-6.782-4.418zm5.344-18.542a6.848 6.848 0 0 0 3.153 1.71 1.713 1.713 0 0 0 .347.035 1.875 1.875 0 0 0 1.41-.677 2.394 2.394 0 0 0 .43-.724 2.682 2.682 0 0 0 .514.89 2.02 2.02 0 0 0 1.521.73 1.855 1.855 0 0 0 .375-.039 8.284 8.284 0 0 0 4.284-2.69 2.34 2.34 0 0 1 .86-.676 1.198 1.198 0 0 1 .405-.064 2.437 2.437 0 0 1 .63.097 13.762 13.762 0 0 0 1.13 5.75c1.465 3.415.026 7.703-.085 8.13a34.284 34.284 0 0 1-8.176 1.076 20.33 20.33 0 0 1-7.212-1.191.13.13 0 0 0 .004-.045c-.017-.073-1.594-7.433.41-12.312zm2.742-18.78-.154-.002c-1.162 0-4.02.153-5.856 1.54-.024-.58.167-1.922 2.293-2.6a.172.172 0 0 0-.03-.334 28.195 28.195 0 0 1-4.61-1.196c.15-.424.913-1.79 4.594-1.979a.173.173 0 0 0 .157-.118.177.177 0 0 0-.053-.186 17.506 17.506 0 0 1-1.474-1.463h2.07a9.159 9.159 0 0 0 1.994 3.422.142.142 0 0 0-.01.034 3.775 3.775 0 0 0 1.079 2.883zm14.52 22.966a12.86 12.86 0 0 1 .883 4.156 6.981 6.981 0 0 1-.961 3.506c-.622.186-1.246.376-1.855.532.34-1.064 1.418-4.978.047-8.172a13.464 13.464 0 0 1-1.102-5.546l.057-.037.027.085a.362.362 0 0 0 .13-.056.173.173 0 0 0 .03-.182 1.158 1.158 0 0 0-.21-.351 5.907 5.907 0 0 1 .662-2.253 4.222 4.222 0 0 1 2.426-1.985l1.204 2a5.096 5.096 0 0 0-2.084 3.058 9.928 9.928 0 0 0 .746 5.245zm-3.078-21.263.306-.304a4.17 4.17 0 0 0 .841-1.046l.264.422zm-9.758-1.473a.12.12 0 0 0 .011-.022 7.53 7.53 0 0 1 1.688.736c.355.203.708.428 1.05.646a14.867 14.867 0 0 0 2.022 1.144 5.299 5.299 0 0 0 2.04.456 3.55 3.55 0 0 0 .83-.094l-2.646 1.74a.174.174 0 0 0-.054.233l.358.591a26.287 26.287 0 0 0-4.138-.32 24.799 24.799 0 0 0-2.81.152c-.008 0-.012.008-.019.01a7.698 7.698 0 0 0-1.202.143 17.771 17.771 0 0 1 2.87-5.415zm-1.714 15.216c.535-1.42.4-4.649.11-6.645a.23.23 0 0 0 .016-.06 4.074 4.074 0 0 0-.427-1.606 6.546 6.546 0 0 0-.72-1.168 7.121 7.121 0 0 1 1.333-.132 4.832 4.832 0 0 1 4.328 2.398.168.168 0 0 0 .036.04 14.339 14.339 0 0 1 .607 5.328 4.77 4.77 0 0 1-.4 1.823l.04.02c-.164.065-.33.13-.487.208a3.619 3.619 0 0 0-1.786 1.755 3.373 3.373 0 0 0-1.648-1.587 5.514 5.514 0 0 0-1.002-.374zm2.91 2.211a3.212 3.212 0 0 1 1.68-1.696 6.11 6.11 0 0 1 5.644.165 3.224 3.224 0 0 1 1.058.907 2.805 2.805 0 0 0-.7-.102 1.603 1.603 0 0 0-.524.082 2.666 2.666 0 0 0-1.017.786 7.933 7.933 0 0 1-4.081 2.57 1.594 1.594 0 0 1-1.57-.582 2.257 2.257 0 0 1-.49-2.13zm7.497-1.83a6.334 6.334 0 0 0-3.158-.821 6.444 6.444 0 0 0-2.04.333 5.393 5.393 0 0 0 .345-1.721 14.593 14.593 0 0 0-.61-5.392.167.167 0 0 0 .023-.05 2.975 2.975 0 0 0-.583-1.784 5.764 5.764 0 0 1 4.386 3.102.163.163 0 0 0 .078.083 11.976 11.976 0 0 1-.15 5.555l.263.077a12.277 12.277 0 0 0 .142-5.755 6.764 6.764 0 0 0 .056-1.236c3.517 2.923 2.803 6.188 2.778 6.307a6.02 6.02 0 0 0-.635 1.995 3.901 3.901 0 0 0-.895-.694zm-10.626-7.076a.162.162 0 0 0 .04.09c.28 1.959.42 5.192-.103 6.528a6.024 6.024 0 0 0-1.214-.139 11.473 11.473 0 0 0-.486-4.689.24.24 0 0 0 .006-.065 8.357 8.357 0 0 0-1.594-3.382 7.925 7.925 0 0 1 1.246-.103l.285.001c.073 0 .141 0 .199-.006a.485.485 0 0 0 .089.034 3.659 3.659 0 0 1 1.145.281 3.722 3.722 0 0 1 .387 1.45zm-2.095 1.795a.156.156 0 0 0 .058.092 11.16 11.16 0 0 1 .468 4.6 6.044 6.044 0 0 0-1.367.2c.161-.923.626-4.161-.441-5.863a2.391 2.391 0 0 1 1.119.375c.1.328.154.56.163.596zm3.162 5.583a2.926 2.926 0 0 1 1.537 1.55 2.058 2.058 0 0 1-.447 1.942 1.507 1.507 0 0 1-1.143.56 1.581 1.581 0 0 1-.286-.029 7.313 7.313 0 0 1-3.765-2.381 2.39 2.39 0 0 0-.917-.701 1.439 1.439 0 0 0-.482-.077 2.581 2.581 0 0 0-.614.086 2.997 2.997 0 0 1 .945-.799 5.601 5.601 0 0 1 5.172-.152zm11.501-2.222c.052-1.27-.273-3.899-3.31-6.227a.168.168 0 0 0-.105-.036.35.35 0 0 0-.098.029.175.175 0 0 0-.07.19 3.445 3.445 0 0 1 .047.972 6.53 6.53 0 0 0-4.82-2.859.333.333 0 0 0-.147.09.17.17 0 0 0 .017.193 4.254 4.254 0 0 1 .664 1.186 5.148 5.148 0 0 0-2.604-1.735c.315-.012.628-.026.954-.026a25.23 25.23 0 0 1 4.37.363l.501.827a.195.195 0 0 0 .15.084.347.347 0 0 0 .093-.03l.803-.527a20.598 20.598 0 0 1 2.628.889l.474.792a21.039 21.039 0 0 1 1.55 4.807 4.428 4.428 0 0 0-1.097 1.018zm-3.172-7.758 1.12-.737.83 1.386a21.9 21.9 0 0 0-1.95-.649zm-10.69.55.186-.56a6.577 6.577 0 0 1 .485.719 3.867 3.867 0 0 0-.67-.159zm15.273 6.005a20.824 20.824 0 0 0-.79-2.877l1.533 2.536a4.987 4.987 0 0 0-.743.341zm-5.81-6.163-.912-1.51 9.648-6.34.912 1.509zm3.73-8.836a.906.906 0 0 1-.178.746 1.904 1.904 0 0 1-.377.316l-2.142 1.508a1.25 1.25 0 0 1-.623.282.749.749 0 0 1-.206-.04.172.172 0 0 0-.161.108.174.174 0 0 0 .095.225.718.718 0 0 0 .272.053 1.518 1.518 0 0 0 .822-.345l2.15-1.515a2.124 2.124 0 0 0 .395-.334.162.162 0 0 0 .07.027.708.708 0 0 1 .48.344 1.064 1.064 0 0 1 .159.832 3.032 3.032 0 0 1-.9 1.24l-.242.241a5.746 5.746 0 0 1-1.42 1.152 2.986 2.986 0 0 1-1.346.301 4.918 4.918 0 0 1-1.905-.43 14.4 14.4 0 0 1-1.974-1.117c-.346-.22-.703-.448-1.064-.655a6.072 6.072 0 0 0-2.994-.946 1.274 1.274 0 0 0-.34.036 3.321 3.321 0 0 1-.945-2.288 9.05 9.05 0 0 0 12.375.259zm6.231 31.787a.285.285 0 0 0-.038.002c-.235.088-.468.159-.703.244a4.4 4.4 0 0 0 .603-2.388 11.84 11.84 0 0 0-.405-2.809l-.134-.597a26.278 26.278 0 0 1-.483-3.205 6.11 6.11 0 0 1 .57-3.7l.721 1.198a23.055 23.055 0 0 0 .407 2.622c1.287 5.877.13 7.98-.476 8.638a.299.299 0 0 0-.062-.005zm-1.432-8.73a26.434 26.434 0 0 0 .489 3.239c.043.2.089.4.134.6a11.553 11.553 0 0 1 .398 2.744 3.583 3.583 0 0 1-.847 2.572c-.608.212-1.214.421-1.816.607a7.297 7.297 0 0 0 .87-3.397 13.057 13.057 0 0 0-.897-4.246c-.576-1.75-1.12-3.402-.739-5.1a4.821 4.821 0 0 1 1.96-2.884l1.135 1.884a6.17 6.17 0 0 0-.687 3.98zm-22.018-27.1-.009.017a17.482 17.482 0 0 0 1.386 1.431c-2.413.19-3.54.896-4.063 1.475-.706-.053-5.32-.411-6.157-.827a.172.172 0 0 0-.165.225.364.364 0 0 0 .085.1c.781.408 4.856.743 5.989.829a1.515 1.515 0 0 0-.232.587.173.173 0 0 0 .113.18 28.446 28.446 0 0 0 4.206 1.155 2.79 2.79 0 0 0-1.894 3.075c.015.057.058.105.17.132a.355.355 0 0 0 .111-.043 5.046 5.046 0 0 1 1.104-.711 29.167 29.167 0 0 1-4.571 5.429.174.174 0 0 0-.055.143.349.349 0 0 0 .078.128 8.797 8.797 0 0 0 3.026 1.097 18.297 18.297 0 0 1-2.075 3.17 12.486 12.486 0 0 1-4.522-3.337c-2.1-2.357-4.636-6.74-4.817-14.255zm-.47 14.356a.171.171 0 0 0-.009-.156.363.363 0 0 0-.125-.084 9.273 9.273 0 0 1-2.925-.964c.762-.73 3.682-3.615 4.645-5.729a12.832 12.832 0 0 1 4.393-.739l.212.001a.956.956 0 0 0 .115-.004l.083-.04a.348.348 0 0 0 .053-.125v-.123c.053-.003.107-.004.16-.004a3.926 3.926 0 0 1 .76.078 20.282 20.282 0 0 0-3.215 6.528 6.229 6.229 0 0 0-.458-.018 7.944 7.944 0 0 0-1.629.176.172.172 0 0 0-.125.118.174.174 0 0 0 .042.171 6.72 6.72 0 0 1 1.404 2.395 2.258 2.258 0 0 0-1.004-.27 1.284 1.284 0 0 0-.33.04.175.175 0 0 0-.112.113.352.352 0 0 0 .03.16c1.31 1.635.592 5.613.561 6a5.444 5.444 0 0 0-1.014.44 2.864 2.864 0 0 0-1.29 1.315.17.17 0 0 0 .03.183.167.167 0 0 0 .14.051.438.438 0 0 0 .05-.005 4.96 4.96 0 0 0-.88 1.7 9.351 9.351 0 0 0-.231 4.346c-2.39-.744-6.51-2.283-8.394-4.503.997-.989 7.617-7.64 9.063-11.05zm-.107 11.308a4.252 4.252 0 0 1 1.121-1.916.16.16 0 0 0 .024-.037 1.907 1.907 0 0 1 .329-.032 1.068 1.068 0 0 1 .355.056 2.2 2.2 0 0 1 .802.635c.169.18.338.347.509.507a.171.171 0 0 0-.03.048c-1.927 4.606-.712 11.289-.49 12.403a12.74 12.74 0 0 1-1.085-.506 15.944 15.944 0 0 0 .205-3.384 14.534 14.534 0 0 0-.303-1.77c-.04-.189-.08-.378-.118-.567a11.264 11.264 0 0 1-.23-3.614 5.864 5.864 0 0 1 1.4-3.252l-.2-.184a6.126 6.126 0 0 0-1.47 3.402 11.532 11.532 0 0 0 .232 3.701c.038.191.08.381.12.57a14.456 14.456 0 0 1 .298 1.736 15.28 15.28 0 0 1-.19 3.22 9.691 9.691 0 0 1-.501-.298.053.053 0 0 0 .005-.02 14.196 14.196 0 0 0-.162-3.37 11.691 11.691 0 0 0-.426-1.567 12.89 12.89 0 0 1-.375-1.324 9.031 9.031 0 0 1 .18-4.437zm24.902 1.458a20.61 20.61 0 0 1-.31-1.856l2.183 3.609c-.446.325-.907.62-1.413.92a28.226 28.226 0 0 0-.46-2.673zM61.47 90.977l2.318-1.525a.174.174 0 0 0 .054-.234l-1.093-1.805a.188.188 0 0 0-.147-.082.352.352 0 0 0-.095.028l-3.476 2.285-.398-.592a1.412 1.412 0 0 0-.207-1.107.985.985 0 0 0-.654-.458 1.256 1.256 0 0 0 .06-.968l-.009-.016a9.12 9.12 0 0 0 2.347-3.785h4.414a11.04 11.04 0 0 1-.012 3.823.177.177 0 0 0 .147.203h.018a.176.176 0 0 0 .177-.143 11.628 11.628 0 0 0 .021-3.883h9.88c1.35 6.89-.755 11.434-2.763 14.036a14.94 14.94 0 0 1-4.66 4.006zm-9.972-2.242a8.747 8.747 0 1 1 8.747-8.746 8.756 8.756 0 0 1-8.747 8.746z"/><path d="M49.731 115.9a.22.22 0 0 0-.194.118.215.215 0 0 0-.014.167.218.218 0 0 0 .107.127 5.021 5.021 0 0 0 2.333.579 5.825 5.825 0 0 0 3.195-1.017.22.22 0 0 0 .042-.306.216.216 0 0 0-.174-.087.223.223 0 0 0-.133.046 5.261 5.261 0 0 1-2.925.927 4.602 4.602 0 0 1-2.138-.53 1.45 1.45 0 0 0-.099-.023zm-3.023.411a.219.219 0 0 0-.116-.404.226.226 0 0 0-.117.033 2.907 2.907 0 0 1-1.558.47 3.396 3.396 0 0 1-2.108-.82.218.218 0 0 0-.148-.058.219.219 0 0 0-.146.381 3.935 3.935 0 0 0 2.421.926 3.317 3.317 0 0 0 1.772-.528z"/><path class="cls-1" d="M42.63 81.76c-.01-.08-.03-.16-.04-.25H28.21v-3.04h14.38c.01-.09.03-.17.04-.25H27.96v3.54zm17.77-.25c-.01.09-.03.17-.04.25h14.67v-3.54H60.36c.01.08.03.16.04.25h14.38v3.04zm-1.64-17.334a3.634 3.634 0 0 1-.96-.245 6.454 6.454 0 0 0 .696 1.041 53.9 53.9 0 0 0 .264-.796z"/><path class="cls-2" d="M48.077 62.912a6.037 6.037 0 0 1 .038-1.412.091.091 0 0 1 .08-.079.1.1 0 0 1 .096.06c.01.025.98 2.55 4.642 3.188a3.134 3.134 0 0 1-.68-1.892.091.091 0 0 1 .075-.08.087.087 0 0 1 .098.05c.016.033 1.578 3.18 5.882 2.285a6.419 6.419 0 0 1-.794-1.258l-.002-.005a3.997 3.997 0 0 1-.417-1.569.09.09 0 0 1 .088-.093h.002a.09.09 0 0 1 .09.088 3.813 3.813 0 0 0 .395 1.482 3.312 3.312 0 0 0 1.212.329c.01 0 .018-.006.028-.001l.007.006a7.556 7.556 0 0 0 1.95-.107 8.223 8.223 0 0 1-1.673-3.453.09.09 0 1 1 .178-.037c.001.007.058.259.17.621a.084.084 0 0 1 .043.008 2.068 2.068 0 0 0 1.3.403c-1.212-1.718-.63-5.288-.487-6.056a5.954 5.954 0 0 1-1.672.247 5.736 5.736 0 0 1-2.554-.586 3.187 3.187 0 0 1-1.668-1.701c-.006-.02-.005-.042-.01-.062-.009.027-.007.058-.016.084a3.468 3.468 0 0 1-1.812 1.847 6.384 6.384 0 0 1-5.893-.172 3.678 3.678 0 0 1-.994-.809 6.05 6.05 0 0 1-.65 2.142c-.017.068-.814 3.519 2.948 6.532z"/><path class="cls-2" d="M46.863 54.889a6.194 6.194 0 0 0 5.721.167 3.288 3.288 0 0 0 1.722-1.743 2.343 2.343 0 0 0-.507-2.21 1.697 1.697 0 0 0-1.646-.607 8.008 8.008 0 0 0-4.125 2.593l-.018.02a2.55 2.55 0 0 1-.965.745 2.285 2.285 0 0 1-1.38-.078 3.06 3.06 0 0 0 1.198 1.113z"/><path class="cls-3" d="m45.418 69.604.241-.24a10.543 10.543 0 0 1 .805-.745l-2.32 1.525.387.618a3.71 3.71 0 0 1 .887-1.158z"/><path class="cls-4" d="M63.227 62.956a.068.068 0 0 0 0 .082c.018.027.036.045.063.045a9.244 9.244 0 0 1 3.047 1.028c-.555.537-3.702 3.583-4.747 5.82a13.232 13.232 0 0 1-4.71.746c-.02.009-.046.009-.065.027a.07.07 0 0 0-.027.064v.2a3.867 3.867 0 0 1-1.146-.1 20.055 20.055 0 0 0 3.301-6.666c.173.009.346.018.519.018a7.419 7.419 0 0 0 1.61-.173.09.09 0 0 0 .063-.063.087.087 0 0 0-.018-.082 7.042 7.042 0 0 1-1.5-2.628 2.418 2.418 0 0 0 1.155.363 1.207 1.207 0 0 0 .3-.036.09.09 0 0 0 .063-.064.087.087 0 0 0-.018-.081c-1.327-1.665-.609-5.675-.518-6.13a5.753 5.753 0 0 0 1-.436 2.848 2.848 0 0 0 1.255-1.274.126.126 0 0 0-.018-.1.103.103 0 0 0-.1-.027c-.091.037-.191.064-.282.091a4.745 4.745 0 0 0 1.055-1.882 8.883 8.883 0 0 0 .373-2.838 9.583 9.583 0 0 0-.173-1.61c2.446.755 6.711 2.328 8.612 4.63-.137.136-.482.481-.982.99-2.129 2.193-6.921 7.276-8.112 10.086z"/><path class="cls-5" d="M72.32 51.88c-.136.136-.481.482-.982.991a19.876 19.876 0 0 0-7.457-4.01 9.583 9.583 0 0 0-.172-1.61c2.446.755 6.711 2.328 8.611 4.629zM39.43 70.72l.997 1.649 9.785-6.432-.998-1.649-2.378 1.563v.001l-2.403 1.579-5.003 3.289z"/><path class="cls-2" d="M56.344 50.681a1.59 1.59 0 0 0-1.205.588 2.142 2.142 0 0 0-.462 2.022 3.003 3.003 0 0 0 1.578 1.597 5.683 5.683 0 0 0 5.25-.154 2.82 2.82 0 0 0 1.088-1.005 2.043 2.043 0 0 1-1.254.068 2.34 2.34 0 0 1-.888-.684l-.02-.02a7.345 7.345 0 0 0-3.785-2.381 1.6 1.6 0 0 0-.302-.03z"/><path class="cls-6" d="M58.425 65.193a18.244 18.244 0 0 1-2.937 5.575.098.098 0 0 0-.018.073 7.154 7.154 0 0 1-1.783-.773c-.354-.2-.71-.428-1.055-.646a15.01 15.01 0 0 0-2.01-1.137 4.274 4.274 0 0 0-3.446-.136l3.21-2.11a.089.089 0 0 0 .027-.119l-.555-.927-.536-.882c-.018-.018-.037-.037-.055-.037a.097.097 0 0 0-.073.01l-.864.563-1.518 1-1.128-1.864-.518-.855c0-.009.009-.027 0-.036a21.121 21.121 0 0 1-1.564-4.874 4.388 4.388 0 0 0 1.291-1.264c-.1 1.064-.018 3.928 3.256 6.447a.115.115 0 0 0 .109 0 .1.1 0 0 0 .036-.1 3.914 3.914 0 0 1-.027-1.264 6.314 6.314 0 0 0 4.865 3.047.08.08 0 0 0 .09-.046.098.098 0 0 0-.008-.1 3.796 3.796 0 0 1-.773-1.61 5.122 5.122 0 0 0 4.383 2.246h.027a7.884 7.884 0 0 0 1.574-.18z"/><path class="cls-1" d="M56.825 65.375a25.22 25.22 0 0 1-6.966-.382l-.537-.882c-.018-.018-.036-.036-.054-.036a.097.097 0 0 0-.073.009l-.864.564a20.866 20.866 0 0 1-2.646-.864l-.519-.855c0-.01.01-.027 0-.036a21.121 21.121 0 0 1-1.564-4.875 4.388 4.388 0 0 0 1.291-1.264c-.1 1.064-.018 3.929 3.256 6.448a.115.115 0 0 0 .11 0 .1.1 0 0 0 .036-.1 3.914 3.914 0 0 1-.028-1.264 6.314 6.314 0 0 0 4.865 3.046.08.08 0 0 0 .091-.045.098.098 0 0 0-.009-.1 3.796 3.796 0 0 1-.773-1.61 5.122 5.122 0 0 0 4.383 2.246z"/><path class="cls-5" d="M60.112 77.364h2.31a17.485 17.485 0 0 0-1.602-1.607.094.094 0 0 1-.027-.099.09.09 0 0 1 .082-.061c3.966-.203 4.6-1.765 4.692-2.111a27.929 27.929 0 0 0-4.7-1.226.09.09 0 0 1-.078-.083.092.092 0 0 1 .063-.094c2.385-.759 2.396-2.34 2.336-2.835-2.044 1.649-5.576 1.631-6.22 1.612v.106a.119.119 0 0 1 .067.021 3.68 3.68 0 0 1 1.071 2.837.087.087 0 0 1-.024.055 9.004 9.004 0 0 1 2.03 3.485z"/><path class="cls-7" d="M75.058 77.36H62.635a.099.099 0 0 0-.009-.045 17.787 17.787 0 0 0-1.518-1.546c2.546-.172 3.7-.9 4.22-1.491.518.036 5.347.4 6.156.818a.055.055 0 0 0 .036.01.096.096 0 0 0 .082-.046.092.092 0 0 0-.036-.127c-.8-.419-5.166-.764-6.102-.828a1.635 1.635 0 0 0 .3-.673.095.095 0 0 0-.064-.09 28.954 28.954 0 0 0-4.456-1.2c2.583-1 2.1-3.066 2.092-3.084a.079.079 0 0 0-.055-.072.106.106 0 0 0-.09.018 5.206 5.206 0 0 1-1.347.827c1.219-2.4 4.665-5.629 4.702-5.665a.083.083 0 0 0 .036-.073.125.125 0 0 0-.045-.073 8.925 8.925 0 0 0-3.101-1.1 13.197 13.197 0 0 1 1.155-1.955c.254-.364.536-.746.827-1.137.064-.072.118-.154.182-.236a12.216 12.216 0 0 1 4.61 3.383c2.12 2.373 4.675 6.801 4.848 14.386z"/><path class="cls-2" d="M62.554 40.925a.086.086 0 0 1 .026-.056 11.273 11.273 0 0 0-2.056-1.049c.068.314 1.594 7.61-.454 12.505a.09.09 0 0 1-.084.055.103.103 0 0 1-.021-.004c.2.185.4.38.6.592l.018.02a2.192 2.192 0 0 0 .816.637 1.466 1.466 0 0 0 .766.019.087.087 0 0 1 .023-.048 4.33 4.33 0 0 0 1.145-1.953 9.11 9.11 0 0 0 .183-4.478 13.097 13.097 0 0 0-.378-1.332 11.701 11.701 0 0 1-.423-1.557 14.107 14.107 0 0 1-.161-3.351z"/><path class="cls-8" d="m48.11 70.602-2.152 1.515a1.926 1.926 0 0 0-.384.324.992.992 0 0 0-.159.947 8.97 8.97 0 0 1 12.503.31 3.486 3.486 0 0 0-.974-2.548c-.02.002-.044-.002-.064 0h-.003a5.661 5.661 0 0 1-3.282-.92 26.36 26.36 0 0 1-1.06-.654 14.598 14.598 0 0 0-1.986-1.123 4.049 4.049 0 0 0-3.32-.127 5.782 5.782 0 0 0-1.44 1.167l-.243.24a3.097 3.097 0 0 0-.92 1.277 1.15 1.15 0 0 0 .17.9.786.786 0 0 0 .537.38.089.089 0 0 1 .073.082c.011-.015.017-.032.029-.046a2.063 2.063 0 0 1 .42-.357l2.15-1.515a1.093 1.093 0 0 1 1.015-.284.092.092 0 0 1 .05.119.093.093 0 0 1-.12.05c-.26-.109-.56.064-.84.263z"/><path class="cls-4" d="m42.514 58.538 2.042 3.375a21.075 21.075 0 0 1-1.118-3.8 5.022 5.022 0 0 1-.924.425z"/><path class="cls-8" d="M60.337 39.836a.127.127 0 0 1 .027-.082 20.391 20.391 0 0 0-.91-.318 25.299 25.299 0 0 0-12.121-.354 36.81 36.81 0 0 0-2.474.527c-.19.527-1.619 4.81-.145 8.248a13.456 13.456 0 0 1 1.118 5.775 1.942 1.942 0 0 0 1.155.045 1.506 1.506 0 0 0 .582-.382 3.317 3.317 0 0 0 .31-.309l.018-.018a8.052 8.052 0 0 1 4.219-2.646 1.895 1.895 0 0 1 1.819.663 2.647 2.647 0 0 1 .573 1.11 2.357 2.357 0 0 1 .49-.946 1.76 1.76 0 0 1 1.683-.618 5.925 5.925 0 0 1 2.12.927 8.3 8.3 0 0 1 1.1.864.1.1 0 0 1 0-.073c2.064-4.919.454-12.34.436-12.413zm-9.703 6.284a1.056 1.056 0 1 1 1.018-1.055 1.035 1.035 0 0 1-1.018 1.055zm1.473-2h-.018l-4.574-.618a.09.09 0 0 1-.073-.1.079.079 0 0 1 .1-.082l4.574.618a.091.091 0 0 1-.01.182zm4.329 5.502a1.452 1.452 0 0 1-1.164.59 5.7 5.7 0 0 1-.564.028c-2.092 0-2.446-1.437-2.455-1.446a.088.088 0 0 1 .072-.109.094.094 0 0 1 .11.064c.008.063.4 1.546 2.81 1.282a1.255 1.255 0 0 0 1.036-.51c.391-.618-.045-1.764-.491-2.973a15.555 15.555 0 0 1-.618-1.873.086.086 0 0 1 .063-.11.092.092 0 0 1 .11.073 18.224 18.224 0 0 0 .609 1.846c.472 1.255.918 2.437.482 3.137zm2.01-3.501a1.056 1.056 0 1 1 1.009-1.055 1.037 1.037 0 0 1-1.01 1.054zm2.328-2.492-.746.1-3.838.518h-.009a.088.088 0 0 1-.09-.072.094.094 0 0 1 .08-.11l3.848-.509.727-.1a.085.085 0 0 1 .1.073.081.081 0 0 1-.073.1z"/><path class="cls-9" d="m46.667 65.748-2.328 1.528-2.547 1.673-.427-.709-1.237-2.037-4.183-6.912-1.519-2.519-4.128-6.82-.964-1.592-.164-.272-.436-6.357 3.292 1.964 1.409.837.6.355 3.711 6.129 1.527 2.519 4.184 6.911 1.227 2.028 1.983 3.274z"/><path class="cls-1" d="m33.435 44.532-3.137 5.42-.964-1.592 2.692-4.665 1.409.837zm5.838 9.003-3.328 5.756-1.519-2.519 3.32-5.756 1.527 2.519zm5.411 8.939-3.319 5.766-1.237-2.037 3.329-5.757 1.227 2.028z"/><path class="cls-10" d="m46.667 65.748-2.328 1.528-15.605-25.545 5.301 3.156 12.632 20.861z"/><path class="cls-9" d="m41.857 63.213 1.236 2.024 1.591-2.763-1.038-1.714-.189-.314-1.6 2.767zm-4.202-6.879 1.618-2.798-.967-1.597-.56-.923-1.622 2.812 1.531 2.506zm-5.675-9.289 1.455-2.513-1.409-.837-1.017 1.761.971 1.589z"/><path class="cls-1" d="M51.502 71.183a8.828 8.828 0 1 0 8.827 8.828 8.839 8.839 0 0 0-8.827-8.828zm-2.129 14.854 2.128-2.187 2.129 2.187zm6.86-3.386a3.032 3.032 0 0 1-4.441.179l-.29-.29-.29.29a3.032 3.032 0 0 1-4.442-.18 3.07 3.07 0 0 1 .213-4.145l.243-.243 4.276-4.276 4.276 4.276.243.243a3.07 3.07 0 0 1 .212 4.146z"/><path class="cls-7" d="M45.248 73.45a.146.146 0 0 0 .036.064 8.926 8.926 0 0 0-2.391 3.846h-4.547v-.018a11.299 11.299 0 0 1 0-3.901.084.084 0 0 0-.073-.1.092.092 0 0 0-.11.073 11.523 11.523 0 0 0 0 3.946H28.116c-1.382-6.956.746-11.54 2.765-14.168a14.73 14.73 0 0 1 4.765-4.056l.61 1.01.708 1.164 4.675 7.739-2.383 1.564a.098.098 0 0 0-.027.127l1.091 1.8a.121.121 0 0 0 .055.046h.027a.082.082 0 0 0 .045-.01l3.547-2.336.427.691c.01.01.019.01.037.018l-.01.01a1.35 1.35 0 0 0 .192 1.054.962.962 0 0 0 .673.455c.009 0 .027-.01.036-.01a1.186 1.186 0 0 0-.1.992z"/><path class="cls-5" d="M31.289 77.36h-1.364c-.7-11.003 3.892-15.577 6.33-17.214l.708 1.164c-2.155 1.473-6.356 5.702-5.674 16.05zm43.305 0h-1.382c-1.11-11.621-6.384-15.332-8.621-16.395.254-.364.536-.746.827-1.137 2.701 1.328 8.066 5.447 9.176 17.533zm-7.082-44.826-1.873 3.447-.837 1.545-1.837 3.393a13.475 13.475 0 0 0-5.556-2.201 29.57 29.57 0 0 0-12.595.718.173.173 0 0 0-.073.018 49.91 49.91 0 0 0-5.502 1.728l-2.537-3.592-.955-1.346-2.3-3.255a4.294 4.294 0 0 1 4.72 1.427.12.12 0 0 0 .108.028 1.963 1.963 0 0 1 1.883.118 1.259 1.259 0 0 1 .49 1.446.12.12 0 0 0 .028.109.083.083 0 0 0 .11 0 5.796 5.796 0 0 1 1.9-.828.092.092 0 0 0 .082-.054.083.083 0 0 0-.018-.1 1.43 1.43 0 0 1-.064-2.028c.927-1.037 1.528-.664 1.555-.646a.098.098 0 0 0 .1 0 .108.108 0 0 0 .036-.1c0-.009-.19-1.137 1.219-4.065a11.607 11.607 0 0 1 2.437 3.147.077.077 0 0 0 .1.045c.01 0 1.628-.218 2.283.864a1.393 1.393 0 0 1 .282 1.064.477.477 0 0 1-.2.282.096.096 0 0 0-.037.118.09.09 0 0 0 .118.046 4.064 4.064 0 0 1 2.747-.091.083.083 0 0 0 .1-.019.097.097 0 0 0 .018-.109 2.344 2.344 0 0 1-.255-1.582 1.108 1.108 0 0 1 .628-.655c1.3-.6 1.964-.1 1.991-.073a.098.098 0 0 0 .1 0 .081.081 0 0 0 .046-.072c0-.01.036-.691 1.773-2.665a6.397 6.397 0 0 1 1.237 3.538c-.01.027 0 .045.018.072.018.01.055.037.073.028A1.607 1.607 0 0 1 60.6 33.38a1.331 1.331 0 0 1-.5 1.11.092.092 0 0 0-.028.09.077.077 0 0 0 .073.064 3.793 3.793 0 0 1 1.946.882.101.101 0 0 0 .1.037.087.087 0 0 0 .064-.082 1.61 1.61 0 0 1 .627-1.155 2.04 2.04 0 0 1 1.846.073.12.12 0 0 0 .11-.028 6.477 6.477 0 0 1 2.673-1.837z"/><path class="cls-4" d="m38.791 52.38-1.655-2.737-.764-1.255a13.227 13.227 0 0 1 1.555-.991c.019-.01.028-.028.037-.037.054.518.136 1.064.245 1.664.064.355.146.728.228 1.119q.218 1.037.354 2.237z"/><path class="cls-5" d="M38.21 49.024c-.355.182-.71.391-1.074.619l-.764-1.255a13.227 13.227 0 0 1 1.555-.991c.019-.01.028-.028.037-.037.054.519.136 1.064.245 1.664z"/><path class="cls-6" d="M40.271 34.419a1.46 1.46 0 0 1 .603 1.433 6.069 6.069 0 0 1 1.63-.724 1.579 1.579 0 0 1 .045-2.145c.775-.86 1.372-.824 1.638-.744a8.424 8.424 0 0 1 .924-3.318 15.091 15.091 0 0 0-7.016 5.15c.056.06.113.112.168.176a2.102 2.102 0 0 1 2.008.172z"/><path class="cls-2" d="M39.015 52.716c.001.01-.006.017-.008.027l3.411 5.637a4.31 4.31 0 0 0 2.535-2.043v-.005c.003-.006.009-.009.012-.014a5.977 5.977 0 0 0 .66-2.266 2.142 2.142 0 0 1-.217-.391.091.091 0 0 1 .112-.122c.045.015.09.026.135.04a13.444 13.444 0 0 0-1.105-5.654c-1.425-3.318-.196-7.39.096-8.257a50.47 50.47 0 0 0-5.409 1.706.1.1 0 0 1-.032.005.092.092 0 0 1-.06-.03c-.65.67-1.844 2.78-.535 8.754a22.83 22.83 0 0 1 .405 2.613z"/><path class="cls-6" d="M60.774 33.334a1.412 1.412 0 0 1-.43 1.164 3.987 3.987 0 0 1 1.758.766 1.654 1.654 0 0 1 .68-1.088 2.137 2.137 0 0 1 1.95.028 4.926 4.926 0 0 1 .58-.575 19.63 19.63 0 0 0-7.084-4.583 5.813 5.813 0 0 1 .918 3.006 1.818 1.818 0 0 1 1.628 1.282zm-10.2-1.074a1.588 1.588 0 0 1 .3 1.218.727.727 0 0 1-.04.103 4.095 4.095 0 0 1 2.347-.06 2.282 2.282 0 0 1-.162-1.512 1.278 1.278 0 0 1 .721-.769 2.296 2.296 0 0 1 2.06-.13 7.185 7.185 0 0 1 1.556-2.358 18.312 18.312 0 0 0-6.406-.879 18.521 18.521 0 0 0-4.745.763 11.45 11.45 0 0 1 1.962 2.668 2.519 2.519 0 0 1 2.407.957z"/><path class="cls-8" d="M47.506 43.582a.332.332 0 0 1-.114-.066.167.167 0 0 1-.033-.129.163.163 0 0 1 .165-.149l4.605.618a.329.329 0 0 1 .113.066.167.167 0 0 1 .034.129.171.171 0 0 1-.17.148l-4.6-.617z"/><path class="cls-8" d="m52.118 43.937-4.576-.615a.084.084 0 0 0-.102.077.09.09 0 0 0 .077.102l4.576.616h.013a.09.09 0 0 0 .012-.18zm4.062.394a.173.173 0 0 1-.17-.15.368.368 0 0 1 .034-.127.164.164 0 0 1 .115-.065l4.58-.617a.17.17 0 0 1 .189.148.357.357 0 0 1-.034.128.164.164 0 0 1-.114.065z"/><path class="cls-8" d="M56.091 44.172a.09.09 0 0 0 .09.078l.013-.001 4.576-.616a.09.09 0 0 0 .077-.103.085.085 0 0 0-.102-.077l-4.576.616a.09.09 0 0 0-.078.102z"/><circle class="cls-11" cx="46.551" cy="33.353" r=".887"/><circle class="cls-11" cx="57.215" cy="33.353" r=".887"/><path class="cls-11" d="M37.366 36.735a.879.879 0 0 1-.664.855l-.955-1.346a.876.876 0 0 1 .737-.39.889.889 0 0 1 .882.881zm28.273-.755-.837 1.546a.882.882 0 0 1 .391-1.673.823.823 0 0 1 .446.127z"/><path d="M50.637 44.006a1.056 1.056 0 1 0 1.017 1.055 1.037 1.037 0 0 0-1.017-1.055zm7.805 0a1.056 1.056 0 1 0 1.017 1.055 1.037 1.037 0 0 0-1.017-1.055zM51.211 82.83l.29-.29.29.29a3.032 3.032 0 0 0 4.441-.179 3.07 3.07 0 0 0-.212-4.146l-.243-.243-4.276-4.276-4.276 4.276-.243.243a3.07 3.07 0 0 0-.213 4.146 3.032 3.032 0 0 0 4.442.179z"/><path d="M51.56 83.793a.082.082 0 0 0-.117 0l-2.129 2.187a.082.082 0 0 0 .059.139h4.257a.082.082 0 0 0 .059-.139zm3.866-39.18a.181.181 0 0 0-.194-.127h-.015a.175.175 0 0 0-.127.21 16.744 16.744 0 0 0 .621 1.88c.445 1.191.866 2.316.502 2.907a1.212 1.212 0 0 1-.973.467 4.886 4.886 0 0 1-.54.031c-1.867 0-2.176-1.199-2.188-1.25a.182.182 0 0 0-.196-.13h-.011a.175.175 0 0 0-.13.208c.003.015.362 1.517 2.535 1.517a5.416 5.416 0 0 0 .567-.032 1.522 1.522 0 0 0 1.23-.631c.453-.734.003-1.937-.474-3.211a16.51 16.51 0 0 1-.607-1.84z"/><path d="M76.403 77.282h-1.089c-.18-7.63-2.768-12.092-4.91-14.493a12.984 12.984 0 0 0-4.55-3.382 95.065 95.065 0 0 1 6.71-7.397.173.173 0 0 0 .014-.231c-1.94-2.415-6.397-4.046-8.824-4.743a14.278 14.278 0 0 0-.365-1.285 11.353 11.353 0 0 1-.414-1.522 13.704 13.704 0 0 1-.168-3.098l.069.054a.184.184 0 0 0 .131.04h.014a.353.353 0 0 0 .12-.087l4.723-8.698a.172.172 0 0 0-.02-.193.168.168 0 0 0-.143-.053c-.015 0-.03 0-.048.002a7.914 7.914 0 0 0-2.19 1.206 19.562 19.562 0 0 0-7.31-4.64 6.849 6.849 0 0 0-.282-.414.176.176 0 0 0-.15-.064h-.006a.45.45 0 0 0-.11.055l-.12.138.02.044a17.942 17.942 0 0 0-5.81-.924q-.373 0-.752.014a16.847 16.847 0 0 0-4.827.82 9.694 9.694 0 0 0-.433-.413.553.553 0 0 0-.148-.04.343.343 0 0 0-.121.094c-.103.213-.19.404-.27.553a15.406 15.406 0 0 0-7.187 5.187 4.468 4.468 0 0 0-3.156-1.294 4.518 4.518 0 0 0-1.567.266.17.17 0 0 0-.098.111.335.335 0 0 0 .024.147l5.768 8.154c-.711.751-1.448 2.392-1.073 5.96l-.046.007a13.145 13.145 0 0 0-1.508.95l-2.108-3.445-5.475-3.25a.162.162 0 0 0-.088-.026.374.374 0 0 0-.093.027.17.17 0 0 0-.08.158l.478 6.63 6.496 10.737a15.19 15.19 0 0 0-4.75 4.084c-2.047 2.648-4.196 7.265-2.846 14.255h-1.238a.172.172 0 0 0-.173.172v5.11a.172.172 0 0 0 .173.173H42.83a9.165 9.165 0 0 0 8.672 6.365 9.047 9.047 0 0 0 8.671-6.365h16.23a.172.172 0 0 0 .172-.172v-5.111a.172.172 0 0 0-.172-.172zM33.97 44.926l12.582 20.797-4.732 3.11-12.565-20.75-.43-6.2zm10.99-15.86a8.767 8.767 0 0 0-.854 3.07 1.015 1.015 0 0 0-.19-.017 1.986 1.986 0 0 0-1.426.809 1.626 1.626 0 0 0-.125 2.147 6.229 6.229 0 0 0-1.392.625 1.535 1.535 0 0 0-.651-1.346 1.839 1.839 0 0 0-1.14-.37 2.645 2.645 0 0 0-.895.166 8.124 8.124 0 0 0-.086-.089 15.147 15.147 0 0 1 6.76-4.996zm-6.648 5.448a2.327 2.327 0 0 1 .871-.18 1.494 1.494 0 0 1 .93.296 1.18 1.18 0 0 1 .462 1.351.173.173 0 0 0 .16.236.394.394 0 0 0 .094-.027 5.892 5.892 0 0 1 1.86-.818.172.172 0 0 0 .117-.296 1.352 1.352 0 0 1-.06-1.915 1.67 1.67 0 0 1 1.172-.697.555.555 0 0 1 .275.062.17.17 0 0 0 .097.03.396.396 0 0 0 .094-.029.176.176 0 0 0 .077-.177c-.003-.01-.171-1.11 1.163-3.92a11.544 11.544 0 0 1 2.337 3.047.175.175 0 0 0 .174.095h.015a3.379 3.379 0 0 1 .34-.017 2.113 2.113 0 0 1 1.858.841 1.323 1.323 0 0 1 .275 1.002.363.363 0 0 1-.157.223.173.173 0 0 0-.082.224.169.169 0 0 0 .176.093c.015 0 .031 0 .05-.002a4.773 4.773 0 0 1 1.592-.298 3.003 3.003 0 0 1 1.16.224.35.35 0 0 0 .126-.056.17.17 0 0 0 .025-.2 2.294 2.294 0 0 1-.242-1.515 1.025 1.025 0 0 1 .582-.61 2.785 2.785 0 0 1 1.15-.286 1.273 1.273 0 0 1 .757.198.133.133 0 0 0 .093.027.666.666 0 0 0 .09-.008.173.173 0 0 0 .097-.152c.001-.007.057-.674 1.68-2.528a6.076 6.076 0 0 1 1.159 3.395.346.346 0 0 0 .049.133.198.198 0 0 0 .144.05h.01a1.53 1.53 0 0 1 1.437 1.085 1.242 1.242 0 0 1-.477 1.036.172.172 0 0 0 .093.295c.058.01 1.458.257 1.892.85a.173.173 0 0 0 .155.064l.033-.002a.172.172 0 0 0 .123-.154 1.502 1.502 0 0 1 .588-1.086 1.24 1.24 0 0 1 .675-.178 3.39 3.39 0 0 1 1.162.266.355.355 0 0 0 .138-.068 6.404 6.404 0 0 1 2.432-1.722l-4.397 8.098a13.675 13.675 0 0 0-5.513-2.158 23.024 23.024 0 0 0-4.274-.377 34.488 34.488 0 0 0-8.317 1.101l-.112.02a52.643 52.643 0 0 0-4.272 1.297l-.005-.006-.01.011c-.388.135-.774.254-1.163.399l-5.693-8.048a4.492 4.492 0 0 1 1.234-.173 4.185 4.185 0 0 1 3.294 1.61.158.158 0 0 0 .135.05.586.586 0 0 0 .072-.006zm13.3-6.568a17.932 17.932 0 0 1 5.605.847 7.663 7.663 0 0 0-1.465 2.203 1.873 1.873 0 0 0-.75-.145 3.118 3.118 0 0 0-1.294.315 1.36 1.36 0 0 0-.765.818 2.223 2.223 0 0 0 .101 1.41 3.313 3.313 0 0 0-.849-.104 4.857 4.857 0 0 0-1.23.17 1.712 1.712 0 0 0-.32-1.241 2.405 2.405 0 0 0-2.124-1.015c-.125 0-.23.006-.305.013a11.37 11.37 0 0 0-1.858-2.54 18.456 18.456 0 0 1 4.595-.722c.222-.006.442-.01.66-.01zm13.584 5.676a5.147 5.147 0 0 0-.487.485 3.19 3.19 0 0 0-1.109-.232 1.576 1.576 0 0 0-.86.232 1.678 1.678 0 0 0-.686 1.005 4.19 4.19 0 0 0-1.559-.665 1.443 1.443 0 0 0 .358-1.14 1.897 1.897 0 0 0-1.622-1.329 5.736 5.736 0 0 0-.817-2.774 19.474 19.474 0 0 1 6.782 4.418zm-5.344 18.542a6.848 6.848 0 0 0-3.153-1.71 1.713 1.713 0 0 0-.347-.036 1.875 1.875 0 0 0-1.41.677 2.395 2.395 0 0 0-.43.725 2.684 2.684 0 0 0-.514-.891 2.02 2.02 0 0 0-1.521-.729 1.855 1.855 0 0 0-.375.038 8.284 8.284 0 0 0-4.284 2.69 2.342 2.342 0 0 1-.86.676 1.198 1.198 0 0 1-.405.065 2.437 2.437 0 0 1-.631-.098 13.762 13.762 0 0 0-1.129-5.75c-1.465-3.415-.026-7.702.085-8.129a34.285 34.285 0 0 1 8.176-1.077 20.332 20.332 0 0 1 7.212 1.192.13.13 0 0 0-.004.044c.017.074 1.594 7.434-.41 12.313zm-2.742 18.78.154.002c1.162 0 4.02-.153 5.856-1.54.024.58-.167 1.922-2.293 2.6a.172.172 0 0 0 .03.334 28.195 28.195 0 0 1 4.61 1.196c-.15.424-.913 1.79-4.594 1.979a.173.173 0 0 0-.157.118.177.177 0 0 0 .053.186 17.506 17.506 0 0 1 1.474 1.463h-2.07a9.159 9.159 0 0 0-1.994-3.422.142.142 0 0 0 .01-.034 3.774 3.774 0 0 0-1.08-2.883zM42.59 47.978a12.863 12.863 0 0 1-.883-4.156 6.982 6.982 0 0 1 .961-3.506c.622-.186 1.246-.376 1.855-.532-.34 1.064-1.419 4.978-.047 8.172a13.464 13.464 0 0 1 1.102 5.546l-.057.037-.028-.085a.362.362 0 0 0-.128.056.174.174 0 0 0-.031.182 1.158 1.158 0 0 0 .21.351 5.907 5.907 0 0 1-.662 2.253 4.222 4.222 0 0 1-2.426 1.985l-1.205-2a5.096 5.096 0 0 0 2.085-3.058 9.928 9.928 0 0 0-.746-5.245zm3.078 21.263-.306.304a4.17 4.17 0 0 0-.841 1.046l-.264-.422zm9.758 1.473a.12.12 0 0 0-.011.022A7.53 7.53 0 0 1 53.726 70a25.094 25.094 0 0 1-1.05-.646 14.867 14.867 0 0 0-2.022-1.143 5.299 5.299 0 0 0-2.04-.457 3.555 3.555 0 0 0-.83.094l2.646-1.74a.174.174 0 0 0 .054-.233l-.358-.591a26.287 26.287 0 0 0 4.138.32 24.799 24.799 0 0 0 2.81-.152c.008-.001.012-.008.019-.01a7.698 7.698 0 0 0 1.202-.142 17.772 17.772 0 0 1-2.87 5.414zm1.714-15.216c-.535 1.42-.4 4.649-.11 6.645a.23.23 0 0 0-.016.06 4.074 4.074 0 0 0 .427 1.607 6.55 6.55 0 0 0 .72 1.168 7.13 7.13 0 0 1-1.333.132 4.832 4.832 0 0 1-4.329-2.399.172.172 0 0 0-.035-.04 14.338 14.338 0 0 1-.607-5.327 4.77 4.77 0 0 1 .4-1.823l-.041-.021c.165-.065.33-.129.487-.208a3.619 3.619 0 0 0 1.786-1.754 3.372 3.372 0 0 0 1.648 1.587 5.507 5.507 0 0 0 1.003.373zm-2.91-2.211a3.212 3.212 0 0 1-1.68 1.696 6.11 6.11 0 0 1-5.644-.165 3.223 3.223 0 0 1-1.058-.907 2.805 2.805 0 0 0 .7.102 1.6 1.6 0 0 0 .524-.083 2.665 2.665 0 0 0 1.017-.785 7.933 7.933 0 0 1 4.081-2.57 1.595 1.595 0 0 1 1.57.582 2.257 2.257 0 0 1 .49 2.13zm-7.497 1.83a6.334 6.334 0 0 0 3.158.821 6.444 6.444 0 0 0 2.04-.333 5.393 5.393 0 0 0-.345 1.721 14.593 14.593 0 0 0 .61 5.392.166.166 0 0 0-.023.05 2.975 2.975 0 0 0 .583 1.783 5.764 5.764 0 0 1-4.386-3.1.164.164 0 0 0-.078-.084 11.977 11.977 0 0 1 .15-5.555l-.263-.077a12.277 12.277 0 0 0-.142 5.755 6.765 6.765 0 0 0-.056 1.236c-3.517-2.923-2.803-6.188-2.778-6.308a6.019 6.019 0 0 0 .635-1.994 3.904 3.904 0 0 0 .895.694zm10.626 7.076a.162.162 0 0 0-.04-.09c-.28-1.959-.42-5.192.103-6.528a6.024 6.024 0 0 0 1.214.139 11.473 11.473 0 0 0 .486 4.689.24.24 0 0 0-.005.065 8.357 8.357 0 0 0 1.593 3.382 7.937 7.937 0 0 1-1.246.104l-.285-.002c-.073 0-.141.001-.199.006a.474.474 0 0 0-.089-.033 3.659 3.659 0 0 1-1.145-.282 3.723 3.723 0 0 1-.387-1.45zm2.095-1.795a.156.156 0 0 0-.058-.092 11.158 11.158 0 0 1-.467-4.6 6.044 6.044 0 0 0 1.367-.2c-.162.923-.626 4.161.44 5.863a2.391 2.391 0 0 1-1.119-.375c-.1-.328-.154-.561-.163-.596zm-3.162-5.583a2.926 2.926 0 0 1-1.537-1.55 2.058 2.058 0 0 1 .447-1.942 1.507 1.507 0 0 1 1.143-.56 1.573 1.573 0 0 1 .286.029 7.312 7.312 0 0 1 3.765 2.381 2.391 2.391 0 0 0 .917.701 1.441 1.441 0 0 0 .482.077 2.581 2.581 0 0 0 .614-.086 2.997 2.997 0 0 1-.945.799 5.601 5.601 0 0 1-5.172.151zM44.79 57.037c-.051 1.27.274 3.899 3.31 6.227a.168.168 0 0 0 .105.036.35.35 0 0 0 .098-.029.175.175 0 0 0 .07-.19 3.446 3.446 0 0 1-.047-.972 6.53 6.53 0 0 0 4.82 2.859.333.333 0 0 0 .147-.09.17.17 0 0 0-.017-.193 4.254 4.254 0 0 1-.664-1.186 5.148 5.148 0 0 0 2.604 1.735c-.315.012-.628.026-.954.026a25.23 25.23 0 0 1-4.37-.363l-.5-.827a.194.194 0 0 0-.15-.084.347.347 0 0 0-.093.03l-.803.527a20.615 20.615 0 0 1-2.628-.889l-.475-.792a21.037 21.037 0 0 1-1.549-4.807 4.426 4.426 0 0 0 1.096-1.018zm3.173 7.758-1.12.736-.83-1.385c.423.166 1.1.408 1.95.649zm10.689-.55-.186.56a6.58 6.58 0 0 1-.485-.719 3.867 3.867 0 0 0 .67.159zM43.379 58.24a20.824 20.824 0 0 0 .79 2.877l-1.533-2.536a4.994 4.994 0 0 0 .743-.341zm5.81 6.163.912 1.51-9.648 6.34-.912-1.509zm-3.73 8.836a.906.906 0 0 1 .178-.746 1.901 1.901 0 0 1 .377-.316l2.142-1.509a1.25 1.25 0 0 1 .623-.28.749.749 0 0 1 .206.038.172.172 0 0 0 .161-.107.174.174 0 0 0-.095-.225.716.716 0 0 0-.272-.053 1.517 1.517 0 0 0-.822.345l-2.15 1.515a2.124 2.124 0 0 0-.395.334.161.161 0 0 0-.07-.027.708.708 0 0 1-.48-.344 1.064 1.064 0 0 1-.159-.832 3.031 3.031 0 0 1 .9-1.24l.242-.241a5.748 5.748 0 0 1 1.42-1.152 2.988 2.988 0 0 1 1.346-.301 4.918 4.918 0 0 1 1.905.43 14.402 14.402 0 0 1 1.974 1.117c.346.22.703.448 1.064.655a6.072 6.072 0 0 0 2.994.946 1.27 1.27 0 0 0 .34-.036 3.321 3.321 0 0 1 .945 2.288 9.05 9.05 0 0 0-12.375-.259zm-6.231-31.787a.285.285 0 0 0 .038-.001c.235-.09.468-.16.703-.244a4.4 4.4 0 0 0-.603 2.387 11.84 11.84 0 0 0 .405 2.81l.134.597a26.278 26.278 0 0 1 .483 3.205 6.11 6.11 0 0 1-.57 3.7l-.721-1.198a23.077 23.077 0 0 0-.407-2.623c-1.287-5.876-.13-7.98.476-8.638a.299.299 0 0 0 .062.005zm1.432 8.73a26.435 26.435 0 0 0-.489-3.239c-.042-.2-.089-.4-.134-.6a11.558 11.558 0 0 1-.398-2.744 3.583 3.583 0 0 1 .847-2.572 52.312 52.312 0 0 1 1.816-.606 7.297 7.297 0 0 0-.87 3.396 13.058 13.058 0 0 0 .897 4.246c.576 1.75 1.12 3.402.739 5.1a4.821 4.821 0 0 1-1.96 2.884l-1.134-1.884a6.171 6.171 0 0 0 .686-3.98zm22.018 27.1.009-.017a17.482 17.482 0 0 0-1.386-1.431c2.413-.19 3.54-.896 4.063-1.475.706.053 5.32.41 6.158.827a.172.172 0 0 0 .164-.225.363.363 0 0 0-.085-.1c-.781-.408-4.856-.743-5.989-.829a1.516 1.516 0 0 0 .232-.587.173.173 0 0 0-.113-.18 28.446 28.446 0 0 0-4.206-1.155 2.79 2.79 0 0 0 1.894-3.075c-.014-.057-.058-.105-.169-.132a.355.355 0 0 0-.112.043 5.046 5.046 0 0 1-1.104.711 29.167 29.167 0 0 1 4.571-5.429.174.174 0 0 0 .055-.143.349.349 0 0 0-.078-.128 8.797 8.797 0 0 0-3.026-1.097 18.293 18.293 0 0 1 2.075-3.17 12.486 12.486 0 0 1 4.522 3.337c2.1 2.357 4.636 6.74 4.817 14.256zm.47-14.356a.172.172 0 0 0 .009.156.36.36 0 0 0 .125.083 9.277 9.277 0 0 1 2.925.965c-.761.73-3.681 3.614-4.645 5.729a12.832 12.832 0 0 1-4.393.739l-.212-.001a.952.952 0 0 0-.115.004l-.083.04a.349.349 0 0 0-.053.124v.124a3.165 3.165 0 0 1-.16.004 3.926 3.926 0 0 1-.76-.078 20.28 20.28 0 0 0 3.215-6.528c.155.012.309.018.458.018a7.944 7.944 0 0 0 1.629-.176.172.172 0 0 0 .125-.118.174.174 0 0 0-.042-.172 6.72 6.72 0 0 1-1.404-2.395 2.26 2.26 0 0 0 1.004.271 1.284 1.284 0 0 0 .33-.04.175.175 0 0 0 .112-.114.352.352 0 0 0-.03-.159c-1.31-1.635-.592-5.613-.561-6a5.444 5.444 0 0 0 1.014-.44 2.865 2.865 0 0 0 1.29-1.315.17.17 0 0 0-.03-.184.167.167 0 0 0-.14-.05.438.438 0 0 0-.05.005 4.96 4.96 0 0 0 .88-1.7 9.351 9.351 0 0 0 .232-4.346c2.39.744 6.51 2.283 8.393 4.503-.997.989-7.617 7.64-9.063 11.05zm.107-11.308a4.253 4.253 0 0 1-1.121 1.916.157.157 0 0 0-.024.037 1.908 1.908 0 0 1-.329.032 1.068 1.068 0 0 1-.355-.056 2.202 2.202 0 0 1-.802-.635c-.169-.18-.338-.348-.509-.507a.17.17 0 0 0 .03-.048c1.927-4.606.712-11.289.49-12.403.43.177.788.35 1.085.506a15.943 15.943 0 0 0-.205 3.384 14.533 14.533 0 0 0 .303 1.77c.04.188.08.378.118.567a11.264 11.264 0 0 1 .23 3.614 5.864 5.864 0 0 1-1.4 3.252l.2.184a6.126 6.126 0 0 0 1.47-3.402 11.532 11.532 0 0 0-.232-3.701c-.038-.191-.08-.381-.12-.57a14.46 14.46 0 0 1-.298-1.737 15.28 15.28 0 0 1 .19-3.22c.205.115.38.22.501.299a.054.054 0 0 0-.005.02 14.196 14.196 0 0 0 .162 3.37 11.691 11.691 0 0 0 .426 1.567 12.89 12.89 0 0 1 .375 1.324 9.031 9.031 0 0 1-.18 4.437zM38.353 50.16c.12.548.223 1.158.31 1.856l-2.183-3.61c.446-.324.908-.62 1.413-.918.102.85.253 1.725.46 2.672zm3.177 18.863-2.318 1.525a.174.174 0 0 0-.053.234l1.092 1.805a.188.188 0 0 0 .148.082.352.352 0 0 0 .095-.028l3.475-2.285.398.592a1.411 1.411 0 0 0 .207 1.107.985.985 0 0 0 .655.458 1.256 1.256 0 0 0-.06.968l.008.016a9.119 9.119 0 0 0-2.346 3.785h-4.414a11.04 11.04 0 0 1 .011-3.823.177.177 0 0 0-.146-.203h-.018a.176.176 0 0 0-.178.143 11.628 11.628 0 0 0-.02 3.883h-9.88c-1.35-6.89.755-11.434 2.763-14.037a14.942 14.942 0 0 1 4.661-4.006zm9.972 2.242a8.747 8.747 0 1 1-8.747 8.746 8.756 8.756 0 0 1 8.747-8.746z"/><path d="M53.269 44.1a.22.22 0 0 0 .194-.118.215.215 0 0 0 .014-.167.218.218 0 0 0-.107-.127 5.021 5.021 0 0 0-2.333-.579 5.824 5.824 0 0 0-3.195 1.017.22.22 0 0 0-.042.306.216.216 0 0 0 .174.086.223.223 0 0 0 .133-.045 5.261 5.261 0 0 1 2.925-.927 4.602 4.602 0 0 1 2.138.53c.005.002.093.023.099.023zm3.023-.411a.219.219 0 0 0 .116.404.226.226 0 0 0 .116-.033 2.908 2.908 0 0 1 1.559-.47 3.396 3.396 0 0 1 2.108.82.219.219 0 0 0 .148.058.219.219 0 0 0 .146-.381 3.935 3.935 0 0 0-2.422-.926 3.317 3.317 0 0 0-1.771.528z"/><path class="cls-1" d="M60.37 78.24c.01.08.03.16.04.25h14.38v3.04H60.41c-.01.09-.03.17-.04.25h14.67v-3.54zm-17.77.25c.01-.09.03-.17.04-.25H27.97v3.54h14.67c-.01-.08-.03-.16-.04-.25H28.22v-3.04z"/></g></svg>