<svg xmlns="http://www.w3.org/2000/svg" viewBox="0 0 103 160"><path fill="#fff" d="M0 0h103v160H0z"/><path d="M10.344 12.3h-2.14a7.67 7.67 0 0 1 2.208-5.423 7.1 7.1 0 0 1 5.228-2.12 6.654 6.654 0 0 1 6.89 6.681 7.31 7.31 0 0 1-.908 3.561 25.603 25.603 0 0 1-3.526 4.501l-5.562 5.989h10.3v2.155H7.674l8.527-9.218a27.418 27.418 0 0 0 3.378-4.124 5.546 5.546 0 0 0 .782-2.833 4.36 4.36 0 0 0-1.404-3.242 4.755 4.755 0 0 0-3.438-1.36 4.815 4.815 0 0 0-3.559 1.427 6.13 6.13 0 0 0-1.616 4.006zm13.225 32.51a5.335 5.335 0 0 1-7.81.31l-.51-.51-.51.51a5.324 5.324 0 0 1-7.8-.31 5.404 5.404 0 0 1 .37-7.29l.43-.43a27.144 27.144 0 0 0 2.5-1.9 28.006 28.006 0 0 0 5.01-5.61 28.406 28.406 0 0 0 5.02 5.61 25.858 25.858 0 0 0 2.5 1.9c.14.15.28.29.43.43a5.404 5.404 0 0 1 .37 7.29z"/><path d="m15.253 46.915-3.741 3.844h7.481l-3.74-3.844zM92.656 147.7h2.14a7.67 7.67 0 0 1-2.208 5.422 7.1 7.1 0 0 1-5.228 2.12 6.654 6.654 0 0 1-6.89-6.68 7.31 7.31 0 0 1 .908-3.562 25.607 25.607 0 0 1 3.526-4.501l5.562-5.989h-10.3v-2.155h15.16l-8.527 9.218a27.423 27.423 0 0 0-3.378 4.124 5.546 5.546 0 0 0-.782 2.833 4.36 4.36 0 0 0 1.404 3.243 4.755 4.755 0 0 0 3.438 1.36 4.815 4.815 0 0 0 3.559-1.427 6.13 6.13 0 0 0 1.616-4.007zm-13.225-32.51a5.335 5.335 0 0 1 7.81-.31l.51.51.51-.51a5.324 5.324 0 0 1 7.8.31 5.404 5.404 0 0 1-.37 7.29l-.43.43a27.144 27.144 0 0 0-2.5 1.9 28.006 28.006 0 0 0-5.01 5.61 28.406 28.406 0 0 0-5.02-5.61 25.858 25.858 0 0 0-2.5-1.9c-.14-.15-.28-.29-.43-.43a5.404 5.404 0 0 1-.37-7.29z"/><path d="m87.747 113.085 3.741-3.844h-7.481l3.74 3.844zM57.413 43.469a3.794 3.794 0 0 1-5.554.22l-.363-.362-.362.362a3.786 3.786 0 0 1-5.547-.22 3.843 3.843 0 0 1 .263-5.185l.306-.305a19.298 19.298 0 0 0 1.778-1.351 19.917 19.917 0 0 0 3.562-3.99 20.205 20.205 0 0 0 3.57 3.99 18.372 18.372 0 0 0 1.778 1.35c.1.107.2.207.306.306a3.843 3.843 0 0 1 .263 5.185z"/><path d="m51.499 44.966-2.66 2.734h5.32l-2.66-2.734zm-5.912 71.565a3.794 3.794 0 0 1 5.554-.22l.363.362.362-.362a3.786 3.786 0 0 1 5.547.22 3.843 3.843 0 0 1-.263 5.184l-.306.306a19.298 19.298 0 0 0-1.778 1.351 19.917 19.917 0 0 0-3.562 3.99 20.205 20.205 0 0 0-3.57-3.99 18.372 18.372 0 0 0-1.778-1.35c-.1-.107-.2-.207-.306-.307a3.843 3.843 0 0 1-.263-5.184z"/><path d="m51.501 115.034 2.66-2.734h-5.32l2.66 2.734z"/></svg>