<svg xmlns="http://www.w3.org/2000/svg" viewBox="0 0 103 160"><path fill="#fff" d="M0 0h103v160H0z"/><path d="M23.569 44.81a5.335 5.335 0 0 1-7.81.31l-.51-.51-.51.51a5.324 5.324 0 0 1-7.8-.31 5.404 5.404 0 0 1 .37-7.29l.43-.43a27.144 27.144 0 0 0 2.5-1.9 28.006 28.006 0 0 0 5.01-5.61 28.406 28.406 0 0 0 5.02 5.61 25.858 25.858 0 0 0 2.5 1.9c.14.15.28.29.43.43a5.404 5.404 0 0 1 .37 7.29z"/><path d="m15.253 46.915-3.741 3.844h7.481l-3.74-3.844zm3.26-31.773a8.023 8.023 0 0 1 3.162 2.503 5.563 5.563 0 0 1 .956 3.2 6.642 6.642 0 0 1-1.644 4.444 7.167 7.167 0 0 1-5.763 2.356 7.009 7.009 0 0 1-5.48-2.067 6.65 6.65 0 0 1-1.867-4.555 5.762 5.762 0 0 1 .977-3.281 8.24 8.24 0 0 1 3.26-2.6 6.15 6.15 0 0 1-2.4-2.06 4.748 4.748 0 0 1-.8-2.636 5.16 5.16 0 0 1 .851-2.778 5.939 5.939 0 0 1 2.356-2.133 6.975 6.975 0 0 1 3.251-.778 6.527 6.527 0 0 1 3.156.786 5.882 5.882 0 0 1 2.274 2.133 5.353 5.353 0 0 1 .822 2.829 4.612 4.612 0 0 1-.778 2.637 6.428 6.428 0 0 1-2.333 2zm-3.148 1.096a5.242 5.242 0 0 0-3.773 1.459 4.572 4.572 0 0 0-1.523 3.4 4.383 4.383 0 0 0 2.471 3.91 6.028 6.028 0 0 0 2.706.578 5.117 5.117 0 0 0 3.788-1.407 4.513 4.513 0 0 0 1.405-3.288 4.36 4.36 0 0 0-1.487-3.237 5.02 5.02 0 0 0-3.587-1.415zm-.104-9.362a4.283 4.283 0 0 0-2.975 1.059 3.281 3.281 0 0 0-1.18 2.526 3.524 3.524 0 0 0 1.269 2.629 4.211 4.211 0 0 0 2.96 1.178 4.159 4.159 0 0 0 2.047-.534 3.897 3.897 0 0 0 1.508-1.459 3.656 3.656 0 0 0 .54-1.859 3.44 3.44 0 0 0-1.068-2.43 4.102 4.102 0 0 0-3.1-1.11zm64.17 108.314a5.335 5.335 0 0 1 7.81-.31l.51.51.51-.51a5.324 5.324 0 0 1 7.8.31 5.404 5.404 0 0 1-.37 7.29l-.43.43a27.144 27.144 0 0 0-2.5 1.9 28.006 28.006 0 0 0-5.01 5.61 28.406 28.406 0 0 0-5.02-5.61 25.858 25.858 0 0 0-2.5-1.9c-.14-.15-.28-.29-.43-.43a5.404 5.404 0 0 1-.37-7.29z"/><path d="m87.747 113.085 3.741-3.844h-7.481l3.74 3.844zm-3.26 31.773a8.023 8.023 0 0 1-3.162-2.503 5.563 5.563 0 0 1-.956-3.2 6.642 6.642 0 0 1 1.644-4.444 7.167 7.167 0 0 1 5.763-2.356 7.009 7.009 0 0 1 5.48 2.067 6.65 6.65 0 0 1 1.867 4.555 5.762 5.762 0 0 1-.977 3.281 8.24 8.24 0 0 1-3.26 2.6 6.15 6.15 0 0 1 2.4 2.06 4.748 4.748 0 0 1 .8 2.636 5.16 5.16 0 0 1-.851 2.778 5.939 5.939 0 0 1-2.355 2.133 6.975 6.975 0 0 1-3.252.778 6.527 6.527 0 0 1-3.155-.785 5.882 5.882 0 0 1-2.274-2.134 5.353 5.353 0 0 1-.822-2.829 4.612 4.612 0 0 1 .777-2.637 6.428 6.428 0 0 1 2.333-2zm3.148-1.096a5.242 5.242 0 0 0 3.773-1.459 4.572 4.572 0 0 0 1.523-3.4 4.383 4.383 0 0 0-2.472-3.91 6.028 6.028 0 0 0-2.705-.578 5.117 5.117 0 0 0-3.788 1.407 4.513 4.513 0 0 0-1.405 3.288 4.36 4.36 0 0 0 1.487 3.237 5.02 5.02 0 0 0 3.587 1.415zm.104 9.362a4.283 4.283 0 0 0 2.975-1.059 3.281 3.281 0 0 0 1.18-2.526 3.524 3.524 0 0 0-1.27-2.629 4.211 4.211 0 0 0-2.96-1.178 4.159 4.159 0 0 0-2.046.534 3.897 3.897 0 0 0-1.508 1.459 3.656 3.656 0 0 0-.541 1.859 3.44 3.44 0 0 0 1.069 2.43 4.102 4.102 0 0 0 3.1 1.11zM73.397 43.469a3.794 3.794 0 0 1-5.555.22l-.362-.362-.363.362a3.786 3.786 0 0 1-5.547-.22 3.843 3.843 0 0 1 .263-5.185l.306-.305a19.311 19.311 0 0 0 1.778-1.351 19.917 19.917 0 0 0 3.563-3.99 20.208 20.208 0 0 0 3.57 3.99 18.397 18.397 0 0 0 1.778 1.35c.1.107.199.207.305.306a3.843 3.843 0 0 1 .264 5.185z"/><path d="m67.482 44.966-2.66 2.734h5.321l-2.661-2.734zM41.43 43.469a3.794 3.794 0 0 1-5.554.22l-.363-.362-.362.362a3.786 3.786 0 0 1-5.548-.22 3.843 3.843 0 0 1 .264-5.185l.305-.305a19.311 19.311 0 0 0 1.778-1.351 19.917 19.917 0 0 0 3.563-3.99 20.204 20.204 0 0 0 3.57 3.99 18.397 18.397 0 0 0 1.778 1.35c.1.107.199.207.306.307a3.843 3.843 0 0 1 .263 5.184z"/><path d="m35.516 44.966-2.66 2.734h5.32l-2.66-2.734zm-5.913 71.565a3.794 3.794 0 0 1 5.554-.22l.363.362.363-.362a3.786 3.786 0 0 1 5.547.22 3.843 3.843 0 0 1-.263 5.184l-.306.306a19.311 19.311 0 0 0-1.778 1.351 19.917 19.917 0 0 0-3.563 3.99 20.208 20.208 0 0 0-3.57-3.99 18.397 18.397 0 0 0-1.778-1.35 6.328 6.328 0 0 0-.306-.307 3.843 3.843 0 0 1-.263-5.184z"/><path d="m35.518 115.034 2.66-2.734h-5.321l2.661 2.734zM41.43 83.3a3.794 3.794 0 0 1-5.554.22l-.363-.362-.362.362a3.786 3.786 0 0 1-5.548-.22 3.843 3.843 0 0 1 .263-5.184l.306-.306a19.295 19.295 0 0 0 1.778-1.351 19.914 19.914 0 0 0 3.563-3.99 20.201 20.201 0 0 0 3.57 3.99 18.383 18.383 0 0 0 1.778 1.351c.1.107.2.206.306.306a3.843 3.843 0 0 1 .263 5.184z"/><path d="m35.516 84.797-2.66 2.734h5.32l-2.66-2.734zm26.054 31.734a3.794 3.794 0 0 1 5.554-.22l.363.362.363-.362a3.786 3.786 0 0 1 5.547.22 3.843 3.843 0 0 1-.264 5.184l-.305.306a19.311 19.311 0 0 0-1.778 1.351 19.917 19.917 0 0 0-3.563 3.99 20.204 20.204 0 0 0-3.57-3.99 18.397 18.397 0 0 0-1.778-1.35c-.1-.107-.2-.207-.306-.307a3.843 3.843 0 0 1-.263-5.184z"/><path d="m67.484 115.034 2.66-2.734h-5.32l2.66 2.734zM73.397 83.3a3.794 3.794 0 0 1-5.555.22l-.362-.362-.363.362a3.786 3.786 0 0 1-5.547-.22 3.843 3.843 0 0 1 .263-5.184l.306-.306a19.295 19.295 0 0 0 1.778-1.351 19.914 19.914 0 0 0 3.563-3.99 20.205 20.205 0 0 0 3.57 3.99 18.383 18.383 0 0 0 1.778 1.351c.1.107.199.206.305.306a3.843 3.843 0 0 1 .264 5.184z"/><path d="m67.482 84.797-2.66 2.734h5.321l-2.661-2.734zM57.413 63.385a3.794 3.794 0 0 1-5.554.22l-.363-.363-.362.363a3.786 3.786 0 0 1-5.547-.22 3.843 3.843 0 0 1 .263-5.185l.306-.306a19.3 19.3 0 0 0 1.778-1.351 19.914 19.914 0 0 0 3.563-3.99 20.202 20.202 0 0 0 3.57 3.99 18.374 18.374 0 0 0 1.778 1.351c.1.107.199.206.305.306a3.843 3.843 0 0 1 .263 5.184z"/><path d="m51.499 64.882-2.66 2.733h5.32l-2.66-2.733zm-5.912 31.733a3.794 3.794 0 0 1 5.554-.22l.363.363.362-.362a3.786 3.786 0 0 1 5.547.22 3.843 3.843 0 0 1-.263 5.184l-.306.306a19.3 19.3 0 0 0-1.778 1.351 19.914 19.914 0 0 0-3.563 3.99 20.202 20.202 0 0 0-3.57-3.99 18.374 18.374 0 0 0-1.778-1.351 6.39 6.39 0 0 0-.305-.306 3.843 3.843 0 0 1-.263-5.184z"/><path d="m51.501 95.118 2.66-2.733h-5.32l2.66 2.733z"/></svg>