<?xml version="1.0" encoding="iso-8859-1"?>
<!-- Uploaded to: SVG Repo, www.svgrepo.com, Generator: SVG Repo Mixer Tools -->
<svg height="800px" width="800px" version="1.1" id="Layer_1" xmlns="http://www.w3.org/2000/svg" xmlns:xlink="http://www.w3.org/1999/xlink" 
	 viewBox="0 0 473.931 473.931" xml:space="preserve">
<circle style="fill:#D7DABA;" cx="236.966" cy="236.966" r="236.966"/>
<path style="fill:#CB7429;" d="M144.398,93.791c-8.827,0-15.981,7.154-15.981,15.981v255.757c0,8.827,7.154,15.981,15.981,15.981
	H328.22c8.827,0,15.981-7.154,15.981-15.981V167.814l-77.05-74.023H144.398z"/>
<g>
	<path style="fill:#B56027;" d="M344.201,167.814h-61.066c-8.827,0-15.981-7.154-15.981-15.981V93.791L344.201,167.814z"/>
	<path style="fill:#B56027;" d="M263.966,271.772c0,10.189-8.258,18.447-18.439,18.447H110.876
		c-10.189,0-18.439-8.258-18.439-18.447v-56.351c0-10.189,8.251-18.443,18.439-18.443h134.651c10.181,0,18.439,8.254,18.439,18.443
		V271.772z"/>
</g>
<g>
	<path style="fill:#FFFFFF;" d="M144.267,226.133c3.888,0,7.229,0.79,10.013,2.365c2.791,1.575,4.902,3.82,6.331,6.728
		c1.429,2.907,2.148,6.32,2.148,10.245c0,2.9-0.389,5.534-1.175,7.903s-1.961,4.427-3.528,6.163
		c-1.568,1.736-3.499,3.068-5.781,3.989c-2.282,0.92-4.905,1.381-7.854,1.381c-2.934,0-5.557-0.471-7.876-1.418
		s-4.254-2.279-5.807-4.004c-1.553-1.725-2.724-3.794-3.517-6.215c-0.79-2.421-1.186-5.04-1.186-7.854
		c0-2.881,0.412-5.527,1.239-7.929c0.831-2.406,2.028-4.449,3.596-6.14c1.568-1.691,3.48-2.978,5.729-3.876
		C138.846,226.571,141.401,226.133,144.267,226.133z M155.059,245.418c0-2.746-0.442-5.126-1.328-7.136s-2.152-3.532-3.802-4.565
		c-1.643-1.033-3.532-1.549-5.665-1.549c-1.515,0-2.919,0.284-4.209,0.857c-1.287,0.572-2.395,1.403-3.326,2.496
		c-0.928,1.093-1.658,2.485-2.2,4.183c-0.535,1.699-0.804,3.603-0.804,5.717c0,2.133,0.269,4.056,0.804,5.781
		c0.543,1.721,1.298,3.151,2.279,4.284c0.98,1.134,2.107,1.983,3.375,2.544c1.268,0.561,2.664,0.846,4.18,0.846
		c1.946,0,3.731-0.486,5.358-1.459c1.631-0.973,2.926-2.473,3.888-4.501C154.576,250.885,155.059,248.386,155.059,245.418z"/>
	<path style="fill:#FFFFFF;" d="M191.612,233.041h-8.288v27.24c0,1.568-0.352,2.732-1.048,3.491
		c-0.696,0.76-1.605,1.138-2.713,1.138c-1.126,0-2.043-0.385-2.746-1.152c-0.707-0.767-1.063-1.927-1.063-3.48v-27.24h-8.288
		c-1.298,0-2.26-0.284-2.889-0.857c-0.629-0.572-0.947-1.325-0.947-2.264c0-0.973,0.329-1.74,0.984-2.301
		c0.659-0.561,1.609-0.846,2.855-0.846h24.146c1.313,0,2.29,0.292,2.926,0.868c0.644,0.58,0.962,1.34,0.962,2.275
		s-0.326,1.691-0.973,2.264C193.883,232.749,192.91,233.041,191.612,233.041z"/>
	<path style="fill:#FFFFFF;" d="M214.556,249.665H207.6v10.615c0,1.519-0.359,2.668-1.074,3.454
		c-0.715,0.786-1.62,1.175-2.713,1.175c-1.145,0-2.065-0.389-2.761-1.164c-0.696-0.775-1.048-1.916-1.048-3.416v-28.901
		c0-1.673,0.385-2.866,1.152-3.581c0.767-0.715,1.987-1.074,3.659-1.074h9.744c2.885,0,5.096,0.221,6.649,0.666
		c1.534,0.427,2.862,1.134,3.978,2.122c1.119,0.988,1.964,2.2,2.548,3.633c0.584,1.433,0.868,3.042,0.868,4.834
		c0,3.82-1.175,6.713-3.528,8.685C222.721,248.685,219.211,249.665,214.556,249.665z M212.712,232.476h-5.115v11.461h5.115
		c1.792,0,3.289-0.187,4.486-0.561c1.205-0.374,2.118-0.988,2.75-1.841c0.632-0.853,0.947-1.968,0.947-3.353
		c0-1.654-0.486-3.001-1.459-4.041C218.347,233.029,216.109,232.476,212.712,232.476z"/>
</g>
</svg>