<?xml version="1.0" standalone="no"?>
<!DOCTYPE svg PUBLIC "-//W3C//DTD SVG 20010904//EN"
 "http://www.w3.org/TR/2001/REC-SVG-20010904/DTD/svg10.dtd">
<svg version="1.0" xmlns="http://www.w3.org/2000/svg"
 width="512.000000pt" height="512.000000pt" viewBox="0 0 512.000000 512.000000"
 preserveAspectRatio="xMidYMid meet">
<metadata>
Created by potrace 1.14, written by Peter Selinger 2001-2017
</metadata>
<g transform="translate(0.000000,512.000000) scale(0.100000,-0.100000)"
fill="#000000" stroke="none">
<path d="M1115 3265 c-5 -2 -22 -6 -37 -9 -59 -13 -58 -2 -58 -725 l0 -660 24
-28 24 -28 456 0 456 0 27 27 c25 26 28 35 31 125 3 80 0 105 -15 133 -28 53
-56 59 -319 59 -180 1 -234 4 -249 15 -15 11 -20 29 -23 82 -3 59 -1 73 18 97
l21 27 222 0 c204 0 224 2 264 21 71 35 59 56 178 -314 58 -181 83 -245 105
-270 l28 -32 195 -3 c212 -3 250 3 281 51 9 13 74 206 145 429 71 223 134 415
140 427 22 41 46 25 90 -58 22 -43 41 -89 41 -100 0 -26 -32 -90 -198 -401
-75 -139 -128 -252 -132 -276 -6 -40 -6 -41 34 -58 61 -27 273 -20 313 10 17
13 63 86 118 190 119 222 112 222 220 18 101 -190 109 -203 150 -220 51 -21
266 -19 312 3 33 15 35 19 30 54 -3 23 -64 145 -155 311 -188 342 -182 331
-182 368 0 22 50 121 166 328 101 181 169 314 174 340 7 42 7 43 -29 58 -28
12 -67 15 -168 12 -114 -3 -135 -6 -160 -24 -19 -14 -56 -76 -114 -195 -110
-223 -109 -223 -191 -54 -97 201 -113 229 -148 253 -31 21 -43 22 -207 22
-198 0 -230 -8 -255 -61 -9 -19 -57 -196 -108 -394 -107 -423 -117 -455 -136
-455 -23 0 -35 38 -139 445 -53 209 -104 392 -112 408 -29 57 -34 57 -600 56
-285 0 -522 -2 -528 -4z m743 -370 c32 -27 68 -130 57 -164 -9 -28 -32 -31
-241 -31 -238 0 -239 0 -239 110 0 108 3 110 220 110 170 0 174 -1 203 -25z"/>
</g>
</svg>
